<?xml version="1.0" encoding="utf-8"?>
<svg version="1.1" xmlns="http://www.w3.org/2000/svg" xmlns:xlink="http://www.w3.org/1999/xlink" x="0px" y="0px"
	 viewBox="0 0 44 44" preserveAspectRatio="xMaxYMid" style="enable-background:new 0 0 44 44;" xml:space="preserve">
	<g id="cross" transform="translate(-6.000000, -6.000000)">
		<path d="M35.7,21.5c0.4-0.4,0.4-0.9,0-1.3c-0.4-0.4-0.9-0.4-1.3,0L28,26.7l-6.5-6.5
			c-0.4-0.4-0.9-0.4-1.3,0c-0.4,0.4-0.4,0.9,0,1.3l6.5,6.5l-6.5,6.5c-0.4,0.4-0.4,0.9,0,1.3c0.4,0.4,0.9,0.4,1.3,0l6.5-6.5l6.5,6.5
			c0.4,0.4,0.9,0.4,1.3,0c0.4-0.4,0.4-0.9,0-1.3L29.3,28L35.7,21.5z"/>
	</g>
</svg>
