<?xml version="1.0" encoding="utf-8"?>
<!-- Generator: Adobe Illustrator 19.2.0, SVG Export Plug-In . SVG Version: 6.00 Build 0)  -->
<svg version="1.1" id="Calque_1" xmlns="http://www.w3.org/2000/svg" xmlns:xlink="http://www.w3.org/1999/xlink" x="0px" y="0px"
	 viewBox="0 0 44 44" style="enable-background:new 0 0 44 44;" xml:space="preserve">
<style type="text/css">
	.st0{fill:#E25C5B;}
</style>
<g id="cross" transform="translate(11.000000, 11.000000)">
	<path id="Shape" class="st0" d="M19.7,3.7c0.8-0.8-0.3-2.2-1.3-1.6c-0.2,0.1-0.4,0.4-0.5,0.5c-0.8,0.8-1.6,1.6-2.4,2.4
		c-1.5,1.5-3,3-4.5,4.5C8.8,7.3,6.5,5,4.2,2.7C3.8,2.3,3.3,1.8,2.7,2.1C1.7,2.3,2,3.3,2.5,4C3.7,5.2,5,6.4,6.2,7.7
		C6.9,8.3,7.6,9,8.3,9.7c0.2,0.2,1.1,0.8,1.2,1.2c0,0.2-0.3,0.4-0.5,0.5c-0.5,0.5-1.2,1.2-1.7,1.7c-1.4,1.4-2.8,2.8-4.1,4.1
		c-0.3,0.3-0.5,0.5-0.8,0.8c-0.9,1.1,0.5,2.3,1.4,1.4c1.4-1.2,2.6-2.6,3.9-3.9c1.2-1.2,2.3-2.3,3.4-3.4c2.3,2.3,4.5,4.5,6.8,6.8
		c0.5,0.5,0.8,1,1.5,0.7c1-0.4,0.7-1.4,0.2-1.9c-1.2-1.3-2.4-2.4-3.7-3.7c-1.2-1.2-2.3-2.3-3.4-3.4C14.9,8.6,17.3,6.1,19.7,3.7z"/>
</g>
</svg>
