<?xml version="1.0" encoding="utf-8"?>
<!-- Generator: Adobe Illustrator 19.2.0, SVG Export Plug-In . SVG Version: 6.00 Build 0)  -->
<svg version="1.1" id="select" xmlns="http://www.w3.org/2000/svg" xmlns:xlink="http://www.w3.org/1999/xlink" x="0px" y="0px"
	 viewBox="0 0 33 44" style="enable-background:new 0 0 33 44;" xml:space="preserve">
<style type="text/css">
	.st0{fill:#A1A9AE;}
	.st1{fill:#D5D9DA;}
</style>
<g>
	<path class="st0" d="M19.8,19.7h-6.6c-0.2,0-0.5-0.2-0.6-0.4c-0.1-0.2-0.1-0.5,0.1-0.7l3.3-3.8c0.1-0.1,0.3-0.2,0.5-0.2
		c0.2,0,0.3,0.1,0.5,0.2l3.4,3.8c0.2,0.2,0.2,0.5,0.1,0.7C20.2,19.5,20.1,19.7,19.8,19.7z"/>
	<path class="st0" d="M19.8,24.3h-6.6c-0.2,0-0.5,0.2-0.6,0.4c-0.1,0.2-0.1,0.5,0.1,0.7l3.3,3.8c0.1,0.1,0.3,0.2,0.5,0.2
		c0.2,0,0.3-0.1,0.5-0.2l3.4-3.8c0.2-0.2,0.2-0.5,0.1-0.7C20.2,24.5,20.1,24.3,19.8,24.3z"/>
</g>
<rect y="0" class="st1" width="1" height="44"/>
</svg>
