<?xml version="1.0" encoding="utf-8"?>
<svg version="1.1" id="select" xmlns="http://www.w3.org/2000/svg" xmlns:xlink="http://www.w3.org/1999/xlink" x="0px" y="0px"
	 viewBox="0 0 33 44" preserveAspectRatio="xMaxYMid" style="enable-background:new 0 0 33 44;" xml:space="preserve">
	<g>
		<path d="M19.8,19.7h-6.6c-0.2,0-0.5-0.2-0.6-0.4c-0.1-0.2-0.1-0.5,0.1-0.7l3.3-3.8c0.1-0.1,0.3-0.2,0.5-0.2
			c0.2,0,0.3,0.1,0.5,0.2l3.4,3.8c0.2,0.2,0.2,0.5,0.1,0.7C20.2,19.5,20.1,19.7,19.8,19.7z"/>
		<path d="M19.8,24.3h-6.6c-0.2,0-0.5,0.2-0.6,0.4c-0.1,0.2-0.1,0.5,0.1,0.7l3.3,3.8c0.1,0.1,0.3,0.2,0.5,0.2
			c0.2,0,0.3-0.1,0.5-0.2l3.4-3.8c0.2-0.2,0.2-0.5,0.1-0.7C20.2,24.5,20.1,24.3,19.8,24.3z"/>
	</g>
	<rect y="0" width="1" height="44"/>
</svg>
