<?xml version="1.0" encoding="utf-8"?>
<!-- Generator: Adobe Illustrator 19.2.1, SVG Export Plug-In . SVG Version: 6.00 Build 0)  -->
<svg version="1.1" id="Calque_1" xmlns="http://www.w3.org/2000/svg" xmlns:xlink="http://www.w3.org/1999/xlink" x="0px" y="0px"
	 viewBox="0 0 20 20" style="enable-background:new 0 0 20 20;" xml:space="preserve">
<style type="text/css">
	.st0{fill:#3A434C;}
</style>
<path class="st0" d="M20,7.3c0-0.4-0.3-0.8-0.6-0.9l-9-3.4c-0.2-0.1-0.5-0.1-0.7,0l-9,3.4C0.3,6.5,0,6.9,0,7.3s0.2,0.8,0.6,0.9
	l4,1.7v6c0,0.5,0.4,1,1,1h8.8c0.3,0,0.5-0.1,0.7-0.3s0.3-0.4,0.3-0.7l0-6l1.3-0.5v2.5c0,0.6,0.5,1,1,1s1-0.4,1-1V8.5l0.7-0.3
	C19.8,8.1,20,7.7,20,7.3z M13.4,10.8v4.1H6.6v-4.1l3,1.2c0.2,0.1,0.5,0.1,0.7,0l0,0c0,0,0.1,0,0.1,0l0.5-0.2L13.4,10.8z M10.2,9.9
	L10,10L3.7,7.3L10,5l6.3,2.4L10.2,9.9z"/>
</svg>
