<?xml version="1.0" encoding="utf-8"?>
<!-- Generator: Adobe Illustrator 19.1.0, SVG Export Plug-In . SVG Version: 6.00 Build 0)  -->
<svg version="1.1" id="Calque_1" xmlns="http://www.w3.org/2000/svg" xmlns:xlink="http://www.w3.org/1999/xlink" x="0px" y="0px"
	 viewBox="0 0 20 20" enable-background="new 0 0 20 20" xml:space="preserve">
<polygon fill="none" points="3.7,7.35 9.99,9.99 10.17,9.92 16.3,7.35 10,4.97 "/>
<path fill="none" d="M10.32,12.01l-0.03,0.01c-0.24,0.09-0.5,0.09-0.74,0L6.6,10.85l0,4.05h6.79l0-4.1l-2.47,0.97L10.39,12
	C10.36,12.01,10.34,12.01,10.32,12.01z"/>
<path fill="#3A434C" d="M20,7.29c-0.01-0.41-0.26-0.77-0.65-0.92l-9-3.41c-0.23-0.09-0.48-0.09-0.71,0l-9,3.41
	C0.26,6.52,0.01,6.88,0,7.29C-0.01,7.7,0.23,8.07,0.61,8.23L4.6,9.9l0,6c0,0.55,0.45,1,1,1h8.79c0.27,0,0.52-0.1,0.71-0.29
	s0.29-0.44,0.29-0.71l-0.01-6l1.27-0.53v2.5c0,0.55,0.45,1,1,1s1-0.45,1-1V8.53l0.73-0.3C19.77,8.07,20.01,7.7,20,7.29z M13.39,10.8
	l0,4.1H6.6l0-4.05l2.95,1.17c0.24,0.09,0.5,0.09,0.74,0l0.03-0.01c0.02-0.01,0.05,0,0.07-0.01l0.54-0.23L13.39,10.8z M10.17,9.92
	L9.99,9.99L3.7,7.35L10,4.97l6.3,2.38L10.17,9.92z"/>
</svg>
