<?xml version="1.0" encoding="utf-8"?>
<!-- Generator: Adobe Illustrator 19.2.1, SVG Export Plug-In . SVG Version: 6.00 Build 0)  -->
<svg version="1.1" id="Calque_1" xmlns="http://www.w3.org/2000/svg" xmlns:xlink="http://www.w3.org/1999/xlink" x="0px" y="0px"
	 viewBox="0 0 20 20" style="enable-background:new 0 0 20 20;" xml:space="preserve">
<style type="text/css">
	.st0{fill:#3A434C;}
</style>
<path class="st0" d="M2,20h9.5c0.6,0,1-0.5,1-1s-0.4-1-1-1H3v-1c0-0.2,0-0.3,0.1-0.5c0.2-0.3,0.5-0.6,1-1c0.8-0.5,1.8-0.9,2.9-1.2
	c1.1-0.3,2.2-0.4,3-0.4c0.7,0,1.7,0.1,2.7,0.4c0.5,0.1,1.1-0.2,1.2-0.8c0.1-0.5-0.2-1.1-0.8-1.2C12.1,12.1,10.9,12,10,12
	c-1.5,0-3.5,0.3-5.4,1.1c-0.9,0.4-1.8,0.8-2.4,1.4c-0.3,0.3-0.6,0.7-0.9,1.1S1,16.5,1,17v2c0,0.3,0.1,0.5,0.3,0.7S1.8,20,2,20z"/>
<path class="st0" d="M10,10c2.8,0,5-2.2,5-5s-2.2-5-5-5S5,2.2,5,5C5,7.8,7.3,10,10,10z M10,2c1.7,0,3,1.3,3,3s-1.3,3-3,3S7,6.7,7,5
	C7,3.3,8.4,2,10,2z"/>
<path class="st0" d="M14.3,16.1c-0.6,0-1,0.5-1,1s0.4,1,1,1h0.9V19c0,0.5,0.4,1,1,1s1-0.5,1-1v-0.9H18c0.5,0,1-0.5,1-1s-0.5-1-1-1
	h-0.9v-0.9c0-0.6-0.5-1-1-1c-0.6,0-1,0.4-1,1v0.9H14.3z"/>
</svg>
