<svg viewBox="0 0 20 20"><path d="M2 20h9.5c.6 0 1-.5 1-1s-.4-1-1-1H3v-1c0-.2 0-.3.1-.5.2-.3.5-.6 1-1 .8-.5 1.8-.9 2.9-1.2 1.1-.3 2.2-.4 3-.4.7 0 1.7.1 2.7.4.5.1 1.1-.2 1.2-.8.1-.5-.2-1.1-.8-1.2-1-.2-2.2-.3-3.1-.3-1.5 0-3.5.3-5.4 1.1-.9.4-1.8.8-2.4 1.4-.3.3-.6.7-.9 1.1S1 16.5 1 17v2c0 .3.1.5.3.7s.5.3.7.3zm8-10c2.8 0 5-2.2 5-5s-2.2-5-5-5-5 2.2-5 5 2.3 5 5 5zm0-8c1.7 0 3 1.3 3 3s-1.3 3-3 3-3-1.3-3-3 1.4-3 3-3zm4.3 14.1c-.6 0-1 .5-1 1s.4 1 1 1h.9v.9c0 .5.4 1 1 1s1-.5 1-1v-.9h.8c.5 0 1-.5 1-1s-.5-1-1-1h-.9v-.9c0-.6-.5-1-1-1-.6 0-1 .4-1 1v.9h-.8z"/></svg>