<?xml version="1.0" encoding="utf-8"?>
<!-- Generator: Adobe Illustrator 19.1.0, SVG Export Plug-In . SVG Version: 6.00 Build 0)  -->
<svg version="1.1" id="Calque_1" xmlns="http://www.w3.org/2000/svg" xmlns:xlink="http://www.w3.org/1999/xlink" x="0px" y="0px"
	 viewBox="0 0 20 20" enable-background="new 0 0 20 20" xml:space="preserve">
<g>
	<path fill="none" d="M10.03,8c1.66,0,3-1.34,3-3c0-1.66-1.34-3-3-3c-1.66,0-3,1.34-3,3C7.03,6.66,8.37,8,10.03,8z"/>
	<path fill="#3A434C" d="M2.03,20h9.5c0.55,0,1-0.45,1-1c0-0.55-0.45-1-1-1h-8.5v-1c0-0.16,0.04-0.31,0.12-0.48
		c0.15-0.29,0.48-0.64,0.98-0.96c0.75-0.49,1.84-0.9,2.93-1.16c1.09-0.27,2.2-0.4,2.97-0.4c0.72,0,1.73,0.11,2.74,0.35
		c0.54,0.12,1.07-0.21,1.2-0.75c0.12-0.54-0.21-1.07-0.75-1.2c-1.15-0.26-2.27-0.4-3.19-0.4C8.54,12,6.48,12.35,4.66,13.07
		c-0.91,0.37-1.75,0.82-2.43,1.44c-0.34,0.31-0.63,0.67-0.85,1.09c-0.22,0.42-0.35,0.9-0.35,1.4v2c0,0.26,0.11,0.52,0.29,0.71
		S1.77,20,2.03,20z"/>
	<path fill="#3A434C" d="M10.03,10c2.76,0,5-2.24,5-5c0-2.76-2.24-5-5-5c-2.76,0-5,2.24-5,5C5.03,7.77,7.27,10,10.03,10z M10.03,2
		c1.66,0,3,1.34,3,3c0,1.66-1.34,3-3,3c-1.66,0-3-1.34-3-3C7.03,3.34,8.37,2,10.03,2z"/>
	<path fill="#3A434C" d="M14.26,16.14c-0.55,0-1,0.45-1,1c0,0.55,0.45,1,1,1h0.86V19c0,0.55,0.45,1,1,1c0.55,0,1-0.45,1-1v-0.86
		h0.86c0.55,0,1-0.45,1-1c0-0.55-0.45-1-1-1h-0.86v-0.86c0-0.55-0.45-1-1-1c-0.55,0-1,0.45-1,1v0.86H14.26z"/>
</g>
</svg>
