<?xml version="1.0" encoding="UTF-8" standalone="no"?>
<svg width="18px" height="20px" viewBox="0 0 18 20" version="1.1" xmlns="http://www.w3.org/2000/svg" xmlns:xlink="http://www.w3.org/1999/xlink" xmlns:sketch="http://www.bohemiancoding.com/sketch/ns">
    <!-- Generator: Sketch 3.4.2 (15857) - http://www.bohemiancoding.com/sketch -->
    <title>addUser</title>
    <desc>Created with Sketch.</desc>
    <defs></defs>
    <g id="Page-1" stroke="none" stroke-width="1" fill="none" fill-rule="evenodd" sketch:type="MSPage">
        <g id="addUser" sketch:type="MSArtboardGroup" transform="translate(-7.000000, -6.000000)" fill="#3A434C">
            <g sketch:type="MSLayerGroup" transform="translate(7.000000, 5.875000)">
                <path d="M13.0787386,13.6834773 C13.2048409,13.1385682 12.8642727,12.5955 12.3193636,12.4693977 C11.19825,12.2125909 10.1111932,12.0818864 9.22019318,12.0809659 C7.76679545,12.0864886 5.76572727,12.4224545 3.99753409,13.1247614 C3.11573864,13.4800568 2.29193182,13.9246364 1.62920455,14.5321364 C1.29968182,14.8368068 1.00973864,15.1865795 0.797113636,15.5961818 C0.583568182,16.0048636 0.455625,16.4770568 0.456545455,16.9695 L0.456545455,18.9070568 C0.456545455,19.1730682 0.564238636,19.4344773 0.752931818,19.6231705 C0.941625,19.8109432 1.20211364,19.9195568 1.46904545,19.9195568 L10.6726705,19.9195568 C11.2313864,19.9195568 11.6851705,19.4657727 11.6851705,18.9070568 C11.6851705,18.3474205 11.2313864,17.8945568 10.6726705,17.8945568 L2.48154545,17.8945568 L2.48154545,16.9695 C2.48246591,16.8167045 2.51468182,16.6850795 2.59476136,16.5286023 C2.73006818,16.2589091 3.04946591,15.9257045 3.53270455,15.6164318 C4.2525,15.1497614 5.30273864,14.7530455 6.35665909,14.4953182 C7.40965909,14.2339091 8.47922727,14.104125 9.22019318,14.1059659 C9.90961364,14.1050455 10.8852955,14.2164205 11.8655795,14.4428523 C12.4095682,14.5689545 12.9535568,14.2283864 13.0787386,13.6834773" id="Fill-1" sketch:type="MSShapeGroup"></path>
                <path d="M9.22019318,10.2437386 C11.9198864,10.2437386 14.1078068,8.05673864 14.1078068,5.356125 C14.1078068,2.65551136 11.9198864,0.468511364 9.22019318,0.467590909 C6.51957955,0.468511364 4.33257955,2.65551136 4.33165909,5.356125 C4.33257955,8.05673864 6.51957955,10.2437386 9.22019318,10.2437386 L9.22019318,10.2437386 Z M9.22019318,2.49259091 C10.8015341,2.49535227 12.0800455,3.77386364 12.0828068,5.356125 C12.0800455,6.93746591 10.8015341,8.21597727 9.22019318,8.21873864 C7.63793182,8.21597727 6.35942045,6.93746591 6.35665909,5.356125 C6.35942045,3.77386364 7.63793182,2.49535227 9.22019318,2.49259091 L9.22019318,2.49259091 Z" id="Fill-2" sketch:type="MSShapeGroup"></path>
                <path d="M16.9069091,16.1005909 L16.1217614,16.1005909 L16.1217614,15.3163636 C16.1217614,14.7576477 15.6688977,14.3038636 15.1092614,14.3038636 C14.5505455,14.3038636 14.0967614,14.7576477 14.0967614,15.3163636 L14.0967614,16.1005909 L13.3134545,16.1005909 C12.7538182,16.1005909 12.3000341,16.554375 12.3000341,17.1130909 C12.3000341,17.6727273 12.7538182,18.1255909 13.3134545,18.1255909 L14.0967614,18.1255909 L14.0967614,18.9098182 C14.0967614,19.4694545 14.5505455,19.9223182 15.1092614,19.9223182 C15.6688977,19.9223182 16.1217614,19.4694545 16.1217614,18.9098182 L16.1217614,18.1255909 L16.9069091,18.1255909 C17.465625,18.1255909 17.9184886,17.6727273 17.9184886,17.1130909 C17.9184886,16.554375 17.465625,16.1005909 16.9069091,16.1005909" id="Fill-3" sketch:type="MSShapeGroup"></path>
            </g>
        </g>
    </g>
</svg>