<?xml version="1.0" encoding="utf-8"?>
<!-- Generator: Adobe Illustrator 19.1.0, SVG Export Plug-In . SVG Version: 6.00 Build 0)  -->
<svg version="1.1" id="Calque_1" xmlns="http://www.w3.org/2000/svg" xmlns:xlink="http://www.w3.org/1999/xlink" x="0px" y="0px"
	 viewBox="0 0 20 20" enable-background="new 0 0 20 20" xml:space="preserve">
<g>
	<path fill="none" d="M15.39,2.27c-0.46,0-0.88,0.12-1.26,0.33c1.5,0.81,2.73,2.05,3.54,3.55C17.88,5.77,18,5.34,18,4.88
		C18,3.44,16.83,2.27,15.39,2.27z"/>
	<path fill="none" d="M5.87,2.59c-0.37-0.21-0.8-0.32-1.25-0.32C3.17,2.27,2,3.44,2,4.88c0,0.46,0.12,0.88,0.33,1.25
		C3.14,4.63,4.37,3.4,5.87,2.59z"/>
	<path fill="none" d="M10,3.55c-1.86,0-3.53,0.75-4.74,1.96C4.04,6.73,3.29,8.4,3.29,10.26c0,1.86,0.75,3.53,1.96,4.74
		c1.22,1.22,2.89,1.96,4.74,1.96c1.86,0,3.53-0.75,4.74-1.96c1.22-1.22,1.96-2.89,1.96-4.74c0-1.86-0.75-3.53-1.96-4.74
		C13.52,4.3,11.85,3.55,10,3.55z M10.9,9.68c0,0.05-0.02,0.09-0.03,0.14c-0.01,0.08-0.02,0.15-0.05,0.23
		c-0.01,0.02-0.03,0.04-0.04,0.07c-0.04,0.08-0.07,0.16-0.13,0.23l-2.23,2.6c-0.36,0.42-0.99,0.47-1.41,0.11
		c-0.42-0.36-0.47-0.99-0.11-1.41L8.9,9.33V6.96c0-0.55,0.45-1,1-1s1,0.45,1,1V9.68z"/>
	<path fill="#3A434C" d="M9.9,5.96c-0.55,0-1,0.45-1,1v2.36l-1.99,2.32c-0.36,0.42-0.31,1.05,0.11,1.41
		c0.42,0.36,1.05,0.31,1.41-0.11l2.23-2.6c0.06-0.07,0.09-0.15,0.13-0.23c0.01-0.02,0.03-0.04,0.04-0.07
		c0.03-0.08,0.04-0.15,0.05-0.23c0.01-0.05,0.03-0.09,0.03-0.14V6.96C10.9,6.41,10.45,5.96,9.9,5.96z"/>
	<path fill="#3A434C" d="M15.39,0.27c-1.35,0-2.57,0.59-3.42,1.52C11.34,1.64,10.68,1.55,10,1.55c-0.68,0-1.33,0.09-1.97,0.23
		C7.19,0.85,5.97,0.27,4.61,0.27C2.06,0.27,0,2.33,0,4.88c0,1.35,0.59,2.57,1.52,3.42c-0.15,0.63-0.23,1.29-0.23,1.96
		c0,2.24,0.86,4.28,2.25,5.82l-1.69,2.01c-0.36,0.42-0.3,1.05,0.12,1.41c0.42,0.36,1.05,0.3,1.41-0.12l1.66-1.97
		c1.41,0.98,3.12,1.56,4.96,1.56c1.87,0,3.6-0.6,5.02-1.6l1.7,2.02c0.36,0.42,0.99,0.48,1.41,0.12c0.42-0.36,0.48-0.99,0.12-1.41
		l-1.74-2.06c1.36-1.54,2.2-3.55,2.2-5.77c0-0.67-0.08-1.33-0.23-1.96C19.41,7.46,20,6.23,20,4.88C20,2.33,17.94,0.27,15.39,0.27z
		 M2,4.88c0-1.44,1.17-2.61,2.61-2.61c0.46,0,0.88,0.12,1.25,0.32C4.37,3.4,3.14,4.63,2.33,6.13C2.12,5.76,2,5.33,2,4.88z M14.74,15
		c-1.22,1.22-2.89,1.96-4.74,1.96c-1.86,0-3.53-0.75-4.74-1.96c-1.22-1.22-1.96-2.89-1.96-4.74c0-1.86,0.75-3.53,1.96-4.74
		C6.47,4.3,8.14,3.55,10,3.55c1.86,0,3.53,0.75,4.74,1.96c1.22,1.22,1.96,2.89,1.96,4.74C16.7,12.11,15.95,13.78,14.74,15z
		 M14.13,2.59c0.37-0.21,0.8-0.33,1.26-0.33c1.44,0,2.61,1.17,2.61,2.61c0,0.46-0.12,0.89-0.33,1.27
		C16.86,4.64,15.63,3.4,14.13,2.59z"/>
</g>
</svg>
