<?xml version="1.0" encoding="utf-8"?>
<!-- Generator: Adobe Illustrator 19.2.1, SVG Export Plug-In . SVG Version: 6.00 Build 0)  -->
<svg version="1.1" id="Calque_1" xmlns="http://www.w3.org/2000/svg" xmlns:xlink="http://www.w3.org/1999/xlink" x="0px" y="0px"
	 viewBox="0 0 20 20" style="enable-background:new 0 0 20 20;" xml:space="preserve">
<style type="text/css">
	.st0{fill:#3A434C;}
</style>
<g>
	<path class="st0" d="M9.9,6c-0.6,0-1,0.4-1,1v2.4l-2,2.3C6.5,12.1,6.6,12.7,7,13s1,0.3,1.4-0.1l2.2-2.6c0.1-0.1,0.1-0.1,0.1-0.2
		c0,0,0,0,0-0.1c0-0.1,0-0.1,0.1-0.2c0-0.1,0-0.1,0-0.1V7C10.9,6.4,10.4,6,9.9,6z"/>
	<path class="st0" d="M15.4,0.3c-1.4,0-2.6,0.6-3.4,1.5c-0.6-0.1-1.3-0.2-2-0.2S8.7,1.6,8,1.8C7.2,0.9,6,0.3,4.6,0.3
		C2.1,0.3,0,2.3,0,4.9c0,1.3,0.6,2.6,1.5,3.4c-0.1,0.6-0.2,1.3-0.2,2c0,2.2,0.9,4.3,2.2,5.8l-1.7,2c-0.4,0.4-0.3,1,0.1,1.4
		s1.1,0.3,1.4-0.1l1.7-2c1.4,1,3.1,1.6,5,1.6c1.9,0,3.6-0.6,5-1.6l1.7,2c0.4,0.4,1,0.5,1.4,0.1c0.4-0.4,0.5-1,0.1-1.4L16.5,16
		c1.4-1.5,2.2-3.6,2.2-5.8c0-0.7-0.1-1.3-0.2-2C19.4,7.5,20,6.2,20,4.9C20,2.3,17.9,0.3,15.4,0.3z M2,4.9c0-1.4,1.2-2.6,2.6-2.6
		c0.5,0,0.9,0.1,1.2,0.3c-1.5,0.8-2.7,2-3.5,3.5C2.1,5.8,2,5.3,2,4.9z M14.7,15c-1.2,1.2-2.9,2-4.7,2c-1.9,0-3.5-0.8-4.7-2
		c-1.2-1.2-2-2.9-2-4.7c0-1.9,0.8-3.5,2-4.7c1.2-1.2,2.9-2,4.7-2s3.5,0.8,4.7,2c1.2,1.2,2,2.9,2,4.7C16.7,12.1,15.9,13.8,14.7,15z
		 M14.1,2.6c0.4-0.2,0.8-0.3,1.3-0.3c1.4,0,2.6,1.2,2.6,2.6c0,0.5-0.1,0.9-0.3,1.3C16.9,4.6,15.6,3.4,14.1,2.6z"/>
</g>
</svg>
