<svg viewBox="0 0 20 20"><path d="M9.9 6c-.6 0-1 .4-1 1v2.4l-2 2.3c-.4.4-.3 1 .1 1.3s1 .3 1.4-.1l2.2-2.6c.1-.1.1-.1.1-.2V10c0-.1 0-.1.1-.2V7c.1-.6-.4-1-.9-1z"/><path d="M15.4.3C14 .3 12.8.9 12 1.8c-.6-.1-1.3-.2-2-.2s-1.3 0-2 .2C7.2.9 6 .3 4.6.3 2.1.3 0 2.3 0 4.9c0 1.3.6 2.6 1.5 3.4-.1.6-.2 1.3-.2 2 0 2.2.9 4.3 2.2 5.8l-1.7 2c-.4.4-.3 1 .1 1.4s1.1.3 1.4-.1l1.7-2c1.4 1 3.1 1.6 5 1.6s3.6-.6 5-1.6l1.7 2c.4.4 1 .5 1.4.1.4-.4.5-1 .1-1.4L16.5 16c1.4-1.5 2.2-3.6 2.2-5.8 0-.7-.1-1.3-.2-2 .9-.7 1.5-2 1.5-3.3C20 2.3 17.9.3 15.4.3zM2 4.9c0-1.4 1.2-2.6 2.6-2.6.5 0 .9.1 1.2.3-1.5.8-2.7 2-3.5 3.5-.2-.3-.3-.8-.3-1.2zM14.7 15c-1.2 1.2-2.9 2-4.7 2-1.9 0-3.5-.8-4.7-2-1.2-1.2-2-2.9-2-4.7 0-1.9.8-3.5 2-4.7 1.2-1.2 2.9-2 4.7-2s3.5.8 4.7 2c1.2 1.2 2 2.9 2 4.7 0 1.8-.8 3.5-2 4.7zm-.6-12.4c.4-.2.8-.3 1.3-.3 1.4 0 2.6 1.2 2.6 2.6 0 .5-.1.9-.3 1.3-.8-1.6-2.1-2.8-3.6-3.6z"/></svg>