<?xml version="1.0" encoding="utf-8"?>
<!-- Generator: Adobe Illustrator 19.1.0, SVG Export Plug-In . SVG Version: 6.00 Build 0)  -->
<svg version="1.1" id="Calque_1" xmlns="http://www.w3.org/2000/svg" xmlns:xlink="http://www.w3.org/1999/xlink" x="0px" y="0px"
	 viewBox="0 0 20 20" enable-background="new 0 0 20 20" xml:space="preserve">
<g>
	<path fill="none" d="M10,2C7.79,2,5.79,2.89,4.34,4.34C2.89,5.79,2,7.79,2,10c0,2.21,0.89,4.21,2.34,5.66C5.79,17.11,7.79,18,10,18
		c2.21,0,4.21-0.89,5.66-2.34C17.11,14.21,18,12.21,18,10c0-2.21-0.89-4.21-2.34-5.66C14.21,2.89,12.21,2,10,2z M9,6.05
		c0-0.55,0.45-1,1-1s1,0.45,1,1v4.02c0,0.55-0.45,1-1,1s-1-0.45-1-1V6.05z M9.98,15.14c-0.67,0-1.22-0.54-1.22-1.22
		s0.54-1.22,1.22-1.22s1.22,0.54,1.22,1.22S10.65,15.14,9.98,15.14z"/>
	<path fill="#3A434C" d="M10,0C4.48,0,0,4.48,0,10c0,5.52,4.48,10,10,10c5.52,0,10-4.48,10-10C20,4.48,15.52,0,10,0z M15.66,15.66
		C14.21,17.11,12.21,18,10,18c-2.21,0-4.21-0.89-5.66-2.34C2.89,14.21,2,12.21,2,10c0-2.21,0.89-4.21,2.34-5.66
		C5.79,2.89,7.79,2,10,2c2.21,0,4.21,0.89,5.66,2.34C17.11,5.79,18,7.79,18,10C18,12.21,17.11,14.21,15.66,15.66z"/>
	<path fill="#3A434C" d="M10,11.07c0.55,0,1-0.45,1-1V6.05c0-0.55-0.45-1-1-1s-1,0.45-1,1v4.02C9,10.63,9.45,11.07,10,11.07z"/>
	<circle fill="#3A434C" cx="9.98" cy="13.92" r="1.22"/>
</g>
</svg>
