<?xml version="1.0" encoding="utf-8"?>
<!-- Generator: Adobe Illustrator 19.2.1, SVG Export Plug-In . SVG Version: 6.00 Build 0)  -->
<svg version="1.1" id="Calque_1" xmlns="http://www.w3.org/2000/svg" xmlns:xlink="http://www.w3.org/1999/xlink" x="0px" y="0px"
	 viewBox="0 0 20 20" style="enable-background:new 0 0 20 20;" xml:space="preserve">
<style type="text/css">
	.st0{fill:#3A434C;}
</style>
<path class="st0" d="M10,0C4.5,0,0,4.5,0,10s4.5,10,10,10s10-4.5,10-10S15.5,0,10,0z M15.7,15.7C14.2,17.1,12.2,18,10,18
	s-4.2-0.9-5.7-2.3S2,12.2,2,10s0.9-4.2,2.3-5.7S7.8,2,10,2s4.2,0.9,5.7,2.3S18,7.8,18,10S17.1,14.2,15.7,15.7z"/>
<path class="st0" d="M12.7,8.4l-2.3,0l0.9-2.5c0-0.1,0-0.2,0-0.3c-0.1-0.1-0.2-0.2-0.3-0.2h-2c-0.2,0-0.3,0.1-0.4,0.2L7,10.3
	c0,0.1,0,0.2,0.1,0.3s0.2,0.2,0.3,0.2l2.1,0l0,3.4c0,0.2,0.1,0.3,0.3,0.4c0.2,0,0.3,0,0.4-0.2L13,8.9c0.1-0.1,0.1-0.3,0-0.4
	S12.8,8.4,12.7,8.4z"/>
</svg>
