<?xml version="1.0" encoding="utf-8"?>
<!-- Generator: Adobe Illustrator 19.2.1, SVG Export Plug-In . SVG Version: 6.00 Build 0)  -->
<svg version="1.1" id="Calque_1" xmlns="http://www.w3.org/2000/svg" xmlns:xlink="http://www.w3.org/1999/xlink" x="0px" y="0px"
	 viewBox="0 0 20 20" style="enable-background:new 0 0 20 20;" xml:space="preserve">
<style type="text/css">
	.st0{fill:#3A434C;}
</style>
<path class="st0" d="M6.6,4.4h6.8c0.1,0,0.3-0.1,0.3-0.2c0.1-0.1,0-0.3-0.1-0.4l-3.4-3.7C10.2,0,10.1,0,10,0C9.9,0,9.8,0,9.7,0.1
	L6.3,3.8C6.2,3.9,6.2,4,6.3,4.2C6.3,4.3,6.5,4.4,6.6,4.4z"/>
<path class="st0" d="M9.7,19.9C9.8,20,9.9,20,10,20c0.1,0,0.2,0,0.3-0.1l3.4-3.6c0.1-0.1,0.1-0.3,0.1-0.4s-0.2-0.2-0.3-0.2H6.6
	c-0.2,0-0.3,0.1-0.3,0.2c-0.1,0.1,0,0.3,0.1,0.4L9.7,19.9z"/>
<circle class="st0" cx="7.8" cy="7.7" r="1.2"/>
<circle class="st0" cx="3.3" cy="7.7" r="1.2"/>
<circle class="st0" cx="12.2" cy="7.7" r="1.2"/>
<circle class="st0" cx="16.7" cy="7.7" r="1.2"/>
<circle class="st0" cx="7.8" cy="12.2" r="1.2"/>
<circle class="st0" cx="3.3" cy="12.3" r="1.3"/>
<circle class="st0" cx="12.2" cy="12.3" r="1.2"/>
<circle class="st0" cx="16.7" cy="12.3" r="1.2"/>
</svg>
