<?xml version="1.0" encoding="utf-8"?>
<!-- Generator: Adobe Illustrator 19.1.0, SVG Export Plug-In . SVG Version: 6.00 Build 0)  -->
<svg version="1.1" id="Calque_1" xmlns="http://www.w3.org/2000/svg" xmlns:xlink="http://www.w3.org/1999/xlink" x="0px" y="0px"
	 viewBox="0 0 20 20" enable-background="new 0 0 20 20" xml:space="preserve">
<g>
	<path fill="#3A434C" d="M6.63,4.4h6.75c0.15,0,0.28-0.09,0.34-0.22c0.06-0.14,0.03-0.3-0.07-0.4l-3.37-3.65
		C10.21,0.04,10.11,0,10,0C9.9,0,9.8,0.04,9.73,0.12L6.35,3.77c-0.1,0.11-0.13,0.27-0.07,0.4C6.34,4.31,6.48,4.4,6.63,4.4z"/>
	<path fill="#3A434C" d="M9.72,19.88C9.79,19.96,9.89,20,10,20c0.1,0,0.2-0.04,0.28-0.12l3.38-3.65c0.1-0.11,0.13-0.27,0.07-0.4
		s-0.19-0.22-0.34-0.22H6.63c-0.15,0-0.28,0.09-0.34,0.22c-0.06,0.14-0.03,0.3,0.07,0.4L9.72,19.88z"/>
	<circle fill="#3A434C" cx="7.76" cy="7.73" r="1.25"/>
	<circle fill="#3A434C" cx="3.27" cy="7.73" r="1.25"/>
	<circle fill="#3A434C" cx="12.24" cy="7.73" r="1.25"/>
	<circle fill="#3A434C" cx="16.73" cy="7.73" r="1.25"/>
	<circle fill="#3A434C" cx="7.76" cy="12.21" r="1.25"/>
	<circle fill="#3A434C" cx="3.27" cy="12.31" r="1.27"/>
	<circle fill="#3A434C" cx="12.24" cy="12.31" r="1.25"/>
	<circle fill="#3A434C" cx="16.73" cy="12.31" r="1.25"/>
</g>
</svg>
