<svg viewBox="0 0 20 20"><path d="M6.6 4.4h6.8c.1 0 .3-.1.3-.2.1-.1 0-.3-.1-.4L10.2.1c0-.1-.1-.1-.2-.1s-.2 0-.3.1L6.3 3.8c-.1.1-.1.2 0 .4 0 .1.2.2.3.2zm3.1 15.5c.1.1.2.1.3.1.1 0 .2 0 .3-.1l3.4-3.6c.1-.1.1-.3.1-.4s-.2-.2-.3-.2H6.6c-.2 0-.3.1-.3.2-.1.1 0 .3.1.4l3.3 3.6z"/><circle cx="7.8" cy="7.7" r="1.2"/><circle cx="3.3" cy="7.7" r="1.2"/><circle cx="12.2" cy="7.7" r="1.2"/><circle cx="16.7" cy="7.7" r="1.2"/><circle cx="7.8" cy="12.2" r="1.2"/><circle cx="3.3" cy="12.3" r="1.3"/><circle cx="12.2" cy="12.3" r="1.2"/><circle cx="16.7" cy="12.3" r="1.2"/></svg>