<?xml version="1.0" encoding="utf-8"?>
<!-- Generator: Adobe Illustrator 19.2.1, SVG Export Plug-In . SVG Version: 6.00 Build 0)  -->
<svg version="1.1" id="Calque_1" xmlns="http://www.w3.org/2000/svg" xmlns:xlink="http://www.w3.org/1999/xlink" x="0px" y="0px"
	 viewBox="0 0 20 20" style="enable-background:new 0 0 20 20;" xml:space="preserve">
<style type="text/css">
	.st0{fill:#3A434C;}
</style>
<path class="st0" d="M19.5,11.9c0.2,0.1,0.5,0,0.5-0.2V2.6c0-0.2-0.2-0.3-0.4-0.2l-1.5,1.1c-0.3,0.2-0.5,0.6-0.5,0.9v5.5
	c0,0.4,0.1,0.7,0.5,0.9L19.5,11.9z"/>
<path class="st0" d="M1.3,14.5h3.5l5.3,3.2v-3.2h3.3c0.7,0,1.4-0.6,1.4-1.3v-0.9h0.7c0.6,0,1-0.6,1-1.1V3.2c0-0.6-0.4-0.9-1-0.9H3.4
	c-0.6,0-1,0.4-1,0.9v0.8H1.3C0.6,4.1,0,4.6,0,5.3v7.9C0,13.9,0.6,14.5,1.3,14.5z M0.5,5.3c0-0.4,0.4-0.7,0.8-0.7h12.1
	c0.4,0,0.8,0.3,0.8,0.7v7.9c0,0.4-0.4,0.8-0.8,0.8H9.6v2.8L4.9,14H1.3c-0.4,0-0.8-0.4-0.8-0.8L0.5,5.3L0.5,5.3z"/>
<path class="st0" d="M7.2,11.9c0.7,0,1.3-0.4,1.7-0.9h0.1v0.8h0.9V6.8H8.9v0.9H8.9c-0.4-0.6-1-1-1.7-1c-1.4,0-2.3,1.2-2.3,2.5
	C4.8,10.6,5.7,11.9,7.2,11.9z M7.3,7.5c1,0,1.6,0.8,1.6,1.7c0,1-0.6,1.8-1.6,1.8c-1,0-1.6-0.8-1.6-1.8C5.8,8.3,6.3,7.5,7.3,7.5z"/>
</svg>
