<?xml version="1.0" encoding="utf-8"?>
<!-- Generator: Adobe Illustrator 19.1.0, SVG Export Plug-In . SVG Version: 6.00 Build 0)  -->
<svg version="1.1" id="Calque_1" xmlns="http://www.w3.org/2000/svg" xmlns:xlink="http://www.w3.org/1999/xlink" x="0px" y="0px"
	 viewBox="0 0 20 20" enable-background="new 0 0 20 20" xml:space="preserve">
<g>
	<path fill="none" d="M1.3,14.01h3.6l4.67,2.79v-2.79h3.81c0.44,0,0.84-0.4,0.84-0.83V5.29c0-0.43-0.4-0.72-0.84-0.72H1.3
		c-0.44,0-0.79,0.29-0.79,0.72v7.89C0.5,13.6,0.86,14.01,1.3,14.01z M7.16,6.74c0.73,0,1.32,0.36,1.71,0.99h0.06V6.85h0.88v4.89
		H8.93v-0.75H8.87c-0.38,0.5-0.97,0.88-1.69,0.88c-1.51,0-2.36-1.26-2.36-2.64C4.82,7.89,5.71,6.74,7.16,6.74z"/>
	<path fill="none" d="M7.33,10.97c1.04,0.01,1.61-0.81,1.61-1.76c0-0.94-0.58-1.74-1.61-1.74c-0.98,0-1.56,0.84-1.56,1.74
		C5.77,10.13,6.34,10.97,7.33,10.97z"/>
	<path fill="#3A434C" d="M19.55,11.94c0.19,0.14,0.45,0.01,0.45-0.21V2.64c0-0.23-0.25-0.35-0.44-0.21l-1.48,1.07
		c-0.31,0.23-0.47,0.57-0.47,0.94v5.5c0,0.36,0.15,0.72,0.47,0.94L19.55,11.94z"/>
	<path fill="#3A434C" d="M1.3,14.51h3.46l5.31,3.18v-3.18h3.31c0.72,0,1.35-0.63,1.35-1.33v-0.93h0.74c0.58,0,1.02-0.55,1.02-1.12
		V3.24c0-0.57-0.44-0.93-1.02-0.93H3.38c-0.58,0-0.99,0.36-0.99,0.93v0.83H1.3C0.58,4.07,0,4.58,0,5.29v7.89
		C0,13.88,0.58,14.51,1.3,14.51z M0.5,5.29c0-0.43,0.35-0.72,0.79-0.72h12.08c0.44,0,0.84,0.29,0.84,0.72v7.89
		c0,0.43-0.4,0.83-0.84,0.83H9.56v2.79l-4.67-2.79H1.3c-0.44,0-0.79-0.4-0.79-0.83V5.29z"/>
	<path fill="#3A434C" d="M7.18,11.87c0.72,0,1.31-0.38,1.69-0.88h0.06v0.75h0.88V6.85H8.93v0.88H8.87C8.48,7.1,7.89,6.74,7.16,6.74
		c-1.45,0-2.34,1.16-2.34,2.49C4.82,10.61,5.67,11.87,7.18,11.87z M7.33,7.48c1.03,0,1.61,0.79,1.61,1.74
		c0,0.96-0.57,1.77-1.61,1.76c-0.99,0-1.56-0.84-1.56-1.76C5.77,8.32,6.35,7.48,7.33,7.48z"/>
</g>
</svg>
