<?xml version="1.0" encoding="UTF-8" standalone="no"?>
<svg width="20px" height="20px" viewBox="0 0 20 20" version="1.1" xmlns="http://www.w3.org/2000/svg" xmlns:xlink="http://www.w3.org/1999/xlink" xmlns:sketch="http://www.bohemiancoding.com/sketch/ns">
    <!-- Generator: Sketch 3.5.1 (25234) - http://www.bohemiancoding.com/sketch -->
    <title>appearIn</title>
    <desc>Created with Sketch.</desc>
    <defs></defs>
    <g id="Page-1" stroke="none" stroke-width="1" fill="none" fill-rule="evenodd" sketch:type="MSPage">
        <g id="appearIn" sketch:type="MSArtboardGroup" transform="translate(-6.000000, -6.000000)" fill="#3A434C">
            <g sketch:type="MSLayerGroup" transform="translate(6.000000, 8.500000)">
                <path d="M19.5481258,9.43141463 L18.0726541,8.39080488 C17.7588176,8.17482927 17.6100126,7.83568293 17.6100126,7.47543902 L17.6100126,2.14556098 C17.6100126,1.78543902 17.7643522,1.44617073 18.0781887,1.23019512 L19.5633459,0.189707317 C19.7541635,0.0582439024 19.9999497,0.183365854 19.9999497,0.402390244 L19.9999497,9.21860976 C19.9999497,9.4377561 19.7389434,9.5627561 19.5481258,9.43141463" id="Fill-1" sketch:type="MSShapeGroup"></path>
                <path d="M14.2138365,10.6210732 C14.2138365,11.034122 13.8064151,11.3576585 13.3691824,11.3576585 L9.55974843,11.3576585 L9.55974843,14.1337561 L4.89006289,11.3576585 L1.29559748,11.3576585 C0.85836478,11.3576585 0.503144654,11.034122 0.503144654,10.6210732 L0.503144654,2.97131707 C0.503144654,2.55839024 0.85836478,2.21131707 1.29559748,2.21131707 L13.3691824,2.21131707 C13.8064151,2.21131707 14.2138365,2.55839024 14.2138365,2.97131707 L14.2138365,10.6210732 Z M15.4601258,0.016195122 L3.38654088,0.016195122 C2.81207547,0.016195122 2.38993711,0.439609756 2.38993711,0.985707317 L2.38993711,1.7235122 L1.29559748,1.7235122 C0.580880503,1.7235122 0,2.2894878 0,2.97131707 L0,10.6210732 C0,11.3030244 0.580880503,11.8454634 1.29559748,11.8454634 L4.74930818,11.8454634 L10.0628931,14.9999756 L10.0628931,11.8454634 L13.3691824,11.8454634 C14.0837736,11.8454634 14.7169811,11.3030244 14.7169811,10.6210732 L14.7169811,9.65034146 L15.4601258,9.65034146 C16.034717,9.65034146 16.4779874,9.18143902 16.4779874,8.63534146 L16.4779874,0.985707317 C16.4779874,0.439609756 16.034717,0.016195122 15.4601258,0.016195122 L15.4601258,0.016195122 Z" id="Fill-3" sketch:type="MSShapeGroup"></path>
                <path d="M8.94552201,6.78623171 C8.94552201,5.87147561 8.36363522,5.09732927 7.33772327,5.09732927 C6.35407547,5.09732927 5.77244025,5.91159756 5.77244025,6.78623171 C5.77244025,7.6707439 6.33281761,8.49513415 7.33772327,8.49513415 C8.37432704,8.49513415 8.94552201,7.71110976 8.94552201,6.78623171 L8.94552201,6.78623171 Z M9.81130818,9.16245122 L8.93080503,9.16245122 L8.93080503,8.4307439 L8.87143396,8.4307439 C8.49055346,8.91854878 7.89847799,9.31245122 7.18954717,9.31245122 C5.67709434,9.31245122 4.82036478,8.10964634 4.82036478,6.76245122 C4.82036478,5.4757439 5.71961006,4.31732927 7.15797484,4.31732927 C7.88766038,4.31732927 8.48011321,4.6502561 8.87143396,5.2600122 L8.93080503,5.2600122 L8.93080503,4.40635366 L9.81130818,4.40635366 L9.81130818,9.16245122 Z" id="Fill-6" sketch:type="MSShapeGroup"></path>
            </g>
        </g>
    </g>
</svg>