<svg viewBox="0 0 20 20"><path d="M19.5 11.9c.2.1.5 0 .5-.2V2.6c0-.2-.2-.3-.4-.2l-1.5 1.1c-.3.2-.5.6-.5.9v5.5c0 .4.1.7.5.9l1.4 1.1zM1.3 14.5h3.5l5.3 3.2v-3.2h3.3c.7 0 1.4-.6 1.4-1.3v-.9h.7c.6 0 1-.6 1-1.1v-8c0-.6-.4-.9-1-.9H3.4c-.6 0-1 .4-1 .9V4H1.3C.6 4.1 0 4.6 0 5.3v7.9c0 .7.6 1.3 1.3 1.3zM.5 5.3c0-.4.4-.7.8-.7h12.1c.4 0 .8.3.8.7v7.9c0 .4-.4.8-.8.8H9.6v2.8L4.9 14H1.3c-.4 0-.8-.4-.8-.8V5.3z"/><path d="M7.2 11.9c.7 0 1.3-.4 1.7-.9H9v.8h.9v-5h-1v.9c-.4-.6-1-1-1.7-1-1.4 0-2.3 1.2-2.3 2.5-.1 1.4.8 2.7 2.3 2.7zm.1-4.4c1 0 1.6.8 1.6 1.7 0 1-.6 1.8-1.6 1.8s-1.6-.8-1.6-1.8c.1-.9.6-1.7 1.6-1.7z"/></svg>