<?xml version="1.0" encoding="utf-8"?>
<svg version="1.1" xmlns="http://www.w3.org/2000/svg" xmlns:xlink="http://www.w3.org/1999/xlink" x="0px" y="0px" viewBox="0 0 26 20" style="enable-background:new 0 0 26 20;" xml:space="preserve">
<style type="text/css">
	.st0{fill:#3A434C;}
</style>
<g id="appearIn">
	<path id="Shape" class="st0" d="M25.4,12.5l-1.9-1.4c-0.4-0.3-0.6-0.7-0.6-1.2V2.8
		c0-0.5,0.2-0.9,0.6-1.2l1.9-1.4C25.7,0,26,0.2,26,0.5v11.8C26,12.6,25.7,12.7,25.4,12.5L25.4,12.5z"/>
	<path id="Shape_1_" class="st0" d="M20.1,0H4.4C3.7,0,3.1,0.6,3.1,1.3v1H1.7C0.8,2.3,0,3,0,3.9v10.2
		c0,0.9,0.8,1.7,1.7,1.7h4.5l6.9,4.2v-4.2h4.3c0.9,0,1.7-0.8,1.7-1.7v-1.3h1c0.8,0,1.3-0.7,1.3-1.4V1.3C21.4,0.6,20.8,0,20.1,0
		L20.1,0z M18.5,14.1c0,0.6-0.5,1-1.1,1h-5v3.7l-6.1-3.7H1.7c-0.6,0-1-0.5-1-1V3.9c0-0.6,0.5-1,1-1h15.7c0.6,0,1.1,0.4,1.1,1V14.1
		L18.5,14.1z"/>
	<path id="a_3_" class="st0" d="M12.8,12.2h-1.1v-1h-0.1c-0.5,0.7-1.3,1.2-2.2,1.2
		c-2,0-3.1-1.6-3.1-3.4c0-1.7,1.2-3.2,3-3.2c0.9,0,1.7,0.5,2.2,1.3h0.1V5.9h1.1V12.2L12.8,12.2z M11.6,9c0-1.2-0.8-2.2-2.1-2.2
		c-1.3,0-2,1.1-2,2.2c0,1.2,0.7,2.3,2,2.3C10.9,11.3,11.6,10.2,11.6,9L11.6,9z"/>
</g>
</svg>
