<?xml version="1.0" encoding="utf-8"?>
<!-- Generator: Adobe Illustrator 19.1.0, SVG Export Plug-In . SVG Version: 6.00 Build 0)  -->
<svg version="1.1" id="Calque_1" xmlns="http://www.w3.org/2000/svg" xmlns:xlink="http://www.w3.org/1999/xlink" x="0px" y="0px"
	 viewBox="0 0 20 20" enable-background="new 0 0 20 20" xml:space="preserve">
<g>
	<path fill="#3A434C" d="M6.73,4.79C5.85,4.8,5.03,5.03,4.27,5.48S2.9,6.55,2.45,7.33c-0.58,0.97-0.87,2.12-0.87,3.47
		c0,1.17,0.21,2.38,0.64,3.63c0.4,1.16,0.91,2.17,1.53,3.04c0.58,0.82,1.06,1.4,1.45,1.73c0.61,0.56,1.21,0.83,1.82,0.8
		c0.4-0.01,0.92-0.15,1.57-0.41c0.65-0.26,1.26-0.39,1.82-0.39c0.54,0,1.13,0.13,1.77,0.39c0.64,0.26,1.19,0.39,1.64,0.39
		c0.63-0.01,1.23-0.28,1.78-0.78c0.36-0.31,0.82-0.87,1.39-1.67c0.41-0.59,0.77-1.23,1.08-1.93c0.12-0.3,0.24-0.6,0.35-0.93
		c-0.51-0.21-0.97-0.52-1.39-0.91c-0.91-0.84-1.37-1.91-1.39-3.18c-0.01-1.64,0.73-2.92,2.23-3.83c-0.84-1.2-2.1-1.86-3.79-1.99
		c-0.62-0.05-1.38,0.08-2.28,0.4c-0.95,0.35-1.51,0.52-1.68,0.52c-0.22,0-0.73-0.15-1.51-0.44C7.85,4.94,7.21,4.79,6.73,4.79z"/>
	<path fill="#3A434C" d="M13.12,3.2c0.73-0.86,1.09-1.8,1.09-2.8c0-0.13-0.01-0.27-0.02-0.4c-0.51,0.03-1.05,0.18-1.62,0.46
		C12,0.74,11.53,1.09,11.16,1.52C10.42,2.36,10,3.39,10,4.35c0,0.13,0.01,0.26,0.02,0.38C11.18,4.82,12.24,4.23,13.12,3.2z"/>
</g>
</svg>
