<svg viewBox="0 0 20 20"><path d="M6.7 4.8c-.9 0-1.7.2-2.4.7S2.9 6.6 2.5 7.3c-.6 1-.9 2.1-.9 3.5 0 1.2.2 2.4.6 3.6.4 1.2.9 2.2 1.5 3 .6.8 1.1 1.4 1.4 1.7.7.7 1.3.9 1.9.9.4 0 .9-.1 1.6-.4s1.3-.4 1.8-.4 1.1.1 1.8.4 1.2.4 1.6.4c.6 0 1.2-.3 1.8-.8.4-.3.8-.9 1.4-1.7.4-.6.8-1.2 1.1-1.9.1-.3.2-.6.4-.9-.5-.2-1-.5-1.4-.9-.9-.8-1.4-1.9-1.4-3.2 0-1.6.7-2.9 2.2-3.8-.8-1.2-2.1-1.9-3.8-2-.6-.1-1.4.1-2.3.4-.9.3-1.5.5-1.7.5-.2 0-.7-.2-1.5-.4-.8-.4-1.4-.5-1.9-.5zm6.4-1.6c.7-.9 1.1-1.8 1.1-2.8V0c-.5 0-1.1.2-1.6.5s-1 .6-1.4 1.1c-.8.8-1.2 1.8-1.2 2.7v.4c1.2.1 2.2-.5 3.1-1.5z"/></svg>