<?xml version="1.0" encoding="utf-8"?>
<!-- Generator: Adobe Illustrator 19.2.1, SVG Export Plug-In . SVG Version: 6.00 Build 0)  -->
<svg version="1.1" id="Calque_1" xmlns="http://www.w3.org/2000/svg" xmlns:xlink="http://www.w3.org/1999/xlink" x="0px" y="0px"
	 viewBox="0 0 20 20" style="enable-background:new 0 0 20 20;" xml:space="preserve">
<style type="text/css">
	.st0{fill:#3A434C;}
</style>
<path class="st0" d="M6.7,4.8C5.8,4.8,5,5,4.3,5.5S2.9,6.6,2.5,7.3c-0.6,1-0.9,2.1-0.9,3.5c0,1.2,0.2,2.4,0.6,3.6
	c0.4,1.2,0.9,2.2,1.5,3c0.6,0.8,1.1,1.4,1.4,1.7C5.8,19.8,6.4,20,7,20c0.4,0,0.9-0.1,1.6-0.4s1.3-0.4,1.8-0.4c0.5,0,1.1,0.1,1.8,0.4
	s1.2,0.4,1.6,0.4c0.6,0,1.2-0.3,1.8-0.8c0.4-0.3,0.8-0.9,1.4-1.7c0.4-0.6,0.8-1.2,1.1-1.9c0.1-0.3,0.2-0.6,0.4-0.9
	c-0.5-0.2-1-0.5-1.4-0.9c-0.9-0.8-1.4-1.9-1.4-3.2c0-1.6,0.7-2.9,2.2-3.8c-0.8-1.2-2.1-1.9-3.8-2c-0.6-0.1-1.4,0.1-2.3,0.4
	c-0.9,0.3-1.5,0.5-1.7,0.5c-0.2,0-0.7-0.2-1.5-0.4C7.8,4.9,7.2,4.8,6.7,4.8z"/>
<path class="st0" d="M13.1,3.2c0.7-0.9,1.1-1.8,1.1-2.8c0-0.1,0-0.3,0-0.4c-0.5,0-1.1,0.2-1.6,0.5s-1,0.6-1.4,1.1
	C10.4,2.4,10,3.4,10,4.3c0,0.1,0,0.3,0,0.4C11.2,4.8,12.2,4.2,13.1,3.2z"/>
</svg>
