<?xml version="1.0" encoding="utf-8"?>
<svg version="1.1" xmlns="http://www.w3.org/2000/svg" xmlns:xlink="http://www.w3.org/1999/xlink" x="0px" y="0px"
	 viewBox="0 0 27 32" style="enable-background:new 0 0 27 32;" xml:space="preserve">
<path d="M26.4,24.9c-0.5,1.1-1.1,2.1-1.7,3.1c-0.9,1.3-1.6,2.2-2.2,2.7c-0.9,0.8-1.8,1.2-2.8,1.3c-0.7,0-1.6-0.2-2.6-0.6
	c-1-0.4-2-0.6-2.8-0.6c-0.9,0-1.9,0.2-2.9,0.6c-1,0.4-1.9,0.6-2.5,0.7c-1,0-1.9-0.4-2.9-1.3c-0.6-0.5-1.4-1.5-2.3-2.8
	c-1-1.4-1.8-3-2.5-4.9c-0.7-2-1-3.9-1-5.8c0-2.1,0.5-4,1.4-5.5c0.7-1.2,1.7-2.2,2.9-2.9s2.5-1.1,3.9-1.1c0.8,0,1.8,0.2,3,0.7
	c1.3,0.5,2.1,0.7,2.4,0.7c0.3,0,1.2-0.3,2.7-0.8C17.8,7.7,19,7.5,20,7.6c2.7,0.2,4.7,1.3,6.1,3.2c-2.4,1.5-3.6,3.5-3.6,6.1
	c0,2,0.8,3.7,2.2,5.1c0.7,0.6,1.4,1.1,2.2,1.5C26.8,24,26.6,24.5,26.4,24.9L26.4,24.9z M20.2,0.6c0,1.6-0.6,3.1-1.8,4.5
	c-1.4,1.6-3.1,2.6-5,2.4c0-0.2,0-0.4,0-0.6c0-1.5,0.7-3.2,1.9-4.5c0.6-0.7,1.3-1.2,2.3-1.7C18.5,0.3,19.4,0,20.2,0
	C20.2,0.2,20.2,0.4,20.2,0.6L20.2,0.6z"/>
</svg>
