<?xml version="1.0" encoding="UTF-8" standalone="no"?>
<svg width="21px" height="20px" viewBox="0 0 21 20" version="1.1" xmlns="http://www.w3.org/2000/svg" xmlns:xlink="http://www.w3.org/1999/xlink" xmlns:sketch="http://www.bohemiancoding.com/sketch/ns">
    <!-- Generator: Sketch 3.4.2 (15857) - http://www.bohemiancoding.com/sketch -->
    <title>archive</title>
    <desc>Created with Sketch.</desc>
    <defs></defs>
    <g id="Page-1" stroke="none" stroke-width="1" fill="none" fill-rule="evenodd" sketch:type="MSPage">
        <g id="archive" sketch:type="MSArtboardGroup" transform="translate(-5.000000, -6.000000)" fill="#3A434C">
            <g sketch:type="MSLayerGroup" transform="translate(5.000000, 6.000000)">
                <path d="M20.3815937,10.2832169 C20.3891406,10.1081801 20.3614687,9.93060662 20.2608437,9.77205882 L14.5000625,0.6384375 C14.3390625,0.383492647 14.0573125,0.227481618 13.7579531,0.227481618 L6.83872656,0.227481618 C6.53936719,0.227481618 6.258875,0.382224265 6.09661719,0.637169118 L0.334578125,9.73147059 C0.244015625,9.87352941 0.215085937,10.0308088 0.2113125,10.1880882 C0.16603125,10.2959007 0.139617187,10.4138603 0.139617187,10.5330882 L0.139617187,18.1383088 C0.139617187,18.3729596 0.233953125,18.6012684 0.39746875,18.7661581 C0.562242187,18.9323162 0.788648437,19.0261765 1.02134375,19.0261765 L19.5514375,19.0261765 C19.782875,19.0261765 20.0092812,18.9323162 20.1740547,18.7661581 C20.3375703,18.6012684 20.4319062,18.3729596 20.4319062,18.1383088 L20.4319062,10.5330882 C20.4319062,10.4468382 20.4054922,10.3656618 20.3815937,10.2832169 L20.3815937,10.2832169 Z M13.2736953,2.00321691 L18.0936328,9.64522059 L14.7704922,9.64522059 C14.77175,9.60336397 14.7830703,9.56404412 14.7830703,9.52091912 L13.020875,9.52091912 C13.0183594,11.0442463 11.7970234,12.277114 10.2863906,12.2796507 C8.77575781,12.277114 7.55316406,11.0442463 7.55064844,9.52091912 L5.78971094,9.52091912 C5.78971094,9.56404412 5.79977344,9.60336397 5.80103125,9.64522059 L2.47914844,9.64522059 L7.32172656,2.00321691 L13.2736953,2.00321691 L13.2736953,2.00321691 Z M18.6697109,17.2504412 L1.90055469,17.2504412 L1.90055469,11.4209559 L6.21485156,11.4209559 C6.92928906,12.9734559 8.47639844,14.055386 10.2863906,14.0566544 C12.0938672,14.055386 13.6422344,12.9734559 14.3566719,11.4209559 L18.6697109,11.4209559 L18.6697109,17.2504412 L18.6697109,17.2504412 Z" id="Fill-2" sketch:type="MSShapeGroup"></path>
                <path d="M8.34810156,5.14246324 L12.1793984,5.14246324 C12.6649141,5.14246324 13.0598672,4.74545956 13.0598672,4.25459559 C13.0598672,3.76373162 12.6649141,3.36672794 12.1793984,3.36672794 L8.34810156,3.36672794 C7.86132813,3.36672794 7.466375,3.76373162 7.466375,4.25459559 C7.466375,4.74545956 7.86132813,5.14246324 8.34810156,5.14246324" id="Fill-3" sketch:type="MSShapeGroup"></path>
                <path d="M6.73684375,8.30073529 L13.7893984,8.30073529 C14.2749141,8.30073529 14.6698672,7.90246324 14.6698672,7.41286765 C14.6698672,6.92200368 14.2749141,6.52373162 13.7893984,6.52373162 L6.73684375,6.52373162 C6.25132812,6.52373162 5.856375,6.92200368 5.856375,7.41286765 C5.856375,7.90246324 6.25132812,8.30073529 6.73684375,8.30073529" id="Fill-4" sketch:type="MSShapeGroup"></path>
            </g>
        </g>
    </g>
</svg>