<svg viewBox="0 0 20 20"><path d="M19.8 10l-5.6-8.6c-.2-.2-.5-.4-.8-.4H6.7c-.4 0-.7.2-.9.5L.2 10c-.1.1-.1.3-.2.5V18c0 .3.1.5.3.7s.4.3.7.3h18c.3 0 .5-.1.7-.3s.3-.4.3-.7v-7.3c0-.3-.1-.5-.2-.7zm-7-7l4.5 6.9h-3.8c-.4 0-.8.3-.9.7v.2c-.3 1.1-1.3 1.9-2.5 1.9s-2.2-.8-2.5-1.9c0-.1 0-.1-.1-.2-.1-.4-.5-.7-.9-.7H2.7L7.2 3h5.6zm.7 7.7zM18 17H2v-5.1h3.7c.7 1.6 2.3 2.7 4.2 2.7 1.9 0 3.5-1.1 4.2-2.7H18V17z"/><path d="M8.1 5.9h3.7c.6 0 1-.4 1-1s-.4-1-1-1H8.1c-.6 0-1 .4-1 1s.5 1 1 1zm-1.5 3h6.8c.6 0 1-.4 1-1s-.4-1-1-1H6.6c-.6 0-1 .4-1 1s.4 1 1 1z"/></svg>