<?xml version="1.0" encoding="utf-8"?>
<!-- Generator: Adobe Illustrator 19.2.1, SVG Export Plug-In . SVG Version: 6.00 Build 0)  -->
<svg version="1.1" id="Calque_1" xmlns="http://www.w3.org/2000/svg" xmlns:xlink="http://www.w3.org/1999/xlink" x="0px" y="0px"
	 viewBox="0 0 20 20" style="enable-background:new 0 0 20 20;" xml:space="preserve">
<style type="text/css">
	.st0{fill:#3A434C;}
</style>
<path class="st0" d="M19.8,10l-5.6-8.6C14,1.2,13.7,1,13.4,1H6.7C6.3,1,6,1.2,5.8,1.5L0.2,10c-0.1,0.1-0.1,0.3-0.2,0.5
	C0,10.6,0,10.7,0,10.9V18c0,0.3,0.1,0.5,0.3,0.7S0.7,19,1,19h18c0.3,0,0.5-0.1,0.7-0.3S20,18.3,20,18v-7.1c0-0.1,0-0.2,0-0.2
	C20,10.4,19.9,10.2,19.8,10z M12.8,3l4.5,6.9h-3.8c-0.4,0-0.8,0.3-0.9,0.7h0l0,0c0,0,0,0,0,0.1c0,0.1,0,0.1,0,0.1
	c-0.3,1.1-1.3,1.9-2.5,1.9s-2.2-0.8-2.5-1.9c0-0.1,0-0.1-0.1-0.2c0,0,0,0,0,0h0c-0.1-0.4-0.5-0.7-0.9-0.7H2.7L7.2,3H12.8z
	 M13.5,10.7L13.5,10.7L13.5,10.7L13.5,10.7z M18,17H2v-5.1h3.7c0.7,1.6,2.3,2.7,4.2,2.7c1.9,0,3.5-1.1,4.2-2.7H18V17z"/>
<path class="st0" d="M8.1,5.9h3.7c0.6,0,1-0.4,1-1s-0.4-1-1-1H8.1c-0.6,0-1,0.4-1,1S7.6,5.9,8.1,5.9z"/>
<path class="st0" d="M6.6,8.9h6.8c0.6,0,1-0.4,1-1s-0.4-1-1-1H6.6c-0.6,0-1,0.4-1,1S6,8.9,6.6,8.9z"/>
</svg>
