<?xml version="1.0" encoding="utf-8"?>
<!-- Generator: Adobe Illustrator 19.2.1, SVG Export Plug-In . SVG Version: 6.00 Build 0)  -->
<svg version="1.1" id="Calque_1" xmlns="http://www.w3.org/2000/svg" xmlns:xlink="http://www.w3.org/1999/xlink" x="0px" y="0px"
	 viewBox="0 0 20 20" enable-background="new 0 0 20 20" xml:space="preserve">
<path fill="none" d="M9.96,14.58c-1.89,0-3.51-1.12-4.22-2.73H2V17h16v-5.15h-3.82C13.47,13.46,11.84,14.58,9.96,14.58z"/>
<path fill="#3A434C" d="M19.81,10.04l-5.6-8.58C14.03,1.17,13.71,1,13.37,1H6.65C6.31,1,6,1.17,5.82,1.45L0.22,10
	c-0.1,0.15-0.14,0.32-0.15,0.49C0.03,10.61,0,10.73,0,10.85V18c0,0.26,0.11,0.52,0.29,0.71S0.74,19,1,19h18
	c0.26,0,0.52-0.11,0.71-0.29S20,18.26,20,18v-7.15c0-0.09-0.03-0.17-0.05-0.25C19.95,10.41,19.92,10.21,19.81,10.04z M12.83,3
	l4.47,6.85h-3.82c-0.44,0-0.8,0.28-0.93,0.68l-0.01,0v0c0,0.02-0.01,0.03-0.01,0.05c-0.01,0.05-0.03,0.1-0.04,0.15
	c-0.3,1.06-1.3,1.86-2.51,1.86c-1.21,0-2.21-0.8-2.51-1.85c-0.02-0.06-0.04-0.11-0.05-0.17c0-0.01-0.01-0.02-0.01-0.03l-0.01,0
	c-0.13-0.4-0.5-0.68-0.94-0.68H2.71L7.19,3H12.83z M13.51,10.72L13.51,10.72L13.51,10.72L13.51,10.72z M18,17H2v-5.15h3.74
	c0.71,1.61,2.34,2.73,4.22,2.73c1.89,0,3.51-1.12,4.22-2.73H18V17z"/>
<path fill="#3A434C" d="M8.12,5.95h3.72c0.55,0,1-0.45,1-1c0-0.55-0.45-1-1-1H8.12c-0.55,0-1,0.45-1,1C7.12,5.5,7.56,5.95,8.12,5.95
	z"/>
<path fill="#3A434C" d="M6.55,8.92h6.85c0.55,0,1-0.45,1-1c0-0.55-0.45-1-1-1H6.55c-0.55,0-1,0.45-1,1C5.55,8.47,6,8.92,6.55,8.92z"
	/>
</svg>
