<?xml version="1.0" encoding="utf-8"?>
<!-- Generator: Adobe Illustrator 19.2.1, SVG Export Plug-In . SVG Version: 6.00 Build 0)  -->
<svg version="1.1" id="Calque_1" xmlns="http://www.w3.org/2000/svg" xmlns:xlink="http://www.w3.org/1999/xlink" x="0px" y="0px"
	 viewBox="0 0 20 20" style="enable-background:new 0 0 20 20;" xml:space="preserve">
<style type="text/css">
	.st0{fill:#3A434C;}
</style>
<path class="st0" d="M10.1,19.7c0.4,0.4,1,0.4,1.4-0.1s0.4-1-0.1-1.4L2.5,10l8.9-8.3c0.4-0.4,0.4-1,0.1-1.4s-1-0.4-1.4-0.1l-9.8,9
	C0.1,9.4,0,9.7,0,10s0.1,0.6,0.3,0.7L10.1,19.7z"/>
<path class="st0" d="M8.2,10c0,0.3,0.1,0.6,0.3,0.7l9.8,9c0.3,0.3,0.7,0.3,1.1,0.2S20,19.4,20,19V1c0-0.4-0.2-0.8-0.6-0.9
	S18.6,0,18.3,0.3l-9.8,9C8.4,9.4,8.2,9.7,8.2,10z M18,3.3v13.4L10.7,10L18,3.3z"/>
</svg>
