<?xml version="1.0" encoding="utf-8"?>
<!-- Generator: Adobe Illustrator 19.1.0, SVG Export Plug-In . SVG Version: 6.00 Build 0)  -->
<svg version="1.1" id="Calque_1" xmlns="http://www.w3.org/2000/svg" xmlns:xlink="http://www.w3.org/1999/xlink" x="0px" y="0px"
	 viewBox="0 0 20 20" enable-background="new 0 0 20 20" xml:space="preserve">
<g>
	<polygon fill="none" points="18,3.28 10.72,9.99 18,16.72 	"/>
	<path fill="#3A434C" d="M10.06,19.73c0.41,0.37,1.04,0.35,1.41-0.06s0.35-1.04-0.06-1.41L2.47,9.99l8.95-8.26
		c0.41-0.37,0.43-1.01,0.06-1.41s-1.01-0.43-1.41-0.06L0.32,9.26C0.12,9.45,0,9.71,0,9.99s0.12,0.55,0.32,0.73L10.06,19.73z"/>
	<path fill="#3A434C" d="M8.24,9.99c0,0.28,0.12,0.55,0.32,0.74l9.76,9.01c0.29,0.27,0.71,0.34,1.08,0.18C19.77,19.76,20,19.4,20,19
		V1c0-0.4-0.23-0.76-0.6-0.92s-0.79-0.09-1.08,0.18L8.57,9.26C8.36,9.45,8.24,9.71,8.24,9.99z M18,3.28v13.43l-7.28-6.72L18,3.28z"
		/>
</g>
</svg>
