<?xml version="1.0" encoding="utf-8"?>
<!-- Generator: Adobe Illustrator 19.2.1, SVG Export Plug-In . SVG Version: 6.00 Build 0)  -->
<svg version="1.1" id="Calque_1" xmlns="http://www.w3.org/2000/svg" xmlns:xlink="http://www.w3.org/1999/xlink" x="0px" y="0px"
	 viewBox="0 0 20 20" style="enable-background:new 0 0 20 20;" xml:space="preserve">
<style type="text/css">
	.st0{fill:#3A434C;}
</style>
<path class="st0" d="M8.5,0.3c-0.4,0.4-0.4,1,0.1,1.4l8.9,8.3l-8.9,8.3c-0.4,0.4-0.4,1-0.1,1.4s1,0.4,1.4,0.1l9.7-9
	c0.2-0.2,0.3-0.5,0.3-0.7c0-0.3-0.1-0.6-0.3-0.7l-9.7-9C9.5-0.1,8.9-0.1,8.5,0.3z"/>
<path class="st0" d="M0.6,19.9C1,20.1,1.4,20,1.7,19.7l9.8-9c0.2-0.2,0.3-0.5,0.3-0.7c0-0.3-0.1-0.6-0.3-0.7l-9.8-9
	C1.4,0,1-0.1,0.6,0.1C0.2,0.2,0,0.6,0,1v18C0,19.4,0.2,19.8,0.6,19.9z M9.3,10L2,16.7V3.3L9.3,10z"/>
</svg>
