<?xml version="1.0" encoding="utf-8"?>
<!-- Generator: Adobe Illustrator 19.1.0, SVG Export Plug-In . SVG Version: 6.00 Build 0)  -->
<svg version="1.1" id="Calque_1" xmlns="http://www.w3.org/2000/svg" xmlns:xlink="http://www.w3.org/1999/xlink" x="0px" y="0px"
	 viewBox="0 0 20 20" enable-background="new 0 0 20 20" xml:space="preserve">
<g>
	<polygon fill="none" points="9.28,10.01 2,3.28 2,16.72 	"/>
	<path fill="#3A434C" d="M8.52,0.32C8.15,0.73,8.17,1.36,8.58,1.73l8.95,8.27l-8.95,8.26c-0.41,0.37-0.43,1.01-0.06,1.41
		s1.01,0.43,1.41,0.06l9.74-8.99c0.2-0.19,0.32-0.46,0.32-0.73c0-0.28-0.12-0.55-0.32-0.73L9.93,0.27C9.53-0.11,8.9-0.08,8.52,0.32z
		"/>
	<path fill="#3A434C" d="M0.6,19.92c0.36,0.16,0.79,0.09,1.08-0.18l9.76-8.99c0.2-0.19,0.32-0.46,0.32-0.73
		c0-0.28-0.12-0.55-0.32-0.74L1.67,0.27C1.38,0,0.96-0.08,0.6,0.08C0.23,0.24,0,0.6,0,1v18C0,19.4,0.23,19.76,0.6,19.92z
		 M9.28,10.01L2,16.72V3.28L9.28,10.01z"/>
</g>
</svg>
