<?xml version="1.0" encoding="UTF-8" standalone="no"?>
<svg width="22px" height="20px" viewBox="0 0 22 20" version="1.1" xmlns="http://www.w3.org/2000/svg" xmlns:xlink="http://www.w3.org/1999/xlink">
    <!-- Generator: Sketch 3.8.3 (29802) - http://www.bohemiancoding.com/sketch -->
    <title>pinPicture</title>
    <desc>Created with Sketch.</desc>
    <defs></defs>
    <g stroke="none" stroke-width="1" fill="none" fill-rule="evenodd">
        <g transform="translate(-5.000000, -6.000000)" fill="#3A434C">
            <g transform="translate(5.000000, 6.000000)">
                <path d="M19.2725019,0 L2.72749814,0 C1.22055542,0.00406614259 0.00409124721,1.21306587 0,2.71076172 L0,17.2892383 C0.00409124721,18.7869341 1.22055542,19.9959339 2.72749814,20 L19.2725019,20 C20.7780808,19.9959339 21.9959088,18.7869341 22,17.2892383 L22,2.71076172 C21.9959088,1.21306587 20.7780808,0.00406614259 19.2725019,0 L19.2725019,0 Z M20.0907513,17.2892383 C20.0893876,17.7297371 19.7157203,18.1011114 19.2725019,18.1024668 L2.72749814,18.1024668 C2.28427969,18.1011114 1.9092487,17.7297371 1.9092487,17.2892383 L1.9092487,2.71076172 C1.9092487,2.27026294 2.28427969,1.89888859 2.72749814,1.89753321 L19.2725019,1.89753321 C19.7157203,1.89888859 20.0893876,2.27026294 20.0907513,2.71076172 L20.0907513,17.2892383 L20.0907513,17.2892383 Z"></path>
                <rect x="11.1000004" y="4.5" width="6.5" height="11"></rect>
            </g>
        </g>
    </g>
</svg>