<svg width="15" height="15"><path d="M10.466 14.163a6.916 6.916 0 0 1-3.171.756c-1.988 0-3.675-.707-5.061-2.121C.848 11.384.155 9.683.155 7.695c0-2.016.693-3.727 2.079-5.135C3.62 1.154 5.307.45 7.295.45c2.184 0 3.958.637 5.324 1.911 1.365 1.274 2.047 2.912 2.047 4.914 0 1.246-.273 2.3-.819 3.16-.546.862-1.344 1.292-2.394 1.292-1.008 0-1.687-.567-2.037-1.701a2.448 2.448 0 0 1-1.018 1.029 2.94 2.94 0 0 1-1.418.357c-.994 0-1.813-.343-2.457-1.029-.644-.686-.966-1.547-.966-2.583 0-.98.315-1.83.945-2.551.63-.722 1.47-1.082 2.52-1.082.798 0 1.519.301 2.163.903v-.672h1.491v3.234c0 .728.045 1.295.136 1.701.092.406.2.665.326.777a.7.7 0 0 0 .483.168c.462 0 .812-.294 1.05-.882.238-.588.357-1.302.357-2.142 0-1.582-.518-2.845-1.554-3.79-1.036-.946-2.422-1.418-4.158-1.418-1.554 0-2.863.542-3.927 1.628-1.064 1.085-1.596 2.418-1.596 4 0 1.582.532 2.919 1.596 4.011s2.373 1.638 3.927 1.638c.882 0 1.757-.21 2.625-.63l.525 1.47zM9.185 8.325V6.813a3.213 3.213 0 0 0-.945-.903c-.364-.224-.714-.336-1.05-.336-.7 0-1.225.22-1.575.662-.35.44-.525.969-.525 1.585 0 .602.185 1.12.556 1.554.372.434.872.651 1.502.651.364 0 .745-.154 1.145-.462.399-.308.696-.721.892-1.239z"/></svg>