<?xml version="1.0" encoding="UTF-8" standalone="no"?>
<svg width="20px" height="20px" viewBox="0 0 20 20" version="1.1" xmlns="http://www.w3.org/2000/svg" xmlns:xlink="http://www.w3.org/1999/xlink">
  <g stroke="none" stroke-width="1" fill="none" fill-rule="evenodd">
    <g transform="translate(-6.000000, -6.000000)" fill="#3A434C">
        <path d="M23.0833333,24.2685714 C23.0833333,24.3514286 23.0514583,24.4235714 22.9947917,24.4814286 C22.9367083,24.5385714 22.8651667,24.5707143 22.783,24.5714286 L9.217,24.5714286 C9.13483333,24.5707143 9.06329167,24.5385714 9.00520833,24.4814286 C8.94854167,24.4235714 8.91666667,24.3514286 8.91666667,24.2685714 L8.91666667,7.73071429 C8.91666667,7.64785714 8.94854167,7.57571429 9.00520833,7.51785714 C9.06329167,7.46071429 9.13483333,7.42857143 9.217,7.42857143 L22.783,7.42857143 C22.8651667,7.42857143 22.9367083,7.46071429 22.9947917,7.51785714 C23.0514583,7.57571429 23.0833333,7.64785714 23.0833333,7.73071429 L23.0833333,24.2685714 Z M22.783,6 L9.217,6 C8.26783333,6.00214286 7.50283333,6.77357143 7.5,7.73071429 L7.5,24.2685714 C7.50283333,25.2257143 8.26783333,25.9971429 9.217,26 L22.783,26 C23.7321667,25.9971429 24.4971667,25.2257143 24.5,24.2685714 L24.5,7.73071429 C24.4971667,6.77357143 23.7321667,6.00214286 22.783,6 L22.783,6 Z M14.401575,14.7942857 L13.8285333,14.3507143 C13.7059917,14.2564286 13.5522833,14.2035714 13.3978667,14.2035714 L12.3884917,14.2035714 L12.3884917,13.665 L13.458075,13.665 C13.6124917,13.665 13.7662,13.6121429 13.8887417,13.5171429 L14.401575,13.1207143 L14.401575,14.7942857 Z M15.4229917,11.0314286 C15.1821583,10.9114286 14.8917417,10.94 14.6785333,11.1057143 L13.2172417,12.2364286 L11.6801583,12.2364286 C11.4938667,12.2364286 11.3111167,12.3121429 11.1793667,12.4457143 C11.0469083,12.5785714 10.971825,12.7621429 10.971825,12.9507143 L10.971825,14.9178571 C10.971825,15.1057143 11.0476167,15.2892857 11.1793667,15.4228571 C11.3111167,15.5557143 11.4938667,15.6321429 11.6801583,15.6321429 L13.1570333,15.6321429 L14.6785333,16.8092857 C14.8917417,16.9742857 15.1821583,17.0035714 15.4229917,16.8835714 C15.6645333,16.7635714 15.8182417,16.5142857 15.8182417,16.2428571 L15.8182417,11.6721429 C15.8182417,11.4007143 15.6645333,11.1514286 15.4229917,11.0314286 L15.4229917,11.0314286 Z M18.2571042,12.5890714 C18.0934792,12.2669286 17.9319792,12.0797857 17.9029375,12.0469286 C17.6429792,11.7519286 17.1953125,11.7255 16.9027708,11.9883571 C16.6130625,12.2483571 16.5868542,12.6940714 16.8404375,12.9890714 L16.8390208,12.9905 C16.8397292,12.9905 16.9289792,13.0983571 17.0118542,13.2726429 C17.0954375,13.4469286 17.1705208,13.6805 17.1705208,13.9440714 C17.1669792,14.2269286 17.0968542,14.5555 16.7993542,14.9747857 C16.5698542,15.2947857 16.6413958,15.7412143 16.9580208,15.9726429 C17.2753542,16.2033571 17.7180625,16.1319286 17.9475625,15.8119286 L17.9468542,15.8119286 C18.4079792,15.1747857 18.5893125,14.5126429 18.5864792,13.9440714 C18.5864792,13.3740714 18.4193125,12.9105 18.2571042,12.5890714 M20.6653667,12.5891429 C20.5017417,12.267 20.3402417,12.0798571 20.3112,12.047 C20.0512417,11.752 19.603575,11.7255714 19.3110333,11.9884286 C19.0199083,12.2498571 18.9937,12.7005714 19.2522417,12.9948571 L19.2515333,12.9955714 C19.2727833,13.0212857 19.3606167,13.1377143 19.4364083,13.3077143 C19.5136167,13.4784286 19.5787833,13.6977143 19.5787833,13.9441429 C19.5752417,14.227 19.5051167,14.5555714 19.2076167,14.9748571 C18.9781167,15.2948571 19.0496583,15.7412857 19.3662833,15.972 C19.6836167,16.2034286 20.126325,16.132 20.355825,15.812 L20.355825,15.812 C20.8162417,15.1748571 20.997575,14.5127143 20.9947417,13.9441429 C20.9947417,13.3741429 20.827575,12.9105714 20.6653667,12.5891429"></path>
    </g>
  </g>
</svg>
