<?xml version="1.0" encoding="utf-8"?>
<!-- Generator: Adobe Illustrator 19.2.1, SVG Export Plug-In . SVG Version: 6.00 Build 0)  -->
<svg version="1.1" id="Calque_1" xmlns="http://www.w3.org/2000/svg" xmlns:xlink="http://www.w3.org/1999/xlink" x="0px" y="0px"
	 viewBox="0 0 20 20" style="enable-background:new 0 0 20 20;" xml:space="preserve">
<style type="text/css">
	.st0{fill:#3A434C;}
</style>
<g>
	<path class="st0" d="M1.4,1.8v16.5c0,1,0.8,1.8,1.8,1.8h13.6c1,0,1.8-0.8,1.8-1.8V1.8c0-1-0.8-1.8-1.8-1.8H3.2
		C2.2,0,1.4,0.8,1.4,1.8z M17.1,1.8v16.5c0,0.1-0.1,0.3-0.3,0.3H3.2c-0.1,0-0.3-0.1-0.3-0.3V1.8c0-0.1,0.1-0.3,0.3-0.3h13.6
		C17,1.5,17.1,1.6,17.1,1.8z"/>
	<path class="st0" d="M5.7,9.7h1.5l1.5,1.2C8.9,11,9.2,11,9.5,10.9c0.3-0.1,0.4-0.4,0.4-0.7V5.7c0-0.3-0.2-0.6-0.4-0.7
		C9.2,4.9,8.9,4.9,8.7,5.1L7.2,6.2H5.7c-0.2,0-0.4,0.1-0.5,0.2S4.9,6.8,4.9,7v2c0,0.2,0.1,0.4,0.2,0.5S5.5,9.7,5.7,9.7z M7.5,7.7
		c0.2,0,0.3-0.1,0.5-0.2l0.4-0.3v1.5L7.9,8.3C7.7,8.2,7.6,8.2,7.4,8.2h-1V7.7H7.5z"/>
	<path class="st0" d="M10.8,7c0,0,0.1,0.1,0.2,0.3s0.2,0.4,0.2,0.7c0,0.3-0.1,0.6-0.4,1C10.6,9.3,10.6,9.8,11,10
		c0.3,0.2,0.8,0.2,1.1-0.2l0,0c0.5-0.6,0.6-1.3,0.6-1.9c0-0.6-0.2-1-0.3-1.4S12,6.1,12,6c-0.3-0.3-0.8-0.3-1.1-0.1
		C10.6,6.2,10.6,6.7,10.8,7L10.8,7z"/>
	<path class="st0" d="M13.2,7c0,0,0.1,0.1,0.2,0.3s0.2,0.4,0.2,0.7c0,0.3-0.1,0.6-0.4,1C13,9.3,13,9.8,13.4,10
		c0.3,0.2,0.8,0.2,1.1-0.2l0,0c0.5-0.6,0.6-1.3,0.6-1.9c0-0.6-0.2-1-0.3-1.4S14.4,6.1,14.4,6c-0.3-0.3-0.8-0.3-1.1-0.1
		C13,6.2,13,6.7,13.2,7L13.2,7z"/>
</g>
</svg>
