<svg viewBox="0 0 20 20"><path d="M1.4 1.8v16.5c0 1 .8 1.8 1.8 1.8h13.6c1 0 1.8-.8 1.8-1.8V1.8c0-1-.8-1.8-1.8-1.8H3.2c-1 0-1.8.8-1.8 1.8zm15.7 0v16.5c0 .1-.1.3-.3.3H3.2c-.1 0-.3-.1-.3-.3V1.8c0-.1.1-.3.3-.3h13.6c.2 0 .3.1.3.3z"/><path d="M5.7 9.7h1.5l1.5 1.2c.2.1.5.1.8 0 .3-.1.4-.4.4-.7V5.7c0-.3-.2-.6-.4-.7-.3-.1-.6-.1-.8.1L7.2 6.2H5.7c-.2 0-.4.1-.5.2s-.3.4-.3.6v2c0 .2.1.4.2.5s.4.2.6.2zm1.8-2c.2 0 .3-.1.5-.2l.4-.3v1.5l-.5-.4c-.2-.1-.3-.1-.5-.1h-1v-.5h1.1zm3.3-.7s.1.1.2.3.2.4.2.7c0 .3-.1.6-.4 1-.2.3-.2.8.2 1 .3.2.8.2 1.1-.2.5-.6.6-1.3.6-1.9 0-.6-.2-1-.3-1.4S12 6.1 12 6c-.3-.3-.8-.3-1.1-.1-.3.3-.3.8-.1 1.1zm2.4 0s.1.1.2.3.2.4.2.7c0 .3-.1.6-.4 1-.2.3-.2.8.2 1 .3.2.8.2 1.1-.2.5-.6.6-1.3.6-1.9 0-.6-.2-1-.3-1.4s-.4-.4-.4-.5c-.3-.3-.8-.3-1.1-.1-.3.3-.3.8-.1 1.1z"/></svg>