<?xml version="1.0" encoding="utf-8"?>
<!-- Generator: Adobe Illustrator 19.1.0, SVG Export Plug-In . SVG Version: 6.00 Build 0)  -->
<svg version="1.1" id="Calque_1" xmlns="http://www.w3.org/2000/svg" xmlns:xlink="http://www.w3.org/1999/xlink" x="0px" y="0px"
	 viewBox="0 0 20 20" enable-background="new 0 0 20 20" xml:space="preserve">
<g>
	<path fill="none" d="M2.92,1.76v16.47c0,0.14,0.12,0.26,0.26,0.26h13.63c0.14,0,0.26-0.12,0.26-0.26V1.76
		c0-0.14-0.12-0.26-0.26-0.26H3.19C3.05,1.5,2.92,1.62,2.92,1.76z M13.32,5.98c0.31-0.28,0.78-0.25,1.06,0.06
		c0.03,0.03,0.19,0.22,0.36,0.55c0.17,0.32,0.34,0.79,0.34,1.37c0,0.57-0.18,1.24-0.65,1.88v0c-0.24,0.34-0.71,0.41-1.05,0.17
		c-0.34-0.24-0.41-0.71-0.17-1.05c0.29-0.41,0.36-0.73,0.37-1c0-0.26-0.07-0.48-0.16-0.65c-0.08-0.17-0.17-0.27-0.17-0.27l0,0
		C12.98,6.72,13.01,6.25,13.32,5.98z M10.9,5.98c0.31-0.28,0.78-0.25,1.06,0.06c0.03,0.03,0.19,0.22,0.36,0.55
		c0.17,0.32,0.33,0.79,0.34,1.37c0,0.57-0.18,1.24-0.65,1.88v0c-0.24,0.34-0.71,0.41-1.05,0.17c-0.34-0.24-0.41-0.71-0.17-1.05
		c0.29-0.41,0.36-0.73,0.37-1c0-0.26-0.07-0.48-0.16-0.65c-0.08-0.17-0.17-0.27-0.17-0.27l0,0C10.56,6.72,10.59,6.25,10.9,5.98z
		 M4.93,6.96c0-0.2,0.08-0.39,0.22-0.53s0.33-0.22,0.53-0.22h1.53l1.46-1.12c0.23-0.17,0.53-0.2,0.79-0.08
		C9.71,5.14,9.87,5.4,9.87,5.69v4.55c0,0.28-0.16,0.55-0.42,0.67c-0.26,0.13-0.56,0.1-0.79-0.08L7.15,9.67H5.68
		c-0.2,0-0.39-0.08-0.53-0.22S4.93,9.12,4.93,8.92V6.96z"/>
	<path fill="none" d="M6.43,8.17H7.4c0.16,0,0.33,0.06,0.46,0.16l0.51,0.39V7.21L7.92,7.56c-0.13,0.1-0.29,0.15-0.46,0.15H6.43V8.17
		z"/>
	<path fill="#3A434C" d="M1.42,1.76v16.47c0,0.97,0.79,1.76,1.76,1.76h13.63c0.97,0,1.76-0.79,1.76-1.76V1.76
		c0-0.97-0.79-1.76-1.76-1.76H3.19C2.21,0,1.43,0.79,1.42,1.76z M17.08,1.76v16.47c0,0.14-0.12,0.26-0.26,0.26H3.19
		c-0.14,0-0.26-0.12-0.26-0.26V1.76c0-0.14,0.12-0.26,0.26-0.26h13.63C16.95,1.5,17.08,1.62,17.08,1.76z"/>
	<path fill="#3A434C" d="M5.68,9.67h1.47l1.52,1.17c0.23,0.17,0.53,0.2,0.79,0.08c0.26-0.13,0.42-0.39,0.42-0.67V5.69
		c0-0.28-0.16-0.55-0.42-0.67C9.2,4.89,8.89,4.92,8.67,5.09L7.21,6.21H5.68c-0.2,0-0.39,0.08-0.53,0.22S4.93,6.77,4.93,6.96v1.96
		c0,0.2,0.08,0.39,0.22,0.53S5.48,9.67,5.68,9.67z M7.46,7.71c0.16,0,0.33-0.06,0.46-0.15l0.45-0.35v1.51L7.86,8.33
		C7.73,8.23,7.57,8.17,7.4,8.17H6.43V7.71H7.46z"/>
	<path fill="#3A434C" d="M10.83,7.03c0,0,0.09,0.1,0.17,0.27c0.08,0.17,0.16,0.4,0.16,0.65c0,0.27-0.07,0.59-0.37,1
		c-0.24,0.34-0.17,0.8,0.17,1.05c0.34,0.24,0.8,0.17,1.05-0.17v0c0.47-0.64,0.65-1.31,0.65-1.88c0-0.58-0.17-1.04-0.34-1.37
		c-0.17-0.33-0.33-0.51-0.36-0.55c-0.28-0.31-0.75-0.34-1.06-0.06C10.59,6.25,10.56,6.72,10.83,7.03L10.83,7.03z"/>
	<path fill="#3A434C" d="M13.25,7.03c0,0,0.09,0.1,0.17,0.27c0.08,0.17,0.16,0.4,0.16,0.65c0,0.27-0.07,0.59-0.37,1
		c-0.24,0.34-0.17,0.8,0.17,1.05c0.34,0.24,0.8,0.17,1.05-0.17v0c0.47-0.64,0.65-1.31,0.65-1.88c0-0.58-0.17-1.04-0.34-1.37
		c-0.17-0.33-0.33-0.51-0.36-0.55c-0.28-0.31-0.75-0.34-1.06-0.06C13.01,6.25,12.98,6.72,13.25,7.03L13.25,7.03z"/>
</g>
</svg>
