<?xml version="1.0" encoding="UTF-8" standalone="no"?>
<svg width="20px" height="20px" viewBox="0 0 20 20" version="1.1" xmlns="http://www.w3.org/2000/svg" xmlns:xlink="http://www.w3.org/1999/xlink" xmlns:sketch="http://www.bohemiancoding.com/sketch/ns">
    <!-- Generator: Sketch 3.4.2 (15857) - http://www.bohemiancoding.com/sketch -->
    <title>vote</title>
    <desc>Created with Sketch.</desc>
    <defs></defs>
    <g id="Page-1" stroke="none" stroke-width="1" fill="none" fill-rule="evenodd" sketch:type="MSPage">
        <g id="vote" sketch:type="MSArtboardGroup" transform="translate(-6.000000, -6.000000)" fill="#3A434C">
            <g sketch:type="MSLayerGroup" transform="translate(7.500000, 6.000000)" id="Shape">
                <path d="M10,12.9403862 L10,19.0596138 C10,19.5789747 10.4477153,20 11,20 C11.5522847,20 12,19.5789747 12,19.0596138 L12,12.9403862 C12,12.4210253 11.5522847,12 11,12 C10.4477153,12 10,12.4210253 10,12.9403862 L10,12.9403862 Z" sketch:type="MSShapeGroup"></path>
                <path d="M15,3.95536288 L15,19.0446371 C15,19.5722695 15.4477153,20 16,20 C16.5522847,20 17,19.5722695 17,19.0446371 L17,3.95536288 C17,3.42773053 16.5522847,3 16,3 C15.4477153,3 15,3.42773053 15,3.95536288 L15,3.95536288 Z" sketch:type="MSShapeGroup"></path>
                <path d="M5,0.946009866 L5,19.0539901 C5,19.576457 5.44771525,20 6,20 C6.55228475,20 7,19.576457 7,19.0539901 L7,0.946009866 C7,0.423543044 6.55228475,0 6,0 C5.44771525,0 5,0.423543044 5,0.946009866 L5,0.946009866 Z" sketch:type="MSShapeGroup"></path>
                <path d="M0,7.91411351 L0,19.0858865 C0,19.5907374 0.44771525,20 1,20 C1.55228475,20 2,19.5907374 2,19.0858865 L2,7.91411351 C2,7.40926256 1.55228475,7 1,7 C0.44771525,7 0,7.40926256 0,7.91411351 L0,7.91411351 Z" sketch:type="MSShapeGroup"></path>
            </g>
        </g>
    </g>
</svg>