<svg xmlns="http://www.w3.org/2000/svg" viewBox="0 0 20 20"><path d="M5.8 3.7c.6 0 1.1.1 1.6.2s.9.3 1.2.5c.4.2.7.5.9.9.2.4.3.9.3 1.4 0 .6-.1 1.1-.4 1.6-.4.4-.8.8-1.3 1 .8.2 1.3.6 1.7 1.1.4.5.6 1.2.6 2 0 .6-.1 1.2-.4 1.6-.2.5-.6.8-1 1.1-.4.3-.9.5-1.4.6-.5.3-1.1.3-1.6.3H0V3.7h5.8zm-.4 5c.5 0 .9-.1 1.2-.3.4-.3.5-.6.5-1.2 0-.2 0-.5-.1-.7-.2-.1-.3-.3-.5-.4-.1-.1-.3-.2-.6-.2-.2 0-.5-.1-.7-.1H2.7v2.9h2.7zm.2 5.2c.3 0 .5 0 .8-.1.2-.1.5-.1.6-.3.2-.1.3-.3.4-.5.1-.2.2-.5.2-.8 0-.6-.2-1.1-.5-1.4-.4-.3-.8-.4-1.4-.4h-3v3.4h2.9zM14.2 13.9c.4.4.9.5 1.6.5.5 0 .9-.1 1.3-.4.4-.2.6-.5.7-.8H20c-.3 1.1-.9 1.8-1.6 2.3-.7.5-1.6.7-2.6.7-.7 0-1.3-.1-1.9-.3-.6-.2-1-.5-1.4-1-.4-.4-.7-.9-.9-1.5-.2-.6-.3-1.2-.3-1.9s.1-1.3.3-1.9c.2-.6.5-1.1.9-1.5.4-.4.9-.8 1.4-1 .5-.1 1.1-.2 1.8-.2.8 0 1.4.1 2 .4.6.3 1 .7 1.4 1.2.4.5.6 1.1.8 1.7.2.6.2 1.3.2 2h-6.4c-.1.7.1 1.3.5 1.7zM17 9.2c-.3-.3-.8-.5-1.4-.5-.4 0-.7.1-1 .2-.3.1-.5.3-.6.5-.2.2-.3.4-.3.6-.1.2-.1.4-.1.6h4c-.1-.6-.3-1.1-.6-1.4zM13.1 4.6h5v1.2h-5z"/></svg>