<?xml version="1.0" encoding="utf-8"?>
<!-- Generator: Adobe Illustrator 19.1.0, SVG Export Plug-In . SVG Version: 6.00 Build 0)  -->
<svg version="1.1" id="Calque_1" xmlns="http://www.w3.org/2000/svg" xmlns:xlink="http://www.w3.org/1999/xlink" x="0px" y="0px"
	 viewBox="0 0 20 20" enable-background="new 0 0 20 20" xml:space="preserve">
<g>
	<path fill="none" d="M16.9,14.4c-0.04-0.05-0.08-0.1-0.12-0.16c-0.81-1.08-1.8-2.51-2.48-3.97c-0.45-0.98-0.79-1.97-0.8-2.97
		c0-0.18-0.01-0.56-0.02-0.88C13.47,6.19,13.47,6,13.46,5.9c-0.17-1.18-0.93-2.17-1.98-2.66H8.54C7.55,3.69,6.81,4.58,6.58,5.67
		C6.57,5.79,6.56,6.02,6.54,6.28C6.52,6.66,6.5,7.12,6.5,7.3c-0.01,1.01-0.34,2-0.8,2.98c-0.46,0.98-1.04,1.93-1.63,2.78
		C3.74,13.55,3.41,14,3.1,14.4H16.9z"/>
	<path fill="none" d="M7.71,16.5C8.1,17.38,8.98,18,10,18c1.02,0,1.9-0.62,2.29-1.5H7.71z"/>
	<path fill="#3A434C" d="M0.35,14.62l-0.08,0.09l-0.02,0.03c-0.26,0.29-0.33,0.71-0.17,1.07C0.25,16.17,0.6,16.4,1,16.4h4.59
		C6.01,18.46,7.82,20,10,20c2.18,0,3.99-1.54,4.41-3.6H19c0.4,0,0.75-0.23,0.91-0.59s0.1-0.78-0.17-1.07l-0.04-0.05
		c-0.23-0.26-1.32-1.54-2.33-3.06c-0.51-0.76-0.99-1.58-1.33-2.36C15.69,8.5,15.49,7.78,15.5,7.3c0-0.47-0.04-1.53-0.04-1.54
		l-0.01-0.1C15.2,3.78,14,2.22,12.35,1.44C11.92,0.59,11.04,0,10.02,0c-0.6,0-1.16,0.21-1.59,0.55C8.13,0.78,7.9,1.07,7.72,1.4
		C6.14,2.12,4.97,3.56,4.61,5.3L4.59,5.43c0,0-0.02,0.34-0.05,0.73C4.52,6.57,4.5,7.01,4.5,7.3c0.01,0.52-0.22,1.3-0.61,2.13
		c-0.58,1.25-1.5,2.6-2.27,3.61c-0.38,0.51-0.73,0.94-0.98,1.23C0.52,14.43,0.42,14.54,0.35,14.62z M10,18
		c-1.02,0-1.9-0.62-2.29-1.5h4.58C11.9,17.38,11.02,18,10,18z M4.08,13.06c0.58-0.85,1.17-1.81,1.63-2.78
		C6.16,9.3,6.49,8.31,6.5,7.3c0-0.18,0.02-0.64,0.04-1.02c0.02-0.26,0.03-0.49,0.04-0.61c0.23-1.08,0.97-1.97,1.96-2.43h2.95
		c1.04,0.49,1.81,1.48,1.98,2.66c0,0.1,0.01,0.29,0.02,0.52c0.01,0.32,0.02,0.7,0.02,0.88c0.01,1.01,0.35,2,0.8,2.97
		c0.68,1.46,1.67,2.89,2.48,3.97c0.04,0.06,0.08,0.11,0.12,0.16H3.1C3.41,14,3.74,13.55,4.08,13.06z"/>
</g>
</svg>
