<?xml version="1.0" encoding="utf-8"?>
<!-- Generator: Adobe Illustrator 19.2.1, SVG Export Plug-In . SVG Version: 6.00 Build 0)  -->
<svg version="1.1" id="Calque_1" xmlns="http://www.w3.org/2000/svg" xmlns:xlink="http://www.w3.org/1999/xlink" x="0px" y="0px"
	 viewBox="0 0 20 20" style="enable-background:new 0 0 20 20;" xml:space="preserve">
<style type="text/css">
	.st0{fill:#3A434C;}
</style>
<path class="st0" d="M0.3,14.6L0.3,14.6l-0.1,0.1C0,15-0.1,15.4,0.1,15.8c0.2,0.4,0.5,0.6,0.9,0.6h4.6C6,18.5,7.8,20,10,20
	s4-1.5,4.4-3.6H19c0.4,0,0.8-0.2,0.9-0.6s0.1-0.8-0.2-1.1l0-0.1c-0.2-0.3-1.3-1.5-2.3-3.1c-0.5-0.8-1-1.6-1.3-2.4
	c-0.3-0.8-0.5-1.5-0.5-2c0-0.5,0-1.5,0-1.5l0-0.1c-0.2-1.9-1.4-3.4-3.1-4.2C11.9,0.6,11,0,10,0C9.4,0,8.9,0.2,8.4,0.6
	C8.1,0.8,7.9,1.1,7.7,1.4C6.1,2.1,5,3.6,4.6,5.3l0,0.1c0,0,0,0.3-0.1,0.7c0,0.4,0,0.9,0,1.1c0,0.5-0.2,1.3-0.6,2.1
	C3.3,10.7,2.4,12,1.6,13c-0.4,0.5-0.7,0.9-1,1.2C0.5,14.4,0.4,14.5,0.3,14.6z M10,18c-1,0-1.9-0.6-2.3-1.5h4.6
	C11.9,17.4,11,18,10,18z M4.1,13.1c0.6-0.9,1.2-1.8,1.6-2.8c0.4-1,0.8-2,0.8-3c0-0.2,0-0.6,0-1c0-0.3,0-0.5,0-0.6c0.2-1.1,1-2,2-2.4
	h2.9c1,0.5,1.8,1.5,2,2.7c0,0.1,0,0.3,0,0.5c0,0.3,0,0.7,0,0.9c0,1,0.4,2,0.8,3c0.7,1.5,1.7,2.9,2.5,4c0,0.1,0.1,0.1,0.1,0.2H3.1
	C3.4,14,3.7,13.6,4.1,13.1z"/>
</svg>
