<svg viewBox="0 0 20 20"><path d="M.3 14.6l-.1.1c-.2.3-.3.7-.1 1.1.2.4.5.6.9.6h4.6C6 18.5 7.8 20 10 20s4-1.5 4.4-3.6H19c.4 0 .8-.2.9-.6s.1-.8-.2-1.1v-.1c-.2-.3-1.3-1.5-2.3-3.1-.5-.8-1-1.6-1.3-2.4-.3-.8-.5-1.5-.5-2V5.5c-.2-1.9-1.4-3.4-3.1-4.2C11.9.6 11 0 10 0c-.6 0-1.1.2-1.6.6-.3.2-.5.5-.7.8-1.6.7-2.7 2.2-3.1 3.9v.1s0 .3-.1.7v1.1c0 .5-.2 1.3-.6 2.1-.6 1.4-1.5 2.7-2.3 3.7-.4.5-.7.9-1 1.2-.1.2-.2.3-.3.4zM10 18c-1 0-1.9-.6-2.3-1.5h4.6c-.4.9-1.3 1.5-2.3 1.5zm-5.9-4.9c.6-.9 1.2-1.8 1.6-2.8.4-1 .8-2 .8-3V5.7c.2-1.1 1-2 2-2.4h2.9c1 .5 1.8 1.5 2 2.7v1.4c0 1 .4 2 .8 3 .7 1.5 1.7 2.9 2.5 4 0 .1.1.1.1.2H3.1c.3-.6.6-1 1-1.5z"/></svg>