<svg xmlns="http://www.w3.org/2000/svg" width="17.54" height="20" viewBox="0 0 17.54 20"><title>bill</title><path d="M15.54,16.29l-2.13-2.5a1,1,0,0,0-1.52,0L8.77,17.47,5.65,13.79a1,1,0,0,0-1.52,0L2,16.29v-14l0.08-.19L2.26,2h13l0.19,0.08,0.08,0.19v14ZM15.27,0h-13A2.27,2.27,0,0,0,0,2.26V19a1,1,0,0,0,1.76.65L4.89,16,8,19.65a1,1,0,0,0,.76.35h0a1,1,0,0,0,.76-0.35L12.65,16l3.13,3.67A1,1,0,0,0,17.54,19V2.26A2.27,2.27,0,0,0,15.27,0h0Z" transform="translate(0 0)" fill="#3a434c"/><path d="M12.32,4.14H5.23a1,1,0,0,0,0,2h7.08A1,1,0,0,0,12.32,4.14Zm0,3.71H5.23a1,1,0,1,0,0,2h7.08A1,1,0,0,0,12.32,7.85Z" transform="translate(0 0)" fill="#3a434c"/></svg>