<?xml version="1.0" encoding="utf-8"?>
<!-- Generator: Adobe Illustrator 20.1.0, SVG Export Plug-In . SVG Version: 6.00 Build 0)  -->
<svg version="1.1" id="Calque_1" xmlns="http://www.w3.org/2000/svg" xmlns:xlink="http://www.w3.org/1999/xlink" x="0px" y="0px"
	 viewBox="0 0 20 20" style="enable-background:new 0 0 20 20;" xml:space="preserve">
<style type="text/css">
	.st0{fill:#3A434C;}
</style>
<path class="st0" d="M16.5,0h-13C2.2,0,1.2,1,1.2,2.3V19c0,0.4,0.3,0.8,0.6,0.9s0.8,0,1.1-0.3L6.1,16l3.1,3.7C9.4,19.9,9.7,20,10,20
	h0h0c0.3,0,0.6-0.1,0.8-0.4l3.1-3.7l3.1,3.7c0.3,0.3,0.7,0.4,1.1,0.3c0.4-0.1,0.6-0.5,0.6-0.9V2.3C18.8,1,17.8,0,16.5,0z M16.8,16.3
	l-2.1-2.5c-0.2-0.2-0.5-0.4-0.8-0.4s-0.6,0.1-0.8,0.4L10,17.5l-3.1-3.7c-0.2-0.2-0.5-0.4-0.8-0.4c-0.3,0-0.6,0.1-0.8,0.4l-2.1,2.5
	v-14l0.1-0.2L3.5,2h13l0.2,0.1l0.1,0.2V16.3z"/>
<path class="st0" d="M13.6,4.2H6.5c-0.6,0-1,0.4-1,1s0.4,1,1,1h7.1c0.6,0,1-0.4,1-1C14.6,4.6,14.1,4.2,13.6,4.2z"/>
<path class="st0" d="M13.6,7.8H6.5c-0.6,0-1,0.5-1,1s0.4,1,1,1h7.1c0.6,0,1-0.4,1-1S14.1,7.8,13.6,7.8z"/>
</svg>
