<svg viewBox="0 0 20 20"><path d="M.8 19.8c1 .2 1.9.2 2.7.2 1.7 0 3-.4 4-.9 1.6-.9 2.3-2.2 2.7-3.2.4-1.1.4-1.9.4-1.9 0-.3-.1-.5-.3-.7l-2.9-3c-.2-.3-.5-.4-.9-.3-.1 0-.6.1-1.2.5s-1.4 1.1-1.9 2.1c-.7 1.7-1 3.1-1.3 3.9-.2.4-.3.7-.5.9-.2.2-.4.3-.8.4-.5.1-.8.5-.8 1s.4.9.8 1zm4.5-6.4c.2-.6.6-.9 1.1-1.2.1 0 .1-.1.2-.1l2.1 2.2c-.1.4-.2 1.1-.7 1.8-.3.5-.8 1-1.5 1.3-.7.4-1.6.6-3 .6.3-.5.5-1 .7-1.6.4-.8.6-1.8 1.1-3zm6.1-5.9l-2.5.2c-.3.1-.7.3-.8.7-.1.3 0 .7.2 1l2.7 2.9c.3.3.7.4 1.1.3s.6-.5.7-.9l.2-3 6.7-7c.4-.4.4-1 0-1.4s-1-.4-1.4 0l-6.9 7.2z"/></svg>