<?xml version="1.0" encoding="utf-8"?>
<!-- Generator: Adobe Illustrator 19.1.0, SVG Export Plug-In . SVG Version: 6.00 Build 0)  -->
<svg version="1.1" id="Calque_1" xmlns="http://www.w3.org/2000/svg" xmlns:xlink="http://www.w3.org/1999/xlink" x="0px" y="0px"
	 viewBox="0 0 20 20" enable-background="new 0 0 20 20" xml:space="preserve">
<g>
	<path fill="none" d="M6.53,17.4c0.69-0.37,1.14-0.84,1.46-1.33c0.42-0.65,0.59-1.35,0.65-1.76l-2.11-2.18
		c-0.06,0.03-0.13,0.06-0.19,0.1c-0.4,0.25-0.83,0.62-1.05,1.17c-0.48,1.18-0.75,2.18-1.04,3.06c-0.18,0.55-0.38,1.08-0.67,1.57
		C4.91,18.02,5.85,17.76,6.53,17.4z"/>
	<path fill="#3A434C" d="M0.82,19.77c0.99,0.18,1.89,0.26,2.7,0.26c1.67,0,3.01-0.35,4.04-0.92c1.56-0.86,2.35-2.17,2.73-3.22
		c0.38-1.06,0.38-1.88,0.38-1.95c0-0.26-0.1-0.51-0.28-0.7l-2.9-2.99C7.25,9.99,6.88,9.88,6.53,9.97c-0.06,0.02-0.59,0.15-1.23,0.54
		c-0.64,0.39-1.42,1.05-1.86,2.13c-0.7,1.73-1,3.09-1.34,3.9c-0.17,0.41-0.33,0.67-0.51,0.85c-0.18,0.17-0.4,0.31-0.84,0.42
		c-0.46,0.12-0.77,0.53-0.75,1C0.02,19.3,0.36,19.69,0.82,19.77z M5.3,13.4c0.22-0.55,0.64-0.92,1.05-1.17
		c0.07-0.04,0.13-0.07,0.19-0.1l2.11,2.18C8.58,14.71,8.42,15.41,8,16.06c-0.32,0.49-0.77,0.97-1.46,1.33
		c-0.68,0.36-1.62,0.62-2.95,0.63c0.29-0.49,0.49-1.02,0.67-1.57C4.55,15.58,4.82,14.58,5.3,13.4z"/>
	<path fill="#3A434C" d="M11.43,7.48L8.94,7.73C8.56,7.76,8.24,8.01,8.1,8.37C7.97,8.73,8.05,9.13,8.31,9.41l2.7,2.85
		c0.27,0.28,0.68,0.39,1.05,0.26c0.37-0.13,0.63-0.46,0.67-0.86L13,8.73l6.72-7c0.38-0.4,0.37-1.03-0.03-1.41s-1.03-0.37-1.41,0.03
		L11.43,7.48z"/>
</g>
</svg>
