<?xml version="1.0" encoding="UTF-8" standalone="no"?>
<svg width="20px" height="20px" viewBox="0 0 20 20" version="1.1" xmlns="http://www.w3.org/2000/svg" xmlns:xlink="http://www.w3.org/1999/xlink">
    <defs></defs>
    <g id="Page-1" stroke="none" stroke-width="1" fill="none" fill-rule="evenodd">
        <g id="brush" transform="translate(-6.000000, -6.000000)" fill="#3A434C">
            <path d="M17.08959,18.7348647 L13.731657,15.3683408 C13.731657,15.3683408 16.6496296,14.1929763 17.6718905,13.1668027 C18.6954455,12.1419265 23.8080441,7.01495049 23.8080441,7.01495049 C23.8080441,7.01495049 24.829011,5.99007422 25.6688178,6.83202953 C26.5086245,7.67398485 25.4863636,8.69886113 25.4863636,8.69886113 C25.4850696,8.69886113 20.373765,13.8245398 19.3515041,14.8494161 C18.3279491,15.8755897 17.08959,18.7348647 17.08959,18.7348647 Z M6,25.2253153 C8.61129436,24.5805514 8.35637613,22.4581494 9.90917753,18.7348647 C10.6713442,16.9056552 12.7093961,16.3919197 12.7093961,16.3919197 L16.0673291,19.759741 C16.0673291,19.759741 16.0673291,26.9792808 6,25.2253153 Z"></path>
        </g>
    </g>
</svg>