<svg viewBox="0 0 20 20"><path d="M19 12.8c.6 0 1-.4 1-1s-.4-1-1-1h-2c-.1-.5-.2-.9-.3-1.4l3-3c.3-.4.3-1.1-.1-1.4-.4-.3-.9-.3-1.3 0l-2.6 2.6c-.3-.4-.7-.8-1.1-1.2v-.1c0-1.2-.5-2.3-1.3-3.2l1.4-1.4c.4-.4.3-1.1-.1-1.4-.4-.3-.9-.3-1.3 0L11.7 2c-1-.4-2-.4-3-.1L7.1.3c-.4-.4-1-.4-1.4 0s-.4 1 0 1.4l1.2 1.2c-1 .9-1.5 2.1-1.5 3.4v.1c-.4.3-.8.7-1.1 1.1L1.7 4.9c-.4-.3-1.1-.2-1.4.2-.3.4-.3.9 0 1.3l3 3c-.2.4-.3.9-.3 1.4H1c-.6 0-1 .4-1 1s.4 1 1 1h2c.1.8.3 1.5.7 2.2L.3 18.4c-.4.4-.5 1-.1 1.4s1 .5 1.4.1l.1-.1 3.2-3.1c2.7 2.8 7.1 3 10 .3l.3-.3 3.1 3.1c.4.4 1.1.3 1.4-.1.3-.4.3-.9 0-1.3L16.3 15c.3-.7.6-1.4.7-2.2h2zm-9-9.2c1 0 1.9.5 2.3 1.4-1.5-.5-3.1-.5-4.6 0C8.1 4.2 9 3.7 10 3.6zm-5.1 8.2c0-2.4 1.7-4.5 4.1-5v10c-2.4-.5-4.1-2.6-4.1-5zm6.1 5v-10c2.8.5 4.6 3.2 4.1 5.9-.4 2-2 3.7-4.1 4.1z"/></svg>