<?xml version="1.0" encoding="utf-8"?>
<!-- Generator: Adobe Illustrator 20.1.0, SVG Export Plug-In . SVG Version: 6.00 Build 0)  -->
<svg version="1.1" id="Calque_1" xmlns="http://www.w3.org/2000/svg" xmlns:xlink="http://www.w3.org/1999/xlink" x="0px" y="0px"
	 viewBox="0 0 20 20" style="enable-background:new 0 0 20 20;" xml:space="preserve">
<style type="text/css">
	.st0{fill:#3A434C;}
</style>
<path class="st0" d="M19,12.8c0.6,0,1-0.4,1-1s-0.4-1-1-1h-2c-0.1-0.5-0.2-0.9-0.3-1.4l3-3C20,6,20,5.3,19.6,5
	c-0.4-0.3-0.9-0.3-1.3,0l-2.6,2.6c-0.3-0.4-0.7-0.8-1.1-1.2c0,0,0-0.1,0-0.1c0-1.2-0.5-2.3-1.3-3.2l1.4-1.4c0.4-0.4,0.3-1.1-0.1-1.4
	c-0.4-0.3-0.9-0.3-1.3,0L11.7,2l0,0c-1-0.4-2-0.4-3-0.1L7.1,0.3c-0.4-0.4-1-0.4-1.4,0s-0.4,1,0,1.4l0,0l1.2,1.2
	C5.9,3.8,5.4,5,5.4,6.3c0,0,0,0.1,0,0.1C5,6.7,4.6,7.1,4.3,7.5L1.7,4.9C1.3,4.6,0.6,4.7,0.3,5.1C0,5.5,0,6,0.3,6.4l3,3
	C3.1,9.8,3,10.3,3,10.8H1c-0.6,0-1,0.4-1,1s0.4,1,1,1h2c0.1,0.8,0.3,1.5,0.7,2.2l0,0l-3.4,3.4c-0.4,0.4-0.5,1-0.1,1.4s1,0.5,1.4,0.1
	c0,0,0.1-0.1,0.1-0.1l3.2-3.1c2.7,2.8,7.1,3,10,0.3c0.1-0.1,0.2-0.2,0.3-0.3l3.1,3.1c0.4,0.4,1.1,0.3,1.4-0.1c0.3-0.4,0.3-0.9,0-1.3
	l-3.4-3.4l0,0c0.3-0.7,0.6-1.4,0.7-2.2H19z M10,3.6c1,0,1.9,0.5,2.3,1.4c-1.5-0.5-3.1-0.5-4.6,0C8.1,4.2,9,3.7,10,3.6z M4.9,11.8
	c0-2.4,1.7-4.5,4.1-5v10C6.6,16.3,4.9,14.2,4.9,11.8z M11,16.8v-10c2.8,0.5,4.6,3.2,4.1,5.9C14.7,14.7,13.1,16.4,11,16.8L11,16.8z"
	/>
</svg>
