<svg viewBox="0 0 20 20"><path d="M10 0C8.2 0 6.5.8 5.3 2S3.4 4.8 3.4 6.6c0 1 .2 1.9.6 2.6s.7 1.3 1 1.8c.3.4.5.7.6.9.1.3.2.5.2.7v1.5c0 .3.1.6.4.8.2.2.4.2.7.2h6.2c.2 0 .5-.1.7-.2.2-.2.4-.5.4-.8v-1.5c0-.3.1-.5.2-.7.1-.3.4-.6.6-.9.4-.5.8-1 1.1-1.7s.6-1.6.6-2.6c0-1.8-.7-3.5-1.9-4.7-1.3-1.2-3-2-4.8-2zm4.3 8.4c-.2.5-.5.9-.9 1.4-.3.4-.6.7-.8 1.2-.2.5-.4 1-.4 1.7v.5H7.8v-.5c0-.6-.2-1.2-.4-1.7s-.5-.8-.8-1.2c-.3-.5-.6-.9-.9-1.4-.2-.5-.4-1-.4-1.7 0-1.3.5-2.4 1.4-3.3.9-.9 2-1.4 3.3-1.4s2.4.5 3.3 1.4c.8.8 1.4 2 1.4 3.3-.1.7-.2 1.2-.4 1.7zm-2.5 8.4H8.2c-.3 0-.6.1-.8.4s-.3.5-.2.8c.1.7.5 1.2 1 1.6.5.2 1.1.4 1.8.4s1.3-.2 1.8-.5.9-.9 1-1.6c0-.3 0-.6-.2-.8-.2-.2-.5-.3-.8-.3z"/></svg>