<?xml version="1.0" encoding="utf-8"?>
<!-- Generator: Adobe Illustrator 19.1.0, SVG Export Plug-In . SVG Version: 6.00 Build 0)  -->
<svg version="1.1" id="Calque_1" xmlns="http://www.w3.org/2000/svg" xmlns:xlink="http://www.w3.org/1999/xlink" x="0px" y="0px"
	 viewBox="0 0 20 20" enable-background="new 0 0 20 20" xml:space="preserve">
<g>
	<path fill="none" d="M13.28,3.36C12.44,2.52,11.28,2,10,2C8.72,2,7.56,2.52,6.72,3.36l0,0C5.88,4.2,5.36,5.36,5.36,6.64
		c0,0.73,0.15,1.26,0.37,1.74c0.22,0.48,0.54,0.91,0.9,1.39l0,0c0.26,0.35,0.55,0.73,0.79,1.2c0.24,0.46,0.43,1.03,0.42,1.66v0.48
		h0.73h0.04h2.59h0.95v-0.48c0-0.63,0.18-1.2,0.42-1.66c0.24-0.46,0.53-0.84,0.79-1.2c0.36-0.48,0.67-0.91,0.9-1.39
		c0.22-0.48,0.37-1,0.37-1.74C14.64,5.36,14.12,4.2,13.28,3.36L13.28,3.36z"/>
	<polygon fill="#3A434C" points="5.31,1.95 5.31,1.95 5.31,1.95 	"/>
	<polygon fill="#3A434C" points="14.69,1.95 14.69,1.95 14.69,1.95 	"/>
	<path fill="#3A434C" d="M10,0C8.17,0,6.51,0.75,5.31,1.95c-1.2,1.2-1.94,2.86-1.94,4.69c0,1.02,0.23,1.88,0.56,2.59
		c0.33,0.71,0.75,1.26,1.1,1.73l0,0c0.26,0.35,0.48,0.66,0.62,0.92c0.14,0.27,0.2,0.48,0.2,0.74v1.49c0,0.3,0.13,0.58,0.37,0.77
		c0.19,0.16,0.44,0.21,0.68,0.2v0.01h1.68h0.04h2.59h1.9v-0.01c0.24,0.01,0.49-0.05,0.68-0.2c0.23-0.19,0.37-0.47,0.37-0.77v-1.49
		c0-0.26,0.06-0.47,0.2-0.74c0.14-0.26,0.36-0.57,0.62-0.92c0.35-0.48,0.77-1.03,1.1-1.73c0.33-0.7,0.57-1.57,0.56-2.59
		c0-1.83-0.74-3.49-1.94-4.69C13.49,0.75,11.83,0,10,0z M14.26,8.37c-0.22,0.48-0.54,0.91-0.9,1.39c-0.26,0.35-0.55,0.73-0.79,1.2
		c-0.24,0.46-0.43,1.03-0.42,1.66v0.48H11.2H8.61H8.58H7.85v-0.48c0-0.63-0.18-1.2-0.42-1.66c-0.24-0.46-0.53-0.84-0.79-1.2l0,0
		c-0.36-0.48-0.67-0.91-0.9-1.39c-0.22-0.48-0.37-1-0.37-1.74c0-1.28,0.52-2.44,1.36-3.27l0,0C7.56,2.52,8.72,2,10,2
		c1.28,0,2.44,0.52,3.28,1.36l0,0c0.84,0.84,1.36,1.99,1.36,3.27C14.63,7.37,14.49,7.89,14.26,8.37z"/>
	<path fill="#3A434C" d="M11.81,16.76H8.19c-0.29,0-0.57,0.13-0.76,0.35s-0.27,0.51-0.23,0.8c0.1,0.68,0.51,1.21,1.02,1.56
		C8.72,19.81,9.34,20,10,20c0.66,0,1.28-0.19,1.79-0.53c0.5-0.34,0.91-0.88,1.02-1.56c0.04-0.29-0.04-0.58-0.23-0.8
		C12.38,16.89,12.1,16.76,11.81,16.76z"/>
</g>
</svg>
