<?xml version="1.0" encoding="utf-8"?>
<!-- Generator: Adobe Illustrator 19.2.1, SVG Export Plug-In . SVG Version: 6.00 Build 0)  -->
<svg version="1.1" id="Calque_1" xmlns="http://www.w3.org/2000/svg" xmlns:xlink="http://www.w3.org/1999/xlink" x="0px" y="0px"
	 viewBox="0 0 20 20" style="enable-background:new 0 0 20 20;" xml:space="preserve">
<style type="text/css">
	.st0{fill:#3A434C;}
</style>
<path class="st0" d="M10,0C8.2,0,6.5,0.8,5.3,2S3.4,4.8,3.4,6.6c0,1,0.2,1.9,0.6,2.6S4.7,10.5,5,11l0,0c0.3,0.4,0.5,0.7,0.6,0.9
	c0.1,0.3,0.2,0.5,0.2,0.7v1.5c0,0.3,0.1,0.6,0.4,0.8c0.2,0.2,0.4,0.2,0.7,0.2v0h1.7h0h2.6h1.9v0c0.2,0,0.5-0.1,0.7-0.2
	c0.2-0.2,0.4-0.5,0.4-0.8v-1.5c0-0.3,0.1-0.5,0.2-0.7c0.1-0.3,0.4-0.6,0.6-0.9c0.4-0.5,0.8-1,1.1-1.7s0.6-1.6,0.6-2.6
	c0-1.8-0.7-3.5-1.9-4.7C13.5,0.8,11.8,0,10,0z M14.3,8.4c-0.2,0.5-0.5,0.9-0.9,1.4c-0.3,0.4-0.6,0.7-0.8,1.2c-0.2,0.5-0.4,1-0.4,1.7
	v0.5h-1H8.6h0H7.8v-0.5c0-0.6-0.2-1.2-0.4-1.7c-0.2-0.5-0.5-0.8-0.8-1.2l0,0C6.3,9.3,6,8.9,5.7,8.4c-0.2-0.5-0.4-1-0.4-1.7
	c0-1.3,0.5-2.4,1.4-3.3l0,0C7.6,2.5,8.7,2,10,2s2.4,0.5,3.3,1.4l0,0c0.8,0.8,1.4,2,1.4,3.3C14.6,7.4,14.5,7.9,14.3,8.4z"/>
<path class="st0" d="M11.8,16.8H8.2c-0.3,0-0.6,0.1-0.8,0.4s-0.3,0.5-0.2,0.8c0.1,0.7,0.5,1.2,1,1.6C8.7,19.8,9.3,20,10,20
	s1.3-0.2,1.8-0.5c0.5-0.3,0.9-0.9,1-1.6c0-0.3,0-0.6-0.2-0.8C12.4,16.9,12.1,16.8,11.8,16.8z"/>
</svg>
