<?xml version="1.0" encoding="utf-8"?>
<!-- Generator: Adobe Illustrator 19.2.1, SVG Export Plug-In . SVG Version: 6.00 Build 0)  -->
<svg version="1.1" id="Calque_1" xmlns="http://www.w3.org/2000/svg" xmlns:xlink="http://www.w3.org/1999/xlink" x="0px" y="0px"
	 viewBox="0 0 20 20" style="enable-background:new 0 0 20 20;" xml:space="preserve">
<style type="text/css">
	.st0{fill:#3A434C;}
</style>
<g>
	<path class="st0" d="M2.3,20h15.5c1.2,0,2.3-1,2.3-2.3V4.1c0-1.2-1-2.3-2.3-2.3H14V1c0-0.6-0.4-1-1-1s-1,0.4-1,1v0.8H8V1
		c0-0.6-0.4-1-1-1S6,0.4,6,1v0.8H2.3C1,1.8,0,2.8,0,4.1v13.6C0,19,1,20,2.3,20z M2,4.1l0.1-0.2l0.2-0.1h3.8v0.8c0,0.6,0.4,1,1,1
		s1-0.4,1-1V3.8h4v0.8c0,0.6,0.4,1,1,1s1-0.4,1-1V3.8h3.7l0.2,0.1L18,4.1v13.6l-0.1,0.2L17.7,18H2.3l-0.2-0.1L2,17.7V4.1z"/>
	<circle class="st0" cx="8.5" cy="8.8" r="1"/>
	<circle class="st0" cx="5.6" cy="8.8" r="1"/>
	<circle class="st0" cx="11.5" cy="8.8" r="1"/>
	<circle class="st0" cx="14.4" cy="8.8" r="1"/>
	<circle class="st0" cx="8.5" cy="11.7" r="1"/>
	<circle class="st0" cx="5.6" cy="11.7" r="1"/>
	<circle class="st0" cx="11.5" cy="11.7" r="1"/>
	<circle class="st0" cx="14.4" cy="11.7" r="1"/>
	<circle class="st0" cx="8.5" cy="14.6" r="1"/>
	<circle class="st0" cx="5.6" cy="14.6" r="1"/>
	<circle class="st0" cx="11.5" cy="14.6" r="1"/>
	<circle class="st0" cx="14.4" cy="14.6" r="1"/>
</g>
</svg>
