<?xml version="1.0" encoding="utf-8"?>
<!-- Generator: Adobe Illustrator 19.1.0, SVG Export Plug-In . SVG Version: 6.00 Build 0)  -->
<svg version="1.1" id="Calque_1" xmlns="http://www.w3.org/2000/svg" xmlns:xlink="http://www.w3.org/1999/xlink" x="0px" y="0px"
	 viewBox="0 0 20 20" enable-background="new 0 0 20 20" xml:space="preserve">
<g>
	<path fill="none" d="M2.26,18h15.47l0.19-0.08L18,17.74V4.09l-0.08-0.19l-0.19-0.08h-3.72v0.83c0,0.55-0.45,1-1,1s-1-0.45-1-1V3.83
		H8.04v0.83c0,0.55-0.45,1-1,1s-1-0.45-1-1V3.83H2.26L2.08,3.91L2,4.09v13.64l0.08,0.19L2.26,18z M14.37,7.81
		c0.54,0,0.97,0.44,0.97,0.97s-0.44,0.97-0.97,0.97S13.4,9.32,13.4,8.79S13.84,7.81,14.37,7.81z M14.37,10.73
		c0.54,0,0.97,0.44,0.97,0.97s-0.44,0.97-0.97,0.97s-0.97-0.44-0.97-0.97S13.84,10.73,14.37,10.73z M14.37,13.65
		c0.54,0,0.97,0.44,0.97,0.97s-0.44,0.97-0.97,0.97s-0.97-0.44-0.97-0.97S13.84,13.65,14.37,13.65z M11.46,7.81
		c0.54,0,0.97,0.44,0.97,0.97s-0.44,0.97-0.97,0.97c-0.54,0-0.97-0.44-0.97-0.97S10.92,7.81,11.46,7.81z M11.46,10.73
		c0.54,0,0.97,0.44,0.97,0.97s-0.44,0.97-0.97,0.97c-0.54,0-0.97-0.44-0.97-0.97S10.92,10.73,11.46,10.73z M11.46,13.65
		c0.54,0,0.97,0.44,0.97,0.97s-0.44,0.97-0.97,0.97c-0.54,0-0.97-0.44-0.97-0.97S10.92,13.65,11.46,13.65z M8.54,7.81
		c0.54,0,0.97,0.44,0.97,0.97S9.07,9.76,8.54,9.76S7.56,9.32,7.56,8.79S8,7.81,8.54,7.81z M8.54,10.73c0.54,0,0.97,0.44,0.97,0.97
		s-0.44,0.97-0.97,0.97s-0.97-0.44-0.97-0.97S8,10.73,8.54,10.73z M8.54,13.65c0.54,0,0.97,0.44,0.97,0.97S9.07,15.6,8.54,15.6
		s-0.97-0.44-0.97-0.97S8,13.65,8.54,13.65z M5.62,7.81c0.54,0,0.97,0.44,0.97,0.97S6.16,9.76,5.62,9.76S4.64,9.32,4.64,8.79
		S5.08,7.81,5.62,7.81z M5.62,10.73c0.54,0,0.97,0.44,0.97,0.97s-0.44,0.97-0.97,0.97s-0.97-0.44-0.97-0.97S5.08,10.73,5.62,10.73z
		 M5.62,13.65c0.54,0,0.97,0.44,0.97,0.97S6.16,15.6,5.62,15.6s-0.97-0.44-0.97-0.97S5.08,13.65,5.62,13.65z"/>
	<path fill="#3A434C" d="M2.26,20h15.47c1.25,0,2.26-1.01,2.26-2.26V4.09c0-1.25-1.01-2.26-2.26-2.26h-3.72V1c0-0.55-0.45-1-1-1
		s-1,0.45-1,1v0.83H8.04V1c0-0.55-0.45-1-1-1s-1,0.45-1,1v0.83H2.26C1.01,1.83,0,2.84,0,4.09v13.64C0,18.99,1.01,20,2.26,20z
		 M2,4.09l0.08-0.19l0.19-0.08h3.78v0.83c0,0.55,0.45,1,1,1s1-0.45,1-1V3.83h3.97v0.83c0,0.55,0.45,1,1,1s1-0.45,1-1V3.83h3.72
		l0.19,0.08L18,4.09v13.64l-0.08,0.19L17.74,18H2.26l-0.19-0.08L2,17.74V4.09z"/>
	<circle fill="#3A434C" cx="8.54" cy="8.79" r="0.97"/>
	<circle fill="#3A434C" cx="5.62" cy="8.79" r="0.97"/>
	<circle fill="#3A434C" cx="11.46" cy="8.79" r="0.97"/>
	<circle fill="#3A434C" cx="14.37" cy="8.79" r="0.97"/>
	<circle fill="#3A434C" cx="8.54" cy="11.71" r="0.97"/>
	<circle fill="#3A434C" cx="5.62" cy="11.71" r="0.97"/>
	<circle fill="#3A434C" cx="11.46" cy="11.71" r="0.97"/>
	<circle fill="#3A434C" cx="14.37" cy="11.71" r="0.97"/>
	<circle fill="#3A434C" cx="8.54" cy="14.62" r="0.97"/>
	<circle fill="#3A434C" cx="5.62" cy="14.62" r="0.97"/>
	<circle fill="#3A434C" cx="11.46" cy="14.62" r="0.97"/>
	<circle fill="#3A434C" cx="14.37" cy="14.62" r="0.97"/>
</g>
</svg>
