<svg viewBox="0 0 20 20"><path d="M2.3 20h15.5c1.2 0 2.3-1 2.3-2.3V4.1c0-1.2-1-2.3-2.3-2.3H14V1c0-.6-.4-1-1-1s-1 .4-1 1v.8H8V1c0-.6-.4-1-1-1S6 .4 6 1v.8H2.3C1 1.8 0 2.8 0 4.1v13.6C0 19 1 20 2.3 20zM2 4.1l.1-.2.2-.1h3.8v.8c0 .6.4 1 1 1s1-.4 1-1v-.8h4v.8c0 .6.4 1 1 1s1-.4 1-1v-.8h3.7l.2.1v13.8l-.1.2-.2.1H2.3l-.2-.1-.1-.2V4.1z"/><circle cx="8.5" cy="8.8" r="1"/><circle cx="5.6" cy="8.8" r="1"/><circle cx="11.5" cy="8.8" r="1"/><circle cx="14.4" cy="8.8" r="1"/><circle cx="8.5" cy="11.7" r="1"/><circle cx="5.6" cy="11.7" r="1"/><circle cx="11.5" cy="11.7" r="1"/><circle cx="14.4" cy="11.7" r="1"/><circle cx="8.5" cy="14.6" r="1"/><circle cx="5.6" cy="14.6" r="1"/><circle cx="11.5" cy="14.6" r="1"/><circle cx="14.4" cy="14.6" r="1"/></svg>