<?xml version="1.0" encoding="UTF-8" standalone="no"?>
<svg width="20px" height="20px" viewBox="0 0 20 20" version="1.1" xmlns="http://www.w3.org/2000/svg" xmlns:xlink="http://www.w3.org/1999/xlink" xmlns:sketch="http://www.bohemiancoding.com/sketch/ns">
    <!-- Generator: Sketch 3.4.2 (15857) - http://www.bohemiancoding.com/sketch -->
    <title>calendar</title>
    <desc>Created with Sketch.</desc>
    <defs></defs>
    <g id="Page-1" stroke="none" stroke-width="1" fill="none" fill-rule="evenodd" sketch:type="MSPage">
        <g id="calendar" sketch:type="MSArtboardGroup" transform="translate(-6.000000, -6.000000)" fill="#3A434C">
            <g sketch:type="MSLayerGroup" transform="translate(6.000000, 6.000000)">
                <path d="M17.5204562,2.09114631 L13.9970245,2.09114631 L13.9970245,0.849566114 C13.9970245,0.37987742 13.6077362,0 13.1291842,0 C12.6493925,0 12.2601041,0.37987742 12.2601041,0.849566114 L12.2601041,2.09114631 L7.79692537,2.09114631 L7.79692537,0.849566114 C7.79692537,0.37987742 7.40887677,0 6.93032482,0 C6.4505331,0 6.06124473,0.37987742 6.06124473,0.849566114 L6.06124473,2.09114631 L2.47954376,2.09114631 C1.10959583,2.09478731 0.00247954376,3.17859093 0,4.51847806 L0,17.5726682 C0.00247954376,18.913769 1.10959583,19.9975727 2.47954376,20 L17.5204562,20 C18.8891644,19.9975727 19.9962807,18.913769 20,17.5726682 L20,4.51847806 C19.9962807,3.17859093 18.8891644,2.09478731 17.5204562,2.09114631 L17.5204562,2.09114631 Z M18.2630796,17.5726682 C18.2630796,17.9671097 17.9233821,18.3008678 17.5204562,18.3008678 L2.47954376,18.3008678 C2.07537813,18.3008678 1.73568063,17.9671097 1.73568063,17.5726682 L1.73568063,4.51847806 C1.73568063,4.12403665 2.07537813,3.7914922 2.47954376,3.79027854 L6.06124473,3.79027854 L6.06124473,4.5706657 C6.06124473,5.03914072 6.4505331,5.42023181 6.93032482,5.42023181 C7.40887677,5.42023181 7.79692537,5.03914072 7.79692537,4.5706657 L7.79692537,3.79027854 L12.2601041,3.79027854 L12.2601041,4.5706657 C12.2601041,5.03914072 12.6493925,5.42023181 13.1291842,5.42023181 C13.6077362,5.42023181 13.9970245,5.03914072 13.9970245,4.5706657 L13.9970245,3.79027854 L17.5204562,3.79027854 C17.9233821,3.7914922 18.2630796,4.12403665 18.2630796,4.51847806 L18.2630796,17.5726682 L18.2630796,17.5726682 Z" id="Fill-1" sketch:type="MSShapeGroup"></path>
                <path d="M14.5,8 C13.9466667,8 13.5,8.448 13.5,9 C13.5,9.55333333 13.9466667,10 14.5,10 C15.052,10 15.5,9.55333333 15.5,9 C15.5,8.448 15.052,8 14.5,8" id="Fill-5" sketch:type="MSShapeGroup"></path>
                <path d="M14.5,11 C13.9466667,11 13.5,11.4466667 13.5,12 C13.5,12.552 13.9466667,13 14.5,13 C15.052,13 15.5,12.552 15.5,12 C15.5,11.4466667 15.052,11 14.5,11" id="Fill-9" sketch:type="MSShapeGroup"></path>
                <path d="M14.5,14 C13.9466667,14 13.5,14.448 13.5,15 C13.5,15.5533333 13.9466667,16 14.5,16 C15.052,16 15.5,15.5533333 15.5,15 C15.5,14.448 15.052,14 14.5,14" id="Fill-13" sketch:type="MSShapeGroup"></path>
                <path d="M11.5,8 C10.9466667,8 10.5,8.448 10.5,9 C10.5,9.55333333 10.9466667,10 11.5,10 C12.052,10 12.5,9.55333333 12.5,9 C12.5,8.448 12.052,8 11.5,8" id="Fill-4" sketch:type="MSShapeGroup"></path>
                <path d="M11.5,11 C10.9466667,11 10.5,11.4466667 10.5,12 C10.5,12.552 10.9466667,13 11.5,13 C12.052,13 12.5,12.552 12.5,12 C12.5,11.4466667 12.052,11 11.5,11" id="Fill-8" sketch:type="MSShapeGroup"></path>
                <path d="M11.5,14 C10.9466667,14 10.5,14.448 10.5,15 C10.5,15.5533333 10.9466667,16 11.5,16 C12.052,16 12.5,15.5533333 12.5,15 C12.5,14.448 12.052,14 11.5,14" id="Fill-12" sketch:type="MSShapeGroup"></path>
                <path d="M8.5,8 C7.94666667,8 7.5,8.448 7.5,9 C7.5,9.55333333 7.94666667,10 8.5,10 C9.052,10 9.5,9.55333333 9.5,9 C9.5,8.448 9.052,8 8.5,8" id="Fill-3" sketch:type="MSShapeGroup"></path>
                <path d="M8.5,11 C7.94666667,11 7.5,11.4466667 7.5,12 C7.5,12.552 7.94666667,13 8.5,13 C9.052,13 9.5,12.552 9.5,12 C9.5,11.4466667 9.052,11 8.5,11" id="Fill-7" sketch:type="MSShapeGroup"></path>
                <path d="M8.5,14 C7.94666667,14 7.5,14.448 7.5,15 C7.5,15.5533333 7.94666667,16 8.5,16 C9.052,16 9.5,15.5533333 9.5,15 C9.5,14.448 9.052,14 8.5,14" id="Fill-11" sketch:type="MSShapeGroup"></path>
                <path d="M5.5,8 C4.94666667,8 4.5,8.448 4.5,9 C4.5,9.55333333 4.94666667,10 5.5,10 C6.052,10 6.5,9.55333333 6.5,9 C6.5,8.448 6.052,8 5.5,8" id="Fill-2" sketch:type="MSShapeGroup"></path>
                <path d="M5.5,11 C4.94666667,11 4.5,11.4466667 4.5,12 C4.5,12.552 4.94666667,13 5.5,13 C6.052,13 6.5,12.552 6.5,12 C6.5,11.4466667 6.052,11 5.5,11" id="Fill-6" sketch:type="MSShapeGroup"></path>
                <path d="M5.5,14 C4.94666667,14 4.5,14.448 4.5,15 C4.5,15.5533333 4.94666667,16 5.5,16 C6.052,16 6.5,15.5533333 6.5,15 C6.5,14.448 6.052,14 5.5,14" id="Fill-10" sketch:type="MSShapeGroup"></path>
            </g>
        </g>
    </g>
</svg>