<?xml version="1.0" encoding="utf-8"?>
<!-- Generator: Adobe Illustrator 20.1.0, SVG Export Plug-In . SVG Version: 6.00 Build 0)  -->
<svg version="1.1" id="Calque_1" xmlns="http://www.w3.org/2000/svg" xmlns:xlink="http://www.w3.org/1999/xlink" x="0px" y="0px"
	 viewBox="0 0 20 20" style="enable-background:new 0 0 20 20;" xml:space="preserve">
<style type="text/css">
	.st0{fill:#3A434C;}
</style>
<path class="st0" d="M19.5,5c-0.3-0.2-0.7-0.2-1,0l-5.4,3.5V6.2c0-0.8-0.6-1.4-1.4-1.4H1.4C0.6,4.8,0,5.5,0,6.2v7.5
	c0,0.8,0.6,1.4,1.4,1.4h10.3c0.8,0,1.4-0.6,1.4-1.4v-2.4l5.4,3.6c0.3,0.2,0.7,0.2,1,0.1c0.3-0.2,0.5-0.5,0.5-0.9V5.9
	C20,5.5,19.8,5.2,19.5,5z M11.1,6.8v6.3H2V6.8H11.1z M14.5,10L18,7.7v4.6L14.5,10z"/>
</svg>
