<?xml version="1.0" encoding="UTF-8" standalone="no"?>
<svg width="20px" height="20px" viewBox="0 0 20 20" version="1.1" xmlns="http://www.w3.org/2000/svg" xmlns:xlink="http://www.w3.org/1999/xlink" xmlns:sketch="http://www.bohemiancoding.com/sketch/ns">
    <!-- Generator: Sketch 3.4.2 (15857) - http://www.bohemiancoding.com/sketch -->
    <title>actionItem-checked</title>
    <desc>Created with Sketch.</desc>
    <defs></defs>
    <g id="Page-1" stroke="none" stroke-width="1" fill="none" fill-rule="evenodd" sketch:type="MSPage">
        <g id="actionItem-checked" sketch:type="MSArtboardGroup" transform="translate(-6.000000, -6.000000)" fill="#3A434C">
            <path d="M8,8.99420208 L8,8.99420208 L8,23.0057979 C8,23.5533575 8.44635804,24 8.99420208,24 L23.0057979,24 C23.5533575,24 24,23.553642 24,23.0057979 L24,8.99420208 C24,8.44664245 23.553642,8 23.0057979,8 L8.99420208,8 C8.44664245,8 8,8.44635804 8,8.99420208 L8,8.99420208 Z M6,8.99420208 C6,7.34054993 7.34331197,6 8.99420208,6 L23.0057979,6 C24.6594501,6 26,7.34331197 26,8.99420208 L26,23.0057979 C26,24.6594501 24.656688,26 23.0057979,26 L8.99420208,26 C7.34054993,26 6,24.656688 6,23.0057979 L6,8.99420208 L6,8.99420208 Z M14.3619236,18.7401933 C14.7242122,19.0918542 15.296855,19.0857763 15.6518166,18.7265027 L19.7287759,14.6000174 C20.0897348,14.2346737 20.0905054,13.6415523 19.7304972,13.2752438 C19.3704889,12.9089353 18.7860295,12.9081533 18.4250706,13.273497 L15.0043017,16.7711785 L13.5611185,15.3703308 C13.1927089,15.0127284 12.6083935,15.0259156 12.2560136,15.3997852 C11.9036336,15.7736548 11.9166282,16.3666301 12.2850378,16.7242325" sketch:type="MSShapeGroup"></path>
        </g>
    </g>
</svg>