<?xml version="1.0" encoding="utf-8"?>
<svg version="1.1" xmlns="http://www.w3.org/2000/svg" xmlns:xlink="http://www.w3.org/1999/xlink" x="0px" y="0px" viewBox="0 0 20 20"
	 style="enable-background:new 0 0 20 20;" xml:space="preserve">
<path id="checkbox" d="M15.7,20H4.3C2,20,0,18,0,15.7V4.3C0,2,2,0,4.3,0h11.3C18,0,20,2,20,4.3v11.3
	C20,18,18,20,15.7,20z M4.3,1.7c-1.4,0-2.6,1.2-2.6,2.6v11.3c0,1.4,1.2,2.6,2.6,2.6h11.3c1.4,0,2.6-1.2,2.6-2.6V4.3
	c0-1.4-1.2-2.6-2.6-2.6C15.6,1.7,4.3,1.7,4.3,1.7z"/>
</svg>
