<?xml version="1.0" encoding="utf-8"?>
<!-- Generator: Adobe Illustrator 19.1.0, SVG Export Plug-In . SVG Version: 6.00 Build 0)  -->
<svg version="1.1" id="Calque_1" xmlns="http://www.w3.org/2000/svg" xmlns:xlink="http://www.w3.org/1999/xlink" x="0px" y="0px"
	 viewBox="0 0 20 20" enable-background="new 0 0 20 20" xml:space="preserve">
<g>
	<path fill="none" d="M18.2,1H1.8C1.36,1,1,1.36,1,1.8v16.4C1,18.64,1.36,19,1.8,19h16.4c0.44,0,0.8-0.36,0.8-0.8V1.8
		C19,1.36,18.64,1,18.2,1z M14.21,8.45l-4.46,4.5c-0.38,0.39-1.01,0.39-1.4,0.02l-2.54-2.41c-0.4-0.38-0.42-1.01-0.04-1.41
		s1.01-0.42,1.41-0.04l1.83,1.74l3.77-3.81c0.39-0.39,1.02-0.39,1.41-0.01C14.6,7.43,14.6,8.06,14.21,8.45z"/>
	<path fill="#3A434C" d="M18.2,0H1.8C0.81,0,0,0.81,0,1.8v16.4C0,19.19,0.81,20,1.8,20h16.4c0.99,0,1.8-0.81,1.8-1.8V1.8
		C20,0.81,19.19,0,18.2,0z M19,18.2c0,0.44-0.36,0.8-0.8,0.8H1.8C1.36,19,1,18.64,1,18.2V1.8C1,1.36,1.36,1,1.8,1h16.4
		C18.64,1,19,1.36,19,1.8V18.2z"/>
	<path fill="#3A434C" d="M12.79,7.04l-3.77,3.81L7.19,9.12c-0.4-0.38-1.03-0.36-1.41,0.04s-0.36,1.03,0.04,1.41l2.54,2.41
		c0.39,0.37,1.02,0.36,1.4-0.02l4.46-4.5c0.39-0.39,0.39-1.03-0.01-1.41C13.81,6.65,13.18,6.65,12.79,7.04z"/>
</g>
</svg>
