<?xml version="1.0" encoding="utf-8"?>
<!-- Generator: Adobe Illustrator 19.2.1, SVG Export Plug-In . SVG Version: 6.00 Build 0)  -->
<svg version="1.1" id="Calque_1" xmlns="http://www.w3.org/2000/svg" xmlns:xlink="http://www.w3.org/1999/xlink" x="0px" y="0px"
	 viewBox="0 0 20 20" style="enable-background:new 0 0 20 20;" xml:space="preserve">
<style type="text/css">
	.st0{fill:#3A434C;}
</style>
<g>
	<path class="st0" d="M10,20c5.5,0,10-4.5,10-10S15.5,0,10,0S0,4.5,0,10S4.5,20,10,20z M3.6,3.6C5.3,2,7.5,1,10,1s4.7,1,6.4,2.6
		C18,5.3,19,7.5,19,10s-1,4.7-2.6,6.4C14.7,18,12.5,19,10,19s-4.7-1-6.4-2.6C2,14.7,1,12.5,1,10S2,5.3,3.6,3.6z"/>
	<circle class="st0" cx="10" cy="10" r="3"/>
</g>
</svg>
