<?xml version="1.0" encoding="utf-8"?>
<!-- Generator: Adobe Illustrator 19.1.0, SVG Export Plug-In . SVG Version: 6.00 Build 0)  -->
<svg version="1.1" id="Calque_1" xmlns="http://www.w3.org/2000/svg" xmlns:xlink="http://www.w3.org/1999/xlink" x="0px" y="0px"
	 viewBox="0 0 20 20" enable-background="new 0 0 20 20" xml:space="preserve">
<g>
	<path fill="none" d="M10,19c2.49,0,4.73-1.01,6.36-2.64C17.99,14.73,19,12.49,19,10c0-2.49-1.01-4.73-2.64-6.36
		C14.73,2.01,12.49,1,10,1C7.51,1,5.27,2.01,3.64,3.64C2.01,5.27,1,7.51,1,10c0,2.49,1.01,4.73,2.64,6.36C5.27,17.99,7.51,19,10,19z
		 M10,7c1.66,0,3,1.34,3,3s-1.34,3-3,3s-3-1.34-3-3S8.34,7,10,7z"/>
	<path fill="#3A434C" d="M10,20c5.52,0,10-4.48,10-10c0-5.52-4.48-10-10-10C4.48,0,0,4.48,0,10C0,15.52,4.48,20,10,20z M3.64,3.64
		C5.27,2.01,7.51,1,10,1c2.49,0,4.73,1.01,6.36,2.64C17.99,5.27,19,7.51,19,10c0,2.49-1.01,4.73-2.64,6.36
		C14.73,17.99,12.49,19,10,19c-2.49,0-4.73-1.01-6.36-2.64C2.01,14.73,1,12.49,1,10C1,7.51,2.01,5.27,3.64,3.64z"/>
	<circle fill="#3A434C" cx="10" cy="10" r="3"/>
</g>
</svg>
