<?xml version="1.0" encoding="utf-8"?>
<svg version="1.1" xmlns="http://www.w3.org/2000/svg" xmlns:xlink="http://www.w3.org/1999/xlink" x="0px" y="0px" viewBox="0 0 20 20"
	 style="enable-background:new 0 0 20 20;" xml:space="preserve">
<path d="M9.5,13.1c0.4-0.5,0.9-0.9,1.3-1.4c1.1-1.1,2.2-2.3,3.2-3.4
	c0.3-0.3,0.6-0.6,0.9-0.9C15.5,6.7,14.6,6,14,6.5c-0.9,0.9-1.7,1.8-2.6,2.7c-0.9,0.9-1.8,1.9-2.7,2.8C7.8,11.1,6.9,10.1,6,9.3
	C5.6,9,5,9.1,4.9,9.6c0,0.3,0.2,0.5,0.3,0.7c0.6,0.6,1.1,1.1,1.6,1.6c0.5,0.4,0.9,0.9,1.4,1.3C8.7,13.9,9.1,13.4,9.5,13.1z"/>
<path d="M15.7,20H4.3C2,20,0,18,0,15.7V4.3C0,2,2,0,4.3,0h11.3C18,0,20,2,20,4.3v11.3C20,18,18,20,15.7,20z M4.3,1.7
	c-1.4,0-2.6,1.2-2.6,2.6v11.3c0,1.4,1.2,2.6,2.6,2.6h11.3c1.4,0,2.6-1.2,2.6-2.6V4.3c0-1.4-1.2-2.6-2.6-2.6
	C15.6,1.7,4.3,1.7,4.3,1.7z"/>
</svg>
