<?xml version="1.0" encoding="utf-8"?>
<svg version="1.1" xmlns="http://www.w3.org/2000/svg" xmlns:xlink="http://www.w3.org/1999/xlink" x="0px" y="0px"
	 viewBox="0 0 32 32" style="enable-background:new 0 0 32 32;" xml:space="preserve">
<style type="text/css">
	.st0{fill:#3A434C;}
</style>
<path id="chrome" class="st0" d="M16,0c5.7,0,11.4,3,14.3,8.7c-3.6,0-9.3,0-12.4,0c-2.2,0-3.7-0.1-5.2,0.8c-1.8,1-3.2,2.8-3.7,4.9
	L3.9,5.6C7.1,1.8,11.5,0,16,0z M21.3,16c0,2.9-2.4,5.3-5.3,5.3c-2.9,0-5.3-2.4-5.3-5.3c0-2.9,2.4-5.3,5.3-5.3
	C18.9,10.7,21.3,13.1,21.3,16z M0,15.9c0-3,0.8-6,2.6-8.7c1.8,3.1,5.6,9.8,7.1,12.3c1.9,3.3,5.4,4.3,8.4,3.4l-5.2,8.7
	C5,30.1,0,23.2,0,15.9z M15,32c2-3.3,6-10.1,7.3-12.3c1.7-2.9,1.1-6.6-1.3-9h10.1c0.6,1.8,0.9,3.6,0.9,5.3C32,24.8,24.6,32.6,15,32z
	"/>
</svg>
