<?xml version="1.0" encoding="utf-8"?>
<!-- Generator: Adobe Illustrator 19.1.0, SVG Export Plug-In . SVG Version: 6.00 Build 0)  -->
<svg version="1.1" id="Calque_1" xmlns="http://www.w3.org/2000/svg" xmlns:xlink="http://www.w3.org/1999/xlink" x="0px" y="0px"
	 viewBox="0 0 10.7 20" enable-background="new 0 0 10.7 20" xml:space="preserve">
<path fill="#3A434C" d="M10.7,8.52v-3.9c0-1.33-0.66-2.52-1.64-3.33C8.08,0.48,6.77,0,5.35,0C3.93,0,2.62,0.48,1.64,1.29
	C0.66,2.1,0,3.29,0,4.62v10.76c0,0.55,0.45,1,1,1c0.55,0,1-0.45,1-1V4.62c0-0.66,0.32-1.28,0.92-1.79C3.51,2.33,4.38,2,5.35,2
	c0.97,0,1.84,0.33,2.43,0.83c0.6,0.5,0.92,1.13,0.92,1.79v10.76c0,0,0,0,0,0.01v1.02c0,0.4-0.18,0.78-0.52,1.09
	C7.85,17.8,7.36,18,6.81,18h0c-0.55,0-1.04-0.2-1.37-0.51c-0.34-0.31-0.52-0.68-0.52-1.09v-1.15V8.53V7.28
	c0-0.15,0.06-0.28,0.15-0.37c0.09-0.09,0.19-0.14,0.3-0.14c0.11,0,0.21,0.04,0.3,0.14C5.76,7,5.82,7.13,5.82,7.28v7.97
	c0,0.55,0.45,1,1,1c0.55,0,1-0.45,1-1V7.28c0-0.68-0.27-1.3-0.7-1.76C6.68,5.07,6.06,4.77,5.37,4.77c-0.69,0-1.31,0.3-1.75,0.75
	c-0.44,0.45-0.7,1.08-0.7,1.76v1.24v6.73v1.15c0,1.02,0.47,1.94,1.18,2.58C4.81,19.62,5.77,20,6.81,20h0c1.04,0,2-0.38,2.71-1.02
	c0.71-0.63,1.18-1.55,1.18-2.58L10.7,8.52C10.7,8.52,10.7,8.52,10.7,8.52z"/>
</svg>
