<svg viewBox="0 0 10.7 20"><path d="M10.7 8.5V4.6c0-1.3-.7-2.5-1.6-3.3S6.8 0 5.3 0 2.6.5 1.6 1.3 0 3.3 0 4.6v10.8c0 .6.4 1 1 1s1-.4 1-1V4.6c0-.6.3-1.3.9-1.8.6-.5 1.5-.8 2.4-.8s1.8.3 2.4.8c.7.5 1 1.2 1 1.8v11.8c0 .4-.2.8-.5 1.1-.4.3-.8.5-1.4.5s-1-.2-1.4-.5c-.3-.3-.5-.7-.5-1.1V7.3c0-.2.1-.3.2-.4.1-.1.2-.1.3-.1s.2 0 .3.1c.1.1.1.2.1.4v8c0 .6.4 1 1 1s1-.4 1-1v-8c0-.7-.3-1.3-.7-1.8-.4-.4-1-.7-1.7-.7s-1.3.3-1.8.7-.7 1.1-.7 1.8v9.1c0 1 .5 1.9 1.2 2.6.7.7 1.7 1 2.7 1 1 0 2-.4 2.7-1 .7-.6 1.2-1.5 1.2-2.6V8.5z"/></svg>