<?xml version="1.0" encoding="utf-8"?>
<!-- Generator: Adobe Illustrator 19.1.0, SVG Export Plug-In . SVG Version: 6.00 Build 0)  -->
<svg version="1.1" id="Calque_1" xmlns="http://www.w3.org/2000/svg" xmlns:xlink="http://www.w3.org/1999/xlink" x="0px" y="0px"
	 viewBox="0 0 20 20" enable-background="new 0 0 20 20" xml:space="preserve">
<g>
	<path fill="none" d="M10,2C7.79,2,5.79,2.89,4.34,4.34C2.89,5.79,2,7.79,2,10c0,2.21,0.89,4.21,2.34,5.66C5.79,17.11,7.79,18,10,18
		c2.21,0,4.21-0.89,5.66-2.34C17.11,14.21,18,12.21,18,10c0-2.21-0.89-4.21-2.34-5.66C14.21,2.89,12.21,2,10,2z M12.84,9.33
		l-2.57,2.71c-0.18,0.19-0.43,0.31-0.7,0.31c-0.27,0.01-0.52-0.09-0.72-0.28l-1.66-1.59v0c-0.4-0.38-0.41-1.01-0.03-1.41
		c0.38-0.4,1.01-0.41,1.41-0.03l0.94,0.9l1.88-1.98c0.38-0.4,1.01-0.42,1.41-0.04C13.21,8.3,13.22,8.93,12.84,9.33z"/>
	<path fill="#3A434C" d="M10,0C4.48,0,0,4.48,0,10c0,5.52,4.48,10,10,10c5.52,0,10-4.48,10-10C20,4.48,15.52,0,10,0z M15.66,15.66
		C14.21,17.11,12.21,18,10,18c-2.21,0-4.21-0.89-5.66-2.34C2.89,14.21,2,12.21,2,10c0-2.21,0.89-4.21,2.34-5.66
		C5.79,2.89,7.79,2,10,2c2.21,0,4.21,0.89,5.66,2.34C17.11,5.79,18,7.79,18,10C18,12.21,17.11,14.21,15.66,15.66z"/>
	<path fill="#3A434C" d="M11.39,7.96L9.51,9.94l-0.94-0.9c-0.4-0.38-1.03-0.37-1.41,0.03c-0.38,0.4-0.37,1.03,0.03,1.41v0l1.66,1.59
		c0.19,0.18,0.45,0.28,0.72,0.28c0.27-0.01,0.52-0.12,0.7-0.31l2.57-2.71c0.38-0.4,0.36-1.03-0.04-1.41
		C12.4,7.54,11.77,7.55,11.39,7.96z"/>
</g>
</svg>
