<?xml version="1.0" encoding="UTF-8" standalone="no"?>
<svg width="20px" height="20px" viewBox="0 0 20 20" version="1.1" xmlns="http://www.w3.org/2000/svg" xmlns:xlink="http://www.w3.org/1999/xlink" xmlns:sketch="http://www.bohemiancoding.com/sketch/ns">
    <!-- Generator: Sketch 3.4.2 (15857) - http://www.bohemiancoding.com/sketch -->
    <title>clock</title>
    <desc>Created with Sketch.</desc>
    <defs></defs>
    <g id="Page-1" stroke="none" stroke-width="1" fill="none" fill-rule="evenodd" sketch:type="MSPage">
        <g id="clock" sketch:type="MSArtboardGroup" transform="translate(-6.000000, -6.000000)" fill="#3A434C">
            <g sketch:type="MSLayerGroup" transform="translate(6.000000, 5.000000)">
                <path d="M17.9495216,10.9400364 C17.9495216,15.3282594 14.3928253,18.8849557 10.0046023,18.8849557 C5.61607889,18.8849557 2.05834961,15.327959 2.05834961,10.9400364 C2.05834961,6.55211389 5.61607889,2.99511719 10.0046023,2.99511719 C14.3928253,2.99511719 17.9495216,6.55181347 17.9495216,10.9400364 L17.9495216,10.9400364 Z M19.9495216,10.9400364 C19.9495216,5.44724397 15.4973948,0.995117188 10.0046023,0.995117188 C4.51160157,0.995117188 0.0583496094,5.44745219 0.0583496094,10.9400364 C0.0583496094,16.4326207 4.51160157,20.8849557 10.0046023,20.8849557 C15.4973948,20.8849557 19.9495216,16.4328289 19.9495216,10.9400364 L19.9495216,10.9400364 Z" id="Shape" sketch:type="MSShapeGroup"></path>
                <path d="M10.2807539,12.9752382 L12.8347539,10.2772382 C13.2137539,9.8762382 13.1967539,9.2432382 12.7957539,8.8642382 C12.3947539,8.4842382 11.7617539,8.5012382 11.3817539,8.9022382 L9.51975391,10.8702382 C9.20275391,10.5672382 8.59075391,9.9822382 8.59075391,9.9822382 C8.19175391,9.6002382 7.55875391,9.6142382 7.17675391,10.0142382 C6.79575391,10.4132382 6.80975391,11.0462382 7.20875391,11.4272382 L8.86375391,13.0102382 C9.26375391,13.3932382 9.89975391,13.3782382 10.2807539,12.9752382" id="Fill-1" sketch:type="MSShapeGroup"></path>
            </g>
        </g>
    </g>
</svg>