<?xml version="1.0" encoding="utf-8"?>
<!-- Generator: Adobe Illustrator 19.2.1, SVG Export Plug-In . SVG Version: 6.00 Build 0)  -->
<svg version="1.1" id="Calque_1" xmlns="http://www.w3.org/2000/svg" xmlns:xlink="http://www.w3.org/1999/xlink" x="0px" y="0px"
	 viewBox="0 0 20 20" style="enable-background:new 0 0 20 20;" xml:space="preserve">
<style type="text/css">
	.st0{fill:#3A434C;}
</style>
<path class="st0" d="M10,0C4.5,0,0,4.5,0,10s4.5,10,10,10s10-4.5,10-10S15.5,0,10,0z M15.7,15.7C14.2,17.1,12.2,18,10,18
	s-4.2-0.9-5.7-2.3S2,12.2,2,10s0.9-4.2,2.3-5.7S7.8,2,10,2s4.2,0.9,5.7,2.3S18,7.8,18,10S17.1,14.2,15.7,15.7z"/>
<path class="st0" d="M11.4,8l-1.9,2L8.6,9c-0.4-0.4-1-0.4-1.4,0s-0.4,1,0,1.4l0,0l1.7,1.6c0.2,0.2,0.4,0.3,0.7,0.3
	c0.3,0,0.5-0.1,0.7-0.3l2.6-2.7c0.4-0.4,0.4-1,0-1.4C12.4,7.5,11.8,7.6,11.4,8z"/>
</svg>
