<svg viewBox="0 0 20 20"><path d="M3.7 14.7L2 16.5c-.4.4-.4 1 0 1.4s1 .4 1.4 0l2.1-2.1c1.4.6 2.9 1 4.5 1 4.6 0 8.4-2.8 10-6.8-.8-2-2.1-3.6-3.8-4.8l1.6-1.6c.4-.4.4-1 0-1.4s-1-.4-1.4 0l-2 2c-1.3-.6-2.8-1-4.4-1C5.4 3.2 1.6 6 0 10c.8 1.9 2.1 3.5 3.7 4.7zm14.1-4.8c-1.5 2.9-4.5 4.8-7.8 4.8-1 0-2-.2-2.9-.5l1-1c.6.3 1.2.5 1.9.5 2.1 0 3.8-1.7 3.8-3.8 0-.7-.2-1.3-.5-1.9l1.5-1.5c1.2.9 2.3 2 3 3.4zm-9.6 0c0-1 .8-1.8 1.8-1.8h.3l-2.1 2.1v-.3zm3.6 0c0 1-.8 1.8-1.8 1.8-.1 0-.3 0-.4-.1l2.1-2.1c.1.2.1.3.1.4zM10 5.1c1 0 1.9.2 2.9.5l-1 1c-.5-.3-1.2-.5-1.8-.5-2.1 0-3.8 1.7-3.8 3.8 0 .7.2 1.3.5 1.8l-1.5 1.5c-1.2-.8-2.3-2-3-3.4C3.7 7 6.7 5.1 10 5.1z"/></svg>