<?xml version="1.0" encoding="utf-8"?>
<!-- Generator: Adobe Illustrator 19.2.0, SVG Export Plug-In . SVG Version: 6.00 Build 0)  -->
<svg version="1.1" id="Calque_1" xmlns:sketch="http://www.bohemiancoding.com/sketch/ns"
	 xmlns="http://www.w3.org/2000/svg" xmlns:xlink="http://www.w3.org/1999/xlink" x="0px" y="0px" viewBox="0 0 20 20"
	 style="enable-background:new 0 0 20 20;" xml:space="preserve">
<style type="text/css">
	.st0{fill:#3A434C;}
</style>
<g id="closedEye" transform="translate(-6.000000, -8.000000)" sketch:type="MSArtboardGroup">
	<path sketch:type="MSShapeGroup" class="st0" d="M16,23.3c-1.3,0-2.5-0.3-3.6-0.7l1.7-1.7c0.6,0.4,1.2,0.6,2,0.6
		c1.9,0,3.5-1.6,3.5-3.5c0-0.7-0.2-1.4-0.6-2l2-2c1.5,0.9,2.7,2.3,3.5,3.9C22.9,21.2,19.6,23.3,16,23.3 M13.9,17.9
		c0-1.1,0.9-2.1,2.1-2.1c0.3,0,0.5,0.1,0.8,0.2l-2.7,2.7C14,18.5,13.9,18.2,13.9,17.9 M18.1,17.9c0,1.1-0.9,2.1-2.1,2.1
		c-0.3,0-0.6-0.1-0.9-0.2l2.7-2.7C18,17.3,18.1,17.6,18.1,17.9 M7.6,17.9c1.5-3.3,4.8-5.3,8.4-5.3c1.2,0,2.4,0.3,3.5,0.7L17.9,15
		c-0.5-0.3-1.2-0.6-1.9-0.6c-1.9,0-3.5,1.6-3.5,3.5c0,0.7,0.2,1.3,0.6,1.9l-2,2C9.6,20.9,8.4,19.6,7.6,17.9 M22,12.9l1.6-1.6
		c0.3-0.3,0.3-0.8,0-1c-0.3-0.3-0.8-0.3-1,0l-1.9,1.9c-1.4-0.7-3-1.1-4.7-1.1c-4.5,0-8.4,2.8-10,6.8c0.8,2,2.2,3.7,4,4.9l-1.8,1.8
		c-0.3,0.3-0.3,0.8,0,1c0.3,0.3,0.8,0.3,1,0l2.1-2.1c1.4,0.7,3,1.1,4.7,1.1c4.5,0,8.4-2.8,10-6.8C25.2,15.9,23.8,14.2,22,12.9"/>
</g>
</svg>
