<?xml version="1.0" encoding="utf-8"?>
<!-- Generator: Adobe Illustrator 19.2.1, SVG Export Plug-In . SVG Version: 6.00 Build 0)  -->
<svg version="1.1" id="Calque_1" xmlns="http://www.w3.org/2000/svg" xmlns:xlink="http://www.w3.org/1999/xlink" x="0px" y="0px"
	 viewBox="0 0 20 20" style="enable-background:new 0 0 20 20;" xml:space="preserve">
<style type="text/css">
	.st0{fill:#3A434C;}
</style>
<path class="st0" d="M3.7,14.7L2,16.5c-0.4,0.4-0.4,1,0,1.4s1,0.4,1.4,0l2.1-2.1c1.4,0.6,2.9,1,4.5,1c4.6,0,8.4-2.8,10-6.8
	c-0.8-2-2.1-3.6-3.8-4.8l1.6-1.6c0.4-0.4,0.4-1,0-1.4s-1-0.4-1.4,0l-2,2c-1.3-0.6-2.8-1-4.4-1c-4.6,0-8.4,2.8-10,6.8
	C0.8,11.9,2.1,13.5,3.7,14.7z M17.8,9.9c-1.5,2.9-4.5,4.8-7.8,4.8c-1,0-2-0.2-2.9-0.5l1-1c0.6,0.3,1.2,0.5,1.9,0.5
	c2.1,0,3.8-1.7,3.8-3.8c0-0.7-0.2-1.3-0.5-1.9l1.5-1.5C16,7.4,17.1,8.5,17.8,9.9z M8.2,9.9c0-1,0.8-1.8,1.8-1.8c0.1,0,0.2,0,0.3,0
	l-2.1,2.1C8.2,10.1,8.2,10,8.2,9.9z M11.8,9.9c0,1-0.8,1.8-1.8,1.8c-0.1,0-0.3,0-0.4-0.1l2.1-2.1C11.8,9.7,11.8,9.8,11.8,9.9z
	 M10,5.1c1,0,1.9,0.2,2.9,0.5l-1,1c-0.5-0.3-1.2-0.5-1.8-0.5c-2.1,0-3.8,1.7-3.8,3.8c0,0.7,0.2,1.3,0.5,1.8l-1.5,1.5
	c-1.2-0.8-2.3-2-3-3.4C3.7,7,6.7,5.1,10,5.1z"/>
</svg>
