<?xml version="1.0" encoding="UTF-8" standalone="no"?>
<svg width="19px" height="16px" viewBox="0 0 19 16" version="1.1" xmlns="http://www.w3.org/2000/svg" xmlns:xlink="http://www.w3.org/1999/xlink" xmlns:sketch="http://www.bohemiancoding.com/sketch/ns">
    <!-- Generator: Sketch 3.4.4 (17249) - http://www.bohemiancoding.com/sketch -->
    <title>closedEye</title>
    <desc>Created with Sketch.</desc>
    <defs></defs>
    <g id="Page-1" stroke="none" stroke-width="1" fill="none" fill-rule="evenodd" sketch:type="MSPage">
        <g id="closedEye" sketch:type="MSArtboardGroup" transform="translate(-6.000000, -8.000000)" fill="#3A434C">
            <path d="M15.4998,20.57275 C14.2878,20.57275 13.1278,20.31675 12.0628,19.86675 L13.6448,18.28575 C14.1768,18.63975 14.8138,18.84775 15.4998,18.84875 C17.3508,18.84675 18.8518,17.34675 18.8528,15.49575 C18.8518,14.80875 18.6438,14.17175 18.2898,13.64075 L20.1728,11.75675 C21.5838,12.63975 22.7408,13.92075 23.4768,15.49575 C22.0278,18.59775 18.9538,20.57275 15.4998,20.57275 M13.5468,15.49575 C13.5488,14.41975 14.4238,13.54475 15.4998,13.54275 C15.7678,13.54375 16.0218,13.59775 16.2538,13.69575 L13.7008,16.24975 C13.6028,16.01775 13.5478,15.76275 13.5468,15.49575 M17.4528,15.49575 C17.4508,16.57075 16.5748,17.44675 15.4998,17.44775 C15.2038,17.44775 14.9258,17.37575 14.6738,17.25675 L17.2608,14.66875 C17.3798,14.92075 17.4518,15.19875 17.4528,15.49575 M7.5228,15.49575 C8.9718,12.39375 12.0448,10.41875 15.4998,10.41875 C16.6818,10.41875 17.8128,10.66575 18.8558,11.09375 L17.2828,12.66675 C16.7658,12.33975 16.1568,12.14275 15.4998,12.14275 C13.6488,12.14375 12.1478,13.64475 12.1468,15.49575 C12.1478,16.15275 12.3438,16.76175 12.6708,17.27875 L10.7558,19.19475 C9.3758,18.31275 8.2468,17.04475 7.5228,15.49575 M21.1788,10.75075 L22.7358,9.19475 C23.0088,8.92175 23.0088,8.47775 22.7358,8.20475 C22.4618,7.93175 22.0188,7.93175 21.7458,8.20475 L19.9218,10.02775 C18.5848,9.38275 17.0858,9.01875 15.4998,9.01875 C11.1818,9.01875 7.4938,11.70475 5.9998,15.49575 C6.7558,17.41475 8.0758,19.04875 9.7538,20.19675 L8.0428,21.90775 C7.7698,22.18075 7.7698,22.62375 8.0428,22.89675 C8.3168,23.17075 8.7598,23.17075 9.0328,22.89675 L11.0018,20.92875 C12.3588,21.59675 13.8848,21.97275 15.4998,21.97275 C19.8218,21.97275 23.5058,19.28675 24.9998,15.49575 C24.2338,13.55075 22.8878,11.90075 21.1788,10.75075" sketch:type="MSShapeGroup"></path>
        </g>
    </g>
</svg>