<?xml version="1.0" encoding="utf-8"?>
<!-- Generator: Adobe Illustrator 19.1.0, SVG Export Plug-In . SVG Version: 6.00 Build 0)  -->
<svg version="1.1" id="Calque_1" xmlns="http://www.w3.org/2000/svg" xmlns:xlink="http://www.w3.org/1999/xlink" x="0px" y="0px"
	 viewBox="0 0 20 20" enable-background="new 0 0 20 20" xml:space="preserve">
<path fill="none" d="M13.79,9.94c0,2.09-1.7,3.79-3.79,3.79c-0.7,0-1.34-0.2-1.9-0.53l-1.03,1.03c0.93,0.33,1.91,0.52,2.94,0.52
	c3.35,0,6.33-1.87,7.81-4.82c-0.71-1.42-1.77-2.57-3.05-3.4l-1.5,1.5C13.59,8.6,13.79,9.24,13.79,9.94z"/>
<path fill="none" d="M10,8.15c-0.99,0-1.79,0.81-1.79,1.79c0,0.1,0.01,0.2,0.03,0.29l2.05-2.05C10.2,8.16,10.1,8.15,10,8.15z"/>
<path fill="none" d="M10,11.73c0.99,0,1.79-0.81,1.79-1.79c0-0.13-0.02-0.26-0.05-0.39l-2.14,2.14C9.74,11.72,9.87,11.73,10,11.73z"
	/>
<path fill="none" d="M5.17,13.3l1.53-1.53c-0.3-0.54-0.49-1.16-0.49-1.83c0-2.09,1.7-3.79,3.79-3.79c0.67,0,1.28,0.19,1.83,0.49
	l1.02-1.02C11.95,5.31,11,5.12,10,5.12c-3.35,0-6.33,1.87-7.81,4.82C2.89,11.33,3.93,12.47,5.17,13.3z"/>
<path fill="#3A434C" d="M3.73,14.73L1.96,16.5c-0.39,0.39-0.39,1.02,0,1.41s1.02,0.39,1.41,0l2.14-2.14
	C6.89,16.4,8.4,16.76,10,16.76c4.55,0,8.43-2.83,10-6.82c-0.77-1.96-2.11-3.64-3.8-4.84l1.6-1.6c0.39-0.39,0.39-1.02,0-1.41
	c-0.39-0.39-1.02-0.39-1.41,0L14.4,4.07c-1.34-0.6-2.83-0.95-4.4-0.95c-4.55,0-8.43,2.83-10,6.82C0.76,11.88,2.07,13.54,3.73,14.73z
	 M17.81,9.94c-1.48,2.95-4.47,4.82-7.81,4.82c-1.03,0-2.01-0.19-2.94-0.52L8.1,13.2c0.56,0.33,1.21,0.53,1.9,0.53
	c2.09,0,3.79-1.7,3.79-3.79c0-0.7-0.2-1.34-0.53-1.9l1.5-1.5C16.04,7.37,17.1,8.52,17.81,9.94z M8.21,9.94
	c0-0.99,0.81-1.79,1.79-1.79c0.1,0,0.2,0.01,0.29,0.03l-2.05,2.05C8.22,10.14,8.21,10.04,8.21,9.94z M11.79,9.94
	c0,0.99-0.81,1.79-1.79,1.79c-0.13,0-0.26-0.02-0.39-0.05l2.14-2.14C11.77,9.68,11.79,9.81,11.79,9.94z M10,5.12
	c1,0,1.95,0.18,2.85,0.49l-1.02,1.02c-0.54-0.3-1.16-0.49-1.83-0.49c-2.09,0-3.79,1.7-3.79,3.79c0,0.67,0.19,1.28,0.49,1.83
	L5.17,13.3c-1.25-0.83-2.29-1.97-2.98-3.36C3.67,6.99,6.65,5.12,10,5.12z"/>
</svg>
