<?xml version="1.0" encoding="utf-8"?>
<svg version="1.1" id="Calque_1" xmlns="http://www.w3.org/2000/svg" xmlns:xlink="http://www.w3.org/1999/xlink" x="0px" y="0px"
	 viewBox="0 0 20 20" style="enable-background:new 0 0 20 20;" xml:space="preserve">
<g>
	<path fill="#3A434C" d="M7.17,5.75C7.17,5.75,7.17,5.75,7.17,5.75L7.17,5.75C7.4,5.55,7.5,5.28,7.5,5h0.01v0c0-0.1-0.02-0.2-0.05-0.3
		C7.45,4.67,7.43,4.64,7.42,4.61C7.39,4.53,7.34,4.46,7.29,4.39C7.27,4.37,7.27,4.35,7.26,4.33C7.24,4.32,7.22,4.31,7.21,4.3
		C7.14,4.23,7.07,4.18,6.99,4.13C6.96,4.12,6.95,4.1,6.92,4.09c0,0-0.01,0-0.01-0.01C6.81,4.04,6.7,4.02,6.59,4.01
		c-0.03,0-0.06,0-0.09,0c-0.09,0-0.17,0.01-0.26,0.04C6.21,4.05,6.18,4.06,6.15,4.08c-0.11,0.04-0.21,0.1-0.31,0.18l0,0l0,0
		c0,0-0.01,0-0.01,0.01l-5.5,5C0.13,9.45,0.01,9.72,0.01,10c0,0,0,0,0,0s0,0,0,0c0,0.28,0.12,0.55,0.33,0.74l5.5,5
		c0,0,0.01,0,0.01,0.01l0,0c0,0,0,0,0,0c0.09,0.08,0.2,0.14,0.31,0.18c0.03,0.01,0.06,0.02,0.09,0.03c0.08,0.02,0.17,0.03,0.26,0.04
		c0.03,0,0.06,0,0.09,0c0.11-0.01,0.22-0.03,0.32-0.08c0,0,0.01,0,0.01-0.01c0.02-0.01,0.04-0.03,0.06-0.04
		c0.08-0.05,0.16-0.1,0.22-0.17c0.01-0.01,0.03-0.02,0.05-0.03c0.01-0.02,0.02-0.04,0.03-0.05c0.05-0.07,0.1-0.14,0.13-0.22
		c0.01-0.03,0.03-0.06,0.04-0.09c0.03-0.1,0.05-0.2,0.05-0.3v0H7.5c0-0.27-0.1-0.55-0.32-0.74l0,0c0,0-0.01,0-0.01,0L2.49,10
		L7.17,5.75z"/>
	<path fill="#3A434C" d="M19.99,10c0-0.28-0.12-0.55-0.33-0.74l-5.5-5c-0.09-0.08-0.2-0.14-0.31-0.18c-0.03-0.01-0.06-0.02-0.09-0.03
		c-0.08-0.02-0.17-0.03-0.26-0.04c-0.03,0-0.06,0-0.09,0c-0.11,0.01-0.22,0.03-0.32,0.08c0,0-0.01,0-0.01,0.01
		c-0.02,0.01-0.04,0.03-0.06,0.04c-0.08,0.05-0.16,0.1-0.23,0.17c-0.01,0.01-0.03,0.02-0.05,0.03c-0.01,0.02-0.02,0.04-0.03,0.05
		c-0.05,0.07-0.1,0.14-0.13,0.22c-0.01,0.03-0.03,0.06-0.04,0.09c-0.03,0.1-0.05,0.2-0.05,0.3v0h0.01c0,0.27,0.1,0.55,0.32,0.74v0
		l0,0c0,0,0,0,0.01,0L17.51,10l-4.67,4.25c0,0,0,0-0.01,0l0,0c-0.22,0.2-0.32,0.47-0.32,0.74h-0.01v0c0,0.1,0.02,0.2,0.05,0.3
		c0.01,0.03,0.03,0.06,0.04,0.09c0.03,0.08,0.08,0.16,0.13,0.22c0.01,0.02,0.02,0.04,0.03,0.05c0.01,0.01,0.03,0.02,0.05,0.03
		c0.07,0.07,0.14,0.12,0.23,0.17c0.02,0.01,0.04,0.03,0.06,0.04c0,0,0.01,0,0.01,0.01c0.1,0.05,0.21,0.07,0.32,0.08
		c0.03,0,0.06,0,0.09,0c0.09,0,0.17-0.01,0.26-0.04c0.03-0.01,0.06-0.02,0.09-0.03c0.11-0.04,0.22-0.1,0.31-0.18l5.5-5
		C19.87,10.55,19.99,10.28,19.99,10C19.99,10,19.99,10,19.99,10C19.99,10,19.99,10,19.99,10z"/>
</g>
</svg>
