<svg xmlns="http://www.w3.org/2000/svg" viewBox="0 0 20 20"><path d="M7.2 5.7c.2-.2.3-.4.3-.7 0-.1 0-.2-.1-.3v-.1c0-.1-.1-.2-.1-.2v-.1h-.1L7 4.1h-.1C6.8 4 6.7 4 6.6 4h-.5l-.3.3-5.5 5c-.2.2-.3.4-.3.7 0 .3.1.6.3.7l5.5 5c.1.1.2.1.3.2h.5c.1 0 .2 0 .3-.1H7c.1 0 .2-.1.2-.2h.1v-.1c.1-.1.1-.1.1-.2v-.1c0-.1.1-.2.1-.3 0-.3-.1-.5-.3-.7L2.5 10l4.7-4.3zM20 10c0-.3-.1-.6-.3-.7l-5.5-5c-.1-.1-.2-.1-.3-.2h-.5c-.1 0-.2 0-.3.1H13c-.1.1-.2.1-.2.2h-.1v.1c-.1.1-.1.1-.1.2v.1c0 .1-.1.2-.1.3 0 .3.1.6.3.7l4.7 4.3-4.7 4.2c-.2.2-.3.5-.3.7 0 .1 0 .2.1.3v.1c0 .1.1.2.1.2h.1l.2.2h.1c.1.1.2.1.3.1h.5c.1 0 .2-.1.3-.2l5.5-5c.2-.2.3-.4.3-.7z"/></svg>