<svg viewBox="0 0 20 20"><path d="M10 6.2c-2.1 0-3.8 1.7-3.8 3.8s1.7 3.8 3.8 3.8 3.8-1.7 3.8-3.8-1.7-3.8-3.8-3.8zm0 5.6c-1 0-1.8-.8-1.8-1.8S9 8.2 10 8.2s1.8.8 1.8 1.8-.8 1.8-1.8 1.8z"/><path d="M1.1 12.9l1.4.1c0 .1.1.2.1.3l-.9.9c-.3.3-.4.9-.1 1.3.8 1.2 1.8 2.2 3 3 .4.2.9.2 1.2-.1l1.1-.9c.1 0 .2.1.3.1v1.3c0 .5.3.9.8 1 .6 0 1.3.1 2 .1s1.4-.1 2.1-.2c.4-.1.8-.5.8-.9l.1-1.4c.1 0 .2-.1.3-.1l.9.9c.3.3.9.4 1.3.1 1.2-.8 2.2-1.8 3-3 .2-.4.2-.9-.1-1.2l-.9-1.1c0-.1.1-.2.1-.3h1.3c.5 0 .9-.3 1-.8.1-.7.2-1.4.2-2.1 0-.7-.1-1.4-.2-2.1-.1-.4-.5-.8-.9-.8h-1.5c0-.1-.1-.2-.1-.3l.9-.9c.3-.3.4-.9.1-1.3-.8-1.2-1.8-2.2-3-3-.4-.2-.9-.2-1.2.1l-1 .9c-.1 0-.2-.1-.3-.1V1.1c0-.5-.3-.9-.8-1-.7 0-1.4-.1-2.1-.1-.7 0-1.4.1-2.1.2-.5.1-.8.5-.8.9L7 2.5c-.1 0-.2.1-.3.1l-.9-.9c-.3-.3-.8-.4-1.2-.1-1.2.8-2.2 1.8-3 3-.3.4-.2.9.1 1.2l.9 1.1c0 .1-.1.2-.1.3H1.2c-.5 0-.9.3-1 .8-.1.6-.2 1.3-.2 2s.1 1.4.2 2.1c.1.5.5.8.9.8zM5 3.8l.8.8c.3.3.8.3 1.2.1.4-.2.8-.4 1.2-.5.4-.1.7-.5.7-.9L9 2.1c.4-.1.7-.1 1-.1h.9v1.2c0 .5.3.9.7 1s.9.3 1.2.5c.4.2.8.2 1.1-.1l.9-.8c.5.4.9.8 1.3 1.3l-.8.8c-.2.2-.3.7 0 1.1.2.4.4.8.5 1.2.1.4.5.7.9.7l1.2.1c.1.4.1.7.1 1v.9h-1.1c-.5 0-.9.3-1 .7s-.3.9-.5 1.2c-.2.4-.1.8.1 1.1l.8.9c-.4.5-.8.9-1.3 1.3l-.8-.8c-.3-.3-.8-.4-1.2-.2-.4.2-.8.4-1.2.5-.4.1-.7.5-.7.9l-.1 1.4c-.4.1-.7.1-1 .1h-.9v-1.1c0-.5-.3-.9-.7-1-.4-.1-.8-.3-1.2-.5-.4-.2-.8-.1-1.1.1l-.9.8c-.5-.4-.9-.8-1.3-1.3l.8-.8c.3-.3.4-.8.2-1.2-.2-.4-.4-.8-.5-1.2-.1-.4-.5-.7-.9-.7L2.1 11c-.1-.4-.1-.7-.1-1v-.9h1.2c.5 0 .9-.3 1-.7s.3-.8.5-1.2c.2-.4.1-.9-.2-1.2l-.8-.9c.4-.5.8-1 1.3-1.3z"/></svg>