<?xml version="1.0" encoding="utf-8"?>
<!-- Generator: Adobe Illustrator 19.2.1, SVG Export Plug-In . SVG Version: 6.00 Build 0)  -->
<svg version="1.1" id="Calque_1" xmlns="http://www.w3.org/2000/svg" xmlns:xlink="http://www.w3.org/1999/xlink" x="0px" y="0px"
	 viewBox="0 0 20 20" enable-background="new 0 0 20 20" xml:space="preserve">
<path fill="none" d="M4.53,6.02C4.8,6.33,4.86,6.78,4.66,7.15c-0.21,0.39-0.38,0.8-0.5,1.24C4.05,8.82,3.65,9.12,3.2,9.12L2.05,9.11
	C2.02,9.4,2,9.7,2,10c0,0.33,0.02,0.65,0.06,0.96l1.25,0.08c0.42,0.03,0.77,0.31,0.89,0.71c0.13,0.43,0.31,0.84,0.52,1.22
	c0.22,0.39,0.15,0.89-0.17,1.21l-0.81,0.8c0.39,0.49,0.83,0.92,1.32,1.31l0.95-0.83c0.31-0.27,0.76-0.33,1.13-0.13
	c0.39,0.21,0.8,0.38,1.24,0.5c0.44,0.12,0.74,0.52,0.73,0.97L9.1,17.94C9.4,17.98,9.7,18,10,18c0.33,0,0.65-0.02,0.96-0.06
	l0.08-1.25c0.03-0.42,0.31-0.77,0.71-0.89c0.43-0.13,0.84-0.31,1.22-0.52c0.39-0.22,0.89-0.15,1.21,0.17l0.8,0.81
	c0.49-0.39,0.92-0.83,1.31-1.32l-0.83-0.95c-0.27-0.31-0.33-0.76-0.13-1.13c0.21-0.39,0.38-0.8,0.5-1.24s0.52-0.74,0.97-0.73
	l1.14,0.01C17.98,10.6,18,10.3,18,10c0-0.33-0.02-0.65-0.06-0.96l-1.25-0.08c-0.42-0.03-0.77-0.31-0.89-0.71
	c-0.13-0.43-0.31-0.84-0.52-1.22c-0.22-0.39-0.15-0.89,0.17-1.21l0.81-0.8c-0.39-0.49-0.83-0.92-1.32-1.31l-0.95,0.83
	c-0.31,0.27-0.76,0.33-1.13,0.13c-0.39-0.21-0.8-0.38-1.24-0.5s-0.74-0.52-0.73-0.97l0.01-1.14C10.6,2.02,10.3,2,10,2
	C9.67,2,9.35,2.02,9.04,2.06L8.95,3.32C8.92,3.73,8.64,4.09,8.24,4.21C7.81,4.34,7.4,4.51,7.02,4.73C6.63,4.96,6.13,4.89,5.81,4.56
	l-0.8-0.81c-0.48,0.39-0.92,0.83-1.3,1.32L4.53,6.02z M10,6.25c2.07,0,3.75,1.68,3.75,3.75s-1.68,3.75-3.75,3.75S6.25,12.07,6.25,10
	S7.93,6.25,10,6.25z"/>
<path fill="#3A434C" d="M10,6.25c-2.07,0-3.75,1.68-3.75,3.75s1.68,3.75,3.75,3.75s3.75-1.68,3.75-3.75S12.07,6.25,10,6.25z
	 M10,11.75c-0.97,0-1.75-0.78-1.75-1.75S9.03,8.25,10,8.25s1.75,0.78,1.75,1.75S10.97,11.75,10,11.75z"/>
<path fill="#3A434C" d="M1.14,12.91L2.53,13c0.04,0.09,0.07,0.18,0.11,0.27l-0.91,0.9c-0.34,0.33-0.4,0.86-0.14,1.26
	c0.77,1.2,1.79,2.22,2.99,2.99c0.38,0.24,0.86,0.21,1.2-0.09l1.05-0.92c0.09,0.04,0.18,0.08,0.27,0.11v1.27
	c0,0.47,0.33,0.89,0.79,0.99C8.57,19.92,9.28,20,10,20c0.73,0,1.44-0.08,2.12-0.23c0.44-0.09,0.76-0.46,0.79-0.91l0.09-1.4
	c0.09-0.04,0.18-0.07,0.27-0.11l0.9,0.91c0.33,0.34,0.86,0.4,1.26,0.14c1.2-0.77,2.22-1.79,2.99-2.99c0.24-0.38,0.21-0.86-0.09-1.2
	l-0.92-1.05c0.04-0.09,0.08-0.18,0.11-0.27l1.28,0.01c0.47,0,0.89-0.33,0.99-0.79C19.92,11.43,20,10.72,20,10
	c0-0.73-0.08-1.44-0.23-2.12c-0.09-0.44-0.46-0.76-0.91-0.79L17.46,7c-0.04-0.09-0.07-0.18-0.11-0.27l0.91-0.9
	c0.34-0.33,0.4-0.86,0.14-1.26c-0.77-1.2-1.79-2.22-2.99-2.99c-0.38-0.24-0.86-0.21-1.2,0.09L13.16,2.6
	c-0.09-0.04-0.18-0.08-0.27-0.11l0.01-1.28c0-0.47-0.33-0.89-0.79-0.99C11.43,0.08,10.72,0,10,0C9.27,0,8.56,0.08,7.88,0.23
	C7.44,0.32,7.12,0.69,7.09,1.14L7,2.54C6.91,2.57,6.82,2.61,6.73,2.65l-0.9-0.91C5.5,1.4,4.98,1.34,4.58,1.6
	c-1.2,0.77-2.22,1.79-2.99,2.99c-0.24,0.38-0.21,0.86,0.09,1.2L2.6,6.84C2.56,6.93,2.52,7.02,2.49,7.11L1.21,7.1
	c-0.47,0-0.89,0.33-0.99,0.79C0.08,8.57,0,9.28,0,10c0,0.73,0.08,1.44,0.23,2.12C0.32,12.56,0.69,12.88,1.14,12.91z M5.01,3.75
	l0.8,0.81c0.32,0.32,0.81,0.39,1.21,0.17C7.4,4.51,7.81,4.34,8.24,4.21c0.4-0.12,0.68-0.47,0.71-0.89l0.08-1.25
	C9.35,2.02,9.67,2,10,2c0.3,0,0.6,0.02,0.89,0.05L10.88,3.2c0,0.45,0.3,0.85,0.73,0.97s0.85,0.29,1.24,0.5
	c0.37,0.2,0.82,0.15,1.13-0.13l0.95-0.83c0.49,0.38,0.93,0.82,1.32,1.31l-0.81,0.8c-0.32,0.32-0.39,0.81-0.17,1.21
	c0.22,0.38,0.39,0.79,0.52,1.22c0.12,0.4,0.47,0.68,0.89,0.71l1.25,0.08C17.98,9.35,18,9.67,18,10c0,0.3-0.02,0.6-0.05,0.89
	l-1.14-0.01c-0.45,0-0.85,0.3-0.97,0.73s-0.29,0.85-0.5,1.24c-0.2,0.37-0.15,0.82,0.13,1.13l0.83,0.95
	c-0.38,0.49-0.82,0.93-1.31,1.32l-0.8-0.81c-0.32-0.32-0.81-0.39-1.21-0.17c-0.38,0.22-0.79,0.39-1.22,0.52
	c-0.4,0.12-0.68,0.47-0.71,0.89l-0.08,1.25C10.65,17.98,10.33,18,10,18c-0.3,0-0.6-0.02-0.89-0.05l0.01-1.14
	c0-0.45-0.3-0.85-0.73-0.97c-0.43-0.12-0.85-0.29-1.24-0.5c-0.37-0.2-0.82-0.15-1.13,0.13L5.07,16.3c-0.49-0.38-0.93-0.82-1.32-1.31
	l0.81-0.8c0.32-0.32,0.39-0.81,0.17-1.21c-0.22-0.38-0.39-0.79-0.52-1.22c-0.12-0.4-0.47-0.68-0.89-0.71l-1.25-0.08
	C2.02,10.65,2,10.33,2,10c0-0.3,0.02-0.6,0.05-0.89L3.2,9.12c0.45,0,0.85-0.3,0.97-0.73s0.29-0.85,0.5-1.24
	c0.2-0.37,0.15-0.82-0.13-1.13L3.71,5.07C4.09,4.58,4.53,4.14,5.01,3.75z"/>
</svg>
