<?xml version="1.0" encoding="utf-8"?>
<!-- Generator: Adobe Illustrator 19.2.1, SVG Export Plug-In . SVG Version: 6.00 Build 0)  -->
<svg version="1.1" id="Calque_1" xmlns="http://www.w3.org/2000/svg" xmlns:xlink="http://www.w3.org/1999/xlink" x="0px" y="0px"
	 viewBox="0 0 20 20" style="enable-background:new 0 0 20 20;" xml:space="preserve">
<style type="text/css">
	.st0{fill:#3A434C;}
</style>
<path class="st0" d="M10,6.2c-2.1,0-3.8,1.7-3.8,3.8s1.7,3.8,3.8,3.8s3.8-1.7,3.8-3.8S12.1,6.2,10,6.2z M10,11.8
	c-1,0-1.8-0.8-1.8-1.8S9,8.2,10,8.2S11.8,9,11.8,10S11,11.8,10,11.8z"/>
<path class="st0" d="M1.1,12.9L2.5,13c0,0.1,0.1,0.2,0.1,0.3l-0.9,0.9c-0.3,0.3-0.4,0.9-0.1,1.3c0.8,1.2,1.8,2.2,3,3
	c0.4,0.2,0.9,0.2,1.2-0.1l1.1-0.9c0.1,0,0.2,0.1,0.3,0.1v1.3c0,0.5,0.3,0.9,0.8,1C8.6,19.9,9.3,20,10,20c0.7,0,1.4-0.1,2.1-0.2
	c0.4-0.1,0.8-0.5,0.8-0.9l0.1-1.4c0.1,0,0.2-0.1,0.3-0.1l0.9,0.9c0.3,0.3,0.9,0.4,1.3,0.1c1.2-0.8,2.2-1.8,3-3
	c0.2-0.4,0.2-0.9-0.1-1.2l-0.9-1.1c0-0.1,0.1-0.2,0.1-0.3l1.3,0c0.5,0,0.9-0.3,1-0.8c0.1-0.7,0.2-1.4,0.2-2.1c0-0.7-0.1-1.4-0.2-2.1
	c-0.1-0.4-0.5-0.8-0.9-0.8L17.5,7c0-0.1-0.1-0.2-0.1-0.3l0.9-0.9c0.3-0.3,0.4-0.9,0.1-1.3c-0.8-1.2-1.8-2.2-3-3
	c-0.4-0.2-0.9-0.2-1.2,0.1l-1,0.9c-0.1,0-0.2-0.1-0.3-0.1l0-1.3c0-0.5-0.3-0.9-0.8-1C11.4,0.1,10.7,0,10,0C9.3,0,8.6,0.1,7.9,0.2
	C7.4,0.3,7.1,0.7,7.1,1.1L7,2.5c-0.1,0-0.2,0.1-0.3,0.1L5.8,1.7C5.5,1.4,5,1.3,4.6,1.6c-1.2,0.8-2.2,1.8-3,3C1.3,5,1.4,5.5,1.7,5.8
	l0.9,1.1c0,0.1-0.1,0.2-0.1,0.3l-1.3,0c-0.5,0-0.9,0.3-1,0.8C0.1,8.6,0,9.3,0,10c0,0.7,0.1,1.4,0.2,2.1C0.3,12.6,0.7,12.9,1.1,12.9z
	 M5,3.8l0.8,0.8C6.1,4.9,6.6,4.9,7,4.7c0.4-0.2,0.8-0.4,1.2-0.5c0.4-0.1,0.7-0.5,0.7-0.9L9,2.1C9.4,2,9.7,2,10,2c0.3,0,0.6,0,0.9,0
	l0,1.2c0,0.5,0.3,0.9,0.7,1s0.9,0.3,1.2,0.5c0.4,0.2,0.8,0.2,1.1-0.1l0.9-0.8c0.5,0.4,0.9,0.8,1.3,1.3l-0.8,0.8
	C15.1,6.1,15,6.6,15.3,7c0.2,0.4,0.4,0.8,0.5,1.2c0.1,0.4,0.5,0.7,0.9,0.7L17.9,9C18,9.4,18,9.7,18,10c0,0.3,0,0.6,0,0.9l-1.1,0
	c-0.5,0-0.9,0.3-1,0.7s-0.3,0.9-0.5,1.2c-0.2,0.4-0.1,0.8,0.1,1.1l0.8,0.9c-0.4,0.5-0.8,0.9-1.3,1.3l-0.8-0.8
	c-0.3-0.3-0.8-0.4-1.2-0.2c-0.4,0.2-0.8,0.4-1.2,0.5c-0.4,0.1-0.7,0.5-0.7,0.9L11,17.9C10.6,18,10.3,18,10,18c-0.3,0-0.6,0-0.9,0
	l0-1.1c0-0.5-0.3-0.9-0.7-1c-0.4-0.1-0.8-0.3-1.2-0.5c-0.4-0.2-0.8-0.1-1.1,0.1l-0.9,0.8c-0.5-0.4-0.9-0.8-1.3-1.3l0.8-0.8
	c0.3-0.3,0.4-0.8,0.2-1.2c-0.2-0.4-0.4-0.8-0.5-1.2c-0.1-0.4-0.5-0.7-0.9-0.7L2.1,11C2,10.6,2,10.3,2,10c0-0.3,0-0.6,0-0.9l1.2,0
	c0.5,0,0.9-0.3,1-0.7s0.3-0.8,0.5-1.2C4.9,6.8,4.8,6.3,4.5,6L3.7,5.1C4.1,4.6,4.5,4.1,5,3.8z"/>
</svg>
