<?xml version="1.0" encoding="utf-8"?>
<!-- Generator: Adobe Illustrator 19.1.0, SVG Export Plug-In . SVG Version: 6.00 Build 0)  -->
<svg version="1.1" id="Calque_1" xmlns="http://www.w3.org/2000/svg" xmlns:xlink="http://www.w3.org/1999/xlink" x="0px" y="0px"
	 viewBox="0 0 20 20" enable-background="new 0 0 20 20" xml:space="preserve">
<path fill="none" d="M2.21,2.18C2.09,2.31,2,2.53,2,2.8v10.8c0,0.27,0.09,0.49,0.21,0.62c0.12,0.14,0.23,0.18,0.33,0.18h13.04
	c0.27,0,0.54,0.11,0.73,0.31l1.68,1.78L18,2.8c0-0.27-0.09-0.49-0.21-0.63C17.67,2.04,17.57,2,17.47,2H2.54
	C2.44,2,2.33,2.04,2.21,2.18z M6.79,7.25h6.42c0.55,0,1,0.45,1,1s-0.45,1-1,1H6.79c-0.55,0-1-0.45-1-1S6.24,7.25,6.79,7.25z"/>
<path fill="#3A434C" d="M6.79,9.25h6.42c0.55,0,1-0.45,1-1s-0.45-1-1-1H6.79c-0.55,0-1,0.45-1,1S6.24,9.25,6.79,9.25z"/>
<path fill="#3A434C" d="M0.69,0.88C0.25,1.39,0,2.07,0,2.8v10.8c0,0.73,0.25,1.41,0.69,1.92c0.44,0.52,1.1,0.88,1.85,0.88h12.61
	l3.11,3.29c0.28,0.3,0.71,0.39,1.1,0.24s0.63-0.52,0.63-0.93L20,2.8v0c0-0.73-0.25-1.4-0.69-1.92C18.88,0.36,18.22,0,17.47,0H2.54
	C1.79,0,1.13,0.36,0.69,0.88z M17.79,2.17C17.91,2.31,18,2.53,18,2.8l-0.01,13.69l-1.68-1.78c-0.19-0.2-0.45-0.31-0.73-0.31H2.54
	c-0.1,0-0.21-0.04-0.33-0.18C2.09,14.09,2,13.87,2,13.6V2.8c0-0.27,0.09-0.49,0.21-0.62C2.33,2.04,2.44,2,2.54,2h14.93
	C17.57,2,17.67,2.04,17.79,2.17z"/>
</svg>
