<?xml version="1.0" encoding="UTF-8" standalone="no"?>
<svg width="22px" height="20px" viewBox="0 0 22 20" version="1.1" xmlns="http://www.w3.org/2000/svg" xmlns:xlink="http://www.w3.org/1999/xlink" xmlns:sketch="http://www.bohemiancoding.com/sketch/ns">
    <!-- Generator: Sketch 3.4.2 (15857) - http://www.bohemiancoding.com/sketch -->
    <title>openQuestion</title>
    <desc>Created with Sketch.</desc>
    <defs></defs>
    <g id="Page-1" stroke="none" stroke-width="1" fill="none" fill-rule="evenodd" sketch:type="MSPage">
        <g id="openQuestion" sketch:type="MSArtboardGroup" transform="translate(-5.000000, -6.000000)" fill="#3A434C">
            <g sketch:type="MSLayerGroup" transform="translate(5.000000, 6.000000)">
                <path d="M14.4572029,6.76767974 L7.4866,6.76767974 C6.97325588,6.76767974 6.55807059,7.18705882 6.55807059,7.70558824 C6.55807059,8.22277778 6.97325588,8.64349673 7.4866,8.64349673 L14.4572029,8.64349673 C14.9692206,8.64349673 15.3857324,8.22277778 15.3857324,7.70558824 C15.3857324,7.18705882 14.9692206,6.76767974 14.4572029,6.76767974" id="Fill-1" sketch:type="MSShapeGroup"></path>
                <path d="M21.67055,2.76415033 C21.6678971,1.32379085 20.5045824,0.16748366 19.0773,0.164803922 L2.87446176,0.164803922 C1.44850588,0.16748366 0.274579412,1.31575163 0.271926471,2.76415033 L0.271926471,12.7314379 C0.274579412,14.1798366 1.44850588,15.3281046 2.87446176,15.3307843 L16.6750618,15.3307843 L21.6546324,19.803268 L21.67055,2.7654902 M19.8015529,15.6268954 L17.3820706,13.4549673 L2.87446176,13.4549673 C2.44999118,13.4536275 2.13031176,13.1186601 2.12898529,12.7314379 L2.12898529,2.76415033 C2.13031176,2.3769281 2.44999118,2.04196078 2.87446176,2.04062092 L19.0773,2.04062092 C19.4991176,2.04330065 19.8134912,2.37022876 19.8134912,2.76415033 L19.8015529,15.6268954" id="Fill-2" sketch:type="MSShapeGroup"></path>
            </g>
        </g>
    </g>
</svg>