<?xml version="1.0" encoding="utf-8"?>
<!-- Generator: Adobe Illustrator 19.2.1, SVG Export Plug-In . SVG Version: 6.00 Build 0)  -->
<svg version="1.1" id="Calque_1" xmlns="http://www.w3.org/2000/svg" xmlns:xlink="http://www.w3.org/1999/xlink" x="0px" y="0px"
	 viewBox="0 0 20 20" style="enable-background:new 0 0 20 20;" xml:space="preserve">
<style type="text/css">
	.st0{fill:#3A434C;}
</style>
<path class="st0" d="M6.8,9.2h6.4c0.6,0,1-0.4,1-1s-0.4-1-1-1H6.8c-0.6,0-1,0.4-1,1S6.2,9.2,6.8,9.2z"/>
<path class="st0" d="M0.7,0.9C0.2,1.4,0,2.1,0,2.8v10.8c0,0.7,0.2,1.4,0.7,1.9c0.4,0.5,1.1,0.9,1.8,0.9h12.6l3.1,3.3
	c0.3,0.3,0.7,0.4,1.1,0.2S20,19.4,20,19l0-16.2l0,0c0-0.7-0.2-1.4-0.7-1.9C18.9,0.4,18.2,0,17.5,0H2.5C1.8,0,1.1,0.4,0.7,0.9z
	 M17.8,2.2C17.9,2.3,18,2.5,18,2.8l0,13.7l-1.7-1.8c-0.2-0.2-0.4-0.3-0.7-0.3h-13c-0.1,0-0.2,0-0.3-0.2C2.1,14.1,2,13.9,2,13.6V2.8
	c0-0.3,0.1-0.5,0.2-0.6C2.3,2,2.4,2,2.5,2h14.9C17.6,2,17.7,2,17.8,2.2z"/>
</svg>
