<?xml version="1.0" encoding="utf-8"?>
<!-- Generator: Adobe Illustrator 19.1.0, SVG Export Plug-In . SVG Version: 6.00 Build 0)  -->
<svg version="1.1" id="Calque_1" xmlns="http://www.w3.org/2000/svg" xmlns:xlink="http://www.w3.org/1999/xlink" x="0px" y="0px"
	 viewBox="0 0 10.97 20" enable-background="new 0 0 10.97 20" xml:space="preserve">
<g>
	<path fill="none" d="M3.37,14.59c0-0.2,0.08-0.39,0.22-0.53s0.33-0.22,0.53-0.22h2.73c0.2,0,0.39,0.08,0.53,0.22
		s0.22,0.33,0.22,0.53v3.87h2.12l0-13.22H1.25v13.22h2.12V14.59z M6.24,6.62H8.2v1.95H6.24V6.62z M6.24,9.82H8.2v1.95H6.24V9.82z
		 M2.77,6.62h1.95v1.95H2.77V6.62z M2.77,9.82h1.95v1.95H2.77V9.82z"/>
	<polygon fill="none" points="8.12,3.65 6.22,2.24 6.21,3.65 	"/>
	<rect x="4.87" y="15.34" fill="none" width="1.23" height="3.12"/>
	<rect x="2.77" y="6.62" fill="#3A434C" width="1.95" height="1.95"/>
	<rect x="6.24" y="6.62" fill="#3A434C" width="1.95" height="1.95"/>
	<rect x="2.77" y="9.82" fill="#3A434C" width="1.95" height="1.95"/>
	<rect x="6.24" y="9.82" fill="#3A434C" width="1.95" height="1.95"/>
	<path fill="#3A434C" d="M10.83,3.79L5.92,0.15C5.7-0.02,5.39-0.05,5.14,0.08S4.73,0.46,4.73,0.75L4.71,3.74H0.5
		c-0.2,0-0.39,0.08-0.53,0.22C-0.17,4.1-0.25,4.29-0.25,4.49v14.72c0,0.2,0.08,0.39,0.22,0.53s0.33,0.22,0.53,0.22h3.43
		C3.99,19.98,4.05,20,4.12,20h2.73c0.07,0,0.13-0.02,0.19-0.04h3.43c0.2,0,0.39-0.08,0.53-0.22s0.22-0.33,0.22-0.53V4.49
		c0-0.2-0.08-0.39-0.22-0.53c-0.01-0.01-0.02-0.01-0.03-0.02C10.93,3.89,10.88,3.83,10.83,3.79z M8.12,3.65l-1.91,0l0.01-1.41
		L8.12,3.65z M1.25,5.24h8.47l0,13.22H7.6v-3.87c0-0.2-0.08-0.39-0.22-0.53s-0.33-0.22-0.53-0.22H4.12c-0.2,0-0.39,0.08-0.53,0.22
		s-0.22,0.33-0.22,0.53v3.87H1.25V5.24z M4.87,18.46v-3.12H6.1v3.12H4.87z"/>
</g>
</svg>
