<?xml version="1.0" encoding="utf-8"?>
<!-- Generator: Adobe Illustrator 19.2.1, SVG Export Plug-In . SVG Version: 6.00 Build 0)  -->
<svg version="1.1" id="Calque_1" xmlns="http://www.w3.org/2000/svg" xmlns:xlink="http://www.w3.org/1999/xlink" x="0px" y="0px"
	 viewBox="0 0 11 20" style="enable-background:new 0 0 11 20;" xml:space="preserve">
<style type="text/css">
	.st0{fill:#3A434C;}
</style>
<g>
	<rect x="2.8" y="6.6" class="st0" width="2" height="1.9"/>
	<rect x="6.2" y="6.6" class="st0" width="1.9" height="1.9"/>
	<rect x="2.8" y="9.8" class="st0" width="2" height="1.9"/>
	<rect x="6.2" y="9.8" class="st0" width="1.9" height="1.9"/>
	<path class="st0" d="M10.8,3.8L5.9,0.2C5.7,0,5.4-0.1,5.1,0.1S4.7,0.5,4.7,0.8l0,3H0.5C0.3,3.7,0.1,3.8,0,4
		c-0.1,0.1-0.2,0.3-0.2,0.5v14.7c0,0.2,0.1,0.4,0.2,0.5S0.3,20,0.5,20h3.4c0.1,0,0.1,0,0.2,0h2.7C6.9,20,7,20,7,20h3.4
		c0.2,0,0.4-0.1,0.5-0.2s0.2-0.3,0.2-0.5V4.5c0-0.2-0.1-0.4-0.2-0.5c0,0,0,0,0,0C10.9,3.9,10.9,3.8,10.8,3.8z M8.1,3.7H6.2l0-1.4
		L8.1,3.7z M1.2,5.2h8.5v13.2H7.6v-3.9c0-0.2-0.1-0.4-0.2-0.5s-0.3-0.2-0.5-0.2H4.1c-0.2,0-0.4,0.1-0.5,0.2s-0.2,0.3-0.2,0.5v3.9
		H1.2V5.2z M4.9,18.5v-3.1h1.2v3.1H4.9z"/>
</g>
</svg>
