<?xml version="1.0" encoding="utf-8"?>
<!-- Generator: Adobe Illustrator 19.2.1, SVG Export Plug-In . SVG Version: 6.00 Build 0)  -->
<svg version="1.1" id="Calque_1" xmlns="http://www.w3.org/2000/svg" xmlns:xlink="http://www.w3.org/1999/xlink" x="0px" y="0px"
	 viewBox="0 0 20 20" style="enable-background:new 0 0 20 20;" xml:space="preserve">
<style type="text/css">
	.st0{fill:#3A434C;}
</style>
<g>
	<path class="st0" d="M16.8,2.7h-0.6V2.3c0-1.2-1-2.3-2.3-2.3H3.2C2,0,0.9,1,0.9,2.3v12.8c0,1.2,1,2.3,2.3,2.3h0.6v0.4
		c0,1.2,1,2.3,2.3,2.3h10.7c1.2,0,2.3-1,2.3-2.3V4.9C19.1,3.7,18,2.7,16.8,2.7z M2.9,15.1V2.3C2.9,2.1,3.1,2,3.2,2h10.7
		c0.1,0,0.3,0.1,0.3,0.3v12.8c0,0.1-0.1,0.3-0.3,0.3H3.2C3.1,15.3,2.9,15.2,2.9,15.1z M17.1,17.7c0,0.1-0.1,0.3-0.3,0.3H6.1
		c-0.1,0-0.3-0.1-0.3-0.3v-0.4h8.1c1.2,0,2.3-1,2.3-2.3V4.7h0.6c0.1,0,0.3,0.1,0.3,0.3V17.7z"/>
	<path class="st0" d="M11.1,7.3c-0.6,0-1,0.4-1,1v1.4L6.8,6.5c-0.4-0.4-1-0.4-1.4,0C5,6.9,5,7.5,5.4,7.9l3.3,3.3H7.2
		c-0.6,0-1,0.4-1,1s0.4,1,1,1h3.9c0.6,0,1-0.4,1-1V8.3C12.1,7.8,11.6,7.3,11.1,7.3z"/>
</g>
</svg>
