<svg viewBox="0 0 20 20"><path d="M16.8 2.7h-.6v-.4c0-1.2-1-2.3-2.3-2.3H3.2C2 0 .9 1 .9 2.3v12.8c0 1.2 1 2.3 2.3 2.3h.6v.4c0 1.2 1 2.3 2.3 2.3h10.7c1.2 0 2.3-1 2.3-2.3V4.9c0-1.2-1.1-2.2-2.3-2.2zM2.9 15.1V2.3c0-.2.2-.3.3-.3h10.7c.1 0 .3.1.3.3v12.8c0 .1-.1.3-.3.3H3.2c-.1-.1-.3-.2-.3-.3zm14.2 2.6c0 .1-.1.3-.3.3H6.1c-.1 0-.3-.1-.3-.3v-.4h8.1c1.2 0 2.3-1 2.3-2.3V4.7h.6c.1 0 .3.1.3.3v12.7z"/><path d="M11.1 7.3c-.6 0-1 .4-1 1v1.4L6.8 6.5c-.4-.4-1-.4-1.4 0-.4.4-.4 1 0 1.4l3.3 3.3H7.2c-.6 0-1 .4-1 1s.4 1 1 1h3.9c.6 0 1-.4 1-1V8.3c0-.5-.5-1-1-1z"/></svg>