<svg width="20" height="20"><g fill="#000" fill-rule="evenodd"><path d="M4.276 15.163h11.18V9.47H4.277v5.694zm11.897 1.4H3.56a.708.708 0 0 1-.715-.7V8.77c0-.386.32-.7.715-.7h12.613c.395 0 .715.314.715.7v7.094c0 .387-.32.7-.715.7z"/><path d="M3.432 8.069H16.3v-3.67H3.43v3.67zm13.584 1.4h-14.3a.708.708 0 0 1-.716-.7V3.7c0-.386.32-.7.716-.7h14.3c.395 0 .716.314.716.7v5.069c0 .386-.32.7-.716.7zm-5.67-2.534H8.288a.708.708 0 0 1-.715-.7c0-.387.32-.7.715-.7h3.056c.395 0 .716.313.716.7 0 .386-.32.7-.716.7z"/></g></svg>