<svg width="20" height="20"><path d="M17.653 6.594a.651.651 0 0 0-.693-.587h-.053c-1.387.214-4.667 1.52-6.934 1.52-2.266 0-5.546-1.28-6.933-1.52a.633.633 0 0 0-.72.534v.053C2.213 7.821 2 11.074 2 11.581c0 .666 2.773 2.186 4.8 2.186 1.973 0 2.373-2.186 3.2-2.186s1.227 2.186 3.2 2.186c2.027 0 4.8-1.52 4.8-2.186 0-.507-.213-3.787-.347-4.987zm-9.52 3.893c-.293.267-1.066.854-2.026.667-.96-.187-1.547-1.067-1.734-1.413a.205.205 0 0 1 .027-.267c.293-.267 1.067-.853 2.027-.667.96.187 1.546 1.067 1.733 1.414a.205.205 0 0 1-.027.266zm7.494-.746c-.187.346-.774 1.226-1.734 1.413-.96.187-1.76-.427-2.026-.667a.205.205 0 0 1-.027-.266c.187-.347.773-1.227 1.733-1.414.96-.186 1.734.427 2.027.667.053.08.08.187.027.267z" fill-rule="evenodd"/></svg>
