<svg width="20" height="20"><path d="M14.954 15.839H5.527c-.277 0-.5-.192-.5-.429V4.85c0-.237.223-.429.5-.429h7.28c.133 0 .26.046.354.126l2.146 1.84a.4.4 0 0 1 .146.302v8.722c0 .237-.223.429-.5.429zm-8.927-.857h8.427V6.866L12.6 5.278H6.027v9.704zm6.817-3.234H7.636c-.276 0-.5-.192-.5-.429s.224-.428.5-.428h5.208c.276 0 .5.191.5.428s-.224.429-.5.429zm0-1.993H7.636c-.276 0-.5-.191-.5-.428s.224-.429.5-.429h5.208c.276 0 .5.192.5.429s-.224.428-.5.428zm0 3.985H7.636c-.276 0-.5-.192-.5-.429s.224-.428.5-.428h5.208c.276 0 .5.191.5.428s-.224.429-.5.429z" fill-rule="evenodd"/></svg>