<svg width="20" height="20"><path d="M4.948 8.867l2.898 2.197a.498.498 0 0 1 .176.543l-1.052 3.48 2.985-2.076c.171-.12.4-.12.57 0l2.985 2.077-1.052-3.481a.498.498 0 0 1 .176-.543l2.898-2.197-3.636-.074a.5.5 0 0 1-.462-.336L10.24 5.022 9.046 8.457a.5.5 0 0 1-.462.336l-3.636.074zm9.457 7.953c-.1 0-.2-.03-.285-.09l-3.88-2.7-3.88 2.7a.5.5 0 0 1-.764-.555l1.369-4.525-3.767-2.856a.5.5 0 0 1 .292-.898L8.216 7.8l1.552-4.464a.499.499 0 0 1 .944 0L12.264 7.8l4.726.096a.5.5 0 0 1 .292.898l-3.767 2.856 1.369 4.525a.5.5 0 0 1-.479.645z" fill-rule="evenodd"/></svg>