<svg width="20" height="20"><path d="M10.359 13.15c.124 0 .25.037.357.112l2.994 2.084-1.055-3.494a.624.624 0 0 1 .22-.679l2.908-2.204-3.648-.074a.625.625 0 0 1-.578-.42l-1.198-3.447L9.16 8.475a.625.625 0 0 1-.577.42l-3.649.074 2.908 2.204c.208.158.297.43.22.679l-1.055 3.493L10 13.262a.626.626 0 0 1 .358-.113m4.47 4.361a.627.627 0 0 1-.356-.112l-4.114-2.862-4.114 2.862a.623.623 0 0 1-.955-.693l1.451-4.798-3.994-3.028a.625.625 0 0 1 .365-1.123l5.01-.103L9.77 2.92a.624.624 0 0 1 1.18 0l1.646 4.733 5.011.103a.626.626 0 0 1 .365 1.123l-3.994 3.028 1.45 4.798a.624.624 0 0 1-.597.805" fill-rule="evenodd"/></svg>