<svg width="20" height="20"><path d="M1.817 20c-.53 0-.803-.281-.817-.844V8.338c0-1.024.182-1.05.817-1.67L9.175.375c.318-.25.59-.374.817-.374.227 0 .5.125.818.374l7.357 6.295c.545.557.818 1.114.818 1.669L19 19.156c-.01.563-.288.844-.833.844h-4.905c-.545 0-.865-.278-.96-.833v-4.998c0-.84-.455-2.424-2.31-2.424-1.854 0-2.22 1.567-2.22 2.424v4.998c-.13.555-.48.833-1.05.833H1.817zm4.497-1.666v-4.581c0-2.14 1.994-3.582 3.678-3.582 1.685 0 3.679 1.574 3.679 3.582v4.581h3.524V8.064L9.992 1.84 2.635 8.063v10.331l3.679-.06z" fill="#000" fill-rule="nonzero"/></svg>