<svg width="20" height="20"><g fill-rule="evenodd"><path d="M3.901 11.713H16.27v-7.61H3.902v7.61zm12.868 1H3.402a.5.5 0 0 1-.5-.5v-8.61a.5.5 0 0 1 .5-.5h13.367a.5.5 0 0 1 .5.5v8.61a.5.5 0 0 1-.5.5z"/><path d="M10.086 15.294a.5.5 0 0 1-.5-.5v-2.581a.5.5 0 1 1 1 0v2.581a.5.5 0 0 1-.5.5"/><path d="M10.78 15.49a.695.695 0 1 1-1.39 0 .695.695 0 0 1 1.39 0"/><path d="M10.086 15.294a.195.195 0 1 0 0 .391.195.195 0 0 0 0-.39m0 1.39a1.197 1.197 0 0 1-1.196-1.196 1.197 1.197 0 0 1 2.39 0c0 .66-.536 1.195-1.194 1.195m6.684-6.399H3.401a.5.5 0 1 1 0-1h13.367a.5.5 0 1 1 0 1"/></g></svg>