<svg width="20" height="20"><g fill-rule="evenodd"><path d="M8.232 12.597l-.885.884-4.274 4.267a.621.621 0 0 1-.442.182.619.619 0 0 1-.441-.182.63.63 0 0 1 0-.884l4.275-4.267.882-.883.443.441.442.442z"/><path d="M11.798 11.38a.609.609 0 0 0-.217.567 4.242 4.242 0 0 1-.792 3.208l-2.557-2.558-.443-.442-.441-.441L4.78 9.147a4.253 4.253 0 0 1 3.21-.792.627.627 0 0 0 .573-.216l4.134-4.917 4.025 4.017-4.925 4.141zm6.476-4.075a.688.688 0 0 0-.184-.466l-4.984-4.984a.6.6 0 0 0-.475-.182.626.626 0 0 0-.45.216L7.823 7.08a5.572 5.572 0 0 0-4.4 1.592.63.63 0 0 0 0 .884l3.042 3.041.442.442.44.442 3.035 3.033a.613.613 0 0 0 .44.183c.16 0 .317-.057.442-.183a5.596 5.596 0 0 0 1.6-4.4l5.184-4.359a.622.622 0 0 0 .226-.45z"/></g></svg>