<svg width="20" height="20"><path d="M7.305 4.678c-1.994 0-3.618 1.616-3.618 3.602 0 1.985 1.624 3.601 3.618 3.601 1.995 0 3.62-1.616 3.62-3.601 0-1.986-1.625-3.602-3.62-3.602zm5.388 8.881a.843.843 0 0 1-.843-.839.841.841 0 0 1 .882-.839c1.978-.02 3.582-1.628 3.582-3.602 0-1.985-1.625-3.6-3.62-3.6a.841.841 0 0 1-.843-.84.84.84 0 0 1 .843-.838C15.62 3 18 5.369 18 8.279c0 1.862-.972 3.501-2.438 4.442A5.274 5.274 0 0 1 18 17.16c0 .463-.378.839-.843.839a.841.841 0 0 1-.844-.84c0-1.971-1.602-3.58-3.581-3.6h-.038zM4.44 12.72A5.274 5.274 0 0 1 2 8.28C2 5.369 4.38 3 7.305 3c2.926 0 5.306 2.369 5.306 5.28 0 1.86-.973 3.5-2.439 4.44a5.274 5.274 0 0 1 2.438 4.44c0 .464-.377.84-.843.84a.841.841 0 0 1-.843-.84c0-1.984-1.623-3.6-3.619-3.6-1.994 0-3.618 1.616-3.618 3.6 0 .464-.377.84-.843.84A.842.842 0 0 1 2 17.16c0-1.86.973-3.5 2.439-4.44z" fill="#000" fill-rule="evenodd"/></svg>