<svg width="20" height="20"><path d="M4.265 13.217V5.35c0-.175.142-.316.325-.316h11.708c.184 0 .326.141.326.316v9.909l-1.417-1.517a.6.6 0 0 0-.459-.2H4.59a.325.325 0 0 1-.325-.325m12.033-9.433c.866 0 1.576.7 1.576 1.566v11.51a.62.62 0 0 1-.4.575.55.55 0 0 1-.226.05.634.634 0 0 1-.458-.2l-2.308-2.492H4.59a1.58 1.58 0 0 1-1.575-1.575V5.35c0-.866.708-1.566 1.575-1.566h11.708zm-5.225 4.883V7.433a.624.624 0 1 0-1.25 0v1.234H8.581a.624.624 0 1 0 0 1.25h1.242v1.241a.624.624 0 1 0 1.25 0v-1.24h1.233a.624.624 0 1 0 0-1.25h-1.233z" fill-rule="evenodd"/></svg>