<svg width="20" height="20"><path d="M13.905 13.275h.005-.005zm-3.671-3.67c-.702 0-1.38.23-1.946.666a3.174 3.174 0 0 0-1.217 2.121 3.199 3.199 0 0 0 2.76 3.579 3.199 3.199 0 0 0 3.578-2.76 3.199 3.199 0 0 0-3.175-3.606zm1.186-.83v-4.42H9.06v4.42a4.18 4.18 0 0 1 2.36 0zm.987.433c.113.069.223.143.328.221l2.001-1.742V4.354H12.42v4.743a.503.503 0 0 1-.013.111zm-4.333.002a.503.503 0 0 1-.013-.113V4.354H5.744v3.333L7.745 9.43c.106-.079.216-.152.329-.22zm-1.06.91L4.915 8.29a.5.5 0 0 1-.171-.377v-4.06a.5.5 0 0 1 .5-.5h9.992a.5.5 0 0 1 .5.5v4.06a.501.501 0 0 1-.17.377l-2.101 1.83a4.186 4.186 0 0 1 .936 3.218 4.202 4.202 0 0 1-4.698 3.624 4.2 4.2 0 0 1-3.624-4.699 4.18 4.18 0 0 1 .935-2.145z" fill-rule="evenodd"/></svg>