<svg width="20" height="20"><g fill-rule="evenodd"><path d="M5.024 15.024h2.952v-3.048H5.024v3.048zM8.488 16H4.512A.5.5 0 0 1 4 15.512v-4.024A.5.5 0 0 1 4.512 11h3.976a.5.5 0 0 1 .512.488v4.024a.5.5 0 0 1-.512.488z"/><path d="M9.024 15.017h2.952V8.483H9.024v6.534zm3.464.983H8.512A.502.502 0 0 1 8 15.508V7.992c0-.272.229-.492.512-.492h3.976c.283 0 .512.22.512.492v7.516c0 .272-.23.492-.512.492z"/><path d="M13.024 15.014h2.952V4.986h-2.952v10.028zm3.464.986h-3.976a.502.502 0 0 1-.512-.493V4.493c0-.272.229-.493.512-.493h3.976c.283 0 .512.22.512.493v11.014a.502.502 0 0 1-.512.493z"/></g></svg>