<svg width="20" height="20"><path d="M11.082 17.934a.622.622 0 0 1-.441-.183L2.277 9.387a.624.624 0 0 1-.183-.442v-3.42c0-.166.066-.325.183-.442L5.511 1.85a.622.622 0 0 1 .441-.183h3.42c.166 0 .324.065.442.183l8.364 8.363a.627.627 0 0 1 0 .885l-6.654 6.653a.622.622 0 0 1-.442.183zM3.344 8.686l7.738 7.739 5.77-5.77-7.739-7.738H6.211L3.344 5.784v2.902zm5.45 2.614a.624.624 0 0 1-.442-1.067l2.308-2.307a.625.625 0 1 1 .884.884l-2.308 2.306a.62.62 0 0 1-.441.184zm2.108 2.107a.624.624 0 0 1-.442-1.067l2.307-2.307a.625.625 0 1 1 .885.884l-2.309 2.307a.62.62 0 0 1-.441.184z" fill-rule="evenodd"/></svg>