<svg width="20" height="20"><path d="M11.326 15.322c.135-.567.5-1.064 1.03-1.382a4.046 4.046 0 0 0 1.98-3.496 4.039 4.039 0 0 0-1.286-2.972 4.036 4.036 0 0 0-3.054-1.095c-1.972.125-3.602 1.699-3.79 3.662a4.05 4.05 0 0 0 2.003 3.926c.502.293.857.79.99 1.357h.564v-2.999l-1.467-1.87a.5.5 0 0 1 .788-.617l1.179 1.505 1.18-1.505a.501.501 0 0 1 .787.617l-1.467 1.87v2.999h.563zm-.108 1H9.304c.131.403.51.697.957.697.447 0 .827-.294.957-.697zm-.957-12.193a.5.5 0 0 1-.5-.5V2.045a.5.5 0 1 1 1 0V3.63a.5.5 0 0 1-.5.5zm2.876.853a.499.499 0 0 1-.436-.744l.845-1.515a.5.5 0 1 1 .873.488l-.845 1.514a.5.5 0 0 1-.437.257zm-5.748.005a.5.5 0 0 1-.437-.257l-.848-1.52a.5.5 0 1 1 .873-.486l.848 1.52a.499.499 0 0 1-.436.743zm2.873 13.032c-1.106 0-2.006-.9-2.006-2.006v-.191c0-.414-.211-.795-.552-.994A5.04 5.04 0 0 1 5.21 9.943c.235-2.446 2.265-4.409 4.722-4.564a5.059 5.059 0 0 1 3.802 1.364 5.093 5.093 0 0 1 1.603 3.701c0 1.772-.945 3.44-2.466 4.353-.378.228-.604.61-.604 1.025v.191c0 1.106-.9 2.006-2.005 2.006z" fill="#000" fill-rule="evenodd"/></svg>