<svg width="20" height="20"><g fill="#000" fill-rule="evenodd"><path d="M10.261 4.13a.5.5 0 0 1-.5-.5V2.044a.5.5 0 1 1 1 0V3.63a.5.5 0 0 1-.5.5zm2.876.852a.499.499 0 0 1-.436-.744l.845-1.515a.5.5 0 1 1 .873.488l-.845 1.514a.5.5 0 0 1-.437.257zm-5.748.005a.5.5 0 0 1-.437-.257l-.848-1.52a.5.5 0 1 1 .873-.486l.848 1.52a.499.499 0 0 1-.436.743zM10.264 6.369c-.09 0-.178.002-.268.008-1.972.125-3.602 1.699-3.79 3.662a4.05 4.05 0 0 0 2.003 3.926 2.15 2.15 0 0 1 1.047 1.857v.191c0 .554.451 1.006 1.005 1.006.555 0 1.006-.452 1.006-1.006v-.191c0-.77.407-1.473 1.09-1.882a4.046 4.046 0 0 0 1.98-3.496 4.039 4.039 0 0 0-1.287-2.972 4.036 4.036 0 0 0-2.786-1.103m-.002 11.65c-1.106 0-2.006-.9-2.006-2.006v-.191c0-.414-.211-.795-.552-.994A5.04 5.04 0 0 1 5.21 9.943c.235-2.446 2.265-4.409 4.722-4.564a5.059 5.059 0 0 1 3.802 1.364 5.093 5.093 0 0 1 1.603 3.701c0 1.772-.945 3.44-2.466 4.353-.378.228-.604.61-.604 1.025v.191c0 1.106-.9 2.006-2.005 2.006"/><path d="M10.262 18.018c-1.106 0-2.006-.899-2.006-2.005a.5.5 0 0 1 1 0c0 .554.451 1.005 1.005 1.005.554 0 1.006-.45 1.006-1.005a.5.5 0 1 1 1 0c0 1.106-.9 2.005-2.005 2.005M10.263 12.65a.5.5 0 0 1-.394-.19l-1.573-2.007a.5.5 0 0 1 .788-.617l1.179 1.505 1.18-1.505a.501.501 0 0 1 .787.617l-1.574 2.006a.5.5 0 0 1-.393.192"/><path d="M10.263 15.915a.5.5 0 0 1-.5-.5v-3.264a.5.5 0 1 1 1 0v3.264a.5.5 0 0 1-.5.5"/><path d="M11.767 16.322h-3.01a.5.5 0 1 1 0-1h3.01a.5.5 0 1 1 0 1"/></g></svg>