<?xml version="1.0" encoding="utf-8"?>
<!-- Generator: Adobe Illustrator 19.1.0, SVG Export Plug-In . SVG Version: 6.00 Build 0)  -->
<svg version="1.1" id="Calque_1" xmlns="http://www.w3.org/2000/svg" xmlns:xlink="http://www.w3.org/1999/xlink" x="0px" y="0px"
	 viewBox="0 0 20 20" enable-background="new 0 0 20 20" xml:space="preserve">
<g>
	<path fill="none" d="M17.18,18c0.23,0,0.43-0.09,0.58-0.24c0.15-0.15,0.24-0.34,0.24-0.56v-5.52h-4.85l0,6.31H17.18z"/>
	<path fill="none" d="M17.18,2h-4.03l0,3.41H18V2.79c0-0.21-0.09-0.41-0.24-0.56C17.61,2.09,17.41,2,17.18,2z"/>
	<path fill="none" d="M6.85,14.59H2v2.62c0,0.21,0.09,0.41,0.24,0.56C2.39,17.91,2.59,18,2.82,18h4.03L6.85,14.59z"/>
	<path fill="none" d="M2.82,2C2.59,2,2.39,2.09,2.24,2.24C2.09,2.39,2,2.58,2,2.79v5.52h4.85l0-6.31H2.82z"/>
	<path fill="#3A434C" d="M8.85,0h-1H2.82C1.27,0,0.01,1.24,0,2.79v7.52h8.85L8.85,0z M2,8.31V2.79c0-0.21,0.09-0.41,0.24-0.56
		C2.39,2.09,2.59,2,2.82,2h4.03l0,6.31H2z"/>
	<path fill="#3A434C" d="M17.18,0h-6.03l0,1l0,6.41H20V2.79C19.99,1.24,18.73,0,17.18,0z M18,5.41h-4.85l0-3.41h4.03
		c0.23,0,0.43,0.09,0.58,0.24C17.91,2.39,18,2.58,18,2.79V5.41z"/>
	<path fill="#3A434C" d="M11.15,20h1h5.03c1.55,0,2.82-1.24,2.82-2.79V9.69h-8.85L11.15,20z M18,11.69v5.52
		c0,0.21-0.09,0.41-0.24,0.56C17.61,17.91,17.41,18,17.18,18h-4.03l0-6.31H18z"/>
	<path fill="#3A434C" d="M8.85,12.59H0v4.62C0.01,18.76,1.27,20,2.82,20h6.03l0-1L8.85,12.59z M2.24,17.76
		C2.09,17.61,2,17.42,2,17.21v-2.62h4.85l0,3.41H2.82C2.59,18,2.39,17.91,2.24,17.76z"/>
</g>
</svg>
