<?xml version="1.0" encoding="utf-8"?>
<!-- Generator: Adobe Illustrator 19.2.1, SVG Export Plug-In . SVG Version: 6.00 Build 0)  -->
<svg version="1.1" id="Calque_1" xmlns="http://www.w3.org/2000/svg" xmlns:xlink="http://www.w3.org/1999/xlink" x="0px" y="0px"
	 viewBox="0 0 20 20" style="enable-background:new 0 0 20 20;" xml:space="preserve">
<style type="text/css">
	.st0{fill:#3A434C;}
</style>
<path class="st0" d="M8.9,0h-1h-5C1.3,0,0,1.2,0,2.8v7.5h8.9V0z M2,8.3V2.8c0-0.2,0.1-0.4,0.2-0.6C2.4,2.1,2.6,2,2.8,2h4v6.3
	C6.9,8.3,2,8.3,2,8.3z"/>
<path class="st0" d="M17.2,0h-6v1v6.4H20V2.8C20,1.2,18.7,0,17.2,0z M18,5.4h-4.9V2h4c0.2,0,0.4,0.1,0.6,0.2C17.9,2.4,18,2.6,18,2.8
	V5.4z"/>
<path class="st0" d="M11.1,20h1h5c1.5,0,2.8-1.2,2.8-2.8V9.7h-8.9V20z M18,11.7v5.5c0,0.2-0.1,0.4-0.2,0.6c-0.1,0.1-0.4,0.2-0.6,0.2
	h-4v-6.3C13.1,11.7,18,11.7,18,11.7z"/>
<path class="st0" d="M8.9,12.6H0v4.6C0,18.8,1.3,20,2.8,20h6v-1V12.6z M2.2,17.8C2.1,17.6,2,17.4,2,17.2v-2.6h4.8V18h-4
	C2.6,18,2.4,17.9,2.2,17.8z"/>
</svg>
