<?xml version="1.0" encoding="utf-8"?>
<!-- Generator: Adobe Illustrator 19.2.1, SVG Export Plug-In . SVG Version: 6.00 Build 0)  -->
<svg version="1.1" id="Calque_1" xmlns="http://www.w3.org/2000/svg" xmlns:xlink="http://www.w3.org/1999/xlink" x="0px" y="0px"
	 viewBox="0 0 20 20" style="enable-background:new 0 0 20 20;" xml:space="preserve">
<style type="text/css">
	.st0{fill:#3A434C;}
</style>
<path class="st0" d="M16.1,6.4c-0.4-0.4-1-0.4-1.4,0l-0.8,0.8L13,6.4c-0.4-0.4-1-0.4-1.4,0c-0.4,0.4-0.4,1,0,1.4l0.8,0.8l-0.9,0.9
	c-0.4,0.4-0.4,1,0,1.4c0.4,0.4,1,0.4,1.4,0l0.8-0.8l0.8,0.8c0.4,0.4,1,0.4,1.4,0s0.4-1,0-1.4l-0.8-0.8l0.8-0.8
	C16.5,7.4,16.5,6.8,16.1,6.4z"/>
<path class="st0" d="M17,13.9c-1-0.7-2.3-1.1-3.5-1.4C12.2,12.1,11,12,10,12c-1.5,0-3.6,0.4-5.4,1.1c-0.9,0.4-1.8,0.8-2.4,1.4
	c-0.3,0.3-0.6,0.7-0.9,1.1S1,16.5,1,17v2c0,0.3,0.1,0.5,0.3,0.7S1.7,20,2,20h16c0.3,0,0.5-0.1,0.7-0.3S19,19.3,19,19v-2
	c0-0.5-0.1-1-0.4-1.4C18.3,14.9,17.7,14.3,17,13.9z M17,18H3v-1c0-0.2,0-0.3,0.1-0.5c0.2-0.3,0.5-0.6,1-1c0.8-0.5,1.8-0.9,2.9-1.2
	c1.1-0.3,2.2-0.4,3-0.4c1.2,0,3.1,0.3,4.6,0.9c0.8,0.3,1.4,0.7,1.8,1.1c0.2,0.2,0.4,0.4,0.4,0.5C17,16.7,17,16.8,17,17L17,18L17,18z
	"/>
<path class="st0" d="M10,0C7.2,0,5,2.2,5,5c0,2.2,1.4,4.1,3.4,4.7c0.5,0.2,1.1-0.1,1.3-0.6C9.9,8.6,9.6,8,9,7.8C7.8,7.4,7,6.3,7,5
	c0-1.7,1.3-3,3-3c1.4,0,2.5,0.9,2.9,2.1c0.2,0.5,0.7,0.8,1.2,0.7c0.5-0.2,0.8-0.7,0.7-1.2l0,0C14.1,1.5,12.2,0,10,0z"/>
</svg>
