<svg viewBox="0 0 20 20"><path d="M16.1 6.4c-.4-.4-1-.4-1.4 0l-.8.8-.9-.8c-.4-.4-1-.4-1.4 0-.4.4-.4 1 0 1.4l.8.8-.9.9c-.4.4-.4 1 0 1.4.4.4 1 .4 1.4 0l.8-.8.8.8c.4.4 1 .4 1.4 0s.4-1 0-1.4l-.8-.8.8-.8c.6-.5.6-1.1.2-1.5zm.9 7.5c-1-.7-2.3-1.1-3.5-1.4-1.3-.4-2.5-.5-3.5-.5-1.5 0-3.6.4-5.4 1.1-.9.4-1.8.8-2.4 1.4-.3.3-.6.7-.9 1.1S1 16.5 1 17v2c0 .3.1.5.3.7s.4.3.7.3h16c.3 0 .5-.1.7-.3s.3-.4.3-.7v-2c0-.5-.1-1-.4-1.4-.3-.7-.9-1.3-1.6-1.7zm0 4.1H3v-1c0-.2 0-.3.1-.5.2-.3.5-.6 1-1 .8-.5 1.8-.9 2.9-1.2 1.1-.3 2.2-.4 3-.4 1.2 0 3.1.3 4.6.9.8.3 1.4.7 1.8 1.1.2.2.4.4.4.5.2.3.2.4.2.6v1z"/><path d="M10 0C7.2 0 5 2.2 5 5c0 2.2 1.4 4.1 3.4 4.7.5.2 1.1-.1 1.3-.6.2-.5-.1-1.1-.7-1.3C7.8 7.4 7 6.3 7 5c0-1.7 1.3-3 3-3 1.4 0 2.5.9 2.9 2.1.2.5.7.8 1.2.7.5-.2.8-.7.7-1.2C14.1 1.5 12.2 0 10 0z"/></svg>