<?xml version="1.0" encoding="utf-8"?>
<!-- Generator: Adobe Illustrator 19.1.0, SVG Export Plug-In . SVG Version: 6.00 Build 0)  -->
<svg version="1.1" id="Calque_1" xmlns="http://www.w3.org/2000/svg" xmlns:xlink="http://www.w3.org/1999/xlink" x="0px" y="0px"
	 viewBox="0 0 20 20" enable-background="new 0 0 20 20" xml:space="preserve">
<g>
	<path fill="none" d="M16.45,15.98c-0.41-0.38-1.06-0.76-1.82-1.06C13.12,14.31,11.18,13.99,10,14c-0.77,0-1.88,0.13-2.97,0.4
		c-1.09,0.27-2.18,0.68-2.93,1.16c-0.5,0.32-0.84,0.67-0.98,0.96C3.03,16.69,2.99,16.83,2.99,17v1h14.01v-1
		c0-0.16-0.04-0.31-0.12-0.48C16.8,16.36,16.66,16.17,16.45,15.98z"/>
	<path fill="#3A434C" d="M16.09,6.4c-0.39-0.39-1.02-0.39-1.41,0l-0.84,0.84L13,6.4c-0.39-0.39-1.02-0.39-1.41,0
		c-0.39,0.39-0.39,1.02,0,1.41l0.84,0.84L11.58,9.5c-0.39,0.39-0.39,1.02,0,1.41c0.39,0.39,1.02,0.39,1.41,0l0.84-0.84l0.84,0.84
		c0.39,0.39,1.02,0.39,1.41,0c0.39-0.39,0.39-1.02,0-1.41l-0.84-0.84l0.84-0.84C16.48,7.42,16.48,6.79,16.09,6.4z"/>
	<path fill="#3A434C" d="M16.98,13.88c-1.04-0.66-2.29-1.12-3.53-1.42C12.2,12.15,10.98,12,10,12C8.51,12,6.44,12.35,4.62,13.07
		c-0.91,0.37-1.75,0.82-2.43,1.44c-0.34,0.31-0.63,0.67-0.85,1.09c-0.22,0.42-0.35,0.9-0.35,1.4v2c0,0.26,0.11,0.52,0.29,0.71
		S1.73,20,1.99,20h16.01c0.26,0,0.52-0.11,0.71-0.29s0.29-0.44,0.29-0.71v-2c0-0.5-0.13-0.98-0.35-1.4
		C18.28,14.87,17.67,14.33,16.98,13.88z M17.01,18H2.99v-1c0-0.16,0.04-0.31,0.12-0.48c0.15-0.29,0.48-0.64,0.98-0.96
		c0.75-0.49,1.84-0.9,2.93-1.16c1.09-0.27,2.2-0.4,2.97-0.4c1.18-0.01,3.12,0.32,4.63,0.93c0.76,0.3,1.41,0.68,1.82,1.06
		c0.2,0.19,0.35,0.37,0.43,0.54c0.09,0.17,0.12,0.31,0.12,0.48V18z"/>
	<path fill="#3A434C" d="M10,0C7.24,0,5,2.24,5,5c0,2.2,1.42,4.07,3.4,4.74c0.52,0.18,1.09-0.1,1.27-0.63
		c0.18-0.52-0.1-1.09-0.63-1.27C7.85,7.45,7,6.33,7,5c0-1.66,1.34-3,3-3c1.35,0,2.49,0.89,2.87,2.11c0.16,0.53,0.72,0.82,1.25,0.66
		c0.53-0.16,0.82-0.72,0.66-1.25v0C14.15,1.48,12.25,0,10,0z"/>
</g>
</svg>
