<?xml version="1.0" encoding="utf-8"?>
<svg version="1.1" xmlns="http://www.w3.org/2000/svg" xmlns:xlink="http://www.w3.org/1999/xlink" x="0px" y="0px"
	 viewBox="0 0 32 32" style="enable-background:new 0 0 32 32;" xml:space="preserve">
<g id="diagram">
	<path d="M13.4,28.8c-5.7,0-10.3-4.6-10.3-10.3c0-5.2,3.8-9.4,8.8-10.2l0,10.2c0,0.9,0.7,1.6,1.6,1.6l10.1,0
		C22.7,25.1,18.5,28.8,13.4,28.8 M13.6,5.1C13.6,5.1,13.6,5.1,13.6,5.1L13.6,5.1C6,5.1,0,11.1-0.1,18.6c0,7.5,6,13.5,13.5,13.5
		c7.4,0,13.4-6,13.5-13.4c0-0.9-0.7-1.6-1.6-1.6l-10.2,0l0-10.4C15.1,5.8,14.5,5.1,13.6,5.1 M28.6,11.6l-8-0.1l-0.1-8.1
		C24.6,4.1,27.9,7.4,28.6,11.6 M31.9,13.2C31.9,6,26.1,0.1,18.9,0c-0.9,0-1.6,0.7-1.6,1.6l0.1,11.5c0,0.9,0.7,1.6,1.6,1.6l11.3,0.1
		C31.2,14.8,32,14.1,31.9,13.2C31.9,13.3,31.9,13.3,31.9,13.2C31.9,13.2,31.9,13.2,31.9,13.2"/>
</g>
</svg>
