<?xml version="1.0" encoding="UTF-8"?>
<svg width="20px" height="18px" viewBox="0 0 20 18" version="1.1" xmlns="http://www.w3.org/2000/svg" xmlns:xlink="http://www.w3.org/1999/xlink">
    <!-- Generator: Sketch 43.2 (39069) - http://www.bohemiancoding.com/sketch -->
    <title>Combined Shape</title>
    <desc>Created with Sketch.</desc>
    <defs></defs>
    <g id="Page-1" stroke="none" stroke-width="1" fill="none" fill-rule="evenodd">
        <g id="wisembly-icons-tapestry-2-61" fill-rule="nonzero" fill="#000000">
            <path d="M19,9.94736842 L1,9.94736842 C0.44771525,9.94736842 6.76353751e-17,9.49965317 0,8.94736842 C-6.76353751e-17,8.39508367 0.44771525,7.94736842 1,7.94736842 L19,7.94736842 C19.5522847,7.94736842 20,8.39508367 20,8.94736842 C20,9.49965317 19.5522847,9.94736842 19,9.94736842 Z M16.9473684,1.00000027 C16.9473684,0.447715517 17.3950837,2.66663803e-07 17.9473684,2.66663804e-07 C18.484402,-0.000429525408 18.9258872,0.423396349 18.9473684,0.960000267 L18.9473684,2.96000027 C18.9473684,3.93202143 18.1593896,4.72000027 17.1873684,4.72000027 L2.81263158,4.72000027 C1.85601952,4.72024736 1.07437273,3.95636527 1.05263158,3.00000027 L1.05263158,1.00000027 C1.05263158,0.447715517 1.50034683,2.66663974e-07 2.05263158,2.66663974e-07 C2.60491633,2.66663974e-07 3.05263158,0.447715517 3.05263158,1.00000027 L3.05263158,2.72000027 L16.9473684,2.72000027 L16.9473684,1.00000027 Z M2.81263158,13.1347369 L17.1873684,13.1347369 C18.1439805,13.1344898 18.9256273,13.8983719 18.9473684,14.8547369 L18.9473684,16.8547369 C18.9473684,17.4070217 18.4996532,17.8547369 17.9473684,17.8547369 C17.3950837,17.8547369 16.9473684,17.4070217 16.9473684,16.8547369 L16.9473684,15.1347369 L3.05263158,15.1347369 L3.05263158,16.8947369 C3.05263158,17.4470217 2.60491633,17.8947369 2.05263158,17.8947369 C1.50034683,17.8947369 1.05263158,17.4470217 1.05263158,16.8947369 L1.05263158,14.8947369 C1.05263158,13.9227157 1.84061042,13.1347369 2.81263158,13.1347369 Z" id="Combined-Shape"></path>
        </g>
    </g>
</svg>