<?xml version="1.0" encoding="utf-8"?>
<!-- Generator: Adobe Illustrator 19.2.1, SVG Export Plug-In . SVG Version: 6.00 Build 0)  -->
<svg version="1.1" id="Calque_1" xmlns="http://www.w3.org/2000/svg" xmlns:xlink="http://www.w3.org/1999/xlink" x="0px" y="0px"
	 viewBox="0 0 20 20" style="enable-background:new 0 0 20 20;" xml:space="preserve">
<style type="text/css">
	.st0{fill:#3A434C;}
</style>
<path class="st0" d="M18.7,14V2.8c0-0.8-0.3-1.5-0.9-2c-0.5-0.5-1.2-0.8-2-0.8H4.1c-0.8,0-1.5,0.3-2,0.8C1.6,1.4,1.3,2,1.3,2.8v14.4
	c0,0.8,0.3,1.5,0.9,2c0.5,0.5,1.2,0.8,2,0.8h9.6l4.9-5.6L18.7,14L18.7,14z M3.5,17.7c-0.2-0.1-0.2-0.3-0.2-0.5V2.8
	c0-0.2,0.1-0.3,0.2-0.5c0.2-0.1,0.4-0.2,0.6-0.2h11.7c0.2,0,0.5,0.1,0.6,0.2c0.1,0.1,0.2,0.3,0.2,0.5v10H12l0,5.1H4.1
	C3.9,17.9,3.7,17.8,3.5,17.7z"/>
<path class="st0" d="M6.6,6h7c0.6,0,1-0.4,1-1s-0.4-1-1-1h-7c-0.6,0-1,0.4-1,1S6,6,6.6,6z"/>
<path class="st0" d="M14.6,8.6c0-0.6-0.4-1-1-1h-7c-0.6,0-1,0.4-1,1s0.4,1,1,1h7C14.1,9.6,14.6,9.2,14.6,8.6z"/>
</svg>
