<svg viewBox="0 0 20 20"><path d="M9 5.5h5.1c.4 0 .8-.3.8-.8s-.4-.7-.8-.7H9c-.4 0-.8.4-.8.8s.4.7.8.7z"/><circle cx="6.3" cy="4.8" r=".8"/><path d="M6.2 11.7h7.9c.4 0 .8-.3.8-.8s-.3-.8-.8-.8H6.2c-.4 0-.8.3-.8.8s.4.8.8.8zm0-3.1h7.9c.4 0 .8-.3.8-.8s-.3-.8-.8-.8H6.2c-.4 0-.8.3-.8.8s.4.8.8.8z"/><path d="M1.2 18.2c0 1 .8 1.8 1.8 1.8h10.6c.2 0 .4-.1.5-.2l4.2-4.2c.2-.1.4-.4.4-.6V1.8c0-1-.8-1.8-1.8-1.8H3C2 0 1.2.8 1.2 1.8v16.4zM2.8 1.8l.1-.2.1-.1h14l.2.1.1.2v12.5h-3.6c-.2 0-.4.1-.5.2-.1.1-.2.3-.2.5v3.5H3l-.2-.1-.1-.2V1.8z"/></svg>