<?xml version="1.0" encoding="utf-8"?>
<!-- Generator: Adobe Illustrator 19.1.0, SVG Export Plug-In . SVG Version: 6.00 Build 0)  -->
<svg version="1.1" id="Calque_1" xmlns="http://www.w3.org/2000/svg" xmlns:xlink="http://www.w3.org/1999/xlink" x="0px" y="0px"
	 viewBox="0 0 20 20" enable-background="new 0 0 20 20" xml:space="preserve">
<g>
	<path fill="none" d="M3.04,18.5h9.84v-3.46c0-0.2,0.08-0.39,0.22-0.53c0.14-0.14,0.33-0.22,0.53-0.22h3.63V1.76l-0.08-0.18
		L16.96,1.5H3.04L2.83,1.58L2.75,1.76v16.47l0.08,0.18L3.04,18.5z M8.97,4.01h5.14c0.41,0,0.75,0.34,0.75,0.75
		c0,0.41-0.34,0.75-0.75,0.75H8.97c-0.41,0-0.75-0.34-0.75-0.75C8.22,4.34,8.56,4.01,8.97,4.01z M6.27,4c0.41,0,0.75,0.34,0.75,0.75
		c0,0.41-0.34,0.75-0.75,0.75c-0.41,0-0.75-0.34-0.75-0.75C5.52,4.33,5.86,4,6.27,4z M6.22,7.09h7.93c0.41,0,0.75,0.34,0.75,0.75
		c0,0.41-0.34,0.75-0.75,0.75H6.22c-0.41,0-0.75-0.34-0.75-0.75C5.47,7.42,5.8,7.09,6.22,7.09z M6.22,10.16h7.93
		c0.41,0,0.75,0.34,0.75,0.75c0,0.41-0.34,0.75-0.75,0.75H6.22c-0.41,0-0.75-0.34-0.75-0.75C5.47,10.5,5.8,10.16,6.22,10.16z"/>
	<path fill="#3A434C" d="M8.97,5.51h5.14c0.41,0,0.75-0.34,0.75-0.75c0-0.41-0.34-0.75-0.75-0.75H8.97c-0.41,0-0.75,0.34-0.75,0.75
		C8.22,5.17,8.56,5.51,8.97,5.51z"/>
	<circle fill="#3A434C" cx="6.27" cy="4.75" r="0.75"/>
	<path fill="#3A434C" d="M6.22,11.66h7.93c0.41,0,0.75-0.34,0.75-0.75c0-0.41-0.34-0.75-0.75-0.75H6.22c-0.41,0-0.75,0.34-0.75,0.75
		C5.47,11.32,5.8,11.66,6.22,11.66z"/>
	<path fill="#3A434C" d="M6.22,8.59h7.93c0.41,0,0.75-0.34,0.75-0.75c0-0.41-0.34-0.75-0.75-0.75H6.22c-0.41,0-0.75,0.34-0.75,0.75
		C5.47,8.25,5.8,8.59,6.22,8.59z"/>
	<path fill="#3A434C" d="M1.25,18.24c0,0.99,0.81,1.76,1.79,1.76h10.55c0.01,0,0.02-0.01,0.03-0.01c0.2,0,0.39-0.07,0.54-0.21
		l4.19-4.17c0.24-0.13,0.4-0.37,0.4-0.65V1.76c0-0.99-0.81-1.76-1.79-1.76H3.04C2.06,0,1.25,0.78,1.25,1.76V18.24z M2.75,1.76
		l0.08-0.18L3.04,1.5h13.93l0.21,0.08l0.08,0.18v12.53h-3.63c-0.2,0-0.39,0.08-0.53,0.22c-0.14,0.14-0.22,0.33-0.22,0.53v3.46H3.04
		l-0.21-0.08l-0.08-0.18V1.76z"/>
</g>
</svg>
