<?xml version="1.0" encoding="UTF-8" standalone="no"?>
<svg width="18px" height="20px" viewBox="0 0 18 20" version="1.1" xmlns="http://www.w3.org/2000/svg" xmlns:xlink="http://www.w3.org/1999/xlink" xmlns:sketch="http://www.bohemiancoding.com/sketch/ns">
    <!-- Generator: Sketch 3.4.2 (15857) - http://www.bohemiancoding.com/sketch -->
    <title>document</title>
    <desc>Created with Sketch.</desc>
    <defs></defs>
    <g id="Page-1" stroke="none" stroke-width="1" fill="none" fill-rule="evenodd" sketch:type="MSPage">
        <g id="document" sketch:type="MSArtboardGroup" transform="translate(-7.000000, -6.000000)" fill="#3A434C">
            <g sketch:type="MSLayerGroup" transform="translate(7.000000, 6.000000)">
                <path d="M17.1311883,0.776633234 C16.6062813,0.294117647 15.8892332,0 15.1095304,0 L2.89047383,0 C2.11077104,0 1.39372295,0.294117647 0.867423563,0.776633234 C0.342516508,1.25779344 -0.00138811439,1.9476823 4.21201192e-06,2.71076172 L4.21201192e-06,17.2892383 C-0.00138811439,18.0523177 0.342516508,18.7422066 0.867423563,19.2233668 C1.39372295,19.7058824 2.11077104,20 2.89047383,20 L12.9040854,20 L18,14.4049878 L18,2.71076172 C18,1.9476823 17.6560954,1.25779344 17.1311883,0.776633234 L17.1311883,0.776633234 Z M2.20684157,17.843589 C2.03697775,17.6863649 1.94926118,17.4952562 1.94926118,17.2892383 L1.94926118,2.71076172 C1.94926118,2.50474383 2.03697775,2.31363513 2.20684157,2.15641095 C2.37531306,2.00054215 2.61618553,1.89753321 2.89047383,1.89753321 L15.1095304,1.89753321 C15.3824264,1.89753321 15.6232988,2.00054215 15.7931626,2.15641095 C15.9616341,2.31363513 16.0493507,2.50474383 16.050743,2.71076172 L16.050743,13.0523177 L11.1650697,13.0523177 L11.1817776,18.1024668 L2.89047383,18.1024668 C2.61618553,18.1024668 2.37531306,17.9994578 2.20684157,17.843589 L2.20684157,17.843589 Z" id="Fill-1" sketch:type="MSShapeGroup"></path>
                <path d="M4.94665665,7 L12.0533434,7 C12.5753569,7 13,6.55285714 13,6 C13,5.44714286 12.5753569,5 12.0533434,5 L4.94665665,5 C4.42329076,5 4,5.44714286 4,6 C4,6.55285714 4.42329076,7 4.94665665,7" id="Fill-2" sketch:type="MSShapeGroup"></path>
                <path d="M13,9 C13,8.44714286 12.5753569,8 12.0533434,8 L4.94665665,8 C4.42329076,8 4,8.44714286 4,9 C4,9.55285714 4.42329076,10 4.94665665,10 L12.0533434,10 C12.5753569,10 13,9.55285714 13,9" id="Fill-3" sketch:type="MSShapeGroup"></path>
            </g>
        </g>
    </g>
</svg>