<?xml version="1.0" encoding="utf-8"?>
<!-- Generator: Adobe Illustrator 19.2.1, SVG Export Plug-In . SVG Version: 6.00 Build 0)  -->
<svg version="1.1" id="Calque_1" xmlns="http://www.w3.org/2000/svg" xmlns:xlink="http://www.w3.org/1999/xlink" x="0px" y="0px"
	 viewBox="0 0 20 20" style="enable-background:new 0 0 20 20;" xml:space="preserve">
<style type="text/css">
	.st0{fill:#3A434C;}
</style>
<path class="st0" d="M9,5.5h5.1c0.4,0,0.8-0.3,0.8-0.8S14.5,4,14.1,4H9C8.6,4,8.2,4.4,8.2,4.8S8.6,5.5,9,5.5z"/>
<circle class="st0" cx="6.3" cy="4.8" r="0.8"/>
<path class="st0" d="M6.2,11.7h7.9c0.4,0,0.8-0.3,0.8-0.8s-0.3-0.8-0.8-0.8H6.2c-0.4,0-0.8,0.3-0.8,0.8S5.8,11.7,6.2,11.7z"/>
<path class="st0" d="M6.2,8.6h7.9c0.4,0,0.8-0.3,0.8-0.8s-0.3-0.8-0.8-0.8H6.2c-0.4,0-0.8,0.3-0.8,0.8S5.8,8.6,6.2,8.6z"/>
<path class="st0" d="M1.2,18.2c0,1,0.8,1.8,1.8,1.8h10.6c0,0,0,0,0,0c0.2,0,0.4-0.1,0.5-0.2l4.2-4.2c0.2-0.1,0.4-0.4,0.4-0.6V1.8
	c0-1-0.8-1.8-1.8-1.8H3c-1,0-1.8,0.8-1.8,1.8V18.2z M2.8,1.8l0.1-0.2L3,1.5H17l0.2,0.1l0.1,0.2v12.5h-3.6c-0.2,0-0.4,0.1-0.5,0.2
	c-0.1,0.1-0.2,0.3-0.2,0.5v3.5H3l-0.2-0.1l-0.1-0.2V1.8z"/>
</svg>
