<?xml version="1.0" encoding="utf-8"?>
<!-- Generator: Adobe Illustrator 19.1.0, SVG Export Plug-In . SVG Version: 6.00 Build 0)  -->
<svg version="1.1" id="Calque_1" xmlns="http://www.w3.org/2000/svg" xmlns:xlink="http://www.w3.org/1999/xlink" x="0px" y="0px"
	 viewBox="0 0 20 20" enable-background="new 0 0 20 20" xml:space="preserve">
<path fill="none" d="M12.01,12.78h4.69V2.82c0-0.18-0.08-0.35-0.23-0.5c-0.15-0.14-0.37-0.24-0.61-0.24H4.14
	c-0.25,0-0.46,0.09-0.61,0.24C3.38,2.47,3.3,2.64,3.3,2.82v14.37c0,0.18,0.08,0.35,0.23,0.5c0.15,0.14,0.37,0.24,0.61,0.24h7.89
	L12.01,12.78z M6.58,3.99h7.02c0.55,0,1,0.45,1,1s-0.45,1-1,1H6.58c-0.55,0-1-0.45-1-1S6.03,3.99,6.58,3.99z M5.58,8.65
	c0-0.55,0.45-1,1-1h7.02c0.55,0,1,0.45,1,1c0,0.55-0.45,1-1,1H6.58C6.03,9.65,5.58,9.2,5.58,8.65z"/>
<path fill="#3A434C" d="M18.7,13.99V2.82c0-0.77-0.34-1.47-0.85-1.95c-0.52-0.49-1.22-0.78-1.98-0.78H4.14
	c-0.76,0-1.47,0.3-1.98,0.78C1.64,1.35,1.3,2.05,1.3,2.82v14.37c0,0.77,0.34,1.47,0.85,1.95c0.52,0.49,1.22,0.78,1.98,0.78h9.63
	l4.92-5.55V13.99z M3.53,17.68c-0.15-0.14-0.23-0.32-0.23-0.5V2.82c0-0.18,0.08-0.35,0.23-0.5c0.15-0.14,0.37-0.24,0.61-0.24h11.72
	c0.25,0,0.46,0.09,0.61,0.24c0.15,0.14,0.23,0.31,0.23,0.5v9.96h-4.69l0.02,5.14H4.14C3.89,17.92,3.68,17.83,3.53,17.68z"/>
<path fill="#3A434C" d="M6.58,5.99h7.02c0.55,0,1-0.45,1-1s-0.45-1-1-1H6.58c-0.55,0-1,0.45-1,1S6.03,5.99,6.58,5.99z"/>
<path fill="#3A434C" d="M14.6,8.65c0-0.55-0.45-1-1-1H6.58c-0.55,0-1,0.45-1,1c0,0.55,0.45,1,1,1h7.02
	C14.15,9.65,14.6,9.2,14.6,8.65z"/>
</svg>
