<?xml version="1.0" encoding="utf-8"?>
<!-- Generator: Adobe Illustrator 19.2.1, SVG Export Plug-In . SVG Version: 6.00 Build 0)  -->
<svg version="1.1" id="Calque_1" xmlns="http://www.w3.org/2000/svg" xmlns:xlink="http://www.w3.org/1999/xlink" x="0px" y="0px"
	 viewBox="0 0 20 20" enable-background="new 0 0 20 20" xml:space="preserve">
<path fill="#3A434C" d="M7.92,0.01L7.79,0c-0.36,0-0.7,0.12-0.96,0.29C6.43,0.56,6.18,0.92,6,1.32c-0.17,0.4-0.26,0.84-0.26,1.31
	v0.24H4.03c-0.35,0-0.67,0.13-0.9,0.3C2.78,3.44,2.59,3.76,2.45,4.11c-0.13,0.35-0.2,0.73-0.2,1.12v9.44c0,0.53,0.12,1.03,0.36,1.46
	c0.13,0.22,0.29,0.43,0.52,0.6s0.55,0.31,0.9,0.3h1.71V19c0,0.31,0.15,0.6,0.39,0.79C6.38,19.98,6.7,20.05,7,19.97l10.01-2.7
	c0.44-0.12,0.74-0.51,0.74-0.97V3.71c0-0.62-0.16-1.2-0.47-1.69c-0.16-0.24-0.36-0.47-0.62-0.64c-0.23-0.15-0.52-0.25-0.82-0.27V1.1
	L7.92,0.01z M15.75,15.54L7.74,17.7V2.63c0-0.27,0.08-0.5,0.15-0.6l7.69,1.05h0.01c0.06,0.07,0.18,0.32,0.17,0.64v11.82H15.75z
	 M4.3,15.04l-0.01-0.02c-0.03-0.09-0.05-0.21-0.05-0.35V5.23c0-0.15,0.03-0.28,0.06-0.37h1.44v10.18C5.74,15.04,4.3,15.04,4.3,15.04
	z"/>
<circle fill="#3A434C" cx="10.45" cy="9.94" r="1.22"/>
</svg>
