<?xml version="1.0" encoding="UTF-8" standalone="no"?>
<svg width="20px" height="20px" viewBox="0 0 20 20" version="1.1" xmlns="http://www.w3.org/2000/svg" xmlns:xlink="http://www.w3.org/1999/xlink" xmlns:sketch="http://www.bohemiancoding.com/sketch/ns">
    <!-- Generator: Sketch 3.4.2 (15857) - http://www.bohemiancoding.com/sketch -->
    <title>download</title>
    <desc>Created with Sketch.</desc>
    <defs></defs>
    <g id="Page-1" stroke="none" stroke-width="1" fill="none" fill-rule="evenodd" sketch:type="MSPage">
        <g id="download" sketch:type="MSArtboardGroup" transform="translate(-6.000000, -6.000000)" fill="#3A434C">
            <path d="M17,21.8284271 L17,14.9953976 C17,14.4556644 17.4477153,14 18,14 C18.5561352,14 19,14.4456547 19,14.9953976 L19,21.8284271 L21.5376339,19.2907932 C21.9222956,18.9061315 22.5592232,18.9023689 22.9497475,19.2928932 C23.3429944,19.6861402 23.341212,20.3156423 22.9518475,20.7050068 L18.7050068,24.9518475 C18.5130207,25.1438336 18.258194,25.240936 18.0025258,25.2414902 C17.7434863,25.2439683 17.4893292,25.1461835 17.2949932,24.9518475 L13.0481525,20.7050068 C12.6634908,20.320345 12.6597282,19.6834175 13.0502525,19.2928932 C13.4434995,18.8996463 14.0730016,18.9014287 14.4623661,19.2907932 L17,21.8284271 L17,21.8284271 L17,21.8284271 Z M20,17 L23,17 L23,16.9645556 C24.6961471,16.7219407 26,15.263236 26,13.5 C26,12.0505649 25.1189405,10.8069124 23.86317,10.2753909 L23.86317,10.2753909 C23.3065089,7.82727048 21.1166454,6 18.5,6 C16.3302021,6 14.4538682,7.25646864 13.558893,9.08151127 L13.558893,9.08151127 C13.1079034,8.4281571 12.3539524,8 11.5,8 C10.1192881,8 9,9.11928813 9,10.5 C9,10.6713777 9.01724425,10.8387278 9.05009227,11.0004098 C9.03342754,11.0001369 9.01672976,11 9,11 C7.34314575,11 6,12.3431458 6,14 C6,15.6568542 7.34314575,17 9,17 L16,17 L16,14.9981014 C16,13.8867064 16.8954305,13 18,13 C19.1122704,13 20,13.8945804 20,14.9981014 L20,17 L20,17 Z" sketch:type="MSShapeGroup"></path>
        </g>
    </g>
</svg>