<?xml version="1.0" encoding="UTF-8" standalone="no"?>
<svg width="20px" height="20px" viewBox="0 0 20 20" version="1.1" xmlns="http://www.w3.org/2000/svg" xmlns:xlink="http://www.w3.org/1999/xlink">
    <!-- Generator: Sketch 3.8.3 (29802) - http://www.bohemiancoding.com/sketch -->
    <title>download</title>
    <desc>Created with Sketch.</desc>
    <defs></defs>
    <g stroke="none" stroke-width="1" fill="none" fill-rule="evenodd">
        <g transform="translate(-6.000000, -6.000000)" fill="#3A434C">
            <path d="M25.0322581,14.5397628 C24.4980645,14.5397628 24.0645161,14.9859815 24.0645161,15.5357865 L24.0645161,15.5357865 L24.0645161,21.8014397 C24.0645161,22.0046286 23.9870968,22.1839128 23.8670968,22.3127319 C23.7445161,22.440223 23.5987097,22.5066245 23.4387097,22.5079526 L8.56129032,22.5079526 C8.40129032,22.5066245 8.25548387,22.440223 8.13290323,22.3127319 C8.01290323,22.1839128 7.93548387,22.0046286 7.93548387,21.8014397 L7.93548387,15.5357865 C7.93548387,14.9859815 7.50193548,14.5397628 6.96774194,14.5397628 C6.43354839,14.5397628 6,14.9859815 6,15.5357865 L6,21.8014397 C6,23.2636026 7.11741935,24.4907038 8.56129032,24.5 L23.4387097,24.5 C24.8812903,24.4907038 26,23.2636026 26,21.8014397 L26,15.5357865 C26,14.9859815 25.5664516,14.5397628 25.0322581,14.5397628 M12.5779355,13.6859713 L15.3147097,16.5027264 C15.4979355,16.6913069 15.7405161,16.7948933 15.999871,16.7948933 C16.2579355,16.7948933 16.5005161,16.6913069 16.6837419,16.5027264 L19.4205161,13.6859713 C19.7985806,13.296858 19.7985806,12.666043 19.4205161,12.2769297 C19.0424516,11.8891445 18.4308387,11.8891445 18.0527742,12.2769297 L16.9676129,13.3938043 L16.9676129,8.49602372 C16.9676129,7.94489059 16.5340645,7.5 15.999871,7.5 C15.4656774,7.5 15.032129,7.94489059 15.032129,8.49602372 L15.032129,13.3951324 L13.9469677,12.2769297 C13.5689032,11.8878165 12.956,11.8891445 12.5779355,12.2769297 C12.199871,12.666043 12.199871,13.296858 12.5779355,13.6859713 L12.5779355,13.6859713 Z"></path>
        </g>
    </g>
</svg>