<?xml version="1.0" encoding="utf-8"?>
<!-- Generator: Adobe Illustrator 19.1.0, SVG Export Plug-In . SVG Version: 6.00 Build 0)  -->
<svg version="1.1" id="Calque_1" xmlns="http://www.w3.org/2000/svg" xmlns:xlink="http://www.w3.org/1999/xlink" x="0px" y="0px"
	 viewBox="0 0 20 20" enable-background="new 0 0 20 20" xml:space="preserve">
<path fill="#3A434C" d="M0,15.16c0,0.72,0.28,1.38,0.75,1.86c0.46,0.48,1.12,0.79,1.84,0.79h14.82c0.72,0,1.38-0.31,1.84-0.79
	c0.46-0.48,0.75-1.14,0.75-1.86V9.1c0-0.55-0.45-1-1-1s-1,0.45-1,1v6.07c0,0.19-0.07,0.35-0.19,0.47c-0.12,0.12-0.25,0.18-0.4,0.18
	H2.59c-0.15,0-0.29-0.06-0.4-0.18C2.07,15.52,2,15.35,2,15.16V9.1c0-0.55-0.45-1-1-1s-1,0.45-1,1V15.16z"/>
<path fill="#3A434C" d="M10,2.19c-0.55,0-1,0.45-1,1v4.66L7.98,6.82c-0.39-0.39-1.02-0.39-1.41,0c-0.39,0.39-0.39,1.02,0,1.41
	l2.73,2.73c0.39,0.39,1.02,0.39,1.41,0l2.73-2.73c0.39-0.39,0.39-1.02,0-1.41s-1.02-0.39-1.41,0L11,7.84V3.19
	C11,2.64,10.55,2.19,10,2.19z"/>
</svg>
