<?xml version="1.0" encoding="utf-8"?>
<!-- Generator: Adobe Illustrator 19.1.0, SVG Export Plug-In . SVG Version: 6.00 Build 0)  -->
<svg version="1.1" id="Calque_1" xmlns="http://www.w3.org/2000/svg" xmlns:xlink="http://www.w3.org/1999/xlink" x="0px" y="0px"
	 viewBox="0 0 10 20" enable-background="new 0 0 10 20" xml:space="preserve">
<g>
	<path fill="#3A434C" d="M0,1v18c0,0.55,0.45,1,1,1c0.55,0,1-0.45,1-1V1c0-0.55-0.45-1-1-1C0.45,0,0,0.45,0,1"/>
	<path fill="#3A434C" d="M4,1v18c0,0.55,0.45,1,1,1c0.55,0,1-0.45,1-1V1c0-0.55-0.45-1-1-1C4.45,0,4,0.45,4,1"/>
	<path fill="#3A434C" d="M8,1v18c0,0.55,0.45,1,1,1c0.55,0,1-0.45,1-1V1c0-0.55-0.45-1-1-1C8.45,0,8,0.45,8,1"/>
</g>
</svg>
