<?xml version="1.0" encoding="utf-8"?>
<!-- Generator: Adobe Illustrator 19.2.1, SVG Export Plug-In . SVG Version: 6.00 Build 0)  -->
<svg version="1.1" id="Calque_1" xmlns="http://www.w3.org/2000/svg" xmlns:xlink="http://www.w3.org/1999/xlink" x="0px" y="0px"
	 viewBox="0 0 10 20" style="enable-background:new 0 0 10 20;" xml:space="preserve">
<style type="text/css">
	.st0{fill:#3A434C;}
</style>
<path class="st0" d="M0,1v18c0,0.5,0.4,1,1,1s1-0.5,1-1V1c0-0.6-0.5-1-1-1S0,0.4,0,1"/>
<path class="st0" d="M4,1v18c0,0.5,0.4,1,1,1s1-0.5,1-1V1c0-0.6-0.4-1-1-1S4,0.4,4,1"/>
<path class="st0" d="M8,1v18c0,0.5,0.4,1,1,1s1-0.5,1-1V1c0-0.6-0.4-1-1-1S8,0.4,8,1"/>
</svg>
