<?xml version="1.0" encoding="UTF-8" standalone="no"?>
<svg width="20px" height="20px" viewBox="0 0 20 20" version="1.1" xmlns="http://www.w3.org/2000/svg" xmlns:xlink="http://www.w3.org/1999/xlink" xmlns:sketch="http://www.bohemiancoding.com/sketch/ns">
    <!-- Generator: Sketch 3.5.2 (25235) - http://www.bohemiancoding.com/sketch -->
    <title>dragVertical</title>
    <desc>Created with Sketch.</desc>
    <defs></defs>
    <g id="Page-1" stroke="none" stroke-width="1" fill="none" fill-rule="evenodd" sketch:type="MSPage">
        <g id="dragVertical" sketch:type="MSArtboardGroup" transform="translate(-6.000000, -6.000000)" fill="#3A434C">
            <path d="M13.080497,18.8365013 C12.4831365,18.8365013 12,19.3201978 12,19.9182507 C12,20.5163035 12.4831365,21 13.080497,21 L18.919503,21 C19.5153199,21 20,20.5163035 20,19.9182507 C20,19.3201978 19.5153199,18.8365013 18.919503,18.8365013 L13.080497,18.8365013 Z M13.080497,14.9190233 C12.4831365,14.9190233 12,15.4027198 12,16.0007727 C12,16.5972802 12.4831365,17.082522 13.080497,17.082522 L18.919503,17.082522 C19.5153199,17.082522 20,16.5972802 20,16.0007727 C20,15.4027198 19.5153199,14.9190233 18.919503,14.9190233 L13.080497,14.9190233 Z M18.919503,13.1634987 C19.5153199,13.1634987 20,12.6798022 20,12.0817493 C20,11.4852418 19.5153199,11 18.919503,11 L13.080497,11 C12.4831365,11 12,11.4852418 12,12.0817493 C12,12.6798022 12.4831365,13.1634987 13.080497,13.1634987 L18.919503,13.1634987 Z" id="icon-reorder-copy" sketch:type="MSShapeGroup"></path>
        </g>
    </g>
</svg>