<?xml version="1.0" encoding="utf-8"?>
<!-- Generator: Adobe Illustrator 19.1.0, SVG Export Plug-In . SVG Version: 6.00 Build 0)  -->
<svg version="1.1" id="Calque_1" xmlns="http://www.w3.org/2000/svg" xmlns:xlink="http://www.w3.org/1999/xlink" x="0px" y="0px"
	 viewBox="0 0 7 20" enable-background="new 0 0 7 20" xml:space="preserve">
<g>
	<path fill="#3A434C" d="M0.99,7.55h5c0.55,0,1-0.45,1-1c0-0.55-0.45-1-1-1h-5c-0.55,0-1,0.45-1,1C-0.01,7.1,0.44,7.55,0.99,7.55z"
		/>
	<path fill="#3A434C" d="M0.99,11.01h5c0.55,0,1-0.45,1-1s-0.45-1-1-1h-5c-0.55,0-1,0.45-1,1S0.44,11.01,0.99,11.01z"/>
	<path fill="#3A434C" d="M0.99,14.45h5c0.55,0,1-0.45,1-1c0-0.55-0.45-1-1-1h-5c-0.55,0-1,0.45-1,1C-0.01,14,0.44,14.45,0.99,14.45z
		"/>
</g>
</svg>
