<?xml version="1.0" encoding="utf-8"?>
<!-- Generator: Adobe Illustrator 19.2.1, SVG Export Plug-In . SVG Version: 6.00 Build 0)  -->
<svg version="1.1" id="Calque_1" xmlns="http://www.w3.org/2000/svg" xmlns:xlink="http://www.w3.org/1999/xlink" x="0px" y="0px"
	 viewBox="0 0 7 20" style="enable-background:new 0 0 7 20;" xml:space="preserve">
<style type="text/css">
	.st0{fill:#3A434C;}
</style>
<path class="st0" d="M1,7.6h5c0.6,0,1-0.4,1-1s-0.4-1-1-1H1c-0.6,0-1,0.4-1,1C0,7.1,0.4,7.6,1,7.6z"/>
<path class="st0" d="M1,11h5c0.6,0,1-0.4,1-1S6.5,9,6,9H1c-0.6,0-1,0.4-1,1S0.4,11,1,11z"/>
<path class="st0" d="M1,14.4h5c0.6,0,1-0.4,1-1s-0.4-1-1-1H1c-0.6,0-1,0.4-1,1C0,14,0.4,14.4,1,14.4z"/>
</svg>
