<?xml version="1.0" encoding="UTF-8" standalone="no"?>
<svg width="20px" height="20px" viewBox="0 0 20 20" version="1.1" xmlns="http://www.w3.org/2000/svg" xmlns:xlink="http://www.w3.org/1999/xlink" xmlns:sketch="http://www.bohemiancoding.com/sketch/ns">
    <!-- Generator: Sketch 3.4.2 (15857) - http://www.bohemiancoding.com/sketch -->
    <title>dragHorizontal</title>
    <desc>Created with Sketch.</desc>
    <defs></defs>
    <g id="Page-1" stroke="none" stroke-width="1" fill="none" fill-rule="evenodd" sketch:type="MSPage">
        <g id="dragHorizontal" sketch:type="MSArtboardGroup" transform="translate(-6.000000, -6.000000)" fill="#3A434C">
            <path d="M12,6 C11.4477153,6 11,6.45530558 11,6.99180311 L11,25.0081969 C11,25.5559546 11.4438648,26 12,26 L12,26 C12.5522847,26 13,25.5446944 13,25.0081969 L13,6.99180311 C13,6.44404538 12.5561352,6 12,6 L12,6 L12,6 Z M16,6 C15.4477153,6 15,6.45530558 15,6.99180311 L15,25.0081969 C15,25.5559546 15.4438648,26 16,26 L16,26 C16.5522847,26 17,25.5446944 17,25.0081969 L17,6.99180311 C17,6.44404538 16.5561352,6 16,6 L16,6 L16,6 Z M20,6 C19.4477153,6 19,6.45530558 19,6.99180311 L19,25.0081969 C19,25.5559546 19.4438648,26 20,26 L20,26 C20.5522847,26 21,25.5446944 21,25.0081969 L21,6.99180311 C21,6.44404538 20.5561352,6 20,6 L20,6 L20,6 Z" sketch:type="MSShapeGroup"></path>
        </g>
    </g>
</svg>