<?xml version="1.0" encoding="utf-8"?>
<!-- Generator: Adobe Illustrator 19.2.1, SVG Export Plug-In . SVG Version: 6.00 Build 0)  -->
<svg version="1.1" id="Calque_1" xmlns="http://www.w3.org/2000/svg" xmlns:xlink="http://www.w3.org/1999/xlink" x="0px" y="0px"
	 viewBox="0 0 20 20" style="enable-background:new 0 0 20 20;" xml:space="preserve">
<style type="text/css">
	.st0{fill:#3A434C;}
</style>
<path class="st0" d="M0,15.2c0,0.7,0.3,1.4,0.8,1.9c0.5,0.5,1.1,0.8,1.8,0.8h14.8c0.7,0,1.4-0.3,1.8-0.8c0.5-0.5,0.8-1.1,0.8-1.9
	V9.2c0-0.6-0.5-1-1-1s-1,0.4-1,1v6.1c0,0.2-0.1,0.4-0.2,0.5s-0.2,0.2-0.4,0.2H2.6c-0.2,0-0.3-0.1-0.4-0.2C2.1,15.6,2,15.4,2,15.2
	V9.2c0-0.6-0.5-1-1-1s-1,0.4-1,1V15.2z"/>
<polygon class="st0" points="8.4,3 6.2,4.4 7.8,5.7 10,4.3 "/>
<polygon class="st0" points="6.2,6.9 8.4,8.3 10,7.1 7.8,5.7 "/>
<polygon class="st0" points="11.6,8.3 13.8,6.9 12.2,5.7 10,7.1 "/>
<polygon class="st0" points="11.6,3 10,4.3 12.2,5.7 13.8,4.4 "/>
<polygon class="st0" points="8.4,8.6 7.8,8.2 7.8,8.7 10,10 12.2,8.7 12.2,8.2 11.6,8.6 10,7.3 "/>
</svg>
