<svg viewBox="0 0 20 20"><path d="M.9 2.3v12.8c0 1.2 1 2.3 2.3 2.3h.6v.4c0 1.3 1 2.3 2.3 2.3h10.7c1.2 0 2.3-1 2.3-2.3V4.9c0-1.2-1-2.3-2.3-2.3h-.6v-.3c0-1.2-1-2.3-2.3-2.3H3.2C2 0 .9 1 .9 2.3zm13.3 0v12.8l-.1.2-.2.1H3.2l-.2-.2-.1-.2V2.3l.1-.2.2-.1h10.7l.2.1.1.2zm2.6 2.4l.2.1.1.2v12.8l-.1.1-.2.1H6.1l-.2-.1-.1-.2v-.4h8.1c1.2 0 2.3-1 2.3-2.3V4.7h.6z"/><path d="M5.5 4.5c-.6 0-1 .4-1 1s.4 1 1 1h6c.6 0 1-.4 1-1s-.4-1-1-1h-6zm6.1 3.2h-6c-.6 0-1 .4-1 1s.4 1 1 1h6c.6 0 1-.4 1-1s-.5-1-1-1zm-2.2 3.1H5.5c-.6 0-1 .4-1 1s.4 1 1 1h3.8c.6 0 1-.4 1-1s-.4-1-.9-1z"/></svg>