<?xml version="1.0" encoding="utf-8"?>
<!-- Generator: Adobe Illustrator 19.2.1, SVG Export Plug-In . SVG Version: 6.00 Build 0)  -->
<svg version="1.1" id="Calque_1" xmlns="http://www.w3.org/2000/svg" xmlns:xlink="http://www.w3.org/1999/xlink" x="0px" y="0px"
	 viewBox="0 0 20 20" enable-background="new 0 0 20 20" xml:space="preserve">
<path fill="#3A434C" d="M0.95,2.26v12.79c0,1.25,1.01,2.26,2.26,2.26h0.62v0.42C3.84,18.99,4.85,20,6.1,20h10.69
	c1.25,0,2.26-1.01,2.26-2.26V4.95c0-1.25-1.01-2.26-2.26-2.26h-0.62V2.26C16.16,1.01,15.15,0,13.9,0H3.21
	C1.96,0,0.95,1.01,0.95,2.26z M14.17,2.26v12.79l-0.08,0.19l-0.19,0.08H3.21l-0.19-0.08l-0.08-0.19V2.26l0.08-0.19L3.21,2H13.9
	l0.19,0.08L14.17,2.26z M16.79,4.68l0.19,0.08l0.08,0.19v12.79l-0.08,0.19L16.79,18H6.1l-0.19-0.08l-0.08-0.19v-0.42h8.07
	c1.25,0,2.26-1.01,2.26-2.26V4.68H16.79z"/>
<path fill="#3A434C" d="M5.54,4.5c-0.55,0-1,0.45-1,1s0.45,1,1,1h6.03c0.55,0,1-0.45,1-1s-0.45-1-1-1H5.54z"/>
<path fill="#3A434C" d="M11.56,7.66H5.54c-0.55,0-1,0.45-1,1s0.45,1,1,1h6.03c0.55,0,1-0.45,1-1C12.56,8.11,12.12,7.66,11.56,7.66z"
	/>
<path fill="#3A434C" d="M9.37,10.81H5.53c-0.55,0-1,0.45-1,1s0.45,1,1,1h3.85c0.55,0,1-0.45,1-1S9.93,10.81,9.37,10.81z"/>
</svg>
