<svg viewBox="0 0 20 20"><path d="M13.5 8.7L12 8.5l-.7-.1-.3-.7-.6-1.5c0-.1-.2-.2-.4-.2s-.4.1-.5.3l-.6 1.5-.2.7H8l-1.5.2c-.2 0-.4.1-.5.3 0 .2 0 .4.2.5l1.2 1.1.6.5-.2.8-.3 1.6c0 .2 0 .4.2.5.2.1.4.1.6 0l1.3-.8.6-.4.6.4 1.3.8c.2.1.4.1.6 0 .2-.1.2-.3.2-.5l-.4-1.6-.2-.8.6-.5L14 9.5V9c-.1-.2-.3-.3-.5-.3z"/><path d="M18.7 3.9c-.2-.2-.5-.3-.8-.3h-.6c-.6 0-1.6 0-2.6-.2s-1.9-.5-2.5-1l-.1-.1c-.1-.1-.2-.3-.4-.4l-.3-.3c-.2-.3-.4-.6-.5-.9-.1-.1-.1-.2-.2-.3l-.2-.2h-.1c-.1 0-.1-.1-.2-.1h-.1C10 0 9.9 0 9.8 0c-.1 0-.2.1-.3.1l-.1.1c-.1 0-.1.1-.2.2 0 0-.1.1-.1.2-.2.3-.3.7-.5.9l-.2.2c-.1.2-.3.3-.4.5l-.2.1c-.6.5-1.6.9-2.6 1-1 .2-2 .2-2.6.2h-.5c-.3 0-.5 0-.7.2-.3.4-.4.6-.4.9V7c0 1.6.2 3.1.6 4.4 1.2 4.1 4.1 6.9 7.9 8.5h1c3.8-1.6 6.7-4.4 7.9-8.5.4-1.3.6-2.8.6-4.4V4.6c0-.2-.1-.5-.3-.7zm-2.2 6.9c-1 3.3-3.3 5.6-6.5 7.1-3.2-1.4-5.5-3.8-6.5-7.1C3.2 9.7 3 8.4 3 7V5.7c.7 0 1.6-.1 2.6-.3 1.2-.2 2.5-.6 3.5-1.5h.1l.5-.5c0-.2.1-.3.2-.4 0 0 0-.1.1-.1l.1.1c.3.3.7.8.7.8h.1c1 .9 2.3 1.3 3.4 1.5 1 .2 2 .2 2.7.3V7c0 1.4-.2 2.7-.5 3.8z"/></svg>