<?xml version="1.0" encoding="utf-8"?>
<!-- Generator: Adobe Illustrator 20.1.0, SVG Export Plug-In . SVG Version: 6.00 Build 0)  -->
<svg version="1.1" id="Calque_1" xmlns="http://www.w3.org/2000/svg" xmlns:xlink="http://www.w3.org/1999/xlink" x="0px" y="0px"
	 viewBox="0 0 20 20" style="enable-background:new 0 0 20 20;" xml:space="preserve">
<style type="text/css">
	.st0{fill:#3A434C;}
</style>
<path class="st0" d="M13.5,8.7L12,8.5l-0.7-0.1l-0.3-0.7l-0.6-1.5C10.4,6.1,10.2,6,10,6S9.6,6.1,9.5,6.3L8.9,7.8L8.7,8.5L8,8.5
	L6.5,8.7C6.3,8.7,6.1,8.8,6,9C6,9.2,6,9.4,6.2,9.5l1.2,1.1l0.6,0.5l-0.2,0.8l-0.3,1.6c0,0.2,0,0.4,0.2,0.5c0.2,0.1,0.4,0.1,0.6,0
	l1.3-0.8l0.6-0.4l0.6,0.4l1.3,0.8c0.2,0.1,0.4,0.1,0.6,0c0.2-0.1,0.2-0.3,0.2-0.5l-0.4-1.6l-0.2-0.8l0.6-0.5l1.1-1.1
	C14,9.4,14,9.2,14,9C13.9,8.8,13.7,8.7,13.5,8.7z"/>
<path class="st0" d="M18.7,3.9c-0.2-0.2-0.5-0.3-0.8-0.3h0c-0.1,0-0.3,0-0.6,0c-0.6,0-1.6,0-2.6-0.2c-1-0.2-1.9-0.5-2.5-1l-0.1-0.1
	C12,2.2,11.9,2,11.7,1.9c-0.1-0.1-0.3-0.3-0.3-0.3c-0.2-0.3-0.4-0.6-0.5-0.9c-0.1-0.1-0.1-0.2-0.2-0.3l0,0l0,0
	c-0.1-0.1-0.1-0.1-0.2-0.2c0,0-0.1,0-0.1,0c-0.1,0-0.1-0.1-0.2-0.1c0,0-0.1,0-0.1,0C10,0,9.9,0,9.8,0h0h0c0,0,0,0,0,0
	C9.7,0,9.6,0.1,9.5,0.1c0,0,0,0-0.1,0.1c-0.1,0-0.1,0.1-0.2,0.2c0,0,0,0,0,0C9.2,0.4,9.1,0.5,9.1,0.6C8.9,0.9,8.8,1.3,8.6,1.5
	c0,0-0.1,0.1-0.2,0.2C8.3,1.9,8.1,2,8,2.2L7.8,2.3l0,0c-0.6,0.5-1.6,0.9-2.6,1c-1,0.2-2,0.2-2.6,0.2c-0.2,0-0.3,0-0.4,0H2.1h0v0
	c-0.3,0-0.5,0-0.7,0.2C1.1,4.1,1,4.3,1,4.6V7c0,1.6,0.2,3.1,0.6,4.4c1.2,4.1,4.1,6.9,7.9,8.5l0,0l0,0l0,0c0,0,0,0,0.1,0
	c0.1,0,0.1,0,0.2,0c0.1,0,0.1,0,0.2,0s0.1,0,0.2,0c0.1,0,0.1,0,0.2,0c0,0,0,0,0.1,0l0,0l0,0l0,0c3.8-1.6,6.7-4.4,7.9-8.5
	C18.8,10.1,19,8.6,19,7V4.6C19,4.4,18.9,4.1,18.7,3.9z M16.5,10.8c-1,3.3-3.3,5.6-6.5,7.1c-3.2-1.4-5.5-3.8-6.5-7.1
	C3.2,9.7,3,8.4,3,7V5.7c0.7,0,1.6-0.1,2.6-0.3c1.2-0.2,2.5-0.6,3.5-1.5h0l0.1,0c0.1-0.1,0.3-0.3,0.5-0.5C9.7,3.2,9.8,3.1,9.9,3
	c0,0,0-0.1,0.1-0.1c0,0,0.1,0.1,0.1,0.1c0.3,0.3,0.7,0.8,0.7,0.8l0.1,0c1,0.9,2.3,1.3,3.4,1.5c1,0.2,2,0.2,2.7,0.3V7
	C17,8.4,16.8,9.7,16.5,10.8z"/>
</svg>
