<svg viewBox="0 0 20 20"><path d="M13.1 14.9c-2-.1-3.2 0-3.2 2.5 0 2.2.9 2.6 3.7 2.6 2.2 0 3-.1 3.9-2.9.2-.5.6-2.2.9-5.1.2-1.8-.2-7.2-.4-8.6-.1-.8-.6-1.2-1.1-1.3-.5-.2-1.4-.3-2.6-.5-1-.1-2.1-.1-2.8-.1-.1-.6-.5-1.1-.9-1.2C9.5-.1 7.7 0 7.2.1c-.4.1-.8.3-1 .6-.2.3-.3.5-.3.9v2.1c0 .4-.3.7-.8.7H3.3c-.4 0-.7.1-1 .2-.2.1-.4.2-.5.4-.3.3-.3.8-.3 1.2 0 0 0 .3.1 1 .1.5.6 4.1 1.2 5.2.2.4.3.6.8.8.9.4 3 .8 4 .9s1.6.4 2-.4c0 0 .1-.2.2-.5.3-.9.4-1.8.4-2.4h.1c0 .4-.1 2 1.1 2.4.5.2 1.4.3 2.4.4.9.1 1.5.4 1.5 2.7 0 1.4-.3 1.5-1.8 1.5-1.2 0-1.7 0-1.7-.9 0-.8.8-.7 1.4-.7.3 0 .1-.2.1-.7-.2-.3.1-.6-.2-.6zm1.1-5.4c-.3 0-.5 0-.8.1.1-.6.3-1.2 1.1-1.2.9 0 1 .9 1 1.4-.4-.2-.8-.3-1.3-.3z"/><path d="M5.5.7l.1-.1-3.8 3.6.2-.1c.3-.1.7-.2 1.2-.2h1.9c.1 0 .2-.1.2-.2V1.6c0-.4.1-.7.2-.9z"/></svg>