<?xml version="1.0" encoding="utf-8"?>
<!-- Generator: Adobe Illustrator 19.2.1, SVG Export Plug-In . SVG Version: 6.00 Build 0)  -->
<svg version="1.1" id="Calque_1" xmlns="http://www.w3.org/2000/svg" xmlns:xlink="http://www.w3.org/1999/xlink" x="0px" y="0px"
	 viewBox="0 0 20 20" style="enable-background:new 0 0 20 20;" xml:space="preserve">
<style type="text/css">
	.st0{fill:#3A434C;}
</style>
<path class="st0" d="M13.1,14.9c-2-0.1-3.2,0-3.2,2.5c0,2.2,0.9,2.6,3.7,2.6c2.2,0,3-0.1,3.9-2.9c0.2-0.5,0.6-2.2,0.9-5.1
	c0.2-1.8-0.2-7.2-0.4-8.6c-0.1-0.8-0.6-1.2-1.1-1.3c-0.5-0.2-1.4-0.3-2.6-0.5c-1-0.1-2.1-0.1-2.8-0.1c-0.1-0.6-0.5-1.1-0.9-1.2
	C9.5-0.1,7.7,0,7.2,0.1c-0.4,0.1-0.8,0.3-1,0.6C6,1,5.9,1.2,5.9,1.6c0,0.2,0,0.7,0,1.2c0,0.5,0,0.9,0,0.9c0,0.4-0.3,0.7-0.8,0.7H3.3
	c-0.4,0-0.7,0.1-1,0.2C2.1,4.7,1.9,4.8,1.8,5C1.5,5.3,1.5,5.8,1.5,6.2c0,0,0,0.3,0.1,1c0.1,0.5,0.6,4.1,1.2,5.2
	c0.2,0.4,0.3,0.6,0.8,0.8c0.9,0.4,3,0.8,4,0.9s1.6,0.4,2-0.4c0,0,0.1-0.2,0.2-0.5c0.3-0.9,0.4-1.8,0.4-2.4h0.1c0,0.4-0.1,2,1.1,2.4
	c0.5,0.2,1.4,0.3,2.4,0.4c0.9,0.1,1.5,0.4,1.5,2.7c0,1.4-0.3,1.5-1.8,1.5c-1.2,0-1.7,0-1.7-0.9c0-0.8,0.8-0.7,1.4-0.7
	c0.3,0,0.1-0.2,0.1-0.7C13.1,15.2,13.4,14.9,13.1,14.9z M14.2,9.5c-0.3,0-0.5,0-0.8,0.1c0.1-0.6,0.3-1.2,1.1-1.2c0.9,0,1,0.9,1,1.4
	C15.1,9.6,14.7,9.5,14.2,9.5z"/>
<path class="st0" d="M5.5,0.7l0.1-0.1l0,0L1.8,4.2l0,0L2,4.1C2.3,4,2.7,3.9,3.2,3.9l0,0h1.9c0.1,0,0.2-0.1,0.2-0.2c0,0,0-1.6,0-2.1
	v0C5.3,1.2,5.4,0.9,5.5,0.7z"/>
</svg>
