<?xml version="1.0" encoding="utf-8"?>
<!-- Generator: Adobe Illustrator 19.1.0, SVG Export Plug-In . SVG Version: 6.00 Build 0)  -->
<svg version="1.1" id="Calque_1" xmlns="http://www.w3.org/2000/svg" xmlns:xlink="http://www.w3.org/1999/xlink" x="0px" y="0px"
	 viewBox="0 0 20 20" enable-background="new 0 0 20 20" xml:space="preserve">
<path fill="none" d="M14.5,8.31c-0.82-0.03-1.05,0.65-1.12,1.2c0.25-0.04,0.51-0.06,0.79-0.05c0.52,0.02,0.99,0.12,1.37,0.29
	C15.53,9.18,15.4,8.34,14.5,8.31z"/>
<path fill="#3A434C" d="M13.11,14.9c-2-0.05-3.17,0-3.17,2.46c0,2.23,0.87,2.65,3.7,2.65c2.22,0,3.01-0.07,3.92-2.87
	c0.18-0.55,0.62-2.24,0.89-5.08c0.17-1.79-0.16-7.2-0.42-8.57c-0.15-0.8-0.63-1.19-1.07-1.35c-0.47-0.17-1.42-0.34-2.62-0.48
	c-0.96-0.11-2.1-0.1-2.78-0.08c-0.08-0.55-0.48-1.06-0.92-1.23C9.47-0.13,7.65-0.02,7.19,0.11C6.81,0.21,6.4,0.42,6.18,0.75
	C6.02,0.96,5.92,1.24,5.92,1.62c0,0.22,0.01,0.73,0.01,1.19c0.01,0.46,0.01,0.87,0.01,0.87c0,0.41-0.34,0.74-0.75,0.74H3.29
	c-0.41,0-0.72,0.07-0.96,0.17C2.09,4.7,1.93,4.84,1.8,5.01C1.54,5.35,1.5,5.76,1.5,6.19c0,0,0,0.35,0.09,1.02
	c0.07,0.52,0.64,4.14,1.18,5.24c0.21,0.43,0.35,0.61,0.76,0.8c0.92,0.39,3.03,0.82,4.01,0.94c0.98,0.12,1.6,0.38,1.97-0.38
	c0,0,0.07-0.19,0.17-0.46c0.32-0.95,0.36-1.8,0.36-2.41h0.09c0,0.43-0.08,1.96,1.09,2.37c0.46,0.16,1.42,0.31,2.4,0.42
	c0.88,0.1,1.52,0.44,1.52,2.67c0,1.36-0.29,1.54-1.8,1.54c-1.23,0-1.7,0.03-1.7-0.93c0-0.78,0.78-0.69,1.36-0.69
	c0.26,0,0.07-0.19,0.07-0.67C13.1,15.18,13.4,14.9,13.11,14.9z M14.16,9.46c-0.27-0.01-0.54,0.01-0.79,0.05
	c0.07-0.55,0.3-1.23,1.12-1.2c0.91,0.03,1.03,0.87,1.04,1.44C15.15,9.58,14.68,9.48,14.16,9.46z"/>
<path fill="#3A434C" d="M5.5,0.66l0.07-0.12L5.54,0.55L1.83,4.17L1.82,4.19l0.2-0.09C2.34,3.95,2.73,3.87,3.2,3.87h0h1.91
	c0.11,0,0.2-0.09,0.2-0.19c0,0-0.02-1.61-0.02-2.06V1.62C5.28,1.25,5.36,0.93,5.5,0.66z"/>
</svg>
