<?xml version="1.0" encoding="utf-8"?>
<!-- Generator: Adobe Illustrator 19.1.0, SVG Export Plug-In . SVG Version: 6.00 Build 0)  -->
<svg version="1.1" id="Calque_1" xmlns="http://www.w3.org/2000/svg" xmlns:xlink="http://www.w3.org/1999/xlink" x="0px" y="0px"
	 viewBox="0 0 20 20" enable-background="new 0 0 20 20" xml:space="preserve">
<path fill="#3A434C" d="M19,8.79c-0.55,0-1,0.45-1,1v6.45c0,0.27-0.09,0.49-0.19,0.62C17.7,16.99,17.63,17,17.59,17H2.41
	c-0.03,0-0.1-0.01-0.21-0.14C2.09,16.73,2,16.51,2,16.24V3.76c0-0.27,0.09-0.49,0.19-0.62C2.3,3.01,2.37,3,2.41,3h8.97
	c0.55,0,1-0.45,1-1c0-0.55-0.45-1-1-1H2.41C1.67,1,1.03,1.38,0.63,1.89C0.22,2.4,0,3.06,0,3.76v12.48c0,0.7,0.22,1.35,0.63,1.87
	C1.03,18.62,1.67,19,2.41,19h15.19c0.74,0,1.37-0.38,1.77-0.89C19.78,17.6,20,16.94,20,16.24V9.79C20,9.23,19.55,8.79,19,8.79z"/>
<path fill="#3A434C" d="M12.09,8.96c0.39,0.39,1.02,0.39,1.41,0l4.47-4.47l0,0.94c0,0.55,0.45,1,1,1c0.55,0,1-0.45,1-1v0l0.01-3.41
	c0-0.27-0.1-0.52-0.29-0.71c-0.19-0.19-0.44-0.29-0.71-0.29l-3.41,0.01c-0.55,0-1,0.45-1,1s0.45,1,1,1l1.04,0l-4.53,4.53
	C11.7,7.94,11.7,8.57,12.09,8.96z"/>
</svg>
