<svg xmlns="http://www.w3.org/2000/svg" viewBox="0 0 20 20"><path d="M19 8.8c-.5 0-1 .4-1 1v6.4c0 .3-.1.5-.2.6-.1.2-.2.2-.2.2H2.4s-.1 0-.2-.1c-.1-.2-.2-.4-.2-.7V3.8c0-.3.1-.5.2-.6.1-.2.2-.2.2-.2h9c.6 0 1-.5 1-1s-.4-1-1-1h-9c-.7 0-1.4.4-1.8.9-.4.5-.6 1.2-.6 1.9v12.5c0 .7.2 1.4.6 1.9.4.4 1.1.8 1.8.8h15.2c.7 0 1.4-.4 1.8-.9.4-.5.6-1.2.6-1.9V9.8c0-.6-.5-1-1-1z"/><path d="M12.1 9c.4.4 1 .4 1.4 0L18 4.5v.9c0 .6.5 1 1 1s1-.4 1-1V2c0-.5-.4-1-1-1h-3.4c-.6 0-1 .5-1 1s.4 1 1 1h1l-4.5 4.5c-.4.5-.4 1.1 0 1.5z"/></svg>