<?xml version="1.0" encoding="UTF-8" standalone="no"?>
<svg width="21px" height="16px" viewBox="0 0 21 16" version="1.1" xmlns="http://www.w3.org/2000/svg" xmlns:xlink="http://www.w3.org/1999/xlink" xmlns:sketch="http://www.bohemiancoding.com/sketch/ns">
    <!-- Generator: Sketch 3.4.4 (17249) - http://www.bohemiancoding.com/sketch -->
    <title>externalLink</title>
    <desc>Created with Sketch.</desc>
    <defs></defs>
    <g id="Page-1" stroke="none" stroke-width="1" fill="none" fill-rule="evenodd" sketch:type="MSPage">
        <g id="externalLink" sketch:type="MSArtboardGroup" transform="translate(-6.000000, -8.000000)" fill="#3A434C">
            <path d="M25.9999992,9.02984695 C25.9999992,8.75767311 25.8923126,8.49285532 25.7056558,8.30159803 C25.518999,8.10886953 25.2591153,8 24.9949242,8 L20.6874597,8 C20.1317968,8 19.6823847,8.46048871 19.6823847,9.02984695 C19.6823847,9.59773398 20.1317968,10.0596939 20.6874597,10.0596939 L22.5324903,10.0582227 L18.6012111,14.012835 C18.2049244,14.4115328 18.1991811,15.0632788 18.5868529,15.4693328 C18.9759605,15.8753867 19.6134653,15.8812716 20.0083162,15.4825737 L23.9898492,11.4794115 L23.9898492,13.4434767 C23.9898492,14.0113638 24.4392613,14.4733237 24.9949242,14.4733237 C25.5505871,14.4733237 25.9999992,14.0113638 25.9999992,13.4434767 L25.9999992,9.02984695 M24.0275615,16.7999992 L24.0275615,20.888 C24.0275615,21.1522607 23.831968,21.356 23.6189775,21.356 L8.40858405,21.356 C8.19559358,21.356 8,21.1522607 8,20.888 L8,10.468 C8,10.2042943 8.19603431,10 8.40858405,10 L17.3999996,10 C17.9522844,10 18.3999996,9.55228475 18.3999996,9 C18.3999996,8.44771525 17.9522844,8 17.3999996,8 L8.40858405,8 C7.07257634,8 6,9.11777003 6,10.468 L6,20.888 C6,22.2389854 7.07235512,23.356 8.40858405,23.356 L23.6189775,23.356 C24.9552064,23.356 26.0275615,22.2389854 26.0275615,20.888 L26.0275615,16.7999992 C26.0275615,16.2477145 25.5798463,15.7999992 25.0275615,15.7999992 C24.4752768,15.7999992 24.0275615,16.2477145 24.0275615,16.7999992 L24.0275615,16.7999992 Z" sketch:type="MSShapeGroup"></path>
        </g>
    </g>
</svg>