<?xml version="1.0" encoding="utf-8"?>
<!-- Generator: Adobe Illustrator 19.2.1, SVG Export Plug-In . SVG Version: 6.00 Build 0)  -->
<svg version="1.1" id="Calque_1" xmlns="http://www.w3.org/2000/svg" xmlns:xlink="http://www.w3.org/1999/xlink" x="0px" y="0px"
	 viewBox="0 0 20 20" style="enable-background:new 0 0 20 20;" xml:space="preserve">
<style type="text/css">
	.st0{fill:#3A434C;}
</style>
<path class="st0" d="M17,0H3c-1,0-1.8,0.8-1.8,1.8v16.5c0,1,0.8,1.8,1.8,1.8h10.6c0,0,0,0,0,0c0.2,0,0.4-0.1,0.5-0.2l4.2-4.2
	c0.2-0.1,0.4-0.4,0.4-0.6V1.8C18.8,0.8,17.9,0,17,0z M2.8,18.4l-0.1-0.2V1.8l0.1-0.2L3,1.5H17l0.2,0.1l0.1,0.2v12.5h-3.6
	c-0.2,0-0.4,0.1-0.5,0.2c-0.1,0.1-0.2,0.3-0.2,0.5v3.5H3L2.8,18.4z"/>
<circle class="st0" cx="6.2" cy="7.8" r="0.8"/>
<circle class="st0" cx="10" cy="7.8" r="0.8"/>
<circle class="st0" cx="13.8" cy="7.8" r="0.8"/>
</svg>
