<?xml version="1.0" encoding="utf-8"?>
<!-- Generator: Adobe Illustrator 19.1.0, SVG Export Plug-In . SVG Version: 6.00 Build 0)  -->
<svg version="1.1" id="Calque_1" xmlns="http://www.w3.org/2000/svg" xmlns:xlink="http://www.w3.org/1999/xlink" x="0px" y="0px"
	 viewBox="0 0 20 20" enable-background="new 0 0 20 20" xml:space="preserve">
<g>
	<path fill="none" d="M12.87,15.04c0-0.2,0.08-0.39,0.22-0.53c0.14-0.14,0.33-0.22,0.53-0.22h3.63V1.76l-0.08-0.18L16.96,1.5H3.04
		L2.83,1.58L2.75,1.76v16.47l0.08,0.18l0.21,0.08h9.84V15.04z M13.77,7.09c0.41,0,0.75,0.34,0.75,0.75c0,0.41-0.34,0.75-0.75,0.75
		c-0.41,0-0.75-0.34-0.75-0.75C13.02,7.42,13.36,7.09,13.77,7.09z M6.23,8.59c-0.41,0-0.75-0.34-0.75-0.75
		c0-0.41,0.34-0.75,0.75-0.75c0.41,0,0.75,0.34,0.75,0.75C6.98,8.25,6.64,8.59,6.23,8.59z M10,8.59c-0.41,0-0.75-0.34-0.75-0.75
		c0-0.41,0.34-0.75,0.75-0.75c0.41,0,0.75,0.34,0.75,0.75C10.75,8.25,10.41,8.59,10,8.59z"/>
	<path fill="#3A434C" d="M16.96,0H3.04C2.06,0,1.25,0.78,1.25,1.76v16.47c0,0.99,0.81,1.76,1.79,1.76h10.55
		c0.01,0,0.02-0.01,0.03-0.01c0.2,0,0.39-0.07,0.54-0.21l4.19-4.17c0.24-0.13,0.4-0.37,0.4-0.65V1.76C18.75,0.78,17.94,0,16.96,0z
		 M2.83,18.42l-0.08-0.18V1.76l0.08-0.18L3.04,1.5h13.93l0.21,0.08l0.08,0.18v12.53h-3.63c-0.2,0-0.39,0.08-0.53,0.22
		c-0.14,0.14-0.22,0.33-0.22,0.53v3.46H3.04L2.83,18.42z"/>
	<circle fill="#3A434C" cx="6.23" cy="7.84" r="0.75"/>
	<circle fill="#3A434C" cx="10" cy="7.84" r="0.75"/>
	<circle fill="#3A434C" cx="13.77" cy="7.84" r="0.75"/>
</g>
</svg>
