<?xml version="1.0" encoding="UTF-8" standalone="no"?>
<svg width="20px" height="20px" viewBox="0 0 20 20" version="1.1" xmlns="http://www.w3.org/2000/svg" xmlns:xlink="http://www.w3.org/1999/xlink">
    <!-- Generator: Sketch 3.8.3 (29802) - http://www.bohemiancoding.com/sketch -->
    <title>file</title>
    <desc>Created with Sketch.</desc>
    <defs></defs>
    <g stroke="none" stroke-width="1" fill="none" fill-rule="evenodd">
        <g transform="translate(-6.000000, -6.000000)" fill="#3A434C">
            <path d="M9.00520833,24.4821429 C8.94854167,24.4242857 8.91666667,24.3514286 8.91666667,24.2692857 L8.91666667,7.73142857 C8.91666667,7.64857143 8.94854167,7.57642857 9.00520833,7.51857143 C9.06258333,7.46142857 9.134125,7.42928571 9.21629167,7.42857143 L22.783,7.42857143 C22.8651667,7.42928571 22.9367083,7.46142857 22.9940833,7.51857143 C23.05075,7.57642857 23.082625,7.64857143 23.0833333,7.73142857 L23.0833333,20.3471429 L19.5990417,20.3471429 C19.4120417,20.3471429 19.23,20.4235714 19.09825,20.5564286 C18.9657917,20.6892857 18.8907083,20.8735714 18.8907083,21.0614286 L18.8907083,24.5714286 L9.21629167,24.5714286 C9.134125,24.5714286 9.06258333,24.5392857 9.00520833,24.4821429 M24.5,20.9785714 L24.5,7.73142857 C24.4971667,6.77428571 23.7321667,6.00285714 22.783,6 L9.21629167,6 C8.26783333,6.00285714 7.502125,6.77428571 7.5,7.73142857 L7.5,24.2692857 C7.502125,25.2257143 8.267125,25.9971429 9.21629167,26 L19.4885417,26 C19.499875,26 19.5090833,25.9942857 19.5204167,25.9935714 C19.7329167,26.0171429 19.9489583,25.945 20.103375,25.7871429 L24.2287083,21.5628571 C24.24925,21.5414286 24.2612917,21.5157143 24.279,21.4928571 C24.4135833,21.3628571 24.5,21.1821429 24.5,20.9785714 M16.014025,12.9457143 C15.525275,12.9457143 15.1286083,13.3457143 15.1286083,13.8385714 C15.1286083,14.3314286 15.525275,14.7314286 16.014025,14.7314286 C16.502775,14.7314286 16.8994417,14.3314286 16.8994417,13.8385714 C16.8994417,13.3457143 16.502775,12.9457143 16.014025,12.9457143 M19.732775,13.8385714 C19.732775,13.3457143 19.3361083,12.9457143 18.8473583,12.9457143 C18.3586083,12.9457143 17.9619417,13.3457143 17.9619417,13.8385714 C17.9619417,14.3314286 18.3586083,14.7314286 18.8473583,14.7314286 C19.3361083,14.7314286 19.732775,14.3314286 19.732775,13.8385714 M13.1806917,12.9457143 C12.6919417,12.9457143 12.295275,13.3457143 12.295275,13.8385714 C12.295275,14.3314286 12.6919417,14.7314286 13.1806917,14.7314286 C13.6694417,14.7314286 14.0661083,14.3314286 14.0661083,13.8385714 C14.0661083,13.3457143 13.6694417,12.9457143 13.1806917,12.9457143"></path>
        </g>
    </g>
</svg>