<?xml version="1.0" encoding="utf-8"?>
<!-- Generator: Adobe Illustrator 19.2.1, SVG Export Plug-In . SVG Version: 6.00 Build 0)  -->
<svg version="1.1" id="Calque_1" xmlns="http://www.w3.org/2000/svg" xmlns:xlink="http://www.w3.org/1999/xlink" x="0px" y="0px"
	 viewBox="0 0 20 20" enable-background="new 0 0 20 20" xml:space="preserve">
<path fill="#3A434C" d="M18.99,15.86h-6.18c-0.44-1.13-1.53-1.93-2.82-1.93c-1.28,0-2.37,0.8-2.82,1.93H1.01c-0.55,0-1,0.45-1,1
	c0,0.55,0.45,1,1,1h6.11C7.5,19.09,8.64,20,10,20s2.5-0.9,2.88-2.14h6.11c0.55,0,1-0.45,1-1C19.99,16.3,19.55,15.86,18.99,15.86z
	 M10,17.99c-0.57,0-1.03-0.46-1.03-1.03c0-0.57,0.46-1.03,1.03-1.03s1.03,0.46,1.03,1.03C11.03,17.53,10.57,17.99,10,17.99z"/>
<path fill="#3A434C" d="M19.01,2.02h-2.14c-0.41-1.18-1.53-2.03-2.85-2.03s-2.43,0.85-2.85,2.03H1.02c-0.55,0-1,0.45-1,1s0.45,1,1,1
	h10.15c0.41,1.18,1.53,2.03,2.85,2.03s2.43-0.85,2.85-2.03h2.14c0.55,0,1-0.45,1-1S19.56,2.02,19.01,2.02z M14.01,4.06
	c-0.57,0-1.03-0.46-1.03-1.03S13.44,2,14.01,2s1.03,0.46,1.03,1.03C15.04,3.59,14.58,4.06,14.01,4.06z"/>
<path fill="#3A434C" d="M19.01,8.88H8.86C8.44,7.7,7.33,6.85,6.01,6.85S3.58,7.7,3.16,8.88H1.02c-0.55,0-1,0.45-1,1s0.45,1,1,1h2.14
	c0.41,1.18,1.53,2.03,2.85,2.03s2.43-0.85,2.85-2.03h10.15c0.55,0,1-0.45,1-1S19.56,8.88,19.01,8.88z M7.04,9.88
	c0,0.57-0.46,1.03-1.03,1.03s-1.03-0.46-1.03-1.03s0.46-1.03,1.03-1.03S7.04,9.31,7.04,9.88z"/>
</svg>
