<svg viewBox="0 0 20 20"><path d="M19 15.9h-6.2c-.5-1.2-1.6-1.9-2.8-1.9-1.3 0-2.4.8-2.8 1.9H1c-.6 0-1 .4-1 1s.4 1 1 1h6.1C7.5 19.1 8.6 20 10 20s2.5-.9 2.9-2.1H19c.5 0 1-.5 1-1 0-.6-.4-1-1-1zM10 18c-.6 0-1-.5-1-1 0-.6.5-1 1-1s1 .5 1 1-.4 1-1 1zm9-16h-2.1c-.4-1.2-1.5-2-2.8-2s-2.4.9-2.9 2H1c-.5 0-1 .5-1 1s.4 1 1 1h10.2c.4 1.2 1.5 2 2.9 2s2.4-.8 2.8-2H19c.5 0 1-.5 1-1s-.4-1-1-1zm-5 2.1c-.6 0-1-.5-1-1s.5-1 1-1 1 .5 1 1-.4 1-1 1zm5 4.8H8.9c-.4-1.2-1.5-2-2.8-2s-2.4.8-2.8 2H1c-.6 0-1 .4-1 1s.4 1 1 1h2.1c.4 1.2 1.5 2 2.9 2s2.4-.9 2.9-2H19c.5 0 1-.4 1-1s-.4-1-1-1zm-12 1c0 .6-.5 1-1 1s-1-.5-1-1 .5-1 1-1 1 .4 1 1z"/></svg>