<?xml version="1.0" encoding="utf-8"?>
<!-- Generator: Adobe Illustrator 19.2.1, SVG Export Plug-In . SVG Version: 6.00 Build 0)  -->
<svg version="1.1" id="Calque_1" xmlns="http://www.w3.org/2000/svg" xmlns:xlink="http://www.w3.org/1999/xlink" x="0px" y="0px"
	 viewBox="0 0 20 20" style="enable-background:new 0 0 20 20;" xml:space="preserve">
<style type="text/css">
	.st0{fill:#3A434C;}
</style>
<path class="st0" d="M3.5,0c-0.5,0-1,0.4-1,1v2.1c0,0.1,0,0.1,0,0.2l0,7.1V19c0,0.5,0.5,1,1,1s1-0.5,1-1v-5.7l3.4-1.3l3.7,1.6
	c0.2,0.1,0.4,0.1,0.6,0.1c1.1-0.2,2.3-0.4,3.1-0.6s1.4-0.3,1.4-0.3c0.5-0.1,0.8-0.5,0.8-1V3.6c0-0.3-0.1-0.5-0.3-0.7
	c-0.2-0.2-0.5-0.3-0.7-0.3l-4.3,0.2L8.4,1.1C8.2,1.1,8.1,1,7.9,1.1c-0.4,0-0.8,0.1-1.3,0.2C5.9,1.5,5.2,1.7,4.5,1.9V1
	C4.5,0.4,4.1,0,3.5,0z M6.4,3.4c0.4-0.1,0.7-0.2,1-0.3c0.2,0,0.3-0.1,0.4-0.1l3.7,1.7c0.1,0.1,0.3,0.1,0.4,0.1l3.5-0.2V11
	c-0.8,0.1-2.1,0.4-3.4,0.7l-3.8-1.6c-0.2-0.1-0.5-0.1-0.7,0l-3,1.1v-0.8V4C5,3.8,5.7,3.6,6.4,3.4z"/>
</svg>
