<?xml version="1.0" encoding="utf-8"?>
<!-- Generator: Adobe Illustrator 19.1.0, SVG Export Plug-In . SVG Version: 6.00 Build 0)  -->
<svg version="1.1" id="Calque_1" xmlns="http://www.w3.org/2000/svg" xmlns:xlink="http://www.w3.org/1999/xlink" x="0px" y="0px"
	 viewBox="0 0 20 20" enable-background="new 0 0 20 20" xml:space="preserve">
<g>
	<path fill="none" d="M4.53,11.2l3.04-1.15c0.24-0.09,0.51-0.09,0.74,0.01l3.76,1.58c1.34-0.26,2.63-0.51,3.43-0.67V4.67l-3.49,0.16
		c-0.15,0.01-0.31-0.02-0.45-0.08L7.85,3.09C7.73,3.11,7.58,3.14,7.41,3.18c-0.3,0.07-0.67,0.16-1.04,0.26
		C5.71,3.62,5.03,3.82,4.53,3.97v6.38L4.53,11.2z"/>
	<path fill="#3A434C" d="M3.53,0c-0.55,0-1,0.45-1,1v2.08C2.52,3.13,2.5,3.19,2.5,3.25l0.03,7.1V19c0,0.55,0.45,1,1,1
		c0.55,0,1-0.45,1-1v-5.66l3.38-1.28l3.67,1.55c0.18,0.08,0.39,0.1,0.58,0.06c1.14-0.23,2.27-0.45,3.12-0.61
		c0.85-0.16,1.41-0.27,1.41-0.27c0.47-0.09,0.81-0.5,0.81-0.98V3.62c0-0.27-0.11-0.53-0.31-0.72c-0.2-0.19-0.46-0.29-0.74-0.28
		l-4.3,0.19L8.4,1.15c-0.15-0.07-0.32-0.1-0.49-0.08C7.53,1.1,7.11,1.19,6.62,1.31C5.94,1.48,5.17,1.7,4.53,1.89V1
		C4.53,0.45,4.08,0,3.53,0z M6.38,3.44c0.37-0.1,0.73-0.19,1.04-0.26c0.16-0.04,0.31-0.07,0.43-0.09l3.72,1.65
		c0.14,0.06,0.3,0.09,0.45,0.08l3.49-0.16v6.31c-0.8,0.15-2.09,0.4-3.43,0.67l-3.76-1.58c-0.24-0.1-0.5-0.1-0.74-0.01L4.53,11.2
		l0-0.84V3.97C5.03,3.82,5.71,3.62,6.38,3.44z"/>
</g>
</svg>
