<?xml version="1.0" encoding="utf-8"?>
<!-- Generator: Adobe Illustrator 19.1.0, SVG Export Plug-In . SVG Version: 6.00 Build 0)  -->
<svg version="1.1" id="Calque_1" xmlns="http://www.w3.org/2000/svg" xmlns:xlink="http://www.w3.org/1999/xlink" x="0px" y="0px"
	 viewBox="0 0 20 20" enable-background="new 0 0 20 20" xml:space="preserve">
<path fill="none" d="M18,6.7h-7.1c-0.53,0-1.02-0.23-1.35-0.57C9.21,5.78,9,5.3,9,4.77c0-0.5-0.2-0.94-0.51-1.26
	C8.18,3.19,7.76,3,7.3,3H3.7C3.24,3,2.82,3.19,2.51,3.51C2.2,3.83,2,4.28,2,4.77V17h16V6.7z"/>
<path fill="#3A434C" d="M0,18c0,0.26,0.11,0.52,0.29,0.71S0.74,19,1,19h18c0.26,0,0.52-0.11,0.71-0.29S20,18.26,20,18V5.7
	c0-0.26-0.11-0.52-0.29-0.71S19.26,4.7,19,4.7h-8.01c-0.02-1-0.42-1.92-1.07-2.58C9.26,1.43,8.33,1,7.3,1H3.7
	C2.67,1,1.74,1.43,1.08,2.12C0.41,2.8,0,3.74,0,4.77V18z M2,4.77c0-0.5,0.2-0.94,0.51-1.26C2.82,3.19,3.24,3,3.7,3h3.6
	c0.46,0,0.88,0.19,1.19,0.51C8.8,3.83,9,4.28,9,4.77c0,0.52,0.21,1,0.55,1.35C9.88,6.47,10.37,6.7,10.9,6.7H18V17H2V4.77z"/>
</svg>
