<?xml version="1.0" encoding="UTF-8" standalone="no"?>
<svg width="22px" height="20px" viewBox="0 0 22 20" version="1.1" xmlns="http://www.w3.org/2000/svg" xmlns:xlink="http://www.w3.org/1999/xlink" xmlns:sketch="http://www.bohemiancoding.com/sketch/ns">
    <!-- Generator: Sketch 3.4.2 (15857) - http://www.bohemiancoding.com/sketch -->
    <title>thems</title>
    <desc>Created with Sketch.</desc>
    <defs></defs>
    <g id="Page-1" stroke="none" stroke-width="1" fill="none" fill-rule="evenodd" sketch:type="MSPage">
        <g id="themes" sketch:type="MSArtboardGroup" transform="translate(-5.000000, -6.000000)" fill="#3A434C">
            <path d="M26.6897113,10.2833477 C26.4921343,10.085879 26.2176481,9.97322908 25.9391839,9.97322908 L17.053523,9.97322908 C17.0150684,7.77456762 15.2275933,6.00132529 13.0184437,6 L9.04303538,6 C6.8113435,6.00132529 5.00265204,7.80902525 5,10.0394937 L5,24.9397654 C5,25.2194023 5.11271171,25.4924127 5.31028871,25.6898814 C5.50786571,25.8873501 5.78102586,26 6.06081611,26 L25.9391839,26 C26.2229522,26 26.4881562,25.8900007 26.6897113,25.6898814 C26.8899403,25.4897621 27,25.2233782 27,24.9397654 L27,11.0334637 C27,10.7538268 26.8859623,10.4808164 26.6897113,10.2833477 L26.6897113,10.2833477 Z M24.8783678,23.8795308 L7.12163221,23.8795308 L7.12163221,10.0394937 C7.12428425,8.98456033 7.98752336,8.12179445 9.04303538,8.12046915 L13.0184437,8.12046915 C14.0739558,8.12179445 14.9371949,8.98456033 14.9398469,10.0394937 C14.9411729,11.1739447 15.8574528,12.0910476 16.9938521,12.0936982 L24.8783678,12.0936982 L24.8783678,23.8795308 L24.8783678,23.8795308 Z" sketch:type="MSShapeGroup"></path>
        </g>
    </g>
</svg>