<?xml version="1.0" encoding="utf-8"?>
<!-- Generator: Adobe Illustrator 19.2.1, SVG Export Plug-In . SVG Version: 6.00 Build 0)  -->
<svg version="1.1" id="Calque_1" xmlns="http://www.w3.org/2000/svg" xmlns:xlink="http://www.w3.org/1999/xlink" x="0px" y="0px"
	 viewBox="0 0 20 20" style="enable-background:new 0 0 20 20;" xml:space="preserve">
<style type="text/css">
	.st0{fill:#3A434C;}
</style>
<path class="st0" d="M0,18c0,0.3,0.1,0.5,0.3,0.7S0.7,19,1,19h18c0.3,0,0.5-0.1,0.7-0.3S20,18.3,20,18V5.7c0-0.3-0.1-0.5-0.3-0.7
	S19.3,4.7,19,4.7h-8c0-1-0.4-1.9-1.1-2.6C9.3,1.4,8.3,1,7.3,1H3.7c-1,0-2,0.4-2.6,1.1C0.4,2.8,0,3.7,0,4.8V18z M2,4.8
	c0-0.5,0.2-0.9,0.5-1.3S3.2,3,3.7,3h3.6c0.5,0,0.9,0.2,1.2,0.5C8.8,3.8,9,4.3,9,4.8c0,0.5,0.2,1,0.6,1.3c0.3,0.3,0.8,0.6,1.3,0.6H18
	V17H2V4.8z"/>
</svg>
