<?xml version="1.0" encoding="utf-8"?>
<!-- Generator: Adobe Illustrator 19.2.1, SVG Export Plug-In . SVG Version: 6.00 Build 0)  -->
<svg version="1.1" id="Calque_1" xmlns="http://www.w3.org/2000/svg" xmlns:xlink="http://www.w3.org/1999/xlink" x="0px" y="0px"
	 viewBox="0 0 20 20" style="enable-background:new 0 0 20 20;" xml:space="preserve">
<style type="text/css">
	.st0{fill:#3A434C;}
</style>
<path class="st0" d="M18.8,17.7V2.3c0-1.2-1-2.3-2.3-2.3h-13C2.2,0,1.2,1,1.2,2.3v15.5c0,1.3,1,2.3,2.3,2.3h13
	C17.8,20,18.8,19,18.8,17.7z M3.5,18l-0.2-0.1l-0.1-0.2V2.3l0.1-0.2L3.5,2h13l0.2,0.1l0.1,0.2v15.5l-0.1,0.2L16.5,18H3.5z"/>
<path class="st0" d="M12.9,11.4l-1.9,2L10,12.5c-0.4-0.4-1-0.4-1.4,0s-0.4,1,0,1.4l1.7,1.6c0.2,0.2,0.4,0.3,0.7,0.3
	c0.3,0,0.5-0.1,0.7-0.3l2.6-2.7c0.4-0.4,0.4-1,0-1.4C13.9,11,13.2,11,12.9,11.4z"/>
<path class="st0" d="M6.4,6.2h7.1c0.6,0,1-0.4,1-1s-0.4-1-1-1H6.4c-0.6,0-1,0.4-1,1S5.9,6.2,6.4,6.2z"/>
<path class="st0" d="M12,8.9c0-0.6-0.4-1-1-1H6.4c-0.6,0-1,0.4-1,1s0.4,1,1,1H11C11.5,9.9,12,9.4,12,8.9z"/>
</svg>
