<?xml version="1.0" encoding="UTF-8" standalone="no"?>
<svg width="18px" height="20px" viewBox="0 0 18 20" version="1.1" xmlns="http://www.w3.org/2000/svg" xmlns:xlink="http://www.w3.org/1999/xlink" xmlns:sketch="http://www.bohemiancoding.com/sketch/ns">
    <!-- Generator: Sketch 3.4.2 (15857) - http://www.bohemiancoding.com/sketch -->
    <title>form</title>
    <desc>Created with Sketch.</desc>
    <defs></defs>
    <g id="Page-1" stroke="none" stroke-width="1" fill="none" fill-rule="evenodd" sketch:type="MSPage">
        <g id="form" sketch:type="MSArtboardGroup" transform="translate(-7.000000, -6.000000)" fill="#3A434C">
            <g sketch:type="MSLayerGroup" transform="translate(7.000000, 6.000000)">
                <path d="M15.2153465,0 L2.78465347,0 C1.24613243,0.00271076172 0.00278465347,1.21306587 0,2.71076172 L0,17.2892383 C0.00278465347,18.7855787 1.24613243,19.9959339 2.78465347,20 L15.2153465,20 C16.7524752,19.9959339 17.995823,18.7855787 18,17.2892383 L18,2.71076172 C17.995823,1.21306587 16.7524752,0.00271076172 15.2153465,0 L15.2153465,0 Z M16.0507426,17.2892383 C16.0493502,17.7297371 15.6678527,18.1011114 15.2153465,18.1011114 L2.78465347,18.1011114 C2.33075495,18.1011114 1.94925743,17.7297371 1.94925743,17.2892383 L1.94925743,2.71076172 C1.94925743,2.26890756 2.33214728,1.89753321 2.78465347,1.89753321 L15.2153465,1.89753321 C15.6678527,1.89753321 16.0493502,2.26890756 16.0507426,2.71076172 L16.0507426,17.2892383 L16.0507426,17.2892383 Z" id="Fill-1" sketch:type="MSShapeGroup"></path>
                <path d="M11.8017,11.42575 L9.8685,13.41025 L8.8803,12.4915 C8.5023,12.13975 7.90425,12.152875 7.5438,12.520375 C7.18335,12.8865625 7.19685,13.468 7.5735,13.8184375 L9.24885,15.376375 C9.4311,15.5456875 9.67275,15.6375625 9.9252,15.631 C10.17765,15.62575 10.4139,15.5220625 10.58805,15.344875 L13.1733,12.688375 C13.5324,12.320875 13.5162,11.7394375 13.13685,11.3903125 C12.75885,11.0411875 12.1608,11.0569375 11.8017,11.42575" id="Fill-2" sketch:type="MSShapeGroup"></path>
                <path d="M5.3541,6.178375 L12.44835,6.178375 C12.9708,6.178375 13.39335,5.7675625 13.39335,5.259625 C13.39335,4.753 12.9708,4.340875 12.44835,4.340875 L5.3541,4.340875 C4.83165,4.340875 4.4091,4.753 4.4091,5.259625 C4.4091,5.7675625 4.83165,6.178375 5.3541,6.178375" id="Fill-3" sketch:type="MSShapeGroup"></path>
                <path d="M10.81485,8.869 C10.81485,8.3610625 10.3923,7.95025 9.86985,7.95025 L5.3406,7.95025 C4.81815,7.95025 4.3956,8.3610625 4.3956,8.869 C4.3956,9.3769375 4.81815,9.78775 5.3406,9.78775 L9.86985,9.78775 C10.3923,9.78775 10.81485,9.3769375 10.81485,8.869" id="Fill-4" sketch:type="MSShapeGroup"></path>
            </g>
        </g>
    </g>
</svg>