<?xml version="1.0" encoding="utf-8"?>
<!-- Generator: Adobe Illustrator 19.1.0, SVG Export Plug-In . SVG Version: 6.00 Build 0)  -->
<svg version="1.1" id="Calque_1" xmlns="http://www.w3.org/2000/svg" xmlns:xlink="http://www.w3.org/1999/xlink" x="0px" y="0px"
	 viewBox="0 0 20 20" enable-background="new 0 0 20 20" xml:space="preserve">
<path fill="none" d="M16.69,17.92l0.08-0.19V2.26l-0.08-0.19L16.5,2H3.5L3.31,2.08L3.23,2.26v15.47l0.08,0.19L3.5,18H16.5
	L16.69,17.92z M6.45,4.15h7.08c0.55,0,1,0.45,1,1c0,0.55-0.45,1-1,1H6.45c-0.55,0-1-0.45-1-1C5.45,4.59,5.9,4.15,6.45,4.15z
	 M5.44,8.85c0-0.55,0.45-1,1-1h4.52c0.55,0,1,0.45,1,1s-0.45,1-1,1H6.44C5.89,9.85,5.44,9.4,5.44,8.85z M14.3,12.81l-2.58,2.73
	c-0.18,0.19-0.43,0.31-0.7,0.31c-0.27,0.01-0.52-0.09-0.72-0.28l-1.67-1.6c-0.4-0.38-0.41-1.01-0.03-1.41s1.01-0.41,1.41-0.03
	l0.95,0.9l1.89-2c0.38-0.4,1.01-0.42,1.41-0.04C14.66,11.78,14.68,12.41,14.3,12.81z"/>
<path fill="#3A434C" d="M18.77,17.74V2.26C18.76,1.01,17.76,0,16.5,0H3.5C2.24,0,1.24,1.01,1.23,2.26v15.47
	C1.24,18.99,2.24,20,3.5,20H16.5C17.76,20,18.76,18.99,18.77,17.74z M3.5,18l-0.19-0.08l-0.08-0.19V2.26l0.08-0.19L3.5,2H16.5
	l0.19,0.08l0.08,0.19v15.47l-0.08,0.19L16.5,18H3.5z"/>
<path fill="#3A434C" d="M12.85,11.44l-1.89,2l-0.95-0.9c-0.4-0.38-1.03-0.37-1.41,0.03s-0.37,1.03,0.03,1.41l1.67,1.6
	c0.19,0.18,0.45,0.28,0.72,0.28c0.27-0.01,0.52-0.12,0.7-0.31l2.58-2.73c0.38-0.4,0.36-1.03-0.04-1.41
	C13.86,11.02,13.23,11.04,12.85,11.44z"/>
<path fill="#3A434C" d="M6.45,6.15h7.08c0.55,0,1-0.45,1-1c0-0.55-0.45-1-1-1H6.45c-0.55,0-1,0.45-1,1C5.45,5.7,5.9,6.15,6.45,6.15z
	"/>
<path fill="#3A434C" d="M11.96,8.85c0-0.55-0.45-1-1-1H6.44c-0.55,0-1,0.45-1,1s0.45,1,1,1h4.52C11.51,9.85,11.96,9.4,11.96,8.85z"
	/>
</svg>
