<?xml version="1.0" encoding="utf-8"?>
<!-- Generator: Adobe Illustrator 19.1.0, SVG Export Plug-In . SVG Version: 6.00 Build 0)  -->
<svg version="1.1" id="Calque_1" xmlns="http://www.w3.org/2000/svg" xmlns:xlink="http://www.w3.org/1999/xlink" x="0px" y="0px"
	 viewBox="0 0 20 20" enable-background="new 0 0 20 20" xml:space="preserve">
<path fill="none" d="M17.72,3H2.28l-0.2,0.08L2,3.28v13.44l0.08,0.2L2.28,17h15.44l0.2-0.08l0.08-0.2V3.28l-0.08-0.2L17.72,3z
	 M8.43,6.89l-2.67,0v2.77h-2V4.89h4.67V6.89z M16.21,15.03h-4.67v-2h2.67v-2.77h2V15.03z"/>
<polygon fill="#3A434C" points="3.76,9.66 5.76,9.66 5.76,6.89 8.43,6.89 8.43,4.89 3.76,4.89 "/>
<path fill="#3A434C" d="M17.72,1H2.28C1.02,1,0,2.02,0,3.28v13.44C0,17.98,1.02,19,2.28,19h15.44c1.26,0,2.28-1.02,2.28-2.28V3.28
	C20,2.02,18.98,1,17.72,1z M18,16.72l-0.08,0.2L17.72,17H2.28l-0.2-0.08L2,16.72V3.28l0.08-0.2L2.28,3h15.44l0.2,0.08L18,3.28V16.72
	z"/>
<polygon fill="#3A434C" points="14.21,13.03 11.54,13.03 11.54,15.03 16.21,15.03 16.21,10.26 14.21,10.26 "/>
</svg>
