<?xml version="1.0" encoding="utf-8"?>
<!-- Generator: Adobe Illustrator 19.1.0, SVG Export Plug-In . SVG Version: 6.00 Build 0)  -->
<svg version="1.1" id="Calque_1" xmlns="http://www.w3.org/2000/svg" xmlns:xlink="http://www.w3.org/1999/xlink" x="0px" y="0px"
	 viewBox="0 0 20 20" enable-background="new 0 0 20 20" xml:space="preserve">
<path fill="#3A434C" d="M6.84,19.74c0.5,0.09,0.68-0.22,0.68-0.48c0-0.24-0.01-0.87-0.01-1.7c-2.78,0.6-3.37-1.34-3.37-1.34
	c-0.45-1.16-1.11-1.46-1.11-1.46c-0.91-0.62,0.07-0.61,0.07-0.61c1,0.07,1.53,1.03,1.53,1.03C5.52,16.7,6.97,16.26,7.54,16
	c0.09-0.65,0.35-1.09,0.63-1.34c-2.22-0.25-4.55-1.11-4.55-4.94c0-1.09,0.39-1.98,1.03-2.68c-0.1-0.25-0.45-1.27,0.1-2.65
	c0,0,0.84-0.27,2.75,1.03C8.29,5.2,9.15,5.09,10,5.08c0.85,0,1.7,0.11,2.5,0.34c1.91-1.29,2.75-1.03,2.75-1.03
	c0.55,1.38,0.2,2.39,0.1,2.65c0.64,0.7,1.03,1.59,1.03,2.68c0,3.84-2.34,4.69-4.57,4.93c0.36,0.31,0.68,0.92,0.68,1.85
	c0,1.34-0.01,2.42-0.01,2.74c0,0.27,0.18,0.58,0.69,0.48c3.97-1.32,6.83-5.07,6.83-9.49c0-5.52-4.48-10-10-10c-5.52,0-10,4.48-10,10
	C0,14.67,2.87,18.41,6.84,19.74z"/>
</svg>
