<?xml version="1.0" encoding="UTF-8" standalone="no"?>
<svg width="20px" height="20px" viewBox="0 0 20 20" version="1.1" xmlns="http://www.w3.org/2000/svg" xmlns:xlink="http://www.w3.org/1999/xlink">
    <defs></defs>
    <g id="Page-1" stroke="none" stroke-width="1" fill="none" fill-rule="evenodd">
        <g id="github" transform="translate(-6.000000, -6.000000)" fill="#3A434C">
            <path d="M15.9990792,6 C10.4777311,6 6,10.5904205 6,16.2533868 C6,20.7833822 8.86503576,24.6260419 12.8387612,25.9818304 C13.3390835,26.0762447 13.5214095,25.7596422 13.5214095,25.4877292 C13.5214095,25.2447699 13.512815,24.5996059 13.5079039,23.7442129 C10.7263575,24.3635703 10.1394763,22.3695415 10.1394763,22.3695415 C9.68458209,21.1849574 9.02894503,20.8696139 9.02894503,20.8696139 C8.12099819,20.2338913 9.09770097,20.2464799 9.09770097,20.2464799 C10.101415,20.3188641 10.6293625,21.30329 10.6293625,21.30329 C11.5213481,22.869937 12.9701341,22.417378 13.5398263,22.1549064 C13.6306823,21.4927479 13.889131,21.0408184 14.174591,20.784641 C11.9541422,20.525946 9.6195095,19.6460053 9.6195095,15.7171139 C9.6195095,14.5979904 10.0093312,13.6821722 10.649007,12.9658829 C10.5458731,12.7065584 10.2027073,11.6635957 10.7472298,10.2524175 C10.7472298,10.2524175 11.5864207,9.97672792 13.4968538,11.3035628 C14.2943,11.0757097 15.150066,10.9624126 16.0003069,10.9580066 C16.849934,10.9624126 17.7050861,11.0757097 18.5037601,11.3035628 C20.4129654,9.97672792 21.2509285,10.2524175 21.2509285,10.2524175 C21.7966788,11.6635957 21.453513,12.7065584 21.350993,12.9658829 C21.9918966,13.6821722 22.3786488,14.5979904 22.3786488,15.7171139 C22.3786488,19.6560761 20.0403327,20.5227989 17.8131312,20.7764585 C18.1716443,21.0930609 18.4914822,21.7187126 18.4914822,22.6754436 C18.4914822,24.045709 18.4792044,25.1516145 18.4792044,25.4877292 C18.4792044,25.7621599 18.6596888,26.0812801 19.1667639,25.981201 C23.1374198,24.6222653 26,20.7821233 26,16.2533868 C26,10.5904205 21.5222689,6 15.9990792,6"></path>
        </g>
    </g>
</svg>