<?xml version="1.0" encoding="utf-8"?>
<!-- Generator: Adobe Illustrator 19.2.1, SVG Export Plug-In . SVG Version: 6.00 Build 0)  -->
<svg version="1.1" id="Calque_1" xmlns="http://www.w3.org/2000/svg" xmlns:xlink="http://www.w3.org/1999/xlink" x="0px" y="0px"
	 viewBox="0 0 20 20" style="enable-background:new 0 0 20 20;" xml:space="preserve">
<style type="text/css">
	.st0{fill:#3A434C;}
</style>
<path class="st0" d="M8.3,16.6c2,0,3.8-0.7,5.2-1.9l4.7,5c0.4,0.4,1,0.4,1.4,0s0.4-1,0-1.4l-4.8-5.1c1-1.4,1.6-3.1,1.7-4.9
	c0-4.6-3.7-8.3-8.3-8.3C3.7,0,0,3.7,0,8.3S3.7,16.6,8.3,16.6z M3.8,3.8C5,2.7,6.6,2,8.3,2c1.7,0,3.3,0.7,4.4,1.8s1.8,2.7,1.8,4.4
	s-0.7,3.3-1.8,4.4s-2.7,1.8-4.4,1.8S5,13.9,3.8,12.7C2.7,11.6,2,10,2,8.3S2.7,5,3.8,3.8z"/>
</svg>
