<?xml version="1.0" encoding="utf-8"?>
<!-- Generator: Adobe Illustrator 19.1.0, SVG Export Plug-In . SVG Version: 6.00 Build 0)  -->
<svg version="1.1" id="Calque_1" xmlns="http://www.w3.org/2000/svg" xmlns:xlink="http://www.w3.org/1999/xlink" x="0px" y="0px"
	 viewBox="0 0 20 20" enable-background="new 0 0 20 20" xml:space="preserve">
<path fill="none" d="M8.28,14.56c1.74,0,3.31-0.7,4.45-1.84c1.14-1.14,1.84-2.7,1.84-4.44c0-1.74-0.7-3.3-1.84-4.44
	C11.59,2.7,10.02,2,8.28,2C6.55,2,4.98,2.7,3.84,3.84C2.7,4.98,2,6.54,2,8.28c0,1.74,0.7,3.3,1.84,4.44
	C4.98,13.86,6.55,14.56,8.28,14.56z"/>
<path fill="#3A434C" d="M8.28,16.56c1.99,0,3.82-0.71,5.25-1.88l4.73,5c0.38,0.4,1.01,0.42,1.41,0.04c0.4-0.38,0.42-1.01,0.04-1.41
	l-4.81-5.08c1.03-1.38,1.65-3.09,1.66-4.95C16.57,3.7,12.86,0,8.28,0C3.71,0,0,3.7,0,8.28C0,12.86,3.71,16.56,8.28,16.56z
	 M3.84,3.84C4.98,2.7,6.55,2,8.28,2c1.74,0,3.31,0.7,4.45,1.84c1.14,1.14,1.84,2.7,1.84,4.44c0,1.74-0.7,3.3-1.84,4.44
	c-1.14,1.14-2.71,1.84-4.45,1.84c-1.74,0-3.31-0.7-4.45-1.84C2.7,11.58,2,10.02,2,8.28C2,6.54,2.7,4.98,3.84,3.84z"/>
</svg>
