<?xml version="1.0" encoding="utf-8"?>
<!-- Generator: Adobe Illustrator 19.1.0, SVG Export Plug-In . SVG Version: 6.00 Build 0)  -->
<svg version="1.1" id="Calque_1" xmlns="http://www.w3.org/2000/svg" xmlns:xlink="http://www.w3.org/1999/xlink" x="0px" y="0px"
	 viewBox="0 0 20 20" enable-background="new 0 0 20 20" xml:space="preserve">
<path fill="#3A434C" d="M19,8.18c-0.55,0-1,0.45-1,1v6.07c0,0.19-0.07,0.35-0.19,0.47c-0.12,0.12-0.25,0.18-0.4,0.18H2.59
	c-0.15,0-0.29-0.06-0.4-0.18C2.07,15.6,2,15.43,2,15.24V9.18c0-0.55-0.45-1-1-1s-1,0.45-1,1v6.07c0,0.72,0.28,1.38,0.75,1.86
	c0.46,0.48,1.12,0.79,1.84,0.79h14.82c0.72,0,1.38-0.31,1.84-0.79c0.46-0.48,0.75-1.14,0.75-1.86V9.18C20,8.63,19.55,8.18,19,8.18z"
	/>
<polygon fill="#3A434C" points="8.75,3 11.29,7.42 13.79,7.42 11.25,3 "/>
<polygon fill="#3A434C" points="7.9,10 12.73,10 13.98,7.79 9.15,7.79 "/>
<polygon fill="#3A434C" points="6.02,7.79 7.27,10 9.71,5.76 8.42,3.55 "/>
</svg>
