<?xml version="1.0" encoding="utf-8"?>
<!-- Generator: Adobe Illustrator 19.1.0, SVG Export Plug-In . SVG Version: 6.00 Build 0)  -->
<svg version="1.1" id="Calque_1" xmlns="http://www.w3.org/2000/svg" xmlns:xlink="http://www.w3.org/1999/xlink" x="0px" y="0px"
	 viewBox="0 0 20 20" enable-background="new 0 0 20 20" xml:space="preserve">
<path fill="#3A434C" d="M10.45,20C16,20,20,16.22,20,10.84c0-0.5-0.03-0.94-0.09-1.33c-0.03-0.24-0.07-0.42-0.1-0.52l-0.14-0.53
	h-0.56h-8.73H9.67v0.7v2.53v0.7h0.72h5.34c-0.56,2.33-2.65,3.66-5.33,3.66c-3.38,0-6.12-2.61-6.12-6.04c0-3.43,2.7-6.08,6.13-6.08
	c1.15,0,2.18,0.31,3.08,0.82c0.53,0.3,0.9,0.6,1.07,0.79l0.52,0.54l0.53-0.53l1.81-1.84l0.46-0.47l-0.45-0.49
	c-0.34-0.37-0.96-0.89-1.87-1.4C14.06,0.51,12.31,0,10.31,0C4.65,0,0,4.63,0,9.98C0,15.37,4.54,20,10.45,20z"/>
</svg>
