<svg viewBox="0 0 20 20"><path d="M10 0C8.45 0 7.2 1.25 7.2 2.8S8.45 5.6 10 5.6s2.8-1.25 2.8-2.8S11.55 0 10 0zm0 3.6c-.44 0-.8-.36-.8-.8s.36-.8.8-.8.8.36.8.8-.36.8-.8.8zM17.2 0c-1.55 0-2.8 1.25-2.8 2.8s1.25 2.8 2.8 2.8S20 4.35 20 2.8 18.75 0 17.2 0zm0 3.6c-.44 0-.8-.36-.8-.8s.36-.8.8-.8.8.36.8.8-.36.8-.8.8zM10 7.2c-1.55 0-2.8 1.25-2.8 2.8s1.25 2.8 2.8 2.8 2.8-1.25 2.8-2.8-1.25-2.8-2.8-2.8zm0 3.6c-.44 0-.8-.36-.8-.8 0-.44.36-.8.8-.8.44 0 .8.36.8.8 0 .44-.36.8-.8.8zm0 3.6c-1.55 0-2.8 1.25-2.8 2.8S8.45 20 10 20s2.8-1.25 2.8-2.8-1.25-2.8-2.8-2.8zm0 3.6c-.44 0-.8-.36-.8-.8 0-.44.36-.8.8-.8.44 0 .8.36.8.8s-.36.8-.8.8zm7.2-10.8c-1.55 0-2.8 1.25-2.8 2.8s1.25 2.8 2.8 2.8S20 11.55 20 10s-1.25-2.8-2.8-2.8zm0 3.6c-.44 0-.8-.36-.8-.8 0-.44.36-.8.8-.8.44 0 .8.36.8.8 0 .44-.36.8-.8.8zm0 3.6c-1.55 0-2.8 1.25-2.8 2.8s1.25 2.8 2.8 2.8 2.8-1.25 2.8-2.8-1.25-2.8-2.8-2.8zm0 3.6c-.44 0-.8-.36-.8-.8 0-.44.36-.8.8-.8.44 0 .8.36.8.8s-.36.8-.8.8zM0 10c0 1.55 1.25 2.8 2.8 2.8s2.8-1.25 2.8-2.8-1.25-2.8-2.8-2.8S0 8.45 0 10zm2.8-.8c.44 0 .8.36.8.8 0 .44-.36.8-.8.8S2 10.44 2 10s.36-.8.8-.8zm0 5.2c-1.55 0-2.8 1.25-2.8 2.8C0 18.75 1.25 20 2.8 20s2.8-1.25 2.8-2.8-1.25-2.8-2.8-2.8zm0 3.6c-.44 0-.8-.36-.8-.8 0-.44.36-.8.8-.8s.8.36.8.8-.36.8-.8.8z"/></svg>