<?xml version="1.0" encoding="UTF-8" standalone="no"?>
<svg width="20px" height="20px" viewBox="0 0 20 20" version="1.1" xmlns="http://www.w3.org/2000/svg" xmlns:xlink="http://www.w3.org/1999/xlink" xmlns:sketch="http://www.bohemiancoding.com/sketch/ns">
    <!-- Generator: Sketch 3.4.2 (15857) - http://www.bohemiancoding.com/sketch -->
    <title>grid</title>
    <desc>Created with Sketch.</desc>
    <defs></defs>
    <g id="Page-1" stroke="none" stroke-width="1" fill="none" fill-rule="evenodd" sketch:type="MSPage">
        <g id="grid" sketch:type="MSArtboardGroup" transform="translate(-6.000000, -6.000000)" fill="#3A434C">
            <g sketch:type="MSLayerGroup" transform="translate(6.000000, 6.000000)">
                <path d="M10.103625,7.32236842 L10.0576875,7.32236842 C8.6428125,7.32631579 7.5009375,8.47105263 7.497,9.88947368 L7.497,9.93157895 C7.5009375,11.3723684 8.6625,12.5368421 10.0996875,12.5407895 L10.103625,12.5407895 C11.5408125,12.5368421 12.702375,11.3723684 12.705,9.93157895 C12.702375,8.49078947 11.5408125,7.32631579 10.103625,7.32236842 L10.103625,7.32236842 Z M10.103625,10.6986842 L10.0996875,10.6986842 C9.68625,10.6973684 9.3358125,10.3473684 9.3358125,9.93157895 L9.3358125,9.88947368 C9.3358125,9.49736842 9.6665625,9.16578947 10.0576875,9.16447368 L10.103625,9.16447368 C10.5170625,9.16578947 10.8675,9.51578947 10.8675,9.93157895 C10.8675,10.3473684 10.5170625,10.6973684 10.103625,10.6986842 L10.103625,10.6986842 Z" id="Fill-1" sketch:type="MSShapeGroup"></path>
                <path d="M10.103625,0.0565789474 L10.0576875,0.0565789474 C8.6428125,0.0605263158 7.5009375,1.20526316 7.497,2.62368421 L7.497,2.66578947 C7.5009375,4.10657895 8.6625,5.27105263 10.0996875,5.275 L10.103625,5.275 C11.5408125,5.27105263 12.702375,4.10657895 12.705,2.66578947 C12.702375,1.225 11.5408125,0.0605263158 10.103625,0.0565789474 L10.103625,0.0565789474 Z M10.103625,3.43289474 L10.0996875,3.43289474 C9.68625,3.43157895 9.3358125,3.08157895 9.3358125,2.66578947 L9.3358125,2.62368421 C9.3358125,2.23026316 9.6665625,1.9 10.0576875,1.89868421 L10.103625,1.89868421 C10.5170625,1.9 10.8675,2.25 10.8675,2.66578947 C10.8675,3.08157895 10.5170625,3.43157895 10.103625,3.43289474 L10.103625,3.43289474 Z" id="Fill-2" sketch:type="MSShapeGroup"></path>
                <path d="M10.103625,14.5881579 L10.0576875,14.5881579 C8.6428125,14.5921053 7.5009375,15.7368421 7.497,17.1552632 L7.497,17.1973684 C7.5009375,18.6381579 8.6625,19.8026316 10.0996875,19.8065789 L10.103625,19.8065789 C11.5408125,19.8026316 12.702375,18.6381579 12.705,17.1973684 C12.702375,15.7565789 11.5408125,14.5921053 10.103625,14.5881579 L10.103625,14.5881579 Z M10.103625,17.9644737 L10.0996875,17.9644737 C9.68625,17.9631579 9.3358125,17.6131579 9.3358125,17.1973684 L9.3358125,17.1552632 C9.3358125,16.7631579 9.6665625,16.4315789 10.0576875,16.4302632 L10.103625,16.4302632 C10.5170625,16.4315789 10.8675,16.7815789 10.8675,17.1973684 C10.8675,17.6131579 10.5170625,17.9631579 10.103625,17.9644737 L10.103625,17.9644737 Z" id="Fill-3" sketch:type="MSShapeGroup"></path>
                <path d="M2.66175,7.32236842 L2.617125,7.32236842 C1.20225,7.32631579 0.060375,8.47105263 0.0564375,9.88947368 L0.0564375,9.93157895 C0.060375,11.3723684 1.2219375,12.5368421 2.659125,12.5407895 L2.66175,12.5407895 C4.0989375,12.5368421 5.2605,11.3723684 5.2644375,9.93157895 C5.2605,8.49078947 4.0989375,7.32631579 2.66175,7.32236842 L2.66175,7.32236842 Z M2.66175,10.6986842 L2.659125,10.6986842 C2.244375,10.6973684 1.89525,10.3473684 1.8939375,9.93157895 L1.8939375,9.88947368 C1.89525,9.49736842 2.2246875,9.16578947 2.617125,9.16447368 L2.66175,9.16447368 C3.0765,9.16578947 3.425625,9.51578947 3.4269375,9.93157895 C3.425625,10.3473684 3.0765,10.6973684 2.66175,10.6986842 L2.66175,10.6986842 Z" id="Fill-4" sketch:type="MSShapeGroup"></path>
                <path d="M2.66175,14.5881579 L2.617125,14.5881579 C1.20225,14.5921053 0.060375,15.7368421 0.0564375,17.1552632 L0.0564375,17.1973684 C0.060375,18.6381579 1.2219375,19.8026316 2.659125,19.8065789 L2.66175,19.8065789 C4.0989375,19.8026316 5.2605,18.6381579 5.2644375,17.1973684 C5.2605,15.7565789 4.0989375,14.5921053 2.66175,14.5881579 L2.66175,14.5881579 Z M2.66175,17.9644737 L2.659125,17.9644737 C2.244375,17.9631579 1.89525,17.6131579 1.8939375,17.1973684 L1.8939375,17.1552632 C1.89525,16.7631579 2.2246875,16.4315789 2.617125,16.4302632 L2.66175,16.4302632 C3.0765,16.4315789 3.425625,16.7815789 3.4269375,17.1973684 C3.425625,17.6131579 3.0765,17.9631579 2.66175,17.9644737 L2.66175,17.9644737 Z" id="Fill-5" sketch:type="MSShapeGroup"></path>
                <path d="M17.5441875,7.32236842 L17.4995625,7.32236842 C16.0846875,7.32631579 14.9415,8.47105263 14.938875,9.88947368 L14.938875,9.93157895 C14.9415,11.3723684 16.104375,12.5368421 17.5415625,12.5407895 L17.5441875,12.5407895 C18.981375,12.5368421 20.1429375,11.3723684 20.146875,9.93157895 C20.1429375,8.49078947 18.981375,7.32631579 17.5441875,7.32236842 L17.5441875,7.32236842 Z M17.5441875,10.6986842 L17.5415625,10.6986842 C17.1268125,10.6973684 16.776375,10.3473684 16.776375,9.93157895 L16.776375,9.88947368 C16.776375,9.49736842 17.107125,9.16578947 17.4995625,9.16447368 L17.5441875,9.16447368 C17.9589375,9.16578947 18.3080625,9.51578947 18.309375,9.93157895 C18.3080625,10.3473684 17.9589375,10.6973684 17.5441875,10.6986842 L17.5441875,10.6986842 Z" id="Fill-6" sketch:type="MSShapeGroup"></path>
                <path d="M17.5415625,5.275 L17.5441875,5.275 C18.981375,5.27105263 20.1429375,4.10657895 20.146875,2.66578947 C20.1429375,1.225 18.981375,0.0605263158 17.5441875,0.0565789474 L17.4995625,0.0565789474 C16.0846875,0.0605263158 14.9415,1.20526316 14.938875,2.62368421 L14.938875,2.66578947 C14.9415,4.10657895 16.104375,5.27105263 17.5415625,5.275 L17.5415625,5.275 Z M16.776375,2.62368421 C16.776375,2.23026316 17.107125,1.9 17.4995625,1.89868421 L17.5441875,1.89868421 C17.957625,1.9 18.3080625,2.25 18.309375,2.66578947 C18.3080625,3.08157895 17.9589375,3.43157895 17.5441875,3.43289474 L17.5415625,3.43289474 C17.1268125,3.43157895 16.776375,3.08157895 16.776375,2.66578947 L16.776375,2.62368421 L16.776375,2.62368421 Z" id="Fill-7" sketch:type="MSShapeGroup"></path>
                <path d="M17.5441875,14.5881579 L17.4995625,14.5881579 C16.0846875,14.5921053 14.9415,15.7368421 14.938875,17.1552632 L14.938875,17.1973684 C14.9415,18.6381579 16.104375,19.8026316 17.5415625,19.8065789 L17.5441875,19.8065789 C18.981375,19.8026316 20.1429375,18.6381579 20.146875,17.1973684 C20.1429375,15.7565789 18.981375,14.5921053 17.5441875,14.5881579 L17.5441875,14.5881579 Z M17.5441875,17.9644737 L17.5415625,17.9644737 C17.1268125,17.9631579 16.776375,17.6131579 16.776375,17.1973684 L16.776375,17.1552632 C16.776375,16.7631579 17.107125,16.4315789 17.4995625,16.4302632 L17.5441875,16.4302632 C17.9589375,16.4315789 18.3080625,16.7815789 18.309375,17.1973684 C18.3080625,17.6131579 17.9589375,17.9631579 17.5441875,17.9644737 L17.5441875,17.9644737 Z" id="Fill-8" sketch:type="MSShapeGroup"></path>
            </g>
        </g>
    </g>
</svg>