<?xml version="1.0" encoding="utf-8"?>
<!-- Generator: Adobe Illustrator 19.2.1, SVG Export Plug-In . SVG Version: 6.00 Build 0)  -->
<svg version="1.1" id="Calque_1" xmlns="http://www.w3.org/2000/svg" xmlns:xlink="http://www.w3.org/1999/xlink" x="0px" y="0px"
	 viewBox="0 0 20 20" enable-background="new 0 0 20 20" xml:space="preserve">
<path fill="#3A434C" d="M18.38,12.65c-0.8-0.51-1.75-0.85-2.69-1.09c-0.94-0.23-1.86-0.35-2.61-0.35c-0.1,0-0.22,0.02-0.32,0.02
	c0.76,0.34,1.47,0.79,2.03,1.41c0.24,0.26,0.44,0.57,0.6,0.91c0.35,0.09,0.7,0.2,1.02,0.33c0.54,0.22,1,0.48,1.26,0.73
	c0.13,0.12,0.22,0.24,0.26,0.33c0.05,0.09,0.06,0.15,0.06,0.23v0.48h-2.3v2H19c0.26,0,0.52-0.11,0.71-0.29
	C19.9,17.17,20,16.92,20,16.65v-1.48c0-0.41-0.11-0.81-0.29-1.15C19.4,13.42,18.92,12.99,18.38,12.65z"/>
<path fill="#3A434C" d="M12.29,4.51c0.24-0.11,0.51-0.17,0.79-0.17c1.08,0,1.96,0.88,1.96,1.96s-0.88,1.96-1.96,1.96
	c-0.28,0-0.55-0.06-0.79-0.17c-0.32,0.62-0.78,1.14-1.35,1.52c0.62,0.4,1.35,0.65,2.14,0.65c2.19,0,3.96-1.77,3.96-3.96
	s-1.77-3.96-3.96-3.96c-0.79,0-1.52,0.24-2.14,0.65C11.51,3.37,11.98,3.9,12.29,4.51z"/>
<path fill="#3A434C" d="M7.85,10.14c1.74-0.42,3.03-1.97,3.03-3.84c0-1.86-1.29-3.42-3.03-3.84C7.55,2.4,7.24,2.35,6.92,2.35
	c-2.19,0-3.96,1.77-3.96,3.96s1.77,3.96,3.96,3.96C7.24,10.27,7.55,10.22,7.85,10.14z M6.92,4.35c1.08,0,1.96,0.88,1.96,1.96
	S8,8.27,6.92,8.27S4.96,7.39,4.96,6.31C4.96,5.22,5.84,4.35,6.92,4.35z"/>
<path fill="#3A434C" d="M13.83,15.17c0-0.41-0.11-0.81-0.29-1.15c-0.31-0.6-0.8-1.03-1.33-1.37c-0.8-0.51-1.75-0.85-2.69-1.09
	c-0.94-0.23-1.86-0.35-2.61-0.35c-0.83,0-1.86,0.15-2.9,0.43c-0.4,0.11-0.79,0.23-1.18,0.39c-0.69,0.28-1.34,0.63-1.88,1.12
	c-0.27,0.25-0.51,0.53-0.68,0.87C0.11,14.36,0,14.76,0,15.17v2.48h1.86h9.05h2.92V15.17z M10.91,15.65H3.86H2v-0.48
	c0-0.08,0.02-0.14,0.06-0.23c0.08-0.16,0.29-0.39,0.64-0.61C3.22,14,4,13.7,4.79,13.5s1.59-0.29,2.13-0.29
	c0.83-0.01,2.25,0.23,3.33,0.67c0.54,0.22,1,0.48,1.26,0.73c0.13,0.12,0.22,0.24,0.26,0.33c0.05,0.09,0.06,0.15,0.06,0.23v0.48
	H10.91z"/>
</svg>
