<?xml version="1.0" encoding="UTF-8" standalone="no"?>
<svg width="25px" height="20px" viewBox="0 0 25 20" version="1.1" xmlns="http://www.w3.org/2000/svg" xmlns:xlink="http://www.w3.org/1999/xlink" xmlns:sketch="http://www.bohemiancoding.com/sketch/ns">
    <!-- Generator: Sketch 3.4.2 (15857) - http://www.bohemiancoding.com/sketch -->
    <title>group</title>
    <desc>Created with Sketch.</desc>
    <defs></defs>
    <g id="Page-1" stroke="none" stroke-width="1" fill="none" fill-rule="evenodd" sketch:type="MSPage">
        <g id="group" sketch:type="MSArtboardGroup" transform="translate(-6.000000, -6.000000)" fill="#3A434C">
            <g sketch:type="MSLayerGroup" transform="translate(6.000000, 6.000000)">
                <path d="M14.8080769,2.38787624 C15.3016667,2.08752299 15.8798718,1.90269023 16.5116667,1.90269023 C18.2885897,1.90540836 19.7228205,3.28893596 19.725641,4.99999811 C19.7228205,6.71241931 18.2885897,8.09458785 16.5116667,8.09730598 C15.8798718,8.09730598 15.3016667,7.91383228 14.8066667,7.61211997 C14.4526923,8.16661827 13.994359,8.64636802 13.45,9.02962419 C14.3088462,9.637126 15.3679487,10.0013553 16.5116667,9.99999621 C19.3787179,9.99999621 21.7,7.76297613 21.7,4.99999811 C21.7,2.23837915 19.3787179,0 16.5116667,0 C15.3679487,0 14.3088462,0.364229272 13.45,0.970372016 C13.994359,1.35362819 14.4526923,1.83337794 14.8080769,2.38787624" id="Fill-1" sketch:type="MSShapeGroup"></path>
                <path d="M23.9766246,14.3119214 C23.1037818,13.3435565 21.8995389,12.7287442 20.6719579,12.2999375 C19.44321,11.8796501 18.1992924,11.6680866 17.2295968,11.6666667 C17.0778995,11.6666667 16.9145332,11.6766059 16.75,11.6865451 C17.5878357,12.1593684 18.370827,12.7628216 18.9729485,13.569319 C19.0546316,13.6772306 19.1223119,13.8007611 19.1958268,13.917192 C19.895968,14.0833191 20.6276156,14.3247004 21.2729125,14.6427557 C21.9368798,14.9636508 22.5098287,15.3654796 22.8692345,15.772988 C23.2344749,16.1918555 23.364001,16.5368887 23.3663348,16.8904413 L23.3663348,18.0107344 L19.9426441,18.0107344 L19.9426441,20 L24.1831663,20 C24.3978763,20 24.6079186,19.8935083 24.7607828,19.7075027 C24.9124801,19.522917 24.9999977,19.2673369 24.9999977,19.0060771 L24.9999977,16.8904413 C25.0011646,15.8368831 24.5519073,14.9494519 23.9766246,14.3119214" id="Fill-2" sketch:type="MSShapeGroup"></path>
                <path d="M16.7499904,16.8904413 C16.7524684,15.8368831 16.2754469,14.9494519 15.6646116,14.3119214 C14.737827,13.3435565 13.4591615,12.7287442 12.1557157,12.2999375 C10.8497919,11.8796501 9.52899993,11.6680866 8.50061591,11.6666667 C7.13150224,11.6709263 5.23208934,12.0372579 3.56313359,12.796899 C2.72927522,13.1816891 1.95365064,13.6630317 1.33662023,14.3119214 C0.724545885,14.9494519 0.248763398,15.8368831 0.250002414,16.8904413 L0.250002414,20 L16.7499904,20 L16.7499904,16.8904413 L16.7499904,16.8904413 Z M1.98462607,18.0107344 L1.98462607,16.8904413 C1.9871041,16.5368887 2.12463497,16.1918555 2.51244726,15.772988 C3.08487307,15.1553359 4.17025187,14.5788607 5.31758151,14.2125291 C6.46367214,13.8390981 7.68162574,13.6516726 8.50061591,13.6530925 C9.59466783,13.6488329 11.3875253,13.9910263 12.7938094,14.6427557 C13.497571,14.9636508 14.1059283,15.3654796 14.4875455,15.772988 C14.8753578,16.1918555 15.0141277,16.5368887 15.0153667,16.8904413 L15.0153667,18.0107344 L1.98462607,18.0107344 L1.98462607,18.0107344 Z" id="Fill-5" sketch:type="MSShapeGroup"></path>
                <path d="M3.55,5 C3.55,7.34030987 5.14707801,9.28784996 7.29445501,9.83419407 C7.68195162,9.93204675 8.08155749,10 8.5,10 C8.93862463,10 9.35706714,9.92525143 9.76205491,9.81652623 C11.881177,9.25115521 13.45,7.31992389 13.45,5 C13.45,2.68143517 11.881177,0.75020386 9.76205491,0.18347377 C9.35706714,0.0761076379 8.93862463,0 8.5,0 C8.08155749,0 7.68195162,0.0679532482 7.29445501,0.165805926 C5.14707801,0.712150041 3.55,2.65969013 3.55,5 L3.55,5 Z M11.566336,5 C11.563645,6.71242185 10.1939522,8.09459092 8.5,8.09730905 C6.80604784,8.09459092 5.43635499,6.71242185 5.43366404,5 C5.43635499,3.28893721 6.80604784,1.90540908 8.5,1.90269095 C10.1939522,1.90540908 11.563645,3.28893721 11.566336,5 L11.566336,5 Z" id="Fill-6" sketch:type="MSShapeGroup"></path>
            </g>
        </g>
    </g>
</svg>