<?xml version="1.0" encoding="utf-8"?>
<!-- Generator: Adobe Illustrator 19.2.1, SVG Export Plug-In . SVG Version: 6.00 Build 0)  -->
<svg version="1.1" id="Calque_1" xmlns="http://www.w3.org/2000/svg" xmlns:xlink="http://www.w3.org/1999/xlink" x="0px" y="0px"
	 viewBox="0 0 20 20" style="enable-background:new 0 0 20 20;" xml:space="preserve">
<style type="text/css">
	.st0{fill:#3A434C;}
</style>
<path class="st0" d="M12.3,4.5c0.2-0.1,0.5-0.2,0.8-0.2c1.1,0,2,0.9,2,2s-0.9,2-2,2c-0.3,0-0.5-0.1-0.8-0.2
	c-0.3,0.6-0.8,1.1-1.4,1.5c0.6,0.4,1.4,0.6,2.1,0.6c2.2,0,4-1.8,4-4c0-2.2-1.8-4-4-4c-0.8,0-1.5,0.2-2.1,0.6
	C11.5,3.4,12,3.9,12.3,4.5z"/>
<path class="st0" d="M13.1,11.2c-0.1,0-0.2,0-0.3,0c1.1,0.5,2.1,1.3,2.6,2.3c1.4,0.4,2.6,1,2.6,1.6v0.5h-2.3v2H19c0.6,0,1-0.4,1-1
	v-1.5C20,12.2,14.9,11.2,13.1,11.2z"/>
<path class="st0" d="M12.8,17.7H1c-0.6,0-1-0.4-1-1v-1.5c0-3,5.1-4,6.9-4s6.9,0.9,6.9,4v1.5C13.8,17.2,13.4,17.7,12.8,17.7z M2,15.7
	h9.8v-0.5c0-0.9-2.9-2-4.9-2s-4.9,1-4.9,2V15.7z M6.9,10.3c-2.2,0-4-1.8-4-4c0-2.2,1.8-4,4-4c2.2,0,4,1.8,4,4
	C10.9,8.5,9.1,10.3,6.9,10.3z M6.9,4.3c-1.1,0-2,0.9-2,2s0.9,2,2,2s2-0.9,2-2S8,4.3,6.9,4.3z"/>
</svg>
