<svg viewBox="0 0 20 20"><path d="M12.3 4.5c.2-.1.5-.2.8-.2 1.1 0 2 .9 2 2s-.9 2-2 2c-.3 0-.5-.1-.8-.2-.3.6-.8 1.1-1.4 1.5.6.4 1.4.6 2.1.6 2.2 0 4-1.8 4-4s-1.8-4-4-4c-.8 0-1.5.2-2.1.6.6.6 1.1 1.1 1.4 1.7zm.8 6.7h-.3c1.1.5 2.1 1.3 2.6 2.3 1.4.4 2.6 1 2.6 1.6v.5h-2.3v2H19c.6 0 1-.4 1-1v-1.5c0-2.9-5.1-3.9-6.9-3.9z"/><path d="M12.8 17.7H1c-.6 0-1-.4-1-1v-1.5c0-3 5.1-4 6.9-4s6.9.9 6.9 4v1.5c0 .5-.4 1-1 1zM2 15.7h9.8v-.5c0-.9-2.9-2-4.9-2s-4.9 1-4.9 2v.5zm4.9-5.4c-2.2 0-4-1.8-4-4s1.8-4 4-4 4 1.8 4 4-1.8 4-4 4zm0-6c-1.1 0-2 .9-2 2s.9 2 2 2 2-.9 2-2-.9-2-2-2z"/></svg>