<?xml version="1.0" encoding="utf-8"?>
<!-- Generator: Adobe Illustrator 19.2.1, SVG Export Plug-In . SVG Version: 6.00 Build 0)  -->
<svg version="1.1" id="Calque_1" xmlns="http://www.w3.org/2000/svg" xmlns:xlink="http://www.w3.org/1999/xlink" x="0px" y="0px"
	 viewBox="0 0 20 20" style="enable-background:new 0 0 20 20;" xml:space="preserve">
<style type="text/css">
	.st0{fill:#3A434C;}
</style>
<path class="st0" d="M1,2h5.8v17c0,0.5,0.4,1,1,1s1-0.5,1-1V2h5.8c0.6,0,1-0.5,1-1s-0.4-1-1-1H1C0.4,0,0,0.4,0,1C0,1.5,0.4,2,1,2z"
	/>
<path class="st0" d="M20,8.6c0-0.1-0.1-0.1-0.1-0.2c0,0,0-0.1-0.1-0.1c0,0,0,0,0,0c-0.1-0.1-0.1-0.1-0.2-0.1c0,0-0.1-0.1-0.1-0.1
	c0,0-0.1,0-0.1,0C19.2,8,19.1,8,19,8h0c0,0-0.1,0-0.1,0c-0.1,0-0.2,0-0.2,0.1s-0.1,0.1-0.2,0.1c0,0-0.1,0-0.1,0.1l-3.8,3.6
	c-0.4,0.4-0.4,1,0,1.4s1,0.4,1.4,0l2.1-2V19c0,0.5,0.5,1,1,1s1-0.5,1-1V9c0-0.1,0-0.1,0-0.1C20,8.8,20,8.7,20,8.6z"/>
</svg>
