<?xml version="1.0" encoding="utf-8"?>
<!-- Generator: Adobe Illustrator 19.2.1, SVG Export Plug-In . SVG Version: 6.00 Build 0)  -->
<svg version="1.1" id="Calque_1" xmlns="http://www.w3.org/2000/svg" xmlns:xlink="http://www.w3.org/1999/xlink" x="0px" y="0px"
	 viewBox="0 0 20 20" style="enable-background:new 0 0 20 20;" xml:space="preserve">
<style type="text/css">
	.st0{fill:#3A434C;}
</style>
<path class="st0" d="M19,15c0-0.6-0.5-1-1-1h-3.2l3.5-4.3c0-0.1,0.1-0.1,0.2-0.2C18.8,8.9,19,8.3,19,7.6c0-2-1.6-3.7-3.6-3.7
	s-3.6,1.6-3.6,3.7c0,0.5,0.4,1,1,1s1-0.4,1-1c0-0.9,0.7-1.6,1.7-1.6C16.3,6,17,6.7,17,7.7c0,0.3-0.1,0.5-0.2,0.7l-4.9,6
	c-0.2,0.3-0.3,0.7-0.1,1.1c0.2,0.4,0.5,0.6,0.9,0.6H18C18.5,16,19,15.6,19,15z"/>
<path class="st0" d="M1,5c0,0.6,0.5,1,1,1h2.6v9c0,0.6,0.4,1,1,1s1-0.4,1-1V6h2.6c0.6,0,1-0.4,1-1s-0.4-1-1-1H2C1.5,4,1,4.4,1,5z"/>
</svg>
