<?xml version="1.0" encoding="utf-8"?>
<!-- Generator: Adobe Illustrator 19.1.0, SVG Export Plug-In . SVG Version: 6.00 Build 0)  -->
<svg version="1.1" id="Calque_1" xmlns="http://www.w3.org/2000/svg" xmlns:xlink="http://www.w3.org/1999/xlink" x="0px" y="0px"
	 viewBox="0 0 20 20" enable-background="new 0 0 20 20" xml:space="preserve">
<g>
	<path fill="#3A434C" d="M0.98,2h5.8v17c0,0.55,0.45,1,1,1s1-0.45,1-1V2h5.8c0.55,0,1-0.45,1-1c0-0.55-0.45-1-1-1H0.98
		c-0.55,0-1,0.45-1,1C-0.02,1.55,0.43,2,0.98,2z"/>
	<path fill="#3A434C" d="M19.95,8.6c-0.03-0.07-0.08-0.14-0.13-0.2c-0.03-0.04-0.04-0.08-0.07-0.12c0,0-0.01,0-0.01-0.01
		c-0.06-0.06-0.14-0.11-0.22-0.15c-0.04-0.02-0.07-0.05-0.1-0.07c-0.04-0.02-0.08-0.01-0.12-0.03C19.21,8,19.13,7.97,19.03,7.97
		c0,0-0.01,0-0.01,0c-0.05,0-0.09,0.02-0.14,0.03c-0.08,0.01-0.16,0.02-0.23,0.05c-0.07,0.03-0.14,0.08-0.2,0.13
		c-0.04,0.03-0.08,0.04-0.12,0.07l-3.76,3.57c-0.4,0.38-0.42,1.01-0.04,1.41c0.38,0.4,1.01,0.42,1.41,0.04l2.07-1.96V19
		c0,0.55,0.45,1,1,1s1-0.45,1-1V8.97c0-0.05-0.02-0.09-0.03-0.14C19.98,8.75,19.98,8.67,19.95,8.6z"/>
</g>
</svg>
