<?xml version="1.0" encoding="utf-8"?>
<!-- Generator: Adobe Illustrator 19.2.1, SVG Export Plug-In . SVG Version: 6.00 Build 0)  -->
<svg version="1.1" id="Calque_1" xmlns="http://www.w3.org/2000/svg" xmlns:xlink="http://www.w3.org/1999/xlink" x="0px" y="0px"
	 viewBox="0 0 20 20" style="enable-background:new 0 0 20 20;" xml:space="preserve">
<style type="text/css">
	.st0{fill:#3A434C;}
</style>
<path class="st0" d="M17.1,2.9C13.2-1,6.8-1,2.9,2.9C1,4.8,0,7.3,0,10c0,2.7,1,5.2,2.9,7.1C4.9,19,7.4,20,10,20c2.6,0,5.1-1,7.1-2.9
	C21,13.2,21,6.8,17.1,2.9z M17.4,7l-0.3,0.1l0,0l-2,0.9c-0.3-0.7-0.7-1.3-1.2-1.9c-0.6-0.6-1.3-1-2-1.3l0.9-2.1l0,0l0.1-0.2
	c1,0.4,2,1,2.8,1.8C16.4,5.1,17,6,17.4,7z M7.9,12.1C6.7,11,6.7,9,7.9,7.9C8.4,7.3,9.2,7,10,7s1.6,0.3,2.1,0.9
	C12.7,8.4,13,9.2,13,10s-0.3,1.6-0.9,2.1C11,13.3,9,13.3,7.9,12.1z M4.3,4.3C5.1,3.6,6,3,7,2.6l1,2.3C7.3,5.2,6.7,5.6,6.1,6.1
	c-0.6,0.6-1,1.3-1.2,2l-2.2-1l0,0l-0.1,0l-0.1,0C3,6.1,3.6,5.1,4.3,4.3z M2.5,12.9l2.3-1c0.3,0.7,0.7,1.4,1.3,2
	c0.5,0.5,1.2,0.9,1.8,1.2l-1,2.3c-1-0.4-1.8-1-2.6-1.7C3.5,14.9,2.9,13.9,2.5,12.9z M15.7,15.7c-0.8,0.8-1.8,1.4-2.8,1.8l-0.1-0.2
	l0,0l-0.9-2.1c0.7-0.3,1.4-0.7,2-1.3c0.6-0.6,1-1.2,1.2-1.9l2.1,0.9l0.2,0.1C17,14,16.4,14.9,15.7,15.7z"/>
</svg>
