<svg viewBox="0 0 20 20"><path d="M17.1 2.9C13.2-1 6.8-1 2.9 2.9 1 4.8 0 7.3 0 10c0 2.7 1 5.2 2.9 7.1C4.9 19 7.4 20 10 20c2.6 0 5.1-1 7.1-2.9 3.9-3.9 3.9-10.3 0-14.2zm.3 4.1l-.3.1-2 .9c-.3-.7-.7-1.3-1.2-1.9-.6-.6-1.3-1-2-1.3l.9-2.1.1-.2c1 .4 2 1 2.8 1.8.7.8 1.3 1.7 1.7 2.7zm-9.5 5.1C6.7 11 6.7 9 7.9 7.9 8.4 7.3 9.2 7 10 7s1.6.3 2.1.9c.6.5.9 1.3.9 2.1s-.3 1.6-.9 2.1c-1.1 1.2-3.1 1.2-4.2 0zM4.3 4.3C5.1 3.6 6 3 7 2.6l1 2.3c-.7.3-1.3.7-1.9 1.2-.6.6-1 1.3-1.2 2l-2.2-1h-.2c.5-1 1.1-2 1.8-2.8zm-1.8 8.6l2.3-1c.3.7.7 1.4 1.3 2 .5.5 1.2.9 1.8 1.2l-1 2.3c-1-.4-1.8-1-2.6-1.7-.8-.8-1.4-1.8-1.8-2.8zm13.2 2.8c-.8.8-1.8 1.4-2.8 1.8l-.1-.2-.9-2.1c.7-.3 1.4-.7 2-1.3.6-.6 1-1.2 1.2-1.9l2.1.9.2.1c-.4 1-1 1.9-1.7 2.7z"/></svg>