<?xml version="1.0" encoding="utf-8"?>
<!-- Generator: Adobe Illustrator 19.1.0, SVG Export Plug-In . SVG Version: 6.00 Build 0)  -->
<svg version="1.1" id="Calque_1" xmlns="http://www.w3.org/2000/svg" xmlns:xlink="http://www.w3.org/1999/xlink" x="0px" y="0px"
	 viewBox="0 0 20 20" enable-background="new 0 0 20 20" xml:space="preserve">
<g>
	<path fill="none" d="M2.67,7.13L2.67,7.13l2.85,1.27v0l0.17,0.07L5.77,8.5c0.22-0.61,0.56-1.19,1.05-1.68
		c0.46-0.46,1-0.79,1.57-1.01L8.38,5.78L8.36,5.76L7.04,2.76l0,0L6.97,2.62L6.96,2.6C6.01,2.99,5.12,3.57,4.34,4.34
		c-0.81,0.81-1.4,1.74-1.79,2.73L2.67,7.13z"/>
	<path fill="none" d="M12.5,10c0-0.64-0.24-1.28-0.73-1.77C11.28,7.74,10.64,7.5,10,7.5c-0.64,0-1.28,0.24-1.77,0.73
		C7.74,8.72,7.5,9.36,7.5,10c0,0.64,0.24,1.28,0.73,1.77C8.72,12.26,9.36,12.5,10,12.5c0.64,0,1.28-0.24,1.77-0.73
		C12.26,11.28,12.5,10.64,12.5,10z"/>
	<path fill="none" d="M12.76,2.76L12.76,2.76l-1.31,2.95l-0.02,0.04c0.64,0.21,1.24,0.56,1.75,1.07c0.47,0.47,0.8,1.02,1.02,1.6
		l0.07-0.03v0l3.13-1.39l0,0L17.41,7l0.01,0c-0.39-0.97-0.98-1.87-1.76-2.65c-0.82-0.82-1.78-1.42-2.8-1.81L12.76,2.76z"/>
	<path fill="none" d="M8.3,14.36L8.3,14.36l0.07-0.17l0,0c-0.57-0.22-1.1-0.55-1.56-1.01c-0.5-0.5-0.84-1.08-1.05-1.71l-0.07,0.03
		l-0.17,0.07v0L2.55,12.9c0.39,1,0.98,1.94,1.8,2.75c0.77,0.77,1.66,1.35,2.61,1.74L8.3,14.36z"/>
	<path fill="none" d="M17.41,12.97l-0.01-0.01l0,0l-3.13-1.39l0,0l-0.06-0.03c-0.22,0.59-0.55,1.15-1.03,1.63l-0.71-0.71l0.71,0.71
		c-0.5,0.5-1.11,0.85-1.74,1.06l0.05,0.11l0,0l1.38,3.1c1.02-0.39,1.97-0.99,2.79-1.81c0.79-0.79,1.38-1.7,1.77-2.68L17.41,12.97z"
		/>
	<path fill="#3A434C" d="M20,10c0-2.56-0.98-5.12-2.93-7.07C15.12,0.98,12.56,0,10,0C7.44,0,4.88,0.98,2.93,2.93
		C0.98,4.88,0,7.44,0,10c0,2.56,0.98,5.12,2.93,7.07C4.88,19.02,7.44,20,10,20c2.56,0,5.12-0.98,7.07-2.93l-0.71-0.71l0.71,0.71
		C19.02,15.12,20,12.56,20,10z M17.42,7L17.42,7L17.4,7.01l0,0l-3.13,1.39v0L14.2,8.42c-0.22-0.58-0.55-1.14-1.02-1.6
		c-0.51-0.51-1.11-0.85-1.75-1.07l0.02-0.04l1.31-2.95l0,0l0.1-0.23c1.02,0.39,1.98,0.99,2.8,1.81C16.44,5.13,17.03,6.03,17.42,7z
		 M10,12.5c-0.64,0-1.28-0.24-1.77-0.73C7.74,11.28,7.5,10.64,7.5,10c0-0.64,0.24-1.28,0.73-1.77C8.72,7.74,9.36,7.5,10,7.5
		c0.64,0,1.28,0.24,1.77,0.73C12.26,8.72,12.5,9.36,12.5,10c0,0.64-0.24,1.28-0.73,1.77C11.28,12.26,10.64,12.5,10,12.5z M4.34,4.34
		C5.12,3.57,6.01,2.99,6.96,2.6l0.01,0.02l0.06,0.14l0,0l1.33,2.99l0.01,0.03l0.01,0.02C7.81,6.03,7.28,6.36,6.82,6.82
		C6.33,7.31,5.99,7.89,5.77,8.5L5.69,8.47L5.52,8.39v0L2.67,7.13l0,0L2.56,7.08C2.95,6.08,3.54,5.15,4.34,4.34z M2.55,12.9
		l2.98-1.32v0l0.17-0.07l0.07-0.03c0.22,0.62,0.56,1.21,1.05,1.71c0.46,0.46,0.99,0.79,1.56,1.01l0,0L8.3,14.36l0,0L6.95,17.4
		c-0.95-0.39-1.84-0.97-2.61-1.74C3.53,14.85,2.94,13.9,2.55,12.9z M15.66,15.66c-0.82,0.82-1.77,1.42-2.79,1.81l-1.38-3.1l0,0
		l-0.05-0.11c0.64-0.22,1.24-0.56,1.74-1.06l-0.71-0.71l0.71,0.71c0.47-0.47,0.81-1.03,1.03-1.63l0.06,0.03l0,0l3.13,1.39l0,0
		l0.01,0.01l0.01,0.01C17.03,13.95,16.45,14.87,15.66,15.66z"/>
</g>
</svg>
