<?xml version="1.0" encoding="utf-8"?>
<!-- Generator: Adobe Illustrator 19.2.1, SVG Export Plug-In . SVG Version: 6.00 Build 0)  -->
<svg version="1.1" id="Calque_1" xmlns="http://www.w3.org/2000/svg" xmlns:xlink="http://www.w3.org/1999/xlink" x="0px" y="0px"
	 viewBox="0 0 20 20" style="enable-background:new 0 0 20 20;" xml:space="preserve">
<style type="text/css">
	.st0{fill:#3A434C;}
</style>
<path class="st0" d="M18.4,7.9L18.4,7.9L10.7,1c-0.4-0.3-0.9-0.3-1.3,0L1.6,7.9l0,0L0.3,9.1c-0.4,0.4-0.4,1-0.1,1.4
	c0.4,0.4,1,0.4,1.4,0.1l0.8-0.7v6.8c0,1.4,1.2,2.6,2.6,2.6h9.9c1.4,0,2.6-1.1,2.6-2.6V9.8l0.8,0.7c0.4,0.4,1,0.4,1.4-0.1
	c0.4-0.4,0.4-1-0.1-1.4l0,0L18.4,7.9z M15.4,17c-0.1,0.1-0.2,0.2-0.4,0.2H11v-2.9c0-0.6-0.4-1-1-1s-1,0.4-1,1v2.9H5.1
	c-0.2,0-0.3-0.1-0.4-0.2c-0.1-0.1-0.2-0.2-0.2-0.4V8.1L10,3.1L15.5,8v8.6C15.5,16.8,15.5,16.9,15.4,17z"/>
</svg>
