<?xml version="1.0" encoding="utf-8"?>
<!-- Generator: Adobe Illustrator 19.2.1, SVG Export Plug-In . SVG Version: 6.00 Build 0)  -->
<svg version="1.1" id="Calque_1" xmlns="http://www.w3.org/2000/svg" xmlns:xlink="http://www.w3.org/1999/xlink" x="0px" y="0px"
	 viewBox="0 0 20 20" style="enable-background:new 0 0 20 20;" xml:space="preserve">
<style type="text/css">
	.st0{fill:#3A434C;}
</style>
<path class="st0" d="M16.8,0H3.2c-1,0-1.8,0.8-1.8,1.8v16.5c0,1,0.8,1.8,1.8,1.8h13.6c1,0,1.8-0.8,1.8-1.8V1.8
	C18.6,0.8,17.8,0,16.8,0z M3.2,1.5h13.6c0.1,0,0.3,0.1,0.3,0.3v7.8l-2.4-2.7c-0.3-0.3-0.7-0.3-1-0.1l-4.1,3.4L6.8,7.4
	c-0.3-0.3-0.7-0.3-1-0.1L2.9,9.7v-8C2.9,1.6,3,1.5,3.2,1.5z M16.8,18.5H3.2c-0.1,0-0.3-0.1-0.3-0.3v-6.6L6.3,9L9,11.7
	c0.3,0.3,0.7,0.3,1,0.1l4.1-3.3l3,3.5v6.4C17.1,18.4,17,18.5,16.8,18.5z"/>
<circle class="st0" cx="11.6" cy="4.9" r="0.8"/>
</svg>
