<?xml version="1.0" encoding="UTF-8" standalone="no"?>
<svg width="20px" height="20px" viewBox="0 0 20 20" version="1.1" xmlns="http://www.w3.org/2000/svg" xmlns:xlink="http://www.w3.org/1999/xlink">
    <!-- Generator: Sketch 3.8.3 (29802) - http://www.bohemiancoding.com/sketch -->
    <title>image</title>
    <desc>Created with Sketch.</desc>
    <defs></defs>
    <g stroke="none" stroke-width="1" fill="none" fill-rule="evenodd">
        <g transform="translate(-6.000000, -6.000000)" fill="#3A434C">
            <path d="M22.9947917,24.4821429 C22.9374167,24.5392857 22.865875,24.5714286 22.7837083,24.5714286 L9.217,24.5714286 C9.13483333,24.5714286 9.06329167,24.5392857 9.00591667,24.4821429 C8.94925,24.4242857 8.917375,24.3514286 8.91666667,24.2692857 L8.91666667,17.6207143 L12.28975,14.9192857 L15.0281667,17.6471429 C15.2867083,17.905 15.696125,17.9228571 15.976625,17.6907143 L20.0516667,14.3057143 L23.0833333,17.8164286 L23.0833333,24.2692857 C23.0833333,24.3521429 23.0514583,24.4242857 22.9947917,24.4821429 M9.00591667,7.51785714 C9.06329167,7.46142857 9.13483333,7.42857143 9.217,7.42857143 L22.7837083,7.42857143 C22.865875,7.42857143 22.9374167,7.46142857 22.9947917,7.51785714 C23.0514583,7.57642857 23.0833333,7.64857143 23.0833333,7.73142857 L23.0833333,15.6414286 L20.6672083,12.8435714 C20.41575,12.5528571 19.978,12.5164286 19.6833333,12.7614286 L15.5693333,16.1778571 L12.8387083,13.4585714 C12.583,13.2042857 12.181375,13.1821429 11.9001667,13.4071429 L8.91666667,15.7964286 L8.91666667,7.73142857 C8.917375,7.64857143 8.94925,7.57642857 9.00591667,7.51785714 M22.7837083,6 L9.217,6 C8.26783333,6.00285714 7.50283333,6.77428571 7.5,7.73142857 L7.5,24.2692857 C7.50283333,25.2257143 8.26783333,25.9971429 9.217,26 L22.7837083,26 C23.732875,25.9971429 24.497875,25.2257143 24.5,24.2692857 L24.5,7.73142857 C24.497875,6.77428571 23.732875,6.00285714 22.7837083,6 M17.5870208,11.6125714 C17.9978542,11.6125714 18.3307708,11.2768571 18.3307708,10.8625714 C18.3307708,10.4482857 17.9978542,10.1125714 17.5870208,10.1125714 C17.1761875,10.1125714 16.8432708,10.4482857 16.8432708,10.8625714 C16.8432708,11.2768571 17.1761875,11.6125714 17.5870208,11.6125714"></path>
        </g>
    </g>
</svg>