<?xml version="1.0" encoding="utf-8"?>
<!-- Generator: Adobe Illustrator 19.1.0, SVG Export Plug-In . SVG Version: 6.00 Build 0)  -->
<svg version="1.1" id="Calque_1" xmlns="http://www.w3.org/2000/svg" xmlns:xlink="http://www.w3.org/1999/xlink" x="0px" y="0px"
	 viewBox="0 0 20 20" enable-background="new 0 0 20 20" xml:space="preserve">
<g>
	<path fill="none" d="M5.86,7.39c0.3-0.24,0.72-0.21,0.99,0.05l2.72,2.68l4.11-3.38c0.31-0.26,0.78-0.22,1.04,0.09l2.36,2.71V1.76
		c0-0.14-0.12-0.26-0.26-0.26H3.19c-0.14,0-0.26,0.12-0.26,0.26v7.95L5.86,7.39z M11.59,4.14c0.41,0,0.75,0.33,0.75,0.75
		c0,0.41-0.33,0.75-0.75,0.75c-0.41,0-0.75-0.33-0.75-0.75C10.85,4.47,11.18,4.14,11.59,4.14z"/>
	<path fill="none" d="M14.07,8.37L10,11.71c-0.3,0.24-0.73,0.22-1-0.05L6.27,8.97l-3.35,2.66v6.6c0,0.14,0.12,0.26,0.26,0.26h13.63
		c0.14,0,0.26-0.12,0.26-0.26v-6.41L14.07,8.37z"/>
	<path fill="#3A434C" d="M16.81,0H3.19C2.21,0,1.43,0.79,1.42,1.76v16.47c0,0.97,0.79,1.76,1.76,1.76h13.63
		c0.97,0,1.76-0.79,1.76-1.76V1.76C18.57,0.79,17.79,0,16.81,0z M3.19,1.5h13.63c0.14,0,0.26,0.12,0.26,0.26v7.78l-2.36-2.71
		c-0.27-0.31-0.73-0.34-1.04-0.09l-4.11,3.38L6.85,7.44c-0.27-0.27-0.7-0.29-0.99-0.05L2.92,9.72V1.76C2.92,1.62,3.05,1.5,3.19,1.5z
		 M16.81,18.5H3.19c-0.14,0-0.26-0.12-0.26-0.26v-6.6l3.35-2.66L9,11.67c0.27,0.27,0.71,0.29,1,0.05l4.06-3.35l3.01,3.46v6.41
		C17.08,18.38,16.95,18.5,16.81,18.5z"/>
	<circle fill="#3A434C" cx="11.59" cy="4.88" r="0.75"/>
</g>
</svg>
