<?xml version="1.0" encoding="utf-8"?>
<!-- Generator: Adobe Illustrator 20.1.0, SVG Export Plug-In . SVG Version: 6.00 Build 0)  -->
<svg version="1.1" id="Calque_1" xmlns="http://www.w3.org/2000/svg" xmlns:xlink="http://www.w3.org/1999/xlink" x="0px" y="0px"
	 viewBox="0 0 20 20" style="enable-background:new 0 0 20 20;" xml:space="preserve">
<style type="text/css">
	.st0{fill:#3A434C;}
</style>
<path class="st0" d="M17.9,0.8c-0.5-0.5-1.2-0.8-2-0.8H4.1c-0.8,0-1.5,0.3-2,0.8C1.6,1.3,1.3,2,1.3,2.7v14.4c0,0.8,0.3,1.5,0.9,2
	c0.5,0.5,1.2,0.8,2,0.8h9.6l4.9-5.6v-0.4V2.7C18.7,2,18.4,1.3,17.9,0.8z M3.5,17.6c-0.2-0.1-0.2-0.3-0.2-0.5V2.7
	c0-0.2,0.1-0.3,0.2-0.5S3.9,2,4.1,2h11.7c0.2,0,0.5,0.1,0.6,0.2c0.1,0.1,0.2,0.3,0.2,0.5v10H12l0,5.1H4.1
	C3.9,17.8,3.7,17.7,3.5,17.6z"/>
<path class="st0" d="M12.5,8.5c0.6,0,1-0.4,1-1s-0.4-1-1-1H11V5c0-0.6-0.4-1-1-1S9,4.4,9,5v1.5H7.5c-0.6,0-1,0.4-1,1s0.4,1,1,1H9V10
	c0,0.6,0.4,1,1,1s1-0.4,1-1V8.5H12.5z"/>
</svg>
