<?xml version="1.0" encoding="utf-8"?>
<!-- Generator: Adobe Illustrator 19.2.1, SVG Export Plug-In . SVG Version: 6.00 Build 0)  -->
<svg version="1.1" id="Calque_1" xmlns="http://www.w3.org/2000/svg" xmlns:xlink="http://www.w3.org/1999/xlink" x="0px" y="0px"
	 viewBox="0 0 20 20" style="enable-background:new 0 0 20 20;" xml:space="preserve">
<style type="text/css">
	.st0{fill:#3A434C;}
</style>
<path class="st0" d="M10,0C4.5,0,0,4.5,0,10s4.5,10,10,10s10-4.5,10-10S15.5,0,10,0z M15.7,15.7C14.2,17.1,12.2,18,10,18
	s-4.2-0.9-5.7-2.3S2,12.2,2,10s0.9-4.2,2.3-5.7S7.8,2,10,2s4.2,0.9,5.7,2.3S18,7.8,18,10S17.1,14.2,15.7,15.7z"/>
<path class="st0" d="M10,8.9c-0.6,0-1,0.4-1,1v4c0,0.6,0.4,1,1,1s1-0.4,1-1v-4C11,9.4,10.6,8.9,10,8.9z"/>
<circle class="st0" cx="10" cy="6.1" r="1.2"/>
</svg>
