<?xml version="1.0" encoding="utf-8"?>
<!-- Generator: Adobe Illustrator 19.1.0, SVG Export Plug-In . SVG Version: 6.00 Build 0)  -->
<svg version="1.1" id="Calque_1" xmlns="http://www.w3.org/2000/svg" xmlns:xlink="http://www.w3.org/1999/xlink" x="0px" y="0px"
	 viewBox="0 0 20 20" enable-background="new 0 0 20 20" xml:space="preserve">
<g>
	<path fill="#3A434C" d="M19,0H1C0.45,0,0,0.45,0,1c0,0.55,0.45,1,1,1h18c0.55,0,1-0.45,1-1C20,0.45,19.55,0,19,0z"/>
	<path fill="#3A434C" d="M17.2,6H2.8c-0.55,0-1,0.45-1,1c0,0.55,0.45,1,1,1h14.4c0.55,0,1-0.45,1-1C18.2,6.45,17.75,6,17.2,6z"/>
	<path fill="#3A434C" d="M15.4,12H4.6c-0.55,0-1,0.45-1,1c0,0.55,0.45,1,1,1h10.8c0.55,0,1-0.45,1-1C16.4,12.45,15.95,12,15.4,12z"
		/>
	<path fill="#3A434C" d="M13.6,18H6.4c-0.55,0-1,0.45-1,1c0,0.55,0.45,1,1,1h7.2c0.55,0,1-0.45,1-1C14.6,18.45,14.15,18,13.6,18z"/>
</g>
</svg>
