<?xml version="1.0" encoding="utf-8"?>
<!-- Generator: Adobe Illustrator 19.2.1, SVG Export Plug-In . SVG Version: 6.00 Build 0)  -->
<svg version="1.1" id="Calque_1" xmlns="http://www.w3.org/2000/svg" xmlns:xlink="http://www.w3.org/1999/xlink" x="0px" y="0px"
	 viewBox="0 0 20 20" style="enable-background:new 0 0 20 20;" xml:space="preserve">
<style type="text/css">
	.st0{fill:#3A434C;}
</style>
<path class="st0" d="M19,0H1C0.4,0,0,0.4,0,1s0.4,1,1,1h18c0.5,0,1-0.5,1-1S19.5,0,19,0z"/>
<path class="st0" d="M17.2,6H2.8c-0.5,0-1,0.4-1,1s0.5,1,1,1h14.4c0.5,0,1-0.4,1-1C18.2,6.4,17.8,6,17.2,6z"/>
<path class="st0" d="M15.4,12H4.6c-0.6,0-1,0.4-1,1s0.4,1,1,1h10.8c0.6,0,1-0.4,1-1S15.9,12,15.4,12z"/>
<path class="st0" d="M13.6,18H6.4c-0.6,0-1,0.5-1,1s0.4,1,1,1h7.2c0.6,0,1-0.5,1-1S14.1,18,13.6,18z"/>
</svg>
