<svg viewBox="0 0 20 20"><path d="M18.1 12.2V6c0-1.2-1-2.2-2.2-2.2h-3C12.3 2.7 11.2 2 10 2s-2.3.7-2.7 1.8H4.2C3 3.8 2 4.8 2 6v6.1c-1.1.4-2 1.5-2 2.8 0 1.7 1.3 3 3 3s3-1.3 3-3c0-1.3-.9-2.5-2.1-2.8V6c0-.2.1-.3.3-.3h2.9c.2 1 1 1.8 1.9 2.1v4.3c-1.2.4-2 1.5-2 2.8 0 1.7 1.3 3 3 3s3-1.3 3-3c0-1.3-.9-2.4-2-2.8V7.8c1-.3 1.7-1.1 1.9-2.1h2.9c.2 0 .3.1.3.3v6.1c-1.2.4-2.1 1.5-2.1 2.9 0 1.7 1.3 3 3 3s3-1.3 3-3c0-1.3-.8-2.4-1.9-2.8zM3 15.9c-.6 0-1-.4-1-1s.4-1 1-1 1 .4 1 1-.4 1-1 1zm7 .1c-.6 0-1-.4-1-1s.4-1 1-1 1 .4 1 1-.4 1-1 1zm0-10c-.5 0-1-.4-1-1s.4-1 1-1 1 .4 1 1-.4 1-1 1zm7 9.9c-.6 0-1-.4-1-1s.4-1 1-1 1 .4 1 1-.5 1-1 1z"/></svg>