<?xml version="1.0" encoding="utf-8"?>
<!-- Generator: Adobe Illustrator 19.2.1, SVG Export Plug-In . SVG Version: 6.00 Build 0)  -->
<svg version="1.1" id="Calque_1" xmlns="http://www.w3.org/2000/svg" xmlns:xlink="http://www.w3.org/1999/xlink" x="0px" y="0px"
	 viewBox="0 0 20 20" style="enable-background:new 0 0 20 20;" xml:space="preserve">
<style type="text/css">
	.st0{fill:#3A434C;}
</style>
<path class="st0" d="M18.1,12.2V6c0-1.2-1-2.2-2.2-2.2h-3c0,0,0,0,0,0C12.3,2.7,11.2,2,10,2C8.8,2,7.7,2.7,7.3,3.8
	c-0.1,0-0.1,0-0.2,0H4.2C3,3.8,2,4.8,2,6v6.1c-1.1,0.4-2,1.5-2,2.8c0,1.7,1.3,3,3,3s3-1.3,3-3c0-1.3-0.9-2.5-2.1-2.8V6
	c0-0.2,0.1-0.3,0.3-0.3h2.9c0,0,0,0,0,0c0.2,1,1,1.8,1.9,2.1v4.3c-1.2,0.4-2,1.5-2,2.8c0,1.7,1.3,3,3,3s3-1.3,3-3
	c0-1.3-0.9-2.4-2-2.8V7.8c1-0.3,1.7-1.1,1.9-2.1h2.9c0.2,0,0.3,0.1,0.3,0.3v6.1C14.9,12.5,14,13.6,14,15c0,1.7,1.3,3,3,3
	c1.7,0,3-1.3,3-3C20,13.7,19.2,12.6,18.1,12.2z M3,15.9c-0.6,0-1-0.4-1-1s0.4-1,1-1s1,0.4,1,1S3.6,15.9,3,15.9z M10,16
	c-0.6,0-1-0.4-1-1s0.4-1,1-1c0.6,0,1,0.4,1,1S10.6,16,10,16z M10,6C9.5,6,9,5.6,9,5s0.4-1,1-1c0.6,0,1,0.4,1,1S10.6,6,10,6z
	 M17,15.9c-0.6,0-1-0.4-1-1s0.4-1,1-1s1,0.4,1,1S17.5,15.9,17,15.9z"/>
</svg>
