<?xml version="1.0" encoding="utf-8"?>
<!-- Generator: Adobe Illustrator 19.1.0, SVG Export Plug-In . SVG Version: 6.00 Build 0)  -->
<svg version="1.1" id="Calque_1" xmlns="http://www.w3.org/2000/svg" xmlns:xlink="http://www.w3.org/1999/xlink" x="0px" y="0px"
	 viewBox="0 0 20 20" enable-background="new 0 0 20 20" xml:space="preserve">
<path fill="none" d="M7.92,2L4.35,2.03h0h0h-2.3l0,0.02l-0.02,0v2.3L2,7.92l9.86,9.86C12.01,17.93,12.2,18,12.4,18
	c0.21,0,0.41-0.08,0.56-0.23l0.01-0.01l2.39-2.41l2.41-2.39l0,0C17.92,12.81,18,12.61,18,12.4c0-0.2-0.07-0.39-0.21-0.54L7.92,2z
	 M5.55,6.82C4.86,6.81,4.31,6.24,4.32,5.55C4.33,4.86,4.9,4.31,5.59,4.32S6.83,4.9,6.82,5.59C6.81,6.28,6.24,6.83,5.55,6.82z"/>
<path fill="#3A434C" d="M19.22,10.47L8.75,0L4.34,0.03H0.07l0,0.03l-0.03,0v4.28l0-0.01L0,8.75l10.47,10.47l0.01,0.01
	C11.01,19.74,11.71,20,12.4,20c0.72,0,1.44-0.28,1.98-0.83l0,0l2.38-2.4l2.4-2.38l0,0C19.72,13.84,20,13.12,20,12.4
	C20,11.71,19.74,11.01,19.22,10.47L19.22,10.47z M17.77,12.96L17.77,12.96l-2.41,2.4l-2.39,2.41l-0.01,0.01
	C12.81,17.92,12.61,18,12.4,18c-0.2,0-0.39-0.07-0.54-0.21L2,7.92l0.03-3.57v-2.3l0.02,0l0-0.02h2.3L7.92,2l9.86,9.86
	C17.93,12.01,18,12.2,18,12.4C18,12.61,17.92,12.81,17.77,12.96z"/>
<circle fill="#3A434C" cx="5.57" cy="5.57" r="1.25"/>
</svg>
