<?xml version="1.0" encoding="UTF-8" standalone="no"?>
<svg width="20px" height="20px" viewBox="0 0 20 20" version="1.1" xmlns="http://www.w3.org/2000/svg" xmlns:xlink="http://www.w3.org/1999/xlink" xmlns:sketch="http://www.bohemiancoding.com/sketch/ns">
    <!-- Generator: Sketch 3.4.2 (15857) - http://www.bohemiancoding.com/sketch -->
    <title>label</title>
    <desc>Created with Sketch.</desc>
    <defs></defs>
    <g id="Page-1" stroke="none" stroke-width="1" fill="none" fill-rule="evenodd" sketch:type="MSPage">
        <g id="label" sketch:type="MSArtboardGroup" transform="translate(-6.000000, -6.000000)" fill="#3A434C">
            <g sketch:type="MSLayerGroup" transform="translate(6.000000, 6.000000)">
                <path d="M19.9999949,12.2033978 C20.001303,11.551437 19.7501585,10.8879936 19.2452534,10.3802041 L19.2387132,10.3738249 L8.6854131,0.5 L8.31785269,0.5 L0,0.502551706 L0.336167344,8.92445608 L10.8083687,18.7268332 L10.8109848,18.7242815 C11.3342025,19.2384502 12.0287739,19.5 12.7168051,19.5 C13.3865237,19.5 14.0667067,19.2550363 14.5873083,18.7651088 L14.6003887,18.7523503 L19.2073202,14.064867 L19.2060121,14.0635912 C19.7318459,13.5532501 20.001303,12.8757722 19.9999949,12.2033978 L19.9999949,12.2033978 Z M17.9084323,12.8068762 L17.8953519,12.8196347 L13.3119652,17.4816009 C13.1471517,17.635979 12.9365566,17.7125302 12.7168051,17.7138061 C12.4865894,17.7125302 12.266838,17.6283239 12.1007163,17.4611872 L12.090252,17.4509804 L2.13734413,8.1347032 L1.90451227,2.28874564 L7.94898425,2.28619393 L17.9306691,11.6241606 C18.0889424,11.7849181 18.1674251,11.9890545 18.1687331,12.2033978 C18.1674251,12.426672 18.0810942,12.6422912 17.9084323,12.8068762 L17.9084323,12.8068762 Z" id="Fill-1" sketch:type="MSShapeGroup"></path>
                <path d="M5.45699097,5.42127643 C4.86160216,5.99803397 4.84578265,6.94731071 5.42247568,7.54276611 C5.99773057,8.13822152 6.94690114,8.1540428 7.54228995,7.57872357 C8.1391169,7.00196603 8.15349827,6.05268929 7.57824338,5.45723389 C7.00155035,4.86177848 6.05237978,4.8459572 5.45699097,5.42127643" id="Fill-2" sketch:type="MSShapeGroup"></path>
            </g>
        </g>
    </g>
</svg>