<?xml version="1.0" encoding="utf-8"?>
<!-- Generator: Adobe Illustrator 19.2.1, SVG Export Plug-In . SVG Version: 6.00 Build 0)  -->
<svg version="1.1" id="Calque_1" xmlns="http://www.w3.org/2000/svg" xmlns:xlink="http://www.w3.org/1999/xlink" x="0px" y="0px"
	 viewBox="0 0 20 20" style="enable-background:new 0 0 20 20;" xml:space="preserve">
<style type="text/css">
	.st0{fill:#3A434C;}
</style>
<path class="st0" d="M19.2,10.5L8.8,0L4.3,0H0.1v0h0v4.3v0l0,4.4l10.5,10.5l0,0c0.5,0.5,1.2,0.8,1.9,0.8c0.7,0,1.4-0.3,2-0.8l0,0
	l2.4-2.4l2.4-2.4l0,0c0.6-0.6,0.8-1.3,0.8-2C20,11.7,19.7,11,19.2,10.5L19.2,10.5z M17.8,13L17.8,13l-2.4,2.4L13,17.8l0,0
	c-0.1,0.1-0.4,0.2-0.6,0.2c-0.2,0-0.4-0.1-0.5-0.2L2,7.9l0-3.6V2.1h0v0h2.3l3.6,0l9.9,9.9c0.2,0.2,0.2,0.3,0.2,0.5
	C18,12.6,17.9,12.8,17.8,13z"/>
<circle class="st0" cx="5.6" cy="5.6" r="1.2"/>
</svg>
