<svg viewBox="0 0 20 20"><path d="M1.3 10.4c1.2 1.7 3.1 4 4.8 5.9s3.2 3.4 3.2 3.4.1 0 .1.1c0 0 .1 0 .1.1.1 0 .1.1.1.1h.9c.1 0 .1 0 .1-.1 0 0 .1 0 .1-.1h.1s1.9-1.9 3.9-4.2c1-1.1 2.1-2.4 2.9-3.5.4-.6.8-1.1 1.2-1.6s.6-.9.8-1.4c.2-.9.4-1.9.4-2.7 0-2.3-1.1-4.6-3.2-5.7-.8-.5-1.6-.7-2.4-.7-1.7 0-3.3.9-4.4 2.4C8.9.9 7.3 0 5.6 0 4.8 0 4 .2 3.2.6 1.1 1.8 0 4 0 6.4 0 7.2.2 8.1.5 9c.2.5.5.9.8 1.4zm2.8-8c.5-.3 1-.4 1.5-.4 1.3 0 2.6.8 3.3 2.4 0 .1.1.3.1.6.1.5.5.8 1 .8s.9-.3 1-.8c.1-.2.1-.4.1-.5.7-1.6 2-2.4 3.2-2.4.5 0 1 .1 1.5.4l.5-.9-.5.9c1.3.7 2.1 2.3 2.1 4 0 .6-.1 1.3-.4 1.9-.1.2-.3.6-.6 1-1 1.5-3 3.8-4.6 5.7-.8.9-1.6 1.8-2.2 2.4l-.2.2c-.9-.9-2.4-2.5-3.9-4.2-.9-1-1.7-2-2.4-2.9C3 9.5 2.5 8.7 2.4 8.3 2.1 7.7 2 7 2 6.4c0-1.7.8-3.3 2.1-4z"/></svg>