<?xml version="1.0" encoding="utf-8"?>
<!-- Generator: Adobe Illustrator 19.2.1, SVG Export Plug-In . SVG Version: 6.00 Build 0)  -->
<svg version="1.1" id="Calque_1" xmlns="http://www.w3.org/2000/svg" xmlns:xlink="http://www.w3.org/1999/xlink" x="0px" y="0px"
	 viewBox="0 0 20 20" style="enable-background:new 0 0 20 20;" xml:space="preserve">
<style type="text/css">
	.st0{fill:#3A434C;}
</style>
<path class="st0" d="M1.3,10.4c1.2,1.7,3.1,4,4.8,5.9s3.2,3.4,3.2,3.4c0,0,0.1,0,0.1,0.1c0,0,0.1,0,0.1,0.1c0.1,0,0.1,0.1,0.1,0.1
	c0,0,0,0,0.1,0s0,0,0.1,0c0.1,0,0.1,0,0.2,0c0,0,0.1,0,0.1,0c0.1,0,0.1,0,0.1,0c0.1,0,0.1,0,0.1,0c0,0,0,0,0.1,0c0,0,0,0,0.1,0
	c0.1,0,0.1,0,0.1-0.1c0,0,0.1,0,0.1-0.1c0,0,0.1,0,0.1,0c0,0,1.9-1.9,3.9-4.2c1-1.1,2.1-2.4,2.9-3.5c0.4-0.6,0.8-1.1,1.2-1.6
	s0.6-0.9,0.8-1.4C19.8,8.2,20,7.2,20,6.4c0-2.3-1.1-4.6-3.2-5.7l0,0C16,0.2,15.2,0,14.4,0c-1.7,0-3.3,0.9-4.4,2.4
	C8.9,0.9,7.3,0,5.6,0C4.8,0,4,0.2,3.2,0.6C1.1,1.8,0,4,0,6.4C0,7.2,0.2,8.1,0.5,9C0.7,9.5,1,9.9,1.3,10.4z M4.1,2.4
	C4.6,2.1,5.1,2,5.6,2c1.3,0,2.6,0.8,3.3,2.4C8.9,4.5,9,4.7,9,5c0.1,0.5,0.5,0.8,1,0.8s0.9-0.3,1-0.8c0.1-0.2,0.1-0.4,0.1-0.5
	c0.7-1.6,2-2.4,3.2-2.4c0.5,0,1,0.1,1.5,0.4l0.5-0.9l-0.5,0.9c1.3,0.7,2.1,2.3,2.1,4c0,0.6-0.1,1.3-0.4,1.9c-0.1,0.2-0.3,0.6-0.6,1
	c-1,1.5-3,3.8-4.6,5.7c-0.8,0.9-1.6,1.8-2.2,2.4c-0.1,0.1-0.1,0.1-0.2,0.2c-0.9-0.9-2.4-2.5-3.9-4.2c-0.9-1-1.7-2-2.4-2.9
	C3,9.5,2.5,8.7,2.4,8.3C2.1,7.7,2,7,2,6.4C2,4.7,2.8,3.1,4.1,2.4z"/>
</svg>
