<?xml version="1.0" encoding="utf-8"?>
<!-- Generator: Adobe Illustrator 19.1.0, SVG Export Plug-In . SVG Version: 6.00 Build 0)  -->
<svg version="1.1" id="Calque_1" xmlns="http://www.w3.org/2000/svg" xmlns:xlink="http://www.w3.org/1999/xlink" x="0px" y="0px"
	 viewBox="0 0 20 20" enable-background="new 0 0 20 20" xml:space="preserve">
<path fill="none" d="M3.72,10.38c0.68,0.9,1.53,1.93,2.4,2.93c1.48,1.7,3.01,3.33,3.87,4.24c0.07-0.07,0.13-0.13,0.2-0.21
	c0.57-0.6,1.34-1.43,2.19-2.36c1.68-1.86,3.64-4.14,4.65-5.67c0.29-0.43,0.5-0.81,0.59-1.04C17.88,7.66,18,7.01,18,6.36
	c0-1.7-0.84-3.28-2.13-3.97l0.48-0.88l-0.48,0.88C15.37,2.12,14.88,2,14.38,2c-1.29,0-2.6,0.84-3.26,2.45
	c-0.04,0.1-0.1,0.29-0.15,0.52c-0.1,0.46-0.51,0.79-0.98,0.79S9.12,5.44,9.02,4.97c-0.05-0.23-0.1-0.42-0.15-0.52
	C8.21,2.84,6.9,2,5.62,2C5.12,2,4.63,2.12,4.13,2.39C2.84,3.08,2,4.67,2,6.36c0,0.64,0.12,1.29,0.37,1.9
	C2.53,8.68,3.04,9.49,3.72,10.38z"/>
<path fill="#3A434C" d="M1.29,10.41c1.15,1.73,3.13,4.02,4.84,5.91c1.71,1.89,3.15,3.37,3.15,3.37c0.02,0.02,0.05,0.04,0.08,0.06
	c0.03,0.03,0.06,0.05,0.09,0.07c0.05,0.03,0.1,0.06,0.15,0.08c0.02,0.01,0.04,0.02,0.06,0.03c0.02,0.01,0.03,0.01,0.05,0.01
	c0.05,0.02,0.1,0.03,0.16,0.03c0.04,0.01,0.09,0.01,0.13,0.01c0.05,0,0.09-0.01,0.14-0.01c0.05-0.01,0.1-0.02,0.15-0.03
	c0.02-0.01,0.04-0.01,0.06-0.01c0.02-0.01,0.04-0.02,0.06-0.03c0.05-0.02,0.1-0.05,0.15-0.08c0.03-0.02,0.06-0.05,0.09-0.07
	c0.02-0.02,0.05-0.03,0.07-0.05c0.01-0.01,1.88-1.93,3.9-4.21c1.01-1.14,2.06-2.36,2.93-3.48c0.44-0.56,0.83-1.1,1.16-1.6
	c0.33-0.5,0.59-0.95,0.77-1.39C19.84,8.16,20,7.25,20,6.36c0-2.32-1.12-4.59-3.17-5.73l0,0C16.05,0.21,15.21,0,14.38,0
	C12.66,0,11.05,0.9,10,2.39C8.94,0.9,7.34,0,5.62,0C4.79,0,3.95,0.21,3.17,0.64C1.12,1.77,0,4.04,0,6.36c0,0.89,0.16,1.79,0.52,2.66
	C0.7,9.46,0.96,9.91,1.29,10.41z M4.13,2.39C4.63,2.12,5.12,2,5.62,2C6.9,2,8.21,2.84,8.88,4.45c0.04,0.1,0.1,0.29,0.15,0.52
	c0.1,0.46,0.5,0.79,0.98,0.79s0.88-0.33,0.98-0.79c0.05-0.23,0.1-0.42,0.15-0.52C11.79,2.84,13.1,2,14.38,2
	c0.49,0,0.99,0.12,1.49,0.39l0.48-0.88l-0.48,0.88C17.16,3.08,18,4.67,18,6.36c0,0.64-0.12,1.29-0.37,1.91
	c-0.09,0.23-0.3,0.61-0.59,1.04c-1.01,1.54-2.97,3.82-4.65,5.67c-0.84,0.93-1.62,1.76-2.19,2.36c-0.08,0.08-0.14,0.14-0.2,0.21
	c-0.87-0.91-2.39-2.54-3.87-4.24c-0.87-1-1.72-2.03-2.4-2.93c-0.68-0.89-1.19-1.7-1.36-2.12C2.12,7.66,2,7.01,2,6.36
	C2,4.67,2.84,3.08,4.13,2.39z"/>
</svg>
