<?xml version="1.0" encoding="utf-8"?>
<!-- Generator: Adobe Illustrator 19.1.0, SVG Export Plug-In . SVG Version: 6.00 Build 0)  -->
<svg version="1.1" id="Calque_1" xmlns="http://www.w3.org/2000/svg" xmlns:xlink="http://www.w3.org/1999/xlink" x="0px" y="0px"
	 viewBox="0 0 20 20" enable-background="new 0 0 20 20" xml:space="preserve">
<polygon fill="none" points="7.77,5.67 10,7.05 12.23,5.67 10,4.29 "/>
<path fill="#3A434C" d="M0,15.25c0,0.72,0.28,1.38,0.75,1.86c0.46,0.48,1.12,0.79,1.84,0.79h14.82c0.72,0,1.38-0.31,1.84-0.79
	c0.46-0.48,0.75-1.14,0.75-1.86V9.18c0-0.55-0.45-1-1-1s-1,0.45-1,1v6.07c0,0.19-0.07,0.35-0.19,0.47c-0.12,0.12-0.25,0.18-0.4,0.18
	H2.59c-0.15,0-0.29-0.06-0.4-0.18C2.07,15.6,2,15.43,2,15.24V9.18c0-0.55-0.45-1-1-1s-1,0.45-1,1V15.25z"/>
<polygon fill="#3A434C" points="8.45,3 6.23,4.43 7.77,5.67 10,4.29 "/>
<polygon fill="#3A434C" points="6.23,6.88 8.45,8.34 10,7.05 7.77,5.67 "/>
<polygon fill="#3A434C" points="11.55,8.34 13.77,6.9 12.23,5.67 10,7.05 "/>
<polygon fill="#3A434C" points="11.55,3 10,4.29 12.23,5.67 13.77,4.44 "/>
<polygon fill="#3A434C" points="8.45,8.62 7.79,8.18 7.79,8.67 10.01,10 12.22,8.67 12.22,8.18 11.56,8.62 10.01,7.33 "/>
</svg>
