<?xml version="1.0" encoding="utf-8"?>
<!-- Generator: Adobe Illustrator 19.1.0, SVG Export Plug-In . SVG Version: 6.00 Build 0)  -->
<svg version="1.1" id="Calque_1" xmlns="http://www.w3.org/2000/svg" xmlns:xlink="http://www.w3.org/1999/xlink" x="0px" y="0px"
	 viewBox="0 0 20 20" enable-background="new 0 0 20 20" xml:space="preserve">
<path fill="#3A434C" d="M5.54,20c1.34,0,2.68-0.57,3.6-1.67l1.03-1.22c0.35-0.42,0.3-1.05-0.12-1.41c-0.42-0.35-1.05-0.3-1.41,0.12
	l-1.03,1.22C7.08,17.67,6.32,18,5.54,18c-0.62,0-1.23-0.2-1.73-0.63c-0.63-0.53-0.96-1.29-0.96-2.07c0-0.62,0.2-1.23,0.63-1.73
	l3.68-4.38c0.53-0.63,1.29-0.96,2.07-0.96c0.62,0,1.23,0.2,1.73,0.63l0.01-0.01c0.24,0.2,0.55,0.3,0.87,0.22
	c0.54-0.13,0.86-0.68,0.73-1.21v0c-0.05-0.2-0.17-0.39-0.33-0.52c-0.88-0.73-1.95-1.1-3.01-1.09c-1.34,0-2.68,0.57-3.6,1.67
	l-3.68,4.38c-0.73,0.88-1.1,1.95-1.09,3.01c0,1.34,0.57,2.68,1.67,3.6l0,0l0,0C3.4,19.64,4.48,20,5.54,20z"/>
<path fill="#3A434C" d="M14.37,12.09l3.68-4.38c0.73-0.88,1.1-1.95,1.09-3.01c0-1.34-0.57-2.68-1.67-3.6v0
	C16.6,0.36,15.52,0,14.46,0c-1.34,0-2.68,0.57-3.6,1.67L9.83,2.9c-0.35,0.42-0.3,1.05,0.12,1.41c0.42,0.36,1.05,0.3,1.41-0.12
	l1.03-1.22C12.92,2.33,13.68,2,14.46,2c0.62,0,1.23,0.2,1.73,0.63c0,0,0,0,0,0c0.63,0.53,0.96,1.29,0.96,2.07
	c0,0.62-0.2,1.23-0.63,1.73l-3.68,4.38c-0.53,0.63-1.29,0.96-2.07,0.96c-0.62,0-1.23-0.2-1.73-0.63l-0.01,0.01
	C8.86,11,8.65,10.91,8.4,10.91c-0.55,0-1,0.45-1,1c0,0.3,0.13,0.58,0.36,0.77c0.88,0.73,1.95,1.1,3.01,1.09
	C12.11,13.77,13.45,13.2,14.37,12.09z"/>
</svg>
