<?xml version="1.0" encoding="UTF-8" standalone="no"?>
<svg width="18px" height="20px" viewBox="0 0 18 20" version="1.1" xmlns="http://www.w3.org/2000/svg" xmlns:xlink="http://www.w3.org/1999/xlink">
    <!-- Generator: Sketch 3.8.3 (29802) - http://www.bohemiancoding.com/sketch -->
    <title>link</title>
    <desc>Created with Sketch.</desc>
    <defs></defs>
    <g stroke="none" stroke-width="1" fill="none" fill-rule="evenodd">
        <g transform="translate(-7.000000, -6.000000)" fill="#3A434C">
            <g transform="translate(7.000000, 6.000000)">
                <path d="M15.6808763,0.843849573 C14.8342357,0.274706426 13.8530821,0 12.8893361,0 C11.3543054,0 9.83193485,0.693595782 8.88401388,1.99427759 L7.98831559,3.21907364 C7.58635912,3.76848649 7.72561963,4.52582631 8.29848673,4.91132593 C8.87135383,5.29530784 9.66102423,5.16174892 10.0629807,4.61385378 L10.958679,3.3860223 C11.4112756,2.76527684 12.1392283,2.42986181 12.8893361,2.4283441 C13.3577578,2.42986181 13.8198495,2.55886759 14.228136,2.83357402 C14.8753808,3.26612281 15.2235321,3.96730717 15.2251146,4.68518639 C15.2251146,5.13443005 15.0906016,5.57760285 14.8041681,5.97069105 L11.5964288,10.3644761 C11.1438322,10.9852216 10.4127145,11.3191189 9.66418924,11.3206366 C9.19576752,11.3206366 8.73367583,11.1916309 8.32697183,10.9169244 C7.75252223,10.5329425 6.96443434,10.6665014 6.56247786,11.2159143 C6.1621039,11.7653271 6.30136441,12.522667 6.87423151,12.9066489 C7.71928961,13.475792 8.70202571,13.7504984 9.66418924,13.7489807 C11.1992199,13.7504984 12.7200079,13.0553849 13.6695114,11.7577386 L16.8788332,7.36243576 C17.4722729,6.5504582 17.7587064,5.60947486 17.7571239,4.68518639 C17.7587064,3.21300278 17.0339188,1.75296089 15.6808763,0.843849573 Z M7.92818037,15.3891754 L7.03248209,16.6154892 C6.57830292,17.2362346 5.84876775,17.5701319 5.1002425,17.5716497 C4.63182078,17.5716497 4.16972909,17.4426439 3.76144259,17.1679374 C3.11261521,16.7338709 2.76446394,16.0342043 2.76288143,15.3163251 C2.76446394,14.8670814 2.89897693,14.4239086 3.18541048,14.0323381 L6.39473225,9.63703532 C6.8457464,9.01628986 7.57528158,8.68087483 8.32538933,8.68087483 C8.79381105,8.68087483 9.25590274,8.80988061 9.66418924,9.08458703 C10.2370563,9.46856894 11.0267267,9.33501002 11.4271007,8.78711488 C11.8290572,8.23770203 11.6897967,7.48036222 11.1169296,7.09486259 C10.270289,6.52571944 9.28913536,6.25101302 8.32538933,6.25253073 C6.7903587,6.25101302 5.26798812,6.94612652 4.31848463,8.24529061 L1.11074537,12.6390757 C0.518888202,13.4510533 0.230872146,14.3920366 0.230872146,15.3163251 C0.22928964,16.786991 0.955659803,18.2470329 2.30870226,19.1576619 C3.15534287,19.726805 4.13649647,20.0015115 5.1002425,19.9999937 C6.63527313,20.0015115 8.15606121,19.306398 9.10556469,18.0102693 L10.0028455,16.7809201 C10.4032194,16.2315073 10.2639589,15.4756852 9.69109184,15.0901855 C9.11822474,14.7062036 8.32855434,14.8397625 7.92818037,15.3891754 Z"></path>
            </g>
        </g>
    </g>
</svg>