<svg viewBox="0 0 20 20"><path d="M5.5 20c1.3 0 2.7-.6 3.6-1.7l1-1.2c.4-.4.3-1-.1-1.4-.4-.4-1.1-.3-1.4.1l-1 1.2c-.5.6-1.3 1-2.1 1-.6 0-1.2-.2-1.7-.6-.6-.5-1-1.3-1-2.1 0-.6.2-1.2.6-1.7l3.7-4.4c.5-.6 1.3-1 2.1-1 .6 0 1.2.2 1.7.6.2.2.6.3.9.2.5-.1.9-.7.7-1.2-.1-.2-.2-.4-.3-.5-.9-.7-1.9-1.1-3-1.1-1.3 0-2.7.6-3.6 1.7L2 12.3c-.7.9-1.1 1.9-1.1 3 0 1.3.6 2.7 1.7 3.6.8.7 1.9 1.1 2.9 1.1z"/><path d="M14.4 12.1L18 7.7c.7-.9 1.1-1.9 1.1-3 0-1.3-.6-2.7-1.7-3.6-.9-.7-1.9-1.1-3-1.1-1.3 0-2.7.6-3.6 1.7l-1 1.2c-.3.4-.3 1.1.1 1.4.4.4 1.1.3 1.4-.1l1-1.2c.5-.6 1.3-1 2.1-1 .6 0 1.2.2 1.7.6.6.5 1 1.3 1 2.1 0 .6-.2 1.2-.6 1.7l-3.7 4.4c-.5.6-1.3 1-2.1 1-.6 0-1.2-.2-1.7-.6-.2-.2-.4-.2-.6-.2-.6 0-1 .5-1 1 0 .3.1.6.4.8.9.7 1.9 1.1 3 1.1 1.3-.1 2.6-.7 3.6-1.8z"/></svg>