<?xml version="1.0" encoding="UTF-8" standalone="no"?>
<svg width="20px" height="18px" viewBox="0 0 20 18" version="1.1" xmlns="http://www.w3.org/2000/svg" xmlns:xlink="http://www.w3.org/1999/xlink" xmlns:sketch="http://www.bohemiancoding.com/sketch/ns">
    <!-- Generator: Sketch 3.4.4 (17249) - http://www.bohemiancoding.com/sketch -->
    <title>linkGoogle</title>
    <desc>Created with Sketch.</desc>
    <defs></defs>
    <g id="Page-1" stroke="none" stroke-width="1" fill="none" fill-rule="evenodd" sketch:type="MSPage">
        <g id="linkGoogle" sketch:type="MSArtboardGroup" transform="translate(-6.000000, -7.000000)" fill="#3A434C">
            <path d="M13.9488303,7.5 L11,9.33865023 L13.0406808,10.9330043 L16.0054436,9.15864251 L13.9488303,7.5 Z M13.9488303,14.3654942 L16.0054436,12.7068517 L13.0406808,10.93249 L11,12.4908425 L13.9488303,14.3654942 Z M18.062588,14.3654942 L20.9994689,12.5114148 L18.9654266,10.93249 L16.0059747,12.7068517 L18.062588,14.3654942 Z M13.9488303,14.7204952 L13.0632518,14.163757 L13.0632518,14.7899267 L16.0107544,16.5 L18.9542739,14.7899267 L18.9542739,14.163757 L18.0726785,14.7204952 L16.0107544,13.0618527 L13.9488303,14.7204952 Z M21,9.35407946 L18.063119,7.5 L16.005178,9.15864251 L18.96463,10.9330043 L21,9.35407946 Z M25.0322581,14.5397628 C24.4980645,14.5397628 24.0645161,14.9859815 24.0645161,15.5357865 L24.0645161,15.5357865 L24.0645161,21.8014397 C24.0645161,22.0046286 23.9870968,22.1839128 23.8670968,22.3127319 C23.7445161,22.440223 23.5987097,22.5066245 23.4387097,22.5079526 L8.56129032,22.5079526 C8.40129032,22.5066245 8.25548387,22.440223 8.13290323,22.3127319 C8.01290323,22.1839128 7.93548387,22.0046286 7.93548387,21.8014397 L7.93548387,15.5357865 C7.93548387,14.9859815 7.50193548,14.5397628 6.96774194,14.5397628 C6.43354839,14.5397628 6,14.9859815 6,15.5357865 L6,21.8014397 C6,23.2636026 7.11741935,24.4907038 8.56129032,24.5 L23.4387097,24.5 C24.8812903,24.4907038 26,23.2636026 26,21.8014397 L26,15.5357865 C26,14.9859815 25.5664516,14.5397628 25.0322581,14.5397628" sketch:type="MSShapeGroup"></path>
        </g>
    </g>
</svg>