<?xml version="1.0" encoding="utf-8"?>
<!-- Generator: Adobe Illustrator 19.1.0, SVG Export Plug-In . SVG Version: 6.00 Build 0)  -->
<svg version="1.1" id="Calque_1" xmlns="http://www.w3.org/2000/svg" xmlns:xlink="http://www.w3.org/1999/xlink" x="0px" y="0px"
	 viewBox="0 0 20 20" enable-background="new 0 0 20 20" xml:space="preserve">
<path fill="#3A444C" d="M2.43,0C0.96,0,0,1.01,0,2.33c0,1.3,0.93,2.33,2.37,2.33H2.4c1.49,0,2.43-1.04,2.43-2.33
	C4.79,1.01,3.89,0,2.43,0z"/>
<rect x="0.25" y="6.51" fill="#3A444C" width="4.29" height="13.49"/>
<path fill="#3A444C" d="M15.06,6.19c-2.28,0-3.29,1.31-3.86,2.23V6.51H6.91c0.06,1.27,0,13.49,0,13.49h4.29v-7.54
	c0-0.4,0.03-0.81,0.14-1.09c0.31-0.81,1.02-1.64,2.2-1.64c1.55,0,2.17,1.24,2.17,3.05V20H20v-7.74C20,8.12,17.88,6.19,15.06,6.19z"
	/>
</svg>
