<?xml version="1.0" encoding="UTF-8" standalone="no"?>
<svg width="20px" height="20px" viewBox="0 0 20 20" version="1.1" xmlns="http://www.w3.org/2000/svg" xmlns:xlink="http://www.w3.org/1999/xlink" xmlns:sketch="http://www.bohemiancoding.com/sketch/ns">
    <!-- Generator: Sketch 3.4.2 (15857) - http://www.bohemiancoding.com/sketch -->
    <title>linkedin</title>
    <desc>Created with Sketch.</desc>
    <defs></defs>
    <g id="Page-1" stroke="none" stroke-width="1" fill="none" fill-rule="evenodd" sketch:type="MSPage">
        <g id="linkedin" sketch:type="MSArtboardGroup" transform="translate(-6.000000, -6.000000)" fill="#3A434C">
            <path d="M6.25314482,12.5053296 L10.539973,12.5053296 L10.539973,26 L6.25314482,26 L6.25314482,12.5053296 Z M8.3968188,10.6633674 L8.36926915,10.6633674 C6.93045015,10.6633674 6,9.62682184 6,8.33141179 C6,7.00772243 6.9590394,6 8.42540805,6 C9.89177669,6 10.7946772,7.00772243 10.8222268,8.33141179 C10.8222268,9.62682184 9.89177669,10.6633674 8.3968188,10.6633674 L8.3968188,10.6633674 Z M26,26 L21.7131718,26 L21.7131718,18.7806178 C21.7131718,16.966935 21.0925252,15.7286274 19.5409086,15.7286274 C18.356274,15.7286274 17.6508993,16.5639548 17.3410957,17.3699152 C17.2282982,17.6576028 17.2002287,18.060583 17.2002287,18.464107 L17.2002287,26 L12.9128808,26 C12.9128808,26 12.9690196,13.7713726 12.9128808,12.5053296 L17.2002287,12.5053296 L17.2002287,14.4174462 C17.7694147,13.4978247 18.7877118,12.188275 21.063936,12.188275 C23.8843955,12.188275 26,14.1172504 26,18.262345 L26,26 L26,26 Z" sketch:type="MSShapeGroup"></path>
        </g>
    </g>
</svg>