<?xml version="1.0" encoding="UTF-8" standalone="no"?>
<svg width="20px" height="18px" viewBox="0 0 20 18" version="1.1" xmlns="http://www.w3.org/2000/svg" xmlns:xlink="http://www.w3.org/1999/xlink" xmlns:sketch="http://www.bohemiancoding.com/sketch/ns">
    <!-- Generator: Sketch 3.4.4 (17249) - http://www.bohemiancoding.com/sketch -->
    <title>linkDropbox</title>
    <desc>Created with Sketch.</desc>
    <defs></defs>
    <g id="Page-1" stroke="none" stroke-width="1" fill="none" fill-rule="evenodd" sketch:type="MSPage">
        <g id="linkDropbox" sketch:type="MSArtboardGroup" transform="translate(-6.000000, -7.000000)" fill="#3A434C">
            <path d="M25.0322581,14.5397628 C24.4980645,14.5397628 24.0645161,14.9859815 24.0645161,15.5357865 L24.0645161,15.5357865 L24.0645161,21.8014397 C24.0645161,22.0046286 23.9870968,22.1839128 23.8670968,22.3127319 C23.7445161,22.440223 23.5987097,22.5066245 23.4387097,22.5079526 L8.56129032,22.5079526 C8.40129032,22.5066245 8.25548387,22.440223 8.13290323,22.3127319 C8.01290323,22.1839128 7.93548387,22.0046286 7.93548387,21.8014397 L7.93548387,15.5357865 C7.93548387,14.9859815 7.50193548,14.5397628 6.96774194,14.5397628 C6.43354839,14.5397628 6,14.9859815 6,15.5357865 L6,21.8014397 C6,23.2636026 7.11741935,24.4907038 8.56129032,24.5 L23.4387097,24.5 C24.8812903,24.4907038 26,23.2636026 26,21.8014397 L26,15.5357865 C26,14.9859815 25.5664516,14.5397628 25.0322581,14.5397628 M14.4255268,7.5 L17.6198369,13.1854286 L20.7676523,13.1854286 L17.5745988,7.5 L14.4255268,7.5 Z M11,13.6585714 L12.574536,16.5 L15.629362,11.0524286 L14.009588,8.211 L11,13.6585714 Z M14.9357117,13.6585714 L13.3611757,16.5 L19.4255897,16.5 L21.0001257,13.6585714 L14.9357117,13.6585714 Z" sketch:type="MSShapeGroup"></path>
        </g>
    </g>
</svg>