<?xml version="1.0" encoding="utf-8"?>
<!-- Generator: Adobe Illustrator 19.1.0, SVG Export Plug-In . SVG Version: 6.00 Build 0)  -->
<svg version="1.1" id="Calque_1" xmlns="http://www.w3.org/2000/svg" xmlns:xlink="http://www.w3.org/1999/xlink" x="0px" y="0px"
	 viewBox="0 0 20 20" enable-background="new 0 0 20 20" xml:space="preserve">
<path fill="#3A434C" d="M19.02,2.15H5.76c-0.55,0-1,0.45-1,1c0,0.55,0.45,1,1,1h13.26c0.55,0,1-0.45,1-1
	C20.02,2.6,19.57,2.15,19.02,2.15z"/>
<circle fill="#3A434C" cx="1.27" cy="3.15" r="1.25"/>
<path fill="#3A434C" d="M19.02,9H5.76c-0.55,0-1,0.45-1,1s0.45,1,1,1h13.26c0.55,0,1-0.45,1-1S19.57,9,19.02,9z"/>
<circle fill="#3A434C" cx="1.27" cy="10" r="1.25"/>
<path fill="#3A434C" d="M19.02,15.85H5.76c-0.55,0-1,0.45-1,1s0.45,1,1,1h13.26c0.55,0,1-0.45,1-1S19.57,15.85,19.02,15.85z"/>
<circle fill="#3A434C" cx="1.27" cy="16.85" r="1.25"/>
</svg>
