<svg viewBox="0 0 20 20"><path d="M5.68273092,2.89461941 C5.13052209,2.89461941 4.67871486,2.44545433 4.67871486,1.89647479 C4.67871486,1.34749524 5.13052209,0.898330163 5.68273092,0.898330163 L18.9959839,0.898330163 C19.5481928,0.898330163 20,1.34749524 20,1.89647479 C20,2.44545433 19.5481928,2.89461941 18.9959839,2.89461941 L5.68273092,2.89461941 Z M18.9959839,7.73562085 C19.5481928,7.73562085 20,8.18478593 20,8.73376547 C20,9.28274502 19.5481928,9.7319101 18.9959839,9.7319101 L5.68273092,9.7319101 C5.13052209,9.7319101 4.67871486,9.28274502 4.67871486,8.73376547 C4.67871486,8.18478593 5.13052209,7.73562085 5.68273092,7.73562085 L18.9959839,7.73562085 Z M18.9959839,14.5729115 C19.5481928,14.5729115 20,15.0220766 20,15.5710562 C20,16.1200357 19.5481928,16.5692008 18.9959839,16.5692008 L5.68273092,16.5692008 C5.13052209,16.5692008 4.67871486,16.1200357 4.67871486,15.5710562 C4.67871486,15.0220766 5.13052209,14.5729115 5.68273092,14.5729115 L18.9959839,14.5729115 Z M0.973895582,0.828460039 L0.381526104,1.45729115 L0,1.0580333 L1.06425703,0 L1.62650602,0 L1.62650602,3.65320933 L0.973895582,3.65320933 L0.973895582,0.828460039 Z M2.84136546,7.89532399 C2.84136546,8.57406233 2.2188755,9.17294911 1.23493976,9.90159468 L2.86144578,9.90159468 L2.86144578,10.4705371 L0.200803213,10.4705371 L0.200803213,9.96148336 C1.62650602,8.88348717 2.18875502,8.41435919 2.18875502,7.88534254 C2.18875502,7.50604758 1.85742972,7.336363 1.51606426,7.336363 C1.08433735,7.336363 0.753012048,7.50604758 0.522088353,7.77554663 L0.15060241,7.35632589 C0.481927711,6.95706804 0.993975904,6.76742056 1.51606426,6.76742056 C2.2188755,6.76742056 2.84136546,7.16667841 2.84136546,7.89532399 Z M1.97791165,15.4712417 C2.32931727,15.5111675 2.8313253,15.790648 2.82128514,16.349609 C2.82128514,16.9684586 2.28915663,17.4176237 1.43574297,17.4176237 C0.793172691,17.4176237 0.301204819,17.1581061 0.0502008032,16.8287184 L0.401606426,16.4094976 C0.642570281,16.6789967 1.02409639,16.8486813 1.41566265,16.8486813 C1.89759036,16.8486813 2.17871486,16.619108 2.17871486,16.2897203 C2.17871486,15.9303882 1.89759036,15.7706851 1.36546185,15.7706851 C1.20481928,15.7706851 0.993975904,15.7706851 0.9437751,15.7806665 L0.9437751,15.2017426 C1.00401606,15.2117241 1.2248996,15.2117241 1.36546185,15.2117241 C1.80722892,15.2117241 2.12851406,15.0620024 2.12851406,14.7326147 C2.12851406,14.4032269 1.79718876,14.2235609 1.38554217,14.2235609 C1.00401606,14.2235609 0.692771084,14.3633012 0.431726908,14.6328002 L0.100401606,14.2335424 C0.391566265,13.8941732 0.833333333,13.6546185 1.44578313,13.6546185 C2.23895582,13.6546185 2.77108434,14.023932 2.77108434,14.6328002 C2.77108434,15.1218911 2.34939759,15.411353 1.97791165,15.4712417 Z"></path></svg>
