<?xml version="1.0" encoding="utf-8"?>
<!-- Generator: Adobe Illustrator 19.1.0, SVG Export Plug-In . SVG Version: 6.00 Build 0)  -->
<svg version="1.1" id="Calque_1" xmlns="http://www.w3.org/2000/svg" xmlns:xlink="http://www.w3.org/1999/xlink" x="0px" y="0px"
	 viewBox="0 0 20 20" enable-background="new 0 0 20 20" xml:space="preserve">
<rect x="2.04" y="2" fill="none" width="15.92" height="1.48"/>
<path fill="#3A434C" d="M10.4,9.17H1.15c-0.55,0-1,0.45-1,1s0.45,1,1,1h9.24c0.55,0,1-0.45,1-1S10.95,9.17,10.4,9.17z"/>
<path fill="#3A434C" d="M10.4,13.58H1.15c-0.55,0-1,0.45-1,1c0,0.55,0.45,1,1,1h9.24c0.55,0,1-0.45,1-1
	C11.4,14.03,10.95,13.58,10.4,13.58z"/>
<path fill="#3A434C" d="M10.4,18H1.15c-0.55,0-1,0.45-1,1c0,0.55,0.45,1,1,1h9.24c0.55,0,1-0.45,1-1C11.4,18.45,10.95,18,10.4,18z"
	/>
<path fill="#3A434C" d="M15.92,19.66c0.19,0.19,0.44,0.29,0.71,0.29s0.52-0.11,0.71-0.29l2.41-2.42c0.39-0.39,0.39-1.02,0-1.41
	c-0.39-0.39-1.02-0.39-1.41,0l-0.74,0.74v-6.4c0-0.55-0.45-1-1-1s-1,0.45-1,1v6.33l-0.66-0.67c-0.39-0.39-1.02-0.39-1.41,0
	s-0.39,1.02,0,1.41L15.92,19.66z"/>
<path fill="#3A434C" d="M19.96,3.72V1.76C19.96,0.79,19.18,0,18.2,0H1.8C0.83,0,0.05,0.79,0.04,1.76v1.96
	c0,0.97,0.79,1.76,1.76,1.76h16.4C19.18,5.48,19.96,4.69,19.96,3.72z M17.96,3.48H2.04V2h15.92V3.48z"/>
</svg>
