<?xml version="1.0" encoding="utf-8"?>
<!-- Generator: Adobe Illustrator 19.2.1, SVG Export Plug-In . SVG Version: 6.00 Build 0)  -->
<svg version="1.1" id="Calque_1" xmlns="http://www.w3.org/2000/svg" xmlns:xlink="http://www.w3.org/1999/xlink" x="0px" y="0px"
	 viewBox="0 0 20 20" style="enable-background:new 0 0 20 20;" xml:space="preserve">
<style type="text/css">
	.st0{fill:#3A434C;}
</style>
<path class="st0" d="M10.4,9.2H1.1c-0.6,0-1,0.4-1,1s0.4,1,1,1h9.2c0.6,0,1-0.4,1-1S10.9,9.2,10.4,9.2z"/>
<path class="st0" d="M10.4,13.6H1.1c-0.6,0-1,0.4-1,1s0.4,1,1,1h9.2c0.6,0,1-0.4,1-1C11.4,14,10.9,13.6,10.4,13.6z"/>
<path class="st0" d="M10.4,18H1.1c-0.6,0-1,0.5-1,1s0.4,1,1,1h9.2c0.6,0,1-0.5,1-1C11.4,18.5,10.9,18,10.4,18z"/>
<path class="st0" d="M15.9,19.7c0.2,0.2,0.4,0.3,0.7,0.3s0.5-0.1,0.7-0.3l2.4-2.4c0.4-0.4,0.4-1,0-1.4c-0.4-0.4-1-0.4-1.4,0
	l-0.7,0.7v-6.4c0-0.6-0.5-1-1-1s-1,0.4-1,1v6.3l-0.7-0.7c-0.4-0.4-1-0.4-1.4,0c-0.4,0.4-0.4,1,0,1.4L15.9,19.7z"/>
<path class="st0" d="M20,3.7v-2c0-1-0.8-1.8-1.8-1.8H1.8C0.8,0,0.1,0.8,0,1.8v2c0,1,0.8,1.8,1.8,1.8h16.4C19.2,5.5,20,4.7,20,3.7z
	 M18,3.5H2V2H18V3.5z"/>
</svg>
