<?xml version="1.0" encoding="UTF-8" standalone="no"?>
<svg width="20px" height="20px" viewBox="0 0 20 20" version="1.1" xmlns="http://www.w3.org/2000/svg" xmlns:xlink="http://www.w3.org/1999/xlink" xmlns:sketch="http://www.bohemiancoding.com/sketch/ns">
    <!-- Generator: Sketch 3.4.2 (15857) - http://www.bohemiancoding.com/sketch -->
    <title>listExpand</title>
    <desc>Created with Sketch.</desc>
    <defs></defs>
    <g id="Page-1" stroke="none" stroke-width="1" fill="none" fill-rule="evenodd" sketch:type="MSPage">
        <g id="listExpand" sketch:type="MSArtboardGroup" transform="translate(-6.000000, -6.000000)" fill="#3A434C">
            <g sketch:type="MSLayerGroup" transform="translate(6.000000, 6.500000)">
                <path d="M19.185978,14.6889276 L17.8149997,14.6889276 L17.8149997,8.87929564 C17.8149997,8.3944269 17.4507245,8 17.0003267,8 C16.5499289,8 16.1856536,8.3944269 16.1856536,8.87929564 L16.1856536,14.6889276 L14.8146753,14.6889276 C14.4911337,14.6889276 14.1966876,14.8974463 14.0675038,15.2177611 C13.9383199,15.5393321 13.9976747,15.9124047 14.2188002,16.1686565 L16.4254003,18.71987 C16.5790243,18.8994976 16.7966584,19.0012446 17.023603,18.9999885 C17.2505477,18.9987324 17.4681817,18.894473 17.6218058,18.7148455 L19.7865084,16.1623758 C20.0041425,15.906124 20.0611696,15.5330514 19.9308219,15.2152488 C19.801638,14.8961901 19.5071919,14.6889276 19.185978,14.6889276" id="Fill-2" sketch:type="MSShapeGroup"></path>
                <path d="M18.3882966,0 L1.61170345,0 C0.720307463,0.00371839365 0.00371931565,0.71888944 0,1.61130392 L0,3.38869608 C0.00371931565,4.28111056 0.720307463,4.99628161 1.61170345,5 L18.3882966,5 C19.2809323,4.99628161 19.9975205,4.28111056 20,3.38869608 L20,1.61130392 C19.9975205,0.71888944 19.2809323,0.00371839365 18.3882966,0 L18.3882966,0 Z M1.73568063,1.73525037 L18.2643194,1.73525037 L18.2643194,3.26474963 L1.73568063,3.26474963 L1.73568063,1.73525037 Z" id="Fill-3" sketch:type="MSShapeGroup"></path>
                <path d="M0.879903041,12.5892959 C0.393895989,12.5892959 0,12.9972612 0,13.5018829 C0,14.0052493 0.393895989,14.4132147 0.879903041,14.4132147 C1.36591009,14.4132147 1.76101807,14.0052493 1.76101807,13.5018829 C1.76101807,12.9972612 1.36591009,12.5892959 0.879903041,12.5892959 Z M0.879903041,17.1760813 C0.393895989,17.1760813 0,17.5840466 0,18.087413 C0,18.5907794 0.393895989,19 0.879903041,19 C1.36591009,19 1.76101807,18.5907794 1.76101807,18.087413 C1.76101807,17.5840466 1.36591009,17.1760813 0.879903041,17.1760813 Z M0.879903041,8 C0.393895989,8 0,8.40796531 0,8.91133174 C0,9.41595344 0.393895989,9.82391875 0.879903041,9.82391875 C1.36591009,9.82391875 1.76101807,9.41595344 1.76101807,8.91133174 C1.76101807,8.40796531 1.36591009,8 0.879903041,8 Z M10.1516086,17.1723154 L3.75837373,17.1723154 C3.28933451,17.1723154 2.90998237,17.5652174 2.90998237,18.0510099 C2.90998237,18.5355472 3.28933451,18.9297044 3.75837373,18.9297044 L10.1516086,18.9297044 C10.6206479,18.9297044 11,18.5355472 11,18.0510099 C11,17.5652174 10.6206479,17.1723154 10.1516086,17.1723154 Z M10.1516086,12.5905512 L3.75837373,12.5905512 C3.28933451,12.5905512 2.90998237,12.9834532 2.90998237,13.4692457 C2.90998237,13.953783 3.28933451,14.3479402 3.75837373,14.3479402 L10.1516086,14.3479402 C10.6206479,14.3479402 11,13.953783 11,13.4692457 C11,12.9834532 10.6206479,12.5905512 10.1516086,12.5905512 Z M10.1516086,8.00878695 L3.75837373,8.00878695 C3.28933451,8.00878695 2.90998237,8.40168892 2.90998237,8.88748146 C2.90998237,9.37201872 3.28933451,9.76617597 3.75837373,9.76617597 L10.1516086,9.76617597 C10.6206479,9.76617597 11,9.37201872 11,8.88748146 C11,8.40168892 10.6206479,8.00878695 10.1516086,8.00878695 Z" id="Fill-7" sketch:type="MSShapeGroup"></path>
            </g>
        </g>
    </g>
</svg>