<svg viewBox="0 0 20 20"><path d="M10.4 9.2H1.1c-.6 0-1 .4-1 1s.4 1 1 1h9.2c.6 0 1-.4 1-1s-.4-1-.9-1zm0 4.4H1.1c-.6 0-1 .4-1 1s.4 1 1 1h9.2c.6 0 1-.4 1-1 .1-.6-.4-1-.9-1zm0 4.4H1.1c-.6 0-1 .5-1 1s.4 1 1 1h9.2c.6 0 1-.5 1-1 .1-.5-.4-1-.9-1zm5.5 1.7c.2.2.4.3.7.3s.5-.1.7-.3l2.4-2.4c.4-.4.4-1 0-1.4-.4-.4-1-.4-1.4 0l-.7.7v-6.4c0-.6-.5-1-1-1s-1 .4-1 1v6.3l-.7-.7c-.4-.4-1-.4-1.4 0-.4.4-.4 1 0 1.4l2.4 2.5zm4.1-16v-2c0-1-.8-1.8-1.8-1.8H1.8C.8 0 .1.8 0 1.8v2c0 1 .8 1.8 1.8 1.8h16.4c1-.1 1.8-.9 1.8-1.9zm-2-.2H2V2h16v1.5z"/></svg>