<?xml version="1.0" encoding="utf-8"?>
<!-- Generator: Adobe Illustrator 19.1.0, SVG Export Plug-In . SVG Version: 6.00 Build 0)  -->
<svg version="1.1" id="Calque_1" xmlns="http://www.w3.org/2000/svg" xmlns:xlink="http://www.w3.org/1999/xlink" x="0px" y="0px"
	 viewBox="0 0 20 20" enable-background="new 0 0 20 20" xml:space="preserve">
<rect x="2" y="16.52" fill="none" width="16" height="1.48"/>
<rect x="2" y="9.29" fill="none" width="16" height="1.48"/>
<rect x="2" y="2" fill="none" width="16" height="1.48"/>
<path fill="#3A434C" d="M0,3.72c0,0.98,0.79,1.76,1.76,1.76h16.48c0.98,0,1.76-0.79,1.76-1.76V1.76C20,0.79,19.21,0,18.24,0H1.76
	C0.79,0,0,0.79,0,1.76V3.72z M2,3.48V2h16v1.48H2z"/>
<path fill="#3A434C" d="M0,11.01c0,0.98,0.79,1.76,1.76,1.76h16.48c0.98,0,1.76-0.79,1.76-1.76V9.06c0-0.98-0.79-1.76-1.76-1.76
	H1.76C0.79,7.3,0,8.08,0,9.06V11.01z M2,10.77V9.29h16v1.48H2z"/>
<path fill="#3A434C" d="M0,18.24C0,19.21,0.79,20,1.76,20h16.48c0.98,0,1.76-0.79,1.76-1.76v-1.96c0-0.98-0.79-1.76-1.76-1.76H1.76
	C0.79,14.52,0,15.31,0,16.28V18.24z M2,18v-1.48h16V18H2z"/>
</svg>
