<?xml version="1.0" encoding="utf-8"?>
<!-- Generator: Adobe Illustrator 19.2.1, SVG Export Plug-In . SVG Version: 6.00 Build 0)  -->
<svg version="1.1" id="Calque_1" xmlns="http://www.w3.org/2000/svg" xmlns:xlink="http://www.w3.org/1999/xlink" x="0px" y="0px"
	 viewBox="0 0 20 20" style="enable-background:new 0 0 20 20;" xml:space="preserve">
<style type="text/css">
	.st0{fill:#3A434C;}
</style>
<path class="st0" d="M19,2.2H1c-0.6,0-1,0.5-1,1s0.4,1,1,1h18c0.5,0,1-0.5,1-1S19.5,2.2,19,2.2z"/>
<path class="st0" d="M19,9H1c-0.6,0-1,0.4-1,1s0.4,1,1,1h18c0.5,0,1-0.4,1-1C20,9.4,19.5,9,19,9z"/>
<path class="st0" d="M19,15.9H1c-0.6,0-1,0.5-1,1s0.4,1,1,1h18c0.5,0,1-0.5,1-1C20,16.3,19.5,15.9,19,15.9z"/>
</svg>
