<?xml version="1.0" encoding="utf-8"?>
<!-- Generator: Adobe Illustrator 19.1.0, SVG Export Plug-In . SVG Version: 6.00 Build 0)  -->
<svg version="1.1" id="Calque_1" xmlns="http://www.w3.org/2000/svg" xmlns:xlink="http://www.w3.org/1999/xlink" x="0px" y="0px"
	 viewBox="0 0 20 20" enable-background="new 0 0 20 20" xml:space="preserve">
<path fill="#3A434C" d="M10,0C4.48,0,0,4.48,0,10c0,3.05,1.36,5.78,3.51,7.61c0.42,0.36,1.05,0.31,1.41-0.11s0.31-1.05-0.11-1.41
	C3.09,14.62,2,12.45,2,10C2,7.79,2.89,5.8,4.34,4.34C5.79,2.89,7.79,2,10,2c2.21,0,4.21,0.89,5.66,2.34C17.11,5.8,18,7.79,18,10
	c0,2.44-1.09,4.62-2.81,6.09c-0.42,0.36-0.47,0.99-0.11,1.41c0.36,0.42,0.99,0.47,1.41,0.11C18.64,15.79,20,13.05,20,10
	C20,4.48,15.52,0,10,0z"/>
<path fill="#3A434C" d="M15.7,10c0-3.15-2.55-5.7-5.7-5.7c-3.15,0-5.7,2.55-5.7,5.7c0,1.43,0.53,2.75,1.41,3.75
	c0.36,0.42,1,0.46,1.41,0.09c0.42-0.36,0.46-1,0.09-1.41v0C6.65,11.79,6.3,10.94,6.3,10c0-1.02,0.41-1.94,1.08-2.61
	C8.06,6.72,8.98,6.31,10,6.31c1.02,0,1.94,0.41,2.61,1.08C13.28,8.06,13.7,8.98,13.7,10c0,0.94-0.35,1.79-0.92,2.44
	c-0.37,0.41-0.33,1.05,0.09,1.41c0.41,0.37,1.05,0.33,1.41-0.09C15.16,12.77,15.7,11.44,15.7,10z"/>
<circle fill="#3A434C" cx="10" cy="10" r="1.67"/>
<path fill="#3A434C" d="M14.08,19.17l-2.51-4.33c-0.31-0.46-1-0.83-1.55-0.83c-0.55,0-1.25,0.37-1.55,0.83l-2.51,4.33
	C5.65,19.63,5.86,20,6.39,20h7.25C14.19,20,14.39,19.63,14.08,19.17z"/>
</svg>
