<svg viewBox="0 0 20 20"><path d="M10 0C4.5 0 0 4.5 0 10c0 3.1 1.4 5.8 3.5 7.6.4.4 1.1.3 1.4-.1.4-.4.3-1.1-.1-1.4C3 14.6 2 12.3 2 10c0-4.4 3.6-8 8-8s8 3.6 8 8c0 2.4-1.1 4.6-2.8 6.1-.4.4-.5 1-.1 1.4s1 .5 1.4.1c2.2-1.9 3.5-4.7 3.5-7.6 0-5.5-4.5-10-10-10z"/><path d="M15.7 10c0-3.2-2.6-5.7-5.7-5.7S4.3 6.8 4.3 10c0 1.4.5 2.7 1.4 3.8.4.4 1 .5 1.4.1.4-.4.5-1 .1-1.4-.6-.7-.9-1.5-.9-2.4 0-1 .4-1.9 1.1-2.6.7-.8 1.6-1.2 2.6-1.2s1.9.4 2.6 1.1c1.4 1.4 1.5 3.6.2 5.1-.4.4-.3 1 .1 1.4.4.4 1.1.3 1.4-.1.9-1 1.4-2.4 1.4-3.8z"/><circle cx="10" cy="10" r="1.7"/><path d="M14.1 19.2l-2.5-4.3c-.3-.5-1-.8-1.6-.8s-1.2.4-1.6.8l-2.5 4.3c-.3.4-.1.8.5.8h7.2c.6 0 .8-.4.5-.8z"/></svg>