<svg viewBox="0 0 20 20"><path d="M3.7 5.1c.4.4 1 .4 1.4 0s.4-1 0-1.4L3.6 2.2c-.4-.4-1-.4-1.4 0s-.4 1 0 1.4l1.5 1.5zM4 7.6c0-.6-.5-1-1-1H1c-.6 0-1 .4-1 1s.4 1 1 1h2c.6 0 1-.5 1-1zM7.6 4c.5 0 1-.5 1-1V1c0-.6-.4-1-1-1s-1 .4-1 1v2c0 .6.5 1 1 1zm-4 6l-1.4 1.4c-.4.4-.4 1 0 1.4s1 .4 1.4 0L5 11.4c.4-.4.4-1 0-1.4-.3-.4-1-.4-1.4 0zm7.9-5l1.4-1.4c.4-.4.4-1 0-1.4s-1-.4-1.4 0l-1.4 1.4c-.4.4-.4 1 0 1.4.3.4 1 .4 1.4 0zm8.2 11.2L8.6 5.1c-.2-.2-.4-.3-.7-.3h-.2c-.3 0-.5.1-.7.3L5.1 7c-.2.1-.3.4-.3.7v.2c0 .3.1.5.3.7l11.1 11.1c.2.2.4.3.7.3h.2c.3 0 .5-.1.7-.3l1.8-1.8c.2-.2.3-.4.3-.7V17c.1-.4-.1-.6-.2-.8zm-10.8-8l-.7.7-1.1-1.1.7-.7 1.1 1.1zm.7 2.1l.7-.7 7.4 7.4-.7.6-7.4-7.3z"/></svg>