<?xml version="1.0" encoding="utf-8"?>
<!-- Generator: Adobe Illustrator 19.2.1, SVG Export Plug-In . SVG Version: 6.00 Build 0)  -->
<svg version="1.1" id="Calque_1" xmlns="http://www.w3.org/2000/svg" xmlns:xlink="http://www.w3.org/1999/xlink" x="0px" y="0px"
	 viewBox="0 0 20 20" style="enable-background:new 0 0 20 20;" xml:space="preserve">
<style type="text/css">
	.st0{fill:#3A434C;}
</style>
<path class="st0" d="M17.9,2.2H2.1C1,2.2,0,3.2,0,4.3v11.3c0,1.2,1,2.1,2.1,2.1h15.7c1.2,0,2.1-1,2.1-2.1V4.3
	C20,3.2,19,2.2,17.9,2.2z M16.9,4.2L10.1,10L3.5,4.2H16.9z M18,15.8l-0.1,0H2.1l-0.1,0l0-0.1V5.5l7.5,6.5c0.4,0.3,0.9,0.3,1.3,0
	L18,5.9v9.8L18,15.8z"/>
</svg>
