<?xml version="1.0" encoding="utf-8"?>
<!-- Generator: Adobe Illustrator 19.1.0, SVG Export Plug-In . SVG Version: 6.00 Build 0)  -->
<svg version="1.1" id="Calque_1" xmlns="http://www.w3.org/2000/svg" xmlns:xlink="http://www.w3.org/1999/xlink" x="0px" y="0px"
	 viewBox="0 0 20 20" enable-background="new 0 0 20 20" xml:space="preserve">
<path fill="none" d="M10.8,12.08c-0.38,0.33-0.94,0.32-1.31,0L2,5.54v10.12l0.04,0.1l0.1,0.04h15.71l0.1-0.04l0.04-0.1v-9.8
	L10.8,12.08z"/>
<polygon fill="none" points="16.88,4.19 3.49,4.19 10.15,10 "/>
<path fill="#3A434C" d="M17.86,2.19H2.14C0.96,2.19,0,3.15,0,4.33v11.33c0,1.19,0.96,2.14,2.14,2.14h15.71
	c1.19,0,2.14-0.96,2.14-2.14V4.33C20,3.15,19.04,2.19,17.86,2.19z M16.88,4.19L10.15,10L3.49,4.19H16.88z M17.96,15.77l-0.1,0.04
	H2.14l-0.1-0.04L2,15.67V5.54l7.49,6.54c0.38,0.33,0.93,0.33,1.31,0L18,5.87v9.8L17.96,15.77z"/>
</svg>
