<?xml version="1.0" encoding="UTF-8" standalone="no"?>
<svg width="20px" height="20px" viewBox="0 0 20 20" version="1.1" xmlns="http://www.w3.org/2000/svg" xmlns:xlink="http://www.w3.org/1999/xlink" xmlns:sketch="http://www.bohemiancoding.com/sketch/ns">
    <!-- Generator: Sketch 3.4.2 (15857) - http://www.bohemiancoding.com/sketch -->
    <title>meetingList</title>
    <desc>Created with Sketch.</desc>
    <defs></defs>
    <g id="Page-1" stroke="none" stroke-width="1" fill="none" fill-rule="evenodd" sketch:type="MSPage">
        <g id="meetingList" sketch:type="MSArtboardGroup" transform="translate(-6.000000, -6.000000)" fill="#3A434C">
            <path d="M11.462,21.785 L25.883,21.785 L25.883,24.15 L11.462,24.15 L11.462,21.785 Z M11.462,14.678 L25.883,14.678 L25.883,17.043 L11.462,17.043 L11.462,14.678 Z M11.462,7.57 L25.883,7.57 L25.883,9.935 L11.462,9.935 L11.462,7.57 Z M6.06,22.7276672 C6.24743812,22.0733111 6.85257119,21.594 7.57,21.594 C8.437,21.594 9.139,22.294 9.139,23.157 C9.139,24.021 8.437,24.721 7.57,24.721 C6.85257119,24.721 6.24743812,24.2416889 6.06,23.5867662 L6.06,22.7276672 L6.06,22.7276672 Z M6.06,15.4312338 C6.24743812,14.7763111 6.85257119,14.297 7.57,14.297 C8.437,14.297 9.139,14.997 9.139,15.861 C9.139,16.724 8.437,17.424 7.57,17.424 C6.85257119,17.424 6.24743812,16.9446889 6.06,16.2903328 L6.06,15.4312338 L6.06,15.4312338 Z M6.06,8.13423384 C6.24743812,7.47931108 6.85257119,7 7.57,7 C8.437,7 9.139,7.7 9.139,8.564 C9.139,9.427 8.437,10.127 7.57,10.127 C6.85257119,10.127 6.24743812,9.64768892 6.06,8.99333276 L6.06,8.13423384 L6.06,8.13423384 Z" sketch:type="MSShapeGroup"></path>
        </g>
    </g>
</svg>