<?xml version="1.0" encoding="UTF-8" standalone="no"?>
<svg width="20px" height="20px" viewBox="0 0 20 20" version="1.1" xmlns="http://www.w3.org/2000/svg" xmlns:xlink="http://www.w3.org/1999/xlink" xmlns:sketch="http://www.bohemiancoding.com/sketch/ns">
    <!-- Generator: Sketch 3.5.1 (25234) - http://www.bohemiancoding.com/sketch -->
    <title>meetingList</title>
    <desc>Created with Sketch.</desc>
    <defs></defs>
    <g id="Page-1" stroke="none" stroke-width="1" fill="none" fill-rule="evenodd" sketch:type="MSPage">
        <g id="meetingList" sketch:type="MSArtboardGroup" transform="translate(-6.000000, -6.000000)" fill="#3A434C">
            <path d="M7.42857143,10.3333333 C8.21754964,10.3333333 8.85714286,9.69907006 8.85714286,8.91666667 C8.85714286,8.13426327 8.21754964,7.5 7.42857143,7.5 C6.63959321,7.5 6,8.13426327 6,8.91666667 C6,9.69907006 6.63959321,10.3333333 7.42857143,10.3333333 Z M7.42857143,17.4166667 C8.21754964,17.4166667 8.85714286,16.7824034 8.85714286,16 C8.85714286,15.2175966 8.21754964,14.5833333 7.42857143,14.5833333 C6.63959321,14.5833333 6,15.2175966 6,16 C6,16.7824034 6.63959321,17.4166667 7.42857143,17.4166667 Z M7.42857143,24.5 C8.21754964,24.5 8.85714286,23.8657367 8.85714286,23.0833333 C8.85714286,22.3009299 8.21754964,21.6666667 7.42857143,21.6666667 C6.63959321,21.6666667 6,22.3009299 6,23.0833333 C6,23.8657367 6.63959321,24.5 7.42857143,24.5 Z M11.2380952,23.0833333 C11.2380952,22.5617311 11.6639703,22.1388889 12.183975,22.1388889 L25.0541203,22.1388889 C25.5765152,22.1388889 26,22.5580946 26,23.0833333 L26,23.0833333 C26,23.6049356 25.5741249,24.0277778 25.0541203,24.0277778 L12.183975,24.0277778 C11.66158,24.0277778 11.2380952,23.6085721 11.2380952,23.0833333 L11.2380952,23.0833333 Z M11.2380952,16 C11.2380952,15.4783977 11.6639703,15.0555556 12.183975,15.0555556 L25.0541203,15.0555556 C25.5765152,15.0555556 26,15.4747612 26,16 L26,16 C26,16.5216023 25.5741249,16.9444444 25.0541203,16.9444444 L12.183975,16.9444444 C11.66158,16.9444444 11.2380952,16.5252388 11.2380952,16 L11.2380952,16 Z M11.2380952,8.91666667 C11.2380952,8.3950644 11.6639703,7.97222222 12.183975,7.97222222 L25.0541203,7.97222222 C25.5765152,7.97222222 26,8.39142789 26,8.91666667 L26,8.91666667 C26,9.43826893 25.5741249,9.86111111 25.0541203,9.86111111 L12.183975,9.86111111 C11.66158,9.86111111 11.2380952,9.44190545 11.2380952,8.91666667 L11.2380952,8.91666667 Z" sketch:type="MSShapeGroup"></path>
        </g>
    </g>
</svg>