<?xml version="1.0" encoding="utf-8"?>
<!-- Generator: Adobe Illustrator 19.2.1, SVG Export Plug-In . SVG Version: 6.00 Build 0)  -->
<svg version="1.1" id="Calque_1" xmlns="http://www.w3.org/2000/svg" xmlns:xlink="http://www.w3.org/1999/xlink" x="0px" y="0px"
	 viewBox="0 0 20 20" style="enable-background:new 0 0 20 20;" xml:space="preserve">
<style type="text/css">
	.st0{fill:#3A434C;}
</style>
<path class="st0" d="M18.3,19.7c0.3,0.3,0.7,0.4,1.1,0.2S20,19.4,20,19l0-16.2h-1h1c0-0.7-0.2-1.4-0.7-1.9C18.9,0.4,18.2,0,17.5,0
	H2.5C1.8,0,1.1,0.4,0.7,0.9C0.2,1.4,0,2.1,0,2.8v10.8c0,0.7,0.2,1.4,0.7,1.9c0.4,0.5,1.1,0.9,1.8,0.9h12.6L18.3,19.7z M2.2,14.2
	C2.1,14.1,2,13.9,2,13.6V2.8c0-0.3,0.1-0.5,0.2-0.6C2.3,2,2.4,2,2.5,2h14.9c0.1,0,0.2,0,0.3,0.2C17.9,2.3,18,2.5,18,2.8l0,13.7
	l-1.7-1.8c-0.2-0.2-0.4-0.3-0.7-0.3h-13C2.4,14.4,2.3,14.4,2.2,14.2z"/>
<circle class="st0" cx="7" cy="8.2" r="1.2"/>
<circle class="st0" cx="13" cy="8.2" r="1.2"/>
</svg>
