<?xml version="1.0" encoding="utf-8"?>
<!-- Generator: Adobe Illustrator 19.1.0, SVG Export Plug-In . SVG Version: 6.00 Build 0)  -->
<svg version="1.1" id="Calque_1" xmlns="http://www.w3.org/2000/svg" xmlns:xlink="http://www.w3.org/1999/xlink" x="0px" y="0px"
	 viewBox="0 0 20 20" enable-background="new 0 0 20 20" xml:space="preserve">
<path fill="none" d="M16.31,14.71l1.68,1.78L18,2.8c0-0.27-0.09-0.49-0.21-0.63C17.67,2.04,17.57,2,17.47,2H2.54
	c-0.1,0-0.21,0.04-0.33,0.18C2.09,2.31,2,2.53,2,2.8v10.8c0,0.27,0.09,0.49,0.21,0.62c0.12,0.14,0.23,0.18,0.33,0.18h13.04
	C15.85,14.4,16.12,14.51,16.31,14.71z M7,9.45c-0.69,0-1.25-0.56-1.25-1.25c0-0.69,0.56-1.25,1.25-1.25S8.25,7.51,8.25,8.2
	C8.25,8.89,7.69,9.45,7,9.45z M13,9.45c-0.69,0-1.25-0.56-1.25-1.25c0-0.69,0.56-1.25,1.25-1.25s1.25,0.56,1.25,1.25
	C14.25,8.89,13.69,9.45,13,9.45z"/>
<path fill="#3A434C" d="M18.26,19.69c0.28,0.3,0.71,0.39,1.1,0.24s0.63-0.52,0.63-0.93L20,2.8l-1,0h1c0-0.73-0.25-1.4-0.69-1.92
	C18.88,0.36,18.22,0,17.47,0H2.54C1.79,0,1.13,0.36,0.69,0.88C0.25,1.39,0,2.07,0,2.8v10.8c0,0.73,0.25,1.41,0.69,1.92
	c0.44,0.52,1.1,0.88,1.85,0.88h12.61L18.26,19.69z M2.21,14.22C2.09,14.09,2,13.87,2,13.6V2.8c0-0.27,0.09-0.49,0.21-0.62
	C2.33,2.04,2.44,2,2.54,2h14.93c0.1,0,0.2,0.04,0.32,0.17C17.91,2.31,18,2.53,18,2.8l-0.01,13.69l-1.68-1.78
	c-0.19-0.2-0.45-0.31-0.73-0.31H2.54C2.44,14.4,2.33,14.36,2.21,14.22z"/>
<circle fill="#3A434C" cx="7" cy="8.2" r="1.25"/>
<circle fill="#3A434C" cx="13" cy="8.2" r="1.25"/>
</svg>
