<?xml version="1.0" encoding="UTF-8" standalone="no"?>
<svg width="20px" height="20px" viewBox="0 0 20 20" version="1.1" xmlns="http://www.w3.org/2000/svg" xmlns:xlink="http://www.w3.org/1999/xlink" xmlns:sketch="http://www.bohemiancoding.com/sketch/ns">
    <!-- Generator: Sketch 3.4.4 (17249) - http://www.bohemiancoding.com/sketch -->
    <title>more</title>
    <desc>Created with Sketch.</desc>
    <defs></defs>
    <g id="Page-1" stroke="none" stroke-width="1" fill="none" fill-rule="evenodd" sketch:type="MSPage">
        <g id="more" sketch:type="MSArtboardGroup" transform="translate(-6.000000, -6.000000)" fill="#3A434C">
            <path d="M15,26 C16.1045695,26 17,25.1045695 17,24 C17,22.8954305 16.1045695,22 15,22 C13.8954305,22 13,22.8954305 13,24 C13,25.1045695 13.8954305,26 15,26 Z M15,18 C16.1045695,18 17,17.1045695 17,16 C17,14.8954305 16.1045695,14 15,14 C13.8954305,14 13,14.8954305 13,16 C13,17.1045695 13.8954305,18 15,18 Z M15,10 C16.1045695,10 17,9.1045695 17,8 C17,6.8954305 16.1045695,6 15,6 C13.8954305,6 13,6.8954305 13,8 C13,9.1045695 13.8954305,10 15,10 Z" sketch:type="MSShapeGroup"></path>
        </g>
    </g>
</svg>