<?xml version="1.0" encoding="utf-8"?>
<!-- Generator: Adobe Illustrator 20.1.0, SVG Export Plug-In . SVG Version: 6.00 Build 0)  -->
<svg version="1.1" id="Calque_1" xmlns="http://www.w3.org/2000/svg" xmlns:xlink="http://www.w3.org/1999/xlink" x="0px" y="0px"
	 viewBox="0 0 20 20" style="enable-background:new 0 0 20 20;" xml:space="preserve">
<style type="text/css">
	.st0{fill:#3A434C;}
</style>
<path class="st0" d="M11,4c0-0.1,0-0.1,0-0.2V1c0-0.6-0.4-1-1-1S9,0.4,9,1v2.9C9,3.9,9,4,9,4c-2.9,0.4-5.2,3-5.2,6v3.8
	c0,3.4,2.7,6.1,6.1,6.1h0.1c3.4,0,6.1-2.7,6.1-6.1v-3.8C16.2,7,13.9,4.5,11,4z M14.3,13.8c0,1.2-0.5,2.2-1.2,3
	c-0.8,0.8-1.8,1.2-3,1.2H9.9c-1.2,0-2.2-0.5-3-1.2c-0.8-0.8-1.2-1.8-1.2-3v-3.8c0-1.2,0.5-2.2,1.2-3c0.8-0.8,1.8-1.3,3-1.3h0.1
	c1.2,0,2.2,0.5,3,1.2c0.8,0.8,1.2,1.8,1.2,3L14.3,13.8L14.3,13.8z"/>
<circle class="st0" cx="10" cy="9.4" r="1.2"/>
</svg>
