<svg viewBox="0 0 20 20"><path d="M.31 2.84l1.66 1.59c.19.18.45.28.72.28s.52-.12.7-.31l2.57-2.71c.38-.4.36-1.03-.04-1.41A1 1 0 0 0 4.5.31L2.63 2.29l-.94-.89A.996.996 0 1 0 .31 2.84zM19 1.36H9.26c-.55 0-1 .45-1 1s.45 1 1 1H19c.55 0 1-.45 1-1s-.45-1-1-1zM.31 10.46l1.66 1.59c.19.18.45.28.72.28.27-.01.52-.12.7-.31L5.95 9.3A.997.997 0 1 0 4.5 7.93L2.63 9.91l-.94-.9c-.4-.38-1.03-.37-1.41.03s-.37 1.04.03 1.42zM19 8.97H9.26c-.55 0-1 .45-1 1s.45 1 1 1H19c.55 0 1-.45 1-1s-.45-1-1-1zm0 7.67H9.26c-.55 0-1 .45-1 1s.45 1 1 1H19c.55 0 1-.45 1-1s-.45-1-1-1zm-18.62.82c0 1.4 1.14 2.54 2.54 2.54s2.54-1.14 2.54-2.54c0-1.4-1.14-2.54-2.54-2.54-1.4 0-2.54 1.14-2.54 2.54zm3.08 0c0 .3-.24.54-.54.54s-.54-.24-.54-.54c0-.3.24-.54.54-.54.3 0 .54.24.54.54z"/></svg>