<?xml version="1.0" encoding="utf-8"?>
<!-- Generator: Adobe Illustrator 19.2.1, SVG Export Plug-In . SVG Version: 6.00 Build 0)  -->
<svg version="1.1" id="Calque_1" xmlns="http://www.w3.org/2000/svg" xmlns:xlink="http://www.w3.org/1999/xlink" x="0px" y="0px"
	 viewBox="0 0 20 20" enable-background="new 0 0 20 20" xml:space="preserve">
<path fill="#3A434C" d="M0.31,2.84l1.66,1.59c0.19,0.18,0.45,0.28,0.72,0.28s0.52-0.12,0.7-0.31l2.57-2.71
	c0.38-0.4,0.36-1.03-0.04-1.41C5.52-0.11,4.88-0.09,4.5,0.31L2.63,2.29L1.69,1.4c-0.4-0.38-1.03-0.37-1.41,0.03
	S-0.09,2.46,0.31,2.84z"/>
<path fill="#3A434C" d="M19,1.36H9.26c-0.55,0-1,0.45-1,1s0.45,1,1,1H19c0.55,0,1-0.45,1-1S19.55,1.36,19,1.36z"/>
<path fill="#3A434C" d="M0.31,10.46L0.31,10.46l1.66,1.59c0.19,0.18,0.45,0.28,0.72,0.28c0.27-0.01,0.52-0.12,0.7-0.31L5.95,9.3
	c0.38-0.4,0.36-1.03-0.04-1.41C5.52,7.51,4.88,7.53,4.5,7.93L2.63,9.91l-0.94-0.9c-0.4-0.38-1.03-0.37-1.41,0.03
	S-0.09,10.08,0.31,10.46z"/>
<path fill="#3A434C" d="M19,8.97H9.26c-0.55,0-1,0.45-1,1s0.45,1,1,1H19c0.55,0,1-0.45,1-1S19.55,8.97,19,8.97z"/>
<path fill="#3A434C" d="M19,16.64H9.26c-0.55,0-1,0.45-1,1s0.45,1,1,1H19c0.55,0,1-0.45,1-1S19.55,16.64,19,16.64z"/>
<path fill="#3A434C" d="M0.38,17.46c0,1.4,1.14,2.54,2.54,2.54s2.54-1.14,2.54-2.54c0-1.4-1.14-2.54-2.54-2.54
	C1.52,14.92,0.38,16.06,0.38,17.46z M3.46,17.46c0,0.3-0.24,0.54-0.54,0.54s-0.54-0.24-0.54-0.54c0-0.3,0.24-0.54,0.54-0.54
	C3.22,16.92,3.46,17.16,3.46,17.46z"/>
</svg>
