<?xml version="1.0" encoding="UTF-8" standalone="no"?>
<svg width="19px" height="20px" viewBox="0 0 19 20" version="1.1" xmlns="http://www.w3.org/2000/svg" xmlns:xlink="http://www.w3.org/1999/xlink" xmlns:sketch="http://www.bohemiancoding.com/sketch/ns">
    <!-- Generator: Sketch 3.4.2 (15857) - http://www.bohemiancoding.com/sketch -->
    <title>openedEye</title>
    <desc>Created with Sketch.</desc>
    <defs></defs>
    <g id="Page-1" stroke="none" stroke-width="1" fill="none" fill-rule="evenodd" sketch:type="MSPage">
        <g id="openedEye" sketch:type="MSArtboardGroup" transform="translate(-6.000000, -6.000000)" fill="#3A434C">
            <path d="M15.4998,20.6 C12.0448,20.6 8.9718,18.625 7.5228,15.523 C8.9718,12.421 12.0448,10.446 15.4998,10.446 C18.9548,10.446 22.0278,12.421 23.4768,15.523 C22.0278,18.625 18.9548,20.6 15.4998,20.6 M15.4998,9.046 C11.1818,9.046 7.4938,11.732 5.9998,15.523 C7.4938,19.314 11.1818,22 15.4998,22 C19.8228,22 23.5058,19.314 24.9998,15.523 C23.5058,11.732 19.8228,9.046 15.4998,9.046 M15.5,13.5228 C14.397,13.5228 13.5,14.4198 13.5,15.5228 C13.5,16.6258 14.397,17.5228 15.5,17.5228 C16.603,17.5228 17.5,16.6258 17.5,15.5228 C17.5,14.4198 16.603,13.5228 15.5,13.5228" id="Fill-3" sketch:type="MSShapeGroup"></path>
        </g>
    </g>
</svg>