<?xml version="1.0" encoding="utf-8"?>
<!-- Generator: Adobe Illustrator 19.1.0, SVG Export Plug-In . SVG Version: 6.00 Build 0)  -->
<svg version="1.1" id="Calque_1" xmlns="http://www.w3.org/2000/svg" xmlns:xlink="http://www.w3.org/1999/xlink" x="0px" y="0px"
	 viewBox="0 0 20 20" enable-background="new 0 0 20 20" xml:space="preserve">
<path fill="none" d="M10,5.18c-3.35,0-6.33,1.87-7.81,4.82c1.48,2.95,4.47,4.82,7.81,4.82c3.35,0,6.33-1.87,7.81-4.82
	C16.33,7.05,13.35,5.18,10,5.18z M10,12c-1.1,0-2-0.9-2-2s0.9-2,2-2s2,0.9,2,2S11.1,12,10,12z"/>
<circle fill="#3A434C" cx="10" cy="10" r="2"/>
<path fill="#3A434C" d="M10,3.18C5.45,3.18,1.57,6.01,0,10c1.57,3.99,5.45,6.82,10,6.82c4.55,0,8.43-2.83,10-6.82
	C18.43,6.01,14.55,3.18,10,3.18z M10,14.82c-3.35,0-6.33-1.87-7.81-4.82C3.67,7.05,6.65,5.18,10,5.18c3.35,0,6.33,1.87,7.81,4.82
	C16.33,12.95,13.35,14.82,10,14.82z"/>
</svg>
