<?xml version="1.0" encoding="utf-8"?>
<!-- Generator: Adobe Illustrator 19.1.0, SVG Export Plug-In . SVG Version: 6.00 Build 0)  -->
<svg version="1.1" baseProfile="tiny" id="Calque_1"
	 xmlns="http://www.w3.org/2000/svg" xmlns:xlink="http://www.w3.org/1999/xlink" x="0px" y="0px" width="20px" height="20px"
	 viewBox="0 0 20 20" xml:space="preserve">
<g>
	<path fill="none" d="M10,0.7c-5.13,0-9.3,4.17-9.3,9.3s4.17,9.3,9.3,9.3s9.3-4.17,9.3-9.3S15.13,0.7,10,0.7z M7.01,10.81
		c-0.44,0-0.8-0.36-0.8-0.8s0.36-0.8,0.8-0.8s0.8,0.36,0.8,0.8S7.45,10.81,7.01,10.81z M10.01,10.81c-0.44,0-0.8-0.36-0.8-0.8
		s0.36-0.8,0.8-0.8s0.8,0.36,0.8,0.8S10.45,10.81,10.01,10.81z M13.01,10.81c-0.44,0-0.8-0.36-0.8-0.8s0.36-0.8,0.8-0.8
		s0.8,0.36,0.8,0.8S13.45,10.81,13.01,10.81z"/>
	<path fill="#3A434C" d="M10,0C4.48,0,0,4.48,0,10s4.48,10,10,10s10-4.48,10-10S15.52,0,10,0z M10,19.3c-5.13,0-9.3-4.17-9.3-9.3
		S4.87,0.7,10,0.7s9.3,4.17,9.3,9.3S15.13,19.3,10,19.3z"/>
	<circle fill="#3B444D" cx="10.01" cy="10.01" r="0.8"/>
	<circle fill="#3B444D" cx="7.01" cy="10.01" r="0.8"/>
	<circle fill="#3B444D" cx="13.01" cy="10.01" r="0.8"/>
</g>
</svg>
