<?xml version="1.0" encoding="utf-8"?>
<!-- Generator: Adobe Illustrator 19.2.0, SVG Export Plug-In . SVG Version: 6.00 Build 0)  -->
<svg version="1.1" id="Calque_1" xmlns:sketch="http://www.bohemiancoding.com/sketch/ns"
	 xmlns="http://www.w3.org/2000/svg" xmlns:xlink="http://www.w3.org/1999/xlink" x="0px" y="0px" viewBox="0 0 20 20"
	 style="enable-background:new 0 0 20 20;" xml:space="preserve">
<g id="Page-1" sketch:type="MSPage">
	<path sketch:type="MSShapeGroup" d="M2,12c1.1,0,2-0.9,2-2S3.1,8,2,8s-2,0.9-2,2S0.9,12,2,12z M18,12c1.1,0,2-0.9,2-2
		s-0.9-2-2-2s-2,0.9-2,2S16.9,12,18,12z M10,12c1.1,0,2-0.9,2-2s-0.9-2-2-2s-2,0.9-2,2S8.9,12,10,12z"/>
</g>
</svg>
