<?xml version="1.0" encoding="utf-8"?>
<!-- Generator: Adobe Illustrator 19.2.1, SVG Export Plug-In . SVG Version: 6.00 Build 0)  -->
<svg version="1.1" id="Calque_1" xmlns="http://www.w3.org/2000/svg" xmlns:xlink="http://www.w3.org/1999/xlink" x="0px" y="0px"
	 viewBox="0 0 20 20" style="enable-background:new 0 0 20 20;" xml:space="preserve">
<style type="text/css">
	.st0{fill:#3A434C;}
</style>
<path class="st0" d="M14,20c0.6,0,1-0.5,1-1V2h2.3c0.5,0,1-0.5,1-1s-0.5-1-1-1H8.6h0L7.7,0l0,0c-3.3,0-6,2.7-6,6.1
	c0,3.4,2.7,6.1,6.1,6.1h1.4V19c0,0.5,0.4,1,1,1s1-0.5,1-1V2H13v17C13,19.5,13.4,20,14,20z M9.1,10.2H7.8c-1.1,0-2.2-0.5-2.9-1.2
	S3.7,7.2,3.7,6.1S4.2,4,4.9,3.2S6.7,2,7.8,2h0l0.8,0h0.5C9.1,2,9.1,10.2,9.1,10.2z"/>
</svg>
