<?xml version="1.0" encoding="utf-8"?>
<!-- Generator: Adobe Illustrator 19.1.0, SVG Export Plug-In . SVG Version: 6.00 Build 0)  -->
<svg version="1.1" id="Calque_1" xmlns="http://www.w3.org/2000/svg" xmlns:xlink="http://www.w3.org/1999/xlink" x="0px" y="0px"
	 viewBox="0 0 20 20" enable-background="new 0 0 20 20" xml:space="preserve">
<path fill="none" d="M7.81,2.03l-0.03,0c-1.13,0-2.15,0.46-2.89,1.2c-0.74,0.74-1.2,1.76-1.2,2.89c0,1.13,0.46,2.15,1.2,2.89
	c0.74,0.74,1.76,1.2,2.89,1.2h1.36V2H8.62L7.81,2.03z"/>
<path fill="#3A434C" d="M13.99,20c0.55,0,1-0.45,1-1V2h2.32c0.55,0,1-0.45,1-1c0-0.55-0.45-1-1-1h-8.7L8.57,0L7.74,0.03l0,0
	C4.4,0.05,1.69,2.76,1.69,6.11c0,3.36,2.72,6.09,6.09,6.09h1.36V19c0,0.55,0.45,1,1,1c0.55,0,1-0.45,1-1V2h1.85v17
	C12.99,19.55,13.44,20,13.99,20z M9.14,10.2H7.78c-1.13,0-2.15-0.46-2.89-1.2c-0.74-0.74-1.2-1.76-1.2-2.89
	c0-1.13,0.46-2.15,1.2-2.89c0.74-0.74,1.76-1.2,2.89-1.2l0.03,0L8.62,2h0.52V10.2z"/>
</svg>
