<svg viewBox="0 0 20 20"><path d="M10 4.2c-2.2 0-4 1.8-4 4s1.8 4 4 4 4-1.8 4-4-1.8-4-4-4zm0 5.9c-1.1 0-2-.9-2-2s.9-1.9 2-2c1.1 0 1.9.9 2 2 0 1.1-.9 2-2 2z"/><path d="M10 0C4.5 0 0 4.5 0 10s4.5 10 10 10 10-4.5 10-10S15.5 0 10 0zM5.3 16.5l.4-.4c.5-.3 1.3-.6 2.1-.8S9.5 15 10 15c.7 0 1.9.2 2.9.5.5.2 1 .4 1.3.6.2.1.3.2.4.3-1.3 1-2.9 1.6-4.6 1.6s-3.3-.6-4.7-1.5zm10.8-1.4c-.2-.2-.5-.5-.8-.7-.8-.5-1.8-.9-2.7-1.1-.9-.1-1.8-.3-2.6-.3-1 0-2.3.2-3.5.6-.6.2-1.2.5-1.8.8-.3.2-.6.4-.8.7C2.7 13.7 2 11.9 2 10c0-2.2.9-4.2 2.3-5.7S7.8 2 10 2s4.2.9 5.7 2.3S18 7.8 18 10c0 2-.7 3.8-1.9 5.1z"/></svg>