<?xml version="1.0" encoding="utf-8"?>
<!-- Generator: Adobe Illustrator 19.2.1, SVG Export Plug-In . SVG Version: 6.00 Build 0)  -->
<svg version="1.1" id="Calque_1" xmlns="http://www.w3.org/2000/svg" xmlns:xlink="http://www.w3.org/1999/xlink" x="0px" y="0px"
	 viewBox="0 0 20 20" enable-background="new 0 0 20 20" xml:space="preserve">
<path fill="#3A434C" d="M10,4.17c-2.19,0-3.96,1.77-3.96,3.96s1.77,3.96,3.96,3.96s3.96-1.77,3.96-3.96S12.19,4.17,10,4.17z
	 M10,10.08c-1.08,0-1.95-0.88-1.96-1.96c0-1.08,0.88-1.95,1.96-1.96c1.08,0,1.95,0.88,1.96,1.96C11.95,9.21,11.08,10.08,10,10.08z"
	/>
<path fill="#3A434C" d="M10,0C4.48,0,0,4.48,0,10s4.48,10,10,10s10-4.48,10-10S15.52,0,10,0z M5.35,16.5
	c0.11-0.11,0.25-0.23,0.44-0.35c0.52-0.34,1.3-0.63,2.09-0.83s1.59-0.29,2.13-0.29c0.73,0,1.92,0.18,2.93,0.52
	c0.51,0.17,0.97,0.38,1.31,0.61c0.18,0.11,0.32,0.23,0.42,0.34C13.34,17.44,11.74,18,10,18S6.66,17.44,5.35,16.5z M16.12,15.14
	c-0.24-0.25-0.51-0.47-0.79-0.66c-0.8-0.52-1.76-0.87-2.7-1.1c-0.95-0.23-1.87-0.35-2.63-0.35c-1,0-2.3,0.21-3.54,0.62
	c-0.62,0.21-1.22,0.47-1.75,0.81c-0.3,0.19-0.58,0.42-0.83,0.68C2.71,13.75,2,11.96,2,10c0-2.21,0.89-4.21,2.34-5.66S7.79,2,10,2
	s4.21,0.89,5.66,2.34S18,7.79,18,10C18,11.96,17.29,13.75,16.12,15.14z"/>
</svg>
