<?xml version="1.0" encoding="utf-8"?>
<!-- Generator: Adobe Illustrator 19.1.0, SVG Export Plug-In . SVG Version: 6.00 Build 0)  -->
<svg version="1.1" id="Calque_1" xmlns="http://www.w3.org/2000/svg" xmlns:xlink="http://www.w3.org/1999/xlink" x="0px" y="0px"
	 viewBox="0 0 20 20" enable-background="new 0 0 20 20" xml:space="preserve">
<path fill="#3A434C" d="M16.17-0.01H12.5c-0.73,0-1.32,0.59-1.32,1.32v17.36c0,0.73,0.59,1.32,1.32,1.32h3.36
	c0.73,0,1.32-0.59,1.32-1.32V0.99c0-0.26-0.11-0.52-0.29-0.71C16.7,0.09,16.44-0.01,16.17-0.01z"/>
<path fill="#3A434C" d="M7.83-0.01H4.08c-0.69,0-1.25,0.56-1.25,1.25v17.5c0,0.69,0.56,1.25,1.25,1.25h3.5
	c0.69,0,1.25-0.56,1.25-1.25V0.99c0-0.26-0.11-0.52-0.29-0.71S8.09-0.01,7.83-0.01z"/>
</svg>
