<?xml version="1.0" encoding="UTF-8" standalone="no"?>
<svg width="20px" height="20px" viewBox="0 0 20 20" version="1.1" xmlns="http://www.w3.org/2000/svg" xmlns:xlink="http://www.w3.org/1999/xlink" xmlns:sketch="http://www.bohemiancoding.com/sketch/ns">
    <!-- Generator: Sketch 3.4.2 (15857) - http://www.bohemiancoding.com/sketch -->
    <title>pause</title>
    <desc>Created with Sketch.</desc>
    <defs></defs>
    <g id="Page-1" stroke="none" stroke-width="1" fill="none" fill-rule="evenodd" sketch:type="MSPage">
        <g id="pause" sketch:type="MSArtboardGroup" transform="translate(-6.000000, -6.000000)" fill="#3A434C">
            <path d="M7.10819355,6 C6.49615515,6 6,6.49438477 6,7.1037752 L6,24.8962248 C6,25.505823 6.49550846,26 7.10819355,26 L13.6418065,26 C14.2538448,26 14.75,25.5056152 14.75,24.8962248 L14.75,7.1037752 C14.75,6.49417699 14.2544915,6 13.6418065,6 L7.10819355,6 L7.10819355,6 Z M18.3581935,6 C17.7461552,6 17.25,6.49438477 17.25,7.1037752 L17.25,24.8962248 C17.25,25.505823 17.7455085,26 18.3581935,26 L24.8918065,26 C25.5038448,26 26,25.5056152 26,24.8962248 L26,7.1037752 C26,6.49417699 25.5044915,6 24.8918065,6 L18.3581935,6 L18.3581935,6 Z" sketch:type="MSShapeGroup"></path>
        </g>
    </g>
</svg>