<?xml version="1.0" encoding="utf-8"?>
<!-- Generator: Adobe Illustrator 19.2.1, SVG Export Plug-In . SVG Version: 6.00 Build 0)  -->
<svg version="1.1" id="Calque_1" xmlns="http://www.w3.org/2000/svg" xmlns:xlink="http://www.w3.org/1999/xlink" x="0px" y="0px"
	 viewBox="0 0 20 20" enable-background="new 0 0 20 20" xml:space="preserve">
<path fill="#3A434C" d="M10,20c5.52,0,10-4.48,10-10S15.52,0,10,0S0,4.48,0,10S4.48,20,10,20z M5.78,9.15
	c0.38-0.4,1.01-0.42,1.41-0.04l1.83,1.74l3.77-3.81c0.39-0.39,1.02-0.39,1.41-0.01c0.39,0.39,0.39,1.02,0.01,1.41l-4.46,4.5
	c-0.38,0.39-1.01,0.39-1.4,0.02l-2.54-2.41l0,0C5.41,10.19,5.39,9.55,5.78,9.15z"/>
</svg>
