<?xml version="1.0" encoding="utf-8"?>
<!-- Generator: Adobe Illustrator 19.2.1, SVG Export Plug-In . SVG Version: 6.00 Build 0)  -->
<svg version="1.1" id="Calque_1" xmlns="http://www.w3.org/2000/svg" xmlns:xlink="http://www.w3.org/1999/xlink" x="0px" y="0px"
	 viewBox="0 0 20 20" enable-background="new 0 0 20 20" xml:space="preserve">
<path fill="#3A434C" d="M10,20c5.52,0,10-4.48,10-10c0-5.52-4.48-10-10-10S0,4.48,0,10C0,15.52,4.48,20,10,20z M6,9h3V6
	c0-0.55,0.45-1,1-1s1,0.45,1,1v3h3c0.55,0,1,0.45,1,1c0,0.55-0.45,1-1,1h-3v3c0,0.55-0.45,1-1,1s-1-0.45-1-1v-3H6
	c-0.55,0-1-0.45-1-1C5,9.45,5.45,9,6,9z"/>
</svg>
