<?xml version="1.0" encoding="utf-8"?>
<!-- Generator: Adobe Illustrator 19.2.1, SVG Export Plug-In . SVG Version: 6.00 Build 0)  -->
<svg version="1.1" id="Calque_1" xmlns="http://www.w3.org/2000/svg" xmlns:xlink="http://www.w3.org/1999/xlink" x="0px" y="0px"
	 viewBox="0 0 20 20" enable-background="new 0 0 20 20" xml:space="preserve">
<path fill="#3A434C" d="M10.08-0.01c-5.52,0-10,4.48-10,10s4.48,10,10,10s10-4.48,10-10C20.08,4.46,15.61-0.01,10.08-0.01z
	 M13.62,12.11c0.39,0.39,0.39,1.02,0,1.41s-1.02,0.39-1.41,0l-2.12-2.12l-2.12,2.12c-0.39,0.39-1.02,0.39-1.41,0s-0.39-1.02,0-1.41
	l2.12-2.12L6.55,7.86c-0.39-0.39-0.39-1.02,0-1.41s1.02-0.39,1.41,0l2.12,2.12l2.12-2.12c0.39-0.39,1.02-0.39,1.41,0
	s0.39,1.02,0,1.41L11.5,9.99L13.62,12.11z"/>
</svg>
