<?xml version="1.0" encoding="UTF-8" standalone="no"?>
<svg width="20px" height="20px" viewBox="0 0 20 20" version="1.1" xmlns="http://www.w3.org/2000/svg" xmlns:xlink="http://www.w3.org/1999/xlink" xmlns:sketch="http://www.bohemiancoding.com/sketch/ns">
    <!-- Generator: Sketch 3.4.2 (15857) - http://www.bohemiancoding.com/sketch -->
    <title>pencil</title>
    <desc>Created with Sketch.</desc>
    <defs></defs>
    <g id="Page-1" stroke="none" stroke-width="1" fill="none" fill-rule="evenodd" sketch:type="MSPage">
        <g id="pencil" sketch:type="MSArtboardGroup" transform="translate(-6.000000, -6.000000)" fill="#3A434C">
            <path d="M14.6343633,22.2646634 L14.6343633,22.2633434 L21.332453,12.8076049 C21.6849146,12.3072943 21.8697259,11.7396596 21.8723661,11.1720248 C21.8763263,10.5476266 21.6241909,9.86382481 21.0301545,9.44271904 L17.1055544,6.66262897 C16.7583732,6.41577387 16.3478281,6.30488708 15.9623645,6.30752724 C15.1095923,6.31676781 14.3479057,6.77351575 13.8304341,7.49427984 L6.74292048,17.500492 L6.74292048,17.7935499 L6.735,25.7694779 L14.2555001,22.7992962 L14.6330432,22.2659835 L14.6343633,22.2646634 L14.6343633,22.2646634 Z M9.17450924,17.2641975 L13.7604698,10.7905215 L18.2461042,13.9679559 L13.6601437,20.4416319 L9.17450924,17.2641975 L9.17450924,17.2641975 Z M15.9623645,8.1556403 L16.0376091,8.17148127 L19.9608891,10.9502513 C19.9674895,10.9542115 20.0189727,10.9924939 20.0229329,11.1720248 C20.0255731,11.322514 19.9661694,11.5403274 19.8236007,11.7409796 L19.3140495,12.4591036 L14.8284151,9.28166919 L15.3379663,8.56222518 C15.5412587,8.26520701 15.8475175,8.14507966 15.9623645,8.1556403 L15.9623645,8.1556403 Z M8.58971346,19.1149508 L12.1565717,21.6415853 L8.58575322,23.0514316 L8.58971346,19.1149508 Z M22.8109435,24.0203709 L15.4607338,24.0203709 C14.9498626,24.0203709 14.5366773,24.4335561 14.5366773,24.9444274 C14.5366773,25.4552986 14.9498626,25.8684839 15.4607338,25.8684839 L22.8109435,25.8684839 C23.3218147,25.8684839 23.735,25.4552986 23.735,24.9444274 C23.735,24.4335561 23.3218147,24.0203709 22.8109435,24.0203709 Z" sketch:type="MSShapeGroup"></path>
        </g>
    </g>
</svg>