<?xml version="1.0" encoding="utf-8"?>
<!-- Generator: Adobe Illustrator 19.1.0, SVG Export Plug-In . SVG Version: 6.00 Build 0)  -->
<svg version="1.1" id="Calque_1" xmlns="http://www.w3.org/2000/svg" xmlns:xlink="http://www.w3.org/1999/xlink" x="0px" y="0px"
	 viewBox="0 0 20 20" enable-background="new 0 0 20 20" xml:space="preserve">
<rect x="4.18" y="6.79" transform="matrix(0.578 -0.816 0.816 0.578 -4.3311 10.6662)" fill="none" width="7.94" height="5.46"/>
<polygon fill="none" points="3,13.19 3,16.99 6.44,15.63 "/>
<path fill="none" d="M9.85,2.39L9.37,3.07l4.46,3.16l0.48-0.68C14.45,5.35,14.5,5.14,14.5,5l-0.03-0.16l-0.01-0.02l-3.99-2.82l0,0
	l0,0l-0.04,0C10.34,1.99,10.05,2.1,9.85,2.39z"/>
<path fill="#3A434C" d="M8.22,1.23l-7.03,9.93c-0.12,0.17-0.18,0.37-0.18,0.58L1,18.46c0,0.33,0.16,0.64,0.44,0.83
	c0.27,0.19,0.62,0.23,0.93,0.1l6.1-2.41c0.18-0.07,0.34-0.19,0.45-0.35l7.03-9.93C16.31,6.18,16.5,5.6,16.5,5
	c0-0.33-0.06-0.66-0.2-0.98c-0.14-0.31-0.37-0.61-0.68-0.83l-3.99-2.82l0,0C11.27,0.11,10.84,0,10.44,0
	C9.55,0.01,8.76,0.49,8.22,1.23z M8.08,14.34l-4.46-3.16L8.21,4.7l4.46,3.16L8.08,14.34z M3,13.19l3.44,2.43L3,16.99L3,13.19z
	 M10.48,2L10.48,2l3.99,2.82l0.01,0.02L14.5,5c0,0.14-0.05,0.35-0.19,0.54l-0.48,0.68L9.37,3.07l0.48-0.68
	c0.2-0.29,0.49-0.4,0.58-0.39L10.48,2L10.48,2z"/>
<path fill="#3A434C" d="M19,19c0-0.55-0.45-1-1-1H9.93c-0.55,0-1,0.45-1,1c0,0.55,0.45,1,1,1H18C18.55,20,19,19.55,19,19z"/>
</svg>
