<svg viewBox="0 0 20 20"><path d="M.3 2.5C.1 2.8 0 3.3 0 4c0 .8.2 2 .7 3.5C2 11 4.3 13.7 6.6 15.7c2.3 1.9 4.5 3.1 5.8 3.5 1.6.6 2.7.8 3.5.8.6 0 1.1-.1 1.5-.3.2-.1.4-.3.5-.4l1.8-1.6c.2-.2.3-.4.3-.7 0-.3-.1-.5-.3-.7l-3.5-3.6c-.4-.4-.9-.4-1.4-.1-.1.1-.6.5-1.1.8-.3.2-.5.3-.8.4-.1 0-.1.1-.2.1L6 7c0-.1.1-.2.1-.2.2-.3.5-.7.8-1 .1-.2.3-.3.3-.4l.1-.1c.2-.2.3-.4.3-.7s.1-.5-.1-.7L3.9.3c-.4-.4-1-.4-1.4 0L.7 1.9c-.1.1-.3.3-.4.6zm16.1 15.4zM3.2 2.4l2.2 2.2-.3.3c-.2.3-.5.6-.7 1-.2.2-.2.4-.3.6-.1.2-.2.4-.2.7 0 .2 0 .4.1.6.1.1.2.2.2.3l7.4 7.6c.1.1.2.2.3.2.2.1.4.1.6.1.5 0 .9-.2 1.3-.4.6-.3 1.1-.6 1.5-.9l2.2 2.2-1.1 1s-.2.1-.6.1c-.5 0-1.4-.1-2.8-.7-1-.4-3.1-1.4-5.2-3.2-2.1-1.8-4.2-4.2-5.2-7.3C2.1 5.4 2 4.5 2 4c0-.4.1-.5.1-.6l1.1-1z"/></svg>