<?xml version="1.0" encoding="utf-8"?>
<!-- Generator: Adobe Illustrator 19.1.0, SVG Export Plug-In . SVG Version: 6.00 Build 0)  -->
<svg version="1.1" id="Calque_1" xmlns="http://www.w3.org/2000/svg" xmlns:xlink="http://www.w3.org/1999/xlink" x="0px" y="0px"
	 viewBox="0 0 20 20" enable-background="new 0 0 20 20" xml:space="preserve">
<polygon fill="none" points="16.44,17.92 16.43,17.92 16.44,17.92 "/>
<path fill="none" d="M2,3.97C2,4.5,2.13,5.41,2.63,6.83c1.09,3.11,3.16,5.55,5.25,7.3c2.08,1.76,4.19,2.83,5.18,3.21
	c1.39,0.53,2.28,0.66,2.79,0.66c0.45,0,0.6-0.09,0.61-0.1l0.05-0.05l1.06-0.95l-2.17-2.2c-0.42,0.3-0.96,0.67-1.52,0.94
	c-0.39,0.18-0.76,0.34-1.28,0.35c-0.18,0-0.38-0.03-0.6-0.11c-0.12-0.05-0.24-0.13-0.33-0.22L4.25,8.1C4.16,8,4.09,7.89,4.04,7.77
	c-0.08-0.2-0.11-0.39-0.11-0.56C3.94,6.93,4,6.7,4.08,6.49c0.08-0.21,0.17-0.4,0.28-0.58c0.21-0.36,0.47-0.69,0.72-1
	c0.1-0.12,0.19-0.23,0.29-0.33l-2.18-2.2l-1.1,0.99C2.06,3.42,2,3.59,2,3.97z"/>
<path fill="#3A434C" d="M0.29,2.49C0.12,2.84,0,3.33,0,3.97c0,0.84,0.19,1.95,0.74,3.52c1.25,3.55,3.57,6.25,5.85,8.17
	c2.29,1.92,4.52,3.07,5.75,3.54c0,0,0,0,0,0c0,0,0,0,0,0v0C13.89,19.79,15,20,15.84,20c0.65,0,1.15-0.13,1.51-0.31
	c0.23-0.12,0.4-0.26,0.51-0.38l1.8-1.62c0.2-0.18,0.32-0.44,0.33-0.71c0.01-0.27-0.09-0.54-0.29-0.73l-3.52-3.58
	c-0.36-0.37-0.95-0.4-1.35-0.07l-0.02,0.01c-0.09,0.08-0.57,0.46-1.11,0.81c-0.26,0.17-0.54,0.34-0.77,0.44
	c-0.07,0.03-0.12,0.05-0.18,0.07L6.02,7.04C6.06,6.97,6.1,6.89,6.16,6.8C6.37,6.47,6.7,6.07,6.97,5.78
	c0.14-0.15,0.26-0.27,0.34-0.36l0.1-0.1l0.03-0.03c0.19-0.19,0.3-0.44,0.31-0.71s-0.1-0.53-0.29-0.72L3.93,0.3
	C3.56-0.08,2.95-0.1,2.55,0.26L0.71,1.92l0.01,0.01C0.59,2.03,0.42,2.2,0.29,2.49z M16.44,17.92L16.44,17.92L16.44,17.92
	L16.44,17.92z M3.18,2.38l2.18,2.2C5.27,4.69,5.17,4.8,5.07,4.92c-0.25,0.3-0.5,0.64-0.72,1c-0.11,0.18-0.2,0.37-0.28,0.58
	C4,6.7,3.94,6.93,3.93,7.21c0,0.17,0.03,0.37,0.11,0.56C4.09,7.89,4.16,8,4.25,8.1l7.41,7.56c0.09,0.1,0.21,0.17,0.33,0.22
	c0.21,0.09,0.42,0.11,0.6,0.11c0.52-0.01,0.89-0.18,1.28-0.35c0.56-0.27,1.1-0.64,1.52-0.94l2.17,2.2l-1.06,0.95l-0.05,0.05
	c-0.01,0.01-0.16,0.1-0.61,0.1c-0.51,0-1.4-0.13-2.79-0.66c-0.99-0.37-3.1-1.45-5.18-3.21c-2.09-1.76-4.16-4.19-5.25-7.3
	C2.13,5.41,2,4.5,2,3.97c0-0.38,0.06-0.55,0.08-0.6L3.18,2.38z"/>
</svg>
