<?xml version="1.0" encoding="utf-8"?>
<!-- Generator: Adobe Illustrator 19.2.1, SVG Export Plug-In . SVG Version: 6.00 Build 0)  -->
<svg version="1.1" id="Calque_1" xmlns="http://www.w3.org/2000/svg" xmlns:xlink="http://www.w3.org/1999/xlink" x="0px" y="0px"
	 viewBox="0 0 20 20" style="enable-background:new 0 0 20 20;" xml:space="preserve">
<style type="text/css">
	.st0{fill:#3A434C;}
</style>
<path class="st0" d="M0.3,2.5C0.1,2.8,0,3.3,0,4c0,0.8,0.2,2,0.7,3.5C2,11,4.3,13.7,6.6,15.7c2.3,1.9,4.5,3.1,5.8,3.5l0,0l0,0l0,0
	c1.6,0.6,2.7,0.8,3.5,0.8c0.6,0,1.1-0.1,1.5-0.3c0.2-0.1,0.4-0.3,0.5-0.4l1.8-1.6c0.2-0.2,0.3-0.4,0.3-0.7c0-0.3-0.1-0.5-0.3-0.7
	l-3.5-3.6c-0.4-0.4-0.9-0.4-1.4-0.1l0,0c-0.1,0.1-0.6,0.5-1.1,0.8c-0.3,0.2-0.5,0.3-0.8,0.4c-0.1,0-0.1,0.1-0.2,0.1L6,7
	c0-0.1,0.1-0.2,0.1-0.2c0.2-0.3,0.5-0.7,0.8-1c0.1-0.2,0.3-0.3,0.3-0.4l0.1-0.1l0,0c0.2-0.2,0.3-0.4,0.3-0.7S7.7,4.1,7.5,3.9
	L3.9,0.3c-0.4-0.4-1-0.4-1.4,0L0.7,1.9l0,0C0.6,2,0.4,2.2,0.3,2.5z M16.4,17.9L16.4,17.9L16.4,17.9L16.4,17.9z M3.2,2.4l2.2,2.2
	C5.3,4.7,5.2,4.8,5.1,4.9c-0.2,0.3-0.5,0.6-0.7,1C4.2,6.1,4.2,6.3,4.1,6.5C4,6.7,3.9,6.9,3.9,7.2c0,0.2,0,0.4,0.1,0.6
	C4.1,7.9,4.2,8,4.2,8.1l7.4,7.6c0.1,0.1,0.2,0.2,0.3,0.2c0.2,0.1,0.4,0.1,0.6,0.1c0.5,0,0.9-0.2,1.3-0.4c0.6-0.3,1.1-0.6,1.5-0.9
	l2.2,2.2l-1.1,1l0,0c0,0-0.2,0.1-0.6,0.1c-0.5,0-1.4-0.1-2.8-0.7c-1-0.4-3.1-1.4-5.2-3.2c-2.1-1.8-4.2-4.2-5.2-7.3
	C2.1,5.4,2,4.5,2,4c0-0.4,0.1-0.5,0.1-0.6L3.2,2.4z"/>
</svg>
