<?xml version="1.0" encoding="utf-8"?>
<!-- Generator: Adobe Illustrator 19.2.1, SVG Export Plug-In . SVG Version: 6.00 Build 0)  -->
<svg version="1.1" id="Calque_1" xmlns="http://www.w3.org/2000/svg" xmlns:xlink="http://www.w3.org/1999/xlink" x="0px" y="0px"
	 viewBox="0 0 20 20" style="enable-background:new 0 0 20 20;" xml:space="preserve">
<style type="text/css">
	.st0{fill:#3A434C;}
</style>
<path class="st0" d="M3.3,20h13.4c1.3,0,2.3-1,2.3-2.3V2.3C19,1,18,0,16.7,0H3.3C2,0,1,1,1,2.3v15.4C1,19,2,20,3.3,20z M16.9,17.9
	L16.7,18H3.3l-0.2-0.1L3,17.7V12c0,0,0,0,0,0l3.3-2.7l2.5,2.4c0.4,0.4,0.9,0.4,1.3,0.1l3.8-3.1l2.9,3.4c0,0.1,0.1,0.1,0.1,0.1v5.5
	L16.9,17.9z M3.1,2.1L3.3,2h13.4l0.2,0.1L17,2.3v7l-2.2-2.5c-0.4-0.4-1-0.5-1.4-0.1L9.6,9.8L7.1,7.3C6.8,7,6.2,6.9,5.8,7.2L3,9.5
	V2.3L3.1,2.1z"/>
<circle class="st0" cx="11.6" cy="5" r="1"/>
</svg>
