<?xml version="1.0" encoding="utf-8"?>
<!-- Generator: Adobe Illustrator 19.1.0, SVG Export Plug-In . SVG Version: 6.00 Build 0)  -->
<svg version="1.1" id="Calque_1" xmlns="http://www.w3.org/2000/svg" xmlns:xlink="http://www.w3.org/1999/xlink" x="0px" y="0px"
	 viewBox="0 0 20 20" enable-background="new 0 0 20 20" xml:space="preserve">
<path fill="none" d="M5.8,7.25c0.4-0.32,0.96-0.28,1.32,0.07L9.6,9.76l3.81-3.13c0.42-0.34,1.04-0.29,1.39,0.12L17,9.27V2.28
	l-0.08-0.2L16.72,2H3.28l-0.2,0.08L3,2.28v7.19L5.8,7.25z M11.55,4.05c0.54,0,0.97,0.44,0.97,0.97s-0.44,0.97-0.97,0.97
	s-0.97-0.44-0.97-0.97S11.01,4.05,11.55,4.05z"/>
<path fill="none" d="M16.86,12.16l-2.94-3.37l-3.75,3.09c-0.4,0.33-0.97,0.3-1.34-0.06L6.35,9.36l-3.34,2.66c0,0,0,0-0.01,0v5.7
	l0.08,0.2L3.28,18h13.44l0.2-0.08l0.08-0.2v-5.46C16.95,12.23,16.9,12.2,16.86,12.16z"/>
<path fill="#3A434C" d="M3.28,20h13.44c1.26,0,2.28-1.02,2.28-2.28V2.28C19,1.02,17.98,0,16.72,0H3.28C2.02,0,1,1.02,1,2.28v15.44
	C1,18.98,2.02,20,3.28,20z M16.92,17.92L16.72,18H3.28l-0.2-0.08L3,17.72v-5.7c0,0,0,0,0.01,0l3.34-2.66l2.48,2.45
	c0.36,0.36,0.94,0.39,1.34,0.06l3.75-3.09l2.94,3.37c0.04,0.05,0.09,0.07,0.14,0.11v5.46L16.92,17.92z M3.08,2.08L3.28,2h13.44
	l0.2,0.08L17,2.28v6.99l-2.21-2.53c-0.35-0.41-0.97-0.46-1.39-0.12L9.6,9.76L7.13,7.32C6.77,6.96,6.2,6.93,5.8,7.25L3,9.47V2.28
	L3.08,2.08z"/>
<circle fill="#3A434C" cx="11.55" cy="5.02" r="0.97"/>
</svg>
