<?xml version="1.0" encoding="utf-8"?>
<!-- Generator: Adobe Illustrator 19.2.1, SVG Export Plug-In . SVG Version: 6.00 Build 0)  -->
<svg version="1.1" id="Calque_1" xmlns="http://www.w3.org/2000/svg" xmlns:xlink="http://www.w3.org/1999/xlink" x="0px" y="0px"
	 viewBox="0 0 20 20" style="enable-background:new 0 0 20 20;" xml:space="preserve">
<style type="text/css">
	.st0{fill:#3A434C;}
</style>
<path class="st0" d="M8.6,3L8.6,3L8.6,3C3.8,3,0,6.8,0,11.5C0,16.2,3.8,20,8.5,20c4.7,0,8.4-3.8,8.5-8.4c0-0.3-0.1-0.5-0.3-0.7
	s-0.4-0.3-0.7-0.3H9.5V4C9.5,3.5,9.1,3,8.6,3z M8.5,18c-1.8,0-3.4-0.7-4.6-1.9C2.7,14.9,2,13.3,2,11.5s0.7-3.4,1.9-4.6
	c1-1,2.2-1.6,3.6-1.8v6.5c0,0.3,0.1,0.5,0.3,0.7c0.2,0.2,0.4,0.3,0.7,0.3h6.4C14.4,15.6,11.7,18,8.5,18z"/>
<path class="st0" d="M11.6,0c-0.3,0-0.5,0.1-0.7,0.3S10.6,0.7,10.6,1v7.6c0,0.3,0.1,0.5,0.3,0.7c0.2,0.2,0.4,0.3,0.7,0.3H19
	c0.5,0,1-0.4,1-0.9V8.5V8.5C20,3.8,16.2,0,11.6,0z M12.6,2.1c2.8,0.5,5,2.7,5.4,5.5h-5.4V2.1z"/>
</svg>
