<?xml version="1.0" encoding="utf-8"?>
<!-- Generator: Adobe Illustrator 19.1.0, SVG Export Plug-In . SVG Version: 6.00 Build 0)  -->
<svg version="1.1" id="Calque_1" xmlns="http://www.w3.org/2000/svg" xmlns:xlink="http://www.w3.org/1999/xlink" x="0px" y="0px"
	 viewBox="0 0 20 20" enable-background="new 0 0 20 20" xml:space="preserve">
<path fill="none" d="M8.53,12.56c-0.26,0-0.52-0.11-0.71-0.29c-0.19-0.19-0.29-0.44-0.29-0.71V5.09C6.13,5.3,4.87,5.95,3.9,6.91
	C2.73,8.09,2,9.71,2,11.5c0,1.8,0.73,3.41,1.9,4.59C5.08,17.27,6.7,18,8.49,18c3.22,0,5.89-2.35,6.4-5.44H8.53z"/>
<path fill="none" d="M12.55,2.09v5.46h5.38C17.52,4.76,15.33,2.54,12.55,2.09z"/>
<path fill="#3A434C" d="M8.59,3.01l-0.04,0l-0.05,0C3.8,3.01,0,6.81,0,11.5C0,16.2,3.8,20,8.49,20c4.67,0,8.45-3.77,8.49-8.43
	c0-0.27-0.1-0.52-0.29-0.71c-0.19-0.19-0.44-0.3-0.71-0.3H9.53V4.01C9.53,3.48,9.12,3.04,8.59,3.01z M8.49,18
	c-1.8,0-3.41-0.73-4.59-1.9C2.73,14.92,2,13.3,2,11.5c0-1.8,0.73-3.41,1.9-4.59C4.87,5.95,6.13,5.3,7.53,5.09v6.48
	c0,0.26,0.11,0.52,0.29,0.71c0.19,0.19,0.44,0.29,0.71,0.29h6.36C14.39,15.65,11.72,18,8.49,18z"/>
<path fill="#3A434C" d="M11.55,0c-0.27,0-0.52,0.1-0.71,0.29C10.65,0.48,10.55,0.73,10.55,1v7.55c0,0.26,0.11,0.52,0.29,0.71
	c0.19,0.19,0.44,0.29,0.71,0.29H19c0.53,0,0.97-0.42,1-0.95l0-0.06l0-0.05C20,3.82,16.22,0.03,11.55,0z M12.55,2.09
	c2.79,0.45,4.97,2.66,5.38,5.46h-5.38V2.09z"/>
</svg>
