<?xml version="1.0" encoding="utf-8"?>
<svg version="1.1" id="Calque_1" xmlns="http://www.w3.org/2000/svg" xmlns:xlink="http://www.w3.org/1999/xlink" x="0px" y="0px"
	 viewBox="0 0 20 20" style="enable-background:new 0 0 20 20;" xml:space="preserve">
<path fill="#3A434C" d="M18.5,8.2c0-0.4,0-0.8-0.1-1.2C17.8,3.1,14.2,0,10,0S2.2,3.1,1.6,7.1C1.6,7.4,1.5,7.8,1.5,8.3
	c0,0.3-0.1,0.6,0,0.9c0,0,0,0,0,0v0c0,0,0,0,0,0.1c0,0.3,0.3,0.6,0.6,0.6h6.7v9.1c0,0.6,0.5,1.1,1.2,1.1s1.2-0.5,1.2-1.2V9.8h6.7
	c0.3,0,0.5-0.2,0.6-0.5C18.6,8.9,18.5,8.6,18.5,8.2z M4,7.5c0-2.9,2.7-5.2,6-5.2s6,2.3,6,5.2H4z"/>
</svg>
