<svg viewBox="0 0 20 20"><path d="M14.849 1.045a1.788 1.788 0 0 0-2.513 0c-.48.48-.608 1.178-.417 1.79L8.038 5.118c-1.282-.389-2.559-.356-3.396.481a.666.666 0 0 0 0 .943l3.769 3.768-5.81 5.81c-.253.245-.259.703-.01.952s.707.243.952-.01l5.81-5.81 3.769 3.769c.26.26.681.26.942 0 .837-.837.87-2.114.48-3.396l2.282-3.881c.613.19 1.31.063 1.791-.417a1.788 1.788 0 0 0 0-2.513L14.85 1.045zm-.942.942l3.768 3.768a.43.43 0 0 1 0 .628.43.43 0 0 1-.628 0 .666.666 0 0 0-1.045.133l-2.748 4.672a.666.666 0 0 0-.054.564c.248.689.291 1.244.211 1.673L6.237 6.251c.429-.08.984-.037 1.673.211a.666.666 0 0 0 .565-.054l4.671-2.748a.666.666 0 0 0 .133-1.045.43.43 0 0 1 0-.628.43.43 0 0 1 .628 0z"/></svg>