<?xml version="1.0" encoding="utf-8"?>
<!-- Generator: Adobe Illustrator 19.1.0, SVG Export Plug-In . SVG Version: 6.00 Build 0)  -->
<svg version="1.1" id="Calque_1" xmlns="http://www.w3.org/2000/svg" xmlns:xlink="http://www.w3.org/1999/xlink" x="0px" y="0px"
	 viewBox="0 0 20 20" enable-background="new 0 0 20 20" xml:space="preserve">
<path fill="none" d="M13.32,5.84h-2.09c-1.33,0-2.53,0.49-3.39,1.26C6.98,7.87,6.49,8.89,6.48,10c0,1.11,0.5,2.13,1.35,2.9
	c0.85,0.77,2.05,1.26,3.39,1.26h2.09V5.84z"/>
<path fill="#3A434C" d="M18.99,8.87c0.55,0,1-0.45,1-1s-0.45-1-1-1h-3.67V4.84c0-0.26-0.11-0.52-0.29-0.71s-0.44-0.29-0.71-0.29
	h-3.09c-1.82,0-3.5,0.67-4.72,1.77C5.52,6.49,4.82,7.68,4.58,9.01H1.01c-0.55,0-1,0.45-1,1s0.45,1,1,1h3.57
	c0.24,1.32,0.94,2.5,1.92,3.38c1.23,1.1,2.9,1.77,4.72,1.77h3.09c0.26,0,0.52-0.11,0.71-0.29s0.29-0.44,0.29-0.71v-1.95h3.67
	c0.55,0,1-0.45,1-1c0-0.55-0.45-1-1-1h-3.67V8.87H18.99z M7.84,12.9c-0.85-0.77-1.35-1.79-1.35-2.9c0-1.11,0.5-2.13,1.35-2.9
	c0.85-0.77,2.05-1.26,3.39-1.26h2.09v8.32h-2.09C9.89,14.16,8.69,13.67,7.84,12.9z"/>
</svg>
