<?xml version="1.0" encoding="UTF-8" standalone="no"?>
<svg width="20px" height="20px" viewBox="0 0 20 20" version="1.1" xmlns="http://www.w3.org/2000/svg" xmlns:xlink="http://www.w3.org/1999/xlink" xmlns:sketch="http://www.bohemiancoding.com/sketch/ns">
    <!-- Generator: Sketch 3.4.4 (17249) - http://www.bohemiancoding.com/sketch -->
    <title>plus</title>
    <desc>Created with Sketch.</desc>
    <defs></defs>
    <g id="Page-1" stroke="none" stroke-width="1" fill="none" fill-rule="evenodd" sketch:type="MSPage">
        <g id="plus" sketch:type="MSArtboardGroup" transform="translate(-6.000000, -6.000000)" fill="#3A434C">
            <path d="M6,16 C6,16.67 6.56,17.25 7.25,17.25 L14.75,17.25 L14.75,24.75 C14.75,25.4225 15.31,26 16,26 C16.67,26 17.25,25.44 17.25,24.75 L17.25,17.25 L24.75,17.25 C25.4225,17.25 26,16.69 26,16 C26,15.33 25.44,14.75 24.75,14.75 L17.25,14.75 L17.25,7.25 C17.25,6.5775 16.69,6 16,6 C15.33,6 14.75,6.56 14.75,7.25 L14.75,14.75 L7.25,14.75 C6.5775,14.75 6,15.31 6,16" sketch:type="MSShapeGroup"></path>
        </g>
    </g>
</svg>