<?xml version="1.0" encoding="utf-8"?>
<!-- Generator: Adobe Illustrator 19.2.1, SVG Export Plug-In . SVG Version: 6.00 Build 0)  -->
<svg version="1.1" id="Calque_1" xmlns="http://www.w3.org/2000/svg" xmlns:xlink="http://www.w3.org/1999/xlink" x="0px" y="0px"
	 viewBox="0 0 20 20" style="enable-background:new 0 0 20 20;" xml:space="preserve">
<style type="text/css">
	.st0{fill:#3A434C;}
</style>
<path class="st0" d="M17.7,1H2.3C1,1,0,2,0,3.3v13.4C0,18,1,19,2.3,19h15.4c1.3,0,2.3-1,2.3-2.3V3.3C20,2,19,1,17.7,1z M17.9,16.9
	L17.7,17H2.3l-0.2-0.1L2,16.7V6h16v10.7L17.9,16.9z"/>
<path class="st0" d="M9.4,8.6H6.1c-0.6,0-1,0.4-1,1s0.4,1,1,1h0.9l-2.6,2.6c-0.4,0.4-0.4,1,0,1.4s1,0.4,1.4,0L8.4,12v0.9
	c0,0.6,0.4,1,1,1s1-0.4,1-1V9.6c0-0.3-0.1-0.5-0.3-0.7S9.6,8.6,9.4,8.6z"/>
</svg>
