<?xml version="1.0" encoding="utf-8"?>
<!-- Generator: Adobe Illustrator 19.1.0, SVG Export Plug-In . SVG Version: 6.00 Build 0)  -->
<svg version="1.1" id="Calque_1" xmlns="http://www.w3.org/2000/svg" xmlns:xlink="http://www.w3.org/1999/xlink" x="0px" y="0px"
	 viewBox="0 0 20 20" enable-background="new 0 0 20 20" xml:space="preserve">
<path fill="none" d="M2,6v10.72l0.08,0.2L2.28,17h15.44l0.2-0.08l0.08-0.2V6H2z M10.35,12.91c0,0.55-0.45,1-1,1c-0.55,0-1-0.45-1-1
	v-0.89L5.77,14.6c-0.39,0.39-1.02,0.39-1.41,0c-0.39-0.39-0.39-1.02,0-1.41l2.58-2.58H6.05c-0.55,0-1-0.45-1-1c0-0.55,0.45-1,1-1
	h3.31c0.26,0,0.52,0.11,0.71,0.29s0.29,0.44,0.29,0.71V12.91z"/>
<path fill="#3A434C" d="M17.72,1H2.28C1.02,1,0,2.02,0,3.28v13.44C0,17.98,1.02,19,2.28,19h15.44c1.26,0,2.28-1.02,2.28-2.28V3.28
	C20,2.02,18.98,1,17.72,1z M17.92,16.92L17.72,17H2.28l-0.2-0.08L2,16.72V6h16v10.72L17.92,16.92z"/>
<path fill="#3A434C" d="M9.35,8.61H6.05c-0.55,0-1,0.45-1,1c0,0.55,0.45,1,1,1h0.89l-2.58,2.58c-0.39,0.39-0.39,1.02,0,1.41
	c0.39,0.39,1.02,0.39,1.41,0l2.58-2.58v0.89c0,0.55,0.45,1,1,1c0.55,0,1-0.45,1-1V9.61c0-0.26-0.11-0.52-0.29-0.71
	S9.61,8.61,9.35,8.61z"/>
</svg>
