<svg width="20" height="20"><g fill="#1C1C1C" fill-rule="evenodd"><path d="M15.852 2H4.15A2.16 2.16 0 0 0 2 4.16v7.566a2.158 2.158 0 0 0 2.149 2.16h5.133v2.602H7.494a.753.753 0 0 0-.752.756c0 .417.336.756.752.756h5.079c.415 0 .752-.34.752-.756a.753.753 0 0 0-.752-.756h-1.788v-2.602h5.067A2.157 2.157 0 0 0 18 11.726V4.16A2.157 2.157 0 0 0 15.852 2zm0 10.374H4.15a.657.657 0 0 1-.646-.648V5.585h12.994v6.14a.655.655 0 0 1-.645.649z"/><path d="M13.243 8H6.757C6.339 8 6 8.447 6 9c0 .553.34 1 .757 1h6.486c.419 0 .757-.447.757-1 0-.553-.338-1-.757-1"/></g></svg>