<svg viewBox="0 0 20 20"><path d="M17 0H3C2 0 1.2.8 1.2 1.8v16.5c0 1 .8 1.8 1.8 1.8h10.6c.2 0 .4-.1.5-.2l4.2-4.2c.2-.1.4-.4.4-.6V1.8C18.8.8 17.9 0 17 0zM2.8 18.4l-.1-.2V1.8l.1-.2.2-.1h14l.2.1.1.2v12.5h-3.6c-.2 0-.4.1-.5.2-.1.1-.2.3-.2.5v3.5H3l-.2-.1z"/><path d="M13.6 11.7c.2 0 .4-.1.5-.2l.1-.1c.1-.1.2-.3.2-.5v-6c0-.2-.1-.4-.2-.5l-.1-.1c-.1-.3-.3-.4-.5-.4h-7c-.1 0-.3.1-.5.2l-.1.2c-.2.1-.2.3-.2.5v6c0 .2.1.4.2.5l.1.1c.1.1.3.2.5.2l7 .1zM7.3 6.1H13v4.1H7.3V6.1z"/><path d="M11.5 7.4H8.7c-.4 0-.7.4-.7.8s.3.8.8.8h2.8c.4 0 .8-.3.8-.8-.1-.4-.5-.8-.9-.8z"/></svg>