<?xml version="1.0" encoding="utf-8"?>
<!-- Generator: Adobe Illustrator 19.1.0, SVG Export Plug-In . SVG Version: 6.00 Build 0)  -->
<svg version="1.1" id="Calque_1" xmlns="http://www.w3.org/2000/svg" xmlns:xlink="http://www.w3.org/1999/xlink" x="0px" y="0px"
	 viewBox="0 0 20 20" enable-background="new 0 0 20 20" xml:space="preserve">
<path fill="none" d="M18,14.7V9.46h-6.33v5.25H18z M14.83,11.08c0.55,0,1,0.45,1,1c0,0.55-0.45,1-1,1c-0.55,0-1-0.45-1-1
	C13.83,11.53,14.28,11.08,14.83,11.08z"/>
<path fill="none" d="M16.01,6.47c0-0.32-0.13-0.61-0.35-0.83c-0.22-0.22-0.51-0.35-0.83-0.35c-0.32,0-0.61,0.13-0.83,0.35
	c-0.22,0.22-0.35,0.51-0.35,0.83v0.99h2.35V6.47z"/>
<path fill="#3A434C" d="M1.01,5.67h8.72c0.55,0,1-0.45,1-1c0-0.55-0.45-1-1-1H1.01c-0.55,0-1,0.45-1,1
	C0.01,5.23,0.46,5.67,1.01,5.67z"/>
<path fill="#3A434C" d="M7.07,11.34H1c-0.55,0-1,0.45-1,1c0,0.55,0.45,1,1,1h6.07c0.55,0,1-0.45,1-1
	C8.07,11.79,7.62,11.34,7.07,11.34z"/>
<path fill="#3A434C" d="M18.09,7.46h-0.09V6.47c0-1.75-1.42-3.17-3.17-3.17c-1.75,0-3.17,1.42-3.17,3.17v0.99h-0.09
	c-1.05,0-1.9,0.85-1.91,1.91v5.44c0,1.05,0.85,1.9,1.91,1.9h6.52c1.05,0,1.9-0.85,1.91-1.9V9.36C20,8.31,19.15,7.46,18.09,7.46z
	 M18,9.46v5.25h-6.33V9.46H18z M13.66,6.47c0-0.32,0.13-0.61,0.35-0.83c0.22-0.22,0.51-0.35,0.83-0.35c0.32,0,0.61,0.13,0.83,0.35
	c0.22,0.22,0.35,0.51,0.35,0.83v0.99h-2.35V6.47z"/>
<circle fill="#3A434C" cx="14.83" cy="12.08" r="1"/>
<path fill="#3A434C" d="M7.07,7.51H1c-0.55,0-1,0.45-1,1c0,0.55,0.45,1,1,1h6.07c0.55,0,1-0.45,1-1C8.07,7.95,7.62,7.51,7.07,7.51z"
	/>
</svg>
