<?xml version="1.0" encoding="utf-8"?>
<!-- Generator: Adobe Illustrator 19.2.1, SVG Export Plug-In . SVG Version: 6.00 Build 0)  -->
<svg version="1.1" id="Calque_1" xmlns="http://www.w3.org/2000/svg" xmlns:xlink="http://www.w3.org/1999/xlink" x="0px" y="0px"
	 viewBox="0 0 20 20" style="enable-background:new 0 0 20 20;" xml:space="preserve">
<style type="text/css">
	.st0{fill:#3A434C;}
</style>
<path class="st0" d="M1,5.7h8.7c0.6,0,1-0.4,1-1s-0.4-1-1-1H1c-0.6,0-1,0.4-1,1C0,5.2,0.5,5.7,1,5.7z"/>
<path class="st0" d="M7.1,11.3H1c-0.6,0-1,0.4-1,1s0.4,1,1,1h6.1c0.6,0,1-0.4,1-1S7.6,11.3,7.1,11.3z"/>
<path class="st0" d="M18.1,7.5L18.1,7.5l-0.1-1c0-1.8-1.4-3.2-3.2-3.2s-3.2,1.4-3.2,3.2v1h-0.1c-1.1,0-1.9,0.9-1.9,1.9v5.4
	c0,1.1,0.9,1.9,1.9,1.9h6.5c1,0,1.9-0.9,1.9-1.9V9.4C20,8.3,19.1,7.5,18.1,7.5z M18,9.5v5.2h-6.3V9.5H18z M13.7,6.5
	c0-0.3,0.1-0.6,0.4-0.8s0.5-0.3,0.8-0.3s0.6,0.1,0.8,0.3S16,6.1,16,6.5v1h-2.4L13.7,6.5L13.7,6.5z"/>
<circle class="st0" cx="14.8" cy="12.1" r="1"/>
<path class="st0" d="M7.1,7.5H1c-0.6,0-1,0.4-1,1s0.4,1,1,1h6.1c0.6,0,1-0.4,1-1C8.1,7.9,7.6,7.5,7.1,7.5z"/>
</svg>
