<svg viewBox="0 0 20 20"><path d="M1 5.7h8.7c.6 0 1-.4 1-1s-.4-1-1-1H1c-.6 0-1 .4-1 1 0 .5.5 1 1 1zm6.1 5.6H1c-.6 0-1 .4-1 1s.4 1 1 1h6.1c.6 0 1-.4 1-1s-.5-1-1-1zm11-3.8l-.1-1c0-1.8-1.4-3.2-3.2-3.2s-3.2 1.4-3.2 3.2v1h-.1c-1.1 0-1.9.9-1.9 1.9v5.4c0 1.1.9 1.9 1.9 1.9H18c1 0 1.9-.9 1.9-1.9V9.4c.1-1.1-.8-1.9-1.8-1.9zm-.1 2v5.2h-6.3V9.5H18zm-4.3-3c0-.3.1-.6.4-.8s.5-.3.8-.3.6.1.8.3.3.4.3.8v1h-2.4l.1-1z"/><circle cx="14.8" cy="12.1" r="1"/><path d="M7.1 7.5H1c-.6 0-1 .4-1 1s.4 1 1 1h6.1c.6 0 1-.4 1-1s-.5-1-1-1z"/></svg>