<?xml version="1.0" encoding="utf-8"?>
<!-- Generator: Adobe Illustrator 19.2.1, SVG Export Plug-In . SVG Version: 6.00 Build 0)  -->
<svg version="1.1" id="Calque_1" xmlns="http://www.w3.org/2000/svg" xmlns:xlink="http://www.w3.org/1999/xlink" x="0px" y="0px"
	 viewBox="0 0 28.3 19.8" style="enable-background:new 0 0 28.3 19.8;" xml:space="preserve">
<path d="M14.7,1c0-0.5-0.4-1-0.9-1H1C0.4,0,0,0.4,0,1C0,1.5,0.4,2,1,2h12.8C14.3,2,14.7,1.5,14.7,1z M9.8,6.6H0.9C0.4,6.6,0,7,0,7.5
	s0.4,1,0.9,1h8.9c0.5,0,0.9-0.4,0.9-1S10.3,6.6,9.8,6.6z M9.8,12.7H0.9c-0.5,0-0.9,0.4-0.9,1s0.4,1,0.9,1h8.9c0.5,0,0.9-0.4,0.9-1
	S10.3,12.7,9.8,12.7z"/>
<path d="M26.4,17.4c0,0.2-0.2,0.4-0.4,0.4h-9.6c-0.2,0-0.4-0.2-0.4-0.4V9c0-0.2,0.2-0.4,0.4-0.4H26c0.2,0,0.4,0.2,0.4,0.4V17.4z
	 M19,4.5c0-0.7,0.3-1.3,0.7-1.7c0.4-0.4,1-0.7,1.6-0.7s1.2,0.3,1.6,0.7c0.4,0.4,0.7,1,0.7,1.7v2.1H19V4.5z M26,6.6h-0.7l0-2.1
	c0-2.4-1.8-4.4-4.1-4.4c-2.3,0-4.1,2-4.1,4.4v2.1h-0.7c-1.2,0-2.3,1.1-2.3,2.4v8.5c0,1.3,1,2.4,2.3,2.4H26c1.2,0,2.3-1.1,2.3-2.4V9
	C28.3,7.6,27.2,6.6,26,6.6L26,6.6z"/>
<path d="M21.2,13.2L21.2,13.2v-0.3V13.2z M21.2,11.5c-0.9,0-1.6,0.7-1.6,1.6c0,0.9,0.7,1.6,1.6,1.6s1.6-0.7,1.6-1.6
	C22.8,12.3,22.1,11.5,21.2,11.5L21.2,11.5z"/>
</svg>
