<?xml version="1.0" encoding="utf-8"?>
<!-- Generator: Adobe Illustrator 19.2.1, SVG Export Plug-In . SVG Version: 6.00 Build 0)  -->
<svg version="1.1" id="Calque_1" xmlns="http://www.w3.org/2000/svg" xmlns:xlink="http://www.w3.org/1999/xlink" x="0px" y="0px"
	 viewBox="0 0 20 20" enable-background="new 0 0 20 20" xml:space="preserve">
<g>
	<path fill="#3A434C" d="M17.8,3.9h-0.68c-0.48-1.67-2-2.9-3.83-2.9S9.94,2.23,9.46,3.9H2.2C0.98,3.91,0,4.89,0,6.1v7.84
		c0,1.22,0.98,2.2,2.2,2.2h2.13V18c0,0.55,0.45,1,1,1s1-0.45,1-1v-1.86h7.26V18c0,0.55,0.45,1,1,1s1-0.45,1-1v-1.86h2.21
		c1.22,0,2.2-0.98,2.2-2.2V6.1C20,4.89,19.02,3.91,17.8,3.9z M11.29,4.99c0-1.1,0.89-1.99,2-1.99s2,0.89,2,1.99s-0.89,1.99-2,1.99
		C12.18,6.98,11.29,6.09,11.29,4.99z M18,13.94l-0.06,0.14l-0.14,0.06H2.2l-0.14-0.06L2,13.94V6.1l0.06-0.14L2.2,5.9h7.2
		c0.42,1.76,1.99,3.08,3.88,3.08s3.47-1.31,3.88-3.08h0.63l0.14,0.06L18,6.1V13.94z"/>
	<path fill="#3A434C" d="M8.05,7.5H4.04c-0.55,0-1,0.45-1,1s0.45,1,1,1h4.01c0.55,0,1-0.45,1-1S8.6,7.5,8.05,7.5z"/>
	<path fill="#3A434C" d="M8.05,10.59H4.04c-0.55,0-1,0.45-1,1s0.45,1,1,1h4.01c0.55,0,1-0.45,1-1S8.6,10.59,8.05,10.59z"/>
	<circle fill="#3A434C" cx="13.29" cy="4.99" r="0.91"/>
</g>
</svg>
