<svg viewBox="0 0 20 20"><path d="M17.8 3.9h-.68c-.48-1.67-2-2.9-3.83-2.9S9.94 2.23 9.46 3.9H2.2C.98 3.91 0 4.89 0 6.1v7.84c0 1.22.98 2.2 2.2 2.2h2.13V18c0 .55.45 1 1 1s1-.45 1-1v-1.86h7.26V18c0 .55.45 1 1 1s1-.45 1-1v-1.86h2.21c1.22 0 2.2-.98 2.2-2.2V6.1c0-1.21-.98-2.19-2.2-2.2zm-6.51 1.09c0-1.1.89-1.99 2-1.99a1.99 1.99 0 1 1 0 3.98c-1.11 0-2-.89-2-1.99zM18 13.94l-.06.14-.14.06H2.2l-.14-.06-.06-.14V6.1l.06-.14.14-.06h7.2c.42 1.76 1.99 3.08 3.88 3.08s3.47-1.31 3.88-3.08h.63l.14.06.07.14v7.84z"/><path d="M8.05 7.5H4.04c-.55 0-1 .45-1 1s.45 1 1 1h4.01c.55 0 1-.45 1-1s-.45-1-1-1zm0 3.09H4.04c-.55 0-1 .45-1 1s.45 1 1 1h4.01c.55 0 1-.45 1-1s-.45-1-1-1z"/><circle cx="13.29" cy="4.99" r=".91"/></svg>