<?xml version="1.0" encoding="utf-8"?>
<!-- Generator: Adobe Illustrator 19.2.1, SVG Export Plug-In . SVG Version: 6.00 Build 0)  -->
<svg version="1.1" id="Calque_1" xmlns="http://www.w3.org/2000/svg" xmlns:xlink="http://www.w3.org/1999/xlink" x="0px" y="0px"
	 viewBox="0 0 20 20" style="enable-background:new 0 0 20 20;" xml:space="preserve">
<style type="text/css">
	.st0{fill-rule:evenodd;clip-rule:evenodd;fill:#3A434C;}
</style>
<path class="st0" d="M20,11.6c0,0.7-0.1,1.3-0.3,1.9c-0.2,0.6-0.6,1.1-1,1.5c-0.4,0.4-0.9,0.8-1.4,1c-0.5,0.3-1.1,0.4-1.7,0.3
	c-1.3,0-2.3-0.5-3.1-1.4c-0.8-0.9-1.2-2.1-1.2-3.6c0-1.8,0.7-3.5,2-5c1.4-1.5,3.1-2.5,5.1-2.8l0.2,0.2c-0.6,0.3-1,0.8-1.4,1.5
	c-0.4,0.6-0.6,1.3-0.6,2C18.8,8,20,9.4,20,11.6z M8.8,11.6c0,0.7-0.1,1.3-0.3,1.9c-0.2,0.6-0.6,1.1-1,1.5c-0.4,0.4-0.9,0.8-1.4,1
	c-0.5,0.3-1.1,0.4-1.7,0.3c-1.3,0-2.3-0.5-3.1-1.4C0.4,14.1,0,12.9,0,11.4c0-1.8,0.7-3.5,2-5c1.4-1.5,3.1-2.5,5.1-2.8l0.2,0.2
	c-0.6,0.3-1,0.8-1.4,1.5c-0.4,0.6-0.6,1.3-0.6,2C7.6,8,8.8,9.4,8.8,11.6z"/>
</svg>
