<?xml version="1.0" encoding="utf-8"?>
<!-- Generator: Adobe Illustrator 19.2.1, SVG Export Plug-In . SVG Version: 6.00 Build 0)  -->
<svg version="1.1" id="Calque_1" xmlns="http://www.w3.org/2000/svg" xmlns:xlink="http://www.w3.org/1999/xlink" x="0px" y="0px"
	 viewBox="0 0 20 20" style="enable-background:new 0 0 20 20;" xml:space="preserve">
<style type="text/css">
	.st0{fill:#3A434C;}
</style>
<path class="st0" d="M10,0C4.5,0,0,4.5,0,10s4.5,10,10,10s10-4.5,10-10S15.5,0,10,0z M16.4,16.4C14.7,18,12.5,19,10,19
	s-4.7-1-6.4-2.6C2,14.7,1,12.5,1,10s1-4.7,2.6-6.4S7.5,1,10,1s4.7,1,6.4,2.6C18,5.3,19,7.5,19,10S18,14.7,16.4,16.4z"/>
</svg>
