<?xml version="1.0" encoding="UTF-8" standalone="no"?>
<svg width="20px" height="20px" viewBox="0 0 20 20" version="1.1" xmlns="http://www.w3.org/2000/svg" xmlns:xlink="http://www.w3.org/1999/xlink" xmlns:sketch="http://www.bohemiancoding.com/sketch/ns">
    <!-- Generator: Sketch 3.4.2 (15857) - http://www.bohemiancoding.com/sketch -->
    <title>recurring</title>
    <desc>Created with Sketch.</desc>
    <defs></defs>
    <g id="Page-1" stroke="none" stroke-width="1" fill="none" fill-rule="evenodd" sketch:type="MSPage">
        <g id="recurring" sketch:type="MSArtboardGroup" transform="translate(-6.000000, -6.000000)" fill="#3A434C">
            <g sketch:type="MSLayerGroup" transform="translate(6.050000, 5.000000)">
                <path d="M1.85745,16.0629 L1.85745,4.7691 C1.8585,4.42785 2.1462,4.14015 2.48745,4.1391 L5.52195,4.1391 L5.52195,4.81425 C5.52195,5.2206 5.8506,5.54925 6.25695,5.54925 C6.66225,5.54925 6.99195,5.2206 6.99195,4.81425 L6.99195,4.1391 L10.77195,4.1391 L10.77195,4.81425 C10.77195,5.2206 11.1006,5.54925 11.50695,5.54925 C11.91225,5.54925 12.24195,5.2206 12.24195,4.81425 L12.24195,4.1391 L15.22605,4.1391 C15.5673,4.14015 15.85605,4.42785 15.85605,4.7691 L15.85605,9.8196 L17.32605,9.8196 L17.32605,4.7691 C17.3229,3.6099 16.3863,2.67225 15.22605,2.6691 L12.24195,2.6691 L12.24195,1.59495 C12.24195,1.1886 11.9122502,0.993041986 11.5069502,0.993041986 C11.1006002,0.993041986 10.77195,1.1886 10.77195,1.59495 L10.77195,2.6691 L6.99195,2.6691 L6.99195,1.59495 C6.99195,1.1886 6.66225016,0.993041986 6.25695016,0.993041986 C5.85060016,0.993041986 5.52195,1.1886 5.52195,1.59495 L5.52195,2.6691 L2.48745,2.6691 C1.3272,2.67225 0.3906,3.6099 0.38745,4.7691 L0.38745,16.0629 C0.3906,17.22315 1.3272,18.1608 2.48745,18.1629 L9.4038,18.1629 L9.4038,16.6929 L2.48745,16.6929 C2.1462,16.6929 1.8585,16.4052 1.85745,16.0629 Z" id="Fill-1" sketch:type="MSShapeGroup"></path>
                <path d="M4.9875,7.6566 C4.5528,7.6566 4.2,8.00835 4.2,8.4441 C4.2,8.8788 4.5528,9.2316 4.9875,9.2316 C5.4222,9.2316 5.775,8.8788 5.775,8.4441 C5.775,8.00835 5.4222,7.6566 4.9875,7.6566 Z M7.6125,7.6566 C7.1778,7.6566 6.825,8.00835 6.825,8.4441 C6.825,8.8788 7.1778,9.2316 7.6125,9.2316 C8.0472,9.2316 8.4,8.8788 8.4,8.4441 C8.4,8.00835 8.0472,7.6566 7.6125,7.6566 Z M10.2375,7.6566 C9.8028,7.6566 9.45,8.00835 9.45,8.4441 C9.45,8.8788 9.8028,9.2316 10.2375,9.2316 C10.6722,9.2316 11.025,8.8788 11.025,8.4441 C11.025,8.00835 10.6722,7.6566 10.2375,7.6566 Z M12.8625,7.6566 C12.4278,7.6566 12.075,8.00835 12.075,8.4441 C12.075,8.8788 12.4278,9.2316 12.8625,9.2316 C13.2972,9.2316 13.65,8.8788 13.65,8.4441 C13.65,8.00835 13.2972,7.6566 12.8625,7.6566 Z M4.9875,10.2816 C4.5528,10.2816 4.2,10.63335 4.2,11.0691 C4.2,11.5038 4.5528,11.8566 4.9875,11.8566 C5.4222,11.8566 5.775,11.5038 5.775,11.0691 C5.775,10.63335 5.4222,10.2816 4.9875,10.2816 Z M7.6125,10.2816 C7.1778,10.2816 6.825,10.63335 6.825,11.0691 C6.825,11.5038 7.1778,11.8566 7.6125,11.8566 C8.0472,11.8566 8.4,11.5038 8.4,11.0691 C8.4,10.63335 8.0472,10.2816 7.6125,10.2816 Z M4.9875,12.9066 C4.5528,12.9066 4.2,13.2594 4.2,13.6941 C4.2,14.1288 4.5528,14.4816 4.9875,14.4816 C5.4222,14.4816 5.775,14.1288 5.775,13.6941 C5.775,13.2594 5.4222,12.9066 4.9875,12.9066 Z M7.6125,12.9066 C7.1778,12.9066 6.825,13.2594 6.825,13.6941 C6.825,14.1288 7.1778,14.4816 7.6125,14.4816 C8.0472,14.4816 8.4,14.1288 8.4,13.6941 C8.4,13.2594 8.0472,12.9066 7.6125,12.9066 Z" id="Fill-2" sketch:type="MSShapeGroup"></path>
                <path d="M18.2889,18.19545 C18.018,17.89305 17.5539,17.8689 17.2515,18.1398 C16.76325,18.5766 16.1259,18.84015 15.41925,18.8412 C13.9041,18.83805 12.67875,17.6127 12.6756,16.09755 C12.67875,14.58345 13.9041,13.35705 15.41925,13.35495 C16.20885,13.35495 16.90395,13.69935 17.4048,14.23275 L16.4241,14.23275 C16.01775,14.23275 15.6891,14.5614 15.6891,14.96775 C15.6891,15.37305 16.01775,15.70275 16.4241,15.70275 L18.98085,15.70275 C19.3872,15.70275 19.71585,15.37305 19.71585,14.96775 C19.71585,14.91315 19.6959,14.8659 19.6854,14.81445 C19.698,14.75985 19.71795,14.7084 19.71795,14.6496 L19.71795,12.09285 C19.71795,11.6865 19.3893,11.35785 18.98295,11.35785 C18.57765,11.35785 18.24795,11.6865 18.24795,12.09285 L18.24795,12.98115 C17.50035,12.3018 16.5081,11.88495 15.41925,11.88495 C13.09245,11.88495 11.20665,13.77075 11.2056,16.09755 C11.20665,18.039 12.52545,19.656 14.31045,20.14425 C14.6664,20.2419 15.03285,20.3112 15.41925,20.3112 C15.80565,20.3112 16.17315,20.24295 16.5291,20.14425 C17.16855,19.9689 17.7555,19.66335 18.23325,19.23285 C18.53565,18.96195 18.5598,18.49785 18.2889,18.19545" id="Fill-10" sketch:type="MSShapeGroup"></path>
            </g>
        </g>
    </g>
</svg>