<?xml version="1.0" encoding="utf-8"?>
<!-- Generator: Adobe Illustrator 19.1.0, SVG Export Plug-In . SVG Version: 6.00 Build 0)  -->
<svg version="1.1" id="Calque_1" xmlns="http://www.w3.org/2000/svg" xmlns:xlink="http://www.w3.org/1999/xlink" x="0px" y="0px"
	 viewBox="0 0 20 20" enable-background="new 0 0 20 20" xml:space="preserve">
<path fill="#3A434C" d="M19,8.27l-0.75,0c-0.8-3.84-4.19-6.73-8.27-6.73c-2.94,0-5.53,1.5-7.04,3.77C2.63,5.77,2.76,6.39,3.22,6.7
	C3.67,7,4.3,6.88,4.6,6.42h0c1.16-1.74,3.13-2.88,5.38-2.88c2.97,0,5.44,2.01,6.2,4.73l-0.48,0c-0.4,0-0.76,0.24-0.92,0.6
	c-0.16,0.37-0.08,0.79,0.19,1.08l1.65,1.75c0.19,0.2,0.45,0.31,0.73,0.31c0.27,0,0.54-0.11,0.73-0.31l1.65-1.75
	c0.27-0.29,0.35-0.72,0.19-1.08C19.76,8.51,19.4,8.27,19,8.27z"/>
<path fill="#3A434C" d="M15.4,13.58L15.4,13.58c-1.16,1.74-3.13,2.88-5.38,2.88c-2.97,0-5.44-2.01-6.2-4.73l0.48,0
	c0.4,0,0.76-0.24,0.92-0.6c0.16-0.37,0.08-0.79-0.19-1.08L3.38,8.29c-0.19-0.2-0.45-0.31-0.73-0.31c-0.27,0-0.54,0.11-0.73,0.31
	l-1.65,1.75C0,10.33-0.08,10.76,0.08,11.12c0.16,0.37,0.52,0.6,0.92,0.6l0.75,0c0.8,3.84,4.19,6.73,8.27,6.73
	c2.94,0,5.53-1.5,7.04-3.77c0.31-0.46,0.18-1.08-0.28-1.39C16.33,13,15.7,13.12,15.4,13.58z"/>
</svg>
