<?xml version="1.0" encoding="utf-8"?>
<!-- Generator: Adobe Illustrator 19.2.1, SVG Export Plug-In . SVG Version: 6.00 Build 0)  -->
<svg version="1.1" id="Calque_1" xmlns="http://www.w3.org/2000/svg" xmlns:xlink="http://www.w3.org/1999/xlink" x="0px" y="0px"
	 viewBox="0 0 20 20" style="enable-background:new 0 0 20 20;" xml:space="preserve">
<style type="text/css">
	.st0{fill:#3A434C;}
</style>
<path class="st0" d="M7.5,14.4c0.3,0.3,0.7,0.4,1.1,0.2s0.6-0.5,0.6-0.9l0-2.9c0.6,0.1,1.4,0.2,2.1,0.5c0.7,0.3,1.3,0.7,1.7,1.2
	c0.4,0.6,0.7,1.3,0.7,2.3c0,0.9-0.2,2.1-0.9,3.6c-0.2,0.4-0.1,0.9,0.3,1.1c0.3,0.3,0.8,0.3,1.2,0.1c0.1,0,1.2-0.7,2.3-1.9
	c0.6-0.6,1.1-1.4,1.6-2.3c0.4-0.9,0.8-2,0.8-3.2c0-1.2-0.3-2.5-1-3.9l0,0c0-0.1-0.5-1.2-1.8-2.3C15,5,12.9,3.9,9.9,3.9
	c-0.2,0-0.4,0-0.6,0V1c0-0.4-0.2-0.8-0.6-0.9C8.3-0.1,7.9,0,7.6,0.3L1.2,6.7c-0.4,0.4-0.4,1,0,1.4L7.5,14.4z M7.3,3.4V5
	c0,0.3,0.1,0.6,0.3,0.8S8.2,6,8.5,6c0.5-0.1,1-0.1,1.5-0.1c2.5,0,4,0.9,5,1.7c0.5,0.4,0.8,0.9,1,1.2c0.1,0.2,0.2,0.3,0.2,0.4l0,0.1
	l0,0l0,0l0,0.1c0.6,1.1,0.8,2.2,0.8,3c0,0.9-0.2,1.7-0.5,2.4c-0.2,0.4-0.5,0.8-0.7,1.2c0-0.3,0.1-0.6,0.1-0.9c0-1.5-0.4-2.7-1.2-3.6
	c-1.1-1.4-2.6-2-3.8-2.3C9.6,8.8,8.5,8.8,8.3,8.8H8.2c-0.5,0-1,0.4-1,1v1.5L3.3,7.4L7.3,3.4z"/>
</svg>
