<svg viewBox="0 0 20 20"><path d="M7.5 14.4c.3.3.7.4 1.1.2s.6-.5.6-.9v-2.9c.6.1 1.4.2 2.1.5.7.3 1.3.7 1.7 1.2.4.6.7 1.3.7 2.3 0 .9-.2 2.1-.9 3.6-.2.4-.1.9.3 1.1.3.3.8.3 1.2.1.1 0 1.2-.7 2.3-1.9.6-.6 1.1-1.4 1.6-2.3.4-.9.8-2 .8-3.2 0-1.2-.3-2.5-1-3.9 0-.1-.5-1.2-1.8-2.3-1.2-1-3.3-2.1-6.3-2.1h-.6V1c0-.4-.2-.8-.6-.9-.4-.2-.8-.1-1.1.2L1.2 6.7c-.4.4-.4 1 0 1.4l6.3 6.3zm-.2-11V5c0 .3.1.6.3.8s.6.2.9.2c.5-.1 1-.1 1.5-.1 2.5 0 4 .9 5 1.7.5.4.8.9 1 1.2.1.2.2.3.2.4v.2c.6 1.1.8 2.2.8 3 0 .9-.2 1.7-.5 2.4-.2.4-.5.8-.7 1.2 0-.3.1-.6.1-.9 0-1.5-.4-2.7-1.2-3.6-1.1-1.4-2.6-2-3.8-2.3-1.3-.4-2.4-.4-2.6-.4h-.1c-.5 0-1 .4-1 1v1.5L3.3 7.4l4-4z"/></svg>