<?xml version="1.0" encoding="UTF-8" standalone="no"?>
<svg width="22px" height="20px" viewBox="0 0 22 20" version="1.1" xmlns="http://www.w3.org/2000/svg" xmlns:xlink="http://www.w3.org/1999/xlink" xmlns:sketch="http://www.bohemiancoding.com/sketch/ns">
    <!-- Generator: Sketch 3.4.2 (15857) - http://www.bohemiancoding.com/sketch -->
    <title>reply</title>
    <desc>Created with Sketch.</desc>
    <defs></defs>
    <g id="Page-1" stroke="none" stroke-width="1" fill="none" fill-rule="evenodd" sketch:type="MSPage">
        <g id="reply" sketch:type="MSArtboardGroup" transform="translate(-5.000000, -6.000000)" fill="#3A434C">
            <path d="M21.2989653,22.3287864 C21.3676509,21.8875294 21.4134414,21.4593662 21.4134414,21.0586997 C21.4188285,19.5922079 20.9501497,18.3862802 20.2242362,17.4985289 C19.1293056,16.1629739 17.5791638,15.5436429 16.2943374,15.2241572 C15.0027771,14.9072902 13.9374756,14.8928872 13.6977491,14.8928872 L13.637144,14.8928872 C13.1280619,14.9085996 12.7240284,15.3105755 12.7226816,15.8068258 L12.7159477,17.5535223 L8.42915271,13.3517614 L12.7778995,9.12774119 L12.7778995,10.9529998 C12.7778995,11.2188014 12.8937225,11.4675813 13.0984328,11.6417272 C13.3044898,11.8171824 13.5724987,11.8970539 13.8432011,11.8630103 C14.3886463,11.7936138 14.900422,11.762189 15.3785283,11.762189 C17.9737699,11.7687358 19.5912505,12.6538684 20.6215358,13.5259073 C21.1333115,13.9619267 21.488861,14.3992556 21.7124262,14.7200506 C21.8242088,14.8797935 21.9023219,15.0107303 21.9508059,15.0958392 L22.0006367,15.1888043 L22.0100641,15.2058261 L22.0316126,15.2503446 C22.6578645,16.4209193 22.8881635,17.4487729 22.8895103,18.3666397 C22.8922039,19.9706151 22.1582098,21.3114077 21.2989653,22.3287864 M23.7272064,14.4529396 L23.7285531,14.4516303 C23.6908433,14.3743776 23.1723337,13.2666525 21.8659589,12.1484525 C20.5649711,11.0289431 18.4370616,9.92383675 15.3785283,9.92907422 C15.1536163,9.92907422 14.900422,9.96442715 14.663389,9.97621146 L14.663389,6.91621914 C14.663389,6.54566808 14.4344367,6.21177932 14.0815808,6.07036761 C13.7300717,5.92764653 13.3246915,6.00620859 13.0553358,6.26808213 L6.4332274,12.7010056 C6.06421017,13.0597724 6.0628634,13.6358942 6.43053385,13.9946609 L12.9826098,20.4171095 C13.2506187,20.6802924 13.6559989,20.7601639 14.0088548,20.6200615 C14.3617107,20.4799592 14.5933566,20.1460704 14.5947033,19.7755193 L14.6041308,16.7862329 C15.2357698,16.8582481 16.096361,17.0114441 16.9071215,17.3479516 C17.620914,17.64125 18.2781417,18.0589383 18.744127,18.6350601 C19.2087655,19.2138006 19.5239116,19.9509746 19.5279519,21.0586997 C19.5292987,22.0001351 19.2814915,23.2099908 18.6309976,24.7314761 C18.4747714,25.0954803 18.5771265,25.5170967 18.8814984,25.7750421 C19.1858702,26.0329876 19.6289603,26.073578 19.9777758,25.8745541 C20.0289534,25.8444386 21.1804488,25.187136 22.3615733,23.9366899 C23.5346171,22.6927906 24.7723063,20.8059917 24.7749998,18.3666397 C24.7763466,17.1554746 24.4585069,15.8343226 23.7272064,14.4529396" id="Fill-1" sketch:type="MSShapeGroup"></path>
        </g>
    </g>
</svg>