<?xml version="1.0" encoding="utf-8"?>
<!-- Generator: Adobe Illustrator 19.1.0, SVG Export Plug-In . SVG Version: 6.00 Build 0)  -->
<svg version="1.1" id="Calque_1" xmlns="http://www.w3.org/2000/svg" xmlns:xlink="http://www.w3.org/1999/xlink" x="0px" y="0px"
	 viewBox="0 0 20 20" enable-background="new 0 0 20 20" xml:space="preserve">
<g>
	<path fill="none" d="M7.27,9.81c0-0.54,0.44-0.99,0.98-1l0.05,0c0.24,0,1.27,0.02,2.52,0.33c1.25,0.32,2.76,0.94,3.83,2.29
		c0.71,0.89,1.17,2.11,1.17,3.58c0,0.29-0.02,0.6-0.06,0.91c0.27-0.36,0.53-0.76,0.74-1.19c0.34-0.71,0.55-1.5,0.55-2.39
		c0-0.89-0.22-1.9-0.82-3.04l-0.02-0.05l0,0l-0.01-0.02l-0.05-0.09c-0.05-0.08-0.12-0.21-0.22-0.37c-0.21-0.31-0.55-0.74-1.04-1.17
		c-0.98-0.85-2.51-1.72-4.99-1.72c-0.46,0-0.95,0.03-1.47,0.1C8.16,6.03,7.87,5.94,7.66,5.75C7.44,5.56,7.32,5.29,7.32,5V3.41
		L3.35,7.38l3.91,3.94L7.27,9.81z"/>
	<path fill="#3A434C" d="M7.54,14.44c0.28,0.29,0.72,0.37,1.09,0.22c0.37-0.15,0.62-0.52,0.62-0.92l0.01-2.86
		c0.59,0.08,1.36,0.23,2.09,0.54c0.68,0.29,1.3,0.69,1.73,1.25c0.43,0.56,0.73,1.27,0.74,2.34c0,0.92-0.23,2.11-0.86,3.6
		c-0.16,0.4-0.06,0.86,0.27,1.14c0.32,0.28,0.79,0.33,1.16,0.11c0.05-0.03,1.17-0.69,2.32-1.94c0.57-0.63,1.15-1.4,1.6-2.34
		c0.44-0.93,0.75-2.03,0.75-3.25c0-1.21-0.31-2.54-1.02-3.91l0,0C18,8.34,17.5,7.24,16.23,6.11c-1.27-1.12-3.34-2.23-6.31-2.22
		c-0.19,0-0.4,0.01-0.6,0.02V1c0-0.4-0.24-0.77-0.62-0.92C8.33-0.08,7.9,0.01,7.61,0.29L1.23,6.67c-0.39,0.39-0.39,1.02,0,1.41
		L7.54,14.44z M7.32,3.41V5c0,0.29,0.13,0.56,0.34,0.75c0.21,0.19,0.5,0.28,0.79,0.24c0.52-0.07,1.01-0.1,1.47-0.1
		c2.48,0.01,4.01,0.87,4.99,1.72c0.49,0.43,0.82,0.85,1.04,1.17c0.11,0.16,0.18,0.28,0.22,0.37l0.05,0.09l0.01,0.02l0,0l0.02,0.05
		c0.6,1.15,0.81,2.15,0.82,3.04c0,0.89-0.22,1.67-0.55,2.39c-0.21,0.43-0.46,0.83-0.74,1.19c0.03-0.31,0.06-0.62,0.06-0.91
		c0.01-1.47-0.45-2.69-1.17-3.58c-1.07-1.35-2.59-1.97-3.83-2.29C9.57,8.83,8.53,8.81,8.3,8.81l-0.05,0c-0.54,0.01-0.98,0.45-0.98,1
		l0,1.51L3.35,7.38L7.32,3.41z"/>
</g>
</svg>
