<?xml version="1.0" encoding="utf-8"?>
<!-- Generator: Adobe Illustrator 19.1.0, SVG Export Plug-In . SVG Version: 6.00 Build 0)  -->
<svg version="1.1" baseProfile="tiny" xmlns="http://www.w3.org/2000/svg" xmlns:xlink="http://www.w3.org/1999/xlink" x="0px"
	 y="0px" width="20px" height="20px" viewBox="0 0 20 20" xml:space="preserve">
<g id="Calque_2">
</g>
<g id="Calque_1">
	<g>
		<path fill="none" d="M10,0.7c-5.13,0-9.3,4.17-9.3,9.3s4.17,9.3,9.3,9.3s9.3-4.17,9.3-9.3S15.13,0.7,10,0.7z M13.26,12.15
			c-0.7,1.05-1.9,1.75-3.26,1.75c-1.92,0-3.52-1.39-3.85-3.22l-0.47,0c-0.14,0-0.27-0.08-0.32-0.21s-0.03-0.28,0.07-0.38l0.79-0.84
			c0.07-0.07,0.16-0.11,0.25-0.11s0.19,0.04,0.25,0.11l0.79,0.84c0.1,0.1,0.12,0.25,0.07,0.38c-0.06,0.13-0.18,0.21-0.32,0.21
			l-0.39,0C7.2,12.12,8.47,13.2,10,13.2c1.12,0,2.1-0.57,2.68-1.43c0.11-0.16,0.32-0.2,0.49-0.1
			C13.33,11.78,13.37,11.99,13.26,12.15z M14.55,9.88l-0.79,0.84c-0.07,0.07-0.16,0.11-0.25,0.11s-0.19-0.04-0.25-0.11l-0.79-0.84
			c-0.1-0.1-0.12-0.25-0.07-0.38c0.06-0.13,0.18-0.21,0.32-0.21l0.39,0c-0.32-1.44-1.59-2.52-3.13-2.52c-1.12,0-2.1,0.57-2.68,1.43
			C7.2,8.36,6.98,8.4,6.82,8.3c-0.16-0.11-0.2-0.32-0.1-0.49c0.7-1.05,1.9-1.75,3.26-1.75c1.92,0,3.52,1.39,3.85,3.22l0.47,0
			c0.14,0,0.27,0.08,0.32,0.21S14.65,9.77,14.55,9.88z"/>
		<path fill="#3A434C" d="M10,0C4.48,0,0,4.48,0,10c0,5.52,4.48,10,10,10c5.52,0,10-4.48,10-10C20,4.48,15.52,0,10,0z M10,19.3
			c-5.13,0-9.3-4.17-9.3-9.3S4.87,0.7,10,0.7s9.3,4.17,9.3,9.3S15.13,19.3,10,19.3z"/>
		<path fill="#3A434C" d="M14.3,9.29l-0.47,0c-0.33-1.83-1.92-3.22-3.85-3.22c-1.36,0-2.56,0.69-3.26,1.75
			C6.62,7.97,6.66,8.19,6.82,8.3C6.98,8.4,7.2,8.36,7.31,8.2c0.58-0.87,1.56-1.43,2.68-1.43c1.54,0,2.81,1.08,3.13,2.52l-0.39,0
			c-0.14,0-0.27,0.08-0.32,0.21c-0.06,0.13-0.03,0.28,0.07,0.38l0.79,0.84c0.07,0.07,0.16,0.11,0.25,0.11s0.19-0.04,0.25-0.11
			l0.79-0.84c0.1-0.1,0.12-0.25,0.07-0.38S14.44,9.29,14.3,9.29z"/>
		<path fill="#3A434C" d="M12.68,11.77C12.1,12.63,11.12,13.2,10,13.2c-1.54,0-2.81-1.08-3.13-2.52l0.39,0
			c0.14,0,0.27-0.08,0.32-0.21c0.06-0.13,0.03-0.28-0.07-0.38L6.74,9.25C6.67,9.18,6.58,9.14,6.48,9.14S6.29,9.18,6.23,9.25
			l-0.79,0.84c-0.1,0.1-0.12,0.25-0.07,0.38s0.18,0.21,0.32,0.21l0.47,0C6.49,12.51,8.08,13.9,10,13.9c1.36,0,2.56-0.69,3.26-1.75
			c0.11-0.16,0.06-0.38-0.1-0.49C13.01,11.56,12.79,11.61,12.68,11.77z"/>
	</g>
</g>
</svg>
