<?xml version="1.0" encoding="UTF-8" standalone="no"?>
<svg width="20px" height="20px" viewBox="0 0 20 20" version="1.1" xmlns="http://www.w3.org/2000/svg" xmlns:xlink="http://www.w3.org/1999/xlink" xmlns:sketch="http://www.bohemiancoding.com/sketch/ns">
    <!-- Generator: Sketch 3.4.2 (15857) - http://www.bohemiancoding.com/sketch -->
    <title>reset</title>
    <desc>Created with Sketch.</desc>
    <defs></defs>
    <g id="Page-1" stroke="none" stroke-width="1" fill="none" fill-rule="evenodd" sketch:type="MSPage">
        <g id="reset" sketch:type="MSArtboardGroup" transform="translate(-6.000000, -6.000000)" fill="#3A434C">
            <path d="M25.9366404,14.5466441 C25.8131536,14.2554041 25.5316927,14.0665531 25.2213069,14.0665531 L24.0420636,14.0665531 C23.700528,12.511377 22.9317948,11.0346992 21.7269641,9.84926132 C20.1338731,8.28157098 18.0746472,7.50000112 16.0254337,7.50000112 C13.8705334,7.49886346 11.7111831,8.36461988 10.0991796,10.0802055 C9.62303233,10.5864626 9.2203096,11.1393635 8.89212395,11.7241189 C8.67741266,12.1052337 8.80534943,12.5921506 9.17914733,12.8105806 C9.55183273,13.0301482 10.02798,12.8981801 10.2426913,12.5170653 C10.5074648,12.0449379 10.834538,11.5967013 11.2216858,11.1837321 C12.5310909,9.79124085 14.2732561,9.09385755 16.0254337,9.0927199 C17.6908369,9.09385755 19.35179,9.72411913 20.6467327,10.9971565 C21.5345027,11.8720142 22.1285744,12.9357228 22.4378476,14.0665531 L21.3275789,14.0665531 C21.0194181,14.0665531 20.7401822,14.2531287 20.6155829,14.5409558 C20.4909836,14.8287828 20.5443833,15.1655291 20.7513071,15.3987486 L22.6647963,17.5523319 C22.810533,17.7161544 23.0174568,17.8105799 23.2343931,17.8128552 C23.4513294,17.8151305 23.6593657,17.724118 23.8084399,17.5625708 L25.7886787,15.4089875 C26.001165,15.1780433 26.0590147,14.8378841 25.9366404,14.5466441 Z M22.7994081,19.1894193 C22.4256102,18.9709893 21.9494629,19.1018198 21.7358641,19.4829346 C21.4699781,19.9561996 21.1440174,20.4044362 20.7557571,20.8162678 C19.4452395,22.208759 17.7030743,22.9061423 15.9520092,22.90728 C14.2854936,22.9061423 12.6256529,22.2770184 11.3318227,21.003981 C10.4418277,20.1279857 9.84886855,19.0642771 9.5395953,17.9334468 L10.6721139,17.9334468 C10.9802747,17.9334468 11.2595106,17.7480088 11.3841099,17.4601818 C11.5087092,17.1723547 11.4553095,16.8344708 11.2483857,16.6023889 L9.33600894,14.4488056 C9.19027227,14.2838455 8.98334843,14.18942 8.76641215,14.1871447 C8.54947588,14.186007 8.34032706,14.2770195 8.19236539,14.4385667 L6.21101406,16.59215 C5.99852775,16.8230943 5.94067808,17.1621158 6.06416488,17.4533558 C6.18653919,17.7445958 6.46800011,17.9334468 6.77838586,17.9334468 L7.93537934,17.9334468 C8.27580242,19.4886229 9.04564808,20.9653007 10.2515913,22.1507386 C11.8446823,23.7184289 13.9027957,24.5011364 15.9520092,24.4999988 C18.1069095,24.5011364 20.2651474,23.6342423 21.8782633,21.920932 C22.3544106,21.414675 22.7582458,20.861774 23.0864315,20.2770187 C23.3000303,19.8947662 23.170981,19.408987 22.7994081,19.1894193 Z" sketch:type="MSShapeGroup"></path>
        </g>
    </g>
</svg>