<?xml version="1.0" encoding="utf-8"?>
<!-- Generator: Adobe Illustrator 19.2.1, SVG Export Plug-In . SVG Version: 6.00 Build 0)  -->
<svg version="1.1" id="Calque_1" xmlns="http://www.w3.org/2000/svg" xmlns:xlink="http://www.w3.org/1999/xlink" x="0px" y="0px"
	 viewBox="0 0 20 20" style="enable-background:new 0 0 20 20;" xml:space="preserve">
<style type="text/css">
	.st0{fill:#3A434C;}
</style>
<path class="st0" d="M10,0C7.5,0,5.1,0.9,3.4,2.5L0.9,0.2C0.7,0,0.5,0,0.3,0.1C0.2,0.2,0,0.3,0,0.5l0,6.3C0,7,0.1,7.2,0.2,7.3
	s0.2,0.1,0.4,0.1l6.3-0.5c0.2,0,0.4-0.1,0.4-0.3c0.1-0.2,0-0.4-0.1-0.5L4.9,3.9C6.2,2.7,8,2,10,2c2.2,0,4.2,0.9,5.7,2.3
	C17.1,5.8,18,7.8,18,10c0,2.2-0.9,4.2-2.3,5.7C14.2,17.1,12.2,18,10,18c-3.4,0-6.3-2.1-7.4-5.1c-0.2-0.5-0.8-0.8-1.3-0.6
	c-0.5,0.2-0.8,0.8-0.6,1.3C2.1,17.4,5.8,20,10,20c5.5,0,10-4.5,10-10C20,4.5,15.5,0,10,0z"/>
</svg>
