<?xml version="1.0" encoding="utf-8"?>
<!-- Generator: Adobe Illustrator 19.1.0, SVG Export Plug-In . SVG Version: 6.00 Build 0)  -->
<svg version="1.1" id="Calque_1" xmlns="http://www.w3.org/2000/svg" xmlns:xlink="http://www.w3.org/1999/xlink" x="0px" y="0px"
	 viewBox="0 0 20 20" enable-background="new 0 0 20 20" xml:space="preserve">
<g>
	<path fill="#3A434C" d="M19.69,0.08C19.5,0,19.29,0.04,19.15,0.17l-2.5,2.33C14.89,0.95,12.57,0,10.03,0c-5.52,0-10,4.48-10,10
		c0,5.52,4.48,10,10,10c4.23,0,7.85-2.63,9.31-6.34c0.2-0.51-0.05-1.09-0.57-1.3c-0.51-0.2-1.09,0.05-1.3,0.57
		C16.31,15.9,13.42,18,10.03,18c-2.21,0-4.21-0.89-5.66-2.34C2.92,14.21,2.03,12.21,2.03,10c0-2.21,0.89-4.21,2.34-5.66
		C5.82,2.89,7.82,2,10.03,2c1.96,0,3.75,0.71,5.14,1.88l-2.32,2.16c-0.15,0.14-0.2,0.34-0.13,0.53c0.07,0.19,0.24,0.32,0.43,0.33
		l6.33,0.48c0.14,0.01,0.28-0.04,0.38-0.13s0.16-0.23,0.16-0.37l-0.03-6.35C19.99,0.34,19.87,0.16,19.69,0.08z"/>
</g>
</svg>
