<?xml version="1.0" encoding="utf-8"?>
<!-- Generator: Adobe Illustrator 19.1.0, SVG Export Plug-In . SVG Version: 6.00 Build 0)  -->
<svg version="1.1" id="Calque_1" xmlns="http://www.w3.org/2000/svg" xmlns:xlink="http://www.w3.org/1999/xlink" x="0px" y="0px"
	 viewBox="0 0 20 20" enable-background="new 0 0 20 20" xml:space="preserve">
<g>
	<path fill="#3A434C" d="M5.76,4.13h4.6c0.55,0,1-0.45,1-1c0-0.55-0.45-1-1-1h-4.6c-0.55,0-1,0.45-1,1C4.76,3.69,5.2,4.13,5.76,4.13
		z"/>
	<circle fill="#3A434C" cx="1.13" cy="3.13" r="1.13"/>
	<path fill="#3A434C" d="M5.76,11h13.24c0.55,0,1-0.45,1-1c0-0.55-0.45-1-1-1H5.76c-0.55,0-1,0.45-1,1C4.76,10.56,5.2,11,5.76,11z"
		/>
	<circle fill="#3A434C" cx="1.13" cy="10" r="1.13"/>
	<path fill="#3A434C" d="M5.76,17.86h6.75c0.55,0,1-0.45,1-1c0-0.55-0.45-1-1-1H5.76c-0.55,0-1,0.45-1,1
		C4.76,17.42,5.2,17.86,5.76,17.86z"/>
	<circle fill="#3A434C" cx="1.13" cy="16.86" r="1.13"/>
</g>
</svg>
