<?xml version="1.0" encoding="utf-8"?>
<!-- Generator: Adobe Illustrator 19.2.1, SVG Export Plug-In . SVG Version: 6.00 Build 0)  -->
<svg version="1.1" id="Calque_1" xmlns="http://www.w3.org/2000/svg" xmlns:xlink="http://www.w3.org/1999/xlink" x="0px" y="0px"
	 viewBox="0 0 20 20" style="enable-background:new 0 0 20 20;" xml:space="preserve">
<style type="text/css">
	.st0{fill:#3A434C;}
</style>
<ellipse transform="matrix(0.7684 -0.6399 0.6399 0.7684 -11.147 5.4287)" class="st0" cx="1.9" cy="18.1" rx="1.9" ry="1.9"/>
<path class="st0" d="M2.6,8C2,8,1.6,8,0.9,8.2C0.4,8.5,0,9,0,9.5c0,0.6,0.4,1.1,0.9,1.3C1,10.9,1.2,11,1.4,11c0,0,0,0,0,0h0
	c0,0,0,0,0,0c0.6,0,0.9-0.1,1.2-0.1c3.6,0,6.5,2.9,6.4,6.4C9,17.8,9,17.9,9,18.5c0,0.2,0,0.3,0.1,0.5c0.2,0.6,0.7,1,1.3,1
	c0.6,0,1.2-0.4,1.3-1l0-0.1c0-0.1,0-0.2,0.1-0.3c0,0,0,0,0-0.1c0,0,0,0,0-0.1c0.1-0.4,0.1-0.8,0.1-1.3C11.9,12.2,7.7,8,2.6,8z"/>
<path class="st0" d="M2.8,0C2.4,0,1.9,0,1.5,0.1c0,0,0,0,0,0c0,0,0,0,0,0c-0.2,0-0.4,0-0.5,0.1C0.5,0.4,0.1,0.9,0.1,1.5
	c0,0.6,0.4,1.1,0.9,1.3c0.2,0.1,0.4,0.1,0.5,0.1l1.3,0c7.9,0,14.3,6.4,14.3,14.3c0,0.6,0,0.8-0.1,1.4c0,0.1,0,0.3,0.1,0.4
	c0.2,0.6,0.7,1,1.4,1s1.2-0.4,1.4-1c0-0.1,0.1-0.2,0.1-0.4l0-0.1c0-0.4,0.1-0.9,0.1-1.3C20,7.7,12.3,0,2.8,0z"/>
</svg>
