<?xml version="1.0" encoding="utf-8"?>
<!-- Generator: Adobe Illustrator 19.2.1, SVG Export Plug-In . SVG Version: 6.00 Build 0)  -->
<svg version="1.1" id="Calque_1" xmlns="http://www.w3.org/2000/svg" xmlns:xlink="http://www.w3.org/1999/xlink" x="0px" y="0px"
	 viewBox="0 0 20 20" style="enable-background:new 0 0 20 20;" xml:space="preserve">
<style type="text/css">
	.st0{fill:#3A434C;}
</style>
<g>
	<path class="st0" d="M17,0H3C1.3,0,0,1.3,0,3v3.4c0,1.6,1.3,3,3,3h14.1c1.6,0,3-1.3,3-2.9V3C20,1.3,18.7,0,17,0z M18,6.4
		c0,0.3-0.1,0.5-0.3,0.7c-0.2,0.2-0.4,0.3-0.7,0.3H3c-0.3,0-0.5-0.1-0.7-0.3C2.1,6.9,2,6.7,2,6.4V3c0-0.3,0.1-0.5,0.3-0.7S2.7,2,3,2
		h14.1c0.3,0,0.5,0.1,0.7,0.3C17.9,2.5,18,2.7,18,3V6.4z"/>
	<path class="st0" d="M17,10.7H3c-1.6,0-3,1.3-3,2.9v3.4c0,1.6,1.3,3,3,3h14.1c1.6,0,3-1.3,3-3v-3.4C20,12,18.7,10.7,17,10.7z
		 M18,17.1c0,0.3-0.1,0.5-0.3,0.7S17.3,18,17,18H3c-0.3,0-0.5-0.1-0.7-0.3S2,17.3,2,17.1v-3.4c0-0.3,0.1-0.5,0.3-0.7
		s0.4-0.3,0.7-0.3h14.1c0.3,0,0.5,0.1,0.7,0.3c0.2,0.2,0.3,0.4,0.3,0.7V17.1z"/>
</g>
</svg>
