<?xml version="1.0" encoding="utf-8"?>
<!-- Generator: Adobe Illustrator 19.1.0, SVG Export Plug-In . SVG Version: 6.00 Build 0)  -->
<svg version="1.1" id="Calque_1" xmlns="http://www.w3.org/2000/svg" xmlns:xlink="http://www.w3.org/1999/xlink" x="0px" y="0px"
	 viewBox="0 0 20 20" enable-background="new 0 0 20 20" xml:space="preserve">
<g>
	<path fill="none" d="M17.05,12.67H2.95c-0.26,0-0.49,0.1-0.67,0.28C2.1,13.12,2,13.36,2,13.62v3.44c0,0.26,0.1,0.49,0.28,0.67
		c0.18,0.18,0.41,0.28,0.67,0.28h14.1c0.26,0,0.49-0.1,0.67-0.28C17.9,17.55,18,17.32,18,17.06v-3.44c0-0.26-0.1-0.49-0.28-0.67
		C17.54,12.77,17.31,12.67,17.05,12.67z"/>
	<path fill="none" d="M17.05,2.01H2.95c-0.26,0-0.49,0.1-0.67,0.28C2.1,2.47,2,2.7,2,2.96v3.44C2,6.67,2.1,6.9,2.28,7.08
		c0.18,0.18,0.41,0.28,0.67,0.28h14.1c0.26,0,0.49-0.1,0.67-0.28C17.9,6.9,18,6.67,18,6.41V2.96c0-0.26-0.1-0.49-0.28-0.67
		C17.54,2.12,17.31,2.01,17.05,2.01z"/>
	<path fill="#3A434C" d="M17.05,0.01H2.95C1.32,0.02,0,1.33,0,2.96v3.44c0,1.63,1.32,2.95,2.95,2.95h14.1
		c1.63,0,2.95-1.32,2.95-2.95V2.96C20,1.33,18.68,0.02,17.05,0.01z M18,6.41c0,0.26-0.1,0.49-0.28,0.67
		c-0.18,0.18-0.41,0.28-0.67,0.28H2.95c-0.26,0-0.49-0.1-0.67-0.28C2.1,6.9,2,6.67,2,6.41V2.96C2,2.7,2.1,2.47,2.28,2.29
		c0.18-0.18,0.41-0.28,0.67-0.28h14.1c0.26,0,0.49,0.1,0.67,0.28C17.9,2.47,18,2.7,18,2.96V6.41z"/>
	<path fill="#3A434C" d="M17.05,10.67H2.95C1.32,10.67,0,11.99,0,13.62v3.44c0,1.63,1.32,2.95,2.95,2.95h14.1
		c1.63,0,2.95-1.32,2.95-2.95v-3.44C20,11.99,18.68,10.67,17.05,10.67z M18,17.06c0,0.26-0.1,0.49-0.28,0.67
		c-0.18,0.18-0.41,0.28-0.67,0.28H2.95c-0.26,0-0.49-0.1-0.67-0.28C2.1,17.55,2,17.32,2,17.06v-3.44c0-0.26,0.1-0.49,0.28-0.67
		c0.18-0.18,0.41-0.28,0.67-0.28h14.1c0.26,0,0.49,0.1,0.67,0.28C17.9,13.12,18,13.36,18,13.62V17.06z"/>
</g>
</svg>
