<svg xmlns="http://www.w3.org/2000/svg" width="18" height="20" viewBox="0 0 18 20"><title>shield</title><path d="M15.47,10.84A11.12,11.12,0,0,1,9,17.91a11.13,11.13,0,0,1-6.47-7.07A13.49,13.49,0,0,1,2,7V5.66a15.72,15.72,0,0,0,2.59-.27,7.66,7.66,0,0,0,3.5-1.5h0l0.06-.05,0.46-.48L8.92,3,9,2.92,9.11,3.06c0.31,0.35.72,0.77,0.73,0.77l0,0a7.27,7.27,0,0,0,3.43,1.51A15.54,15.54,0,0,0,16,5.66V7a13.49,13.49,0,0,1-.53,3.86m2.21-6.92a1,1,0,0,0-.75-0.27H16.32a14,14,0,0,1-2.61-.24,5.43,5.43,0,0,1-2.48-1l-0.07-.08-0.41-.43c-0.14-.15-0.28-0.32-0.3-0.34A5.09,5.09,0,0,1,9.92.6,1,1,0,0,0,9.7.3h0A1,1,0,0,0,9.48.13l-0.07,0A1,1,0,0,0,9.19,0L9.11,0a1,1,0,0,0-.29,0h0a1,1,0,0,0-.25.1l-0.07,0a1,1,0,0,0-.19.17l0,0A1,1,0,0,0,8.08.6a5,5,0,0,1-.53.93L7.4,1.72,7,2.17l-0.17.17,0,0A5.8,5.8,0,0,1,4.21,3.43a14.33,14.33,0,0,1-2.61.24H1.1a1,1,0,0,0-1.1,1V7a15.51,15.51,0,0,0,.61,4.43,13.24,13.24,0,0,0,7.94,8.5h0l0.06,0a1.06,1.06,0,0,0,.18,0A1,1,0,0,0,9,20a1,1,0,0,0,.21,0,1.06,1.06,0,0,0,.18,0l0.06,0h0a13.24,13.24,0,0,0,7.94-8.5A15.51,15.51,0,0,0,18,7V4.65a1,1,0,0,0-.32-0.73" transform="translate(0 -0.01)" fill="#3a434c"/><path d="M12.47,9.13A0.5,0.5,0,0,0,12,8.8l-1.3-.12-0.55,0L10,8.08,9.46,6.82a0.5,0.5,0,0,0-.93,0L8,8.08l-0.22.55-0.55,0L6,8.8a0.5,0.5,0,0,0-.29.87l1,0.9L7.09,11,7,11.56,6.66,12.9a0.5,0.5,0,0,0,.76.53l1.12-.71L9,12.42l0.47,0.3,1.12,0.71a0.5,0.5,0,0,0,.76-0.53L11,11.56,10.91,11l0.44-.4,1-.9a0.5,0.5,0,0,0,.14-0.53" transform="translate(0 -0.01)" fill="#3a434c"/></svg>