<?xml version="1.0" encoding="UTF-8" standalone="no"?>
<svg width="20px" height="20px" viewBox="0 0 20 20" version="1.1" xmlns="http://www.w3.org/2000/svg" xmlns:xlink="http://www.w3.org/1999/xlink" xmlns:sketch="http://www.bohemiancoding.com/sketch/ns">
    <!-- Generator: Sketch 3.4.2 (15857) - http://www.bohemiancoding.com/sketch -->
    <title>singleChoice</title>
    <desc>Created with Sketch.</desc>
    <defs></defs>
    <g id="Page-1" stroke="none" stroke-width="1" fill="none" fill-rule="evenodd" sketch:type="MSPage">
        <g id="singleChoice" sketch:type="MSArtboardGroup" transform="translate(-6.000000, -6.000000)" fill="#3A434C">
            <g sketch:type="MSLayerGroup" transform="translate(6.000000, 7.000000)">
                <path d="M2.84815385,10.9716923 C3.03507692,11.1503077 3.28430769,11.2458462 3.54323077,11.2403077 C3.80215385,11.2333846 4.04446154,11.1253846 4.22307692,10.9370769 L6.87461538,8.136 C7.24292308,7.74692308 7.22492308,7.13353846 6.83723077,6.76523077 C6.44815385,6.39830769 5.83476923,6.41492308 5.46646154,6.804 L3.48369231,8.89753846 L2.47015385,7.92692308 C2.08246154,7.55723077 1.46907692,7.57107692 1.09938462,7.95738462 C0.729692308,8.34507692 0.743538462,8.95846154 1.13123077,9.32815385 L1.12984615,9.32815385 L2.84815385,10.9716923" id="Fill-2" sketch:type="MSShapeGroup"></path>
                <path d="M17.6136923,7.90061538 L10.3375385,7.90061538 C9.80169231,7.90061538 9.36830769,8.33538462 9.36830769,8.86984615 C9.36830769,9.40569231 9.80169231,9.83907692 10.3375385,9.83907692 L17.6136923,9.83907692 C18.1481538,9.83907692 18.5829231,9.40569231 18.5829231,8.86984615 C18.5829231,8.33538462 18.1481538,7.90061538 17.6136923,7.90061538 Z M17.6136923,15.8275385 L1.8,15.8275385 C1.26415385,15.8275385 0.830769231,16.2623077 0.830769231,16.7967692 C0.830769231,17.3326154 1.26415385,17.766 1.8,17.766 L17.6136923,17.766 C18.1481538,17.766 18.5829231,17.3326154 18.5829231,16.7967692 C18.5829231,16.2623077 18.1481538,15.8275385 17.6136923,15.8275385 Z M1.80138462,1.97169231 L17.6136923,1.97169231 C18.1495385,1.97169231 18.5829231,1.53830769 18.5829231,1.00246154 C18.5829231,0.468 18.1495385,0.0332307692 17.6136923,0.0332307692 L1.80138462,0.0332307692 C1.26553846,0.0332307692 0.830769231,0.468 0.830769231,1.00246154 C0.830769231,1.53830769 1.26553846,1.97169231 1.80138462,1.97169231 Z" id="Fill-3" sketch:type="MSShapeGroup"></path>
            </g>
        </g>
    </g>
</svg>