<?xml version="1.0" encoding="utf-8"?>
<!-- Generator: Adobe Illustrator 19.1.0, SVG Export Plug-In . SVG Version: 6.00 Build 0)  -->
<svg version="1.1" id="Calque_1" xmlns="http://www.w3.org/2000/svg" xmlns:xlink="http://www.w3.org/1999/xlink" x="0px" y="0px"
	 viewBox="0 0 20 20" enable-background="new 0 0 20 20" xml:space="preserve">
<g>
	<path fill="#3A434C" d="M1,2h18c0.55,0,1-0.45,1-1c0-0.55-0.45-1-1-1H1C0.45,0,0,0.45,0,1C0,1.55,0.45,2,1,2z"/>
	<path fill="#3A434C" d="M5.25,7.68l-2.33,2.46L1.69,8.97C1.29,8.59,0.66,8.6,0.28,9c-0.38,0.4-0.37,1.03,0.03,1.41l1.96,1.87
		c0.19,0.18,0.45,0.28,0.72,0.28c0.27-0.01,0.52-0.12,0.7-0.31L6.7,9.06c0.38-0.4,0.36-1.03-0.04-1.41
		C6.26,7.26,5.63,7.28,5.25,7.68z"/>
	<path fill="#3A434C" d="M19,8.97h-8.28c-0.55,0-1,0.45-1,1c0,0.55,0.45,1,1,1H19c0.55,0,1-0.45,1-1C20,9.41,19.55,8.97,19,8.97z"/>
	<path fill="#3A434C" d="M1,20h18c0.55,0,1-0.45,1-1c0-0.55-0.45-1-1-1H1c-0.55,0-1,0.45-1,1C0,19.55,0.45,20,1,20z"/>
</g>
</svg>
