<?xml version="1.0" encoding="utf-8"?>
<!-- Generator: Adobe Illustrator 19.1.0, SVG Export Plug-In . SVG Version: 6.00 Build 0)  -->
<svg version="1.1" id="Calque_1" xmlns="http://www.w3.org/2000/svg" xmlns:xlink="http://www.w3.org/1999/xlink" x="0px" y="0px"
	 viewBox="0 0 20 20" enable-background="new 0 0 20 20" xml:space="preserve">
<g>
	<rect x="7.75" y="7.75" transform="matrix(0.328 0.9447 -0.9447 0.328 16.1671 -2.7267)" fill="none" width="4.5" height="4.5"/>
	<path fill="#3A434C" d="M2.13,10.35l1.97-0.68l1.47,4.25L3.61,14.6c-0.84,0.29-1.28,1.21-0.99,2.04c0.29,0.84,1.21,1.28,2.04,0.99
		l1.97-0.68l0.68,1.97c0.29,0.84,1.21,1.28,2.04,0.99c0.84-0.29,1.28-1.21,0.99-2.04l-0.68-1.97l4.25-1.47l0.68,1.97
		c0.29,0.84,1.21,1.28,2.04,0.99c0.84-0.29,1.28-1.21,0.99-2.04l-0.68-1.97l1.97-0.68c0.84-0.29,1.28-1.21,0.99-2.04
		s-1.21-1.28-2.04-0.99l-1.97,0.68l-1.47-4.25l1.97-0.68c0.84-0.29,1.28-1.21,0.99-2.04c-0.29-0.84-1.21-1.28-2.04-0.99l-1.97,0.68
		l-0.68-1.97c-0.29-0.84-1.21-1.28-2.04-0.99C9.8,0.38,9.36,1.3,9.65,2.13l0.68,1.97L6.09,5.58L5.4,3.61
		C5.11,2.77,4.2,2.33,3.36,2.62C2.52,2.91,2.08,3.82,2.37,4.66l0.68,1.97L1.08,7.32C0.24,7.61-0.2,8.52,0.09,9.36
		C0.38,10.2,1.29,10.64,2.13,10.35z M11.39,7.14l1.47,4.25l-4.25,1.47L7.14,8.61L11.39,7.14z"/>
</g>
</svg>
