<?xml version="1.0" encoding="utf-8"?>
<!-- Generator: Adobe Illustrator 19.2.1, SVG Export Plug-In . SVG Version: 6.00 Build 0)  -->
<svg version="1.1" id="Calque_1" xmlns="http://www.w3.org/2000/svg" xmlns:xlink="http://www.w3.org/1999/xlink" x="0px" y="0px"
	 viewBox="0 0 20 20" style="enable-background:new 0 0 20 20;" xml:space="preserve">
<style type="text/css">
	.st0{fill:#3A434C;}
</style>
<path class="st0" d="M2.1,10.4l2-0.7l1.5,4.2l-2,0.7c-0.8,0.3-1.3,1.2-1,2c0.3,0.8,1.2,1.3,2,1l2-0.7l0.7,2c0.3,0.8,1.2,1.3,2,1
	c0.8-0.3,1.3-1.2,1-2l-0.7-2l4.2-1.5l0.7,2c0.3,0.8,1.2,1.3,2,1c0.8-0.3,1.3-1.2,1-2l-0.7-2l2-0.7c0.8-0.3,1.3-1.2,1-2s-1.2-1.3-2-1
	l-2,0.7l-1.5-4.2l2-0.7c0.8-0.3,1.3-1.2,1-2c-0.3-0.8-1.2-1.3-2-1l-2,0.7l-0.7-2c-0.3-0.8-1.2-1.3-2-1c-0.8,0.3-1.3,1.2-1,2l0.7,2
	L6.1,5.6l-0.7-2c-0.3-0.8-1.2-1.3-2-1s-1.3,1.2-1,2l0.7,2l-2,0.7c-0.8,0.3-1.3,1.2-1,2C0.4,10.2,1.3,10.6,2.1,10.4z M11.4,7.1
	l1.5,4.2l-4.2,1.5L7.1,8.6L11.4,7.1z"/>
</svg>
