<?xml version="1.0" encoding="utf-8"?>
<!-- Generator: Adobe Illustrator 19.1.0, SVG Export Plug-In . SVG Version: 6.00 Build 0)  -->
<svg version="1.1" id="Calque_1" xmlns="http://www.w3.org/2000/svg" xmlns:xlink="http://www.w3.org/1999/xlink" x="0px" y="0px"
	 viewBox="0 0 20 20" enable-background="new 0 0 20 20" xml:space="preserve">
<g>
	<path fill="none" d="M10,2C7.79,2,5.79,2.89,4.34,4.34C2.89,5.79,2,7.79,2,10c0,2.21,0.89,4.21,2.34,5.66C5.79,17.11,7.79,18,10,18
		c2.21,0,4.21-0.89,5.66-2.34C17.11,14.21,18,12.21,18,10c0-2.21-0.89-4.21-2.34-5.66C14.21,2.89,12.21,2,10,2z M12.67,6.13
		c0.69,0,1.25,0.56,1.25,1.25c0,0.69-0.56,1.25-1.25,1.25c-0.69,0-1.25-0.56-1.25-1.25C11.42,6.69,11.98,6.13,12.67,6.13z
		 M7.45,6.13c0.69,0,1.25,0.56,1.25,1.25c0,0.69-0.56,1.25-1.25,1.25S6.2,8.07,6.2,7.38C6.2,6.69,6.76,6.13,7.45,6.13z M13.62,13.47
		c-0.93,0.88-2.19,1.42-3.57,1.42c-1.37,0-2.63-0.53-3.55-1.4c-0.4-0.38-0.42-1.01-0.05-1.41c0.38-0.4,1.01-0.42,1.41-0.05
		c0.57,0.53,1.33,0.86,2.18,0.86c0.86,0,1.63-0.33,2.2-0.87v0c0.4-0.38,1.03-0.36,1.41,0.04S14.02,13.09,13.62,13.47z"/>
	<path fill="#3A434C" d="M10,0C4.48,0,0,4.48,0,10c0,5.52,4.48,10,10,10c5.52,0,10-4.48,10-10C20,4.48,15.52,0,10,0z M15.66,15.66
		C14.21,17.11,12.21,18,10,18c-2.21,0-4.21-0.89-5.66-2.34C2.89,14.21,2,12.21,2,10c0-2.21,0.89-4.21,2.34-5.66
		C5.79,2.89,7.79,2,10,2c2.21,0,4.21,0.89,5.66,2.34C17.11,5.79,18,7.79,18,10C18,12.21,17.11,14.21,15.66,15.66z"/>
	<circle fill="#3A434C" cx="7.45" cy="7.38" r="1.25"/>
	<circle fill="#3A434C" cx="12.67" cy="7.38" r="1.25"/>
	<path fill="#3A434C" d="M12.25,12.01L12.25,12.01c-0.57,0.54-1.34,0.87-2.2,0.87c-0.85,0-1.61-0.33-2.18-0.86
		c-0.4-0.38-1.04-0.36-1.41,0.05c-0.38,0.4-0.36,1.04,0.05,1.41c0.92,0.87,2.18,1.4,3.55,1.4c1.38,0,2.65-0.54,3.57-1.42
		c0.4-0.38,0.42-1.01,0.04-1.41S12.65,11.63,12.25,12.01z"/>
</g>
</svg>
