<?xml version="1.0" encoding="utf-8"?>
<svg version="1.1" xmlns="http://www.w3.org/2000/svg" xmlns:xlink="http://www.w3.org/1999/xlink" x="0px" y="0px" viewBox="0 0 20 20" style="enable-background:new 0 0 20 20;" xml:space="preserve">
	<path fill="#3A434C" d="M10,20C4.5,20,0,15.5,0,10S4.5,0,10,0c5.5,0,10,4.5,10,10S15.5,20,10,20z M10,1.8c-4.5,0-8.2,3.7-8.2,8.2 c0,4.5,3.7,8.2,8.2,8.2s8.2-3.7,8.2-8.2C18.2,5.5,14.5,1.8,10,1.8z"/>
	<path fill="#3A434C" d="M10,15.8c-1.6,0-3.1-0.8-4-2.1c-0.1-0.2-0.2-0.5-0.2-0.7c0-0.3,0.2-0.5,0.4-0.6c0.2-0.1,0.5-0.2,0.7-0.1 c0.2,0,0.5,0.2,0.6,0.4c0.6,0.8,1.5,1.3,2.4,1.3c1,0,1.9-0.5,2.4-1.3v0c0.1-0.2,0.4-0.4,0.6-0.4c0.3,0,0.5,0,0.7,0.1 c0.2,0.1,0.4,0.4,0.4,0.6c0,0.2,0,0.5-0.1,0.7C13.1,15,11.6,15.8,10,15.8z M6.6,13.3C6.6,13.3,6.6,13.3,6.6,13.3 C6.6,13.3,6.6,13.3,6.6,13.3z M12.7,9.1c-0.8,0-1.4-0.6-1.4-1.4c0-0.8,0.6-1.4,1.4-1.4c0.8,0,1.4,0.6,1.4,1.4 C14.1,8.5,13.5,9.1,12.7,9.1z M7.3,9.1c-0.8,0-1.4-0.6-1.4-1.4c0-0.8,0.6-1.4,1.4-1.4S8.7,7,8.7,7.7C8.7,8.5,8,9.1,7.3,9.1z"/>
</svg>
