<?xml version="1.0" encoding="utf-8"?>
<!-- Generator: Adobe Illustrator 19.1.0, SVG Export Plug-In . SVG Version: 6.00 Build 0)  -->
<svg version="1.1" id="Calque_1" xmlns="http://www.w3.org/2000/svg" xmlns:xlink="http://www.w3.org/1999/xlink" x="0px" y="0px"
	 viewBox="0 0 39.21 20" enable-background="new 0 0 39.21 20" xml:space="preserve">
<g>
	<rect x="20.12" y="0.01" fill="#3A434C" width="2.06" height="14.79"/>
	<rect x="25.13" y="5.23" fill="#3A434C" width="2.06" height="9.57"/>
	<rect x="0" y="0.03" fill="#3A434C" width="6.12" height="2.06"/>
	<path fill="#3A434C" d="M15.54,6.05c-0.76-0.51-1.68-0.81-2.66-0.81c-0.65,0-1.28,0.13-1.85,0.37c-0.86,0.36-1.58,0.96-2.09,1.72
		C8.42,8.09,8.12,9.02,8.12,10c0,0.65,0.13,1.28,0.37,1.85c0.36,0.86,0.96,1.58,1.72,2.09c0.76,0.51,1.68,0.81,2.66,0.81
		c0.65,0,1.28-0.13,1.85-0.37c0.86-0.36,1.58-0.96,2.09-1.72c0.51-0.76,0.81-1.68,0.81-2.66c0-0.65-0.13-1.28-0.37-1.85
		C16.91,7.29,16.3,6.57,15.54,6.05z M15.37,11.05c-0.2,0.48-0.55,0.9-0.98,1.19c-0.43,0.29-0.95,0.46-1.51,0.46
		c-0.38,0-0.73-0.08-1.05-0.21c-0.48-0.2-0.9-0.55-1.19-0.98c-0.29-0.43-0.46-0.95-0.46-1.51c0-0.38,0.08-0.73,0.21-1.05
		c0.2-0.48,0.55-0.9,0.98-1.19c0.43-0.29,0.95-0.46,1.51-0.46c0.38,0,0.73,0.08,1.05,0.21c0.48,0.2,0.9,0.55,1.19,0.98
		c0.29,0.43,0.46,0.95,0.46,1.51C15.58,10.37,15.51,10.73,15.37,11.05z"/>
	<path fill="#3A434C" d="M26.18,0c-0.55,0-1.02,0.47-1.02,1.02c0,0.56,0.47,1.03,1.02,1.03c0.56,0,1.03-0.47,1.03-1.03
		C27.21,0.47,26.74,0,26.18,0z"/>
	<path fill="#3A434C" d="M39.21,9.98c0-0.04,0-0.07,0-0.1V0.01h-2.06v6.06c-0.01-0.01-0.03-0.02-0.04-0.03
		c-0.76-0.51-1.68-0.81-2.66-0.81c-0.65,0-1.28,0.13-1.85,0.37c-0.86,0.36-1.58,0.96-2.09,1.72C29.99,8.08,29.69,9,29.69,9.98
		c0,0.65,0.13,1.28,0.37,1.85c0.36,0.86,0.96,1.58,1.72,2.09c0.76,0.51,1.68,0.81,2.66,0.81c0.65,0,1.28-0.13,1.85-0.37
		c0.3-0.13,0.58-0.29,0.85-0.47v0.9h2.06v-4.67C39.21,10.08,39.21,10.03,39.21,9.98z M36.94,11.03c-0.2,0.48-0.55,0.9-0.98,1.19
		c-0.43,0.29-0.95,0.46-1.51,0.46c-0.38,0-0.73-0.08-1.05-0.21c-0.48-0.2-0.9-0.55-1.19-0.98c-0.29-0.43-0.46-0.95-0.46-1.51
		c0-0.38,0.08-0.73,0.21-1.05c0.2-0.48,0.55-0.9,0.98-1.19c0.43-0.29,0.95-0.46,1.51-0.46c0.38,0,0.73,0.08,1.05,0.21
		c0.48,0.2,0.9,0.55,1.19,0.98c0.29,0.43,0.45,0.93,0.46,1.49v0.06C37.15,10.38,37.07,10.72,36.94,11.03z"/>
	<rect x="0" y="17.94" fill="#3A434C" width="6.12" height="2.06"/>
	<path fill="#3A434C" d="M0,12.06c0,0.29,0.05,0.58,0.15,0.84c0.01,0.02,0.02,0.05,0.03,0.07c0.02,0.04,0.03,0.09,0.05,0.13
		c0.01,0.03,0.03,0.06,0.04,0.09c0.01,0.02,0.02,0.03,0.03,0.05c0.26,0.49,0.65,0.87,1.11,1.14c0.35,0.2,0.75,0.34,1.17,0.4
		c0.15,0.02,0.31,0.03,0.47,0.03h0c0.2,0,0.39-0.02,0.58-0.05c0.57-0.1,1.09-0.34,1.51-0.7c0.25-0.21,0.46-0.46,0.62-0.75
		c0.02-0.04,0.05-0.08,0.07-0.12c0.11-0.23,0.19-0.48,0.24-0.74c0.02-0.13,0.03-0.26,0.03-0.39c0-0.47-0.13-0.92-0.36-1.29
		c-0.22-0.38-0.53-0.69-0.89-0.92L4.81,9.83L2.74,8.66l0,0L2.36,8.45C2.25,8.37,2.17,8.29,2.12,8.2C2.07,8.12,2.05,8.04,2.05,7.96
		c0-0.04,0-0.07,0.01-0.11c0.01-0.03,0.02-0.07,0.04-0.1c0.05-0.11,0.16-0.23,0.32-0.32c0.16-0.09,0.38-0.16,0.62-0.16
		c0.05,0,0.1,0,0.14,0.01C3.45,7.3,3.67,7.4,3.81,7.53C3.9,7.6,3.96,7.68,3.99,7.75c0.04,0.07,0.05,0.14,0.05,0.21h2.05v0h0
		c0-0.37-0.08-0.72-0.23-1.04C5.85,6.89,5.84,6.86,5.83,6.83C5.82,6.82,5.81,6.8,5.8,6.78C5.54,6.3,5.15,5.91,4.69,5.65
		C4.28,5.41,3.81,5.27,3.32,5.23C3.23,5.22,3.14,5.22,3.05,5.22h0c-0.2,0-0.39,0.02-0.58,0.05c-0.57,0.1-1.09,0.34-1.51,0.7
		C0.71,6.17,0.5,6.42,0.34,6.71C0.31,6.75,0.29,6.79,0.27,6.83c-0.11,0.23-0.2,0.48-0.24,0.74C0.01,7.7,0,7.83,0,7.96
		c0,0.47,0.13,0.92,0.36,1.29c0.22,0.38,0.53,0.69,0.89,0.92l0.03,0.02l2.08,1.17l0,0l0.37,0.21c0.11,0.08,0.19,0.16,0.24,0.24
		c0.05,0.09,0.07,0.16,0.07,0.25c0,0.04,0,0.07-0.01,0.11c-0.01,0.03-0.02,0.07-0.04,0.1c-0.05,0.11-0.16,0.23-0.32,0.32
		c-0.16,0.09-0.38,0.16-0.62,0.16c-0.08,0-0.16-0.01-0.23-0.02c-0.22-0.04-0.41-0.13-0.53-0.24c-0.08-0.07-0.14-0.15-0.18-0.22
		c-0.04-0.07-0.05-0.14-0.05-0.21L0,12.06L0,12.06L0,12.06z"/>
</g>
</svg>
