<svg viewBox="0 0 20 20"><path d="M6.5 18h7v2h-7v-2zm6.2-7.6c-.2-.4-.5-.7-.9-1L9.7 8.2 9.3 8 9 7.7v-.4c0-.1.2-.2.3-.3.2-.2.4-.3.7-.3h.1c.3 0 .5.1.6.3.1.1.1.2.2.2.1.1.1.2.1.3h2c0-.4-.1-.8-.2-1.1v-.2c-.3-.5-.6-.9-1.1-1.2-.4-.2-.9-.4-1.4-.4H10c-.2 0-.4 0-.6.1-.6 0-1.1.3-1.5.6-.3.3-.5.5-.7.8 0 .1-.1.1-.1.1 0 .3-.1.6-.2.9v.4c0 .5.1 1 .4 1.4s.5.7.9 1l2.1 1.2.4.2c.1.1.2.2.2.3s.1.2.1.3v.2l-.3.3c-.2.1-.4.2-.6.2h-.2c-.2 0-.4-.1-.5-.2-.3-.2-.4-.3-.4-.4v-.2H7c0 .3.1.6.2.9v.1c0 .1 0 .1.1.1v.2c.3.5.7.9 1.1 1.2.4.2.8.4 1.2.4h.5c.2 0 .4 0 .6-.1.6-.1 1.1-.4 1.5-.7.2-.2.5-.5.6-.8l.1-.1c.1-.2.2-.5.2-.8v-.4c-.1-.5-.2-1-.4-1.4zM6.5 0h7v2h-7V0z"/></svg>