<?xml version="1.0" encoding="utf-8"?>
<!-- Generator: Adobe Illustrator 19.1.0, SVG Export Plug-In . SVG Version: 6.00 Build 0)  -->
<svg version="1.1" id="Calque_1" xmlns="http://www.w3.org/2000/svg" xmlns:xlink="http://www.w3.org/1999/xlink" x="0px" y="0px"
	 viewBox="0 0 20 20" enable-background="new 0 0 20 20" xml:space="preserve">
<g>
	<rect x="6.5" fill="#3A434C" width="6.97" height="2"/>
	<rect x="6.5" y="18.01" fill="#3A434C" width="7" height="1.99"/>
	<path fill="#3A434C" d="M9.02,7.24C9.07,7.13,9.18,7,9.35,6.9c0.16-0.1,0.38-0.17,0.62-0.17l0.14,0.01
		c0.26,0.03,0.48,0.13,0.63,0.27l0.18,0.23l0.05,0.22h2.06v0c0-0.39-0.08-0.76-0.23-1.1l-0.04-0.09l-0.03-0.05
		c-0.26-0.51-0.65-0.92-1.12-1.2c-0.41-0.25-0.87-0.4-1.37-0.44c-0.09-0.01-0.18-0.01-0.28-0.01h0c-0.2,0-0.39,0.02-0.58,0.05
		c-0.57,0.1-1.09,0.36-1.51,0.73C7.62,5.58,7.41,5.84,7.25,6.14L7.18,6.27c-0.11,0.24-0.2,0.51-0.24,0.79
		c-0.02,0.13-0.03,0.27-0.03,0.4c0,0.49,0.13,0.97,0.36,1.37c0.23,0.4,0.54,0.73,0.9,0.98L8.2,9.82l2.08,1.24l0,0l0.37,0.22
		c0.11,0.08,0.19,0.17,0.24,0.26c0.05,0.09,0.07,0.17,0.07,0.26l-0.01,0.11l-0.04,0.11c-0.05,0.11-0.16,0.24-0.33,0.34
		c-0.16,0.1-0.38,0.17-0.62,0.17l-0.23-0.02c-0.22-0.04-0.41-0.14-0.54-0.25l-0.18-0.23L8.97,11.8H6.91v0
		c0,0.31,0.05,0.61,0.15,0.89l0.03,0.07l0.05,0.14l0.04,0.09l0.03,0.05c0.26,0.51,0.65,0.92,1.12,1.2c0.35,0.21,0.75,0.36,1.18,0.42
		c0.15,0.02,0.31,0.03,0.47,0.03h0c0.2,0,0.39-0.02,0.58-0.05c0.57-0.1,1.09-0.36,1.51-0.73c0.25-0.22,0.46-0.49,0.62-0.79
		l0.07-0.13c0.11-0.24,0.19-0.5,0.24-0.78c0.02-0.13,0.03-0.27,0.03-0.41c0-0.49-0.13-0.97-0.36-1.37c-0.22-0.4-0.54-0.73-0.9-0.98
		l-0.03-0.02L9.66,8.2l0,0L9.28,7.98C9.17,7.9,9.09,7.81,9.04,7.72C8.99,7.63,8.97,7.55,8.97,7.46l0.01-0.11L9.02,7.24z"/>
</g>
</svg>
