<?xml version="1.0" encoding="UTF-8" standalone="no"?>
<svg width="20px" height="20px" viewBox="0 0 20 20" version="1.1" xmlns="http://www.w3.org/2000/svg" xmlns:xlink="http://www.w3.org/1999/xlink" xmlns:sketch="http://www.bohemiancoding.com/sketch/ns">
    <!-- Generator: Sketch 3.4.2 (15857) - http://www.bohemiancoding.com/sketch -->
    <title>solid</title>
    <desc>Created with Sketch.</desc>
    <defs></defs>
    <g id="Page-1" stroke="none" stroke-width="1" fill="none" fill-rule="evenodd" sketch:type="MSPage">
        <g id="solid" sketch:type="MSArtboardGroup" transform="translate(-6.000000, -6.000000)" fill="#3A434C">
            <path d="M13,6 L19.9749576,6 L19.9749575,8.00280762 L12.9999999,8.00280762 L13,6 Z M19.1652211,16.4346447 C18.940302,16.0354428 18.6289948,15.7067105 18.267215,15.457492 L18.2394133,15.4383986 L16.1565545,14.1999685 L16.1552419,14.2023551 L15.7803369,13.9795156 C15.6694881,13.9001274 15.5895434,13.8081779 15.5414572,13.722509 C15.491104,13.6311875 15.4708195,13.5515481 15.4702229,13.4619852 C15.4704615,13.4235472 15.4743991,13.3869935 15.4826322,13.350691 C15.4909847,13.3145141 15.503752,13.2784629 15.5214114,13.2402762 C15.5740317,13.1274746 15.6817782,12.9992225 15.8467984,12.8998617 C16.0108641,12.8005009 16.2257604,12.7337998 16.468339,12.734051 C16.5170217,12.7339254 16.5641533,12.737317 16.610569,12.7422159 C16.871523,12.7709816 17.0917886,12.8771256 17.2358085,13.0072619 C17.3210033,13.0832584 17.3794704,13.164782 17.4150279,13.2402762 C17.4505854,13.3163983 17.4658584,13.3849837 17.4663357,13.4621108 L19.5242565,13.4621108 L19.5242565,13.4619852 C19.5246145,13.0749679 19.4418061,12.7011401 19.2980249,12.3668808 C19.284661,12.3357285 19.2714164,12.3044505 19.2569786,12.2739263 C19.2485068,12.2559635 19.2384839,12.2393824 19.2295349,12.2217964 C18.9733537,11.7092906 18.5794767,11.3020494 18.1134108,11.0204224 C17.7055733,10.7744699 17.2387915,10.6223511 16.74385,10.5805216 C16.6528085,10.5729847 16.561051,10.5675833 16.468339,10.5675833 L16.4682196,10.5675833 C16.269193,10.5678345 16.073746,10.5857974 15.8836685,10.6204669 C15.3135551,10.7243498 14.7921244,10.9785929 14.3691332,11.3553098 C14.1227364,11.5756371 13.9124936,11.8420647 13.7495018,12.1444181 C13.726115,12.1876293 13.700819,12.2292076 13.67958,12.2739263 C13.5646743,12.5159848 13.4836557,12.7815332 13.4427288,13.0590149 C13.4232795,13.191161 13.4121827,13.3258194 13.4123021,13.4621108 C13.4115861,13.9570307 13.5464183,14.4298424 13.7712181,14.8275369 C13.9962566,15.2264875 14.3074445,15.5552198 14.6693436,15.804564 L14.6971453,15.8235317 L16.7798848,17.0622131 L16.7813167,17.0595752 L17.1562217,17.282666 C17.2670705,17.3619285 17.3470152,17.4538781 17.394982,17.5394214 C17.4454546,17.6307429 17.4656198,17.7105079 17.4663357,17.7999452 C17.4660971,17.8385087 17.4621595,17.8749368 17.4539264,17.9112393 C17.4455739,17.9474162 17.4328066,17.9837187 17.4151472,18.0217798 C17.3625269,18.1344557 17.2547804,18.2628334 17.0897602,18.3621942 C16.9256945,18.4614294 16.7107982,18.5282562 16.4682196,18.5281306 C16.3874397,18.5282562 16.3096427,18.5208449 16.2357833,18.5074042 C16.0143244,18.466454 15.8279458,18.3697311 15.7007501,18.2547941 C15.6155553,18.1786719 15.5570882,18.0971483 15.5215307,18.0217798 C15.4859732,17.945532 15.4705809,17.8770723 15.4702229,17.7998196 L13.4123021,17.7998196 L13.4123021,17.7999452 C13.4119441,18.1084536 13.4646838,18.4086715 13.558589,18.6872837 C13.5667028,18.711276 13.5755325,18.7351427 13.5842429,18.7587582 C13.6011864,18.8049842 13.6193231,18.8503309 13.6385337,18.8950496 C13.6518976,18.9262019 13.6651422,18.9577311 13.67958,18.9880041 C13.6880518,19.0059669 13.698194,19.0226736 13.7069044,19.0403852 C13.9632048,19.5527654 14.3570819,19.9600066 14.8231478,20.2416336 C15.1778876,20.4555545 15.5772534,20.5986291 16.0009605,20.6600544 C16.1539294,20.6820369 16.3098813,20.6942214 16.4682196,20.6943471 L16.468339,20.6943471 C16.6673656,20.6940958 16.8628126,20.6762586 17.0528901,20.6415891 C17.6230035,20.537455 18.1444342,20.2833375 18.5674254,19.9066206 C18.8138222,19.6864189 19.024065,19.4199912 19.1871761,19.1176379 C19.2104436,19.0744266 19.2357395,19.0328483 19.2569786,18.9880041 C19.371049,18.7477042 19.451829,18.4841656 19.4929946,18.2085681 C19.5129211,18.074789 19.5243759,17.9382464 19.5242565,17.7998196 C19.5249725,17.3048997 19.3901403,16.8323392 19.1652211,16.4346447 Z M13,24.0053711 L20,24.0053711 L20,26 L13,26 L13,24.0053711 Z" id="solid-" sketch:type="MSShapeGroup"></path>
        </g>
    </g>
</svg>