<svg xmlns="http://www.w3.org/2000/svg" width="70" height="38" viewBox="0 0 70 38"><rect y="0.06" width="10.92" height="3.91"/><rect y="34.1" width="10.92" height="3.9"/><path d="M7.12,23.32a1.48,1.48,0,0,1-.58.61,2.12,2.12,0,0,1-1.11.3,2.21,2.21,0,0,1-.41,0,2,2,0,0,1-1-.45,1.33,1.33,0,0,1-.32-0.42,0.92,0.92,0,0,1-.09-0.4H0a5,5,0,0,0,.26,1.6l0,0.13,0.1,0.25,0.07,0.17,0,0.09a5.27,5.27,0,0,0,2,2.16,5.57,5.57,0,0,0,2.1.75,5.68,5.68,0,0,0,1.87,0,5.51,5.51,0,0,0,2.69-1.32,5.22,5.22,0,0,0,1.1-1.42l0.12-.23a5,5,0,0,0-.16-4.59,5.27,5.27,0,0,0-1.6-1.76l0,0L4.89,16.45h0l-0.67-.4a1.47,1.47,0,0,1-.42-0.46,0.94,0.94,0,0,1-.13-0.47,0.93,0.93,0,0,1,0-.2,1,1,0,0,1,.07-0.2,1.48,1.48,0,0,1,.58-0.61,2.13,2.13,0,0,1,1.11-.3l0.25,0a2,2,0,0,1,1.11.48,1.34,1.34,0,0,1,.32.42,0.93,0.93,0,0,1,.09.4h3.66a5,5,0,0,0-.4-2L10.4,13l0-.09a5.27,5.27,0,0,0-2-2.16,5.58,5.58,0,0,0-2.44-.79l-0.49,0a5.77,5.77,0,0,0-1,.1,5.51,5.51,0,0,0-2.69,1.32A5.22,5.22,0,0,0,.6,12.75c0,0.08-.09.15-0.12,0.23a5,5,0,0,0-.42,1.41,5,5,0,0,0,.58,3.18,5.27,5.27,0,0,0,1.6,1.76l0,0L6,21.59H6L6.66,22a1.47,1.47,0,0,1,.42.46,0.94,0.94,0,0,1,.13.47,0.93,0.93,0,0,1,0,.2A1,1,0,0,1,7.12,23.32Z" transform="translate(0 0)"/><path d="M70,19h0q0-.15,0-0.3V0H66.33V11.52l-0.07-.05a8.07,8.07,0,0,0-8.06-.83,8.66,8.66,0,0,0-3.74,3.27A9.42,9.42,0,0,0,53,19a9.53,9.53,0,0,0,.67,3.52,9,9,0,0,0,3.08,4,8.07,8.07,0,0,0,8.06.83,8.36,8.36,0,0,0,1.51-.89v1.7H70V19.27q0-.15,0-0.3h0Zm-3.67.14A5.39,5.39,0,0,1,65.95,21a5.11,5.11,0,0,1-1.75,2.26,4.58,4.58,0,0,1-4.57.47,4.93,4.93,0,0,1-2.12-1.86A5.33,5.33,0,0,1,56.68,19a5.39,5.39,0,0,1,.38-2,5.1,5.1,0,0,1,1.75-2.26,4.58,4.58,0,0,1,4.57-.47,4.93,4.93,0,0,1,2.12,1.86,5.33,5.33,0,0,1,.82,2.73V19.1Z" transform="translate(0 0)"/><path d="M46.73,0a1.91,1.91,0,0,0-1.82,1.93,1.83,1.83,0,1,0,3.66,0A1.91,1.91,0,0,0,46.73,0Z" transform="translate(0 0)"/><rect x="44.87" y="9.93" width="3.67" height="18.18"/><path d="M30.83,15.48a9,9,0,0,0-3.08-4,8.07,8.07,0,0,0-8.06-.83A8.66,8.66,0,0,0,16,13.94,9.43,9.43,0,0,0,14.5,19a9.52,9.52,0,0,0,.67,3.52,9,9,0,0,0,3.08,4,8.07,8.07,0,0,0,8.06.83A8.66,8.66,0,0,0,30,24.05,9.42,9.42,0,0,0,31.49,19,9.53,9.53,0,0,0,30.83,15.48ZM27.44,21a5.11,5.11,0,0,1-1.75,2.26,4.58,4.58,0,0,1-4.57.47A4.93,4.93,0,0,1,19,21.87,5.33,5.33,0,0,1,18.17,19a5.4,5.4,0,0,1,.38-2,5.1,5.1,0,0,1,1.75-2.26,4.58,4.58,0,0,1,4.57-.47A4.93,4.93,0,0,1,27,16.13,5.33,5.33,0,0,1,27.82,19,5.39,5.39,0,0,1,27.44,21Z" transform="translate(0 0)"/><rect x="35.91" y="0.01" width="3.67" height="28.09"/></svg>
