<?xml version="1.0" encoding="utf-8"?>
<!-- Generator: Adobe Illustrator 19.1.0, SVG Export Plug-In . SVG Version: 6.00 Build 0)  -->
<svg version="1.1" id="Calque_1" xmlns="http://www.w3.org/2000/svg" xmlns:xlink="http://www.w3.org/1999/xlink" x="0px" y="0px"
	 viewBox="0 0 20 20" enable-background="new 0 0 20 20" xml:space="preserve">
<g>
	<rect x="6.92" y="8.63" fill="none" width="1.05" height="1.8"/>
	<rect x="9.47" y="8.63" fill="none" width="1.06" height="1.8"/>
	<rect x="12.03" y="8.63" fill="none" width="1.05" height="1.8"/>
	<path fill="none" d="M12.87,15.04c0-0.2,0.08-0.39,0.22-0.53s0.33-0.22,0.53-0.22h3.63V1.76l-0.08-0.18L16.96,1.5H3.04L2.83,1.58
		L2.75,1.76v16.47l0.08,0.18l0.21,0.08h9.84V15.04z M5.64,11.56c-0.14-0.14-0.22-0.33-0.22-0.53V4.72c0-0.2,0.08-0.39,0.22-0.53
		l0.15-0.15C5.92,3.9,6.12,3.82,6.31,3.82h7.37c0.2,0,0.39,0.08,0.53,0.22l0.15,0.15c0.14,0.14,0.22,0.33,0.22,0.53v6.32
		c0,0.2-0.08,0.39-0.22,0.53l-0.15,0.15c-0.14,0.14-0.33,0.22-0.53,0.22H6.31c-0.2,0-0.39-0.08-0.53-0.22L5.64,11.56z"/>
	<rect x="12.03" y="5.32" fill="none" width="1.05" height="1.8"/>
	<rect x="9.47" y="5.32" fill="none" width="1.06" height="1.8"/>
	<rect x="6.92" y="5.32" fill="none" width="1.05" height="1.8"/>
	<path fill="#3A434C" d="M13.69,11.93c0.2,0,0.39-0.08,0.53-0.22l0.15-0.15c0.14-0.14,0.22-0.33,0.22-0.53V4.72
		c0-0.2-0.08-0.39-0.22-0.53l-0.15-0.15c-0.14-0.14-0.33-0.22-0.53-0.22H6.31c-0.2,0-0.39,0.08-0.53,0.22L5.64,4.19
		C5.5,4.33,5.42,4.52,5.42,4.72v6.32c0,0.2,0.08,0.39,0.22,0.53l0.15,0.15c0.14,0.14,0.33,0.22,0.53,0.22H13.69z M6.92,8.63h1.05
		v1.8H6.92V8.63z M9.47,8.63h1.06v1.8H9.47V8.63z M12.03,8.63h1.05v1.8h-1.05V8.63z M13.08,7.13h-1.05v-1.8h1.05V7.13z M10.53,7.13
		H9.47v-1.8h1.06V7.13z M7.97,7.13H6.92v-1.8h1.05V7.13z"/>
	<path fill="#3A434C" d="M18.75,14.96V1.76c0-0.99-0.81-1.76-1.79-1.76H3.04C2.06,0,1.25,0.78,1.25,1.76v16.47
		c0,0.99,0.81,1.76,1.79,1.76h10.55c0.01,0,0.02-0.01,0.03-0.01c0.2,0,0.39-0.07,0.54-0.21l4.19-4.17
		C18.58,15.49,18.75,15.25,18.75,14.96z M2.83,18.42l-0.08-0.18V1.76l0.08-0.18L3.04,1.5h13.93l0.21,0.08l0.08,0.18v12.53h-3.63
		c-0.2,0-0.39,0.08-0.53,0.22s-0.22,0.33-0.22,0.53v3.46H3.04L2.83,18.42z"/>
</g>
</svg>
