<?xml version="1.0" encoding="utf-8"?>
<!-- Generator: Adobe Illustrator 19.2.1, SVG Export Plug-In . SVG Version: 6.00 Build 0)  -->
<svg version="1.1" id="Calque_1" xmlns="http://www.w3.org/2000/svg" xmlns:xlink="http://www.w3.org/1999/xlink" x="0px" y="0px"
	 viewBox="0 0 20 20" style="enable-background:new 0 0 20 20;" xml:space="preserve">
<style type="text/css">
	.st0{fill:#3A434C;}
</style>
<path class="st0" d="M13.7,11.9c0.2,0,0.4-0.1,0.5-0.2l0.1-0.1c0.1-0.1,0.2-0.3,0.2-0.5V4.7c0-0.2-0.1-0.4-0.2-0.5L14.2,4
	c-0.1-0.1-0.3-0.2-0.5-0.2H6.3C6.1,3.8,5.9,3.9,5.8,4L5.6,4.2C5.5,4.3,5.4,4.5,5.4,4.7V11c0,0.2,0.1,0.4,0.2,0.5l0.2,0.1
	c0.1,0.1,0.3,0.2,0.5,0.2L13.7,11.9L13.7,11.9z M6.9,8.6H8v1.8H6.9V8.6z M9.5,8.6h1.1v1.8H9.5V8.6z M12,8.6h1.1v1.8H12V8.6z
	 M13.1,7.1H12V5.3h1.1V7.1z M10.5,7.1H9.5V5.3h1.1C10.5,5.3,10.5,7.1,10.5,7.1z M8,7.1h-1V5.3H8C8,5.3,8,7.1,8,7.1z"/>
<path class="st0" d="M18.8,15V1.8c0-1-0.8-1.8-1.8-1.8H3c-1,0-1.8,0.8-1.8,1.8v16.5c0,1,0.8,1.8,1.8,1.8h10.6c0,0,0,0,0,0
	c0.2,0,0.4-0.1,0.5-0.2l4.2-4.2C18.6,15.5,18.8,15.2,18.8,15z M2.8,18.4l-0.1-0.2V1.8l0.1-0.2L3,1.5H17l0.2,0.1l0.1,0.2v12.5h-3.6
	c-0.2,0-0.4,0.1-0.5,0.2s-0.2,0.3-0.2,0.5v3.5H3L2.8,18.4z"/>
</svg>
