<svg viewBox="0 0 20 20"><path d="M13.7 11.9c.2 0 .4-.1.5-.2l.1-.1c.1-.1.2-.3.2-.5V4.7c0-.2-.1-.4-.2-.5l-.1-.2c-.1-.1-.3-.2-.5-.2H6.3c-.2 0-.4.1-.5.2l-.2.2c-.1.1-.2.3-.2.5V11c0 .2.1.4.2.5l.2.1c.1.1.3.2.5.2l7.4.1zM6.9 8.6H8v1.8H6.9V8.6zm2.6 0h1.1v1.8H9.5V8.6zm2.5 0h1.1v1.8H12V8.6zm1.1-1.5H12V5.3h1.1v1.8zm-2.6 0h-1V5.3h1.1c-.1 0-.1 1.8-.1 1.8zM8 7.1H7V5.3h1v1.8z"/><path d="M18.8 15V1.8C18.8.8 18 0 17 0H3C2 0 1.2.8 1.2 1.8v16.5c0 1 .8 1.8 1.8 1.8h10.6c.2 0 .4-.1.5-.2l4.2-4.2c.3-.2.5-.5.5-.7zm-16 3.4l-.1-.2V1.8l.1-.2.2-.1h14l.2.1.1.2v12.5h-3.6c-.2 0-.4.1-.5.2s-.2.3-.2.5v3.5H3l-.2-.1z"/></svg>