<?xml version="1.0" encoding="utf-8"?>
<!-- Generator: Adobe Illustrator 19.1.0, SVG Export Plug-In . SVG Version: 6.00 Build 0)  -->
<svg version="1.1" id="Calque_1" xmlns="http://www.w3.org/2000/svg" xmlns:xlink="http://www.w3.org/1999/xlink" x="0px" y="0px"
	 viewBox="0 0 20 20" enable-background="new 0 0 20 20" xml:space="preserve">
<g>
	<path fill="#3A434C" d="M19.97,7.58c-0.06-0.19-0.23-0.32-0.43-0.34l-4.12-0.37l-2.41-0.22L12.07,4.3l-1.61-3.99
		C10.39,0.12,10.2,0,10,0S9.61,0.12,9.54,0.31L7.93,4.3L6.98,6.65L4.58,6.87L0.46,7.24c-0.2,0.02-0.37,0.15-0.43,0.34
		c-0.06,0.19-0.01,0.4,0.14,0.53l3.13,2.85l1.85,1.68l-0.56,2.51l-0.94,4.24c-0.04,0.2,0.04,0.4,0.2,0.52
		c0.17,0.12,0.38,0.12,0.56,0.01l3.54-2.25L10,16.36l2.06,1.31l3.54,2.25c0.17,0.11,0.39,0.1,0.56-0.01
		c0.17-0.12,0.24-0.32,0.2-0.52l-0.94-4.24l-0.56-2.51l1.85-1.69l3.13-2.85C19.98,7.97,20.04,7.76,19.97,7.58z"/>
</g>
</svg>
