<svg viewBox="0 0 20 20"><path d="M20 7.5c-.1-.4-.5-.6-.9-.7l-3.9-.3-2-.2-.8-1.9L10.9.6c-.1-.4-.5-.6-.9-.6s-.8.2-.9.6L7.6 4.4l-.8 1.9-2 .2-3.9.4c-.4 0-.7.3-.9.6s0 .8.3 1.1l3 2.7 1.5 1.4-.5 2.1-.9 4c-.1.4.1.8.4 1 .3.2.8.2 1.1 0l3.3-2.1 1.7-1.1 1.7 1.1 3.4 2.1c.3.2.8.2 1.1 0 .3-.2.5-.6.4-1l-.9-4-.5-2.1 1.5-1.4 3-2.7c.4-.3.5-.7.4-1.1zm-6.6 4.1c-.3.2-.4.6-.3 1l.6 2.7.4 1.7-1.3-1-2.2-1.4c-.3-.2-.7-.2-1.1 0L7.3 16l-1.3.8.4-1.7.6-2.7c.1-.4 0-.7-.3-1l-2-1.8-1.4-1L5 8.5l2.6-.2c.4 0 .7-.3.8-.6l1-2.5.6-1.5.6 1.5 1 2.5c.1.3.5.6.8.6l2.6.2 1.6.1-1.3 1.2-1.9 1.8z"/></svg>