<?xml version="1.0" encoding="utf-8"?>
<!-- Generator: Adobe Illustrator 19.1.0, SVG Export Plug-In . SVG Version: 6.00 Build 0)  -->
<svg version="1.1" id="Calque_1" xmlns="http://www.w3.org/2000/svg" xmlns:xlink="http://www.w3.org/1999/xlink" x="0px" y="0px"
	 viewBox="0 0 20 20" enable-background="new 0 0 20 20" xml:space="preserve">
<g>
	<path fill="none" d="M15.01,8.5l-2.57-0.23C12.06,8.24,11.74,8,11.6,7.65l-1-2.49L10,3.68L9.41,5.15l-1,2.49
		C8.26,8,7.94,8.24,7.56,8.27L4.99,8.5L3.35,8.65l1.28,1.17l1.95,1.78c0.26,0.24,0.38,0.61,0.3,0.96L6.3,15.2l-0.37,1.66l1.32-0.84
		l2.21-1.4c0.33-0.21,0.74-0.21,1.07,0l2.21,1.4l1.32,0.84L13.7,15.2l-0.59-2.65c-0.08-0.35,0.04-0.71,0.3-0.96l1.95-1.78l1.28-1.17
		L15.01,8.5z"/>
	<path fill="#3A434C" d="M19.95,7.53c-0.13-0.37-0.47-0.64-0.86-0.68l-3.9-0.35l-1.96-0.18l-0.78-1.93l-1.52-3.78
		C10.78,0.25,10.41,0,10,0C9.59,0,9.22,0.25,9.07,0.63L7.55,4.41L6.78,6.33L4.81,6.51l-3.9,0.35c-0.39,0.04-0.73,0.3-0.86,0.68
		S0.03,8.33,0.33,8.59l2.96,2.7l1.53,1.39l-0.46,2.08l-0.89,4.02c-0.09,0.39,0.07,0.8,0.4,1.04c0.33,0.23,0.77,0.24,1.11,0.03
		l3.35-2.13L10,16.65l1.67,1.06l3.35,2.13c0.34,0.22,0.78,0.21,1.11-0.03c0.33-0.23,0.49-0.64,0.4-1.04l-0.89-4.02l-0.46-2.08
		l1.52-1.39l2.96-2.7C19.97,8.33,20.07,7.91,19.95,7.53z M13.41,11.6c-0.26,0.24-0.38,0.61-0.3,0.96l0.59,2.65l0.37,1.66l-1.32-0.84
		l-2.21-1.4c-0.33-0.21-0.74-0.21-1.07,0l-2.21,1.4l-1.32,0.84L6.3,15.2l0.59-2.65c0.08-0.35-0.04-0.71-0.3-0.96L4.64,9.82
		L3.35,8.65L4.99,8.5l2.57-0.23C7.94,8.24,8.26,8,8.4,7.65l1-2.49L10,3.68l0.59,1.48l1,2.49c0.14,0.35,0.46,0.59,0.84,0.62
		l2.57,0.23l1.64,0.15l-1.28,1.17L13.41,11.6z"/>
</g>
</svg>
