<?xml version="1.0" encoding="utf-8"?>
<!-- Generator: Adobe Illustrator 19.1.0, SVG Export Plug-In . SVG Version: 6.00 Build 0)  -->
<svg version="1.1" id="Calque_1" xmlns="http://www.w3.org/2000/svg" xmlns:xlink="http://www.w3.org/1999/xlink" x="0px" y="0px"
	 viewBox="0 0 20 20" enable-background="new 0 0 20 20" xml:space="preserve">
<g>
	<path fill="#3A434C" d="M8.83,11c0.19,0.25,0.49,0.4,0.8,0.4c0.31,0,0.61-0.15,0.8-0.4l1.41-1.88l1.25,1.74
		c0.2,0.28,0.53,0.44,0.88,0.41s0.65-0.22,0.82-0.52l3.31-6.15c0.26-0.49,0.08-1.09-0.41-1.35s-1.09-0.08-1.35,0.41L13.78,8.4
		l-1.11-1.55c-0.19-0.26-0.48-0.41-0.8-0.42c-0.32,0-0.62,0.15-0.81,0.4l-1.42,1.9L8.26,6.9c-0.2-0.27-0.52-0.42-0.85-0.4
		C7.08,6.52,6.78,6.7,6.61,6.98l-3.01,4.94C3.31,12.39,3.46,13,3.93,13.29c0.47,0.29,1.09,0.14,1.37-0.33h0l2.24-3.67L8.83,11z"/>
	<path fill="#3A434C" d="M19,17H2V2c0-0.55-0.45-1-1-1S0,1.45,0,2v16c0,0.26,0.11,0.52,0.29,0.71S0.74,19,1,19h18c0.55,0,1-0.45,1-1
		C20,17.45,19.55,17,19,17z"/>
</g>
</svg>
