<?xml version="1.0" encoding="utf-8"?>
<!-- Generator: Adobe Illustrator 19.1.0, SVG Export Plug-In . SVG Version: 6.00 Build 0)  -->
<svg version="1.1" baseProfile="tiny" xmlns="http://www.w3.org/2000/svg" xmlns:xlink="http://www.w3.org/1999/xlink" x="0px"
	 y="0px" width="20px" height="20px" viewBox="0 0 20 20" xml:space="preserve">
<g id="Calque_2">
</g>
<g id="Calque_1">
	<g>
		<path fill="#3B444D" d="M5.33,13.5l2.23-3.29l1.3,1.56c0.19,0.23,0.47,0.36,0.77,0.36c0.3,0,0.58-0.13,0.77-0.36l1.42-1.7
			l1.26,1.58c0.2,0.26,0.52,0.4,0.85,0.37c0.33-0.02,0.62-0.2,0.79-0.48l3.27-5.47c0.28-0.47,0.13-1.09-0.35-1.37
			c-0.47-0.28-1.09-0.13-1.37,0.35l-2.53,4.24l-1.12-1.41c-0.19-0.23-0.47-0.37-0.77-0.38c-0.3,0-0.59,0.13-0.78,0.36L9.63,9.57
			L8.25,7.91c-0.2-0.24-0.5-0.38-0.82-0.36c-0.31,0.02-0.6,0.18-0.78,0.44l-2.98,4.4c-0.31,0.46-0.19,1.08,0.27,1.39
			S5.02,13.96,5.33,13.5z"/>
		<path fill="#3B444D" d="M19,17.02H2V1.97c0-0.55-0.45-1-1-1c-0.55,0-1,0.45-1,1v16.05c0,0.26,0.11,0.52,0.29,0.71
			S0.74,19.02,1,19.02h18c0.55,0,1-0.45,1-1S19.55,17.02,19,17.02z"/>
	</g>
</g>
</svg>
