<?xml version="1.0" encoding="utf-8"?>
<!-- Generator: Adobe Illustrator 19.1.0, SVG Export Plug-In . SVG Version: 6.00 Build 0)  -->
<svg version="1.1" baseProfile="tiny" xmlns="http://www.w3.org/2000/svg" xmlns:xlink="http://www.w3.org/1999/xlink" x="0px"
	 y="0px" width="20px" height="20px" viewBox="0 0 20 20" xml:space="preserve">
<g id="Calque_2">
</g>
<g id="Calque_1">
	<g>
		<path fill="none" d="M10.01,0.7c-5.13,0-9.3,4.17-9.3,9.3s4.17,9.3,9.3,9.3s9.3-4.17,9.3-9.3S15.14,0.7,10.01,0.7z M7.27,11.09
			L8.6,9.14c0.06-0.09,0.16-0.15,0.27-0.15c0.11-0.01,0.22,0.04,0.29,0.13l0.68,0.83l0.71-0.85c0.07-0.08,0.17-0.13,0.27-0.13
			s0.2,0.05,0.27,0.13l0.58,0.73l1.2-2c0.1-0.17,0.31-0.22,0.48-0.12c0.17,0.1,0.22,0.31,0.12,0.48l-1.45,2.43
			c-0.06,0.1-0.16,0.16-0.28,0.17s-0.23-0.04-0.3-0.13l-0.63-0.79l-0.7,0.85c-0.07,0.08-0.17,0.13-0.27,0.13
			c-0.1,0-0.2-0.05-0.27-0.13L8.92,9.92l-1.06,1.57c-0.11,0.16-0.33,0.2-0.49,0.09C7.21,11.47,7.17,11.25,7.27,11.09z M14.01,13.89
			h-8c-0.09,0-0.18-0.04-0.25-0.1s-0.1-0.16-0.1-0.25V6.41c0-0.19,0.16-0.35,0.35-0.35s0.35,0.16,0.35,0.35v6.78h7.65
			c0.19,0,0.35,0.16,0.35,0.35S14.2,13.89,14.01,13.89z"/>
		<path fill="#3B444D" d="M10.01,0c-5.52,0-10,4.48-10,10c0,5.52,4.48,10,10,10c5.52,0,10-4.48,10-10C20.01,4.48,15.53,0,10.01,0z
			 M10.01,19.3c-5.13,0-9.3-4.17-9.3-9.3s4.17-9.3,9.3-9.3s9.3,4.17,9.3,9.3S15.14,19.3,10.01,19.3z"/>
		<path fill="#3B444D" d="M7.85,11.48l1.06-1.57l0.66,0.79c0.07,0.08,0.17,0.13,0.27,0.13c0.1,0,0.2-0.05,0.27-0.13l0.7-0.85
			l0.63,0.79c0.07,0.09,0.18,0.14,0.3,0.13s0.22-0.07,0.28-0.17l1.45-2.43c0.1-0.17,0.05-0.38-0.12-0.48
			c-0.17-0.1-0.38-0.05-0.48,0.12l-1.2,2l-0.58-0.73c-0.07-0.08-0.16-0.13-0.27-0.13S10.62,9,10.55,9.08L9.84,9.93L9.16,9.11
			C9.09,9.02,8.98,8.98,8.87,8.98C8.76,8.99,8.66,9.05,8.6,9.14l-1.32,1.95c-0.11,0.16-0.07,0.38,0.09,0.49
			C7.53,11.68,7.75,11.64,7.85,11.48z"/>
		<path fill="#3B444D" d="M14.01,13.19H6.36V6.41c0-0.19-0.16-0.35-0.35-0.35S5.66,6.22,5.66,6.41v7.13c0,0.09,0.04,0.18,0.1,0.25
			s0.16,0.1,0.25,0.1h8c0.19,0,0.35-0.16,0.35-0.35S14.2,13.19,14.01,13.19z"/>
	</g>
</g>
</svg>
