<?xml version="1.0" encoding="UTF-8" standalone="no"?>
<svg width="20px" height="20px" viewBox="0 0 20 20" version="1.1" xmlns="http://www.w3.org/2000/svg" xmlns:xlink="http://www.w3.org/1999/xlink" xmlns:sketch="http://www.bohemiancoding.com/sketch/ns">
    <!-- Generator: Sketch 3.4.2 (15857) - http://www.bohemiancoding.com/sketch -->
    <title>stop</title>
    <desc>Created with Sketch.</desc>
    <defs></defs>
    <g id="Page-1" stroke="none" stroke-width="1" fill="none" fill-rule="evenodd" sketch:type="MSPage">
        <g id="stop" sketch:type="MSArtboardGroup" transform="translate(-6.000000, -6.000000)" fill="#3A434C">
            <path d="M22.8181818,6 L9.18181818,6 C8.34545455,6 7.52727273,6.34090909 6.93181818,6.93181818 C6.34090909,7.52272727 6,8.34545455 6,9.18181818 L6,22.8181818 C6,23.6545455 6.34090909,24.4772727 6.93181818,25.0681818 C7.52727273,25.6590909 8.34545455,26 9.18181818,26 L22.8181818,26 C23.6545455,26 24.4772727,25.6590909 25.0681818,25.0681818 C25.6636364,24.4772727 26,23.6545455 26,22.8181818 L26,9.18181818 C26,8.34545455 25.6636364,7.52272727 25.0681818,6.93181818 C24.4772727,6.34090909 23.6590909,6 22.8181818,6 Z" sketch:type="MSShapeGroup"></path>
        </g>
    </g>
</svg>