<?xml version="1.0" encoding="utf-8"?>
<!-- Generator: Adobe Illustrator 19.2.1, SVG Export Plug-In . SVG Version: 6.00 Build 0)  -->
<svg version="1.1" id="Calque_1" xmlns="http://www.w3.org/2000/svg" xmlns:xlink="http://www.w3.org/1999/xlink" x="0px" y="0px"
	 viewBox="0 0 20 20" style="enable-background:new 0 0 20 20;" xml:space="preserve">
<style type="text/css">
	.st0{fill:#3A434C;}
</style>
<path class="st0" d="M13,3.5c0.6,0,1-0.5,1-1s-0.4-1-1-1h-6c-0.6,0-1,0.5-1,1s0.4,1,1,1H13z"/>
<path class="st0" d="M5.7,13.1l-1.9,3.9c-0.2,0.5,0,1.1,0.5,1.3s1.1,0,1.3-0.5l1.7-3.5h5.4l1.7,3.5c0.2,0.5,0.8,0.7,1.3,0.5
	c0.5-0.2,0.7-0.8,0.5-1.3L10.9,6c-0.1-0.2-0.3-0.4-0.5-0.5c0,0,0,0,0,0h0c-0.1,0-0.2-0.1-0.3-0.1c0,0,0,0-0.1,0s-0.1,0-0.1,0
	c-0.1,0-0.2,0-0.3,0.1h0c0,0,0,0,0,0C9.4,5.6,9.2,5.8,9.1,6l-3.3,7C5.8,13,5.7,13.1,5.7,13.1z M8.2,12.4L10,8.7l1.8,3.7H8.2z"/>
</svg>
