<?xml version="1.0" encoding="utf-8"?>
<!-- Generator: Adobe Illustrator 19.1.0, SVG Export Plug-In . SVG Version: 6.00 Build 0)  -->
<svg version="1.1" id="Calque_1" xmlns="http://www.w3.org/2000/svg" xmlns:xlink="http://www.w3.org/1999/xlink" x="0px" y="0px"
	 viewBox="0 0 20 20" enable-background="new 0 0 20 20" xml:space="preserve">
<g>
	<polygon fill="none" points="8.24,12.42 11.76,12.42 10,8.71 	"/>
	<path fill="#3A434C" d="M13.02,3.5c0.55,0,1-0.45,1-1c0-0.55-0.45-1-1-1H7.06c-0.55,0-1,0.45-1,1c0,0.55,0.45,1,1,1H13.02z"/>
	<path fill="#3A434C" d="M5.69,13.12l-1.88,3.95c-0.24,0.5-0.02,1.1,0.47,1.33s1.1,0.02,1.33-0.47l1.66-3.51h5.42l1.66,3.51
		c0.24,0.5,0.83,0.71,1.33,0.47s0.71-0.83,0.47-1.33l-5.27-11.1c-0.1-0.21-0.28-0.36-0.48-0.46c-0.01,0-0.01-0.01-0.02-0.02
		c0,0-0.01,0-0.01,0c-0.09-0.04-0.18-0.06-0.28-0.07C10.09,5.42,10.04,5.41,10,5.41c-0.04,0-0.09,0.01-0.13,0.02
		C9.77,5.44,9.68,5.46,9.59,5.5c0,0-0.01,0-0.01,0c-0.01,0-0.01,0.01-0.02,0.02c-0.2,0.1-0.37,0.24-0.48,0.46l-3.3,6.95
		C5.75,12.98,5.72,13.05,5.69,13.12z M8.24,12.42L10,8.71l1.76,3.71H8.24z"/>
</g>
</svg>
