<svg viewBox="0 0 20 20"><circle cx="10" cy="5.9" r="1.2"/><path d="M16.3 1.6H13C12.4.6 11.3 0 10 0S7.6.7 7 1.6H3.7c-.7 0-1.4.3-1.9.8S1 3.5 1 4.3v13.1c0 .7.3 1.4.8 1.9.5.4 1.2.7 1.9.7h12.6c.7 0 1.4-.3 1.9-.8s.8-1.1.8-1.9v-13c0-1.5-1.2-2.7-2.7-2.7zm.7 15.8c0 .2-.1.3-.2.4s-.3.2-.5.2H3.7c-.2 0-.4-.1-.5-.2s-.2-.3-.2-.4V4.3c0-.2.1-.3.2-.5.1-.1.3-.2.5-.2h4.6l.2-.6c.3-.6.8-1 1.5-1s1.2.4 1.4 1l.2.6h4.6c.2 0 .4.1.5.2.2.2.3.3.3.5v13.1z"/><path d="M13.5 9.8h-7c-.6 0-1 .4-1 1s.4 1 1 1h7.1c.6 0 1-.4 1-1-.1-.6-.5-1-1.1-1zm0 3.7h-7c-.6 0-1 .4-1 1s.4 1 1 1h7.1c.6 0 1-.4 1-1s-.5-1-1.1-1z"/></svg>