<?xml version="1.0" encoding="utf-8"?>
<!-- Generator: Adobe Illustrator 19.1.0, SVG Export Plug-In . SVG Version: 6.00 Build 0)  -->
<svg version="1.1" id="Calque_1" xmlns="http://www.w3.org/2000/svg" xmlns:xlink="http://www.w3.org/1999/xlink" x="0px" y="0px"
	 viewBox="0 0 20 20" enable-background="new 0 0 20 20" xml:space="preserve">
<g>
	<path fill="none" d="M16.31,3.64h-4.62l-0.24-0.65C11.24,2.42,10.67,2,10,2C9.33,2,8.76,2.42,8.55,2.99L8.31,3.64H3.69
		c-0.2,0-0.37,0.08-0.5,0.2C3.07,3.96,3,4.11,3,4.27v13.09c0,0.16,0.07,0.31,0.19,0.44c0.13,0.12,0.3,0.2,0.5,0.2h12.62
		c0.2,0,0.37-0.08,0.5-0.2c0.13-0.12,0.19-0.27,0.19-0.44V4.27c0-0.16-0.07-0.31-0.19-0.44C16.68,3.71,16.51,3.64,16.31,3.64z
		 M10.03,4.64c0.69,0.01,1.24,0.58,1.23,1.27c-0.01,0.69-0.58,1.24-1.27,1.23C9.29,7.13,8.74,6.56,8.76,5.87
		C8.77,5.18,9.34,4.63,10.03,4.64z M13.54,15.49H6.48c-0.55,0-1-0.45-1-1c0-0.55,0.45-1,1-1h7.06c0.55,0,1,0.45,1,1
		C14.54,15.04,14.09,15.49,13.54,15.49z M13.54,11.81H6.48c-0.55,0-1-0.45-1-1c0-0.55,0.45-1,1-1h7.06c0.55,0,1,0.45,1,1
		C14.54,11.36,14.09,11.81,13.54,11.81z"/>
	<circle fill="#3A434C" cx="10.01" cy="5.89" r="1.25"/>
	<path fill="#3A434C" d="M16.31,1.64h-3.33C12.36,0.66,11.26,0,10,0C8.74,0,7.64,0.66,7.02,1.64H3.69c-0.73,0-1.4,0.29-1.89,0.76
		C1.31,2.87,1,3.54,1,4.27v13.09c0,0.74,0.31,1.4,0.8,1.87C2.29,19.71,2.96,20,3.69,20h12.62c0.73,0,1.4-0.29,1.89-0.76
		c0.49-0.47,0.8-1.14,0.8-1.87V4.27c0-0.74-0.31-1.4-0.8-1.87C17.71,1.93,17.04,1.64,16.31,1.64z M17,17.36
		c0,0.16-0.07,0.31-0.19,0.44c-0.13,0.12-0.3,0.2-0.5,0.2H3.69c-0.2,0-0.37-0.08-0.5-0.2C3.07,17.68,3,17.53,3,17.36V4.27
		c0-0.16,0.07-0.31,0.19-0.44c0.13-0.12,0.3-0.2,0.5-0.2h4.62l0.24-0.65C8.76,2.42,9.33,2,10,2c0.67,0,1.24,0.42,1.45,0.99
		l0.24,0.65h4.62c0.2,0,0.37,0.08,0.5,0.2C16.93,3.96,17,4.11,17,4.27V17.36z"/>
	<path fill="#3A434C" d="M13.54,9.81H6.48c-0.55,0-1,0.45-1,1c0,0.55,0.45,1,1,1h7.06c0.55,0,1-0.45,1-1
		C14.54,10.25,14.09,9.81,13.54,9.81z"/>
	<path fill="#3A434C" d="M13.54,13.49H6.48c-0.55,0-1,0.45-1,1c0,0.55,0.45,1,1,1h7.06c0.55,0,1-0.45,1-1
		C14.54,13.94,14.09,13.49,13.54,13.49z"/>
</g>
</svg>
