<?xml version="1.0" encoding="utf-8"?>
<!-- Generator: Adobe Illustrator 19.2.1, SVG Export Plug-In . SVG Version: 6.00 Build 0)  -->
<svg version="1.1" id="Calque_1" xmlns="http://www.w3.org/2000/svg" xmlns:xlink="http://www.w3.org/1999/xlink" x="0px" y="0px"
	 viewBox="0 0 20 20" style="enable-background:new 0 0 20 20;" xml:space="preserve">
<style type="text/css">
	.st0{fill:#3A434C;}
</style>
<circle class="st0" cx="10" cy="5.9" r="1.2"/>
<path class="st0" d="M16.3,1.6H13c-0.6-1-1.7-1.6-3-1.6S7.6,0.7,7,1.6H3.7C3,1.6,2.3,1.9,1.8,2.4S1,3.5,1,4.3v13.1
	c0,0.7,0.3,1.4,0.8,1.9C2.3,19.7,3,20,3.7,20h12.6c0.7,0,1.4-0.3,1.9-0.8s0.8-1.1,0.8-1.9V4.3c0-0.7-0.3-1.4-0.8-1.9
	S17,1.6,16.3,1.6z M17,17.4c0,0.2-0.1,0.3-0.2,0.4c-0.1,0.1-0.3,0.2-0.5,0.2H3.7c-0.2,0-0.4-0.1-0.5-0.2C3.1,17.7,3,17.5,3,17.4V4.3
	C3,4.1,3.1,4,3.2,3.8c0.1-0.1,0.3-0.2,0.5-0.2h4.6L8.5,3C8.8,2.4,9.3,2,10,2s1.2,0.4,1.4,1l0.2,0.6h4.6c0.2,0,0.4,0.1,0.5,0.2
	C16.9,4,17,4.1,17,4.3V17.4z"/>
<path class="st0" d="M13.5,9.8H6.5c-0.6,0-1,0.4-1,1s0.4,1,1,1h7.1c0.6,0,1-0.4,1-1C14.5,10.2,14.1,9.8,13.5,9.8z"/>
<path class="st0" d="M13.5,13.5H6.5c-0.6,0-1,0.4-1,1s0.4,1,1,1h7.1c0.6,0,1-0.4,1-1S14.1,13.5,13.5,13.5z"/>
</svg>
