<svg viewBox="0 0 20 20"><path d="M10 5c-2.8 0-5 2.2-5 5s2.2 5 5 5 5-2.2 5-5-2.2-5-5-5zm0 8c-1.7 0-3-1.3-3-3s1.3-3 3-3 3 1.3 3 3-1.3 3-3 3zm0-13c-.6 0-1 .4-1 1v2c0 .5.4 1 1 1s1-.5 1-1V1c0-.6-.4-1-1-1zm0 20c.6 0 1-.5 1-1v-2c0-.5-.4-1-1-1s-1 .5-1 1v2c0 .5.4 1 1 1zm9-11h-2c-.5 0-1 .4-1 1s.5 1 1 1h2c.5 0 1-.4 1-1s-.5-1-1-1zM1 11h2c.5 0 1-.4 1-1s-.5-1-1-1H1c-.6 0-1 .4-1 1s.4 1 1 1zm14.7 3.2c-.4-.4-1-.4-1.4 0-.4.4-.4 1 0 1.4l1.4 1.4c.4.4 1 .4 1.4 0s.4-1 0-1.4l-1.4-1.4zM5.8 5.8c.4-.4.4-1 0-1.4L4.3 2.9c-.4-.4-1-.4-1.4 0s-.4 1 0 1.4l1.4 1.4c.4.5 1.1.5 1.5.1zm11.3-2.9c-.4-.4-1-.4-1.4 0l-1.4 1.4c-.4.4-.4 1 0 1.4s1 .4 1.4 0l1.4-1.4c.4-.3.4-1 0-1.4zM2.9 17.1c.4.4 1 .4 1.4 0l1.4-1.4c.4-.4.4-1 0-1.4-.4-.4-1-.4-1.4 0l-1.4 1.4c-.4.3-.4 1 0 1.4z"/></svg>