<?xml version="1.0" encoding="utf-8"?>
<!-- Generator: Adobe Illustrator 19.2.1, SVG Export Plug-In . SVG Version: 6.00 Build 0)  -->
<svg version="1.1" id="Calque_1" xmlns="http://www.w3.org/2000/svg" xmlns:xlink="http://www.w3.org/1999/xlink" x="0px" y="0px"
	 viewBox="0 0 20 20" style="enable-background:new 0 0 20 20;" xml:space="preserve">
<style type="text/css">
	.st0{fill:#3A434C;}
</style>
<path class="st0" d="M10,5c-2.8,0-5,2.2-5,5s2.2,5,5,5s5-2.2,5-5S12.8,5,10,5z M10,13c-1.7,0-3-1.3-3-3s1.3-3,3-3s3,1.3,3,3
	S11.7,13,10,13z"/>
<path class="st0" d="M10,0C9.4,0,9,0.4,9,1v2c0,0.5,0.4,1,1,1s1-0.5,1-1V1C11,0.4,10.6,0,10,0z"/>
<path class="st0" d="M10,20c0.6,0,1-0.5,1-1v-2c0-0.5-0.4-1-1-1s-1,0.5-1,1v2C9,19.5,9.4,20,10,20z"/>
<path class="st0" d="M19,9h-2c-0.5,0-1,0.4-1,1s0.5,1,1,1h2c0.5,0,1-0.4,1-1S19.5,9,19,9z"/>
<path class="st0" d="M1,11h2c0.5,0,1-0.4,1-1S3.5,9,3,9H1c-0.6,0-1,0.4-1,1S0.4,11,1,11z"/>
<path class="st0" d="M15.7,14.2c-0.4-0.4-1-0.4-1.4,0c-0.4,0.4-0.4,1,0,1.4l1.4,1.4c0.4,0.4,1,0.4,1.4,0s0.4-1,0-1.4L15.7,14.2z"/>
<path class="st0" d="M5.8,5.8c0.4-0.4,0.4-1,0-1.4L4.3,2.9c-0.4-0.4-1-0.4-1.4,0s-0.4,1,0,1.4l1.4,1.4C4.7,6.2,5.4,6.2,5.8,5.8z"/>
<path class="st0" d="M17.1,2.9c-0.4-0.4-1-0.4-1.4,0l-1.4,1.4c-0.4,0.4-0.4,1,0,1.4s1,0.4,1.4,0l1.4-1.4C17.5,4,17.5,3.3,17.1,2.9z"
	/>
<path class="st0" d="M2.9,17.1c0.4,0.4,1,0.4,1.4,0l1.4-1.4c0.4-0.4,0.4-1,0-1.4c-0.4-0.4-1-0.4-1.4,0l-1.4,1.4
	C2.5,16,2.5,16.7,2.9,17.1z"/>
</svg>
