<?xml version="1.0" encoding="utf-8"?>
<!-- Generator: Adobe Illustrator 19.1.0, SVG Export Plug-In . SVG Version: 6.00 Build 0)  -->
<svg version="1.1" id="Calque_1" xmlns="http://www.w3.org/2000/svg" xmlns:xlink="http://www.w3.org/1999/xlink" x="0px" y="0px"
	 viewBox="0 0 20 20" enable-background="new 0 0 20 20" xml:space="preserve">
<g>
	<path fill="none" d="M10,6.99c-1.66,0-3,1.34-3,3c0,1.66,1.34,3,3,3c1.66,0,3-1.34,3-3C13,8.34,11.66,7,10,6.99z"/>
	<path fill="#3A434C" d="M10,4.99c-2.76,0-5,2.24-5,5c0,2.76,2.24,5,5,5c2.76,0,5-2.24,5-5C15,7.23,12.76,4.99,10,4.99z M10,12.99
		c-1.66,0-3-1.34-3-3c0-1.66,1.34-3,3-3c1.66,0,3,1.34,3,3C13,11.65,11.66,12.99,10,12.99z"/>
	<path fill="#3A434C" d="M10,0C9.45,0,9,0.45,9,1v2c0,0.55,0.45,1,1,1s1-0.45,1-1V1C11,0.45,10.55,0,10,0z"/>
	<path fill="#3A434C" d="M10,20c0.55,0,1-0.45,1-1v-2c0-0.55-0.45-1-1-1s-1,0.45-1,1v2C9,19.55,9.45,20,10,20z"/>
	<path fill="#3A434C" d="M19,9h-2c-0.55,0-1,0.45-1,1c0,0.55,0.45,1,1,1h2c0.55,0,1-0.45,1-1C20,9.45,19.55,9,19,9z"/>
	<path fill="#3A434C" d="M1,11h2c0.55,0,1-0.45,1-1c0-0.55-0.45-1-1-1H1c-0.55,0-1,0.45-1,1C0,10.55,0.45,11,1,11z"/>
	<path fill="#3A434C" d="M15.66,14.24c-0.39-0.39-1.02-0.39-1.41,0c-0.39,0.39-0.39,1.02,0,1.41l1.41,1.41
		c0.39,0.39,1.02,0.39,1.41,0c0.39-0.39,0.39-1.02,0-1.41L15.66,14.24z"/>
	<path fill="#3A434C" d="M5.76,5.76c0.39-0.39,0.39-1.02,0-1.41L4.34,2.93c-0.39-0.39-1.02-0.39-1.41,0c-0.39,0.39-0.39,1.02,0,1.41
		l1.41,1.41C4.73,6.15,5.37,6.15,5.76,5.76z"/>
	<path fill="#3A434C" d="M17.07,2.93c-0.39-0.39-1.02-0.39-1.41,0l-1.41,1.41c-0.39,0.39-0.39,1.02,0,1.41s1.02,0.39,1.41,0
		l1.41-1.41C17.46,3.95,17.46,3.32,17.07,2.93z"/>
	<path fill="#3A434C" d="M2.93,17.07c0.39,0.39,1.02,0.39,1.41,0l1.41-1.41c0.39-0.39,0.39-1.02,0-1.41c-0.39-0.39-1.02-0.39-1.41,0
		l-1.41,1.41C2.54,16.05,2.54,16.68,2.93,17.07z"/>
</g>
</svg>
