<?xml version="1.0" encoding="utf-8"?>
<!-- Generator: Adobe Illustrator 19.1.0, SVG Export Plug-In . SVG Version: 6.00 Build 0)  -->
<svg version="1.1" id="Calque_1" xmlns="http://www.w3.org/2000/svg" xmlns:xlink="http://www.w3.org/1999/xlink" x="0px" y="0px"
	 viewBox="0 0 20 20" enable-background="new 0 0 20 20" xml:space="preserve">
<g>
	<path fill="none" d="M10,11c-1.66,0-3,1.34-3,3h6C13,12.34,11.66,11,10,11z"/>
	<path fill="#3A434C" d="M9,5.01v2c0,0.55,0.45,1,1,1s1-0.45,1-1v-2c0-0.55-0.45-1-1-1S9,4.45,9,5.01z"/>
	<path fill="#3A434C" d="M19,13.99h-4c0-2.76-2.24-5-5-5c-2.76,0-5,2.24-5,5H1c-0.55,0-1,0.45-1,1s0.45,1,1,1h18c0.55,0,1-0.45,1-1
		S19.55,13.99,19,13.99z M10,11c1.66,0,3,1.34,3,3H7C7,12.34,8.34,11,10,11z"/>
	<path fill="#3A434C" d="M2.93,6.93c-0.39,0.39-0.39,1.02,0,1.41l1.41,1.41c0.39,0.39,1.02,0.39,1.41,0c0.39-0.39,0.39-1.02,0-1.41
		L4.34,6.93C3.95,6.54,3.32,6.54,2.93,6.93z"/>
	<path fill="#3A434C" d="M15.66,6.93l-1.41,1.41c-0.39,0.39-0.39,1.02,0,1.41c0.39,0.39,1.02,0.39,1.41,0l1.41-1.41
		c0.39-0.39,0.39-1.02,0-1.41C16.68,6.54,16.05,6.54,15.66,6.93z"/>
</g>
</svg>
