<?xml version="1.0" encoding="utf-8"?>
<!-- Generator: Adobe Illustrator 19.2.1, SVG Export Plug-In . SVG Version: 6.00 Build 0)  -->
<svg version="1.1" id="Calque_1" xmlns="http://www.w3.org/2000/svg" xmlns:xlink="http://www.w3.org/1999/xlink" x="0px" y="0px"
	 viewBox="0 0 20 20" style="enable-background:new 0 0 20 20;" xml:space="preserve">
<style type="text/css">
	.st0{fill:#3A434C;}
</style>
<path class="st0" d="M9,5v2c0,0.6,0.4,1,1,1s1-0.4,1-1V5c0-0.6-0.4-1-1-1S9,4.4,9,5z"/>
<path class="st0" d="M19,14h-4c0-2.8-2.2-5-5-5s-5,2.2-5,5H1c-0.6,0-1,0.4-1,1s0.4,1,1,1h18c0.5,0,1-0.4,1-1S19.5,14,19,14z M10,11
	c1.7,0,3,1.3,3,3H7C7,12.3,8.3,11,10,11z"/>
<path class="st0" d="M2.9,6.9c-0.4,0.4-0.4,1,0,1.4l1.4,1.4c0.4,0.4,1,0.4,1.4,0s0.4-1,0-1.4L4.3,6.9C4,6.5,3.3,6.5,2.9,6.9z"/>
<path class="st0" d="M15.7,6.9l-1.4,1.4c-0.4,0.4-0.4,1,0,1.4c0.4,0.4,1,0.4,1.4,0l1.4-1.4c0.4-0.4,0.4-1,0-1.4
	C16.7,6.5,16,6.5,15.7,6.9z"/>
</svg>
