<?xml version="1.0" encoding="utf-8"?>
<!-- Generator: Adobe Illustrator 19.1.0, SVG Export Plug-In . SVG Version: 6.00 Build 0)  -->
<svg version="1.1" id="Calque_1" xmlns="http://www.w3.org/2000/svg" xmlns:xlink="http://www.w3.org/1999/xlink" x="0px" y="0px"
	 viewBox="0 0 20 20" enable-background="new 0 0 20 20" xml:space="preserve">
<g>
	<path fill="none" d="M14.66,10c0-0.55,0.45-1,1-1h0.66c-0.21-1.37-0.85-2.59-1.79-3.53C13.59,4.54,12.37,3.9,11,3.69v0.66
		c0,0.55-0.45,1-1,1s-1-0.45-1-1V3.69C7.63,3.9,6.41,4.54,5.47,5.47C4.54,6.41,3.9,7.63,3.69,9h0.67c0.55,0,1,0.45,1,1
		c0,0.55-0.45,1-1,1H3.69c0.21,1.37,0.85,2.59,1.79,3.53C6.41,15.46,7.63,16.1,9,16.31v-0.66c0-0.55,0.45-1,1-1s1,0.45,1,1v0.66
		c1.37-0.21,2.59-0.85,3.53-1.79c0.94-0.94,1.57-2.16,1.79-3.53h-0.66C15.11,11,14.66,10.55,14.66,10z M10,12c-1.1,0-2-0.9-2-2
		s0.9-2,2-2s2,0.9,2,2S11.1,12,10,12z"/>
	<circle fill="#3A434C" cx="10" cy="10" r="2"/>
	<path fill="#3A434C" d="M19,9h-0.66c-0.46-3.84-3.5-6.88-7.34-7.34V1.01c0-0.55-0.45-1-1-1s-1,0.45-1,1v0.66
		C5.16,2.12,2.12,5.16,1.66,9H1.01c-0.55,0-1,0.45-1,1c0,0.55,0.45,1,1,1h0.65c0.46,3.84,3.5,6.88,7.34,7.33V19c0,0.55,0.45,1,1,1
		s1-0.45,1-1v-0.66c3.84-0.46,6.88-3.5,7.34-7.33H19c0.55,0,1-0.45,1-1C20,9.45,19.55,9,19,9z M14.53,14.53
		c-0.94,0.94-2.16,1.57-3.53,1.79v-0.66c0-0.55-0.45-1-1-1s-1,0.45-1,1v0.66c-1.37-0.21-2.59-0.85-3.53-1.79
		C4.54,13.59,3.9,12.37,3.69,11h0.67c0.55,0,1-0.45,1-1c0-0.55-0.45-1-1-1H3.69C3.9,7.63,4.54,6.41,5.47,5.47
		C6.41,4.54,7.63,3.9,9,3.69v0.66c0,0.55,0.45,1,1,1s1-0.45,1-1V3.69c1.37,0.21,2.59,0.85,3.53,1.79C15.46,6.41,16.1,7.63,16.31,9
		h-0.66c-0.55,0-1,0.45-1,1c0,0.55,0.45,1,1,1h0.66C16.1,12.37,15.46,13.59,14.53,14.53z"/>
</g>
</svg>
