<svg viewBox="0 0 20 20"><circle cx="10" cy="10" r="2"/><path d="M19 9h-.7c-.5-3.8-3.5-6.9-7.3-7.3V1c0-.6-.4-1-1-1S9 .5 9 1v.7C5.2 2.1 2.1 5.2 1.7 9H1c-.6 0-1 .4-1 1s.4 1 1 1h.6c.5 3.8 3.5 6.9 7.3 7.3v.7c0 .5.4 1 1 1s1-.5 1-1v-.7c3.8-.5 6.9-3.5 7.3-7.3h.8c.5 0 1-.4 1-1s-.5-1-1-1zm-4.5 5.5c-.9.9-2.2 1.6-3.5 1.8v-.7c0-.6-.4-1-1-1s-1 .4-1 1v.7c-1.4-.2-2.6-.9-3.5-1.8-.9-.9-1.6-2.2-1.8-3.5h.7c.6 0 1-.4 1-1s-.4-1-1-1h-.7c.2-1.4.8-2.6 1.8-3.5.9-1 2.1-1.6 3.5-1.8v.7c0 .6.4 1 1 1s1-.4 1-1v-.7c1.4.2 2.6.8 3.5 1.8.9.9 1.6 2.2 1.8 3.5h-.7c-.6 0-1 .4-1 1s.4 1 1 1h.7c-.2 1.4-.8 2.6-1.8 3.5z"/></svg>