<?xml version="1.0" encoding="utf-8"?>
<!-- Generator: Adobe Illustrator 19.2.1, SVG Export Plug-In . SVG Version: 6.00 Build 0)  -->
<svg version="1.1" id="Calque_1" xmlns="http://www.w3.org/2000/svg" xmlns:xlink="http://www.w3.org/1999/xlink" x="0px" y="0px"
	 viewBox="0 0 20 20" style="enable-background:new 0 0 20 20;" xml:space="preserve">
<style type="text/css">
	.st0{fill:#3A434C;}
</style>
<g>
	<circle class="st0" cx="10" cy="10" r="2"/>
	<path class="st0" d="M19,9h-0.7c-0.5-3.8-3.5-6.9-7.3-7.3V1c0-0.6-0.4-1-1-1S9,0.5,9,1v0.7C5.2,2.1,2.1,5.2,1.7,9H1
		c-0.6,0-1,0.4-1,1s0.4,1,1,1h0.6c0.5,3.8,3.5,6.9,7.3,7.3V19c0,0.5,0.4,1,1,1s1-0.5,1-1v-0.7c3.8-0.5,6.9-3.5,7.3-7.3H19
		c0.5,0,1-0.4,1-1C20,9.4,19.5,9,19,9z M14.5,14.5c-0.9,0.9-2.2,1.6-3.5,1.8v-0.7c0-0.6-0.4-1-1-1s-1,0.4-1,1v0.7
		c-1.4-0.2-2.6-0.9-3.5-1.8c-0.9-0.9-1.6-2.2-1.8-3.5h0.7c0.6,0,1-0.4,1-1s-0.4-1-1-1H3.7c0.2-1.4,0.8-2.6,1.8-3.5
		C6.4,4.5,7.6,3.9,9,3.7v0.7c0,0.6,0.4,1,1,1s1-0.4,1-1V3.7c1.4,0.2,2.6,0.8,3.5,1.8c0.9,0.9,1.6,2.2,1.8,3.5h-0.7c-0.6,0-1,0.4-1,1
		s0.4,1,1,1h0.7C16.1,12.4,15.5,13.6,14.5,14.5z"/>
</g>
</svg>
