<?xml version="1.0" encoding="UTF-8" standalone="no"?>
<svg width="20px" height="20px" viewBox="0 0 20 20" version="1.1" xmlns="http://www.w3.org/2000/svg" xmlns:xlink="http://www.w3.org/1999/xlink" xmlns:sketch="http://www.bohemiancoding.com/sketch/ns">
    <!-- Generator: Sketch 3.4.2 (15857) - http://www.bohemiancoding.com/sketch -->
    <title>target</title>
    <desc>Created with Sketch.</desc>
    <defs></defs>
    <g id="Page-1" stroke="none" stroke-width="1" fill="none" fill-rule="evenodd" sketch:type="MSPage">
        <g id="target" sketch:type="MSArtboardGroup" transform="translate(-6.000000, -6.000000)" fill="#3A434C">
            <g sketch:type="MSLayerGroup" transform="translate(6.000000, 6.000000)">
                <path d="M10,8 C8.895,8 8,8.895 8,10 C8,11.105 8.895,12 10,12 C11.105,12 12,11.105 12,10 C12,8.895 11.105,8 10,8" id="Fill-1" sketch:type="MSShapeGroup"></path>
                <path d="M19.009,9 L17.938,9 C17.487,5.381 14.619,2.513 11,2.062 L11,0.991 C11,0.444 10.556,0 10,0 C9.448,0 9,0.451 9,0.991 L9,2.062 C5.381,2.513 2.513,5.381 2.062,9 L0.991,9 C0.444,9 0,9.444 0,10 C0,10.552 0.451,11 0.991,11 L2.062,11 C2.513,14.619 5.381,17.487 9,17.938 L9,19.009 C9,19.556 9.444,20 10,20 C10.552,20 11,19.549 11,19.009 L11,17.938 C14.619,17.487 17.487,14.619 17.938,11 L19.009,11 C19.556,11 20,10.556 20,10 C20,9.448 19.549,9 19.009,9 L19.009,9 Z M14.991,11 L15.917,11 C15.496,13.513 13.513,15.496 11,15.917 L11,14.991 C11,14.444 10.556,14 10,14 C9.448,14 9,14.451 9,14.991 L9,15.917 C6.487,15.496 4.504,13.513 4.083,11 L5.009,11 C5.556,11 6,10.556 6,10 C6,9.448 5.549,9 5.009,9 L4.083,9 C4.504,6.487 6.487,4.504 9,4.083 L9,5.009 C9,5.556 9.444,6 10,6 C10.552,6 11,5.549 11,5.009 L11,4.083 C13.513,4.504 15.496,6.487 15.917,9 L14.991,9 C14.444,9 14,9.444 14,10 C14,10.552 14.451,11 14.991,11 L14.991,11 Z" id="Fill-2" sketch:type="MSShapeGroup"></path>
            </g>
        </g>
    </g>
</svg>