<?xml version="1.0" encoding="utf-8"?>
<!-- Generator: Adobe Illustrator 19.2.1, SVG Export Plug-In . SVG Version: 6.00 Build 0)  -->
<svg version="1.1" id="Calque_1" xmlns="http://www.w3.org/2000/svg" xmlns:xlink="http://www.w3.org/1999/xlink" x="0px" y="0px"
	 viewBox="0 0 20 20" enable-background="new 0 0 20 20" xml:space="preserve">
<g>
	<path fill="#3A434C" d="M10,0C9.45,0,9,0.45,9,1v18c0,0.55,0.45,1,1,1s1-0.45,1-1V1C11,0.45,10.55,0,10,0z"/>
	<path fill="#3A434C" d="M16.54,2.5c-1.91,0-3.46,1.55-3.46,3.46s1.55,3.46,3.46,3.46S20,7.87,20,5.96S18.45,2.5,16.54,2.5z
		 M16.54,7.42c-0.81,0-1.46-0.65-1.46-1.46s0.65-1.46,1.46-1.46C17.35,4.5,18,5.15,18,5.96C18,6.76,17.35,7.42,16.54,7.42z"/>
	<path fill="#3A434C" d="M3.46,10.51C1.55,10.51,0,12.06,0,13.97s1.55,3.46,3.46,3.46s3.46-1.55,3.46-3.46S5.37,10.51,3.46,10.51z
		 M3.46,15.43C2.65,15.42,2,14.77,2,13.97c0-0.81,0.65-1.46,1.46-1.46s1.46,0.65,1.46,1.46C4.92,14.77,4.26,15.42,3.46,15.43z"/>
</g>
</svg>
