<?xml version="1.0" encoding="utf-8"?>
<!-- Generator: Adobe Illustrator 19.1.0, SVG Export Plug-In . SVG Version: 6.00 Build 0)  -->
<svg version="1.1" id="Calque_1" xmlns="http://www.w3.org/2000/svg" xmlns:xlink="http://www.w3.org/1999/xlink" x="0px" y="0px"
	 viewBox="0 0 20 20" enable-background="new 0 0 20 20" xml:space="preserve">
<g>
	<polygon fill="none" points="6.16,11.39 13.84,11.39 10,3.29 	"/>
	<path fill="#3A434C" d="M19.47,18.57l-8.54-18c-0.16-0.33-0.48-0.52-0.82-0.55c-0.03,0-0.07-0.02-0.1-0.02
		c-0.03,0-0.07,0.01-0.1,0.02C9.56,0.05,9.24,0.24,9.08,0.57L3.74,11.81c-0.07,0.1-0.12,0.21-0.16,0.33l-3.05,6.44
		c-0.24,0.5-0.02,1.1,0.47,1.33c0.5,0.24,1.1,0.02,1.33-0.47l2.87-6.04h9.58l2.87,6.04c0.24,0.5,0.83,0.71,1.33,0.47
		C19.49,19.67,19.7,19.07,19.47,18.57z M6.16,11.39L10,3.29l3.84,8.09H6.16z"/>
</g>
</svg>
