<?xml version="1.0" encoding="utf-8"?>
<!-- Generator: Adobe Illustrator 19.2.1, SVG Export Plug-In . SVG Version: 6.00 Build 0)  -->
<svg version="1.1" id="Calque_1" xmlns="http://www.w3.org/2000/svg" xmlns:xlink="http://www.w3.org/1999/xlink" x="0px" y="0px"
	 viewBox="0 0 20 20" style="enable-background:new 0 0 20 20;" xml:space="preserve">
<style type="text/css">
	.st0{fill:#3A434C;}
</style>
<g>
	<path class="st0" d="M19.5,18.6l-8.5-18C10.8,0.2,10.4,0,10.1,0c0,0-0.1,0-0.1,0c0,0-0.1,0-0.1,0c-0.3,0-0.7,0.2-0.8,0.6L3.7,11.8
		c-0.1,0.1-0.1,0.2-0.2,0.3l-3,6.4c-0.2,0.5,0,1.1,0.5,1.3c0.5,0.2,1.1,0,1.3-0.5l2.9-6h9.6l2.9,6c0.2,0.5,0.8,0.7,1.3,0.5
		C19.5,19.7,19.7,19.1,19.5,18.6z M6.2,11.4L10,3.3l3.8,8.1L6.2,11.4L6.2,11.4z"/>
</g>
</svg>
