<svg viewBox="0 0 20 20"><path d="M6.75,2 L1,2 C0.44771525,2 6.76353751e-17,1.55228475 0,1 C-6.76353751e-17,0.44771525 0.44771525,1.01453063e-16 1,0 L14.6,0 C15.1522847,3.38176876e-17 15.6,0.44771525 15.6,1 C15.6,1.55228475 15.1522847,2 14.6,2 L8.75,2 L8.75,19 C8.75,19.5522847 8.30228475,20 7.75,20 C7.19771525,20 6.75,19.5522847 6.75,19 L6.75,2 L6.75,2 Z M18.8013427,13.6372557 L18.7815414,13.3712109 C19.8051576,14.2730964 20.2297629,15.6726631 19.8787056,16.9876391 C19.5276483,18.3026152 18.461035,19.3078559 17.1226166,19.5851436 C15.7841982,19.8624314 14.4031331,19.3642901 13.5539959,18.2979651 C13.1767052,17.9034243 13.1922196,17.2791877 13.5886482,16.9036937 C13.9850767,16.5281997 14.6123001,16.5436402 14.9895908,16.938181 C15.3829901,17.3921107 15.9954519,17.5937688 16.5832463,17.4629053 C17.1710406,17.3320418 17.6387931,16.8898904 17.8003611,16.3124057 C17.961929,15.7349209 17.7910968,15.1158046 17.3558472,14.7014346 C17.2971637,14.6472997 17.2342628,14.5978776 17.1677347,14.5536319 L17.0984301,14.5043644 L16.9796223,14.4353898 C16.8105427,14.3262582 16.6225277,14.2494055 16.4251856,14.2087591 L16.3261791,14.2087591 L16.128166,14.2087591 L14.9697895,14.1003706 L14.8212796,14.1003706 L14.7519751,14.1003706 L14.6628692,14.051103 C14.573052,13.9952228 14.4928268,13.92536 14.4252535,13.8441793 C14.3647834,13.7600257 14.3180073,13.666919 14.2866443,13.5682811 L14.2866443,13.469746 L14.2866443,13.3810644 C14.284266,13.3416859 14.284266,13.3022008 14.2866443,13.2628223 C14.2836741,13.220175 14.2836741,13.1773741 14.2866443,13.1347267 C14.2849932,13.1019023 14.2849932,13.0690161 14.2866443,13.0361916 L14.2866443,12.9475101 C14.3200839,12.8448055 14.3702557,12.7482685 14.4351541,12.6617583 C14.5049054,12.5762387 14.5885707,12.5029638 14.6826705,12.4449811 L14.7618757,12.4449811 L14.8311803,12.4449811 L14.9796901,12.4449811 L16.1380667,12.3365925 L16.3459804,12.3365925 L16.4350863,12.3365925 C16.6324284,12.2959462 16.8204433,12.2190935 16.9895229,12.1099619 L17.1083308,12.0311338 L17.1776354,11.9818662 C17.2445563,11.9345098 17.3074704,11.8817818 17.3657478,11.8242101 C17.7689844,11.4000116 17.9142004,10.7939363 17.7466943,10.2342868 C17.5791882,9.67463731 17.1244081,9.24643777 16.5536654,9.11098681 C15.9829227,8.97553584 15.3829267,9.15341167 14.9796901,9.57761019 C14.6051334,9.97487196 13.9779101,9.994724 13.5787475,9.62195095 C13.179585,9.2491779 13.1596379,8.62494134 13.5341946,8.22767954 C14.9011897,6.78012285 17.1884494,6.70953779 18.6429322,8.0700234 C20.097415,9.43050901 20.1683378,11.7068771 18.8013427,13.1544337 C18.7221375,13.2431153 18.6330316,13.3219434 18.5439257,13.4007715 C18.6330316,13.4795995 18.7221375,13.5485741 18.8013427,13.6372557 Z"></path></svg>
