<?xml version="1.0" encoding="UTF-8" standalone="no"?>
<svg width="20px" height="20px" viewBox="0 0 20 20" version="1.1" xmlns="http://www.w3.org/2000/svg" xmlns:xlink="http://www.w3.org/1999/xlink">
    <!-- Generator: Sketch 3.8.3 (29802) - http://www.bohemiancoding.com/sketch -->
    <title>titles</title>
    <desc>Created with Sketch.</desc>
    <defs></defs>
    <g stroke="none" stroke-width="1" fill="none" fill-rule="evenodd">
        <g transform="translate(-6.000000, -6.000000)" fill="#3A434C">
            <path d="M20,15 L17,15 C16.4477153,15 16,14.5522847 16,14 C16,13.4477153 16.4477153,13 17,13 L25,13 C25.5522847,13 26,13.4477153 26,14 C26,14.5522847 25.5522847,15 25,15 L22,15 L22,22.983 C22,23.5352847 21.5522847,23.983 21,23.983 C20.4477153,23.983 20,23.5352847 20,22.983 L20,15 Z M12,9 L7.03762478,9 C6.48534003,9 6.03762478,8.55228475 6.03762478,8 C6.03762478,7.44771525 6.48534003,7 7.03762478,7 L19,7 C19.5522847,7 20,7.44771525 20,8 C20,8.55228475 19.5522847,9 19,9 L14,9 L14,23.0155034 C14,23.5677881 13.5522847,24.0155034 13,24.0155034 C12.4477153,24.0155034 12,23.5677881 12,23.0155034 L12,9 Z"></path>
        </g>
    </g>
</svg>