<svg viewBox="0 0 20 20"><path d="M6.77277546,1.98993918 L6.77277546,1.98993918 L0.997463249,1.98993918 C0.446579508,1.98993918 7.26735624e-17,1.54447612 0,0.994969591 C-7.26735624e-17,0.445463059 0.446579508,1.00942712e-16 0.997463249,0 L14.5529888,0 C15.1038725,3.36475708e-17 15.5504521,0.445463059 15.5504521,0.994969591 C15.5504521,1.54447612 15.1038725,1.98993918 14.5529888,1.98993918 L8.76770196,1.98993918 L8.76770196,18.9044222 C8.76770196,19.4539288 8.32112245,19.8993918 7.77023871,19.8993918 C7.21935497,19.8993918 6.77277546,19.4539288 6.77277546,18.9044222 L6.77277546,1.98993918 Z M17.994237,11.2571812 L15.9394627,13.2032465 C15.7529944,13.377398 15.5066511,13.4735522 15.2512131,13.4718883 C14.8451554,13.4702819 14.4806041,13.223299 14.3294192,12.8473744 C14.1782343,12.4714498 14.2705964,12.0416285 14.5629634,11.7605406 L18.3134253,8.20849913 C18.712816,7.82933962 19.344726,7.84493083 19.7248358,8.24332306 C19.9453328,8.47442556 20.0326626,8.78357564 19.9891635,9.07647015 L19.9891635,18.9044222 C19.9891635,19.4539288 19.542584,19.8993918 18.9917003,19.8993918 C18.4408165,19.8993918 17.994237,19.4539288 17.994237,18.9044222 L17.994237,11.2571812 Z"></path></svg>
