<svg viewBox="0 0 20 20"><path d="M6.75 2H1a1 1 0 1 1 0-2h13.6a1 1 0 0 1 0 2H8.75v17a1 1 0 0 1-2 0V2zm12.051 11.637l-.02-.266a3.586 3.586 0 0 1 1.098 3.617 3.606 3.606 0 0 1-2.756 2.597 3.623 3.623 0 0 1-3.569-1.287.983.983 0 0 1 .035-1.394.994.994 0 0 1 1.4.034 1.638 1.638 0 0 0 2.811-.626 1.62 1.62 0 0 0-.444-1.61 1.514 1.514 0 0 0-.188-.148l-.07-.05-.118-.069a1.628 1.628 0 0 0-.555-.226h-.297L14.97 14.1h-.218l-.09-.049a.989.989 0 0 1-.237-.207.984.984 0 0 1-.138-.276v-.187a.98.98 0 0 1 0-.118.922.922 0 0 1 0-.128.98.98 0 0 1 0-.099v-.088a.984.984 0 0 1 .148-.286.989.989 0 0 1 .248-.217h.297l1.158-.108h.298c.196-.041.384-.118.554-.227l.118-.079.07-.05c.067-.046.13-.1.188-.157.403-.424.548-1.03.38-1.59a1.647 1.647 0 0 0-2.767-.657.994.994 0 0 1-1.4.045.983.983 0 0 1-.045-1.394 3.626 3.626 0 0 1 5.109-.158 3.585 3.585 0 0 1-.1 5.33c.09.08.18.149.258.237z"/></svg>