<?xml version="1.0" encoding="UTF-8" standalone="no"?>
<svg width="20px" height="20px" viewBox="0 0 20 20" version="1.1" xmlns="http://www.w3.org/2000/svg" xmlns:xlink="http://www.w3.org/1999/xlink">
    <!-- Generator: Sketch 3.8.3 (29802) - http://www.bohemiancoding.com/sketch -->
    <title>title1</title>
    <desc>Created with Sketch.</desc>
    <defs></defs>
    <g stroke="none" stroke-width="1" fill="none" fill-rule="evenodd">
        <g transform="translate(-6.000000, -6.000000)" fill="#3A434C">
            <path d="M12,9 L7.03762478,9 C6.48534003,9 6.03762478,8.55228475 6.03762478,8 C6.03762478,7.44771525 6.48534003,7 7.03762478,7 L19,7 C19.5522847,7 20,7.44771525 20,8 C20,8.55228475 19.5522847,9 19,9 L14,9 L14,23.0155034 C14,23.5677881 13.5522847,24.0155034 13,24.0155034 C12.4477153,24.0155034 12,23.5677881 12,23.0155034 L12,9 Z M23,15.9227305 L20.638833,17.5786604 C20.1866639,17.8957749 19.5630364,17.7862915 19.2459219,17.3341225 C18.9288074,16.8819534 19.0382908,16.2583259 19.4904598,15.9412114 L23.4258134,13.1812755 C23.8779825,12.864161 24.50161,12.9736444 24.8187245,13.4258134 C24.9625309,13.630865 25.0186084,13.8711767 24.9947823,14.1021737 C24.9982324,14.1359649 25,14.170254 25,14.2049561 L25,23.0100708 C25,23.5623556 24.5522847,24.0100708 24,24.0100708 C23.4477153,24.0100708 23,23.5623556 23,23.0100708 L23,15.9227305 Z"></path>
        </g>
    </g>
</svg>