<?xml version="1.0" encoding="UTF-8" standalone="no"?>
<svg width="20px" height="20px" viewBox="0 0 20 20" version="1.1" xmlns="http://www.w3.org/2000/svg" xmlns:xlink="http://www.w3.org/1999/xlink">
    <!-- Generator: Sketch 3.8.3 (29802) - http://www.bohemiancoding.com/sketch -->
    <title>title2</title>
    <desc>Created with Sketch.</desc>
    <defs></defs>
    <g stroke="none" stroke-width="1" fill="none" fill-rule="evenodd">
        <g transform="translate(-6.000000, -6.000000)" fill="#3A434C">
            <path d="M11,15 L8,15 C7.44771525,15 7,14.5522847 7,14 C7,13.4477153 7.44771525,13 8,13 L16,13 C16.5522847,13 17,13.4477153 17,14 C17,14.5522847 16.5522847,15 16,15 L13,15 L13,22.983 C13,23.5352847 12.5522847,23.983 12,23.983 C11.4477153,23.983 11,23.5352847 11,22.983 L11,15 Z M24.6663,18.269 L24.7693,18.135 C25.1023,17.618 25.2843,17.004 25.2843,16.383 C25.2843,14.489 23.6333,13 21.6433,13 C19.6553,13 18.0043,14.49 18.0043,16.383 C18.0043,16.935 18.4513,17.383 19.0043,17.383 C19.5563,17.383 20.0043,16.935 20.0043,16.383 C20.0043,15.643 20.7163,15 21.6433,15 C22.5713,15 23.2843,15.643 23.2843,16.383 C23.2843,16.603 23.2173,16.823 23.1063,17.011 L20.7073,19.633 L18.2613,22.328 C17.6783,22.971 18.1343,24 19.0023,24 L24.2913,24 C24.8443,24 25.2913,23.552 25.2913,23 C25.2913,22.448 24.8443,22 24.2913,22 L21.2593,22 L22.1853,20.98 L24.6663,18.269 Z"></path>
        </g>
    </g>
</svg>