<svg viewBox="0 0 20 20"><path d="M6.65024631,1.97044335 L0.985221675,1.97044335 C0.441098769,1.97044335 6.66358375e-17,1.52934458 0,0.985221675 C-6.66358375e-17,0.441098769 0.441098769,9.99537563e-17 0.985221675,0 L14.3842365,0 C14.9283594,3.33179188e-17 15.3694581,0.441098769 15.3694581,0.985221675 C15.3694581,1.52934458 14.9283594,1.97044335 14.3842365,1.97044335 L8.62068966,1.97044335 L8.62068966,18.7192118 C8.62068966,19.2633347 8.17959089,19.7044335 7.63546798,19.7044335 C7.09134507,19.7044335 6.65024631,19.2633347 6.65024631,18.7192118 L6.65024631,1.97044335 L6.65024631,1.97044335 Z M13.0344828,18.0953434 L17.8749158,12.1609725 C17.9767057,11.9400822 18.0296927,11.6992426 18.0295567,11.4549493 C18.0295567,10.5571465 17.3017437,9.82933356 16.4039409,9.82933356 C15.5061381,9.82933356 14.7783251,10.5571465 14.7783251,11.4549493 C14.7783251,11.9990722 14.3372264,12.440171 13.7931034,12.440171 C13.2489805,12.440171 12.8078818,11.9990722 12.8078818,11.4549493 C12.8175618,9.94579938 13.7685243,8.6032561 15.1889703,8.09339269 C16.6094162,7.58352929 18.1970955,8.01483718 19.1643162,9.17333249 C20.0710017,10.2593214 20.2516087,11.7677018 19.6485324,13.0285715 C19.6215404,13.1004517 19.58576,13.170052 19.5410358,13.2358061 C19.5332057,13.2497775 19.5252742,13.2637123 19.5172414,13.2776094 C19.4615415,13.3715657 19.3915973,13.45409 19.3110928,13.5231073 L15.862069,17.7406636 L19.0147783,17.7406636 C19.5589012,17.7406636 20,18.1817624 20,18.7258853 C20,19.2700082 19.5589012,19.711107 19.0147783,19.711107 L19.0246305,19.6716981 L13.7931034,19.6716981 C13.4252538,19.6607793 13.0941548,19.445757 12.9345679,19.1141479 C12.7749811,18.7825388 12.8135138,18.3896311 13.0344828,18.0953434 Z"></path></svg>
