<?xml version="1.0" encoding="utf-8"?>
<!-- Generator: Adobe Illustrator 19.1.0, SVG Export Plug-In . SVG Version: 6.00 Build 0)  -->
<svg version="1.1" id="Calque_1" xmlns="http://www.w3.org/2000/svg" xmlns:xlink="http://www.w3.org/1999/xlink" x="0px" y="0px"
	 viewBox="0 0 20 20" enable-background="new 0 0 20 20" xml:space="preserve">
<g>
	<path fill="#3A434C" d="M15.56,1c0-0.55-0.45-1-1-1H1C0.45,0,0,0.45,0,1c0,0.55,0.45,1,1,1h5.78v17c0,0.55,0.45,1,1,1s1-0.45,1-1V2
		h5.78C15.11,2,15.56,1.55,15.56,1z"/>
	<path fill="#3A434C" d="M19,7.99h-7.15c-0.55,0-1,0.45-1,1c0,0.55,0.45,1,1,1h2.57v9c0,0.55,0.45,1,1,1c0.55,0,1-0.45,1-1v-9H19
		c0.55,0,1-0.45,1-1C20,8.44,19.55,7.99,19,7.99z"/>
</g>
</svg>
