<?xml version="1.0" encoding="utf-8"?>
<!-- Generator: Adobe Illustrator 19.1.0, SVG Export Plug-In . SVG Version: 6.00 Build 0)  -->
<svg version="1.1" id="Calque_1" xmlns="http://www.w3.org/2000/svg" xmlns:xlink="http://www.w3.org/1999/xlink" x="0px" y="0px"
	 viewBox="0 0 20 20" enable-background="new 0 0 20 20" xml:space="preserve">
<g>
	<path fill="none" d="M10.93,2.97c0-0.27-0.11-0.51-0.29-0.69C10.46,2.11,10.22,2,9.96,2C9.69,2,9.45,2.11,9.27,2.29
		C9.09,2.47,8.98,2.71,8.98,2.97v1.24h1.95V2.97z"/>
	<path fill="none" d="M5.34,17.25c0,0.2,0.08,0.39,0.22,0.53C5.7,17.92,5.89,18,6.09,18h7.98c0.2,0,0.39-0.08,0.53-0.22
		c0.14-0.14,0.22-0.32,0.22-0.53V6.21H5.34V17.25z M10.93,8.94c0-0.55,0.45-1,1-1c0.55,0,1,0.45,1,1v6.38c0,0.55-0.45,1-1,1
		c-0.55,0-1-0.45-1-1V8.94z M7.07,8.94c0-0.55,0.45-1,1-1c0.55,0,1,0.45,1,1v6.38c0,0.55-0.45,1-1,1c-0.55,0-1-0.45-1-1V8.94z"/>
	<path fill="#3A434C" d="M8.07,16.32c0.55,0,1-0.45,1-1V8.94c0-0.55-0.45-1-1-1c-0.55,0-1,0.45-1,1v6.38
		C7.07,15.87,7.52,16.32,8.07,16.32z"/>
	<path fill="#3A434C" d="M11.93,16.32c0.55,0,1-0.45,1-1V8.94c0-0.55-0.45-1-1-1c-0.55,0-1,0.45-1,1v6.38
		C10.93,15.87,11.37,16.32,11.93,16.32z"/>
	<path fill="#3A434C" d="M9.96,0C8.31,0,6.98,1.33,6.98,2.97v1.24H2.34c-0.55,0-1,0.45-1,1c0,0.55,0.45,1,1,1h1v11.04
		c0,1.52,1.23,2.74,2.75,2.75h7.98c1.52,0,2.74-1.23,2.75-2.75V6.21h0.84c0.55,0,1-0.45,1-1c0-0.55-0.45-1-1-1h-4.73V2.97
		C12.93,1.33,11.6,0,9.96,0z M8.98,2.97c0-0.27,0.11-0.51,0.29-0.69C9.45,2.11,9.69,2,9.96,2c0.27,0,0.51,0.11,0.69,0.29
		c0.18,0.18,0.29,0.42,0.29,0.69v1.24H8.98V2.97z M14.82,17.25c0,0.2-0.08,0.39-0.22,0.53C14.46,17.92,14.28,18,14.07,18H6.09
		c-0.2,0-0.39-0.08-0.53-0.22c-0.14-0.14-0.22-0.32-0.22-0.53V6.21h9.48V17.25z"/>
</g>
</svg>
