<?xml version="1.0" encoding="UTF-8" standalone="no"?>
<svg width="20px" height="20px" viewBox="0 0 20 20" version="1.1" xmlns="http://www.w3.org/2000/svg" xmlns:xlink="http://www.w3.org/1999/xlink" xmlns:sketch="http://www.bohemiancoding.com/sketch/ns">
    <!-- Generator: Sketch 3.4.2 (15857) - http://www.bohemiancoding.com/sketch -->
    <title>trash</title>
    <desc>Created with Sketch.</desc>
    <defs></defs>
    <g id="Page-1" stroke="none" stroke-width="1" fill="none" fill-rule="evenodd" sketch:type="MSPage">
        <g id="trash" sketch:type="MSArtboardGroup" transform="translate(-6.000000, -6.000000)" fill="#3A444C">
            <g sketch:type="MSLayerGroup" transform="translate(6.500000, 5.142857)">
                <path d="M7.42764286,17.2682857 C7.9515,17.2682857 8.37764286,16.8435 8.37764286,16.3182857 L8.37764286,9.87728571 C8.37764286,9.35207143 7.9515,8.92728571 7.42764286,8.92728571 C6.90242857,8.92728571 6.47764286,9.35207143 6.47764286,9.87728571 L6.47764286,16.3182857 C6.47764286,16.8435 6.90242857,17.2682857 7.42764286,17.2682857 Z M11.3185714,17.2682857 C11.8424286,17.2682857 12.2685714,16.8435 12.2685714,16.3182857 L12.2685714,9.87728571 C12.2685714,9.35207143 11.8424286,8.92728571 11.3185714,8.92728571 C10.7933571,8.92728571 10.3672143,9.35207143 10.3672143,9.87728571 L10.3672143,16.3182857 C10.3672143,16.8435 10.7933571,17.2682857 11.3185714,17.2682857 Z" id="Fill-1" sketch:type="MSShapeGroup"></path>
                <path d="M17.1054286,5.16935714 L12.2712857,5.16935714 L12.2699286,3.85971429 C12.2672143,2.23385714 10.9521429,0.920142857 9.32764286,0.916071429 C7.70178571,0.920142857 6.38671429,2.23385714 6.384,3.85971429 L6.384,5.16935714 L1.63942857,5.16935714 C1.11421429,5.16935714 0.689428571,5.59414286 0.689428571,6.11935714 C0.689428571,6.64321429 1.11421429,7.06935714 1.63942857,7.06935714 L2.71157143,7.06935714 L2.71157143,18.2725714 C2.71428571,19.7722143 3.92621429,20.9841429 5.42585714,20.9868571 L13.4832143,20.9868571 C14.9815,20.9841429 16.1934286,19.7722143 16.1975,18.2725714 L16.1975,7.06935714 L17.1054286,7.06935714 C17.6306429,7.06935714 18.0554286,6.64321429 18.0554286,6.11935714 C18.0554286,5.59414286 17.6306429,5.16935714 17.1054286,5.16935714 L17.1054286,5.16935714 Z M8.284,3.85971429 C8.28535714,3.29242857 8.76035714,2.81742857 9.32764286,2.81607143 C9.89492857,2.81742857 10.3699286,3.29107143 10.3699286,3.85971429 L10.3699286,5.16935714 L8.284,5.16935714 L8.284,3.85971429 L8.284,3.85971429 Z M14.2975,18.2725714 C14.2961429,18.715 13.9242857,19.0868571 13.4832143,19.0868571 L5.42585714,19.0868571 C4.98342857,19.0868571 4.61157143,18.715 4.61157143,18.2725714 L4.61157143,7.06935714 L14.2975,7.06935714 L14.2975,18.2725714 L14.2975,18.2725714 Z" id="Fill-3" sketch:type="MSShapeGroup"></path>
            </g>
        </g>
    </g>
</svg>