<?xml version="1.0" encoding="utf-8"?>
<!-- Generator: Adobe Illustrator 19.2.1, SVG Export Plug-In . SVG Version: 6.00 Build 0)  -->
<svg version="1.1" id="Calque_1" xmlns="http://www.w3.org/2000/svg" xmlns:xlink="http://www.w3.org/1999/xlink" x="0px" y="0px"
	 viewBox="0 0 20 20" style="enable-background:new 0 0 20 20;" xml:space="preserve">
<style type="text/css">
	.st0{fill:#3A434C;}
</style>
<g>
	<path class="st0" d="M8.1,16.3c0.6,0,1-0.4,1-1V8.9c0-0.6-0.4-1-1-1s-1,0.4-1,1v6.4C7.1,15.9,7.5,16.3,8.1,16.3z"/>
	<path class="st0" d="M11.9,16.3c0.6,0,1-0.4,1-1V8.9c0-0.6-0.4-1-1-1s-1,0.4-1,1v6.4C10.9,15.9,11.4,16.3,11.9,16.3z"/>
	<path class="st0" d="M10,0C8.3,0,7,1.3,7,3v1.2H2.3c-0.5,0-1,0.4-1,1s0.5,1,1,1h1v11c0,1.5,1.2,2.7,2.8,2.8h8
		c1.5,0,2.7-1.2,2.8-2.8v-11h0.8c0.5,0,1-0.4,1-1s-0.5-1-1-1h-4.7V3C12.9,1.3,11.6,0,10,0z M9,3c0-0.3,0.1-0.5,0.3-0.7
		C9.4,2.1,9.7,2,10,2s0.5,0.1,0.7,0.3c0.2,0.2,0.3,0.4,0.3,0.7v1.2H9V3z M14.8,17.2c0,0.2-0.1,0.4-0.2,0.5c-0.1,0.1-0.3,0.2-0.5,0.2
		h-8c-0.2,0-0.4-0.1-0.5-0.2s-0.2-0.3-0.2-0.5v-11h9.5V17.2z"/>
</g>
</svg>
