<?xml version="1.0" encoding="utf-8"?>
<!-- Generator: Adobe Illustrator 19.1.0, SVG Export Plug-In . SVG Version: 6.00 Build 0)  -->
<svg version="1.1" id="Calque_1" xmlns="http://www.w3.org/2000/svg" xmlns:xlink="http://www.w3.org/1999/xlink" x="0px" y="0px"
	 viewBox="0 0 20 20" enable-background="new 0 0 20 20" xml:space="preserve">
<g>
	<path fill="#3A434C" d="M19.45,1.81c-0.79,0.49-1.67,0.85-2.61,1.04c-0.75-0.83-1.81-1.36-2.99-1.36c-2.27,0-4.1,1.92-4.1,4.29
		c0,0.34,0.04,0.66,0.11,0.98C6.44,6.59,3.42,4.88,1.39,2.29C1.04,2.92,0.84,3.66,0.84,4.44c0,1.49,0.72,2.8,1.83,3.57
		C1.99,7.99,1.36,7.8,0.8,7.48l0,0.05c0,2.08,1.41,3.81,3.29,4.21c-0.34,0.1-0.71,0.15-1.08,0.15c-0.26,0-0.52-0.03-0.77-0.08
		c0.52,1.71,2.04,2.95,3.83,2.98c-1.4,1.15-3.17,1.84-5.1,1.84c-0.33,0-0.66-0.02-0.98-0.06c1.82,1.22,3.97,1.93,6.29,1.93
		c7.55,0,11.67-6.54,11.67-12.21c0-0.19,0-0.37-0.01-0.56c0.8-0.61,1.5-1.36,2.05-2.22c-0.74,0.34-1.53,0.57-2.36,0.68
		C18.49,3.66,19.14,2.82,19.45,1.81z"/>
</g>
</svg>
