<?xml version="1.0" encoding="UTF-8" standalone="no"?>
<svg width="20px" height="20px" viewBox="0 0 20 20" version="1.1" xmlns="http://www.w3.org/2000/svg" xmlns:xlink="http://www.w3.org/1999/xlink" xmlns:sketch="http://www.bohemiancoding.com/sketch/ns">
    <!-- Generator: Sketch 3.4.2 (15857) - http://www.bohemiancoding.com/sketch -->
    <title>typeAdd</title>
    <desc>Created with Sketch.</desc>
    <defs></defs>
    <g id="Page-1" stroke="none" stroke-width="1" fill="none" fill-rule="evenodd" sketch:type="MSPage">
        <g id="typeAdd" sketch:type="MSArtboardGroup" transform="translate(-6.000000, -6.000000)" fill="#3A434C">
            <path d="M19.75,15.375 L12.25,15.375 L11.625,15.375 L11.625,16.625 L12.25,16.625 L19.75,16.625 L20.375,16.625 L20.375,15.375 L19.75,15.375 L19.75,15.375 Z M15.375,12.25 L15.375,19.75 L15.375,20.375 L16.625,20.375 L16.625,19.75 L16.625,12.25 L16.625,11.625 L15.375,11.625 L15.375,12.25 L15.375,12.25 Z M20.0403,24.4611 L20.3053,25.0141 C21.0613,24.6521 21.7693,24.2061 22.4053,23.6741 L22.0063,23.1961 C21.4093,23.6961 20.7493,24.1221 20.0403,24.4611 M23.2932,21.8883 L23.7762,22.2783 C24.2972,21.6343 24.7342,20.9213 25.0832,20.1593 L24.5242,19.9023 C24.1972,20.6173 23.7822,21.2833 23.2932,21.8883 M6.1838,17.9034 C6.3438,18.7344 6.6128,19.5254 6.9648,20.2694 L7.5198,20.0064 C7.1888,19.3094 6.9428,18.5654 6.7928,17.7864 L6.1838,17.9034 Z M11.8777,6.8954 C11.1137,7.2414 10.3997,7.6784 9.7527,8.1964 L10.1407,8.6794 C10.7477,8.1934 11.4157,7.7814 12.1317,7.4564 L11.8777,6.8954 Z M8.3523,9.5609 C7.8183,10.1949 7.3673,10.8989 7.0023,11.6539 L7.5543,11.9209 C7.8963,11.2139 8.3253,10.5559 8.8263,9.9609 L8.3523,9.5609 Z M8.4631,21.5796 L7.9701,21.9456 C8.4671,22.6156 9.0391,23.2256 9.6851,23.7526 L10.0781,23.2706 C9.4721,22.7766 8.9291,22.2076 8.4631,21.5796 M25.9895,15.835 L25.3715,15.845 L25.3725,16 C25.3725,16.747 25.2855,17.473 25.1205,18.169 L25.7185,18.311 C25.8945,17.568 25.9975,16.797 25.9975,16 C25.9975,15.944 25.9905,15.891 25.9895,15.835 M6.9216,13.6412 L6.3286,13.4872 C6.1236,14.2782 6.0036,15.1032 5.9996,15.9572 L6.6226,15.9592 C6.6266,15.1582 6.7296,14.3822 6.9216,13.6412 M11.3149,24.8334 C12.0429,25.2194 12.8259,25.5124 13.6469,25.7104 L13.7909,25.1134 C13.0209,24.9284 12.2889,24.6474 11.6059,24.2854 L11.3149,24.8334 Z M23.9004,9.8881 C23.3904,9.2291 22.8004,8.6361 22.1434,8.1231 L21.7644,8.6081 C22.3804,9.0891 22.9354,9.6461 23.4144,10.2641 L23.9004,9.8881 Z M16.1934,6.627 L16.2064,6.011 C16.1364,6.009 16.0684,6 15.9974,6 C15.2164,6 14.4594,6.099 13.7294,6.268 L13.8684,6.868 C14.5514,6.709 15.2644,6.625 15.9974,6.625 L16.1934,6.627 Z M20.4927,7.076 C19.7577,6.705 18.9727,6.419 18.1477,6.238 L18.0147,6.842 C18.7887,7.012 19.5267,7.277 20.2157,7.625 L20.4927,7.076 Z M25.7708,13.8921 C25.5938,13.0651 25.3088,12.2801 24.9398,11.5431 L24.3908,11.8181 C24.7358,12.5081 24.9978,13.2471 25.1638,14.0221 L25.7708,13.8921 Z M15.9978,25.375 C15.8668,25.375 15.7368,25.372 15.6068,25.367 L15.5818,25.979 C15.7208,25.985 15.8568,26 15.9978,26 C16.8518,26 17.6768,25.881 18.4678,25.68 L18.3168,25.086 C17.5758,25.275 16.7988,25.375 15.9978,25.375" sketch:type="MSShapeGroup"></path>
        </g>
    </g>
</svg>