<?xml version="1.0" encoding="utf-8"?>
<!-- Generator: Adobe Illustrator 19.1.0, SVG Export Plug-In . SVG Version: 6.00 Build 0)  -->
<svg version="1.1" id="Calque_1" xmlns="http://www.w3.org/2000/svg" xmlns:xlink="http://www.w3.org/1999/xlink" x="0px" y="0px"
	 viewBox="0 0 20 20" enable-background="new 0 0 20 20" xml:space="preserve">
<g>
	<path fill="none" d="M4.53,8.67c-0.07,0.07-0.1,0.15-0.1,0.24v8.74c0,0.1,0.04,0.18,0.1,0.24C4.6,17.96,4.68,18,4.77,18h10.45
		c0.1,0,0.18-0.04,0.24-0.1c0.07-0.07,0.1-0.15,0.1-0.24V8.91c0-0.1-0.04-0.18-0.1-0.24c-0.07-0.07-0.15-0.1-0.24-0.1H4.77
		C4.68,8.57,4.6,8.6,4.53,8.67z M10,12.03c0.69,0,1.25,0.56,1.25,1.25s-0.56,1.25-1.25,1.25s-1.25-0.56-1.25-1.25
		S9.31,12.03,10,12.03z"/>
	<path fill="#3A434C" d="M4.77,6.57c-1.3,0-2.34,1.05-2.35,2.35v8.74c0,1.3,1.05,2.34,2.35,2.35h10.45c1.3,0,2.34-1.05,2.35-2.35
		V8.91c0-1.3-1.05-2.34-2.35-2.35h-0.8V4.43C14.43,1.99,12.44,0,10,0C7.56,0,5.57,1.99,5.57,4.43h2c0-0.67,0.27-1.27,0.71-1.71
		C8.73,2.27,9.33,2,10,2c0.67,0,1.27,0.27,1.71,0.71c0.44,0.44,0.71,1.05,0.71,1.71v2.14H4.77z M15.47,8.67
		c0.07,0.07,0.1,0.15,0.1,0.24v8.74c0,0.1-0.04,0.18-0.1,0.24c-0.07,0.07-0.15,0.1-0.24,0.1H4.77c-0.1,0-0.18-0.04-0.24-0.1
		c-0.07-0.07-0.1-0.15-0.1-0.24V8.91c0-0.1,0.04-0.18,0.1-0.24c0.07-0.07,0.15-0.1,0.24-0.1h10.45C15.32,8.57,15.4,8.6,15.47,8.67z"
		/>
	<circle fill="#3A434C" cx="10" cy="13.28" r="1.25"/>
</g>
</svg>
