<?xml version="1.0" encoding="UTF-8" standalone="no"?>
<svg width="20px" height="20px" viewBox="0 0 20 20" version="1.1" xmlns="http://www.w3.org/2000/svg" xmlns:xlink="http://www.w3.org/1999/xlink" xmlns:sketch="http://www.bohemiancoding.com/sketch/ns">
    <!-- Generator: Sketch 3.4.2 (15857) - http://www.bohemiancoding.com/sketch -->
    <title>unlock</title>
    <desc>Created with Sketch.</desc>
    <defs></defs>
    <g id="Page-1" stroke="none" stroke-width="1" fill="none" fill-rule="evenodd" sketch:type="MSPage">
        <g id="unlock" sketch:type="MSArtboardGroup" transform="translate(-6.000000, -6.000000)" fill="#3A434C">
            <g sketch:type="MSLayerGroup" transform="translate(8.000000, 6.000000)">
                <path d="M13.1056639,6.55691176 L12.2439328,6.55691176 L12.2439328,4.40485294 C12.2398487,2.03838235 10.2631765,0.115294118 7.82773109,0.111323529 C5.39228571,0.115294118 3.41561345,2.03838235 3.41152941,4.40485294 L5.31741176,4.40485294 C5.31741176,3.73514706 5.59784874,3.12897059 6.05662185,2.68294118 C6.51539496,2.23691176 7.13752941,1.96558824 7.82773109,1.96426471 C8.51657143,1.96558824 9.14006723,2.23691176 9.59884034,2.68294118 C10.0576134,3.12897059 10.3380504,3.73514706 10.3380504,4.40485294 L10.3380504,6.55691176 L2.54979832,6.55691176 C1.27013445,6.56088235 0.238235294,7.56411765 0.235512605,8.80823529 L0.235512605,17.3873529 C0.238235294,18.6301471 1.27013445,19.6333824 2.54979832,19.6360294 L13.1056639,19.6360294 C14.3853277,19.6333824 15.4172269,18.6301471 15.4199496,17.3873529 L15.4199496,8.80823529 C15.4172269,7.56411765 14.3853277,6.56088235 13.1056639,6.55691176 L13.1056639,6.55691176 Z M13.5140672,17.3873529 C13.5140672,17.5991176 13.3248403,17.7830882 13.1056639,17.7830882 L2.54979832,17.7830882 C2.33062185,17.7830882 2.14139496,17.5991176 2.14139496,17.3873529 L2.14139496,8.80823529 C2.14139496,8.59514706 2.33062185,8.41117647 2.54979832,8.40985294 L13.1056639,8.40985294 C13.3248403,8.41117647 13.5140672,8.59514706 13.5140672,8.80823529 L13.5140672,17.3873529 L13.5140672,17.3873529 Z" id="Fill-1" sketch:type="MSShapeGroup"></path>
                <path d="M7.82773109,11.5082353 C6.92515966,11.5095588 6.19411765,12.2189706 6.19411765,13.0977941 C6.19411765,13.9752941 6.92515966,14.6847059 7.82773109,14.6847059 C8.73030252,14.6847059 9.45998319,13.9752941 9.46134454,13.0977941 C9.45998319,12.2189706 8.73030252,11.5095588 7.82773109,11.5082353 L7.82773109,11.5082353 Z M7.82773109,13.0964706 L7.82773109,12.8330882 L7.82773109,13.0964706 L7.82773109,13.0964706 Z" id="Fill-2" sketch:type="MSShapeGroup"></path>
            </g>
        </g>
    </g>
</svg>