<?xml version="1.0" encoding="utf-8"?>
<!-- Generator: Adobe Illustrator 19.2.1, SVG Export Plug-In . SVG Version: 6.00 Build 0)  -->
<svg version="1.1" id="Calque_1" xmlns="http://www.w3.org/2000/svg" xmlns:xlink="http://www.w3.org/1999/xlink" x="0px" y="0px"
	 viewBox="0 0 20 20" style="enable-background:new 0 0 20 20;" xml:space="preserve">
<style type="text/css">
	.st0{fill:#3A434C;}
</style>
<g>
	<path class="st0" d="M4.8,6.6c-1.3,0-2.3,1-2.3,2.3v8.7c0,1.3,1,2.3,2.3,2.4h10.4c1.3,0,2.3-1,2.4-2.4V8.9c0-1.3-1-2.3-2.4-2.3
		h-0.8V4.4C14.4,2,12.4,0,10,0S5.6,2,5.6,4.4h2c0-0.7,0.3-1.3,0.7-1.7C8.7,2.3,9.3,2,10,2s1.3,0.3,1.7,0.7s0.7,1,0.7,1.7v2.1
		L4.8,6.6L4.8,6.6z M15.5,8.7c0.1,0.1,0.1,0.1,0.1,0.2v8.7c0,0.1,0,0.2-0.1,0.2C15.4,18,15.3,18,15.2,18H4.8c-0.1,0-0.2,0-0.2-0.1
		c-0.1-0.1-0.1-0.1-0.1-0.2V8.9c0-0.1,0-0.2,0.1-0.2c0.1-0.1,0.2-0.1,0.2-0.1h10.4C15.3,8.6,15.4,8.6,15.5,8.7z"/>
	<circle class="st0" cx="10" cy="13.3" r="1.2"/>
</g>
</svg>
