<?xml version="1.0" encoding="utf-8"?>
<!-- Generator: Adobe Illustrator 19.2.1, SVG Export Plug-In . SVG Version: 6.00 Build 0)  -->
<svg version="1.1" id="Calque_1" xmlns="http://www.w3.org/2000/svg" xmlns:xlink="http://www.w3.org/1999/xlink" x="0px" y="0px"
	 viewBox="0 0 20 20" style="enable-background:new 0 0 20 20;" xml:space="preserve">
<style type="text/css">
	.st0{fill:#3A434C;}
</style>
<g>
	<path class="st0" d="M19,15.1h-3.7v-2.3H19c0.5,0,1-0.4,1-1s-0.5-1-1-1h-3.7v-2c0-0.3-0.1-0.5-0.3-0.7s-0.4-0.3-0.7-0.3h-0.7
		l-1.1,2h0.7V18h-2.1c-1.3,0-2.5-0.5-3.4-1.3C7,16,6.5,14.9,6.5,13.8s0.5-2.1,1.3-2.9c0.2-0.1,0.3-0.2,0.5-0.4l0-2.3
		C7.7,8.6,7,9,6.5,9.5c-1,0.9-1.7,2.1-1.9,3.4H1c-0.6,0-1,0.4-1,1s0.4,1,1,1h3.6c0.2,1.3,0.9,2.5,1.9,3.4c1.2,1.1,2.9,1.8,4.7,1.8
		h3.1c0.3,0,0.5-0.1,0.7-0.3s0.3-0.4,0.3-0.7v-2H19c0.5,0,1-0.5,1-1S19.5,15.1,19,15.1z"/>
	<path class="st0" d="M9.4,11.2l0,0.7c0,0.2,0.1,0.3,0.3,0.3c0.1,0,0.3,0,0.4-0.2l0.8-1.4l2.1-4l1.1-2c0.1-0.1,0.1-0.2,0-0.3
		c-0.1-0.1-0.2-0.2-0.3-0.2l-3.4,0l1.4-3.6c0-0.1,0-0.2,0-0.3c0-0.1-0.2-0.1-0.3-0.1H8.5C8.4,0,8.2,0.1,8.2,0.2L6,6.6
		c0,0.1,0,0.2,0,0.3s0.2,0.1,0.3,0.1l2.9,0h0.2L9.4,11.2z"/>
</g>
</svg>
