<svg viewBox="0 0 20 20"><path d="M19 15.1h-3.7v-2.3H19c.5 0 1-.4 1-1s-.5-1-1-1h-3.7v-2c0-.3-.1-.5-.3-.7s-.4-.3-.7-.3h-.7l-1.1 2h.7V18h-2.1c-1.3 0-2.5-.5-3.4-1.3-.7-.7-1.2-1.8-1.2-2.9s.5-2.1 1.3-2.9c.2-.1.3-.2.5-.4V8.2c-.6.4-1.3.8-1.8 1.3-1 .9-1.7 2.1-1.9 3.4H1c-.6 0-1 .4-1 1s.4 1 1 1h3.6c.2 1.3.9 2.5 1.9 3.4 1.2 1.1 2.9 1.8 4.7 1.8h3.1c.3 0 .5-.1.7-.3s.3-.4.3-.7v-2H19c.5 0 1-.5 1-1s-.5-1-1-1z"/><path d="M9.4 11.2v.7c0 .2.1.3.3.3.1 0 .3 0 .4-.2l.8-1.4 2.1-4 1.1-2c.1-.1.1-.2 0-.3-.1-.1-.2-.2-.3-.2h-3.4L11.8.5V.2c0-.1-.2-.1-.3-.1h-3c-.1-.1-.3 0-.3.1L6 6.6v.3c0 .1.2.1.3.1h3.1v4.2z"/></svg>