<?xml version="1.0" encoding="utf-8"?>
<!-- Generator: Adobe Illustrator 19.1.0, SVG Export Plug-In . SVG Version: 6.00 Build 0)  -->
<svg version="1.1" id="Calque_1" xmlns="http://www.w3.org/2000/svg" xmlns:xlink="http://www.w3.org/1999/xlink" x="0px" y="0px"
	 viewBox="0 0 20 20" enable-background="new 0 0 20 20" xml:space="preserve">
<g>
	<path fill="none" d="M10.77,10.66l-0.75,1.42c-0.07,0.14-0.23,0.21-0.39,0.17c-0.15-0.04-0.26-0.18-0.26-0.34l0.01-0.72l-1.07,0.42
		l0.01-1.03c-0.16,0.11-0.33,0.22-0.48,0.35c-0.85,0.77-1.35,1.79-1.35,2.9c0,1.11,0.5,2.13,1.35,2.9C8.69,17.51,9.89,18,11.22,18
		h2.09V9.68H12.6l-0.18,0.34L10.77,10.66z"/>
	<path fill="#3A434C" d="M18.99,15.05h-3.67v-2.33h3.67c0.55,0,1-0.45,1-1c0-0.55-0.45-1-1-1h-3.67V8.68c0-0.26-0.11-0.52-0.29-0.71
		s-0.44-0.29-0.71-0.29h-0.66l-1.05,2h0.71V18h-2.09c-1.33,0-2.53-0.49-3.39-1.26c-0.85-0.77-1.35-1.79-1.35-2.9
		c0-1.11,0.5-2.13,1.35-2.9c0.15-0.13,0.31-0.24,0.48-0.35l0.02-2.3c-0.68,0.3-1.3,0.69-1.83,1.17c-0.98,0.88-1.68,2.07-1.92,3.39
		H1.01c-0.55,0-1,0.45-1,1c0,0.55,0.45,1,1,1h3.57c0.24,1.32,0.94,2.5,1.92,3.38C7.73,19.33,9.4,20,11.22,20h3.09
		c0.26,0,0.52-0.11,0.71-0.29s0.29-0.44,0.29-0.71v-1.95h3.67c0.55,0,1-0.45,1-1S19.54,15.05,18.99,15.05z"/>
	<path fill="#3A434C" d="M9.38,11.2l-0.01,0.72c0,0.16,0.11,0.3,0.26,0.34c0.15,0.04,0.31-0.03,0.39-0.17l0.75-1.42l2.13-4.04
		l1.05-1.99c0.06-0.11,0.05-0.23-0.01-0.34c-0.06-0.1-0.17-0.17-0.29-0.17l-3.4-0.04l1.36-3.63c0.04-0.11,0.02-0.22-0.04-0.32
		C11.52,0.06,11.41,0,11.3,0H8.51C8.36,0,8.23,0.09,8.18,0.23L6.02,6.61C5.98,6.71,6,6.83,6.06,6.92s0.17,0.14,0.28,0.14L9.22,7.1
		l0.19,0L9.38,11.2z"/>
</g>
</svg>
