<?xml version="1.0" encoding="UTF-8" standalone="no"?>
<svg width="18px" height="20px" viewBox="0 0 18 20" version="1.1" xmlns="http://www.w3.org/2000/svg" xmlns:xlink="http://www.w3.org/1999/xlink" xmlns:sketch="http://www.bohemiancoding.com/sketch/ns">
    <!-- Generator: Sketch 3.4.2 (15857) - http://www.bohemiancoding.com/sketch -->
    <title>user</title>
    <desc>Created with Sketch.</desc>
    <defs></defs>
    <g id="Page-1" stroke="none" stroke-width="1" fill="none" fill-rule="evenodd" sketch:type="MSPage">
        <g id="user" sketch:type="MSArtboardGroup" transform="translate(-7.000000, -6.000000)" fill="#3A434C">
            <g sketch:type="MSLayerGroup" transform="translate(7.000000, 6.000000)">
                <path d="M9.00067944,10 C11.7619242,10 14,7.76192417 14,5.00067944 C14,2.23807583 11.7619242,0 9.00067944,0 C6.23807583,0 4,2.23807583 4,5.00067944 C4,7.76192417 6.23807583,10 9.00067944,10 L9.00067944,10 Z M9.00067944,1.9024324 C10.7115097,1.90650904 12.093491,3.28849028 12.0975676,5.00067944 C12.093491,6.71150972 10.7115097,8.09349096 9.00067944,8.0975676 C7.28849028,8.09349096 5.90515016,6.71150972 5.9024324,5.00067944 C5.90515016,3.28849028 7.28849028,1.90650904 9.00067944,1.9024324 L9.00067944,1.9024324 Z" id="Fill-1" sketch:type="MSShapeGroup"></path>
                <path d="M16.8145888,14.5394445 C15.8035514,13.6098143 14.4086443,13.0209576 12.9867041,12.6093031 C11.5634122,12.2044641 10.1225488,12.0013631 9.00067583,12 C7.50574628,12.0040893 5.43366038,12.3557676 3.61298217,13.0863861 C2.70467055,13.4557846 1.85853501,13.9165105 1.18405957,14.5394445 C0.517694044,15.1528369 -0.00269282395,16.0034077 1.0484455e-05,17.0148236 L1.0484455e-05,20 L17.9999895,20 L17.9999895,17.0148236 C18.0026928,16.0034077 17.482306,15.1528369 16.8145888,14.5394445 L16.8145888,14.5394445 Z M16.1076736,18.0916681 L1.89232637,18.0916681 L1.89232637,17.0148236 C1.89367802,16.6754132 2.04506329,16.3441813 2.46813106,15.9420685 C3.0925953,15.3504856 4.27529273,14.7957063 5.52827618,14.445391 C6.77720466,14.0868973 8.10588074,13.9056057 9.00067583,13.9083319 C10.1941865,13.9028795 12.1486785,14.2327483 13.682806,14.8570455 C14.4518972,15.1651048 15.1155594,15.5508605 15.5318689,15.9420685 C15.9549367,16.3441813 16.106322,16.6754132 16.1076736,17.0148236 L16.1076736,18.0916681 L16.1076736,18.0916681 Z" id="Fill-2" sketch:type="MSShapeGroup"></path>
            </g>
        </g>
    </g>
</svg>