<?xml version="1.0" encoding="utf-8"?>
<!-- Generator: Adobe Illustrator 19.2.1, SVG Export Plug-In . SVG Version: 6.00 Build 0)  -->
<svg version="1.1" id="Calque_1" xmlns="http://www.w3.org/2000/svg" xmlns:xlink="http://www.w3.org/1999/xlink" x="0px" y="0px"
	 viewBox="0 0 20 20" style="enable-background:new 0 0 20 20;" xml:space="preserve">
<style type="text/css">
	.st0{fill:#3A434C;}
</style>
<g>
	<path class="st0" d="M18.7,19.7c0.2-0.2,0.3-0.4,0.3-0.7v-2c0-0.5-0.1-1-0.4-1.4c-0.4-0.7-1-1.3-1.7-1.7c-1-0.7-2.3-1.1-3.5-1.4
		C12.2,12.1,11,12,10,12c-1.5,0-3.6,0.4-5.4,1.1c-0.9,0.4-1.8,0.8-2.4,1.4c-0.3,0.3-0.6,0.7-0.9,1.1S1,16.5,1,17v2
		c0,0.3,0.1,0.5,0.3,0.7S1.7,20,2,20h16C18.3,20,18.5,19.9,18.7,19.7z M17,18H3v-1c0-0.2,0-0.3,0.1-0.5c0.2-0.3,0.5-0.6,1-1
		c0.8-0.5,1.8-0.9,2.9-1.2c1.1-0.3,2.2-0.4,3-0.4c1.2,0,3.1,0.3,4.6,0.9c0.8,0.3,1.4,0.7,1.8,1.1c0.2,0.2,0.4,0.4,0.4,0.5
		C17,16.7,17,16.8,17,17L17,18L17,18z"/>
	<path class="st0" d="M5,5c0,2.8,2.2,5,5,5s5-2.2,5-5s-2.2-5-5-5S5,2.2,5,5z M13,5c0,1.7-1.3,3-3,3S7,6.7,7,5s1.3-3,3-3S13,3.3,13,5
		z"/>
</g>
</svg>
