<svg viewBox="0 0 20 20"><path d="M18.7 19.7c.2-.2.3-.4.3-.7v-2c0-.5-.1-1-.4-1.4-.4-.7-1-1.3-1.7-1.7-1-.7-2.3-1.1-3.5-1.4-1.2-.4-2.4-.5-3.4-.5-1.5 0-3.6.4-5.4 1.1-.9.4-1.8.8-2.4 1.4-.3.3-.6.7-.9 1.1S1 16.5 1 17v2c0 .3.1.5.3.7s.4.3.7.3h16c.3 0 .5-.1.7-.3zM17 18H3v-1c0-.2 0-.3.1-.5.2-.3.5-.6 1-1 .8-.5 1.8-.9 2.9-1.2 1.1-.3 2.2-.4 3-.4 1.2 0 3.1.3 4.6.9.8.3 1.4.7 1.8 1.1.2.2.4.4.4.5.2.3.2.4.2.6v1zM5 5c0 2.8 2.2 5 5 5s5-2.2 5-5-2.2-5-5-5-5 2.2-5 5zm8 0c0 1.7-1.3 3-3 3S7 6.7 7 5s1.3-3 3-3 3 1.3 3 3z"/></svg>