<?xml version="1.0" encoding="utf-8"?>
<!-- Generator: Adobe Illustrator 19.1.0, SVG Export Plug-In . SVG Version: 6.00 Build 0)  -->
<svg version="1.1" id="Calque_1" xmlns="http://www.w3.org/2000/svg" xmlns:xlink="http://www.w3.org/1999/xlink" x="0px" y="0px"
	 viewBox="0 0 20 20" enable-background="new 0 0 20 20" xml:space="preserve">
<g>
	<path fill="none" d="M16.45,15.98c-0.41-0.38-1.06-0.76-1.82-1.06C13.12,14.31,11.18,13.99,10,14c-0.77,0-1.88,0.13-2.97,0.4
		c-1.09,0.27-2.18,0.68-2.93,1.16c-0.5,0.32-0.84,0.67-0.98,0.96C3.03,16.69,2.99,16.83,2.99,17v1h14.01v-1
		c0-0.16-0.04-0.31-0.12-0.48C16.8,16.36,16.66,16.17,16.45,15.98z"/>
	<path fill="none" d="M7,5c0,1.66,1.34,3,3,3c1.66,0,3-1.34,3-3c0-1.66-1.34-3-3-3C8.34,2,7,3.34,7,5z"/>
	<path fill="#3A434C" d="M18.71,19.71c0.19-0.19,0.29-0.44,0.29-0.71v-2c0-0.5-0.13-0.98-0.35-1.4c-0.38-0.73-0.99-1.28-1.68-1.72
		c-1.04-0.66-2.29-1.12-3.53-1.42C12.2,12.15,10.98,12,10,12C8.51,12,6.44,12.35,4.62,13.07c-0.91,0.37-1.75,0.82-2.43,1.44
		c-0.34,0.31-0.63,0.67-0.85,1.09c-0.22,0.42-0.35,0.9-0.35,1.4v2c0,0.26,0.11,0.52,0.29,0.71S1.73,20,1.99,20h16.01
		C18.27,20,18.53,19.89,18.71,19.71z M17.01,18H2.99v-1c0-0.16,0.04-0.31,0.12-0.48c0.15-0.29,0.48-0.64,0.98-0.96
		c0.75-0.49,1.84-0.9,2.93-1.16c1.09-0.27,2.2-0.4,2.97-0.4c1.18-0.01,3.12,0.32,4.63,0.93c0.76,0.3,1.41,0.68,1.82,1.06
		c0.2,0.19,0.35,0.37,0.43,0.54c0.09,0.17,0.12,0.31,0.12,0.48V18z"/>
	<path fill="#3A434C" d="M5,5c0,2.76,2.24,5,5,5c2.76,0,5-2.24,5-5c0-2.76-2.24-5-5-5C7.24,0,5,2.24,5,5z M13,5c0,1.66-1.34,3-3,3
		C8.34,8,7,6.66,7,5c0-1.66,1.34-3,3-3C11.66,2,13,3.34,13,5z"/>
</g>
</svg>
