<?xml version="1.0" encoding="utf-8"?>
<!-- Generator: Adobe Illustrator 19.1.0, SVG Export Plug-In . SVG Version: 6.00 Build 0)  -->
<svg version="1.1" id="Calque_1" xmlns="http://www.w3.org/2000/svg" xmlns:xlink="http://www.w3.org/1999/xlink" x="0px" y="0px"
	 viewBox="0 0 20 20" enable-background="new 0 0 20 20" xml:space="preserve">
<g>
	<path fill="none" d="M3.19,18.5h13.63c0.14,0,0.26-0.12,0.26-0.26V1.76c0-0.14-0.12-0.26-0.26-0.26H3.19
		c-0.14,0-0.26,0.12-0.26,0.26v16.47C2.92,18.38,3.05,18.5,3.19,18.5z M5.3,6.52c0-0.64,0.52-1.15,1.16-1.16h4.03
		c0.64,0,1.15,0.52,1.16,1.16v0.2l1.87-1.23c0.23-0.15,0.53-0.16,0.77-0.03s0.39,0.38,0.39,0.66v3.63c0,0.28-0.15,0.53-0.4,0.66
		c-0.24,0.13-0.54,0.12-0.77-0.04l-1.86-1.25v0.21c0,0.64-0.52,1.15-1.16,1.16H6.46c-0.64,0-1.15-0.52-1.16-1.16V6.52z"/>
	<rect x="6.8" y="6.87" fill="none" width="3.34" height="2.14"/>
	<polygon fill="none" points="13.17,7.52 12.54,7.93 13.17,8.36 	"/>
	<path fill="#3A434C" d="M3.19,20h13.63c0.97,0,1.76-0.79,1.76-1.76V1.76c0-0.97-0.79-1.76-1.76-1.76H3.19
		C2.21,0,1.43,0.79,1.42,1.76v16.47C1.43,19.21,2.21,20,3.19,20z M2.92,1.76c0-0.14,0.12-0.26,0.26-0.26h13.63
		c0.14,0,0.26,0.12,0.26,0.26v16.47c0,0.14-0.12,0.26-0.26,0.26H3.19c-0.14,0-0.26-0.12-0.26-0.26V1.76z"/>
	<path fill="#3A434C" d="M6.46,10.51h4.03c0.64,0,1.15-0.52,1.16-1.16V9.14l1.86,1.25c0.23,0.15,0.53,0.17,0.77,0.04
		c0.24-0.13,0.4-0.38,0.4-0.66V6.13c0-0.28-0.15-0.53-0.39-0.66s-0.54-0.12-0.77,0.03l-1.87,1.23v-0.2c0-0.64-0.52-1.15-1.16-1.16
		H6.46c-0.64,0-1.15,0.52-1.16,1.16v2.83C5.3,9.99,5.82,10.5,6.46,10.51z M13.17,7.52v0.84l-0.63-0.42L13.17,7.52z M10.14,9.01H6.8
		V6.87h3.34V9.01z"/>
</g>
</svg>
