<?xml version="1.0" encoding="UTF-8" standalone="no"?>
<svg width="20px" height="20px" viewBox="0 0 20 20" version="1.1" xmlns="http://www.w3.org/2000/svg" xmlns:xlink="http://www.w3.org/1999/xlink">
    <!-- Generator: Sketch 3.8.3 (29802) - http://www.bohemiancoding.com/sketch -->
    <title>video</title>
    <desc>Created with Sketch.</desc>
    <defs></defs>
    <g stroke="none" stroke-width="1" fill="none" fill-rule="evenodd">
        <g transform="translate(-6.000000, -6.000000)" fill="#3A434C">
            <path d="M23.0833333,24.2685714 C23.0833333,24.3514286 23.0514583,24.4235714 22.9947917,24.4814286 C22.9367083,24.5385714 22.8651667,24.5707143 22.783,24.5714286 L9.217,24.5714286 C9.13483333,24.5707143 9.06329167,24.5385714 9.00520833,24.4814286 C8.94854167,24.4235714 8.91666667,24.3514286 8.91666667,24.2685714 L8.91666667,7.73071429 C8.91666667,7.64785714 8.94854167,7.57571429 9.00520833,7.51785714 C9.06329167,7.46071429 9.13483333,7.42857143 9.217,7.42857143 L22.783,7.42857143 C22.8651667,7.42857143 22.9367083,7.46071429 22.9947917,7.51785714 C23.0514583,7.57571429 23.0833333,7.64785714 23.0833333,7.73071429 L23.0833333,24.2685714 Z M22.783,6 L9.217,6 C8.26783333,6.00214286 7.50283333,6.77357143 7.5,7.73071429 L7.5,24.2685714 C7.50283333,25.2257143 8.26783333,25.9971429 9.217,26 L22.783,26 C23.7321667,25.9971429 24.4971667,25.2257143 24.5,24.2685714 L24.5,7.73071429 C24.4971667,6.77357143 23.7321667,6.00214286 22.783,6 L22.783,6 Z M16.1799167,15.0417857 L12.7756667,15.0417857 L12.7756667,12.8160714 L16.1799167,12.8160714 L16.1799167,15.0417857 Z M20.2422083,11.4839286 C20.0134167,11.3596429 19.7343333,11.3717857 19.516875,11.5153571 L17.5965833,12.7860714 L17.5965833,12.3917857 C17.59375,11.8346429 17.1531667,11.3903571 16.6006667,11.3875 L12.3549167,11.3875 C11.8024167,11.3903571 11.3618333,11.8353571 11.359,12.3917857 L11.359,15.4660714 C11.3618333,16.0232143 11.8024167,16.4682143 12.3549167,16.4703571 L16.6006667,16.4703571 C17.1531667,16.4682143 17.59375,16.0239286 17.5965833,15.4660714 L17.5965833,15.0617857 L19.5119167,16.3532143 C19.7300833,16.5003571 20.0084583,16.5139286 20.239375,16.3889286 C20.471,16.2646429 20.6140833,16.0232143 20.6140833,15.7596429 L20.6140833,12.1125 C20.6140833,11.8503571 20.471,11.6089286 20.2422083,11.4839286 L20.2422083,11.4839286 Z"></path>
        </g>
    </g>
</svg>