<?xml version="1.0" encoding="utf-8"?>
<!-- Generator: Adobe Illustrator 19.2.1, SVG Export Plug-In . SVG Version: 6.00 Build 0)  -->
<svg version="1.1" id="Calque_1" xmlns="http://www.w3.org/2000/svg" xmlns:xlink="http://www.w3.org/1999/xlink" x="0px" y="0px"
	 viewBox="0 0 20 20" style="enable-background:new 0 0 20 20;" xml:space="preserve">
<style type="text/css">
	.st0{fill:#3A434C;}
</style>
<path class="st0" d="M3.2,20h13.6c1,0,1.8-0.8,1.8-1.8V1.8c0-1-0.8-1.8-1.8-1.8H3.2c-1,0-1.8,0.8-1.8,1.8v16.5
	C1.4,19.2,2.2,20,3.2,20z M2.9,1.8c0-0.1,0.1-0.3,0.3-0.3h13.6c0.1,0,0.3,0.1,0.3,0.3v16.5c0,0.1-0.1,0.3-0.3,0.3H3.2
	c-0.1,0-0.3-0.1-0.3-0.3L2.9,1.8L2.9,1.8z"/>
<path class="st0" d="M6.5,10.5h4c0.6,0,1.1-0.5,1.2-1.2V9.1l1.9,1.2c0.2,0.1,0.5,0.2,0.8,0s0.4-0.4,0.4-0.7V6.1
	c0-0.3-0.1-0.5-0.4-0.7s-0.5-0.1-0.8,0l-1.9,1.2V6.5c0-0.6-0.5-1.2-1.2-1.2h-4c-0.6,0-1.2,0.5-1.2,1.2v2.8C5.3,10,5.8,10.5,6.5,10.5
	z M13.2,7.5v0.8l-0.6-0.4L13.2,7.5z M10.1,9H6.8V6.9h3.3V9z"/>
</svg>
