<?xml version="1.0" encoding="utf-8"?>
<!-- Generator: Adobe Illustrator 19.1.0, SVG Export Plug-In . SVG Version: 6.00 Build 0)  -->
<svg version="1.1" id="Calque_1" xmlns="http://www.w3.org/2000/svg" xmlns:xlink="http://www.w3.org/1999/xlink" x="0px" y="0px"
	 viewBox="0 0 20 20" enable-background="new 0 0 20 20" xml:space="preserve">
<g>
	<path fill="none" d="M10,2C7.79,2,5.79,2.89,4.34,4.34C2.89,5.79,2,7.79,2,10c0,2.21,0.89,4.21,2.34,5.66C5.79,17.11,7.79,18,10,18
		c2.21,0,4.21-0.89,5.66-2.34C17.11,14.21,18,12.21,18,10c0-2.21-0.89-4.21-2.34-5.66C14.21,2.89,12.21,2,10,2z M13.03,8.91
		l-2.89,5.47c-0.08,0.15-0.26,0.23-0.42,0.19c-0.17-0.04-0.28-0.19-0.28-0.37l0.03-3.41l-2.13-0.03c-0.12,0-0.23-0.06-0.3-0.16
		c-0.07-0.1-0.09-0.22-0.05-0.34l1.59-4.68c0.05-0.15,0.19-0.25,0.36-0.25h2.05c0.12,0,0.24,0.06,0.31,0.16
		c0.07,0.1,0.09,0.23,0.04,0.35l-0.94,2.5l2.32,0.02c0.13,0,0.25,0.07,0.32,0.18S13.09,8.8,13.03,8.91z"/>
	<path fill="#3A434C" d="M10,0C4.48,0,0,4.48,0,10c0,5.52,4.48,10,10,10c5.52,0,10-4.48,10-10C20,4.48,15.52,0,10,0z M15.66,15.66
		C14.21,17.11,12.21,18,10,18c-2.21,0-4.21-0.89-5.66-2.34C2.89,14.21,2,12.21,2,10c0-2.21,0.89-4.21,2.34-5.66
		C5.79,2.89,7.79,2,10,2c2.21,0,4.21,0.89,5.66,2.34C17.11,5.79,18,7.79,18,10C18,12.21,17.11,14.21,15.66,15.66z"/>
	<path fill="#3A434C" d="M12.7,8.36l-2.32-0.02l0.94-2.5c0.04-0.12,0.03-0.24-0.04-0.35c-0.07-0.1-0.19-0.16-0.31-0.16H8.92
		c-0.16,0-0.3,0.1-0.36,0.25l-1.59,4.68c-0.04,0.11-0.02,0.24,0.05,0.34c0.07,0.1,0.18,0.16,0.3,0.16l2.13,0.03L9.43,14.2
		c0,0.17,0.12,0.32,0.28,0.37c0.17,0.04,0.34-0.04,0.42-0.19l2.89-5.47c0.06-0.12,0.06-0.26-0.01-0.37S12.83,8.37,12.7,8.36z"/>
</g>
</svg>
