<?xml version="1.0" encoding="utf-8"?>
<!-- Generator: Adobe Illustrator 19.2.1, SVG Export Plug-In . SVG Version: 6.00 Build 0)  -->
<svg version="1.1" id="Calque_1" xmlns="http://www.w3.org/2000/svg" xmlns:xlink="http://www.w3.org/1999/xlink" x="0px" y="0px"
	 viewBox="0 0 20 20" style="enable-background:new 0 0 20 20;" xml:space="preserve">
<style type="text/css">
	.st0{fill:#3A434C;}
</style>
<g>
	<path class="st0" d="M1,19h18c0.4,0,0.7-0.2,0.9-0.5s0.2-0.7,0-1l-9-16C10.7,1.2,10.4,1,10,1S9.3,1.2,9.1,1.5l-9,16
		c-0.2,0.3-0.2,0.7,0,1C0.3,18.8,0.6,19,1,19z M10,4l7.3,13H2.7L10,4z"/>
	<path class="st0" d="M10,13c0.6,0,1-0.4,1-1V8.8c0-0.6-0.4-1-1-1s-1,0.4-1,1V12C9,12.6,9.4,13,10,13z"/>
	<circle class="st0" cx="10" cy="15" r="1"/>
</g>
</svg>
