<?xml version="1.0" encoding="utf-8"?>
<!-- Generator: Adobe Illustrator 19.2.1, SVG Export Plug-In . SVG Version: 6.00 Build 0)  -->
<svg version="1.1" id="Calque_1" xmlns="http://www.w3.org/2000/svg" xmlns:xlink="http://www.w3.org/1999/xlink" x="0px" y="0px"
	 viewBox="0 0 29 20" style="enable-background:new 0 0 29 20;" xml:space="preserve">
<title>icon wifi</title>
<desc>Created with Sketch.</desc>
<path id="icon-wifi" d="M14.5,17.1c-1.9-0.1-2,2.8-0.1,2.9C16.3,20,16.4,17.1,14.5,17.1z M24.5,9.9c-5-5.2-13.4-5.7-19-1
	c-0.7,0.6-2.7,2.2-1.1,3c0.6,0.3,1.1-0.1,1.5-0.5c0.6-0.6,1.3-1.2,2.1-1.7c2.9-1.9,6.7-2.4,10-1.4c1.8,0.6,3.5,1.6,4.8,3
	c0.5,0.5,1.2,1.1,1.9,0.4C25.4,11.1,25,10.3,24.5,9.9z M20.5,13.7c-2.1-2.2-5.2-3-8.1-2.2c-1.4,0.4-2.6,1.1-3.6,2.1
	c-0.4,0.4-1,0.9-1,1.5c0,0.6,0.5,1.1,1.1,1c0.7,0,1-0.7,1.4-1.1c0.5-0.5,1.1-0.9,1.8-1.2c1.4-0.6,2.9-0.7,4.4-0.2
	c0.7,0.2,1.3,0.6,1.9,1c0.5,0.4,0.9,1.1,1.5,1.4c0.5,0.2,1.2,0,1.4-0.5C21.5,14.8,20.9,14.2,20.5,13.7
	C18.9,12.2,20.6,13.9,20.5,13.7z M28.5,5.9C22.2-0.6,12-1.9,4.3,2.9C3.4,3.4,2.6,4,1.8,4.7c-0.6,0.5-2,1.4-1.5,2.4
	C0.7,8.2,1.8,7.5,2.4,7C3.2,6.2,4.1,5.5,5,4.9c3.7-2.4,8.3-3.3,12.7-2.5c2.3,0.4,4.6,1.3,6.5,2.7c1,0.7,1.8,1.6,2.8,2.3
	C28,8.2,29.5,7,28.5,5.9C25,2.3,28.9,6.3,28.5,5.9z"/>
</svg>
