<svg viewBox="0 0 20 20"><circle cx="10" cy="16.2" r="1.2"/><path d="M13.6 13.7c.4-.4.4-1 0-1.4-.9-.9-2.2-1.5-3.6-1.5s-2.7.6-3.6 1.5c-.3.3-.4.8-.2 1.1.2.5.8.7 1.3.4.1-.1.2-.1.3-.2.6-.6 1.3-.9 2.1-.9.9 0 1.6.3 2.1.9.6.5 1.2.5 1.6.1z"/><path d="M16.6 10.9c.4-.4.4-1 0-1.4-1.7-1.8-4.1-2.8-6.6-2.8s-4.9 1-6.6 2.8c-.3.3-.4.7-.2 1.1.2.5.8.7 1.3.5.1-.1.2-.1.3-.2C6.2 9.5 8.1 8.7 10 8.7c2 0 3.9.8 5.2 2.2.4.4 1 .4 1.4 0z"/><path d="M10 2.5C6.2 2.5 2.7 4.1.3 6.6c-.4.4-.4 1 0 1.4.4.4 1 .4 1.4 0 2.1-2.1 5-3.5 8.3-3.5 3.2 0 6.2 1.3 8.3 3.5.4.4 1 .4 1.4 0 .4-.4.4-1 0-1.4-2.5-2.6-6-4.1-9.7-4.1z"/></svg>