<?xml version="1.0" encoding="UTF-8" standalone="no"?>
<svg width="89px" height="20px" viewBox="0 0 89 20" version="1.1" xmlns="http://www.w3.org/2000/svg" xmlns:xlink="http://www.w3.org/1999/xlink" xmlns:sketch="http://www.bohemiancoding.com/sketch/ns">
    <!-- Generator: Sketch 3.4.2 (15857) - http://www.bohemiancoding.com/sketch -->
    <title>wisemblyFull</title>
    <desc>Created with Sketch.</desc>
    <defs></defs>
    <g id="Page-1" stroke="none" stroke-width="1" fill="none" fill-rule="evenodd" sketch:type="MSPage">
        <g id="wisemblyFull" sketch:type="MSArtboardGroup" transform="translate(-6.000000, -6.000000)" fill="#3A434C">
            <g sketch:type="MSLayerGroup" transform="translate(6.000000, 6.000000)">
                <path d="M89.0167925,6.65041667 L87.1347783,6.65041667 L85.2216981,12.0833333 L83.1264198,6.65041667 L81.0651462,6.65041667 L84.2737642,14.2941667 C83.9891321,14.90875 83.7418632,15.0708333 83.2939245,15.0779167 C82.9534575,15.0779167 82.6218066,14.97 82.3145047,14.8029167 L82.2276038,14.7558333 L81.5588443,16.2108333 L81.63525,16.2520833 C82.1772264,16.54375 82.7313774,16.72125 83.4811604,16.7208333 C84.7422736,16.7283333 85.4748443,16.1016667 86.0755943,14.5445833 L89.1511321,6.65041667 L89.0167925,6.65041667" id="Fill-1" sketch:type="MSShapeGroup"></path>
                <path d="M73.1508632,6.64666667 C72.0072972,6.645 71.2235094,7.03291667 70.6622217,7.73125 L70.6622217,3.79791667 L68.7331887,3.79791667 L68.7331887,14.4633333 L70.6622217,14.4633333 L70.6622217,13.38125 C71.2025189,14.0120833 71.9863066,14.4645833 73.1508632,14.4633333 C75.0160849,14.4595833 76.7100236,13.2316667 76.7133821,10.6691667 C76.7100236,8.10625 75.0018113,6.65041667 73.1508632,6.64666667 L73.1508632,6.64666667 Z M72.7465849,8.32833333 C73.8762972,8.33083333 74.8275896,9.2225 74.8313679,10.6691667 C74.8271698,12.1308333 73.8918302,12.77875 72.7465849,12.7816667 C71.6164528,12.78 70.6215,11.9491667 70.6189811,10.5195833 C70.6215,9.09 71.6164528,8.33 72.7465849,8.32833333 L72.7465849,8.32833333 Z" id="Fill-2" sketch:type="MSShapeGroup"></path>
                <path d="M64.6828491,6.65041667 C63.5514575,6.64875 62.7349245,7.15541667 62.115283,7.91333333 C61.6841368,7.15125 60.9087453,6.64791667 59.839066,6.65041667 C58.7626698,6.64833333 58.0926509,7.175 57.6098679,7.77291667 L57.6098679,6.65041667 L55.6808349,6.65041667 L55.6808349,14.4595833 L57.6098679,14.4595833 L57.6098679,10.2045833 C57.6174245,9.06416667 58.2328679,8.4125 59.1467972,8.40708333 C60.0619858,8.415 60.5863302,9.00125 60.5968255,10.1475 L60.5968255,14.4595833 L62.5254387,14.4595833 L62.5254387,10.1904167 C62.5342547,9.0075 63.158934,8.41416667 64.0627877,8.40708333 C64.9935094,8.41625 65.5014811,8.985 65.512816,10.1616667 L65.512816,14.4595833 L67.4414292,14.4595833 L67.4414292,9.63208333 C67.4418491,8.69333333 67.1845047,7.94541667 66.7050802,7.4325 C66.2260755,6.91916667 65.5304481,6.64958333 64.6828491,6.65041667" id="Fill-3" sketch:type="MSShapeGroup"></path>
                <path d="M78.0261321,3.80208333 L79.9547453,3.80208333 L79.9547453,14.4520833 L78.0261321,14.4520833 L78.0261321,3.80208333 Z" id="Fill-4" sketch:type="MSShapeGroup"></path>
                <path d="M31.5164953,11.62 L29.8863679,6.64791667 L28.2671557,6.64791667 L26.6517217,11.6166667 L25.1886792,6.65041667 L23.2054906,6.65041667 L25.729816,14.4529167 L27.4212358,14.4529167 L29.0694151,9.49083333 L30.7037406,14.4529167 L32.3951604,14.4529167 L34.9488726,6.65041667 L33.0085047,6.65041667 L31.5164953,11.62" id="Fill-5" sketch:type="MSShapeGroup"></path>
                <path d="M36.4026792,14.455 L38.3312925,14.455 L38.3312925,6.64958333 L36.4026792,6.64958333 L36.4026792,14.455 Z" id="Fill-6" sketch:type="MSShapeGroup"></path>
                <path d="M43.4395566,9.76 C42.533184,9.48125 41.7594717,9.33166667 41.7884387,8.89875 L41.7884387,8.87 C41.7901179,8.49041667 42.1091745,8.21 42.7632406,8.20333333 C43.3711274,8.2025 44.1385425,8.4675 44.862717,8.905 L44.9445802,8.955 L45.7250094,7.56666667 L45.6540613,7.52 C44.8308113,6.98041667 43.779184,6.64708333 42.8064811,6.64666667 C41.260316,6.64875 40.0063396,7.55208333 40.0038208,9.04208333 L40.0038208,9.07041667 C40.0055,10.5854167 41.3291651,10.95625 42.4496415,11.26625 C43.3572736,11.5329167 44.1091557,11.68375 44.0835472,12.16375 L44.0835472,12.1920833 C44.0818679,12.6270833 43.7246085,12.8933333 42.9941368,12.90125 C42.2401557,12.9016667 41.3635896,12.595 40.5554528,11.9895833 L40.4765283,11.9304167 L39.5970236,13.2558333 L39.6641934,13.3083333 C40.6331179,14.0658333 41.8476321,14.4575 42.9504764,14.4579167 C44.5621321,14.4558333 45.8656462,13.6525 45.8681651,12.00625 L45.8681651,11.9775 C45.8643868,10.5458333 44.5457594,10.1008333 43.4395566,9.76" id="Fill-7" sketch:type="MSShapeGroup"></path>
                <path d="M54.3680849,10.74125 L54.3672453,10.7520833 C54.3407972,8.55833333 53.0868208,6.64708333 50.6300849,6.64291667 C48.3979481,6.64708333 46.8219764,8.35416667 46.8181981,10.57125 C46.8223962,12.9641667 48.5658726,14.44375 50.8173208,14.4479167 C52.2409009,14.4495833 53.2690189,13.875 54.0024292,12.9983333 L52.8433302,11.9725 C52.2459387,12.5491667 51.6724764,12.84625 50.8462877,12.8479167 C49.7955,12.84375 49.0037358,12.4975 48.772,11.3758333 L54.3332406,11.3758333 L54.3735425,11.3758333 C54.3739623,10.98375 54.3739623,10.86 54.3680849,10.74125 L54.3680849,10.74125 Z M48.7535283,10.0483333 C48.9407642,8.965 49.6342925,8.24416667 50.6158113,8.2425 C51.6783538,8.245 52.2921179,9.01166667 52.4382123,10.0483333 L48.7535283,10.0483333 L48.7535283,10.0483333 Z" id="Fill-8" sketch:type="MSShapeGroup"></path>
                <path d="M36.4018396,3.80166667 L38.3422075,3.80166667 L38.3422075,5.7275 L36.4018396,5.7275 L36.4018396,3.80166667 Z" id="Fill-9" sketch:type="MSShapeGroup"></path>
                <path d="M11.9478615,0.220877312 L1.69967962,3.5222638 L1.69636037,3.52555818 L1.69677527,3.53008797 L4.21608542,8.20688057 L4.22023448,8.20976316 L4.22479845,8.20811597 L11.9536702,0.229525075 L11.9545,0.222936303 L11.9478615,0.220877312" id="Fill-10" sketch:type="MSShapeGroup"></path>
                <path d="M12.9179121,1.54769124 L9.20533188,5.38112105 L9.21197038,5.38441544 L19.2655613,10.2242801 L12.9179121,1.54769124" id="Fill-11" sketch:type="MSShapeGroup"></path>
                <path d="M13.4618541,9.22443402 L11.9337547,20.1877386 L18.2697866,11.5379165 L13.4618541,9.22443402" id="Fill-12" sketch:type="MSShapeGroup"></path>
                <path d="M13.4618541,9.22443402 L13.4560454,9.22361043 L11.9250417,20.2079167 L18.2780847,11.5358575 L13.4572901,9.21619806 L13.4560454,9.22361043 L13.4618541,9.22443402 L13.4593646,9.2289638 L18.2610735,11.5399755 L11.9424678,20.1667368 L13.4672479,9.22484582 L13.4618541,9.22443402 L13.4593646,9.2289638 L13.4618541,9.22443402" id="Fill-13" sketch:type="MSShapeGroup"></path>
                <path d="M11.0890058,14.4106211 L0.08984375,16.3600739 L10.36292,19.6766969 L11.0964741,14.4093857 L11.0890058,14.4106211" id="Fill-14" sketch:type="MSShapeGroup"></path>
                <path d="M5.39441889,13.7834523 L0.127185304,4.00365594 L0.123866054,14.7252349 L5.39773814,13.7900411 L5.39441889,13.7834523" id="Fill-15" sketch:type="MSShapeGroup"></path>
            </g>
        </g>
    </g>
</svg>