<?xml version="1.0" encoding="utf-8"?>
<!-- Generator: Adobe Illustrator 19.2.1, SVG Export Plug-In . SVG Version: 6.00 Build 0)  -->
<svg version="1.1" id="Calque_1" xmlns="http://www.w3.org/2000/svg" xmlns:xlink="http://www.w3.org/1999/xlink" x="0px" y="0px"
	 viewBox="0 0 87.7 20" style="enable-background:new 0 0 87.7 20;" xml:space="preserve">
<style type="text/css">
	.st0{fill:#3A434C;}
</style>
<path class="st0" d="M82,14.9c-0.3,0-0.7-0.1-1-0.3l-0.1-0.1l-0.7,1.4l0.1,0c0.5,0.3,1.1,0.5,1.8,0.5c1.2,0,2-0.6,2.6-2.1l3-7.8
	h-0.1h-1.8L83.9,12l-2.1-5.4h-2l3.2,7.6C82.7,14.8,82.4,14.9,82,14.9z"/>
<path class="st0" d="M69.6,13.3c0.5,0.6,1.3,1.1,2.4,1.1c1.8,0,3.5-1.2,3.5-3.8s-1.7-4-3.5-4c-1.1,0-1.9,0.4-2.4,1.1V3.8h-1.9v10.6
	h1.9V13.3z M71.6,8.3c1.1,0,2,0.9,2.1,2.3c0,1.4-0.9,2.1-2.1,2.1c-1.1,0-2.1-0.8-2.1-2.2C69.5,9,70.5,8.3,71.6,8.3z"/>
<path class="st0" d="M63.7,6.6c-1.1,0-1.9,0.5-2.5,1.2c-0.4-0.8-1.2-1.2-2.2-1.2c-1.1,0-1.7,0.5-2.2,1.1V6.6h-1.9v7.7h1.9v-4.2
	c0-1.1,0.6-1.8,1.5-1.8c0.9,0,1.4,0.6,1.4,1.7v4.3h1.9v-4.2c0-1.2,0.6-1.8,1.5-1.8c0.9,0,1.4,0.6,1.4,1.7v4.2h1.9V9.6
	c0-0.9-0.2-1.7-0.7-2.2C65.2,6.9,64.5,6.6,63.7,6.6z"/>
<rect x="76.8" y="3.8" class="st0" width="1.9" height="10.5"/>
<polygon class="st0" points="31.1,11.5 29.5,6.6 29.4,6.6 27.9,6.6 26.3,11.5 24.9,6.6 22.9,6.6 25.4,14.3 27.1,14.3 28.7,9.4 
	30.3,14.3 32,14.3 34.5,6.6 32.6,6.6 "/>
<polygon class="st0" points="35.9,14.3 37.8,14.3 37.8,14.2 37.8,6.6 35.9,6.6 "/>
<path class="st0" d="M42.8,9.7c-0.9-0.3-1.7-0.4-1.6-0.9v0c0-0.4,0.3-0.6,1-0.7c0.6,0,1.3,0.3,2.1,0.7l0.1,0.1l0.8-1.4L45,7.5
	c-0.8-0.5-1.8-0.9-2.8-0.9c-1.5,0-2.8,0.9-2.8,2.4v0c0,1.5,1.3,1.9,2.4,2.2c0.9,0.3,1.6,0.4,1.6,0.9v0c0,0.4-0.3,0.7-1.1,0.7
	c-0.7,0-1.6-0.3-2.4-0.9l-0.1-0.1l-0.9,1.3l0.1,0.1c1,0.8,2.2,1.1,3.2,1.1c1.6,0,2.9-0.8,2.9-2.4v0C45.2,10.5,43.9,10,42.8,9.7z"/>
<path class="st0" d="M53.5,10.7c0-2.2-1.3-4.1-3.7-4.1c-2.2,0-3.7,1.7-3.8,3.9c0,2.4,1.7,3.8,3.9,3.8c1.4,0,2.4-0.6,3.1-1.4l-1.1-1
	c-0.6,0.6-1.2,0.9-2,0.9c-1,0-1.8-0.4-2-1.5h5.5l0,0h0C53.5,10.9,53.5,10.8,53.5,10.7L53.5,10.7z M48,10c0.2-1.1,0.9-1.8,1.8-1.8
	c1,0,1.7,0.8,1.8,1.8H48z"/>
<rect x="35.9" y="3.8" class="st0" width="1.9" height="1.9"/>
<polygon class="st0" points="4.1,8 4.1,8 4.1,8 11.8,0 11.8,0 11.8,0 1.6,3.3 1.6,3.3 1.6,3.3 "/>
<polygon class="st0" points="9.1,5.2 9.1,5.2 19.1,10 12.8,1.3 "/>
<polygon class="st0" points="0,16.2 10.2,19.5 10.9,14.2 10.9,14.2 "/>
<polygon class="st0" points="5.3,13.6 0,3.8 0,14.5 5.3,13.6 "/>
<polygon class="st0" points="11.8,20 18.1,11.3 13.3,9 "/>
</svg>
