<?xml version="1.0" encoding="utf-8"?>
<!-- Generator: Adobe Illustrator 19.1.0, SVG Export Plug-In . SVG Version: 6.00 Build 0)  -->
<svg version="1.1" id="Calque_1" xmlns="http://www.w3.org/2000/svg" xmlns:xlink="http://www.w3.org/1999/xlink" x="0px" y="0px"
	 viewBox="0 0 87.73 20" enable-background="new 0 0 87.73 20" xml:space="preserve">
<g>
	<path fill="none" d="M71.61,12.67c1.12,0,2.04-0.64,2.05-2.09c0-1.43-0.94-2.31-2.05-2.32c-1.11,0-2.09,0.75-2.09,2.17
		C69.52,11.84,70.5,12.67,71.61,12.67z"/>
	<path fill="none" d="M49.87,8.18c-0.96,0-1.65,0.71-1.83,1.79h3.62C51.51,8.94,50.91,8.18,49.87,8.18z"/>
	<path fill="#3A434C" d="M81.97,14.94c-0.33,0-0.66-0.11-0.96-0.27l-0.09-0.05l-0.66,1.44l0.07,0.04c0.53,0.29,1.08,0.46,1.81,0.46
		c1.24,0.01,1.96-0.61,2.55-2.15l3.02-7.81H87.6h-1.85l-1.88,5.38L81.81,6.6h-2.03l3.15,7.57C82.66,14.77,82.41,14.93,81.97,14.94z"
		/>
	<path fill="#3A434C" d="M69.56,13.26c0.53,0.62,1.3,1.07,2.45,1.07c1.83,0,3.5-1.22,3.5-3.76c0-2.54-1.68-3.98-3.5-3.98
		c-1.12,0-1.89,0.38-2.45,1.07V3.78h-1.9v10.56h1.9V13.26z M71.61,8.26c1.11,0,2.04,0.89,2.05,2.32c0,1.45-0.92,2.09-2.05,2.09
		c-1.11,0-2.09-0.82-2.09-2.24C69.52,9.01,70.5,8.26,71.61,8.26z"/>
	<path fill="#3A434C" d="M63.69,6.6c-1.11,0-1.91,0.5-2.52,1.25c-0.42-0.75-1.19-1.25-2.24-1.25c-1.06,0-1.72,0.52-2.19,1.11V6.6
		h-1.9v7.73h1.9v-4.21c0.01-1.13,0.61-1.77,1.51-1.78c0.9,0.01,1.41,0.59,1.42,1.72v4.27h1.9V10.1c0.01-1.17,0.62-1.76,1.51-1.77
		c0.91,0.01,1.41,0.57,1.43,1.74v4.25h1.89V9.55c0-0.93-0.25-1.67-0.72-2.18C65.2,6.86,64.52,6.6,63.69,6.6z"/>
	<rect x="76.8" y="3.78" fill="#3A434C" width="1.89" height="10.54"/>
	<polygon fill="#3A434C" points="31.1,11.52 29.5,6.6 29.43,6.6 27.91,6.6 26.32,11.52 24.88,6.6 22.93,6.6 25.42,14.32 
		27.08,14.32 28.7,9.41 30.3,14.32 31.96,14.32 34.47,6.6 32.57,6.6 	"/>
	<polygon fill="#3A434C" points="35.9,14.32 37.8,14.32 37.8,14.23 37.8,6.6 35.9,6.6 	"/>
	<path fill="#3A434C" d="M42.82,9.68c-0.89-0.28-1.65-0.42-1.62-0.85V8.8c0-0.38,0.32-0.65,0.96-0.66c0.6,0,1.35,0.26,2.06,0.69
		l0.08,0.05l0.77-1.37l-0.07-0.05c-0.81-0.53-1.84-0.86-2.8-0.86c-1.52,0-2.75,0.9-2.75,2.37v0.03c0,1.5,1.3,1.87,2.4,2.17
		c0.89,0.26,1.63,0.41,1.61,0.89v0.03c0,0.43-0.35,0.69-1.07,0.7c-0.74,0-1.6-0.3-2.4-0.9l-0.08-0.06l-0.86,1.31l0.07,0.05
		c0.95,0.75,2.15,1.14,3.23,1.14c1.58,0,2.86-0.8,2.87-2.43v-0.03C45.2,10.46,43.9,10.01,42.82,9.68z"/>
	<path fill="#3A434C" d="M53.55,10.66c-0.03-2.17-1.26-4.06-3.67-4.07c-2.19,0-3.74,1.69-3.75,3.89c0,2.37,1.72,3.83,3.93,3.84
		c1.4,0,2.41-0.57,3.13-1.43l-1.14-1.02c-0.59,0.57-1.15,0.86-1.96,0.87c-1.03,0-1.81-0.35-2.04-1.46h5.46v0h0.04
		c0-0.39,0-0.51-0.01-0.63L53.55,10.66z M48.04,9.96c0.18-1.07,0.87-1.79,1.83-1.79c1.04,0,1.65,0.76,1.79,1.79H48.04z"/>
	<rect x="35.9" y="3.78" fill="#3A434C" width="1.91" height="1.91"/>
	<polygon fill="#3A434C" points="4.1,8 4.11,8 4.11,8 11.79,0.01 11.8,0 11.79,0 1.6,3.31 1.6,3.31 1.6,3.31 	"/>
	<polygon fill="#3A434C" points="9.06,5.17 9.07,5.17 19.06,10.02 12.75,1.33 	"/>
	<polygon fill="#3A434C" points="0,16.17 10.21,19.49 10.94,14.21 10.94,14.21 	"/>
	<polygon fill="#3A434C" points="5.27,13.59 0.04,3.79 0.03,14.53 5.28,13.59 	"/>
	<polygon fill="#3A434C" points="11.78,20 18.07,11.34 13.29,9.02 	"/>
</g>
</svg>
