<?xml version="1.0" standalone="no"?> 
<!DOCTYPE svg PUBLIC "-//W3C//DTD SVG 1.1//EN" "http://www.w3.org/Graphics/SVG/1.1/DTD/svg11.dtd" >
<svg xmlns="http://www.w3.org/2000/svg">
<defs>
  <font id="icons" horiz-adv-x="89">
    <font-face font-family="icons"
      units-per-em="100" ascent="100"
      descent="0" />
    <missing-glyph horiz-adv-x="0" />
    <glyph glyph-name="actionItem"
      unicode="&#xE001;"
      horiz-adv-x="100" d="M50 100C22.4291665 100 0 77.5708335 0 50C0 22.4291665 22.4291665 0 50 0C77.5708335 0 100 22.4291665 100 50C100 77.5708335 77.5708335 100 50 100L50 100zM50 10.4166665C28.1375 10.4166665 10.41666665 28.1375 10.41666665 50C10.41666665 71.8625 28.1375 89.58333335 50 89.58333335C71.8625 89.58333335 89.5833335 71.8625 89.5833335 50C89.5833335 28.1375 71.8625 10.4166665 50 10.4166665zM50 30C61.045695 30 70 38.954305 70 50C70 61.045695 61.045695 70 50 70C38.954305 70 30 61.045695 30 50C30 38.954305 38.954305 30 50 30z" />
    <glyph glyph-name="add"
      unicode="&#xE002;"
      horiz-adv-x="100" d="M55.059022 54.4688025L70.2360875 54.4688025L70.2360875 44.350759L55.059022 44.350759L55.059022 29.173693L44.940978 29.173693L44.940978 44.350759L29.7639125 44.350759L29.7639125 54.4688025L44.940978 54.4688025L44.940978 69.6458685L55.059022 69.6458685L55.059022 54.4688025zM50 0C77.6142375 0 100 22.3857625 100 50C100 77.6142375 77.6142375 100 50 100C22.3857625 100 0 77.6142375 0 50C0 22.3857625 22.3857625 0 50 0z" />
    <glyph glyph-name="alert"
      unicode="&#xE003;"
      horiz-adv-x="100" d="M0 50L50 0L100 50L50 100L0 50zM55.003662 44.985L44.951172 44.985L44.951172 70.4016115L55.003662 70.4016115L55.003662 44.985zM44.4732665 30.03125C44.4858245 32.725 47.2492425 35.391089 50.0119505 35.397339C52.76838 35.391089 55.50367 32.7125 55.5099485 30.03125C55.5099485 27.3 52.774659 24.2713865 50.0119505 24.2651365C47.2492425 24.2713865 44.4795455 27.2875 44.4732665 30.03125z" />
    <glyph glyph-name="archive"
      unicode="&#xE004;"
      horiz-adv-x="100" d="M98.075390875 51.15471965C98.111328375 51.9861443 97.979557375 52.82961855 97.500390875 53.5827206L70.068098875 96.967421875C69.301432375 98.178409925 67.959765875 98.919462315 66.534244875 98.919462315L33.585546975 98.919462315C32.160026125 98.919462315 30.824349025 98.184434745 30.051692775 96.97344669L2.61341154 53.7755147C2.18216154 53.1007353 2.044401125 52.3536581 2.026432375 51.6065809C1.810807375 51.0944715 1.685026125 50.5341636 1.685026125 49.967831L1.685026125 13.843033C1.685026125 12.728442 2.134244875 11.643975 2.91289071 10.860749C3.697526125 10.071498 4.775651125 9.625662 5.88372404 9.625662L94.122265875 9.625662C95.224348875 9.625662 96.302473875 10.071498 97.087109375 10.860749C97.865755375 11.643975 98.314973875 12.728442 98.314973875 13.843033L98.314973875 49.967831C98.314973875 50.3775184 98.189192875 50.7631066 98.075390875 51.15471965L98.075390875 51.15471965zM64.228255375 90.48471965L87.180338375 54.1852022L71.355859375 54.1852022C71.361848875 54.38402115 71.415755375 54.57079045 71.415755375 54.7756342L63.024348875 54.7756342C63.012369875 47.53983 57.196484375 41.6837085 50.002994875 41.671659C42.809505275 41.6837085 36.987630275 47.53983 36.975651125 54.7756342L28.590234475 54.7756342C28.590234475 54.57079045 28.638151125 54.38402115 28.644140725 54.1852022L12.825651125 54.1852022L35.885546975 90.48471965L64.228255375 90.48471965L64.228255375 90.48471965zM89.923567875 18.0604045L10.070442775 18.0604045L10.070442775 45.7504595L30.614713625 45.7504595C34.016796975 38.3760845 41.383984475 33.2369165 50.002994875 33.2308915C58.610025875 33.2369165 65.983203375 38.3760845 69.385286375 45.7504595L89.923567875 45.7504595L89.923567875 18.0604045L89.923567875 18.0604045zM40.773046975 75.57329965L59.017317875 75.57329965C61.329296875 75.57329965 63.210026375 77.4590671 63.210026375 79.79067095C63.210026375 82.1222748 61.329296875 84.0080423 59.017317875 84.0080423L40.773046975 84.0080423C38.455078225 84.0080423 36.574349025 82.1222748 36.574349025 79.79067095C36.574349025 77.4590671 38.455078225 75.57329965 40.773046975 75.57329965M33.100390725 60.57150735L66.683984375 60.57150735C68.995963375 60.57150735 70.876692875 62.46329965 70.876692875 64.7888787C70.876692875 67.12048255 68.995963375 69.0122748 66.683984375 69.0122748L33.100390725 69.0122748C30.788411525 69.0122748 28.907682375 67.12048255 28.907682375 64.7888787C28.907682375 62.46329965 30.788411525 60.57150735 33.100390725 60.57150735" />
    <glyph glyph-name="arrowBack"
      unicode="&#xE005;"
      horiz-adv-x="100" d="M-68.1077745 56.1214395L-19.360447 98.60922055C-17.040218 100.6313901 -13.4810325 100.4313953 -11.4085955 98.12034445C-9.3586846 95.8315152 -9.5839495 92.32049565 -11.904178 90.2761045L-56.078628 51.788219L-11.723966 9.5670975C-9.47131705 7.43382 -9.42626405 3.9005785 -11.588807 1.700636C-13.7513505 -0.5215285 -17.310536 -0.5659715 -19.5631855 1.567306L-68.2879865 47.9660965L-70 52.0771005L-68.1077745 56.1214395z" />
    <glyph glyph-name="arrowDown"
      unicode="&#xE006;"
      horiz-adv-x="100" d="M43.966823775 21.8922255L1.479042725 70.639553C-0.543126825 72.959782 -0.343132025 76.5189675 1.967918825 78.5914045C4.256748075 80.6413154 7.767767625 80.4160505 9.812158775 78.095822L48.300044275 33.921372L90.521165775 78.276034C92.654443275 80.52868295 96.187684775 80.57373595 98.387627275 78.411193C100.609791775 76.2486495 100.654234775 72.689464 98.520957275 70.4368145L52.122166775 21.7120135L48.011162775 20L43.966823775 21.8922255L43.966823775 21.8922255z" />
    <glyph glyph-name="arrowFirst"
      unicode="&#xE007;"
      horiz-adv-x="100" d="M96.731154 99.52026885L90.7493885 98.60910725L42.650656 56.117864L40.760507 52.073195L42.4727595 47.9618565L90.571492 1.559285C92.1725595 0.0036435 94.5519235 -0.4186025 96.597732 0.4481125C98.665777 1.314827 100 3.3371615 100 5.5595065L100 94.4533214C100 96.63121985 98.7102515 98.6313307 96.731154 99.52026885L96.731154 99.52026885zM54.525239 51.7842905L88.8814765 82.1193046L88.8814765 18.649121L54.525239 51.7842905zM57.5272405 9.5597285L13.742495 51.7842905L57.349344 90.29753555C59.661997 92.31986985 59.8621305 95.83117555 57.838559 98.12019125C55.814988 100.43143045 52.3015345 100.63144155 49.9888815 98.60910725L1.86791195 56.117864L0 52.073195L1.7122526 47.9618565L49.810985 1.559285C52.0124525 -0.5741665 55.548143 -0.507496 57.6606625 1.6926255C59.817656 3.8927475 59.750945 7.426277 57.5494775 9.5597285L57.5272405 9.5597285z" />
    <glyph glyph-name="arrowLast"
      unicode="&#xE008;"
      horiz-adv-x="100" d="M-76.731154 99.52026885L-70.7493885 98.60910725L-22.650656 56.117864L-20.760507 52.073195L-22.4727595 47.9618565L-70.571492 1.559285C-72.1725595 0.0036435 -74.5519235 -0.4186025 -76.597732 0.4481125C-78.665777 1.314827 -80 3.3371615 -80 5.5595065L-80 94.4533214C-80 96.63121985 -78.7102515 98.6313307 -76.731154 99.52026885L-76.731154 99.52026885zM-34.525239 51.7842905L-68.8814765 82.1193046L-68.8814765 18.649121L-34.525239 51.7842905zM-37.5272405 9.5597285L6.257505 51.7842905L-37.349344 90.29753555C-39.661997 92.31986985 -39.8621305 95.83117555 -37.838559 98.12019125C-35.814988 100.43143045 -32.3015345 100.63144155 -29.9888815 98.60910725L18.13208805 56.117864L20 52.073195L18.2877474 47.9618565L-29.810985 1.559285C-32.0124525 -0.5741665 -35.548143 -0.507496 -37.6606625 1.6926255C-39.817656 3.8927475 -39.750945 7.426277 -37.5494775 9.5597285L-37.5272405 9.5597285z" />
    <glyph glyph-name="arrowNext"
      unicode="&#xE009;"
      horiz-adv-x="100" d="M77.40347675 56.1214395L28.65614925 98.60922055C26.33592025 100.6313901 22.77673475 100.4313953 20.70429775 98.12034445C18.65438685 95.8315152 18.87965175 92.32049565 21.19988025 90.2761045L65.37433025 51.788219L21.01966825 9.5670975C18.7670193 7.43382 18.7219663 3.9005785 20.88450925 1.700636C23.04705275 -0.5215285 26.60623825 -0.5659715 28.85888775 1.567306L77.58368875 47.9660965L79.29570225 52.0771005L77.40347675 56.1214395z" />
    <glyph glyph-name="arrowUp"
      unicode="&#xE00A;"
      horiz-adv-x="100" d="M43.966823775 78.1077745L1.479042725 29.360447C-0.543126825 27.040218 -0.343132025 23.4810325 1.967918825 21.4085955C4.256748075 19.3586845 7.767767625 19.5839495 9.812158775 21.904178L48.300044275 66.078628L90.521165775 21.723966C92.654443275 19.471317 96.187684775 19.426264 98.387627275 21.588807C100.609791775 23.7513505 100.654234775 27.310536 98.520957275 29.5631855L52.122166775 78.2879865L48.011162775 80L43.966823775 78.1077745L43.966823775 78.1077745z" />
    <glyph glyph-name="assignee"
      unicode="&#xE00B;"
      horiz-adv-x="100" d="M50.2398945 55.67783075L50.2398945 49.0972885C52.1340945 49.629984 52.854039 49.0972885 54.905319 49.0972885C61.185439 49.094099 66.880359 46.443381 71.035279 42.1435405C75.184039 37.8405105 77.746599 31.9425835 77.746599 25.4385965L77.798959 6.1970255L29.17068065 6.1970255L29.1183205 25.4385965C29.1183205 25.7894735 29.1552805 26.1339715 29.1706805 26.4848485L22.5797911 26.4848485C22.5674711 26.1339715 22.5274311 25.7894735 22.5274311 25.4385965L22.5274333 0.181819L83.906601 0.181819L83.906599 25.4385965C83.894279 41.980861 70.875119 55.46411485 54.905319 55.476874C52.875599 55.4736842 52.1525745 56.0925038 50.2398945 55.67783075zM57.40523885 17.624487C57.40523885 18.7672365 56.2592649 20.8758735 54.0963551 20.8758735C51.92933335 20.8758735 49.9536397 18.73933 49.9536397 17.0574285C49.9536397 15.378718 51.92933335 14.4661105 54.0963551 14.4661105C56.21792195 13.9191505 57.40523885 16.481738 57.40523885 17.624487zM57.40523885 31.659575C57.40523885 32.8023245 56.2592649 34.910961 54.0963551 34.910961C51.92933335 34.910961 49.9536397 32.774418 49.9536397 31.092516C49.9536397 29.4138055 51.92933335 28.5011985 54.0963551 28.5011985C56.21792195 27.954238 57.40523885 30.5168255 57.40523885 31.659575zM72.502408 79.76395555C72.499328 89.5789476 64.758239 97.53110048 55.281079 97.53110048C45.803919 97.53110048 38.125479 89.57894735 38.122399 79.76395535C38.125479 69.9457735 45.803919 61.9936204 55.281079 61.9936204C64.758239 61.9936204 72.499328 69.94577375 72.502408 79.76395555zM54.0093797 91.14992065C57.0554997 91.14992065 61.059159 89.88197765 63.058079 87.81499205C65.053919 85.7448166 65.0049797 82.9170658 65.0080597 79.76236085C65.0049797 76.6044661 65.053919 73.7799043 63.058079 71.70972885C61.059159 69.6427432 58.327199 68.37320575 55.281079 68.37320575C52.234959 68.37320575 49.502999 69.6427432 47.504079 71.70972885C45.508239 73.7799043 43.9974912 76.6044661 43.9944112 79.76236085C43.9974912 82.9170658 45.508239 85.7448166 47.504079 87.81499205C49.502999 89.88197765 52.234959 91.15151515 55.281079 91.15151515L54.0093797 91.14992065zM33.107319 28.7591705L46.967319 43.1132375L33.135039 57.4832536L33.122719 45.878788L16.093399 45.878788L16.093399 39.894737L33.119639 39.894737L33.107319 28.7591705" />
    <glyph glyph-name="azure"
      unicode="&#xE00C;"
      horiz-adv-x="100" d="M7.5 79.521893L62.057935 100L92.5 91.0388295L92.5 8.6173815L62.412136 0L7.7841845 19.5320205L62.2350355 12.0699305L62.2350355 83.7926072L25.998078 75.5176825L25.998078 26.8968365L7.5233388 19.6559445L7.5 79.521893" />
    <glyph glyph-name="badge"
      unicode="&#xE00D;"
      horiz-adv-x="100" d="M62.6029347175 28.5C60.9468477675 27.9305555 59.3331521175 27.2333335 57.7929347175 26.9444445L57.5753260175 26.902778L57.0016303675 26.7944445L57.0581521175 14.752778L52.6946738675 19.902778C52.0418477675 20.675 51.0724999175 21.122222 50.0494564675 21.122222C49.5153260175 21.125 48.9953260175 21.0083335 48.5261955675 20.777778L48.4414129675 20.736111L48.3707608175 20.672222L47.5540216675 19.9555555L47.5172825675 19.922222L42.9672825675 14.688889L42.9107608175 26.525L42.1901086175 26.702778C40.5424999175 27.1333335 38.9316303675 27.6805555 37.3659782175 28.338889L36.9901086175 28.4944445L36.0038042675 28.9055555L36.1027173175 5.422222C36.1055434175 4 37.0155434175 2.7305555 38.3777173175 2.247222C38.7564129675 2.111111 39.1548912175 2.0444445 39.5505434175 2.0444445C40.5538042675 2.0444445 41.5259782175 2.477778 42.1929347175 3.252778L50.0353260175 12.4444445L57.8890216675 3.1694445C58.5588042675 2.3805555 59.5366303675 1.95 60.5398912175 1.95C60.9440216675 1.95 61.3340216675 2.0194445 61.7014129675 2.1444445L61.7211955675 2.15L61.7607608175 2.1666665L61.7692390675 2.1694445L62.0094564675 2.2694445L62.0235868675 2.275L62.0574999175 2.2916665C63.2303260175 2.8555555 63.9905434175 4.0333335 63.9905434175 5.3444445L63.8944564675 28.947222L62.6029347175 28.5M50.0014129675 97.30277778C32.3242390675 97.30277778 17.9988042825 83.21944445 17.9988042825 65.8472222C17.9988042825 48.475 32.3242390675 34.3916665 50.0014129675 34.3916665C67.6757607175 34.3916665 82.0011957175 48.475 82.0011957175 65.8472222C82.0011957175 83.21944445 67.6757607175 97.30277778 50.0014129675 97.30277778L50.0014129675 97.30277778zM32.2592390675 48.411111C27.7120651675 52.88055555 24.9001086175 59.04166665 24.8972825675 65.8472222C24.9001086175 72.65 27.7120651675 78.8138889 32.2592390675 83.28333335C36.8092390675 87.7527778 43.0774999175 90.51944445 50.0014129675 90.51944445C56.9224999175 90.51944445 63.1907608175 87.7527778 67.7407607175 83.28333335C72.2879347175 78.8138889 75.0998912175 72.65 75.0998912175 65.8472222C75.0998912175 59.04166665 72.2879347175 52.88055555 67.7407607175 48.4083335C63.1935868675 43.938889 56.9224999175 41.175 50.0014129675 41.175C43.0774999175 41.175 36.8092390675 43.938889 32.2592390675 48.411111L32.2592390675 48.411111zM50.0748912175 70.3222222C47.6840216675 70.3222222 45.7453260175 68.41944445 45.7453260175 66.06944445C45.7481521175 63.7222222 47.6840216675 61.81944445 50.0748912175 61.81944445C52.4629347175 61.81944445 54.3959782175 63.7222222 54.3988042675 66.06944445C54.3959782175 68.41666665 52.4629347175 70.3222222 50.0748912175 70.3222222" />
    <glyph glyph-name="bar"
      unicode="&#xE00E;"
      horiz-adv-x="100" d="M42.5 100H57.5V0H42.5z" />
    <glyph glyph-name="bell"
      unicode="&#xE00F;"
      horiz-adv-x="100" d="M25.5 75C25.5 75 25 67.622312 25 65C25 48.045082 16.3886528 33.9059665 4.95507685 30.6874205L0 20L100 20L94.9326455 30.7194035C83.5550185 33.998636 75 48.100626 75 65C75 67.3503355 74.7764935 73.357417 74.7764935 73.357417C73.571722 82.3331297 67.604052 89.80003935 59.4997695 93.13185945C58.1854805 97.1207158 54.4289865 100 50 100C45.5710135 100 41.81452 97.12071625 40.500231 93.13186035C32.895677 90.0054909 27.1723465 83.2382724 25.5 75L25.5 75L25.5 75zM72.9197815 15C69.0619985 6.170476 60.251595 0 50 0C39.748405 0 30.9380015 6.170476 27.0802185 15L72.9197815 15L72.9197815 15z" />
    <glyph glyph-name="board"
      unicode="&#xE010;"
      horiz-adv-x="100" d="M2.63781365 91.0443115L97.3653585 91.04431155L97.365357 99.81872565L2.63781365 99.8187256L2.63781365 91.0443115zM45.2579825 48.464516L53.928316 58.5096775L62.3484825 49.212903L77.4914825 74.0709675L71.5729825 77.812903L61.2559825 60.880645L53.801649 69.1096775L45.482816 59.4709675L36.828316 70.3774195L22.587816 49.7580645L28.284649 45.6741935L37.214649 58.6L45.2579825 48.464516zM2.6346415 24.880371L47.506308 24.880371L47.506316 14.632258C44.957149 13.7258065 43.1204825 11.283871 43.1204825 8.3774195C43.1204825 4.7 46.043316 1.7225805 49.653316 1.7225805C53.260149 1.7225805 56.1829825 4.7 56.186149 8.3774195C56.1829825 11.3451615 54.2639825 13.8290325 51.629316 14.687097L51.629308 24.880371L96.8651415 24.880371L96.865141 33.878174L2.63464775 33.242798L2.6346492 25.6612905L2.6346415 24.880371z" />
    <glyph glyph-name="brush"
      unicode="&#xE011;"
      horiz-adv-x="100" d="M56.2759055 36.3256765L39.4862405 53.158296C39.4862405 53.158296 54.0761035 59.0351185 59.187408 64.1659865C64.305183 69.2903675 89.868176 94.92524755 89.868176 94.92524755C89.868176 94.92524755 94.9730105 100.0496289 99.1720445 95.83985235C103.371078 91.63007575 98.2597735 86.50569435 98.2597735 86.50569435C98.2533035 86.50569435 72.6967805 60.877301 67.585476 55.7529195C62.467701 50.6220515 56.2759055 36.3256765 56.2759055 36.3256765zM0.8279555 3.8734235C13.8844273 7.097243 12.60983615 17.709253 20.37384315 36.3256765C24.1846765 45.471724 34.374936 48.0404015 34.374936 48.0404015L51.164601 31.201295C51.164601 31.201295 51.164601 -4.896404 0.8279555 3.8734235z" />
    <glyph glyph-name="bulletDay"
      unicode="&#xE012;"
      horiz-adv-x="100" d="M50 17.5C67.9492545 17.5 82.5 32.0507455 82.5 50C82.5 67.9492545 67.9492545 82.5 50 82.5C32.0507455 82.5 17.5 67.9492545 17.5 50C17.5 32.0507455 32.0507455 17.5 50 17.5L50 17.5zM50 32.5C40.335017 32.5 32.5 40.335017 32.5 50C32.5 59.664983 40.335017 67.5 50 67.5C59.664983 67.5 67.5 59.664983 67.5 50C67.5 40.335017 59.664983 32.5 50 32.5L50 32.5z" />
    <glyph glyph-name="bulletItem--dashed"
      unicode="&#xE013;"
      horiz-adv-x="100" d="M30.01 50C30.01 38.9543050033841 38.9643050033841 30 50.01 30C61.0556949966159 30 70.01 38.9543050033841 70.01 50C70.01 61.0456949966159 61.0556949966159 70 50.01 70C38.9643050033841 70 30.01 61.0456949966159 30.01 50zM49.91 2.725C47.01 2.725 44.09 2.995 41.24 3.535L42.155 8.445C44.73 7.965 47.32 7.785 49.985 7.725C54.755 7.725 59.435 8.51 63.89 10.055L65.53 5.33C60.515 3.595 55.265 2.715 49.91 2.725L49.91 2.725zM25.985 9.23C21.42 11.91 17.355 15.31 13.905 19.335L17.7 22.585C20.79 18.985 24.43 15.945 28.52 13.535L25.985 9.23L25.985 9.23zM79.77 13.22L76.635 17.115C80.33 20.095 83.485 23.64 86.005 27.655L90.245 24.995C87.425 20.51 83.9 16.55 79.77 13.22L79.77 13.22zM5.585 33.325C3.705 38.27 2.67 43.47 2.51 48.785L7.51 48.935C7.65 44.175 8.575 39.525 10.26 35.105L5.585 33.325L5.585 33.325zM96.395 40.06L91.515 41.125C92.165 44.09 92.49 47.15 92.49 50.225C92.49 51.91 92.39 53.575 92.2 55.21L97.165 55.8C97.38 53.97 97.49 52.11 97.49 50.225C97.49 46.795 97.125 43.37 96.395 40.06L96.395 40.06zM9.555 63.35L4.8 64.895C6.435 69.93 8.885 74.63 12.09 78.865L16.08 75.845C13.21 72.06 11.015 67.855 9.555 63.35L9.555 63.35zM88.045 69.165C85.935 73.41 83.14 77.245 79.745 80.565L83.24 84.14C87.035 80.425 90.155 76.135 92.52 71.4L88.045 69.165L88.045 69.165zM26.72 85.795L23.98 89.98C28.425 92.89 33.285 95.02 38.415 96.305L39.63 91.455C35.04 90.305 30.7 88.4 26.72 85.795L26.72 85.795zM67.765 88.84C63.46 90.82 58.885 92.06 54.16 92.52L54.645 97.5C59.925 96.985 65.045 95.6 69.855 93.38L67.765 88.84L67.765 88.84z" />
    <glyph glyph-name="bulletItem"
      unicode="&#xE014;"
      horiz-adv-x="100" d="M25 50C25 36.1928812542302 36.1928812542302 25 50 25C63.8071187457699 25 75 36.1928812542302 75 50C75 63.8071187457698 63.8071187457699 75 50 75C36.1928812542302 75 25 63.8071187457698 25 50z" />
    <glyph glyph-name="calendar"
      unicode="&#xE015;"
      horiz-adv-x="100" d="M87.602281 89.54426845L69.9851225 89.54426845L69.9851225 95.75216943C69.9851225 98.1006129 68.038681 100 65.645921 100C63.2469625 100 61.3005205 98.1006129 61.3005205 95.75216943L61.3005205 89.54426845L38.98462685 89.54426845L38.98462685 95.75216943C38.98462685 98.1006129 37.04438385 100 34.6516241 100C32.2526655 100 30.30622365 98.1006129 30.30622365 95.75216943L30.30622365 89.54426845L12.3977188 89.54426845C5.54797915 89.52606345 0.0123977188 84.10704535 0 77.4076097L0 12.136659C0.0123977188 5.431155 5.54797915 0.0121365 12.3977188 0L87.602281 0C94.445822 0.0121365 99.9814035 5.431155 100 12.136659L100 77.4076097C99.9814035 84.10704535 94.445822 89.52606345 87.602281 89.54426845L87.602281 89.54426845zM91.315398 12.136659C91.315398 10.1644515 89.6169105 8.495661 87.602281 8.495661L12.3977188 8.495661C10.37689065 8.495661 8.67840315 10.1644515 8.67840315 12.136659L8.67840315 77.4076097C8.67840315 79.37981675 10.37689065 81.042539 12.3977188 81.0486073L30.30622365 81.0486073L30.30622365 77.1466715C30.30622365 74.8042964 32.2526655 72.89884095 34.6516241 72.89884095C37.04438385 72.89884095 38.98462685 74.8042964 38.98462685 77.1466715L38.98462685 81.0486073L61.3005205 81.0486073L61.3005205 77.1466715C61.3005205 74.8042964 63.2469625 72.89884095 65.645921 72.89884095C68.038681 72.89884095 69.9851225 74.8042964 69.9851225 77.1466715L69.9851225 81.0486073L87.602281 81.0486073C89.6169105 81.042539 91.315398 79.37981675 91.315398 77.4076097L91.315398 12.136659L91.315398 12.136659zM72.5 60C69.7333335 60 67.5 57.76 67.5 55C67.5 52.23333335 69.7333335 50 72.5 50C75.26 50 77.5 52.23333335 77.5 55C77.5 57.76 75.26 60 72.5 60M72.5 45C69.7333335 45 67.5 42.7666665 67.5 40C67.5 37.24 69.7333335 35 72.5 35C75.26 35 77.5 37.24 77.5 40C77.5 42.7666665 75.26 45 72.5 45M72.5 30C69.7333335 30 67.5 27.76 67.5 25C67.5 22.2333335 69.7333335 20 72.5 20C75.26 20 77.5 22.2333335 77.5 25C77.5 27.76 75.26 30 72.5 30M57.5 60C54.7333335 60 52.5 57.76 52.5 55C52.5 52.23333335 54.7333335 50 57.5 50C60.26 50 62.5 52.23333335 62.5 55C62.5 57.76 60.26 60 57.5 60M57.5 45C54.7333335 45 52.5 42.7666665 52.5 40C52.5 37.24 54.7333335 35 57.5 35C60.26 35 62.5 37.24 62.5 40C62.5 42.7666665 60.26 45 57.5 45M57.5 30C54.7333335 30 52.5 27.76 52.5 25C52.5 22.2333335 54.7333335 20 57.5 20C60.26 20 62.5 22.2333335 62.5 25C62.5 27.76 60.26 30 57.5 30M42.5 60C39.73333335 60 37.5 57.76 37.5 55C37.5 52.23333335 39.73333335 50 42.5 50C45.26 50 47.5 52.23333335 47.5 55C47.5 57.76 45.26 60 42.5 60M42.5 45C39.73333335 45 37.5 42.7666665 37.5 40C37.5 37.24 39.73333335 35 42.5 35C45.26 35 47.5 37.24 47.5 40C47.5 42.7666665 45.26 45 42.5 45M42.5 30C39.73333335 30 37.5 27.76 37.5 25C37.5 22.2333335 39.73333335 20 42.5 20C45.26 20 47.5 22.2333335 47.5 25C47.5 27.76 45.26 30 42.5 30M27.5 60C24.73333335 60 22.5 57.76 22.5 55C22.5 52.23333335 24.73333335 50 27.5 50C30.26 50 32.5 52.23333335 32.5 55C32.5 57.76 30.26 60 27.5 60M27.5 45C24.73333335 45 22.5 42.7666665 22.5 40C22.5 37.24 24.73333335 35 27.5 35C30.26 35 32.5 37.24 32.5 40C32.5 42.7666665 30.26 45 27.5 45M27.5 30C24.73333335 30 22.5 27.76 22.5 25C22.5 22.2333335 24.73333335 20 27.5 20C30.26 20 32.5 22.2333335 32.5 25C32.5 27.76 30.26 30 27.5 30" />
    <glyph glyph-name="checked"
      unicode="&#xE016;"
      horiz-adv-x="100" d="M17.545 60.505L44.6 30.49L97.03 89.895L91.41 94.855L44.54 41.76L23.115 65.525L17.545 60.505M47.97 95C23.1544415 94.99745405 2.97254595 74.8181045 2.97 50C2.97254595 25.1818955 23.1544415 5.002546 47.97 5C72.7881045 5.002546 92.967454 25.1818955 92.97 50C92.967454 74.8181045 72.7881045 94.99745405 47.972546 95M48.9272845 86.6466761C58.680891 86.3946252 67.4823055 82.37963225 73.918515 75.945969C80.5609475 69.30099 84.6650495 60.138048 84.6650495 50C84.6650495 39.861952 80.5609475 30.69901 73.918515 24.051485C67.27099 17.4090525 58.110594 13.3049505 47.97 13.3049505C37.831952 13.3049505 28.66901 17.4090525 22.024031 24.051485C15.37905235 30.69901 11.2749505 39.861952 11.2749505 50C11.2749505 60.138048 15.37905235 69.30099 22.024031 75.945969C28.6231825 82.54512025 37.7097455 86.6288543 47.7663225 86.68486565" />
    <glyph glyph-name="checkmark"
      unicode="&#xE017;"
      horiz-adv-x="100" d="M30.348841 14.074017L34.114061 10L37.8375565 14.1143475L100 82.80192615L92.4744 90L34.152844 25.2997495L7.45183155 54.1905915L0 46.911857L30.348841 14.074017z" />
    <glyph glyph-name="clip"
      unicode="&#xE018;"
      horiz-adv-x="100" d="M43.4814285 8.0124875C46.4835715 5.0937375 50.694286 3.3062375 55.3035715 3.3124875C59.919286 3.3124875 64.1235715 5.1124875 67.1257145 8.0312375C69.947857 10.7749875 71.7285715 14.5812375 71.722143 18.7499875L71.7157145 19.7062375L71.664286 77.2124875C71.664286 82.68748765 69.317857 87.67498765 65.589286 91.29373765C61.622857 95.13748765 56.0557145 97.50623765 49.9485715 97.49998765C43.8414285 97.49373765 38.287143 95.11873765 34.3335715 91.26248765C30.605 87.64373765 28.2714285 82.64998765 28.277857 77.1749875L28.329286 25.2999875L35.722143 25.3062375L35.6707145 77.1812375C35.6707145 80.66248765 37.117143 83.79998765 39.56 86.18748765C42.157143 88.71248765 45.827857 90.31248765 49.955 90.31248765C54.0885715 90.31873765 57.7657145 88.72498765 60.362857 86.20623765C62.812143 83.82498765 64.265 80.68748765 64.2714285 77.2124875L64.329286 19.6937375L64.329286 18.7374875C64.329286 16.5687375 63.429286 14.6124875 61.892857 13.1062375C60.2535715 11.5187375 57.932857 10.4999875 55.297143 10.4937375C52.667857 10.4937375 50.3407145 11.5062375 48.7014285 13.0937375C47.1585715 14.5999875 46.2585715 16.5499875 46.252143 18.7249875L46.207143 62.8249875C46.207143 63.6437375 46.535 64.3687375 47.152143 64.9749875C47.8014285 65.6062375 48.7335715 66.0187375 49.82 66.0249875C50.9064285 66.0249875 51.845 65.6062375 52.494286 64.9749875C53.105 64.3749875 53.432857 63.6499875 53.439286 62.8312375L53.4714285 25.3249875L60.8707145 25.3312375L60.832143 62.8312375C60.832143 65.6562375 59.617143 68.2312375 57.714286 70.0624875C55.702143 72.0187375 52.8864285 73.2124875 49.8135715 73.2124875C46.747143 73.2062375 43.9314285 72.0062375 41.919286 70.0499875C40.022857 68.2124875 38.814286 65.6374875 38.814286 62.8124875L38.859286 18.7124875C38.859286 14.5562375 40.64 10.7687375 43.462143 8.0249875L43.4814285 8.0124875" />
    <glyph glyph-name="clock"
      unicode="&#xE019;"
      horiz-adv-x="100" d="M50 100C22.427157 99.997171145685 0.002828854315 77.57567185 0 50C0.002828854315 22.424328 22.427157 0.002829 50 0C77.575672 0.002829 99.997171 22.424328 100 50C99.997171 77.57567185 77.575672 99.997171145685 50.002829 100M51.063649 90.718529C61.90099 90.4384724 71.6803395 85.97736915 78.831683 78.8288543C86.212164 71.44554455 90.772277 61.2644979 90.772277 50C90.772277 38.735502 86.212164 28.5544555 78.831683 21.168317C71.4455445 13.787836 61.2673265 9.227723 50 9.227723C38.7355021 9.227723 28.55445545 13.787836 21.1711457 21.168317C13.78783595 28.5544555 9.22772275 38.735502 9.22772275 50C9.22772275 61.2644979 13.78783595 71.44554455 21.1711457 78.8288543C28.50353605 86.1612447 38.5997171 90.698727 49.77369165 90.7609618M38.9951104 52.0411361L38.9951104 52.0411361L39.0150729 52.01547005L39.02648005 52.00121115L39.02933185 51.99835935L47.0485488 42.2737755L47.05140055 42.268072L47.05710415 42.2623685L47.0628077 42.253813C47.587536 41.6235685 48.38318375 41.1758385 49.30431 41.1245065L49.3413832 41.1216545L49.38415995 41.1216545L49.47541705 41.1216545C50.2739165 41.1273585 51.021084 41.4267955 51.588589 41.934413L51.5942925 41.940117L51.6199585 41.962931L51.6256625 41.9686345L51.639921 41.9800415L52.926076 43.2234195L52.937483 43.2348265L52.94889 43.246234L52.9574455 43.254789L52.963149 43.260493L52.974556 43.2719L53.068665 43.4116375L53.1000345 43.4344515L53.134256 43.482932L67.5129515 58.06980775L67.5158035 58.07265955L67.521507 58.0812149L67.521507 58.0783631C67.521507 58.0812149 67.524359 58.0812149 67.524359 58.08406665L67.6042085 58.1810273L67.5956535 58.1895827C68.0833085 58.73142165 68.3485245 59.38162845 68.4141155 60.0175763L68.445485 60.07746375L68.448337 60.0917227L68.4540405 60.16586905L68.456892 60.2000905L68.459744 60.2371637L68.459744 60.38830825L68.456892 60.38830825C68.4540405 61.17540065 68.154603 61.93112345 67.63843 62.52429455L67.6498375 62.5299981L67.6469855 62.5328499L67.58995 62.6041445C67.031 63.2115745 66.2353525 63.59656535 65.3627065 63.6421939C65.357003 63.6421939 65.354151 63.6478975 65.3484475 63.6478975L65.3085225 63.65074925L65.2172655 63.65074925C64.749573 63.65074925 64.2505105 63.5537886 63.7742625 63.3227941L63.6972645 63.28001735L63.623118 63.231537L63.5518235 63.1802049L63.1554255 62.84939795L63.0356505 62.81232475L49.0562048 51.29682045L43.5750757 56.3216641L43.57222395 56.32451585L43.5636686 56.33021945L43.557965 56.335923C42.96194215 56.877762 42.20621935 57.14868145 41.45334835 57.14868145L41.4390894 57.14868145L41.26798235 57.128719L41.27083415 57.11731185C40.6320345 57.07738685 39.99893845 56.8349852 39.45995125 56.38440335C39.4456923 56.375848 39.4285816 56.38440335 39.4114709 56.375848L39.3915084 56.36158905L39.3401763 56.31025695C39.33447275 56.30455335 39.32876915 56.30455335 39.3259174 56.2988498L39.32876915 56.295998L39.2688817 56.23325875L39.20614245 56.17907485L39.20329065 56.18192665C39.2004389 56.1762231 39.1975871 56.1705195 39.1947353 56.16766775L39.1405514 56.1163356L39.1262925 56.09637315L39.11488535 56.0478928C38.6243785 55.4889431 38.30783045 54.78455245 38.30497865 54.0202743L38.30497865 53.99460825C38.30783045 53.2816622 38.55593565 52.59438225 38.99225865 52.0468397L38.9951104 52.0411361" />
    <glyph glyph-name="cog"
      unicode="&#xE01A;"
      horiz-adv-x="100" d="M90 50.99C90 56.18 93.95 60.445 99.01 60.94C97.715 67.35 95.195 73.31 91.71 78.575C89.935 76.97 87.58 75.99 85 75.99C79.475 75.99 75 80.465 75 85.99C75 88.57 75.98 90.925 77.585 92.7C72.32 96.185 66.36 98.705 59.95 100C59.455 94.94 55.19 90.99 50 90.99C44.81 90.99 40.545 94.94 40.05 100C33.64 98.705 27.68 96.185 22.415 92.7C24.02 90.925 25 88.57 25 85.99C25 80.465 20.525 75.99 15 75.99C12.42 75.99 10.065 76.97 8.29 78.575C4.805 73.31 2.285 67.35 0.99 60.94C6.05 60.445 10 56.18 10 50.99C10 45.8 6.05 41.535 0.99 41.04C2.285 34.63 4.805 28.67 8.29 23.405C10.065 25.01 12.42 25.99 15 25.99C20.525 25.99 25 21.515 25 15.99C25 13.41 24.02 11.055 22.415 9.28C27.68 5.795 33.64 3.275 40.05 1.98C40.545 7.04 44.81 10.99 50 10.99C55.19 10.99 59.455 7.04 59.95 1.98C66.36 3.275 72.32 5.795 77.585 9.28C75.98 11.055 75 13.41 75 15.99C75 21.515 79.475 25.99 85 25.99C87.58 25.99 89.935 25.01 91.71 23.405C95.195 28.67 97.715 34.63 99.01 41.04C93.95 41.535 90 45.8 90 50.99L90 50.99zM50 25.99C36.195 25.99 25 37.185 25 50.99C25 64.795 36.195 75.99 50 75.99C63.805 75.99 75 64.795 75 50.99C75 37.185 63.805 25.99 50 25.99L50 25.99z" />
    <glyph glyph-name="cross"
      unicode="&#xE01B;"
      horiz-adv-x="100" d="M98.338983025 90.35484235C100.553672525 92.5697819 100.553672525 96.14080685 98.338983025 98.3557464C96.124294025 100.54808455 92.553672525 100.54808455 90.361582025 98.3557464L50.000000025 57.9896035L9.638418125 98.3557464C7.446327725 100.54808455 3.853107375 100.54808455 1.661016975 98.3557464C-0.553672275 96.14080685 -0.553672275 92.5697819 1.661016975 90.35484235L42.000000025 50.0113005L1.661016975 9.6451575C-0.553672275 7.430218 -0.553672275 3.859193 1.661016975 1.6442535C3.853107375 -0.5480845 7.446327725 -0.5480845 9.638418125 1.6442535L50.000000025 42.0103965L90.361582025 1.6442535C92.553672525 -0.5480845 96.124294025 -0.5480845 98.338983025 1.6442535C100.553672525 3.859193 100.553672525 7.430218 98.338983025 9.6451575L57.977401025 50.0113005L98.338983025 90.35484235z" />
    <glyph glyph-name="decision--dashed"
      unicode="&#xE01C;"
      horiz-adv-x="100" d="M30.2958505 48.512119L45.9985955 31.4262455L70.479712 57.6195855L63.6344985 64.0189765L46.0569235 45.2165995L37.195226 54.8573485L30.2958505 48.512119M49.91 2.725C47.01 2.725 44.09 2.995 41.24 3.535L42.155 8.445C44.73 7.965 47.32 7.785 49.985 7.725C54.755 7.725 59.435 8.51 63.89 10.055L65.53 5.33C60.515 3.595 55.265 2.715 49.91 2.725L49.91 2.725zM25.985 9.23C21.42 11.91 17.355 15.31 13.905 19.335L17.7 22.585C20.79 18.985 24.43 15.945 28.52 13.535L25.985 9.23L25.985 9.23zM79.77 13.22L76.635 17.115C80.33 20.095 83.485 23.64 86.005 27.655L90.245 24.995C87.425 20.51 83.9 16.55 79.77 13.22L79.77 13.22zM5.585 33.325C3.705 38.27 2.67 43.47 2.51 48.785L7.51 48.935C7.65 44.175 8.575 39.525 10.26 35.105L5.585 33.325L5.585 33.325zM96.395 40.06L91.515 41.125C92.165 44.09 92.49 47.15 92.49 50.225C92.49 51.91 92.39 53.575 92.2 55.21L97.165 55.8C97.38 53.97 97.49 52.11 97.49 50.225C97.49 46.795 97.125 43.37 96.395 40.06L96.395 40.06zM9.555 63.35L4.8 64.895C6.435 69.93 8.885 74.63 12.09 78.865L16.08 75.845C13.21 72.06 11.015 67.855 9.555 63.35L9.555 63.35zM88.045 69.165C85.935 73.41 83.14 77.245 79.745 80.565L83.24 84.14C87.035 80.425 90.155 76.135 92.52 71.4L88.045 69.165L88.045 69.165zM26.72 85.795L23.98 89.98C28.425 92.89 33.285 95.02 38.415 96.305L39.63 91.455C35.04 90.305 30.7 88.4 26.72 85.795L26.72 85.795zM67.765 88.84C63.46 90.82 58.885 92.06 54.16 92.52L54.645 97.5C59.925 96.985 65.045 95.6 69.855 93.38L67.765 88.84L67.765 88.84z" />
    <glyph glyph-name="decision"
      unicode="&#xE01D;"
      horiz-adv-x="100" d="M49.9999999885 104.500000477C22.4291666885 104.500000477 1.15e-8 82.0708338 1.15e-8 54.5000005C1.15e-8 26.929167 22.4291666885 4.5000005 49.9999999885 4.5000005C77.5708334885 4.5000005 99.9999999885 26.929167 99.9999999885 54.5000005C99.9999999885 82.0708338 77.5708334885 104.500000477 49.9999999885 104.500000477L49.9999999885 104.500000477zM49.9999999885 14.916667C28.1374999885 14.916667 10.4166666885 32.6375005 10.4166666885 54.5000005C10.4166666885 76.3625005 28.1374999885 94.0833338 49.9999999885 94.0833338C71.8624999885 94.0833338 89.5833334885 76.3625005 89.5833334885 54.5000005C89.5833334885 32.6375005 71.8624999885 14.916667 49.9999999885 14.916667L49.9999999885 14.916667zM30.0483351385 54.2398005L45.7072738385 37.4216005L70.1242499885 63.1983005L63.2939779885 69.5000005L45.7654391385 50.9926005L36.9326178385 60.4800005L30.0483351385 54.2398005" />
    <glyph glyph-name="diagram"
      unicode="&#xE01E;"
      horiz-adv-x="100" d="M90 45C90 20.1471865 69.8528135 0 45 0C20.1471865 0 0 20.1471865 0 45C0 69.8528135 20.1471865 90 45 90L45 45L90 45L90 45zM100 55C100 79.8528135 79.8528135 100 55 100L54.9215885 55.1475325L100 55L100 55z" />
    <glyph glyph-name="displaySettings"
      unicode="&#xE01F;"
      horiz-adv-x="100" d="M10 44.99L10 80.01C10 82.77 12.235 85 14.99 85L70.01 85C72.76 85 75 82.765 75 80.01L75 60L85 60L85 90.005C85 92.765 82.725 95 80 95L5 95C2.24 95 0 92.76 0 90.005L0 34.99C0 32.235 2.275 30 5 30L45 30L45 40L14.99 40C12.24 40 10 42.235 10 44.99M95.405 30C95.405 32.645 97.42 34.825 100 35.075C99.34 38.345 98.055 41.385 96.275 44.07C95.37 43.25 94.17 42.755 92.855 42.755C90.035 42.755 87.755 45.035 87.755 47.855C87.755 49.17 88.25 50.37 89.07 51.275C86.385 53.055 83.345 54.34 80.075 55C79.825 52.42 77.645 50.405 75 50.405C72.355 50.405 70.175 52.42 69.925 55C66.655 54.34 63.615 53.055 60.93 51.275C61.75 50.37 62.25 49.17 62.25 47.855C62.25 45.035 59.965 42.755 57.145 42.755C55.83 42.755 54.63 43.25 53.725 44.07C51.945 41.385 50.66 38.345 50 35.075C52.58 34.825 54.595 32.645 54.595 30C54.595 27.355 52.58 25.175 50 24.925C50.66 21.655 51.945 18.615 53.725 15.93C54.63 16.75 55.83 17.245 57.145 17.245C59.965 17.245 62.25 14.965 62.25 12.145C62.25 10.83 61.75 9.63 60.93 8.725C63.615 6.945 66.655 5.66 69.925 5C70.175 7.58 72.355 9.595 75 9.595C77.645 9.595 79.825 7.58 80.075 5C83.345 5.66 86.385 6.945 89.07 8.725C88.25 9.63 87.755 10.83 87.755 12.145C87.755 14.965 90.035 17.245 92.855 17.245C94.17 17.245 95.37 16.75 96.275 15.93C98.055 18.615 99.34 21.655 100 24.925C97.42 25.175 95.405 27.355 95.405 30L95.405 30zM75 17.245C67.955 17.245 62.25 22.955 62.25 30C62.25 37.045 67.955 42.755 75 42.755C82.045 42.755 87.755 37.045 87.755 30C87.755 22.955 82.045 17.245 75 17.245L75 17.245z" />
    <glyph glyph-name="document"
      unicode="&#xE020;"
      horiz-adv-x="100" d="M90.6559309699702 96.11683383C88.0313959699702 98.529411765 84.4461554699702 100 80.5476414699702 100L19.4523586199702 100C15.5538446699702 100 11.9686042199702 98.529411765 9.3371072849702 96.11683383C6.7125720099702 93.7110328 4.9930488980202 90.2615885 5.0000105300298 86.4461914L5.0000105300298 13.5538085C4.9930488980202 9.7384115 6.7125720099702 6.288967 9.3371072849702 3.883166C11.9686042199702 1.470588 15.5538446699702 0 19.4523586199702 0L69.5204164699702 0L94.9999894699702 27.975061L94.9999894699702 86.4461914C94.9999894699702 90.2615885 93.2804664699702 93.7110328 90.6559309699702 96.11683383L90.6559309699702 96.11683383zM16.0341973199702 10.782055C15.1848782199702 11.5681755 14.7462953699702 12.523719 14.7462953699702 13.5538085L14.7462953699702 86.4461914C14.7462953699702 87.47628085 15.1848782199702 88.43182435 16.0341973199702 89.21794525C16.8765547699702 89.99728925 18.0809171199702 90.51233395 19.4523586199702 90.51233395L80.5476414699702 90.51233395C81.9121214699702 90.51233395 83.1164834699702 89.99728925 83.9658024699702 89.21794525C84.8081599699702 88.43182435 85.2467429699702 87.47628085 85.2537044699702 86.4461914L85.2537044699702 34.7384115L60.8253379699702 34.7384115L60.9088774699702 9.487666L19.4523586199702 9.487666C18.0809171199702 9.487666 16.8765547699702 10.002711 16.0341973199702 10.782055L16.0341973199702 10.782055zM29.7332727199702 65L65.2667064699702 65C67.8767739699702 65 69.9999894699702 67.2357143 69.9999894699702 70C69.9999894699702 72.7642857 67.8767739699702 75 65.2667064699702 75L29.7332727199702 75C27.1164432699702 75 24.9999894699702 72.7642857 24.9999894699702 70C24.9999894699702 67.2357143 27.1164432699702 65 29.7332727199702 65M69.9999894699702 55C69.9999894699702 57.7642857 67.8767739699702 60 65.2667064699702 60L29.7332727199702 60C27.1164432699702 60 24.9999894699702 57.7642857 24.9999894699702 55C24.9999894699702 52.2357143 27.1164432699702 50 29.7332727199702 50L65.2667064699702 50C67.8767739699702 50 69.9999894699702 52.2357143 69.9999894699702 55" />
    <glyph glyph-name="download"
      unicode="&#xE021;"
      horiz-adv-x="100" d="M55 20.8578645L55 55.023012C55 57.721678 57.2385765 60 60 60C62.780676 60 65 57.7717265 65 55.023012L65 20.8578645L77.6881695 33.546034C79.611478 35.4693425 82.796116 35.4881555 84.7487375 33.535534C86.714972 31.569299 86.70606 28.4217885 84.7592375 26.474966L63.525034 5.2407625C62.5651035 4.280832 61.29097 3.79532 60.012629 3.792549C58.7174315 3.7801585 57.446646 4.2690825 56.474966 5.2407625L35.2407625 26.474966C33.317454 28.398275 33.298641 31.5829125 35.2512625 33.535534C37.2174975 35.5017685 40.365008 35.4928565 42.3118305 33.546034L55 20.8578645L55 20.8578645L55 20.8578645zM70 45L85 45L85 45.177222C93.4807355 46.3902965 100 53.68382 100 62.5C100 69.7471755 95.5947025 75.965438 89.31585 78.6230455L89.31585 78.6230455C86.5325445 90.8636476 75.583227 100 62.5 100C51.6510105 100 42.269341 93.7176568 37.794465 84.59244365L37.794465 84.59244365C35.539517 87.8592145 31.769762 90 27.5 90C20.5964405 90 15 84.40355935 15 77.5C15 76.6431115 15.08622125 75.806361 15.25046135 74.997951C15.1671377 74.9993155 15.0836488 75 15 75C6.71572875 75 0 68.284271 0 60C0 51.715729 6.71572875 45 15 45L50 45L50 55.009493C50 60.566468 54.4771525 65 60 65C65.561352 65 70 60.527098 70 55.009493L70 45L70 45z" />
    <glyph glyph-name="dragHorizontal"
      unicode="&#xE022;"
      horiz-adv-x="100" d="M30 100C27.2385765 100 25 97.7234721 25 95.04098445L25 4.9590155C25 2.220227 27.219324 0 30 0L30 0C32.7614235 0 35 2.276528 35 4.9590155L35 95.04098445C35 97.7797731 32.780676 100 30 100L30 100L30 100zM50 100C47.2385765 100 45 97.7234721 45 95.04098445L45 4.9590155C45 2.220227 47.219324 0 50 0L50 0C52.7614235 0 55 2.276528 55 4.9590155L55 95.04098445C55 97.7797731 52.780676 100 50 100L50 100L50 100zM70 100C67.2385765 100 65 97.7234721 65 95.04098445L65 4.9590155C65 2.220227 67.219324 0 70 0L70 0C72.7614235 0 75 2.276528 75 4.9590155L75 95.04098445C75 97.7797731 72.780676 100 70 100L70 100L70 100z" />
    <glyph glyph-name="dragVertical"
      unicode="&#xE023;"
      horiz-adv-x="100" d="M94.597515 35.8174935L5.40248515 35.8174935C2.41568265 35.8174935 0 33.399011 0 30.4087465C0 27.4184825 2.41568265 25 5.40248515 25L94.597515 25C97.5765995 25 100 27.4184825 100 30.4087465C100 33.399011 97.5765995 35.8174935 94.597515 35.8174935zM94.597515 55.4048835L5.40248515 55.4048835C2.41568265 55.4048835 0 52.986401 0 49.9961365C0 47.013599 2.41568265 44.58739 5.40248515 44.58739L94.597515 44.58739C97.5765995 44.58739 100 47.013599 100 49.9961365C100 52.986401 97.5765995 55.4048835 94.597515 55.4048835zM5.40248515 64.1825065L94.597515 64.1825065C97.5765995 64.1825065 100 66.600989 100 69.5912535C100 72.573791 97.5765995 75 94.597515 75L5.40248515 75C2.41568265 75 0 72.573791 0 69.5912535C0 66.600989 2.41568265 64.1825065 5.40248515 64.1825065z" />
    <glyph glyph-name="dropdown"
      unicode="&#xE024;"
      horiz-adv-x="100" d="M24.8888014 100C11.13646935 100 0 88.87067985 0 75.1111986L0 24.8888015C0 11.1364695 11.12932015 0 24.8888014 0L75.1111985 0C88.8635305 0 100 11.12932 100 24.8888015L100 75.1111986C100 88.86353065 88.87068 100 75.1111985 100L24.8888014 100L24.8888014 100zM24.8888014 94.11764705L75.1111985 94.11764705C85.6211 94.11764705 94.117647 85.61564215 94.117647 75.1111986L94.117647 24.8888015C94.117647 14.3789 85.615642 5.882353 75.1111985 5.882353L24.8888014 5.882353C14.3788999 5.882353 5.88235295 14.384358 5.88235295 24.8888015L5.88235295 75.1111986C5.88235295 85.6211001 14.38435785 94.11764705 24.8888014 94.11764705L24.8888014 94.11764705zM27.4394961 54.6218003L46.9296922 33.406114C47.6159667 32.651212 48.59635885 32.2198395 49.6257706 32.2198395C50.6453785 32.2198395 51.6257705 32.641408 52.321849 33.39631L72.047339 54.60219245C73.429692 56.09238855 73.351261 58.41591795 71.8610645 59.7982709C70.3708685 61.18062385 68.057143 61.09238855 66.67479 59.6119964L49.64537845 41.308075L32.8512608 59.59238855C31.4787118 61.09238855 29.1551824 61.19042775 27.6551824 59.8080748C26.1649863 58.4355258 26.0669471 56.1119964 27.4394961 54.6218003" />
    <glyph glyph-name="dueDate"
      unicode="&#xE025;"
      horiz-adv-x="100" d="M86.70973775 38.7823095L99.99999925 51.9768255L90.29707575 51.9856375C89.82210775 62.8244095 85.46478975 73.548625 77.15727025 81.8201649C68.33938075 90.59986395 56.75133475 95.0058688 45.19869025 94.99999415C33.64309525 95.0058688 22.05504975 90.59986395 13.24011025 81.8201649C4.4222209 73.043403 -0.0029494 61.505545 7.5e-7 49.999998C-0.0029494 38.497388 4.4192708 26.9565925 13.24011025 18.1798305C22.05504975 9.4001315 33.64309525 4.997064 45.19869025 5.0000015C56.75133475 4.997064 68.33938075 9.4001315 77.15727025 18.1798305L71.94146925 23.3730415C64.54553475 16.0120765 54.88981325 12.34628 45.19869025 12.343343C35.50461725 12.34628 25.84889575 16.0120765 18.4529609 23.3730415C11.0629265 30.7369445 7.3811848 40.350847 7.37528455 49.999998C7.3811848 59.6491485 11.0629265 69.2659885 18.4529609 76.626954C25.84889575 83.9879193 35.50461725 87.65371535 45.19869025 87.6566527C54.88686325 87.65371535 64.54553475 83.9879193 71.94146925 76.626954C78.82408425 69.7741475 82.44682375 60.962138 82.92179175 51.991512L73.43422675 52.000324L86.70973775 38.7823095zM33.96760775 52.549606L33.98825875 52.52317L41.20718675 43.805155L41.21308675 43.7992805C41.57890075 43.361617 42.12762225 43.056134 42.76779675 43.020886L42.80319825 43.017949L42.88875125 43.017949C43.42862225 43.020886 43.96259275 43.2323745 44.34905775 43.57898L44.37265825 43.5995415L44.37855875 43.605416L45.53795325 44.721604L45.55270375 44.7362905L45.56155425 44.7421655L45.57040475 44.7539145L45.59400525 44.809724L45.60580575 44.8038495L45.67070825 44.897844L58.63645725 57.995428L58.63940725 57.995428L58.63940725 57.9983655L58.64235775 57.9983655L58.64235775 58.0013025C59.03177275 58.3949055 59.22648025 58.8913155 59.27368175 59.384788L59.29138275 59.399475L59.29138275 59.417099L59.30023275 59.4817205L59.30023275 59.593339C59.30023275 60.177869 59.07897425 60.7418375 58.68955925 61.161877L58.68660925 61.164814C58.29424425 61.5877905 57.72782225 61.8639 57.10829875 61.887399L57.04044575 61.8903365C56.70118275 61.8903365 56.34716925 61.8227775 56.01675675 61.661224L55.95185425 61.6201015L55.59194025 61.320493L55.48278575 61.285245L42.48458575 50.6256505L37.13602975 55.5045665L37.13307975 55.507504C36.71711375 55.8864205 36.19199375 56.0714725 35.67277375 56.0714725C35.15945375 56.0714725 34.62843325 55.8776085 34.20066675 55.484005L34.20066675 55.48988L34.18001625 55.475193L34.17411575 55.466381L34.15936525 55.4428825L34.13576425 55.428196L34.12396375 55.422321L34.11216375 55.404697L34.11806375 55.40176C33.72569875 55.002282 33.49263975 54.4676865 33.49263975 53.9066555C33.49263975 53.4102455 33.66669625 52.9285225 33.96760775 52.549606z" />
    <glyph glyph-name="dumbell"
      unicode="&#xE026;"
      horiz-adv-x="100" d="M35 45L65 45L65 27.477726C65 23.3977725 68.3578645 20 72.5 20C76.671014 20 80 23.347892 80 27.477726L80 45L85 45L85 37.455026C85 36.1394025 86.119288 35 87.5 35C88.840332 35 90 36.0991525 90 37.455026L90 45L95.0409845 45C97.779773 45 100 47.219324 100 50C100 52.7614235 97.723472 55 95.0409845 55L90 55L90 62.544974C90 63.8605975 88.880712 65 87.5 65C86.159668 65 85 63.9008475 85 62.544974L85 55L80 55L80 72.522274C80 76.6022275 76.6421355 80 72.5 80C68.328986 80 65 76.652108 65 72.522274L65 55L35 55L35 72.522274C35 76.6022275 31.6421355 80 27.5 80C23.328986 80 20 76.652108 20 72.522274L20 55L15 55L15 62.544974C15 63.8605975 13.88071185 65 12.5 65C11.15966795 65 10 63.9008475 10 62.544974L10 55L4.95901555 55C2.2202269 55 0 52.780676 0 50C0 47.2385765 2.2765279 45 4.95901555 45L10 45L10 37.455026C10 36.1394025 11.11928815 35 12.5 35C13.84033205 35 15 36.0991525 15 37.455026L15 45L20 45L20 27.477726C20 23.3977725 23.3578645 20 27.5 20C31.671014 20 35 23.347892 35 27.477726L35 45L35 45z" />
    <glyph glyph-name="duplicate"
      unicode="&#xE027;"
      horiz-adv-x="100" d="M17.5 80L7.535 80C4.755 80 2.5 78.18 2.5 76.032L2.5 3.968C2.5 1.772 4.745 0 7.535 0L72.46 0C75.245 0 77.5 1.82 77.5 3.968L77.5 15L22.535 15C19.745 15 17.5 16.772 17.5 18.968L17.5 80L17.5 80zM92.46 100L27.535 100C24.755 100 22.5 98.18 22.5 96.032L22.5 23.968C22.5 21.772 24.745 20 27.535 20L92.46 20C95.245 20 97.5 21.82 97.5 23.968L97.5 96.032C97.5 98.224 95.255 100 92.46 100L92.46 100zM47.5 35L37.5 35L37.5 45L47.5 45L47.5 35L47.5 35zM47.5 55L37.5 55L37.5 65L47.5 65L47.5 55L47.5 55zM47.5 75L37.5 75L37.5 85L47.5 85L47.5 75L47.5 75zM82.5 35L57.5 35L57.5 45L82.5 45L82.5 35L82.5 35zM82.5 55L57.5 55L57.5 65L82.5 65L82.5 55L82.5 55zM82.5 75L57.5 75L57.5 85L82.5 85L82.5 75L82.5 75z" />
    <glyph glyph-name="evernote"
      unicode="&#xE028;"
      horiz-adv-x="100" d="M16.104645825 80.63163175L16.110950175 80.63163175L25.645709625 80.63163175C26.192084125 80.63163175 26.631460125 81.0696195 26.632685625 81.60327165C26.632685625 81.606719 26.516756625 89.65028395 26.516756625 91.88710685L26.516756625 91.91365155C26.516756625 93.75058015 26.908500125 95.3523984 27.590942625 96.69445765L27.917016125 97.29722945C27.880591125 97.2911966 27.843991125 97.273615 27.807741125 97.2379348L9.281444775 79.155125C9.245194925 79.1256505 9.222604475 79.0877295 9.212097275 79.0486015C9.595434975 79.2352765 10.119218925 79.4903815 10.193294675 79.5222695C11.806500225 80.23897685 13.762941025 80.63163175 16.104645825 80.63163175L16.104645825 80.63163175zM90.297566625 82.6005944C89.540172625 86.59143675 87.129645625 88.55798625 84.950276625 89.3312303C82.598940625 90.16773345 77.831123125 91.0342287 71.840617625 91.72921755C67.021139625 92.28786305 61.356532625 92.24339205 57.934862625 92.1392816C57.524206125 94.90786065 55.551304125 97.43702015 53.343741625 98.31282325C47.462160625 100.6428974 38.374482625 100.08011505 36.041358625 99.4363196C34.187188125 98.9262819 32.135131625 97.88104075 30.992999125 96.27025935C30.227024125 95.1943367 29.731434625 93.8159077 29.727581625 91.8902095C29.727581625 90.80032495 29.758403125 88.2330721 29.786597125 85.9519505C29.814616625 83.6635895 29.845087625 81.6170611 29.845087625 81.60327165C29.844036625 79.566051 28.166562125 77.908213 26.087712625 77.9054555L16.551376975 77.9054555C14.517182925 77.9054555 12.962992825 77.5689925 11.775854225 77.0380985C10.586789375 76.506687 9.744637225 75.7903245 9.104748675 74.9427895C7.830925725 73.259786 7.609924275 71.182921 7.615177875 69.0633085C7.615177875 69.0633085 7.633915725 67.331352 8.057881275 63.9793065C8.410397825 61.3853365 11.268006225 43.26564 13.982541525 37.7548545C15.035012775 35.6107655 15.736018225 34.7177255 17.803660175 33.772803C22.410542125 31.831419 32.933328625 29.671645 37.865233625 29.0531875C42.788207625 28.433179 45.878025125 27.1299025 47.719412125 30.9301055C47.725541125 30.9394135 48.088389625 31.8755455 48.587131625 33.248631C50.185802125 38.016854 50.408379625 42.247633 50.408379625 45.309238C50.408379625 45.620363 50.872447625 45.6346695 50.872447625 45.309238C50.872447625 43.14774 50.453035125 35.4988985 56.323233125 33.446682C58.640596625 32.637758 63.447816125 31.916569 68.332438625 31.353097C72.749140125 30.8534015 75.954361625 29.142819 75.954361625 17.9895585C75.954361625 11.2037645 74.506469625 10.273493 66.936556625 10.273493C60.800351625 10.273493 58.461799125 10.117155 58.461799125 14.9155425C58.461799125 18.793656 62.358569625 18.3870395 65.246648625 18.3870395C66.536582625 18.3870395 65.600391125 19.3316175 65.600391125 21.7242615C65.600391125 24.10415 67.112552625 25.480166 65.682172125 25.514984C55.695603125 25.78543 49.819451125 25.526188 49.819451125 13.2327115C49.819451125 2.0723835 54.158574625 0 68.332438625 0C79.445554625 0 83.362989125 0.3583535 87.951658625 14.372238C88.860006125 17.1387485 91.055836125 25.5815185 92.384822125 39.757084C93.224697625 48.7202335 91.592403625 75.772743 90.297566625 82.6005944L90.297566625 82.6005944zM70.925265125 52.6990105C69.552324625 52.746239 68.231744625 52.660917 67.000300625 52.466141C67.346863125 55.2211025 68.502129625 58.601589 72.594684625 58.4600745C77.125039125 58.306667 77.759849125 54.0920905 77.775960125 51.2373275C75.865751125 52.0755545 73.500930625 52.609896 70.925265125 52.6990105L70.925265125 52.6990105z" />
    <glyph glyph-name="externalLink"
      unicode="&#xE029;"
      horiz-adv-x="100" d="M83.964466 81.0355339L75 90L100 90L100 65L91.035534 73.964466L64.3933985 47.3223305L57.3223305 54.3933985L83.964466 81.0355339L83.964466 81.0355339zM100 55L100 10L0 10L0 90L65 90L65 80L10 80L10 20L90 20L90 55L100 55L100 55z" />
    <glyph glyph-name="facebook"
      unicode="&#xE02A;"
      horiz-adv-x="100" d="M38.7572235 0L38.7572235 45.61443L22.5 45.61443L22.5 63.3915015L38.7572235 63.3915015L38.7572235 76.50143C38.7572235 91.7156551 48.5986845 100 62.972686 100C69.8577355 100 75.7756995 99.51585285 77.5 99.2995975L77.5 83.3999753L67.5309345 83.3955619C59.7133885 83.3955619 58.199893 79.8882535 58.199893 74.7413765L58.199893 63.3915015L76.843747 63.3915015L74.415984 45.61443L58.199893 45.61443L58.199893 0" />
    <glyph glyph-name="filters"
      unicode="&#xE02B;"
      horiz-adv-x="100" d="M45.8535285 15L4.95901555 15C2.2765279 15 0 17.2385765 0 20C0 22.780676 2.2202269 25 4.95901555 25L45.8535285 25C45.300771 23.4361055 45 21.753177 45 20C45 18.246823 45.300771 16.5638945 45.8535285 15L45.8535285 15L45.8535285 15zM74.1464715 15L95.0409845 15C97.779773 15 100 17.219324 100 20C100 22.7614235 97.723472 25 95.0409845 25L74.1464715 25C74.699229 23.4361055 75 21.753177 75 20C75 18.246823 74.699229 16.5638945 74.1464715 15L74.1464715 15L74.1464715 15zM15.85352855 45L4.95901555 45C2.2765279 45 0 47.2385765 0 50C0 52.780676 2.2202269 55 4.95901555 55L15.85352855 55C15.3007711 53.4361055 15 51.753177 15 50C15 48.246823 15.3007711 46.5638945 15.85352855 45L15.85352855 45L15.85352855 45zM44.1464715 45L95.0409845 45C97.779773 45 100 47.219324 100 50C100 52.7614235 97.723472 55 95.0409845 55L44.1464715 55C44.699229 53.4361055 45 51.753177 45 50C45 48.246823 44.699229 46.5638945 44.1464715 45L44.1464715 45L44.1464715 45zM55.8535285 75L4.95901555 75C2.2765279 75 0 77.2385765 0 80C0 82.7806759 2.2202269 85 4.95901555 85L55.8535285 85C55.300771 83.43610535 55 81.7531771 55 80C55 78.246823 55.300771 76.5638945 55.8535285 75L55.8535285 75L55.8535285 75zM84.1464715 75L95.0409845 75C97.779773 75 100 77.219324 100 80C100 82.76142375 97.723472 85 95.0409845 85L84.1464715 85C84.699229 83.43610535 85 81.7531771 85 80C85 78.246823 84.699229 76.5638945 84.1464715 75L84.1464715 75L84.1464715 75zM70 70C75.5228475 70 80 74.4771525 80 80C80 85.5228475 75.5228475 90 70 90C64.4771525 90 60 85.5228475 60 80C60 74.4771525 64.4771525 70 70 70L70 70zM30 40C35.5228475 40 40 44.4771525 40 50C40 55.5228475 35.5228475 60 30 60C24.4771525 60 20 55.5228475 20 50C20 44.4771525 24.4771525 40 30 40L30 40zM60 10C65.5228475 10 70 14.4771525 70 20C70 25.5228475 65.5228475 30 60 30C54.4771525 30 50 25.5228475 50 20C50 14.4771525 54.4771525 10 60 10L60 10z" />
    <glyph glyph-name="form"
      unicode="&#xE02C;"
      horiz-adv-x="100" d="M81.0767325 100L18.92326735 100C11.23066215 99.9864461914 5.01392326735 93.93467065 5 86.4461914L5 13.5538085C5.01392326735 6.0721065 11.23066215 0.0203305 18.92326735 0L81.0767325 0C88.762376 0.0203305 94.979115 6.0721065 95 13.5538085L95 86.4461914C94.979115 93.93467065 88.762376 99.9864461914 81.0767325 100L81.0767325 100zM85.253713 13.5538085C85.246751 11.3513145 83.3392635 9.494443 81.0767325 9.494443L18.92326735 9.494443C16.65377475 9.494443 14.74628715 11.3513145 14.74628715 13.5538085L14.74628715 86.4461914C14.74628715 88.6554622 16.6607364 90.51233395 18.92326735 90.51233395L81.0767325 90.51233395C83.3392635 90.51233395 85.246751 88.6554622 85.253713 86.4461914L85.253713 13.5538085L85.253713 13.5538085zM64.0085 42.87125L54.3425 32.94875L49.4015 37.5425C47.5115 39.30125 44.52125 39.235625 42.719 37.398125C40.91675 35.5671875 40.98425 32.66 42.8675 30.9078125L51.24425 23.118125C52.1555 22.2715625 53.36375 21.8121875 54.626 21.845C55.88825 21.87125 57.0695 22.3896875 57.94025 23.275625L70.8665 36.558125C72.662 38.395625 72.581 41.3028125 70.68425 43.0484375C68.79425 44.7940625 65.804 44.7153125 64.0085 42.87125M31.7705 69.108125L67.24175 69.108125C69.854 69.108125 71.96675 71.1621875 71.96675 73.701875C71.96675 76.235 69.854 78.295625 67.24175 78.295625L31.7705 78.295625C29.15825 78.295625 27.0455 76.235 27.0455 73.701875C27.0455 71.1621875 29.15825 69.108125 31.7705 69.108125M59.07425 55.655C59.07425 58.1946875 56.9615 60.24875 54.34925 60.24875L31.703 60.24875C29.09075 60.24875 26.978 58.1946875 26.978 55.655C26.978 53.1153125 29.09075 51.06125 31.703 51.06125L54.34925 51.06125C56.9615 51.06125 59.07425 53.1153125 59.07425 55.655" />
    <glyph glyph-name="glass"
      unicode="&#xE02D;"
      horiz-adv-x="100" d="M98.5779 18.4113295L80.1019255 36.4146905C83.557677 42.354854 85.550882 49.2030675 85.550882 56.5053065C85.550882 79.1119785 66.680149 97.5 43.486491 97.5C20.2928329 97.5 1.4221 79.1119785 1.4221 56.5053065C1.4221 33.90494 20.2928329 15.5232245 43.486491 15.5232245C52.158227 15.5232245 60.2281185 18.096034 66.932535 22.4975565L84.8519655 5.0365035C86.7416275 3.188873 89.233134 2.261905 91.711697 2.261905C94.196732 2.261905 96.6817665 3.188873 98.5779 5.0365035C102.3701665 8.725458 102.3701665 14.7160685 98.5779 18.4113295L98.5779 18.4113295zM14.3649895 56.5053065C14.3649895 72.1565645 27.424365 84.8881884 43.486491 84.8881884C59.5421455 84.8881884 72.6079925 72.1565645 72.6079925 56.5053065C72.6079925 40.86666 59.5421455 28.135036 43.486491 28.135036C27.424365 28.135036 14.3649895 40.86666 14.3649895 56.5053065L14.3649895 56.5053065z" />
    <glyph glyph-name="fullScreen"
      unicode="&#xE02E;"
      horiz-adv-x="100" d="M86.399 95L13.607 95C6.641 94.9822368421 1.025 89.43421055 1.007 82.56578945L1.007 18.8789475C1.025 12.0105265 6.641 6.4625 13.607 6.444737L86.399 6.444737C93.359 6.4625 98.975 12.0105265 98.993 18.8789475L98.993 82.56578945C98.975 89.43421055 93.359 94.9822368421 86.399 95L86.399 95zM89.393 18.8789475C89.393 18.067763 89.069 17.351316 88.511 16.794737C87.947 16.238158 87.215 15.918421 86.399 15.918421L13.607 15.918421C11.987 15.918421 10.607 17.280263 10.601 18.8789475L10.601 82.56578945C10.607 84.1644737 11.987 85.5263158 13.607 85.5263158L86.399 85.5263158C87.215 85.5263158 87.947 85.20657895 88.511 84.65C89.069 84.09342105 89.393 83.3769737 89.393 82.56578945L89.393 18.8789475L89.393 18.8789475zM20.05461905 53.5526316L29.65461905 53.5526316L29.64861905 66.57894735L42.85461905 66.57894735L42.85461905 76.0526316L20.05461905 76.0526316L20.05461905 53.5526316zM71.354619 33.7171055L58.154619 33.7171055L58.154619 24.243421L80.948619 24.243421L80.948619 46.74342105L71.354619 46.74342105L71.354619 33.7171055z" />
    <glyph glyph-name="google"
      unicode="&#xE02F;"
      horiz-adv-x="100" d="M56.138562275 89.36218335L28.677293775 89.36218335C22.728968775 89.3596703 16.979584175 87.0602131 12.697386925 83.3685163C8.417676475 79.6768195 5.585259125 74.562726 5.585259125 68.930941C5.582772375 63.2488945 7.614453625 58.132288 11.177977825 54.443104C14.739015225 50.7488945 19.831895575 48.4946725 25.872230775 48.4971855C26.357148275 48.4971855 26.819685275 48.5323685 27.269788775 48.5725775C26.715241775 47.22306 26.334767775 45.7604545 26.334767775 44.202352C26.334767775 41.4329515 27.518464275 39.1435465 29.090095775 37.241154C28.075498275 37.2311015 27.063387775 37.2185365 25.994081775 37.2185365C11.396812525 37.205971 0.039788825 27.3497185 7.25e-7 16.7747285C-0.002486025 11.529956 3.217865525 7.285384 8.154080125 4.433052C13.097754975 1.5656415 19.799567725 0.002513 27.058414275 0C35.354238775 0 41.849650775 2.510555 46.278566775 6.3354445C50.704995775 10.1553075 53.052495275 15.2869925 53.052495275 20.448834C53.052495275 24.487334 52.492974775 27.7869925 51.030761275 30.729795C49.571034275 33.6751105 47.230994775 36.2283875 43.774401275 38.831926C42.645413275 39.683856 40.964364775 41.1791315 39.596647775 42.74226C38.910302775 43.521311 38.301047275 44.3229795 37.878298275 45.0542825C37.448089275 45.783072 37.224280775 46.446522 37.229254275 46.886309C37.234227775 48.3137315 37.405814275 49.2385405 38.049884775 50.294029C38.698928275 51.3495175 39.890085275 52.550764 41.956581275 54.2697025C46.298460775 57.873442 49.481510775 62.346703 49.476537275 68.3981705C49.474050775 71.9441095 48.742943775 75.806695 47.288190275 78.85002C46.559570275 80.36791315 45.646930275 81.6897869 44.522915775 82.6472658C44.398577775 82.7553277 44.259319275 82.83825895 44.130007775 82.9362686L48.954318275 82.9362686L56.138562275 89.36218335L56.138562275 89.36218335zM20.963370275 57.720145C18.489046275 60.7383395 16.661279175 64.8924405 16.101758625 69.4260155C15.984880975 70.383494 15.927685575 71.3183555 15.927685575 72.220547C15.927685575 75.9775835 16.917415225 79.184258 18.558675525 81.4208886C20.209882775 83.66003215 22.467859275 84.93918375 25.161017775 84.9442099L25.429587775 84.93918375C31.616641775 84.79091275 37.850943775 77.593486 38.957551275 68.5012065C39.076915775 67.5462405 39.131624275 66.611379 39.131624275 65.7041615C39.134110775 61.9245075 38.141894775 58.652493 36.493174275 56.358062C34.839479775 54.063631 32.576530275 52.739244 29.888344775 52.734218L29.629721775 52.739244C26.541168775 52.8322275 23.440181275 54.694411 20.963370275 57.720145L20.963370275 57.720145zM44.871061775 22.0195015C45.067515775 21.1424405 45.171959275 20.2477885 45.171959275 19.3280055C45.164499275 15.4327505 44.010643275 12.0778045 41.218014275 9.6426415C38.422898275 7.204966 33.884564775 5.65189 27.006192275 5.654403C22.186855275 5.654403 18.071270925 7.277845 15.164250875 9.843687C12.257230775 12.4145555 10.561261825 15.9152595 10.558775075 19.7376355C10.556288325 23.3916365 12.605376925 26.7968435 15.900331225 29.3149375C19.190312025 31.8305185 23.703777775 33.4187775 28.470892775 33.4162645L28.717081775 33.4137515C30.937756775 33.391134 33.001765775 33.0091475 34.876781275 32.368315C37.537612275 30.403096 39.805535775 28.8600725 41.503991275 27.299457C43.227314775 25.711198 44.358789275 24.140531 44.871061775 22.0195015zM85.079451275 84.9215923L85.079451275 100L75.132419275 100L75.132419275 84.9215923L60.211871775 84.9215923L60.211871775 74.8693205L75.132419275 74.8693205L75.132419275 59.7909125L85.079451275 59.7909125L85.079451275 74.8693205L99.999999275 74.8693205L99.999999275 84.9215923L85.079451275 84.9215923z" />
    <glyph glyph-name="grid"
      unicode="&#xE030;"
      horiz-adv-x="100" d="M0 70L0 55L30 55L30 70L0 70L0 70zM40 70L40 55L65 55L65 70L40 70L40 70zM75 70L75 55L100 55L100 70L75 70L75 70zM40 95L40 80L65 80L65 95L40 95L40 95zM75 95L75 80L100 80L100 95L75 95L75 95zM40 45L40 30L65 30L65 45L40 45L40 45zM75 45L75 30L100 30L100 45L75 45L75 45zM40 20L40 5L65 5L65 20L40 20L40 20zM75 20L75 5L100 5L100 20L75 20L75 20zM0 45L0 30L30 30L30 45L0 45L0 45zM0 20L0 5L30 5L30 20L0 20L0 20z" />
    <glyph glyph-name="group"
      unicode="&#xE031;"
      horiz-adv-x="165" d="M114.0403845791921 88.0606188C116.5083335791921 89.56238505 119.3993590791921 90.48654885 122.5583335791921 90.48654885C131.4429485791921 90.4729582 138.6141025791921 83.5553202 138.6282050791921 75.00000945C138.6141025791921 66.43790345 131.4429485791921 59.52706075 122.5583335791921 59.5134701C119.3993590791921 59.5134701 116.5083335791921 60.4308386 114.0333335791921 61.93940015C112.2634615791921 59.16690865 109.9717950791921 56.7681599 107.2500000791921 54.85187905C111.5442310791921 51.81437 116.8397435791921 49.9932235 122.5583335791921 50.00001895C136.8935895791921 50.00001895 148.5000000791921 61.18511935 148.5000000791921 75.00000945C148.5000000791921 88.80810425 136.8935895791921 100 122.5583335791921 100C116.8397435791921 100 111.5442310791921 98.17885364 107.2500000791921 95.14813992C109.9717950791921 93.23185905 112.2634615791921 90.8331103 114.0403845791921 88.0606188M159.8831230791921 28.440393C155.5189090791921 33.2822175 149.4976945791921 36.356279 143.3597895791921 38.5003125C137.2160500791921 40.6017495 130.9964620791921 41.659567 126.1479840791921 41.6666665C125.3894975791921 41.6666665 124.5726660791921 41.6169705 123.7500000791921 41.5672745C127.9391785791921 39.203158 131.8541350791921 36.185892 134.8647425791921 32.153405C135.2731580791921 31.613847 135.6115595791921 30.9961945 135.9791340791921 30.41404C139.4798400791921 29.5834045 143.1380780791921 28.376498 146.3645625791921 26.7862215C149.6843990791921 25.181746 152.5491435791921 23.172602 154.3461725791921 21.13506C156.1723745791921 19.0407225 156.8200050791921 17.3155565 156.8316740791921 15.5477935L156.8316740791921 9.946328L139.7132205791921 9.946328L139.7132205791921 0L160.9158315791921 0C161.9893815791921 0 163.0395930791921 0.5324585 163.8039140791921 1.4624865C164.5624005791921 2.385415 164.9999885791921 3.6633155 164.9999885791921 4.9696145L164.9999885791921 15.5477935C165.0058230791921 20.8155845 162.7595365791921 25.2527405 159.8831230791921 28.440393M42.4416667291921 50.0000189C48.1673077791921 49.9932235 53.455769079192 51.82116525 57.7500000791921 54.85187895C55.0352565791921 56.76815985 52.7365385791921 59.1669086 50.9666665791921 61.93940005C48.4916667291921 60.43083855 45.6006411291921 59.51347005 42.4416667291921 59.51347005C33.5641026291921 59.5270607 26.3858975291921 66.4379034 26.3717949291921 75.00000945C26.3858975291921 83.55532015 33.5641026291921 90.4729582 42.4416667291921 90.48654885C45.6006411291921 90.48654885 48.4916667291921 89.56918035 50.9666665791921 88.0606188C52.7365385791921 90.8331103 55.0352565791921 93.23185905 57.7500000791921 95.148139915C53.455769079192 98.178853635 48.1673077791921 100 42.4416667291921 100C28.1064103291921 100 16.5000000791921 88.80810425 16.5000000791921 75.00000945C16.5000000791921 61.1851193 28.1064103291921 50.0000189 42.4416667291921 50.0000189M8.1694815291921 9.946328L8.1694815291921 15.5477935C8.1811521791921 17.3155565 8.8288744791921 19.0407225 10.6553345791921 21.13506C13.3512596791921 24.2233205 18.4630138291921 27.1056965 23.8665347791921 28.9373545C25.5762881791921 29.5266085 27.3093828791921 29.9951725 29.0191362791921 30.3927415C29.3867624291921 30.989095 29.7310472291921 31.6067475 30.1395207291921 32.153405C32.9988352791921 36.0013065 36.6809321791921 38.933379 40.6314544791921 41.261998C40.829855879192 41.3755895 41.0457633291921 41.453683 41.2500000791921 41.5672745C40.4330530791921 41.6169705 39.6161060791921 41.6666665 38.8575124291921 41.6666665C32.409466379192 41.6453685 23.4638966291921 39.8137105 15.5978639791921 36.015505C11.6765183291921 34.0915545 8.0235981291921 31.6848415 5.1176008791921 28.440393C2.2407803641921 25.2527405 -0.0058239149579 20.8155845 0.000011420808 15.5477935L0.000011420808 4.9696145C0.000011420808 3.6633155 0.4376616046921 2.385415 1.1962552541921 1.455387C1.9606842441921 0.5324585 3.0110446841921 0 4.0847464691921 0L25.2903567291921 0L25.2903567291921 9.9392285L8.1694815291921 9.946328M123.7499520791921 15.5477935C123.7623420791921 20.8155845 121.3772345791921 25.2527405 118.3230580791921 28.440393C113.6891350791921 33.2822175 107.295807579192 36.356279 100.778578579192 38.5003125C94.2489595791921 40.6017495 87.6449995791921 41.659567 82.5030795791921 41.6666665C75.6575110791921 41.6453685 66.1604465791921 39.8137105 57.8156680791921 36.015505C53.646376079192 34.0915545 49.768253279192 31.6848415 46.6831012291921 28.440393C43.622729479192 25.2527405 41.2438170791921 20.8155845 41.2500121291921 15.5477935L41.2500121291921 0L123.7499520791921 0L123.7499520791921 15.5477935L123.7499520791921 15.5477935zM49.9231304291921 9.946328L49.9231304291921 15.5477935C49.9355205791921 17.3155565 50.6231750791921 19.0407225 52.562236579192 21.13506C55.4243655791921 24.2233205 60.8512595791921 27.1056965 66.5879075791921 28.9373545C72.3183605791921 30.8045095 78.4081285791921 31.741637 82.5030795791921 31.7345375C87.9733390791921 31.7558355 96.937626579192 30.0448685 103.9690470791921 26.7862215C107.4878550791921 25.181746 110.5296415791921 23.172602 112.437727579192 21.13506C114.3767890791921 19.0407225 115.0706385791921 17.3155565 115.0768335791921 15.5477935L115.0768335791921 9.946328L49.9231304291921 9.946328L49.9231304291921 9.946328zM57.7500000791921 75C57.7500000791921 63.29845065 65.7353900791921 53.5607502 76.4722750791921 50.82902965C78.4097580791921 50.33976625 80.4077875791921 50 82.5000000791921 50C84.6931230791921 50 86.7853355791921 50.37374285 88.8102745791921 50.91736885C99.4058850791921 53.74422395 107.2500000791921 63.40038055 107.2500000791921 75C107.2500000791921 86.59282415 99.4058850791921 96.2489807 88.8102745791921 99.08263115C86.7853355791921 99.6194618105 84.6931230791921 100 82.5000000791921 100C80.4077875791921 100 78.4097580791921 99.660233759 76.4722750791921 99.17097037C65.7353900791921 96.439249795 57.7500000791921 86.70154935 57.7500000791921 75L57.7500000791921 75zM97.8316800791921 75C97.8182250791921 66.43789075 90.9697610791921 59.5270454 82.5000000791921 59.51345475C74.030239079192 59.5270454 67.1817750791921 66.43789075 67.168320079192 75C67.1817750791921 83.55531395 74.030239079192 90.4729546 82.5000000791921 90.48654525C90.9697610791921 90.4729546 97.8182250791921 83.55531395 97.8316800791921 75L97.8316800791921 75z" />
    <glyph glyph-name="help"
      unicode="&#xE032;"
      horiz-adv-x="100" d="M50.0031785 100C22.3825565 100 0 77.618866 0 50C0 22.3874905 22.3825565 0.0063565 50.0031785 0C77.6174435 0.0063565 100 22.3874905 100 50C100 77.618866 77.6174435 100 50.0031785 100L50.0031785 100zM30.7736315 50C30.7927025 60.621663 39.3808405 69.209255 50.0031785 69.2283245C60.6191595 69.209255 69.2072975 60.621663 69.2263685 50C69.2072975 39.3846935 60.6191595 30.7971015 50.0031785 30.778032C39.3808405 30.7971015 30.7927025 39.3846935 30.7736315 50L30.7736315 50zM68.2474095 89.61352655C67.8850675 89.740656 67.5481535 89.8932113 67.1794545 90.00762775L66.3784885 90.25553015L66.035217 89.4927536L58.877376 73.906687C56.1057785 74.942792 53.137118 75.5847955 50.0031785 75.5847955C46.926451 75.5847955 44.015002 74.9555045 41.281546 73.957539L33.805861 90.25553015L33.004895 90.00762775C32.3628505 89.81057715 31.7462335 89.55631835 31.1296165 89.30841595C36.8444475 92.06076785 43.2267495 93.6435291 50.0031785 93.6498856C56.531689 93.6435291 62.691501 92.17518435 68.2474095 89.61352655L68.2474095 89.61352655zM9.30646495 65.68777L26.183968 59.1723875C25.0842285 56.318332 24.4167565 53.2481565 24.4167565 50C24.4167565 46.6183575 25.109656 43.401983 26.3047485 40.4462245L9.4463162 33.9435545C7.47568495 38.914315 6.35687495 44.317315 6.35687495 50C6.35687495 55.5428425 7.43118685 60.812357 9.30646495 65.68777L9.30646495 65.68777zM33.8757865 9.4711415L34.155489 10.0750065L41.4531815 25.9916095C44.1421395 25.038139 46.9900195 24.421561 50.0031785 24.421561C53.073549 24.421561 55.978641 25.050852 58.7057405 26.042461L66.283135 9.52835C61.24849 7.5006355 55.768864 6.3628275 50.0031785 6.356471C44.2947045 6.3628275 38.8659335 7.481566 33.8757865 9.4711415L33.8757865 9.4711415zM90.5791115 34.007119L73.714322 40.509789C74.896701 43.4464785 75.5832435 46.6437835 75.5832435 50C75.5832435 53.2227305 74.9221285 56.273837 73.8351025 59.108823L90.7189625 65.6242055C92.581527 60.7678615 93.643125 55.5174165 93.649482 50C93.643125 44.342741 92.537029 38.95881 90.5791115 34.007119L90.5791115 34.007119z" />
    <glyph glyph-name="home"
      unicode="&#xE033;"
      horiz-adv-x="100" d="M5 4.9778875C5 2.228676 7.2385442 0 9.98495685 0L29.797758 0C32.5508735 0 34.7990465 2.254876 34.818595 4.95389L34.96412 25.04611C34.983936 27.782068 37.254876 30 39.95389 30L60.04611 30C62.782068 30 65 27.745124 65 25.04611L65 4.95389C65 2.217932 67.254876 0 69.95389 0L90.04611 0C92.782068 0 95 2.224185 95 4.9778875L95 50.0221125C95 52.771324 93.398426 56.601574 91.4689255 58.5310745L53.5310745 96.4689255C51.580916 98.4190841 48.398426 98.3984262 46.4689255 96.4689255L8.5310745 58.5310745C6.5809159 56.580916 5 52.775815 5 50.0221125L5 4.9778875z" />
    <glyph glyph-name="label"
      unicode="&#xE034;"
      horiz-adv-x="100" d="M99.99998725 38.983011C100.00652775 42.242815 98.75080525 45.560032 96.22627975 48.0989795L96.19357875 48.1308755L43.42707825 97.5L41.5892762 97.5L0.00001275 97.48724147L1.68084947 55.3777196L54.04185625 6.365834L54.05493675 6.3785925C56.67102525 3.807749 60.14388225 2.5 63.58403825 2.5C66.93263125 2.5 70.33354625 3.7248185 72.93655425 6.174456L73.00195625 6.2382485L96.03661375 29.675665L96.03007325 29.682044C98.65924225 32.2337495 100.00652775 35.621139 99.99998725 38.983011L99.99998725 38.983011zM89.54217425 35.965619L89.47677225 35.9018265L66.55983875 12.5919955C65.73577125 11.820105 64.68279575 11.437349 63.58403825 11.4309695C62.43295975 11.437349 61.33420275 11.8583805 60.50359425 12.694064L60.45127275 12.745098L10.6867334 59.326484L9.5225741 88.5562718L39.744934 88.56903035L89.65335825 41.879197C90.44472475 41.0754095 90.83713825 40.0547275 90.84367825 38.983011C90.83713825 37.86664 90.40548375 36.788544 89.54217425 35.965619L89.54217425 35.965619zM27.2849676 72.89361785C24.30802355 70.00983015 24.228926 65.26344645 27.11239115 62.28616945C29.9886656 59.3088924 34.73451845 59.229786 37.7114625 62.10638215C40.69559725 64.99016985 40.7675041 69.73655355 37.89122965 72.71383055C35.0077645 75.6911076 30.26191165 75.770214 27.2849676 72.89361785" />
    <glyph glyph-name="like"
      unicode="&#xE035;"
      horiz-adv-x="100" d="M51.103846525 77.9704095C50.684615525 77.089484 50.319231025 75.9883265 50.000000025 74.7094385C49.684615525 75.9883265 49.319231025 77.089484 48.900000025 77.9704095C42.853846025 90.62019515 27.561537025 96.03711615 14.734613425 90.0792758C1.911535725 84.12529915 -3.584618425 69.04524 2.453843475 56.3993185C8.496151525 43.749533 49.992308025 7.5002085 49.992308025 7.5002085C50.011538525 7.496345 91.507695025 43.749533 97.546156525 56.3993185C103.588465025 69.04524 98.096157025 84.12529915 85.269233025 90.0792758C72.446155525 96.03711615 57.142308025 90.62019515 51.103846525 77.9704095z" />
    <glyph glyph-name="linkedin"
      unicode="&#xE036;"
      horiz-adv-x="100" d="M1.2657241 67.473352L22.699865 67.473352L22.699865 0L1.2657241 0L1.2657241 67.473352zM11.984094 76.683163L11.84634575 76.683163C4.65225075 76.683163 0 81.8658908 0 88.34294105C0 94.96138785 4.795197 100 12.12704025 100C19.45888345 100 23.973386 94.96138785 24.111134 88.34294105C24.111134 81.8658908 19.45888345 76.683163 11.984094 76.683163L11.984094 76.683163zM100 0L78.565859 0L78.565859 36.096911C78.565859 45.165325 75.462626 51.356863 67.704543 51.356863C61.78137 51.356863 58.2544965 47.180226 56.7054785 43.150424C56.141491 41.711986 56.0011435 39.697085 56.0011435 37.679465L56.0011435 0L34.564404 0C34.564404 0 34.845098 61.143137 34.564404 67.473352L56.0011435 67.473352L56.0011435 57.912769C58.8470735 62.5108765 63.938559 69.058625 75.31968 69.058625C89.4219775 69.058625 100 59.413748 100 38.688275L100 0L100 0z" />
    <glyph glyph-name="listCollapse"
      unicode="&#xE037;"
      horiz-adv-x="100" d="M91.941483 100L8.05851725 100C3.59533846 99.98140803175 0.01859657825 96.4055528 0 91.9434804L0 83.0565196C0.01859657825 78.5944472 3.59533846 75.01859195 8.05851725 75L91.941483 75C96.4046615 75.01859195 99.9814035 78.5944472 100 83.0565196L100 91.9434804C99.9814035 96.4055528 96.4046615 99.98140803175 91.941483 100L91.941483 100zM8.67840315 91.32374815L91.321597 91.32374815L91.321597 83.67625185L8.67840315 83.67625185L8.67840315 91.32374815zM91.941483 65L8.05851725 65C3.59533846 64.98140805 0.01859657825 61.4055528 0 56.9434804L0 48.0565195C0.01859657825 43.594447 3.59533846 40.018592 8.05851725 40L91.941483 40C96.4046615 40.0123945 99.9814035 43.594447 100 48.0565195L100 56.9434804C99.9814035 61.4055528 96.4046615 64.98140805 91.941483 65L91.941483 65zM8.67840315 56.32374815L91.321597 56.32374815L91.321597 48.676252L8.67840315 48.676252L8.67840315 56.32374815zM91.941483 30L8.05851725 30C3.59533846 29.981408 0.01859657825 26.405553 0 21.9434805L0 13.0565195C0.01859657825 8.594447 3.59533846 5.018592 8.05851725 5L91.941483 5C96.4046615 5.018592 99.9814035 8.594447 100 13.0565195L100 21.9434805C99.9814035 26.405553 96.4046615 29.981408 91.941483 30L91.941483 30zM8.67840315 21.323748L91.321597 21.323748L91.321597 13.676252L8.67840315 13.676252L8.67840315 21.323748z" />
    <glyph glyph-name="listExpand"
      unicode="&#xE038;"
      horiz-adv-x="100" d="M95.92989 26.555362L89.0749985 26.555362L89.0749985 55.6035218C89.0749985 58.0278655 87.2536225 60 85.0016335 60C82.7496445 60 80.928268 58.0278655 80.928268 55.6035218L80.928268 26.555362L74.0733765 26.555362C72.4556685 26.555362 70.983438 25.5127685 70.337519 23.9111945C69.6915995 22.3033395 69.9883735 20.4379765 71.094001 19.1567175L82.1270015 6.40065C82.8951215 5.502512 83.983292 4.993777 85.118015 5.0000575C86.2527385 5.006338 87.3409085 5.527635 88.109029 6.4257725L98.932542 19.188121C100.0207125 20.46938 100.305848 22.334743 99.6541095 23.923756C99.00819 25.5190495 97.5359595 26.555362 95.92989 26.555362M91.941483 100L8.05851725 100C3.601537315 99.98140803175 0.01859657825 96.4055528 0 91.9434804L0 83.0565196C0.01859657825 78.5944472 3.601537315 75.01859195 8.05851725 75L91.941483 75C96.4046615 75.01859195 99.9876025 78.5944472 100 83.0565196L100 91.9434804C99.9876025 96.4055528 96.4046615 99.98140803175 91.941483 100L91.941483 100zM8.67840315 91.32374815L91.321597 91.32374815L91.321597 83.67625185L8.67840315 83.67625185L8.67840315 91.32374815zM4.399515205 37.0535205C1.969479945 37.0535205 0 35.013694 0 32.4905855C0 29.9737535 1.969479945 27.9339265 4.399515205 27.9339265C6.82955045 27.9339265 8.80509035 29.9737535 8.80509035 32.4905855C8.80509035 35.013694 6.82955045 37.0535205 4.399515205 37.0535205zM4.399515205 14.1195935C1.969479945 14.1195935 0 12.079767 0 9.562935C0 7.046103 1.969479945 5 4.399515205 5C6.82955045 5 8.80509035 7.046103 8.80509035 9.562935C8.80509035 12.079767 6.82955045 14.1195935 4.399515205 14.1195935zM4.399515205 60C1.969479945 60 0 57.96017345 0 55.4433413C0 52.9202328 1.969479945 50.88040625 4.399515205 50.88040625C6.82955045 50.88040625 8.80509035 52.9202328 8.80509035 55.4433413C8.80509035 57.96017345 6.82955045 60 4.399515205 60zM50.758043 14.138423L18.79186865 14.138423C16.44667255 14.138423 14.54991185 12.173913 14.54991185 9.7449505C14.54991185 7.322264 16.44667255 5.351478 18.79186865 5.351478L50.758043 5.351478C53.1032395 5.351478 55 7.322264 55 9.7449505C55 12.173913 53.1032395 14.138423 50.758043 14.138423zM50.758043 37.047244L18.79186865 37.047244C16.44667255 37.047244 14.54991185 35.082734 14.54991185 32.6537715C14.54991185 30.231085 16.44667255 28.260299 18.79186865 28.260299L50.758043 28.260299C53.1032395 28.260299 55 30.231085 55 32.6537715C55 35.082734 53.1032395 37.047244 50.758043 37.047244zM50.758043 59.95606525L18.79186865 59.95606525C16.44667255 59.95606525 14.54991185 57.9915554 14.54991185 55.5625927C14.54991185 53.1399064 16.44667255 51.16912015 18.79186865 51.16912015L50.758043 51.16912015C53.1032395 51.16912015 55 53.1399064 55 55.5625927C55 57.9915554 53.1032395 59.95606525 50.758043 59.95606525z" />
    <glyph glyph-name="live"
      unicode="&#xE039;"
      horiz-adv-x="100" d="M50.0033745 95C22.386448 95 0.0067490045 72.4158334 0 44.5465905C0 29.181729 6.8299926 15.383321 17.56090975 6.1480585C19.5451171 4.4385815 22.5281771 4.676955 24.22217725 6.6792905C25.91617735 8.681626 25.6799622 11.6919405 23.7025039 13.4014175L23.6957549 13.4014175C14.96929205 20.9272025 9.45535535 32.0626405 9.45535535 44.5465905C9.45535535 55.8591057 13.98393735 66.0614825 21.3268543 73.4782972C28.6832692 80.89511185 38.793278 85.4650684 50.0033745 85.4650684C61.213471 85.4650684 71.32348 80.89511185 78.6731455 73.4782972C86.0228115 66.0614825 90.5513935 55.8591057 90.5513935 44.5465905C90.5513935 32.0626405 85.030708 20.920392 76.304245 13.4014175C74.320038 11.6919405 74.0838225 8.681626 75.777823 6.67248C77.471823 4.670144 80.454883 4.431771 82.43909 6.141248C93.1767565 15.383321 100 29.181729 100 44.5465905C100 72.4158334 77.613552 95 50.0033745 95M50 75C33.42857145 74.9927373 20 61.34610275 20 44.4966125C20 38.345096 21.8 32.585766 24.89285715 27.7923765C26.40714285 25.439258 29.50714285 24.785614 31.8142857 26.325309C34.12857145 27.8650035 34.77142855 31.0170205 33.25714285 33.362876C31.2 36.5657315 30 40.36413 30 44.4966125C30.02142855 55.7247642 38.95714285 64.81041605 50 64.83220415C61.042857 64.81041605 69.9785715 55.7247642 70 44.4966125C70 40.1970875 68.7 36.253435 66.4785715 32.9706895C64.907143 30.6611475 65.4857145 27.4946055 67.757143 25.896809C70.0285715 24.306275 73.142857 24.887292 74.7142855 27.196834C78.042857 32.106427 80 38.090901 80 44.4966125C80 61.34610275 66.5714285 74.9927373 50 75M49.99616125 55C44.4760077 55 40 50.5299539 40 45C40 39.4777265 44.4760077 35 49.99616125 35C55.5239925 35 60 39.4777265 60 45C60 50.5299539 55.5239925 55 49.99616125 55zM58.6854685 23.128672L41.31453125 23.128672C36.68796875 23.128672 32.90796875 19.281172 32.90796875 14.571992L32.90796875 13.5566795C32.90796875 8.8541795 36.68796875 5 41.31453125 5L58.6854685 5C63.3054685 5 67.092031 8.8541795 67.092031 13.5566795L67.092031 14.571992C67.092031 19.281172 63.3054685 23.128672 58.6854685 23.128672" />
    <glyph glyph-name="lock"
      unicode="&#xE03A;"
      horiz-adv-x="100" d="M76.3896639875 67.2154412L72.0810084875 67.2154412L72.0810084875 77.9757353C72.0605879875 89.80808825 62.1772269875 99.42352941 49.9999999375 99.443382355C37.8227730375 99.42352941 27.9394117375 89.80808825 27.9189915375 77.9757353L37.4484032875 77.9757353C37.4484032875 81.3242647 38.8505881875 84.35514705 41.1444537375 86.5852941C43.4383192875 88.8154412 46.5489915375 90.1720588 49.9999999375 90.17867645C53.4442016375 90.1720588 56.5616806375 88.8154412 58.8555461875 86.5852941C61.1494114875 84.35514705 62.5515964875 81.3242647 62.5515964875 77.9757353L62.5515964875 67.2154412L23.6103360875 67.2154412C17.2120167375 67.19558825 12.0525209575 62.17941175 12.0389075125 55.95882355L12.0389075125 13.0632355C12.0525209575 6.8492645 17.2120167375 1.833088 23.6103360875 1.819853L76.3896639875 1.819853C82.7879829875 1.833088 87.9474789875 6.8492645 87.9610924875 13.0632355L87.9610924875 55.95882355C87.9474789875 62.17941175 82.7879829875 67.19558825 76.3896639875 67.2154412L76.3896639875 67.2154412zM78.4316804875 13.0632355C78.4316804875 12.004412 77.4855459875 11.084559 76.3896639875 11.084559L23.6103360875 11.084559C22.5144537375 11.084559 21.5683192875 12.004412 21.5683192875 13.0632355L21.5683192875 55.95882355C21.5683192875 57.0242647 22.5144537375 57.94411765 23.6103360875 57.9507353L76.3896639875 57.9507353C77.4855459875 57.94411765 78.4316804875 57.0242647 78.4316804875 55.95882355L78.4316804875 13.0632355L78.4316804875 13.0632355zM49.9999999375 42.4588235C45.4871427875 42.452206 41.8319327375 38.905147 41.8319327375 34.5110295C41.8319327375 30.1235295 45.4871427875 26.5764705 49.9999999375 26.5764705C54.5128570875 26.5764705 58.1612604375 30.1235295 58.1680671875 34.5110295C58.1612604375 38.905147 54.5128570875 42.452206 49.9999999375 42.4588235L49.9999999375 42.4588235zM49.9999999375 34.517647L49.9999999375 35.834559L49.9999999375 34.517647L49.9999999375 34.517647z" />
    <glyph glyph-name="locked"
      unicode="&#xE03B;"
      horiz-adv-x="100" d="M79.99 60L70 60L70 80C70 91.045 61.045 100 50 100C38.955 100 30 91.045 30 80L30 60L20.01 60C17.245 60 15 57.72 15 54.99L15 5.01C15 2.245 17.28 0 20.01 0L79.99 0C82.755 0 85 2.28 85 5.01L85 54.99C85 57.755 82.72 60 79.99 60L79.99 60zM55 26.34L55 15L45 15L45 26.34C42.01 28.065 40 31.3 40 35C40 40.525 44.475 45 50 45C55.525 45 60 40.525 60 35C60 31.3 57.99 28.065 55 26.34L55 26.34zM60 60L40 60L40 80C40 85.525 44.475 90 50 90C55.525 90 60 85.525 60 80L60 60L60 60z" />
    <glyph glyph-name="mail"
      unicode="&#xE03C;"
      horiz-adv-x="100" d="M100 85L0 85L49.738037 40L100 85L100 85zM0 78.507647L0 13.507647L100 13.507647L100 78.053869L49.9885915 32.955618L0 78.507647z" />
    <glyph glyph-name="meetingList"
      unicode="&#xE03D;"
      horiz-adv-x="100" d="M27.4525 21.075L99.5575 21.075L99.5575 9.25L27.4525 9.25L27.4525 21.075zM27.4525 56.61L99.5575 56.61L99.5575 44.785L27.4525 44.785L27.4525 56.61zM27.4525 92.15L99.5575 92.15L99.5575 80.325L27.4525 80.325L27.4525 92.15zM0.4425 16.361664C1.3796906 19.6334445 4.40535595 22.03 7.9925 22.03C12.3275 22.03 15.8375 18.53 15.8375 14.215C15.8375 9.895 12.3275 6.395 7.9925 6.395C4.40535595 6.395 1.3796906 8.7915555 0.4425 12.066169L0.4425 16.361664L0.4425 16.361664zM0.4425 52.843831C1.3796906 56.1184445 4.40535595 58.515 7.9925 58.515C12.3275 58.515 15.8375 55.015 15.8375 50.695C15.8375 46.38 12.3275 42.88 7.9925 42.88C4.40535595 42.88 1.3796906 45.2765555 0.4425 48.548336L0.4425 52.843831L0.4425 52.843831zM0.4425 89.3288308C1.3796906 92.6034446 4.40535595 95 7.9925 95C12.3275 95 15.8375 91.5 15.8375 87.18C15.8375 82.865 12.3275 79.365 7.9925 79.365C4.40535595 79.365 1.3796906 81.7615554 0.4425 85.0333362L0.4425 89.3288308L0.4425 89.3288308z" />
    <glyph glyph-name="menu"
      unicode="&#xE03E;"
      horiz-adv-x="100" d="M87.602281 65L12.3977188 65C5.54797915 64.98143565 0.0123977188 59.46163365 0 52.6237624L0 17.3700495C0.0123977188 10.5383665 5.54797915 5.012376 12.3977188 5L87.602281 5C94.445822 5.012376 99.9814035 10.5383665 100 17.3700495L100 52.6237624C99.9814035 59.46163365 94.445822 64.98143565 87.602281 65L87.602281 65zM91.321597 17.3700495C91.315398 15.358911 89.6169105 13.6633665 87.602281 13.6633665L12.3977188 13.6633665C10.37689065 13.6633665 8.67840315 15.358911 8.67840315 17.3700495L8.67840315 52.6237624C8.67840315 54.634901 10.37689065 56.33044555 12.3977188 56.33663365L87.602281 56.33663365C89.6169105 56.33044555 91.315398 54.634901 91.321597 52.6237624L91.321597 17.3700495L91.321597 17.3700495zM14.3223217 70L85.6776785 70C88.0673045 70 90 72.2357143 90 75C90 77.75714285 88.0673045 80 85.6776785 80L14.3223217 80C11.9326953 80 10 77.75714285 10 75C10 72.2357143 11.9326953 70 14.3223217 70M29.25675675 85L65.743243 85C68.0966215 85 70 87.2357143 70 90C70 92.757142855 68.0966215 95 65.743243 95L29.25675675 95C26.9033784 95 25 92.757142855 25 90C25 87.2357143 26.9033784 85 29.25675675 85" />
    <glyph glyph-name="message"
      unicode="&#xE03F;"
      horiz-adv-x="100" d="M34.9764706 64.59223855C31.0764706 64.58633985 27.91764705 61.4246405 27.91764705 57.5138072C27.91764705 53.60297385 31.0764706 50.4353758 34.9764706 50.4353758C38.8764706 50.4353758 42.02941175 53.60297385 42.0352941 57.5138072C42.02941175 61.4246405 38.8764706 64.58633985 34.9764706 64.59223855L34.9764706 64.59223855zM34.9764706 57.5138072L34.9764706 58.69354575L34.9764706 57.5138072L36.1529412 57.5138072L34.9764706 57.5138072zM63.9 64.59223855C60 64.58633985 56.8411765 61.4246405 56.8411765 57.5138072C56.8411765 53.60297385 60 50.4353758 63.9 50.4353758C67.7941175 50.4353758 70.952941 53.60297385 70.9588235 57.5138072C70.952941 61.4246405 67.7941175 64.58633985 63.9 64.59223855zM100 80.5929312C99.9876025 87.19432315 94.5512025 92.49385917 87.88123 92.5L12.16216215 92.5C5.50458715 92.49385917 0.0123977188 87.2311681 0 80.5929312L0 34.911299C0.0123977188 28.273062 5.50458715 23.010371 12.16216215 22.9980895L76.6550955 22.9980895L99.9256135 2.5L100 80.5867904L95.6607985 80.5929312L100 80.5929312L100 80.5929312zM79.9590875 31.595251L12.16216215 31.595251C10.17852715 31.601392 8.68460205 33.1365995 8.67840315 34.911299L8.67840315 80.5929312C8.68460205 82.367631 10.17852715 83.90283845 12.16216215 83.90897925L87.88123 83.90897925C89.852467 83.8966976 91.321597 82.39833515 91.321597 80.5929312L91.265807 21.640966L79.9590875 31.595251L79.9590875 31.595251z" />
    <glyph glyph-name="messageSettings"
      unicode="&#xE040;"
      horiz-adv-x="100" d="M90 95L10 95C4.49 95 0 90.415 0 85L0 40C0 32.92 4.485 28.32 10 30L20 30L20 15.045C20 12.215 21.75 11.4 23.905 13.125L45 30C45 46.57 58.43 60 75 60C85.435 60 94.625 54.67 100 46.59L100 85C100 90.4 95.515 95 90 95M100 35.075C99.34 38.345 98.055 41.385 96.275 44.07C95.37 43.25 94.17 42.755 92.855 42.755C90.035 42.755 87.755 45.035 87.755 47.855C87.755 49.17 88.25 50.37 89.07 51.275C86.385 53.055 83.345 54.34 80.075 55C79.825 52.42 77.645 50.405 75 50.405C72.355 50.405 70.175 52.42 69.925 55C66.655 54.34 63.615 53.055 60.93 51.275C61.75 50.37 62.25 49.17 62.25 47.855C62.25 45.035 59.965 42.755 57.145 42.755C55.83 42.755 54.63 43.25 53.725 44.07C51.945 41.385 50.66 38.345 50 35.075C52.58 34.825 54.595 32.645 54.595 30C54.595 27.355 52.58 25.175 50 24.925C50.66 21.655 51.945 18.615 53.725 15.93C54.63 16.75 55.83 17.245 57.145 17.245C59.965 17.245 62.25 14.965 62.25 12.145C62.25 10.83 61.75 9.63 60.93 8.725C63.615 6.945 66.655 5.66 69.925 5C70.175 7.58 72.355 9.595 75 9.595C77.645 9.595 79.825 7.58 80.075 5C83.345 5.66 86.385 6.945 89.07 8.725C88.25 9.63 87.755 10.83 87.755 12.145C87.755 14.965 90.035 17.245 92.855 17.245C94.17 17.245 95.37 16.75 96.275 15.93C98.055 18.615 99.34 21.655 100 24.925C97.42 25.175 95.405 27.355 95.405 30C95.405 32.645 97.42 34.825 100 35.075L100 35.075zM75 17.245C67.955 17.245 62.25 22.955 62.25 30C62.25 37.045 67.955 42.755 75 42.755C82.045 42.755 87.755 37.045 87.755 30C87.755 22.955 82.045 17.245 75 17.245L75 17.245z" />
    <glyph glyph-name="minus"
      unicode="&#xE041;"
      horiz-adv-x="100" d="M9.9539757 40C4.4910619 40 0 44.4771525 0 50C0 55.561352 4.4565467 60 9.9539757 60L90.0460245 60C95.508938 60 100 55.5228475 100 50C100 44.438648 95.5434535 40 90.0460245 40L9.9539757 40z" />
    <glyph glyph-name="more"
      unicode="&#xE042;"
      horiz-adv-x="100" d="M57.5 50C57.5 45.777364 54.1413045 42.3527065 50 42.3527065C45.8586955 42.3527065 42.5 45.777364 42.5 50C42.5 54.222636 45.8586955 57.6472935 50 57.6472935C54.1413045 57.6472935 57.5 54.222636 57.5 50zM57.5 7.6472935C57.5 3.4246575 54.1413045 0 50 0C45.8586955 0 42.5 3.4246575 42.5 7.6472935C42.5 11.8699295 45.8586955 15.294587 50 15.294587C54.1413045 15.294587 57.5 11.8699295 57.5 7.6472935zM57.5 92.3527065C57.5 88.1300705 54.1413045 84.70541295 50 84.70541295C45.8586955 84.70541295 42.5 88.1300705 42.5 92.3527065C42.5 96.57534245 45.8586955 100 50 100C54.1413045 100 57.5 96.57534245 57.5 92.3527065z" />
    <glyph glyph-name="openIssue--dashed"
      unicode="&#xE043;"
      horiz-adv-x="100" d="M50.094859 72.4702555C46.193503 72.478588 42.851925 71.4245215 40.296601 69.253895L40.292328 69.258061C40.215412 69.1997335 39.1898635 68.437306 38.151496 66.9791115C37.1174015 65.5292495 36.066215 63.346124 36.066215 60.554723L36.074761 60.1964235L36.113219 58.8840485L43.864654 58.8840485L44.7620085 58.7590605L44.7919205 58.8840485L45.0654 58.8840485L45.0654 60.0672695C45.458527 61.787939 46.12086 62.9253305 46.962664 63.6169315C47.864292 64.350195 48.924025 64.7251595 50.385431 64.733492C51.9365725 64.7251595 52.962121 64.3543615 53.7141895 63.700257L53.7184625 63.700257C54.5218085 62.979492 54.816654 62.3212215 54.8337465 61.404642C54.8252 60.7672025 54.6500025 60.250585 54.2269635 59.6881385C54.1457745 59.5881485 53.7825595 59.2215165 53.227054 58.7423955C52.6630025 58.2507755 51.8852955 57.60917 50.9067515 56.8342435C48.851382 55.1968995 47.4070685 53.7012085 46.590903 52.168021C45.800376 50.6598315 45.4499805 48.8433375 45.4499805 46.75187C45.4499805 46.5393905 45.458527 46.0186065 45.4756195 45.1520225L45.501258 43.822982L54.4278 43.822982L54.4021615 45.2020175L54.3978885 45.626977C54.385069 47.106003 54.5816325 48.105908 54.7354645 48.3808815C54.8850235 48.722516 55.6755505 49.634929 57.038675 50.7223255C59.854659 53.013774 61.7220115 54.80527 62.7390135 56.3551225C63.709011 57.8466475 64.221785 59.504823 64.221785 61.21716C64.2346045 64.2502045 62.833022 66.9957765 60.3033365 69.1580705C57.705281 71.4036905 54.2184175 72.478588 50.094859 72.4702555M49.9666655 37.494418C48.6590915 37.5027505 47.428434 37.031962 46.513987 36.1487125C45.582447 35.277962 45.0782195 34.0822425 45.0910385 32.8156965C45.0782195 31.4449935 45.582447 30.1784475 46.599449 29.3326945C47.5309885 28.532771 48.714642 28.103645 49.9666655 28.1119775C51.1930505 28.103645 52.3596115 28.5452695 53.2783315 29.353526C54.278241 30.203445 54.778196 31.4616585 54.7653765 32.8156965C54.7739225 34.0780765 54.2867875 35.2654635 53.37234 36.14038C52.4792585 37.0277955 51.257147 37.5069165 49.9666655 37.494418M49.91 2.725C47.01 2.725 44.09 2.995 41.24 3.535L42.155 8.445C44.73 7.965 47.32 7.785 49.985 7.725C54.755 7.725 59.435 8.51 63.89 10.055L65.53 5.33C60.515 3.595 55.265 2.715 49.91 2.725L49.91 2.725zM25.985 9.23C21.42 11.91 17.355 15.31 13.905 19.335L17.7 22.585C20.79 18.985 24.43 15.945 28.52 13.535L25.985 9.23L25.985 9.23zM79.77 13.22L76.635 17.115C80.33 20.095 83.485 23.64 86.005 27.655L90.245 24.995C87.425 20.51 83.9 16.55 79.77 13.22L79.77 13.22zM5.585 33.325C3.705 38.27 2.67 43.47 2.51 48.785L7.51 48.935C7.65 44.175 8.575 39.525 10.26 35.105L5.585 33.325L5.585 33.325zM96.395 40.06L91.515 41.125C92.165 44.09 92.49 47.15 92.49 50.225C92.49 51.91 92.39 53.575 92.2 55.21L97.165 55.8C97.38 53.97 97.49 52.11 97.49 50.225C97.49 46.795 97.125 43.37 96.395 40.06L96.395 40.06zM9.555 63.35L4.8 64.895C6.435 69.93 8.885 74.63 12.09 78.865L16.08 75.845C13.21 72.06 11.015 67.855 9.555 63.35L9.555 63.35zM88.045 69.165C85.935 73.41 83.14 77.245 79.745 80.565L83.24 84.14C87.035 80.425 90.155 76.135 92.52 71.4L88.045 69.165L88.045 69.165zM26.72 85.795L23.98 89.98C28.425 92.89 33.285 95.02 38.415 96.305L39.63 91.455C35.04 90.305 30.7 88.4 26.72 85.795L26.72 85.795zM67.765 88.84C63.46 90.82 58.885 92.06 54.16 92.52L54.645 97.5C59.925 96.985 65.045 95.6 69.855 93.38L67.765 88.84L67.765 88.84z" />
    <glyph glyph-name="openIssue"
      unicode="&#xE044;"
      horiz-adv-x="100" d="M50 100C22.42916665 100 0 77.57083335 0 50C0 22.4291665 22.42916665 0 50 0C77.5708335 0 100 22.4291665 100 50C100 77.57083335 77.5708335 100 50 100L50 100zM50 10.4166665C28.1375 10.4166665 10.41666665 28.1375 10.41666665 50C10.41666665 71.8625 28.1375 89.58333335 50 89.58333335C71.8625 89.58333335 89.5833335 71.8625 89.5833335 50C89.5833335 28.1375 71.8625 10.4166665 50 10.4166665L50 10.4166665zM49.7476923 37.374359C48.4923077 37.382564 47.31076925 36.9189745 46.4328205 36.049231C45.53846155 35.191795 45.05435895 34.014359 45.06666665 32.7671795C45.05435895 31.417436 45.53846155 30.1702565 46.5148718 29.337436C47.40923075 28.5497435 48.54564105 28.1271795 49.7476923 28.1353845C50.925128 28.1271795 52.045128 28.5620515 52.9271795 29.3579485C53.8871795 30.194872 54.3671795 31.433846 54.354872 32.7671795C54.363077 34.0102565 53.8953845 35.179487 53.017436 36.0410255C52.16 36.914872 50.9866665 37.3866665 49.7476923 37.374359M49.87076925 71.8153846C46.1251282 71.82358975 42.9169231 70.78564105 40.46358975 68.64820515L40.4594872 68.6523077C40.38564105 68.5948718 39.40102565 67.84410255 38.40410255 66.40820515C37.41128205 64.9805128 36.4020513 62.83076925 36.4020513 60.0820513L36.4102564 59.72923075L36.4471795 58.4369231L43.88923075 58.4369231L44.75076925 58.31384615L44.7794872 58.4369231L45.0420513 58.4369231L45.0420513 59.6020513C45.4194872 61.29641025 46.0553846 62.41641025 46.86358975 63.0974359C47.72923075 63.8194872 48.74666665 64.18871795 50.1497435 64.1969231C51.6389745 64.18871795 52.6235895 63.82358975 53.345641 63.1794872L53.3497435 63.1794872C54.1210255 62.4697436 54.4041025 61.82153845 54.420513 60.91897435C54.4123075 60.29128205 54.2441025 59.7825641 53.8379485 59.22871795C53.76 59.1302564 53.411282 58.76923075 52.8779485 58.2974359C52.3364105 57.81333335 51.5897435 57.18153845 50.6502565 56.41846155C48.6769231 54.80615385 47.2902564 53.33333335 46.50666665 51.82358975C45.7476923 50.33846155 45.41128205 48.5497435 45.41128205 46.4902565C45.41128205 46.2810255 45.4194872 45.768205 45.43589745 44.914872L45.4605128 43.606154L54.030769 43.606154L54.006154 44.9641025L54.0020515 45.382564C53.9897435 46.8389745 54.1784615 47.8235895 54.326154 48.094359C54.4697435 48.430769 55.228718 49.329231 56.537436 50.4C59.2410255 52.65641025 61.033846 54.4205128 62.0102565 55.94666665C62.9415385 57.4153846 63.433846 59.04820515 63.433846 60.73435895C63.446154 63.72102565 62.100513 66.4246154 59.671795 68.55384615C57.177436 70.7651282 53.8297435 71.82358975 49.87076925 71.8153846" />
    <glyph glyph-name="paragraph"
      unicode="&#xE045;"
      horiz-adv-x="100" d="M75 85L80 85L80 95L50 95L43.225943 95C30.398609 95 20 86.12270355 20 75C20 63.954305 30.4791445 55 43.225943 55L45 55L45 5L55 5L55 70L55 85L65 85L65 5L75 5L75 85L75 85z" />
    <glyph glyph-name="pause"
      unicode="&#xE046;"
      horiz-adv-x="100" d="M5.54096775 100C2.48077575 100 0 97.52807615 0 94.481124L0 5.518876C0 2.470885 2.4775423 0 5.54096775 0L38.2090325 0C41.269224 0 43.75 2.471924 43.75 5.518876L43.75 94.481124C43.75 97.52911505 41.2724575 100 38.2090325 100L5.54096775 100L5.54096775 100zM61.7909675 100C58.730776 100 56.25 97.52807615 56.25 94.481124L56.25 5.518876C56.25 2.470885 58.7275425 0 61.7909675 0L94.4590325 0C97.519224 0 100 2.471924 100 5.518876L100 94.481124C100 97.52911505 97.5224575 100 94.4590325 100L61.7909675 100L61.7909675 100z" />
    <glyph glyph-name="pellet"
      unicode="&#xE047;"
      horiz-adv-x="100" d="M0 50C0 22.3857625084603 22.3857625084603 0 50 0C77.6142374915397 0 100 22.3857625084603 100 50C100 77.6142374915397 77.6142374915397 100 50 100C22.3857625084603 100 0 77.6142374915397 0 50z" />
    <glyph glyph-name="pelletCheck"
      unicode="&#xE048;"
      horiz-adv-x="100" d="M50 100C22.385 100 0 77.615 0 50C0 22.385 22.385 0 50 0C77.615 0 100 22.385 100 50C100 77.615 77.615 100 50 100L50 100zM77.705 56.12L50 27.38C46.94 24.205 41.98 24.205 38.92 27.38L22.295 44.625C19.235 47.8 19.235 52.95 22.295 56.12C25.355 59.295 30.315 59.295 33.375 56.12L44.46 44.625L66.625 67.62C69.685 70.795 74.645 70.795 77.705 67.62C80.765 64.445 80.765 59.295 77.705 56.12L77.705 56.12z" />
    <glyph glyph-name="pelletClose"
      unicode="&#xE049;"
      horiz-adv-x="100" d="M50 0C77.6142375 0 100 22.3857625 100 50C100 77.6142375 77.6142375 100 50 100C22.3857625 100 0 77.6142375 0 50C0 22.3857625 22.3857625 0 50 0L50 0zM37.2525515 28.76727C34.9348335 26.449552 31.1299425 26.443651 28.7867965 28.7867965C26.427315 31.1462785 26.4349085 34.92019 28.76727 37.2525515L41.5147185 50L28.76727 62.7474485C26.449552 65.0651665 26.443651 68.8700575 28.7867965 71.2132035C31.1462785 73.572685 34.92019 73.5650915 37.2525515 71.23273L50 58.4852815L62.7474485 71.23273C65.0651665 73.550448 68.8700575 73.556349 71.2132035 71.2132035C73.572685 68.8537215 73.5650915 65.07981 71.23273 62.7474485L58.4852815 50L71.23273 37.2525515C73.550448 34.9348335 73.556349 31.1299425 71.2132035 28.7867965C68.8537215 26.427315 65.07981 26.4349085 62.7474485 28.76727L50 41.5147185L37.2525515 28.76727L37.2525515 28.76727z" />
    <glyph glyph-name="pelletMinus"
      unicode="&#xE04A;"
      horiz-adv-x="100" d="M50 0C77.6142375 0 100 22.3857625 100 50C100 77.6142375 77.6142375 100 50 100C22.3857625 100 0 77.6142375 0 50C0 22.3857625 22.3857625 0 50 0L50 0zM25.9723855 45C22.694637 45 20 47.2385765 20 50C20 52.780676 22.673928 55 25.9723855 55L74.0276145 55C77.305363 55 80 52.7614235 80 50C80 47.219324 77.326072 45 74.0276145 45L25.9723855 45L25.9723855 45z" />
    <glyph glyph-name="pencil"
      unicode="&#xE04B;"
      horiz-adv-x="100" d="M61.65384975 84.2105263L5.67456275 28.3863065L1.77678625 2.500369L28.06627775 6.056619L84.04556425 61.8808385L61.65384975 84.2105263L61.65384975 84.2105263zM75.83149925 100L64.63564175 88.8351561L87.02735675 66.5054685L98.22321375 77.670312L75.83149925 100L75.83149925 100z" />
    <glyph glyph-name="phone"
      unicode="&#xE04C;"
      horiz-adv-x="100" d="M0.830862975 80C0.830862975 78.273502 1.049627975 76.5980995 1.460950375 75C9.242651525 38.5848375 37.915700525 9.9117885 74.330863025 2.108969C75.928962525 1.718765 77.604365025 1.5 79.330863025 1.5C89.510796025 1.5 97.914337025 9.105637 99.169137025 18.944563L76.775426025 41.338274C69.298697525 40.384735 63.111621525 35.3030275 60.571721025 28.450675C47.125965025 36.507336 35.838199025 47.795102 27.781538025 61.240858C34.633890525 63.7807585 39.715598025 69.9678345 40.669137025 77.444563L18.275425925 99.8382741C8.436500275 98.5834738 0.830862975 90.17993275 0.830862975 80z" />
    <glyph glyph-name="picture"
      unicode="&#xE04D;"
      horiz-adv-x="100" d="M40 70C34.475 70 30 65.525 30 60C30 54.475 34.475 50 40 50C45.525 50 50 54.475 50 60C50 65.525 45.525 70 40 70M20 48.295L20 30L38.295 30C35.28 38.525 28.525 45.28 20 48.295M50 30L80 30L80 60C63.43 60 50 46.57 50 30M95.04 90L4.96 90C2.22 90 0 87.775 0 84.995L0 15.005C0 12.24 2.275 10 4.96 10L95.04 10C97.78 10 100 12.225 100 15.005L100 84.995C100 87.76 97.725 90 95.04 90L95.04 90zM90 25.01C90 22.28 87.76 20 84.995 20L15.005 20C12.225 20 10 22.245 10 25.01L10 74.985C10 77.72 12.24 80 15.005 80L84.995 80C87.775 80 90 77.755 90 74.985L90 25.01L90 25.01z" />
    <glyph glyph-name="play"
      unicode="&#xE04E;"
      horiz-adv-x="100" d="M39.836162 96.32085625C35.9903855 100.0256694 30.3448615 101.03430965 25.4950155 98.8812507C20.645169 96.74758865 17.500347 91.840166 17.500347 86.4284232L17.500347 13.573563C17.500347 8.220011 20.6072795 3.3319855 25.381347 1.1595295C30.174359 -1.0129265 35.781994 -0.081874 39.66566 3.5259545L78.161314 39.313286C80.8893525 41.8542835 82.461764 45.462112 82.499653 49.244513C82.5375425 53.026914 81.0219655 56.6735365 78.3318165 59.2533275L39.836162 96.32085625z" />
    <glyph glyph-name="plus"
      unicode="&#xE04F;"
      horiz-adv-x="100" d="M9.9539757 40C4.4910619 40 0 44.4771525 0 50C0 55.561352 4.4565467 60 9.9539757 60L40 60L40 90.0460243C40 95.5089381 44.4771525 100 50 100C55.561352 100 60 95.5434533 60 90.0460243L60 60L90.0460245 60C95.508938 60 100 55.5228475 100 50C100 44.438648 95.5434535 40 90.0460245 40L60 40L60 9.9539755C60 4.491062 55.5228475 0 50 0C44.438648 0 40 4.4565465 40 9.9539755L40 40L9.9539757 40z" />
    <glyph glyph-name="popup"
      unicode="&#xE050;"
      horiz-adv-x="100" d="M86.577181 100L13.4295302 100C6.0134228 99.9797488862 0.0201342282 93.95166735 0 86.49925745L0 39.2129065C0.0201342282 31.7537465 6.0134228 25.7324155 13.4295302 25.712164L45.5100671 25.712164L45.5100671 9.45052L34.33557045 9.45052C31.73825505 9.45052 29.6375839 7.3376535 29.6375839 4.72526C29.6375839 2.1196165 31.73825505 0 34.33557045 0L66.080537 0C68.6778525 0 70.7785235 2.1196165 70.7785235 4.72526C70.7785235 7.3376535 68.6778525 9.45052 66.080537 9.45052L54.9060405 9.45052L54.9060405 25.712164L86.577181 25.712164C93.9932885 25.7324155 99.986577 31.7537465 100 39.2129065L100 86.49925745C99.986577 93.95166735 93.9932885 99.9797488862 86.577181 100L86.577181 100zM86.577181 35.162684L13.4295302 35.162684C11.24161075 35.1694345 9.40268455 37.019036 9.39597315 39.2129065L9.39597315 77.59551775L90.604027 77.59551775L90.604027 39.2129065C90.604027 37.019036 88.7651005 35.1694345 86.577181 35.162684L86.577181 35.162684zM70.2702705 62.5L29.72972975 62.5C27.1216216 62.5 25 60.2642857 25 57.5C25 54.7357143 27.1216216 52.5 29.72972975 52.5L70.2702705 52.5C72.885135 52.5 75 54.7357143 75 57.5C75 60.2642857 72.885135 62.5 70.2702705 62.5" />
    </font>
</defs>
</svg>
