<?xml version="1.0" standalone="no"?>
<!DOCTYPE svg PUBLIC "-//W3C//DTD SVG 1.1//EN" "http://www.w3.org/Graphics/SVG/1.1/DTD/svg11.dtd" >
<svg xmlns="http://www.w3.org/2000/svg">
<defs>
  <font id="icons" horiz-adv-x="89">
    <font-face font-family="icons"
      units-per-em="1000" ascent="1000"
      descent="0" />
    <missing-glyph horiz-adv-x="0" />
    <glyph glyph-name="action-item"
      unicode="&#xE001;"
      horiz-adv-x="1000" d="M500 1000C224.291665 1000 0 775.708335 0 500C0 224.291665 224.291665 0 500 0C775.708335 0 1000 224.291665 1000 500C1000 775.708335 775.708335 1000 500 1000L500 1000zM500 104.166665C281.375 104.166665 104.1666665 281.3750000000001 104.1666665 500C104.1666665 718.625 281.375 895.8333335 500 895.8333335C718.6249999999999 895.8333335 895.833335 718.625 895.833335 500C895.833335 281.3750000000001 718.6249999999999 104.166665 500 104.166665zM500 300C610.45695 300 700 389.54305 700 500C700 610.45695 610.45695 700 500 700C389.54305 700 300 610.45695 300 500C300 389.54305 389.54305 300 500 300z" />
    <glyph glyph-name="agenda"
      unicode="&#xE002;"
      horiz-adv-x="1050" d="M112.7103155 709.803325L937.289685 709.803325L937.289685 62.29724L112.7103155 62.29724L112.7103155 709.803325zM777.8584099999999 886.050284L777.8584099999999 1000L718.00785 1000L718.00785 772.0498785L625.116915 772.0498785L625.116915 886.050284L331.5325485 886.050284L331.5325485 1000L271.681987 1000L271.681987 772.0498785L178.791055 772.0498785L178.791055 886.050284L50 886.050284L50 0L1000 0L1000 886.050284L777.8584099999999 886.050284L777.8584099999999 886.050284zM781.645805 150L723.27284 150L723.27284 222.900205L561.7209 222.900205L561.7209 150L503.2978725 150L503.2978725 222.900205L341.7459325 222.900205L341.7459325 150L283.3229035 150L283.3229035 222.900205L225 222.900205L225 282.134795L283.3229035 282.134795L283.3229035 481.327615L225 481.327615L225 540.6130049999999L283.3229035 540.6130049999999L283.3229035 600L341.7459325 600L341.7459325 540.6130049999999L503.2978725 540.6130049999999L503.2978725 600L561.7209 600L561.7209 540.6130049999999L723.27284 540.6130049999999L723.27284 600L781.645805 600L781.645805 540.6130049999999L825 540.6130049999999L825 481.327615L781.645805 481.327615L781.645805 282.134795L825 282.134795L825 222.900205L781.645805 222.900205L781.645805 150L781.645805 150zM561.7209 282.134795L723.27284 282.134795L723.27284 481.327615L561.7209 481.327615L561.7209 282.134795zM341.7459325 282.134795L503.2978725 282.134795L503.2978725 481.327615L341.7459325 481.327615L341.7459325 282.134795z" />
    <glyph glyph-name="alert"
      unicode="&#xE003;"
      horiz-adv-x="1000" d="M0 500L500 0L1000 500L500 1000L0 500zM550.03662 449.85L449.5117200000001 449.85L449.5117200000001 704.016115L550.03662 704.016115L550.03662 449.85zM444.732665 300.3125000000001C444.858245 327.2500000000001 472.492425 353.91089 500.119505 353.97339C527.6838 353.91089 555.0367 327.125 555.0994850000001 300.3125000000001C555.0994850000001 273 527.74659 242.713865 500.119505 242.6513650000001C472.492425 242.713865 444.7954550000001 272.875 444.732665 300.3125000000001z" />
    <glyph glyph-name="arrow-back"
      unicode="&#xE004;"
      horiz-adv-x="1000" d="M351.358 507.02682L800 924.3225585L729.37081 1000L239.935795 544.21677L200 507.0268150000001L239.28722 469.1538449999999L725.9601849999999 0L797.886525 74.44841L351.358 507.02682z" />
    <glyph glyph-name="arrow-next"
      unicode="&#xE005;"
      horiz-adv-x="1000" d="M759.551695 468.0958000000001L800 507.027935L758.89825 545.2446600000001L269.8128950000001 1000L200 922.2329615L648.0680749999999 507.02793L202.10663 76.53068L273.226415 0L759.551695 468.0958000000001z" />
    <glyph glyph-name="badge"
      unicode="&#xE006;"
      horiz-adv-x="1000" d="M660.1257195 295.030355C642.373523 288.70254 625.0757345000001 280.95483 608.565586 277.744625L606.2329595 277.281615L600.083308 276.0777850000001L600.689185 142.2677249999999L553.91548 199.495835C546.9176004999999 208.076965 536.5268100000001 213.04661 525.560436 213.04661C519.8348985 213.0774749999999 514.2608299999999 211.7810450000001 509.2320510000001 209.219055L508.3232355 208.756045L507.565889 208.046095L498.8109664999999 200.082315L498.4171465 199.711905L449.6440475 141.5577750000001L449.0381705 273.0836499999999L441.3132385 275.05916C423.6519235 279.8436050000001 406.384429 285.92448 389.601636 293.240045L385.5725540000001 294.96862L375 299.5369900000001L376.060285 38.584215C376.0905785 22.78012 385.8451985 8.67373 400.4468345 3.3028099999999C404.50621 1.79031 408.777643 1.04949 413.0187820000001 1.04949C423.773099 1.04949 434.1941835 5.8647999999999 441.3435325 14.4767999999999L525.4089670000001 116.616935L609.5955769999999 13.550775C616.7752195 4.784445 627.256892 0 638.0112085000001 0C642.3432295 0 646.5237805 0.7716849999999 650.461981 2.160715L650.674038 2.22245L651.0981519999999 2.407655L651.1890335 2.4385199999999L653.764011 3.54975L653.91548 3.611485L654.2790065 3.796685C666.8509545000001 10.062765 675 23.15053 675 37.7199299999999L673.970009 300L660.1257195 295.030355M500.0143505 1000C320.487261 1000 175 854.4904625 175 675C175 495.509535 320.487261 350 500.0143505 350C679.51274 350 825 495.509535 825 675C825 854.4904625 679.51274 1000 500.0143505 1000L500.0143505 1000zM319.8271295 494.849435C273.64662 541.0279055000001 245.0887535 604.6847405 245.060052 675C245.0887535 745.2865595000001 273.64662 808.9720945 319.8271295 855.150565C366.0363405 901.3290355 429.695986 929.914341 500.0143505 929.914341C570.304014 929.914341 633.9636595 901.3290355 680.17287 855.150565C726.35338 808.9720945 754.911245 745.2865595000001 754.911245 675C754.911245 604.6847405 726.35338 541.0279055000001 680.17287 494.820735C633.992361 448.642265 570.304014 420.08566 500.0143505 420.08566C429.695986 420.08566 366.0363405 448.642265 319.8271295 494.849435L319.8271295 494.849435zM525.0326585 700C497.4036575 700 475 677.6216925 475 649.9836655C475.0326585 622.3783075 497.4036575 600 525.0326585 600C552.6290005 600 574.9673415 622.3783075 575 649.9836655C574.9673415 677.589023 552.6290005 700 525.0326585 700" />
    <glyph glyph-name="board"
      unicode="&#xE007;"
      horiz-adv-x="1000" d="M25.0318115 910.552916L975 910.552916L974.999985 1000L25.0318115 999.9999995L25.0318115 910.552916zM452.44503 476.491055L539.394825 578.892235L623.835845 484.1201699999999L775.6963049999999 737.5252849999999L716.343065 775.670875L612.8797900000001 603.062075L538.12456 686.94949L454.699755 588.6917100000001L367.90874 699.872955L225.098935 489.67759L282.22921 448.04628L371.7830550000001 579.81299L452.44503 476.491055zM25 236.0723800000001L474.992195 236.0723800000001L474.9922749999999 131.6022900000001C449.428145 122.36185 431.0092650000001 97.468565 431.0092650000001 67.83996C431.0092650000001 30.352055 460.320685 0 496.523305 0C532.694165 0 562.005585 30.352055 562.03734 67.83996C562.005585 98.0933600000001 542.761035 123.4141400000001 516.339475 132.1613199999999L516.339395 236.0723800000001L969.9836100000002 236.0723800000001L969.983605 327.7967050000001L25.0000625 321.31963L25.000077 244.0331349999999L25 236.0723800000001z" />
    <glyph glyph-name="bullet-day"
      unicode="&#xE008;"
      horiz-adv-x="1000" d="M1000 500C1000 776.1423749999999 776.142375 1000 500 1000C223.8576250000001 1000 0 776.1423749999999 0 500C0 223.857625 223.8576250000001 0 500 0C776.142375 0 1000 223.857625 1000 500zM300 500C300 610.45695 389.54305 700 500 700C610.45695 700 700 610.45695 700 500C700 389.54305 610.45695 300 500 300C389.54305 300 300 389.54305 300 500z" />
    <glyph glyph-name="bullet-item"
      unicode="&#xE009;"
      horiz-adv-x="1000" d="M0 500C0 223.8576250846032 223.8576250846032 0 500 0C776.1423749153968 0 1000 223.8576250846032 1000 500C1000 776.1423749153968 776.1423749153968 1000 500 1000C223.8576250846032 1000 0 776.1423749153968 0 500z" />
    <glyph glyph-name="check"
      unicode="&#xE00A;"
      horiz-adv-x="1000" d="M0 466.2719049999999L71.833349 542.51332L340.659305 272.334525L927.39463 875L1000 799.540155L376.5829550000001 161.7517700000001L340.65931 125L0 466.2719049999999z" />
    <glyph glyph-name="checked"
      unicode="&#xE00B;"
      horiz-adv-x="1000" d="M420.5442512500001 341.5261750000001L461.51461625 298.3487200000002L502.03260125 341.9553649999999L998.76904625 876.557715L916.87770125 953.4381755L461.51461625 461.09618L259.11379125 674.84523L178.0284427500001 597.106395L420.5442512500001 341.5261750000001zM534.97108125 916.1383625L535.3407112499999 916.0538875C557.68255625 912.083545 578.9565912500001 927.5002995 582.81713125 950.477599C586.67767125 973.4548985 571.68728125 995.334018 549.3454312499999 999.3043605L548.85259625 999.3888355C526.51075125 1003.31694 505.2777862499999 987.900186 501.41724625 964.9228865C497.59777625 941.903349 512.58816625 920.066467 534.97108125 916.1383625zM258.5728762500001 865.199717L258.90143625 865.4109055C278.5326912500001 877.1529815 285.1859612500001 903.0024435 273.8096862500001 923.149818C262.39234625 943.3394305 237.25777125 950.181935 217.66758625 938.482097L217.21582125 938.228671C197.6256367500001 926.486595 190.9723662500001 900.637133 202.38970625 880.4897585C213.8070462500001 860.300146 238.9416262500002 853.4576415 258.5728762500001 865.199717zM78.48281475 643.536355L78.60602325 643.916495C86.32710225 665.88009 75.32045775 690.082285 54.00535075 698.02297C32.69024425 706.0058899999999 9.11631125 694.68619 1.39523175 672.722595L1.23095375 672.2579800000001C-6.49012525 650.336625 4.55758875 626.092195 25.87269575 618.19375C47.22887175 610.2530650000001 70.76173525 621.615 78.48281475 643.536355zM968.44670125 490.32492C976.1677812500002 512.288515 965.16113625 536.49071 943.84603125 544.431395C922.53092625 552.414315 898.95699125 541.094615 891.2359112499998 519.13102L891.07163125 518.6664049999999C883.35055625 496.74505 894.39826625 472.5006199999999 915.71337625 464.6021749999999C937.06955125 456.66149 960.60241625 468.023425 968.32349625 489.944785L968.44670125 490.32492zM79.01671875 354.672845L78.89351025 355.09522C71.09029175 377.0165799999999 47.51635875 388.2940400000001 26.20125225 380.2688800000001C4.92721475 372.28596 -6.07942975 348.0415300000001 1.72378875 326.1201700000002L1.88806675 325.655555C9.69128525 303.7342000000001 33.26521825 292.498975 54.58032475 300.524135C75.85436225 308.5492950000001 86.81993725 332.793725 79.01671875 354.672845zM259.9281762500001 133.7275249999999L259.5996162500001 133.938715C239.9683612500001 145.596315 214.83378625 138.7115700000001 203.4985862500001 118.4797200000001C192.1223142500001 98.2901099999999 198.85772125 72.482885 218.48897625 60.783045L218.89967625 60.52962C238.5719962500001 48.8720199999999 263.6655062500002 55.799 275.0007062500001 76.0308500000001C286.3359062500001 96.22046 279.6004962500001 122.0699249999999 259.9281762500001 133.7275249999999zM536.5727962499999 83.9292950000001L536.1621012500001 83.84482C513.82025625 79.83224 498.87093125 57.95312 502.7725412500001 34.97582C506.67415125 11.998525 527.98925625 -3.375995 550.33110125 0.636585L550.78286625 0.7210600000001C573.12471125 4.77588 588.07403625 26.6550000000001 584.13135625 49.6323C580.18868125 72.6096 558.9146412499999 87.9841150000001 536.5727962499999 83.9292950000001zM779.29395625 228.21322C764.71425625 210.38892 766.97308125 183.73694 784.30444125 168.700325C801.67687125 153.70595 827.59176625 155.986785 842.17146625 173.8533249999999L842.50002125 174.233465C857.07972125 192.0999999999999 854.8208912499999 218.75198 837.44846625 233.74636C820.07603625 248.740735 794.16113625 246.4176650000001 779.58144125 228.5511250000001L779.29395625 228.21322z" />
    <glyph glyph-name="clock"
      unicode="&#xE00C;"
      horiz-adv-x="1050" d="M525 1000C249.27157 999.97171145685 25.02828854315 775.7567185 25 500C25.02828854315 224.2432799999999 249.27157 0.02829 525 0C800.7567200000001 0.02829 1024.97171 224.2432799999999 1025 500C1024.97171 775.7567185 800.7567200000001 999.97171145685 525.02829 1000M535.63649 907.18529C644.0099 904.384724 741.803395 859.7736915 813.3168300000001 788.288543C887.12164 714.4554455 932.72277 612.644979 932.72277 500C932.72277 387.3550200000001 887.12164 285.544555 813.3168300000001 211.68317C739.455445 137.8783600000001 637.673265 92.27723 525 92.27723C412.355021 92.27723 310.5445545 137.8783600000001 236.711457 211.68317C162.8783595 285.544555 117.2772275 387.3550200000001 117.2772275 500C117.2772275 612.644979 162.8783595 714.4554455 236.711457 788.288543C310.0353605 861.612447 410.997171 906.98727 522.7369165 907.609618M383.0102135000001 521.170886L383.0102135000001 521.170886L383.241914 520.886076L383.3743145000001 520.727848L383.4074145000001 520.6962025L476.484774 412.78481L476.5178739999999 412.7215200000001L476.584074 412.65823L476.6502745 412.5632900000001C482.7406845 405.56962 491.9756005 400.601265 502.666919 400.0316450000001L503.0972195000001 400L503.5937205 400L504.6529224999999 400C513.920938 400.0632900000001 522.593153 403.386075 529.180065 409.018985L529.246265 409.0822800000001L529.544165 409.335445L529.610365 409.398735L529.775865 409.525315L544.70399 423.322785L544.83639 423.4493650000001L544.96879 423.5759500000001L545.06809 423.670885L545.13429 423.734175L545.2666899999999 423.8607600000001L546.358995 425.41139L546.7230950000001 425.664555L547.120295 426.20253L714.01078 588.0696204999999L714.0438800000001 588.1012659999999L714.11008 588.1962025L714.11008 588.1645570000001C714.11008 588.1962025 714.14318 588.1962025 714.14318 588.227848L715.069985 589.3037975L714.970685 589.398734C720.630795 595.4113924999999 723.7091 602.6265825 724.4703999999999 609.6835444999999L724.8344999999999 610.3481015L724.8675999999999 610.506329L724.9338 611.329114L724.9669 611.7088610000001L725 612.120253L725 613.7974685L724.9669 613.7974685C724.9338 622.5316455 721.4582949999999 630.9177215 715.467185 637.5L715.599585 637.563291L715.566485 637.5949364999999L714.904485 638.386076C708.41687 645.1265825 699.181955 649.398734 689.0533399999999 649.9050635000001C688.98714 649.9050635000001 688.95404 649.9683545 688.88784 649.9683545L688.424435 650L687.365235 650C681.936825 650 676.144315 648.9240505 670.616605 646.3607595000001L669.722905 645.886076L668.862305 645.3481015L668.0348 644.778481L663.433895 641.107595L662.04369 640.6962025L499.7872140000001 512.9113925L436.168905 568.6708860000001L436.135805 568.7025315L436.0365045 568.765823L435.9703045 568.8291139999999C429.0523924999999 574.841772 420.2808774999999 577.8481015 411.5424625 577.8481015L411.3769625 577.8481015L409.390959 577.6265825L409.424059 577.5C402.0096465 577.056962 394.6614335 574.3670885 388.405523 569.3670885C388.2400225 569.272152 388.0414225 569.3670885 387.842822 569.272152L387.6111215 569.113924L387.0153204999999 568.544304C386.9491205 568.4810125 386.8829205 568.4810125 386.8498205 568.4177215L386.8829205 568.386076L386.1878190000001 567.6898735L385.459618 567.0886075000001L385.4265180000001 567.120253C385.393418 567.056962 385.360318 566.993671 385.3272175 566.9620255L384.6983165000001 566.392405L384.5328165 566.170886L384.400416 565.6329115000001C378.7072065000001 559.4303795000001 375.0331 551.613924 375 543.1329115L375 542.8481015C375.0331 534.9367090000001 377.9128050000001 527.3101265 382.9771135 521.234177L383.0102135000001 521.170886" />
    <glyph glyph-name="cross"
      unicode="&#xE00D;"
      horiz-adv-x="1000" d="M500 572.856315L927.17009 1000L1000 927.1127745L572.86082 500L1000 72.8872250000001L927.17009 0L500 427.143685L72.829908 0L0 72.8872250000001L427.13918 500L0 927.1127745L72.829908 1000L500 572.856315z" />
    <glyph glyph-name="decision"
      unicode="&#xE00E;"
      horiz-adv-x="1000" d="M499.999999885 1045.00000477C224.291666885 1045.00000477 1.15e-7 820.7083379999999 1.15e-7 545.000005C1.15e-7 269.29167 224.291666885 45.000005 499.999999885 45.000005C775.708334885 45.000005 999.999999885 269.29167 999.999999885 545.000005C999.999999885 820.7083379999999 775.708334885 1045.00000477 499.999999885 1045.00000477L499.999999885 1045.00000477zM499.999999885 149.16667C281.374999885 149.16667 104.166666885 326.375005 104.166666885 545.000005C104.166666885 763.625005 281.374999885 940.833338 499.999999885 940.833338C718.624999885 940.833338 895.833334885 763.625005 895.833334885 545.000005C895.833334885 326.375005 718.624999885 149.16667 499.999999885 149.16667L499.999999885 149.16667zM300.483351385 542.398005L457.072738385 374.216005L701.2424998849999 631.983005L632.9397798849999 695.000005L457.6543913850001 509.926005L369.326178385 604.800005L300.483351385 542.398005" />
    <glyph glyph-name="due-date"
      unicode="&#xE00F;"
      horiz-adv-x="1000" d="M867.0973774999999 387.8230950000001L999.9999925 519.768255L902.9707575 519.8563750000001C898.2210774999999 628.244095 854.6478975 735.48625 771.5727025 818.201649C683.3938075 905.9986395 567.5133475 950.058688 451.9869025 949.9999415C336.4309525000001 950.058688 220.5504975 905.9986395 132.4011025 818.201649C44.222209 730.43403 -0.029494 615.0554500000001 0.0000075 499.9999799999999C-0.029494 384.9738800000001 44.192708 269.565925 132.4011025 181.798305C220.5504975 94.0013150000001 336.4309525000001 49.9706400000001 451.9869025 50.000015C567.5133475 49.9706400000001 683.3938075 94.0013150000001 771.5727025 181.798305L719.4146924999999 233.730415C645.4553475 160.1207649999999 548.8981325 123.4628 451.9869025 123.4334300000001C355.0461725 123.4628 258.4889575 160.1207649999999 184.529609 233.730415C110.629265 307.369445 73.811848 403.5084700000001 73.7528455 499.9999799999999C73.811848 596.491485 110.629265 692.659885 184.529609 766.26954C258.4889575 839.879193 355.0461725 876.5371534999999 451.9869025 876.5665270000001C548.8686325 876.5371534999999 645.4553475 839.879193 719.4146924999999 766.26954C788.2408425 697.741475 824.4682375000001 609.62138 829.2179175 519.91512L734.3422674999999 520.00324L867.0973774999999 387.8230950000001zM339.6760775 525.49606L339.8825875 525.2317L412.0718675 438.0515499999999L412.1308675 437.992805C415.7890075 433.61617 421.2762225 430.5613400000001 427.6779675 430.20886L428.0319825 430.1794900000001L428.8875125 430.1794900000001C434.2862225000001 430.20886 439.6259275000001 432.3237450000001 443.4905775 435.7898L443.7265825 435.995415L443.7855875000001 436.0541599999999L455.3795325 447.21604L455.5270374999999 447.362905L455.6155424999999 447.421655L455.7040474999999 447.539145L455.9400525 448.0972400000001L456.0580575000001 448.0384949999999L456.7070825 448.97844L586.3645725 579.95428L586.3940725 579.95428L586.3940725 579.983655L586.4235775 579.983655L586.4235775 580.013025C590.3177274999999 583.949055 592.2648025 588.913155 592.7368175 593.84788L592.9138275 593.99475L592.9138275 594.1709900000001L593.0023275000001 594.8172050000001L593.0023275000001 595.9333899999999C593.0023275000001 601.77869 590.7897425 607.418375 586.8955925 611.61877L586.8660924999999 611.64814C582.9424425 615.8779049999999 577.2782224999999 618.639 571.0829875000001 618.87399L570.4044575 618.903365C567.0118274999999 618.903365 563.4716925 618.2277750000001 560.1675675 616.6122399999999L559.5185425 616.2010150000001L555.9194024999999 613.2049300000001L554.8278574999999 612.8524500000001L424.8458575 506.256505L371.3602975 555.045665L371.3307975 555.07504C367.1711375 558.864205 361.9199375 560.714725 356.7277375 560.714725C351.5945375000001 560.714725 346.2843325 558.776085 342.0066675000001 554.84005L342.0066675000001 554.8987999999999L341.8001625 554.75193L341.7411575 554.66381L341.5936525 554.428825L341.3576425 554.28196L341.2396375 554.22321L341.1216375000001 554.04697L341.1806375000001 554.0175999999999C337.2569875 550.0228199999999 334.9263975000001 544.676865 334.9263975000001 539.0665549999999C334.9263975000001 534.102455 336.6669625 529.2852250000001 339.6760775 525.49606z" />
    <glyph glyph-name="evernote"
      unicode="&#xE010;"
      horiz-adv-x="1000" d="M161.04645825 806.3163175L161.10950175 806.3163175L256.45709625 806.3163175C261.92084125 806.3163175 266.31460125 810.696195 266.32685625 816.0327165C266.32685625 816.06719 265.16756625 896.5028395 265.16756625 918.8710685L265.16756625 919.1365155C265.16756625 937.5058015 269.08500125 953.523984 275.90942625 966.9445765L279.17016125 972.9722945C278.80591125 972.911966 278.43991125 972.73615 278.0774112500001 972.379348L92.81444775 791.55125C92.45194925 791.2565050000001 92.22604475 790.877295 92.12097275 790.486015C95.95434975 792.352765 101.19218925 794.903815 101.93294675 795.2226949999999C118.06500225 802.3897685 137.62941025 806.3163175 161.04645825 806.3163175L161.04645825 806.3163175zM902.97566625 826.005944C895.4017262499999 865.9143675 871.2964562499999 885.5798625 849.5027662499999 893.312303C825.98940625 901.6773345 778.31123125 910.342287 718.40617625 917.2921755C670.21139625 922.8786305 613.56532625 922.4339205 579.34862625 921.392816C575.24206125 949.0786065 555.51304125 974.3702015 533.4374162499998 983.1282325C474.62160625 1006.428974 383.74482625 1000.8011505 360.41358625 994.363196C341.87188125 989.262819 321.35131625 978.8104075 309.92999125 962.7025935C302.27024125 951.943367 297.31434625 938.159077 297.27581625 918.902095C297.27581625 908.0032495 297.58403125 882.330721 297.86597125 859.519505C298.14616625 836.635895 298.45087625 816.170611 298.45087625 816.0327165C298.44036625 795.6605099999999 281.66562125 779.08213 260.8771262500001 779.0545549999999L165.51376975 779.0545549999999C145.17182925 779.0545549999999 129.62992825 775.689925 117.75854225 770.380985C105.86789375 765.06687 97.44637225 757.903245 91.04748675 749.427895C78.30925725 732.5978600000001 76.09924275 711.82921 76.15177875 690.6330849999999C76.15177875 690.6330849999999 76.33915725 673.31352 80.57881275 639.7930650000001C84.10397825 613.853365 112.68006225 432.6564 139.82541525 377.548545C150.35012775 356.1076549999999 157.36018225 347.1772550000001 178.03660175 337.7280300000001C224.10542125 318.3141900000001 329.33328625 296.7164500000001 378.6523362500001 290.5318749999999C427.8820762500001 284.3317900000002 458.7802512499999 271.2990250000001 477.19412125 309.301055C477.25541125 309.394135 480.88389625 318.755455 485.8713162499999 332.48631C501.85802125 380.16854 504.08379625 422.47633 504.08379625 453.09238C504.08379625 456.2036300000001 508.7244762499998 456.3466950000001 508.7244762499998 453.09238C508.7244762499998 431.4774 504.53035125 354.988985 563.23233125 334.46682C586.4059662500001 326.37758 634.4781612500001 319.1656900000001 683.3243862499999 313.53097C727.4914012499999 308.5340150000001 759.54361625 291.4281900000001 759.54361625 179.8955850000001C759.54361625 112.037645 745.06469625 102.73493 669.3655662499998 102.73493C608.0035162499998 102.73493 584.6179912499999 101.1715499999999 584.6179912499999 149.155425C584.6179912499999 187.93656 623.58569625 183.8703949999999 652.4664862499999 183.8703949999999C665.36582625 183.8703949999999 656.0039112499999 193.3161750000001 656.0039112499999 217.242615C656.0039112499999 241.0415000000001 671.1255262499999 254.8016600000001 656.8217212499999 255.1498400000001C556.95603125 257.8543 498.1945112499999 255.2618799999999 498.1945112499999 132.3271150000001C498.1945112499999 20.7238350000001 541.58574625 0 683.3243862499999 0C794.45554625 0 833.6298912499999 3.583535 879.5165862499998 143.7223800000001C888.60006125 171.387485 910.55836125 255.815185 923.84822125 397.57084C932.24697625 487.2023349999999 915.92403625 757.72743 902.97566625 826.005944L902.97566625 826.005944zM709.2526512500001 526.990105C695.5232462499998 527.4623899999999 682.3174462500001 526.60917 670.00300625 524.66141C673.46863125 552.2110250000001 685.02129625 586.01589 725.9468462499999 584.600745C771.2503912500001 583.0666699999999 777.59849125 540.920905 777.7596012500001 512.373275C758.65751125 520.755545 735.00930625 526.09896 709.2526512500001 526.990105L709.2526512500001 526.990105z" />
    <glyph glyph-name="facebook"
      unicode="&#xE011;"
      horiz-adv-x="1000" d="M387.5722350000001 0L387.5722350000001 456.1443L225 456.1443L225 633.915015L387.5722350000001 633.915015L387.5722350000001 765.0143C387.5722350000001 917.156551 485.986845 1000 629.7268600000001 1000C698.5773549999999 1000 757.7569950000001 995.1585285 775 992.995975L775 833.9997529999999L675.309345 833.955619C597.1338850000001 833.955619 581.99893 798.882535 581.99893 747.413765L581.99893 633.915015L768.43747 633.915015L744.15984 456.1443L581.99893 456.1443L581.99893 0" />
    <glyph glyph-name="glass"
      unicode="&#xE012;"
      horiz-adv-x="1050" d="M1010.7789999999998 169.56896L826.0192550000002 358.60425C860.5767700000002 420.9759650000001 880.5088200000001 492.88221 880.5088200000001 569.555715C880.5088200000001 806.9257765 691.8014900000002 1000 459.8649100000001 1000C227.9283290000001 1000 39.2210000000001 806.9257765 39.2210000000001 569.555715C39.2210000000001 332.25187 227.9283290000001 139.2438600000001 459.8649100000001 139.2438600000001C546.5822700000001 139.2438600000001 627.281185 166.2583599999999 694.3253500000002 212.4743450000001L873.5196550000001 29.133285C892.4162750000002 9.7331649999999 917.33134 0 942.1169700000002 0C966.96732 0 991.8176650000001 9.7331649999999 1010.7789999999998 29.133285C1048.701665 67.86731 1048.701665 130.76872 1010.7789999999998 169.56896L1010.7789999999998 169.56896zM164.2210000000001 574.9333349999999C164.2210000000001 740.4 298.7543350000002 875 464.2210000000001 875C629.6210000000001 875 764.2210000000001 740.4 764.2210000000001 574.9333349999999C764.2210000000001 409.6 629.6210000000001 275 464.2210000000001 275C298.7543350000002 275 164.2210000000001 409.6 164.2210000000001 574.9333349999999L164.2210000000001 574.9333349999999z" />
    <glyph glyph-name="google"
      unicode="&#xE013;"
      horiz-adv-x="1000" d="M561.38562275 893.6218335000001L286.77293775 893.6218335000001C227.28968775 893.5967029999999 169.79584175 870.602131 126.97386925 833.685163C84.17676475 796.768195 55.85259125 745.62726 55.85259125 689.3094100000001C55.82772375 632.488945 76.14453625 581.3228799999999 111.77977825 544.4310399999999C147.39015225 507.4889449999999 198.31895575 484.946725 258.72230775 484.971855C263.57148275 484.971855 268.19685275 485.323685 272.69788775 485.725775C267.15241775 472.2306 263.34767775 457.604545 263.34767775 442.0235200000001C263.34767775 414.329515 275.1846427500001 391.435465 290.90095775 372.4115400000001C280.75498275 372.311015 270.63387775 372.1853650000001 259.94081775 372.1853650000001C113.96812525 372.0597100000001 0.39788825 273.4971850000001 0.00000725 167.7472849999999C-0.02486025 115.2995600000001 32.17865525 72.85384 81.54080125 44.33052C130.97754975 15.6564149999999 197.9956772500001 0.02513 270.58414275 0C353.54238775 0 418.49650775 25.10555 462.78566775 63.3544450000001C507.04995775 101.553075 530.52495275 152.8699250000001 530.52495275 204.48834C530.52495275 244.87334 524.92974775 277.8699250000001 510.30761275 307.29795C495.7103427499999 336.751105 472.3099477499999 362.283875 437.74401275 388.3192599999999C426.45413275 396.8385599999999 409.64364775 411.791315 395.9664777500001 427.4226000000001C389.1030277500001 435.2131099999999 383.01047275 443.2297950000001 378.7829827500001 450.542825C374.48089275 457.8307199999999 372.24280775 464.4652199999999 372.29254275 468.8630899999999C372.3422777500001 483.1373149999999 374.05814275 492.3854049999999 380.49884775 502.94029C386.98928275 513.495175 398.90085275 525.50764 419.56581275 542.6970249999999C462.98460775 578.73442 494.81510775 623.46703 494.7653727500001 683.9817049999999C494.74050775 719.441095 487.42943775 758.06695 472.88190275 788.5002C465.59570275 803.6791315 456.4693027500001 816.897869 445.22915775 826.4726579999999C443.98577775 827.553277 442.59319275 828.3825895 441.30007775 829.3626859999999L489.54318275 829.3626859999999L561.38562275 893.6218335000001L561.38562275 893.6218335000001zM209.63370275 577.20145C184.89046275 607.3833950000001 166.61279175 648.924405 161.01758625 694.2601549999999C159.8488097500001 703.83494 159.27685575 713.1835550000001 159.27685575 722.20547C159.27685575 759.775835 169.17415225 791.84258 185.58675525 814.208886C202.09882775 836.6003215000001 224.67859275 849.3918375 251.61017775 849.442099L254.29587775 849.3918375C316.16641775 847.9091275000001 378.50943775 775.9348600000001 389.57551275 685.012065C390.7691577500001 675.462405 391.3162427500001 666.11379 391.3162427500001 657.041615C391.34110775 619.245075 381.41894775 586.52493 364.93174275 563.58062C348.39479775 540.63631 325.76530275 527.3924400000001 298.8834477500001 527.3421800000001L296.2972177500001 527.3924400000001C265.41168775 528.322275 234.40181275 546.94411 209.63370275 577.20145L209.63370275 577.20145zM448.71061775 220.195015C450.67515775 211.424405 451.71959275 202.477885 451.71959275 193.280055C451.64499275 154.327505 440.10643275 120.7780449999999 412.1801427500001 96.426415C384.22898275 72.04966 338.84564775 56.5189 270.06192275 56.54403C221.86855275 56.54403 180.71270925 72.77845 151.64250875 98.4368699999999C122.57230775 124.145555 105.61261825 159.1525949999999 105.58775075 197.3763549999999C105.56288325 233.916365 126.05376925 267.968435 159.00331225 293.149375C191.90312025 318.3051850000001 237.0377777500001 334.187775 284.70892775 334.162645L287.1708177500001 334.1375149999999C309.37756775 333.91134 330.01765775 330.0914750000001 348.7678127500001 323.68315C375.37612275 304.0309600000001 398.05535775 288.600725 415.03991275 272.99457C432.2731477500001 257.11198 443.58789275 241.40531 448.71061775 220.195015L448.71061775 220.195015zM850.7945127500001 849.215923L850.7945127500001 1000L751.3241927500001 1000L751.3241927500001 849.215923L602.1187177500001 849.215923L602.1187177500001 748.693205L751.3241927500001 748.693205L751.3241927500001 597.9091249999999L850.7945127500001 597.9091249999999L850.7945127500001 748.693205L999.99999275 748.693205L999.99999275 849.215923L850.7945127500001 849.215923" />
    <glyph glyph-name="linkedin"
      unicode="&#xE014;"
      horiz-adv-x="1000" d="M12.657241 674.73352L226.99865 674.73352L226.99865 0L12.657241 0L12.657241 674.73352zM119.84094 766.83163L118.4634575 766.83163C46.5225075 766.83163 0 818.658908 0 883.4294104999999C0 949.6138785 47.95197 1000 121.2704025 1000C194.5888345 1000 239.73386 949.6138785 241.11134 883.4294104999999C241.11134 818.658908 194.5888345 766.83163 119.84094 766.83163L119.84094 766.83163zM1000 0L785.6585900000001 0L785.6585900000001 360.9691099999999C785.6585900000001 451.6532500000001 754.62626 513.56863 677.0454300000001 513.56863C617.8136999999999 513.56863 582.5449649999999 471.8022599999999 567.054785 431.50424C561.4149100000001 417.11986 560.011435 396.97085 560.011435 376.7946500000001L560.011435 0L345.64404 0C345.64404 0 348.45098 611.43137 345.64404 674.73352L560.011435 674.73352L560.011435 579.12769C588.4707349999999 625.108765 639.38559 690.58625 753.1968 690.58625C894.219775 690.58625 1000 594.1374800000001 1000 386.88275L1000 0L1000 0z" />
    <glyph glyph-name="mail"
      unicode="&#xE015;"
      horiz-adv-x="1000" d="M1000 850L0 850L497.38037 400L1000 850L1000 850zM0 785.07647L0 135.07647L1000 135.07647L1000 780.5386900000001L499.885915 329.55618L0 785.07647z" />
    <glyph glyph-name="meeting-list"
      unicode="&#xE016;"
      horiz-adv-x="1000" d="M274.5250000000001 210.75L995.575 210.75L995.575 92.5000000000001L274.5250000000001 92.5000000000001L274.5250000000001 210.75zM274.5250000000001 566.0999999999999L995.575 566.0999999999999L995.575 447.85L274.5250000000001 447.85L274.5250000000001 566.0999999999999zM274.5250000000001 921.5L995.575 921.5L995.575 803.25L274.5250000000001 803.25L274.5250000000001 921.5zM4.425 163.6166400000001C13.796906 196.334445 44.0535595 220.3 79.925 220.3C123.275 220.3 158.375 185.3 158.375 142.15C158.375 98.9499999999999 123.275 63.9500000000001 79.925 63.9500000000001C44.0535595 63.9500000000001 13.796906 87.915555 4.425 120.66169L4.425 163.6166400000001L4.425 163.6166400000001zM4.425 528.43831C13.796906 561.1844450000001 44.0535595 585.15 79.925 585.15C123.275 585.15 158.375 550.15 158.375 506.95C158.375 463.8 123.275 428.8000000000002 79.925 428.8000000000002C44.0535595 428.8000000000002 13.796906 452.7655550000001 4.425 485.4833599999999L4.425 528.43831L4.425 528.43831zM4.425 893.288308C13.796906 926.034446 44.0535595 950 79.925 950C123.275 950 158.375 915 158.375 871.8C158.375 828.6500000000001 123.275 793.65 79.925 793.65C44.0535595 793.65 13.796906 817.615554 4.425 850.3333620000001L4.425 893.288308L4.425 893.288308z" />
    <glyph glyph-name="office365"
      unicode="&#xE017;"
      horiz-adv-x="1000" d="M75 795.21893L620.5793500000001 1000L925 910.388295L925 86.1738150000001L624.12136 0L77.841845 195.320205L622.350355 120.699305L622.350355 837.926072L259.98078 755.176825L259.98078 268.968365L75.233388 196.559445L75 795.21893" />
    <glyph glyph-name="open-issue"
      unicode="&#xE018;"
      horiz-adv-x="1000" d="M500 1000C224.2916665 1000 0 775.7083335 0 500C0 224.291665 224.2916665 0 500 0C775.708335 0 1000 224.291665 1000 500C1000 775.7083335 775.708335 1000 500 1000L500 1000zM500 104.166665C281.375 104.166665 104.1666665 281.375 104.1666665 500C104.1666665 718.625 281.375 895.8333335 500 895.8333335C718.625 895.8333335 895.833335 718.625 895.833335 500C895.833335 281.375 718.625 104.166665 500 104.166665L500 104.166665zM497.4769229999999 373.7435900000001C484.923077 373.82564 473.1076925 369.189745 464.328205 360.49231C455.3846154999999 351.91795 450.5435895 340.14359 450.6666665 327.671795C450.5435895 314.17436 455.3846154999999 301.702565 465.148718 293.37436C474.0923075000001 285.497435 485.4564104999999 281.271795 497.4769229999999 281.353845C509.25128 281.271795 520.45128 285.620515 529.271795 293.579485C538.871795 301.9487200000001 543.671795 314.3384600000001 543.54872 327.671795C543.63077 340.1025650000001 538.953845 351.79487 530.17436 360.410255C521.6 369.1487200000001 509.866665 373.866665 497.4769229999999 373.7435900000001M498.7076925 718.1538459999999C461.251282 718.2358975 429.169231 707.8564105 404.6358975000001 686.4820515L404.594872 686.5230770000001C403.8564105 685.948718 394.0102565000001 678.4410255 384.0410255 664.0820515C374.1128205 649.805128 364.020513 628.3076925 364.020513 600.820513L364.1025640000001 597.2923075L364.471795 584.3692309999999L438.8923075 584.3692309999999L447.5076925 583.1384615L447.794872 584.3692309999999L450.420513 584.3692309999999L450.420513 596.020513C454.194872 612.9641025000001 460.553846 624.1641025 468.6358975 630.974359C477.2923074999999 638.194872 487.4666665 641.8871795 501.497435 641.969231C516.3897450000001 641.8871795 526.235895 638.2358975 533.45641 631.7948719999999L533.497435 631.7948719999999C541.210255 624.6974359999999 544.041025 618.2153845 544.20513 609.1897435C544.123075 602.9128205 542.441025 597.825641 538.379485 592.2871795C537.6 591.302564 534.11282 587.6923075 528.779485 582.9743589999999C523.364105 578.1333335 515.897435 571.8153844999999 506.502565 564.1846155C486.769231 548.0615385 472.902564 533.3333335 465.0666665 518.2358975C457.476923 503.3846155 454.1128205 485.497435 454.1128205 464.902565C454.1128205 462.810255 454.194872 457.68205 454.3589745 449.1487200000001L454.605128 436.0615400000001L540.30769 436.0615400000001L540.06154 449.641025L540.0205149999999 453.82564C539.897435 468.3897449999999 541.784615 478.235895 543.2615400000001 480.9435900000001C544.6974349999999 484.30769 552.28718 493.29231 565.37436 504C592.410255 526.5641025 610.33846 544.2051280000001 620.102565 559.4666665C629.415385 574.1538459999999 634.33846 590.4820515 634.33846 607.3435895C634.46154 637.2102565 621.00513 664.246154 596.71795 685.5384615C571.77436 707.651282 538.297435 718.2358975 498.7076925 718.1538459999999" />
    <glyph glyph-name="options"
      unicode="&#xE019;"
      horiz-adv-x="1000" d="M500 0C541.421355 0 575 34.81071 575 77.7518949999999C575 120.69308 541.421355 155.503785 500 155.503785C458.5786449999999 155.503785 425 120.69308 425 77.7518949999999C425 34.81071 458.5786449999999 0 500 0zM500 436.808385C541.421355 436.808385 575 471.619095 575 514.5602799999999C575 557.501465 541.421355 592.31217 500 592.31217C458.5786449999999 592.31217 425 557.501465 425 514.5602799999999C425 471.619095 458.5786449999999 436.808385 500 436.808385zM500 844.4962145C541.421355 844.4962145 575 879.3069225 575 922.248107C575 965.189292 541.421355 1000 500 1000C458.5786449999999 1000 425 965.189292 425 922.248107C425 879.3069225 458.5786449999999 844.4962145 500 844.4962145z" />
    <glyph glyph-name="people"
      unicode="&#xE01A;"
      horiz-adv-x="1000" d="M502.3989449999999 555.0000190000001L502.3989449999999 490.972885C532.170163 490.972885 528.5403899999999 490.972885 549.0531899999999 490.972885C611.85439 490.94099 668.80359 464.43381 710.3527899999999 421.435405C751.8403900000001 378.4051050000001 777.4659899999999 319.425835 777.4659899999999 254.385965L777.9895899999999 61.970255L291.7068064999999 61.970255L291.183205 254.385965C291.183205 257.8947350000001 291.5528049999999 261.339715 291.7068049999999 264.848485L225.797911 264.848485C225.6747109999999 261.339715 225.274311 257.8947350000001 225.274311 254.385965L225.274333 1.81819L839.06601 1.81819L839.0659899999998 254.385965C838.9427900000001 419.8086100000001 708.75119 554.6411485 549.0531899999999 554.76874C528.7559899999999 554.736842 549.053179 554.76874 502.3989449999999 555.0000190000001zM701.69399 825.01571C701.6626349999999 921.6811795 622.8557559999999 1000 526.3750949999999 1000C429.8944345 1000 351.7253455 921.6811775 351.69399 825.0157075C351.7253455 728.3188225 429.8944345 650 526.3750949999999 650C622.8557559999999 650 701.6626349999999 728.3188245 701.69399 825.01571zM526.69399 710C591.3520914999999 710 643.7678389999999 761.487254 643.7678389999999 825C643.7678389999999 888.512746 591.3520914999999 940 526.69399 940C462.0358884999999 940 409.620141 888.512746 409.620141 825C409.620141 761.487254 462.0358884999999 710 526.69399 710zM331.07319 287.5917050000001L469.6731899999999 431.1323749999999L331.35039 574.832536L331.22719 458.7878800000001L160.9339899999999 458.7878800000001L160.9339899999999 398.94737L331.19639 398.94737L331.07319 287.5917050000001M501.6939899999999 312.5C501.6939899999999 291.7893218813453 518.4833118813451 275 539.19399 275C559.9046681186546 275 576.69399 291.7893218813453 576.69399 312.5C576.69399 333.2106781186548 559.9046681186546 350 539.19399 350C518.4833118813451 350 501.6939899999999 333.2106781186548 501.6939899999999 312.5zM501.6939899999999 187.5C501.6939899999999 166.7893218813453 518.4833118813451 150 539.19399 150C559.9046681186546 150 576.69399 166.7893218813453 576.69399 187.5C576.69399 208.2106781186548 559.9046681186546 225 539.19399 225C518.4833118813451 225 501.6939899999999 208.2106781186548 501.6939899999999 187.5z" />
    <glyph glyph-name="plus"
      unicode="&#xE01B;"
      horiz-adv-x="1000" d="M549.9999975 550L699.9999975 550L699.9999975 450L549.9999975 450L549.9999975 300L449.9999975 300L449.9999975 450L299.9999975 450L299.9999975 550L449.9999975 550L449.9999975 700L549.9999975 700L549.9999975 550zM499.9999975 11.6666650000001C772.9207125 11.6666650000001 994.1666675 232.91262 994.1666675 505.833335C994.1666675 778.754045 772.9207125 1000 499.9999975 1000C227.0792875 1000 5.8333325 778.754045 5.8333325 505.833335C5.8333325 232.91262 227.0792875 11.6666650000001 499.9999975 11.6666650000001z" />
    <glyph glyph-name="recurring"
      unicode="&#xE01C;"
      horiz-adv-x="1000" d="M525.242425 383.2121199999999L462.0303029999999 383.2121199999999L462.0303029999999 536.909091L612.7878800000001 536.909091L612.7878800000001 501.5151515000001L663.3030299999999 501.5151515000001L663.3030299999999 535.6666665L712.969695 535.6666665L712.969695 584.7272725L663.3030299999999 584.7272725L663.3030299999999 635.6666665L615.666665 635.6666665L615.666665 584.7272725L461.848485 584.7272725L461.848485 635.6666665L414.181818 635.6666665L414.181818 584.7272725L260.3030305 584.7272725L260.3030305 635.6666665L212.6666665 635.6666665L212.6666665 584.7272725L157.6666665 584.7272725L157.6666665 535.6666665L210.818182 535.6666665L210.818182 385.454545L157.6666665 385.454545L157.6666665 334.3030299999999L210.818182 334.3030299999999L210.818182 287.545455L260.3030305 287.545455L260.3030305 334.3030299999999L413.030303 334.3030299999999L413.030303 287.545455L461.848485 287.545455L461.848485 334.3030299999999L525.242425 334.3030299999999L525.242425 383.2121199999999L525.242425 383.2121199999999zM260.2424240000001 536.909091L411.969697 536.909091L411.969697 383.2121199999999L260.2424240000001 383.2121199999999L260.2424240000001 536.909091zM512.93569 195.845215L48.59801535 200.329745L48.59801535 748.411878L800.4414300000001 748.411878L800.4414300000001 516.6708255L850 516.6708255L850 900.9161555L650.504995 900.9161555L650.504995 1000L599.83579 1000L599.83579 799.7718525L500.38846 799.7718525L500.38846 900.9161555L250.2842815 900.9161555L250.2842815 996.63660345L199.9152455 996.63660345L199.9152455 799.7718525L99.507363 799.7718525L99.507363 896.1286185L0 896.1286185L0 150L512.93569 150L512.93569 195.845215M800 400C853.50675 400 904.28054 378.354625 941.3566 341.37847L1000 400L1000 228.59468L828.580835 228.59468L900.987815 300.9520700000001C874.4813949999999 327.38221 838.2285149999999 342.8757450000001 800 342.8757450000001C721.238065 342.8757450000001 657.161675 278.7533550000001 657.161675 199.9837250000001C657.161675 121.2466450000001 721.238065 57.124255 800 57.124255C850.8396449999999 57.124255 898.254855 84.4983300000001 923.740535 128.602815L973.23016 99.9593150000001C937.537045 38.310685 871.155745 0 800 0C689.726705 0 600 89.70624 600 199.9837250000001C600 310.29376 689.726705 400 800 400" />
    <glyph glyph-name="refresh"
      unicode="&#xE01D;"
      horiz-adv-x="1000" d="M800.645705 838.2234305L949.92244 1000L950 639.016775L602.03388 639.37913L728.9436650000001 765.3995150000001C666.7452499999999 816.6989545 589.316655 845.488257 507.3669150000001 845.488257C310.357825 845.488257 150.369797 679.396565 150.369797 474.248045C150.369797 269.09952 310.357825 103.00783 507.3669150000001 103.00783C655.323685 103.00783 786.428485 197.497675 839.72818 338.40413L933.2948999999998 301.1263899999999C865.17704 121.0456750000001 697.2259799999999 0 507.3669150000001 0C254.665155 0 50 212.47329 50 474.248045C50 736.0228 254.665155 948.4960855 507.3669150000001 948.4960855C616.48082 948.4960855 719.47442 908.6559745 800.645705 838.2234305z" />
    <glyph glyph-name="slack"
      unicode="&#xE01E;"
      horiz-adv-x="1000" d="M995.53597725 468.06672C980.9945872500002 509.9584850000001 935.23557225 532.120525 893.34376725 517.579145L794.76503225 483.3517900000001L721.02565225 695.72414L819.62188725 729.9515000000001C861.5049422499999 744.501625 883.6845022499999 790.243095 869.13436225 832.13486C854.5842222499999 874.0353749999999 808.8427072500001 896.197414 766.9421522499999 881.6560365L668.3546672499999 847.41993L634.1185272499999 946.024817C619.56838725 987.916583 573.82687225 1010.078622 531.93506725 995.5372445C490.03450725 980.987118 467.8724472500001 935.2456495 482.41384225 893.3538835L516.6499822499999 794.7489949999999L304.2774172500001 721.01844L270.04127725 819.6233259999999C255.4998872500002 861.5063425 209.75837225 883.68588 167.8578177500001 869.1270039999999C125.9660112500001 854.5856265 103.80395025 808.844158 118.34534225 766.9523899999999L152.58148225 668.347505L53.97649875 634.12015C12.08469175 619.57002 -10.08611825 573.82855 4.46402275 531.936785C19.01416375 490.0362700000001 64.74692775 467.874235 106.64748375 482.4243600000001L205.2524672500001 516.651715L278.9743472500001 304.279365L180.3781137500001 270.0432550000001C138.49505625 255.5018799999999 116.31549675 209.76041 130.8743867500001 167.868645C145.4157787500001 125.9681300000001 191.1485427500001 103.8060899999999 233.0490972500001 118.3474699999999L331.64533225 152.5835750000001L365.8727222500001 53.96994C380.42286725 12.08692 426.18187725 -10.0838650000001 468.06493225 4.46626C509.96549225 19.0076350000001 532.11880225 64.7578550000001 517.5774122500001 106.6408700000001L483.34127225 205.25451L695.7138322499999 278.985065L729.9499722499999 180.38893C744.4913622500001 138.49716 790.2503772499999 116.3263750000001 832.1334322499999 130.86775C874.03398725 145.41788 896.19604725 191.1680949999999 881.65465725 233.0511100000001L847.42726725 331.64725L946.02350225 365.8833550000001C987.9065572500002 380.4247350000001 1010.07736725 426.1749500000001 995.53597725 468.06672L995.53597725 468.06672zM430.6702872500001 356.9502950000001L356.94840225 569.32265L569.3209672500001 643.05321L643.0515972499999 430.680855L430.6702872500001 356.9502950000001L430.6702872500001 356.9502950000001z" />
    <glyph glyph-name="solid-full"
      unicode="&#xE01F;"
      horiz-adv-x="1950" d="M998.3456271799998 999.34599813L1092.34804218 999.34599813L1092.34804218 273.18787L998.3456271799998 273.18787L998.3456271799998 999.34599813zM1227.8864121799998 743.0706945L1321.88338718 743.0706945L1321.88338718 273.19371L1227.8864121799998 273.19371L1227.8864121799998 743.0706945zM78.3661689799998 998.03215509L377.3493136799998 998.03215509L377.3493026799999 900.573733L78.3661578199998 900.573733L78.3661689799998 998.03215509zM838.1673771799998 508.6694175L791.1226621799997 508.6694175C791.1172271799998 490.211385 787.6694921799998 472.8803349999999 781.4320321799997 457.0266250000001C772.0894321799998 433.2840250000001 756.3571071799997 412.922375 736.6060471799998 398.598565C716.8278021799997 384.292275 693.3027271799998 375.9946300000001 667.5480421799998 375.97127C650.3528771799997 375.9771100000001 634.2181321799998 379.67923 619.4592221799998 386.37691C597.3371671799998 396.4088300000001 578.3746271799997 413.30777 565.0459271799997 434.510275C551.7117881799998 455.75366 543.9842956799998 481.0144799999999 543.9625436799997 508.6694175C543.9734196799998 527.133292 547.4211536799997 544.458502 553.6586161799999 560.3063685C563.0012141799997 584.0489725 578.7335421799997 604.416459 598.4845971799998 618.7344284999999C618.2628471799998 633.0465585 641.7879221799998 641.3442075 667.5480421799998 641.3675645000001C684.7377721799998 641.3617255 700.8725121799998 637.6537685000001 715.6314271799997 630.9619275C737.7534821799998 620.924167 756.7160171799998 604.031065 770.0501571799998 582.828558C783.3788571799998 561.585176 791.1063521799998 536.330193 791.1226621799997 508.6694175L885.20665218 508.6694175C885.2120921799998 540.7972595000001 879.1105821799998 571.669651 868.0821821799998 599.663267C851.5232671799998 641.6595295 823.9849021799997 677.250078 789.2737221799997 702.4466675000001C754.5897321799997 727.637418 712.4610321799997 742.4108535 667.5480421799998 742.387496C637.6223621799998 742.387496 608.8767421799997 735.8474775 582.8066521799998 723.999533C543.6852021799997 706.2188570000001 510.5456251799998 676.6544690000001 487.0858066799998 639.382202C463.6259876799998 602.1449705 449.8676796799997 556.896216 449.8894316799998 508.6694175C449.8785556799997 476.541575 455.9800661799999 445.6691850000001 467.0084651799997 417.6814099999999C483.5673776799998 375.6734650000001 511.1057461799998 340.0829200000001 545.8169241799998 314.898005C580.5009121799998 289.7072550000001 622.6296121799998 274.9279800000001 667.5480421799998 274.95134C697.4682821799997 274.9455000000001 726.2139021799998 281.49136 752.2839921799997 293.3334650000001C791.4054421799999 311.11414 824.5450221799998 340.684365 848.0048371799998 377.9624750000001C871.4700971799998 415.199705 885.2229671799997 460.43678 885.20665218 508.6694175L838.1673771799998 508.6694175M1275.5456271799999 999.6671597635C1301.3111821799998 999.6671597635 1322.6773471799997 976.73037995 1322.6773471799997 949.7294455C1322.6773471799997 922.062831 1301.3111821799998 899.126051 1275.5456271799999 899.126051C1250.40544218 899.126051 1229.0392821799999 922.062831 1229.0392821799999 949.7294455C1229.0392821799999 976.73037995 1250.40544218 999.6671597635 1275.5456271799999 999.6671597635M1824.5945671799996 509.4927595L1777.55529218 509.4927595C1777.5498571800001 491.034725 1774.0966821799998 473.709515 1767.8646571799998 457.85581C1758.5166221799998 434.113205 1742.7842971799996 413.751555 1723.03867718 399.42775C1703.2549921799998 385.1156200000001 1679.72991718 376.8179700000001 1653.97523218 376.7946099999999C1636.7800671799998 376.80045 1620.6453221799998 380.5084100000001 1605.88641218 387.20609C1583.76979218 397.2380099999999 1564.8072571799999 414.1311100000001 1551.47311718 435.3394599999999C1538.13897718 456.577 1530.4114871799998 481.8378250000001 1530.39517218 509.4927595C1530.4006121799998 527.9624725 1533.85378218 545.287683 1540.0858071799998 561.1355495C1549.42840218 584.8839925 1565.16073218 605.2398005 1584.9117871799997 619.5636095C1604.6954721799998 633.8757395 1628.2151121799998 642.1733885 1653.97523218 642.1909065C1671.16496218 642.185067 1687.30514218 638.482949 1702.0640521799996 631.7852695C1724.18067218 621.753348 1743.14320718 604.8660855 1756.47734718 583.657739C1769.80604718 562.4085175 1777.5335421799998 537.159374 1777.55529218 509.4927595L1871.6338421800003 509.4927595C1871.6392821799996 541.6264405 1865.54320718 572.498832 1854.5093721799997 600.492448C1837.95045718 642.4887105 1810.41752718 678.085098 1775.70091218 703.2700095C1741.0169221799997 728.4607599999999 1698.8882221799997 743.2400345 1653.97523218 743.2108375C1624.04955218 743.216677 1595.30393218 736.6766585 1569.23928218 724.828714C1530.1178321799998 707.0480379999999 1496.97825218 677.48365 1473.5184371799999 640.2055435C1450.05317718 602.968312 1436.2948721799999 557.7253969999999 1436.31662218 509.4927595C1436.3111821799998 477.364915 1442.4072571799998 446.4983649999999 1453.44109218 418.50475C1470.0000071799998 376.5026449999999 1497.5329371799999 340.9121 1532.24411218 315.72719C1566.9281021799998 290.5306000000001 1609.05680218 275.757165 1653.97523218 275.78052C1683.8954721799996 275.77468 1712.64653218 282.3205400000001 1738.71118218 294.162645C1777.8326321799998 311.9433200000001 1810.97221218 341.5077100000001 1834.43203218 378.791655C1857.89728718 416.028885 1871.65015718 461.26596 1871.6338421800003 509.4927595L1824.5945671799996 509.4927595M78.3661578199998 99.70093L376.4764996799998 99.70093L376.4764996799998 2.062985L78.3661578199998 2.062985L78.3661578199998 99.70093zM340.6332386799998 470.684755C330.3824831799998 489.23622 316.2000056799998 504.5118345 299.7063501799998 516.1028495L298.4392806799998 516.984584L203.5178306799999 574.565945L203.4525736799998 574.44332L186.3661691799998 584.8080815000001C181.3142051799998 588.4985205 177.6707006799999 592.77289 175.4845981799998 596.7494549999999C173.1842956799998 600.9946279999999 172.2652626799998 604.6967454999999 172.2326341799998 608.8660075C172.2435101799998 610.652834 172.4229666799998 612.3462314999999 172.7981931799998 614.0396295C173.1788576799998 615.7213485 173.7607306799998 617.3972285 174.5655646799998 619.172376C176.9637521799998 624.4102305 181.8743261799998 630.3779975 189.3951721799998 635.002725C196.8725131799998 639.6099345 206.6664711799999 642.7164435 217.7220601799998 642.710604C219.9407911799998 642.710604 222.0942656799998 642.552943 224.2042356799998 642.319371C236.0972866799998 640.9821704999999 246.1305196799998 636.0537995 252.6997036799998 630.004282C256.5824831799998 626.465665 259.2471356799998 622.681797 260.8731176799998 619.172376C262.4882231799999 615.6279195 263.1842956799998 612.4455 263.2060481799998 608.8601679999999L356.9963806799998 608.8601679999999L356.9963806799998 608.8660075C357.0126946799998 626.856898 353.2386766799998 644.2288229999999 346.6858066799998 659.773046C346.0767431799998 661.2153535 345.4731176799998 662.6751790000001 344.8151116799999 664.0882905C344.4290086799998 664.9233105000001 343.9722111799999 665.6999375 343.5643561799998 666.5232795C331.8888276799998 690.3417939999999 313.9377701799999 709.2728119999999 292.6966826799998 722.3645280000001C274.1093711799999 733.8037214999999 252.8356551799998 740.8634380000001 230.2785556799998 742.807926C226.1293111799999 743.1699625 221.9474376799998 743.4152134999999 217.7220601799998 743.4152134999999C208.6459271799998 743.4035345 199.7383741799998 742.5685145 191.0755346799998 740.956867C165.0924531799998 736.1277640000001 141.3281026799998 724.3031765000001 122.0501568799998 706.7911085000001C110.8205496299998 696.5489725 101.2386765299998 684.1696509999999 93.8102777299998 670.1144505C92.7444167299998 668.1115695 91.5915466299998 666.1787605 90.6235707799998 664.0882905C85.3921508299998 652.8417939999999 81.6942656299998 640.4975085 79.8290088549998 627.5984895C78.9426040249998 621.4555435 78.4368638399998 615.2016505 78.4423019099998 608.8601679999999C78.4096735099998 585.8533165 84.5546886299998 563.880022 94.8054438799998 545.3927904999999C105.0561991799998 526.8354875 119.2441145799998 511.5598725 135.7377701799998 499.968855L136.9994016799998 499.08712L231.9208516799998 441.5116000000001L231.9861086799998 441.628385L249.0725131799999 431.263625C254.1244771799999 427.573185 257.7679816799998 423.298815 259.9540841799998 419.3222500000001C262.2543866799998 415.07708 263.1734196799998 411.37496 263.2060481799998 407.2057C263.1951721799998 405.418875 263.0157156799998 403.725475 262.6404891799998 402.037915C262.2598246799998 400.35036 261.6779516799998 398.67448 260.8731176799998 396.89933C258.4749301799998 391.661475 253.5643561799998 385.69371 246.0435101799998 381.0748200000001C238.5661691799998 376.46177 228.7722111799998 373.3552650000001 217.7220601799998 373.36694C214.0350511799998 373.3552650000001 210.4894316799998 373.693945 207.1232686799998 374.330425C197.0302171799998 376.2282 188.5413956799998 380.7303000000001 182.7389786799998 386.067425C178.8561991799998 389.60604 176.1915466799998 393.38991 174.5710026799998 396.89933C172.9504591799998 400.4437850000001 172.2543866799999 403.6262050000001 172.2326341799998 407.21154L78.4423019099998 407.21154L78.4423019099998 407.2057C78.4259877099998 392.87021 80.8241750199998 378.91428 85.1148094799998 365.9627050000001C85.4791599299998 364.8474 85.8815768299998 363.73793 86.2785556799998 362.6401450000001C87.0507611299998 360.49128 87.8773472299998 358.38913 88.7528759299998 356.2986600000001C89.3619393799998 354.856355 89.9655647299998 353.39653 90.6235707799998 351.9834150000001C91.0151115799998 351.148395 91.4719091799998 350.3717700000001 91.8743260799998 349.548425C103.5498547799998 325.729915 121.5009121799998 306.798895 142.7419996799998 293.70718C158.9093711799998 283.7628450000001 177.1160176799998 277.1118800000001 196.4211536799998 274.25646C203.3927551799998 273.228745 210.5003081799998 272.662335 217.7220601799998 272.6564950000001C226.7927551799999 272.6681700000001 235.7003081799998 273.50319 244.3631476799998 275.11484C270.3462291799998 279.9497800000001 294.1105796799998 291.76853 313.3885256799998 309.2806000000001C324.6181326799999 319.516895 334.2000056799998 331.902055 341.6284046799998 345.9572550000001C342.6942656799998 347.965975 343.8471356799998 349.898785 344.8151116799999 351.9834150000001C350.0139031799998 363.148165 353.6954741799998 375.40486 355.5716071799998 388.21629C356.4797641799998 394.4351450000001 357.0018186799999 400.782465 356.9963806799998 407.21154C357.0290086799998 430.21839 350.8839936799998 452.1975249999999 340.6332386799998 470.684755M1777.5117871799998 999.34599813L1871.51420718 999.34599813L1871.51420718 273.18787L1777.5117871799998 273.18787L1777.5117871799998 999.34599813z" />
    <glyph glyph-name="solid"
      unicode="&#xE020;"
      horiz-adv-x="1000" d="M325.0000025 1000L673.7478825000001 1000L673.7478775 899.859619L324.9999975 899.859619L325.0000025 1000zM633.2610575000001 478.2677650000001C622.0151025 498.2278600000001 606.4497425 514.664475 588.3607525 527.1254L586.9706675 528.08007L482.8277274999999 590.001575L482.7620975 589.882245L464.0168475 601.02422C458.4744075 604.9936299999999 454.4771725 609.591105 452.0728625 613.87455C449.5552025 618.440625 448.5409774999999 622.422595 448.5111475 626.9007399999999C448.5230775000001 628.8226400000001 448.7199575 630.650325 449.1316125 632.46545C449.5492375 634.2742949999999 450.1876025 636.076855 451.0705725 637.98619C453.7015875 643.62627 459.0889125 650.038875 467.3399225000001 655.0069149999999C475.5432074999999 659.974955 486.2880225 663.31001 498.4169525 663.29745C500.8510875 663.30373 503.2076675 663.1341500000001 505.5284525000001 662.889205C518.5761525 661.45092 529.5894324999999 656.14372 536.7904275000001 649.6369050000001C541.0501675 645.83708 543.9735225 641.7609 545.7513974999999 637.98619C547.5292725000002 634.180085 548.2929224999998 630.7508150000001 548.3167874999999 626.89446L651.2128275 626.89446L651.2128275 626.9007399999999C651.2307274999998 646.2516049999999 647.0903075000001 664.942995 639.9012475 681.65596C639.2330525 683.213575 638.5708225000001 684.7774750000001 637.8489325 686.3036850000001C637.4253424999999 687.201825 636.9241975 688.03088 636.4767475000001 688.91018C623.6676875 714.53547 603.9738375 734.89753 580.6705425 748.97888C560.2786675 761.276505 536.9395775 768.882445 512.1925024999998 770.9739199999999C507.6404274999999 771.350765 503.0525525 771.6208349999999 498.4169525 771.6208349999999L498.4109825000001 771.6208349999999C488.4596525 771.608275 478.6873025 770.7101299999999 469.1834275000001 768.9766549999999C440.6777575 763.78251 414.6062225 751.070355 393.4566625 732.23451C381.1368225000001 721.218145 370.6246825 707.896765 362.4750925 692.7790950000001C361.3057525 690.6185350000001 360.0409525 688.53962 358.9790025 686.3036850000001C353.2337175 674.20076 349.1827875 660.92334 347.1364425 647.049255C346.1639775 640.44195 345.6091375000001 633.70903 345.6151075 626.89446C345.5793075 602.148465 352.3209175 578.50788 363.5609075000001 558.623155C374.8128325 538.6756250000001 390.3722275 522.23901 408.4671825 509.7718L409.8572675000001 508.823415L513.9942425000002 446.889345L514.0658375 447.0212399999999L532.8110875 435.8667000000001C538.3535274999999 431.903575 542.3507625 427.3060949999999 544.7491024999999 423.0289300000001C547.2727325000001 418.462855 548.2809924999999 414.474605 548.3167874999999 410.00274C548.3048575 408.0745650000001 548.1079774999998 406.25316 547.6963225 404.4380350000002C547.2786974999999 402.62919 546.6403324999999 400.8140649999999 545.7573625 398.9110099999999C543.1263474999998 393.277215 537.7390225000001 386.8583299999999 529.4880125 381.89029C521.2847274999999 376.92853 510.5399125 373.58719 498.4109825000001 373.5934699999999C494.3719875000001 373.58719 490.4821375000001 373.957755 486.7891675000001 374.62979C475.7162225 376.6773000000001 466.3972925 381.5134450000001 460.0375075 387.260295C455.7777675 391.0664049999999 452.8544125 395.142585 451.0765375 398.9110099999999C449.2986625 402.7234000000001 448.5290475 406.1463850000001 448.5111475 410.0090200000001L345.6151075 410.0090200000001L345.6151075 410.00274C345.5972075 394.57732 348.2341925 379.566425 352.9294525 365.6358150000001C353.3351425 364.4361999999999 353.7766275 363.242865 354.2121475 362.06209C355.0593225 359.7507900000001 355.9661575 357.4834550000001 356.9266875 355.24752C357.5948825 353.6899050000001 358.2571125 352.113445 358.9790025 350.599795C359.4025925000001 349.701655 359.9097025000001 348.86632 360.3452225000001 347.9807400000001C373.1602425 322.3617300000001 392.8540975000001 301.9996700000001 416.1573925 287.91832C433.8943825 277.222275 453.8626725 270.068545 475.0480275000001 266.9972800000001C482.6964725 265.898155 490.4940675000001 265.2889300000001 498.4109825000001 265.2826449999999L498.4169525 265.2826449999999C508.3682825 265.29521 518.1406325 266.18707 527.6445074999999 267.920545C556.1501774999999 273.1272499999999 582.2217125 285.8331250000001 603.3712725 304.66897C615.6911124999999 315.6790550000001 626.2032525 329.0004400000001 634.3588075 344.1181050000002C635.5221825000001 346.2786700000001 636.7869775000001 348.357585 637.8489325 350.599795C643.5524524999998 362.6147900000001 647.5914525000001 375.79172 649.6497325 389.571595C650.6460574999999 396.2605500000001 651.2187974999999 403.08768 651.2128275 410.0090200000001C651.2486275000001 434.755015 644.5070174999998 458.3830400000001 633.2610575000001 478.2677650000001M325.0000025 99.7314449999999L675.0000024999999 99.7314449999999L675.0000024999999 0L325.0000025 0L325.0000025 99.7314449999999z" />
    <glyph glyph-name="sunrise"
      unicode="&#xE021;"
      horiz-adv-x="1000" d="M500 750C361.9500000000001 750 250 638.05 250 500C250 361.9500000000001 361.9500000000001 250 500 250C638.05 250 750 361.9500000000001 750 500C750 638.05 638.05 750 500 750L500 750zM502.8000000000001 344.45C418.4000000000001 344.45 350 412.85 350 497.1999999999999C350 581.5999999999999 418.4000000000001 650 502.8000000000001 650C587.15 650 655.5500000000001 581.5999999999999 655.5500000000001 497.1999999999999C655.5500000000001 412.85 587.15 344.45 502.8000000000001 344.45zM768.6500000000001 294.9500000000001C752.95 310.6500000000001 724.55 307.4 705.05 287.85C685.35 268.2000000000001 682.3499999999999 239.85 697.9499999999999 224.25L782.8 139.3499999999999C798.55 123.65 826.9 126.9 846.4499999999999 146.4499999999999C866.0999999999999 166.0999999999999 869.15 194.4499999999999 853.5 210.1000000000001L768.6500000000001 294.9500000000001zM500 200C472.2 200 450 182.1 450 160L450 40C450 17.75 472.4 0 500 0C527.8000000000001 0 550 17.9 550 40L550 160C550 182.25 527.6 200 500 200zM960 550L840 550C817.75 550 800 527.5999999999999 800 500C800 472.1999999999999 817.9 450 840 450L960 450C982.25 450 1000 472.4 1000 500C1000 527.8 982.1 550 960 550zM500 800C527.8000000000001 800 550 817.9000000000001 550 840L550 960C550 982.25 527.6 1000 500 1000C472.2 1000 450 982.1 450 960L450 840C450 817.75 472.4 800 500 800zM768.6500000000001 705.0500000000001L853.5 789.9C869.2500000000001 805.65 866 834.05 846.4499999999999 853.55C826.8000000000001 873.2 798.45 876.25 782.8 860.65L697.9499999999999 775.75C682.1999999999999 760.05 685.5 731.65 705.05 712.1500000000001C724.7 692.45 753.05 689.45 768.6500000000001 705.0500000000001zM217.15 705.0500000000001C232.85 689.35 261.25 692.6 280.75 712.1500000000001C300.4 731.8 303.4500000000001 760.15 287.85 775.75L203 860.65C187.25 876.3499999999999 158.85 873.1 139.3500000000001 853.55C119.7 833.9000000000001 116.65 805.5500000000001 132.25 789.9L217.15 705.0500000000001zM217.15 294.9500000000001L132.25 210.1000000000001C116.55 194.35 119.8000000000001 165.9499999999999 139.3500000000001 146.4499999999999C159 126.8000000000001 187.35 123.7500000000001 203 139.3499999999999L287.85 224.25C303.55 239.95 300.3 268.35 280.75 287.85C261.1 307.55 232.75 310.55 217.15 294.9500000000001zM200 500C200 527.8 182.1 550 160 550L40 550C17.75 550 0 527.5999999999999 0 500C0 472.1999999999999 17.9 450 40 450L160 450C182.25 450 200 472.4 200 500z" />
    <glyph glyph-name="sunset"
      unicode="&#xE022;"
      horiz-adv-x="1000" d="M960 359.0999999999999L744.9999999999999 359.0999999999999C721.85 483.6 620.95 577.3 500 577.3C379.05 577.3 278.1500000000001 483.6 255 359.0999999999999L40 359.0999999999999C17.75 359.0999999999999 0 334.6500000000001 0 304.5500000000002C0 274.2000000000001 17.9 250 40 250L960 250C982.25 250 1000 274.4 1000 304.5500000000002C1000 334.9 982.1 359.0999999999999 960 359.0999999999999L960 359.0999999999999zM358.55 359.0999999999999C379.1500000000001 422.65 434.7000000000001 468.2 500 468.2C565.3000000000001 468.2 620.9 422.65 641.45 359.0999999999999L358.55 359.0999999999999zM217.15 528.25C232.85 511.1 261.25 514.65 280.75 535.95C300.4 557.4 303.4500000000001 588.3499999999999 287.85 605.4000000000001L203 697.95C187.25 715.0999999999999 158.85 711.55 139.3500000000001 690.25C119.7 668.8 116.65 637.8499999999999 132.25 620.8L217.15 528.25zM500 631.8C527.8000000000001 631.8 550 651.3499999999999 550 675.45L550 806.35C550 830.65 527.6 850 500 850C472.2 850 450 830.45 450 806.35L450 675.45C450 651.1999999999999 472.4 631.8 500 631.8zM768.6500000000001 528.25L853.5 620.8C869.2500000000001 638 866 668.95 846.4499999999999 690.25C826.8000000000001 711.7 798.45 715 782.8 697.95L697.9499999999999 605.4000000000001C682.1999999999999 588.25 685.5 557.25 705.05 535.95C724.7 514.5 753.05 511.2 768.6500000000001 528.25" />
    <glyph glyph-name="task"
      unicode="&#xE023;"
      horiz-adv-x="1000" d="M500 895.8333335C718.625 895.8333335 895.833335 718.625 895.833335 500C895.833335 281.375 718.625 104.166665 500 104.166665C281.375 104.166665 104.1666665 281.375 104.1666665 500C104.1666665 718.625 281.375 895.8333335 500 895.8333335M500 1000C224.2916665 1000 0 775.7083335 0 500C0 224.291665 224.2916665 0 500 0C775.708335 0 1000 224.291665 1000 500C1000 775.7083335 775.708335 1000 500 1000M716.860445 499.363635L687.0713549999999 533.260606L687.2782199999999 533.4727275L674.700605 547.769697L674.700605 547.8545455L674.65923 547.8545455L535.891715 705.460606L466.797576 641.5272725L549.255435 547.8545455L282.932687 547.8545455L282.932687 452.4L549.462305 452.4L466.797576 358.4727250000001L535.891715 294.539395L717.067315 499.27879L716.860445 499.363635" />
    <glyph glyph-name="twitter"
      unicode="&#xE024;"
      horiz-adv-x="1000" d="M882.170965 790.604235C924.531885 817.1711690000001 957.0692 859.207099 972.37449 909.3323205C932.727275 884.7238455 888.8195400000001 866.870638 842.08955 857.2486395000001C804.66757 898.9439675 751.3432849999999 925 692.3473550000001 925C579.023065 925 487.16418 828.9219284999999 487.16418 710.42091C487.16418 693.61789 488.98236 677.240625 492.48304 661.5161800000001C321.9810050000001 670.485355 170.8005425 755.919625 69.606513 885.7456505C51.9402985 854.0413065 41.845319 817.1711690000001 41.845319 777.860055C41.845319 703.41019 78.046133 637.730825 133.1071915 599.24283C99.484396 600.3497849999999 67.842605 610.000165 40.1899595 626.0935999999999C40.1628225 625.1853249999999 40.1628225 624.277055 40.1628225 623.39717C40.1628225 519.4001049999999 110.881954 432.688585 204.74898 412.962065C187.5169605 408.08011 169.3894165 405.440445 150.6919945 405.440445C137.476255 405.440445 124.613297 406.8028500000001 112.0759835 409.3006000000001C138.181818 324.03663 213.94844 261.9903499999999 303.74491 260.2589549999999C233.514245 202.6972649999999 145.04749 168.410025 48.928087 168.410025C32.374491 168.410025 16.037992 169.4318300000001 0 171.3902900000001C90.8005425 110.5077299999999 198.643148 75 314.49118 75C691.8588850000001 75 898.23609 401.97766 898.23609 685.5569849999999C898.23609 694.83838 898.018995 704.091395 897.639075 713.3160250000001C937.72049 743.5728100000001 972.510175 781.35122 1000 824.3805725C963.20217 807.3221025 923.6635 795.79841 882.170965 790.604235z" />
    <glyph glyph-name="voice"
      unicode="&#xE025;"
      horiz-adv-x="1000" d="M849.99996675 638.155455C850.0087117499999 687.90512 840.2060867499998 735.702045 822.4634317499999 779.0329800000001C795.83632675 844.0610235 751.56275175 899.162641 695.7376467499998 938.163195C639.9737517499999 977.1637495 572.2211067499999 1000.036119 500.00000175 999.999957C451.87883175 1000.0089975 405.65522675 989.8746395 363.74267175 971.5315415C300.83449675 944.003334 247.54530825 898.2314735 209.8213892499999 840.5262025C172.08872575 782.875175 149.96505525 712.820635 150.00003325 638.155455C149.99128875 588.4148299999999 159.7939112500001 540.6179050000001 177.53657025 497.2869700000001C204.1636757499999 432.2498850000001 248.4372507500001 377.14827 304.25361175 338.156755C360.02624675 299.1562 427.7701517500001 276.2747900000001 500.00000175 276.3109500000001C500.82198675 276.3109500000001 501.63522675 276.3742349999999 502.4572117499998 276.3742349999999L502.4572117499998 37.0370349999999L768.8157167499999 406.7738650000001C776.3360117499999 416.1126599999999 783.57648675 425.6955500000001 790.17861175 435.793745C791.26293175 437.4391100000001 792.28604175 439.14776 793.3441317499999 440.8202449999999C829.2841667499998 498.07349 850.0262017499999 565.9312 849.99996675 638.155455z" />
    <glyph glyph-name="wisembly-full"
      unicode="&#xE026;"
      horiz-adv-x="4450" d="M4444.81522875 667.4791665L4350.71451875 667.4791665L4255.06050875 395.8333350000001L4150.296593749999 667.4791665L4047.23291375 667.4791665L4207.66381375 285.291665C4193.43220875 254.5625 4181.06876375 246.4583350000001 4158.67182875 246.1041650000001C4141.64847875 246.1041650000001 4125.06593375 251.5 4109.70083875 259.854165L4105.35579375 262.2083349999999L4071.91781875 189.4583349999999L4075.73810375 187.395835C4102.83692375 172.8125 4130.54447375 163.9374999999999 4168.03362375 163.958335C4231.0892837500005 163.583335 4267.71781875 194.9166650000001 4297.755318750001 272.7708350000001L4451.53220875 667.4791665L4444.81522875 667.4791665M3651.51876375 667.6666665C3594.34046375 667.75 3555.15107375 648.3541665 3527.08668875 613.4375L3527.08668875 810.1041665L3430.63503875 810.1041665L3430.63503875 276.8333350000001L3527.08668875 276.8333350000001L3527.08668875 330.9375C3554.1015487500003 299.3958350000001 3593.2909337500005 276.7708350000001 3651.51876375 276.8333350000001C3744.77984875 277.0208350000001 3829.47678375 338.416665 3829.64470875 466.541665C3829.47678375 594.6875 3744.06616875 667.4791665 3651.51876375 667.6666665L3651.51876375 667.6666665zM3631.30484875 583.5833335C3687.79046375 583.4583335 3735.35508375 538.875 3735.54399875 466.541665C3735.33409375 393.4583349999999 3688.56711375 361.0625 3631.30484875 360.916665C3574.7982437500004 361 3525.05060375 402.5416650000001 3524.92465875 474.0208349999999C3525.05060375 545.5 3574.7982437500004 583.5 3631.30484875 583.5833335L3631.30484875 583.5833335zM3228.1180587500003 667.4791665C3171.54847875 667.5625 3130.72182875 642.2291665 3099.73975375 604.3333335C3078.18244375 642.4375 3039.41286875 667.6041665 2985.9289037500002 667.4791665C2932.10909375 667.5833335 2898.60814875 641.25 2874.46899875 611.3541665L2874.46899875 667.4791665L2778.01734875 667.4791665L2778.01734875 277.0208350000001L2874.46899875 277.0208350000001L2874.46899875 489.770835C2874.84682875 546.7916665 2905.61899875 579.375 2951.31546375 579.6458335C2997.0748937500002 579.25 3023.29211375 549.9375 3023.8168787500003 492.6249999999999L3023.8168787500003 277.0208350000001L3120.2475387500003 277.0208350000001L3120.2475387500003 490.479165C3120.68833875 549.625 3151.92230375 579.2916665 3197.11498875 579.6458335C3243.65107375 579.1875 3269.0496587500006 550.75 3269.6164037500002 491.916665L3269.6164037500002 277.0208350000001L3366.0470637500002 277.0208350000001L3366.0470637500002 518.3958335C3366.06805875 565.3333335 3353.2008387500005 602.7291665 3329.2296137499998 628.375C3305.27937875 654.0416665 3270.4980087500003 667.5208335 3228.1180587500003 667.4791665M3895.28220875 809.8958335L3991.71286875 809.8958335L3991.71286875 277.3958350000001L3895.28220875 277.3958350000001L3895.28220875 809.8958335zM1569.80036875 419L1488.2939987500001 667.6041665L1407.33338875 667.6041665L1326.56168875 419.166665L1253.4095637500002 667.4791665L1154.2501337500003 667.4791665L1280.4664037500002 277.3541650000001L1365.03739375 277.3541650000001L1447.4463587500002 525.4583335L1529.1626337500002 277.3541650000001L1613.73362375 277.3541650000001L1741.41923375 667.4791665L1644.4008387500003 667.4791665L1569.80036875 419M1814.10956375 277.25L1910.5402287500003 277.25L1910.5402287500003 667.5208335L1814.10956375 667.5208335L1814.10956375 277.25zM2165.9534337500004 512C2120.63480375 525.9375 2081.94918875 533.4166665 2083.39753875 555.0625L2083.39753875 556.5C2083.48149875 575.4791665 2099.43432875 589.5 2132.13763375 589.8333335C2162.53197375 589.875 2200.9027287500003 576.625 2237.1114537500002 554.75L2241.20461375 552.25L2280.22607375 621.6666665L2276.6786687500003 624C2235.5161687500004 650.9791665 2182.9348037500004 667.6458335 2134.29965875 667.6666665C2056.9914037500002 667.5625 1994.29258375 622.3958335 1994.16664375 547.8958335L1994.16664375 546.4791665C1994.2506037500004 470.729165 2060.43385875 452.1875 2116.45767875 436.6875C2161.83928375 423.3541650000001 2199.43338875 415.8125 2198.15296375 391.8125L2198.15296375 390.3958350000001C2198.06899875 368.6458349999999 2180.2060287500003 355.3333350000001 2143.68244375 354.9375C2105.9833887500004 354.916665 2062.15508375 370.25 2021.74824375 400.5208350000001L2017.80201875 403.479165L1973.8267837500005 337.2083349999999L1977.18527375 334.5833350000001C2025.6314987500004 296.7083350000001 2086.35720875 277.125 2141.49942375 277.104165C2222.08220875 277.2083350000001 2287.25791375 317.375 2287.38385875 399.6875L2287.38385875 401.125C2287.19494375 472.708335 2221.26357375 494.958335 2165.9534337500004 512M2712.3798487500003 462.9375L2712.3378687500003 462.3958349999999C2711.01546375 572.0833335 2648.31664375 667.6458335 2525.47984875 667.8541665C2413.8730087500003 667.6458335 2335.07442375 582.2916665 2334.88550875 471.4375C2335.0954137500003 351.791665 2422.2692337500002 277.8125 2534.84164375 277.604165C2606.02064875 277.5208350000001 2657.42654875 306.25 2694.0970637500004 350.0833349999999L2636.14211375 401.375C2606.2725387500004 372.541665 2577.5994237500004 357.6875 2536.28998875 357.604165C2483.7506037499998 357.8125 2444.1623937500003 375.125 2432.57560375 431.2083350000001L2710.63763375 431.2083350000001L2712.6527287500003 431.2083350000001C2712.6737187500003 450.8125 2712.6737187500003 457 2712.3798487500003 462.9375L2712.3798487500003 462.9375zM2431.65201875 497.583335C2441.01381375 551.75 2475.69022875 587.7916665 2524.76616875 587.875C2577.89329375 587.75 2608.5814987500003 549.4166665 2615.8862187500004 497.583335L2431.65201875 497.583335L2431.65201875 497.583335zM1814.06758375 809.9166665L1911.08597875 809.9166665L1911.08597875 713.625L1814.06758375 713.625L1814.06758375 809.9166665zM591.3686787500001 988.9561344L78.9595847500001 823.88681L78.7936222500001 823.722091L78.8143672500001 823.4956015L204.7798747500001 589.6559715000001L204.9873277500001 589.511842L205.2155262500001 589.5942015L591.6591137500001 988.52374625L591.7006037500001 988.85318485L591.3686787500001 988.9561344M639.8712087500002 922.615438L454.24219775 730.9439474999999L454.5741227500001 730.779228L957.25366875 488.785995L639.8712087500002 922.615438M667.0683087500001 538.7782990000001L590.6633387500001 -9.38693L907.4649337500002 423.1041750000001L667.0683087500001 538.7782990000001M667.0683087500001 538.7782990000001L666.7778737500001 538.8194785L590.2276887500001 -10.3958349999999L907.87983875 423.207125L666.8401087500001 539.1900969999999L666.7778737500001 538.8194785L667.0683087500001 538.7782990000001L666.9438337500002 538.5518099999999L907.0292787499998 423.001225L591.0989937500001 -8.3368399999999L667.3379987500001 538.757709L667.0683087500001 538.7782990000001L666.9438337500002 538.5518099999999L667.0683087500001 538.7782990000001M548.4258937500001 279.468945L-1.5322087499999 181.996305L512.1216037500002 16.165155L548.7993087500001 279.530715L548.4258937500001 279.468945M263.6965482500001 310.827385L0.3348689500001 799.8172030000001L0.1689064500001 263.738255L263.8625107500002 310.497945L263.6965482500001 310.827385" />
    <glyph glyph-name="wisembly"
      unicode="&#xE027;"
      horiz-adv-x="1000" d="M698.23253675 535.603435L698.14130175 535.645835L698.2717367500001 535.875L697.96739175 535.916665L698.0326067500001 536.291665L950.61956175 418.9375L617.74999675 -19.791665L697.96739175 535.916665L698.2717367500001 535.875L698.14130175 535.645835L698.2717367500001 535.875L698.55434675 535.854165L698.53940675 535.75064L698.2717367500001 535.875L698.23253675 535.603435L698.23253675 535.603435zM275.57608675 305.2291650000001L-0.40217525 800L-0.57608825 257.5833350000001L275.7499967499999 304.8958349999999L275.57608675 305.2291650000001zM573.9456517499999 273.5L-2.35869675 174.8749999999999L535.90217175 7.0833349999999L574.3369567499999 273.5625000000001L573.9456517499999 273.5zM669.77173675 924.25L475.2499967499999 730.3125L475.59782675 730.145835L1002.35869675 485.291665L669.77173675 924.25zM618.94565175 991.375L81.98912925 824.3541665L81.81521625 824.1875L81.83695525 823.9583335L213.83695675 587.354165L214.05434675 587.208335L214.29347675 587.291665L619.24999675 990.9375L619.29347675 991.2708335L618.94565175 991.375z" />
  </font>
</defs>
</svg>
