<?xml version="1.0" encoding="UTF-8"?><!DOCTYPE svg PUBLIC "-//W3C//DTD SVG 1.1//EN" "http://www.w3.org/Graphics/SVG/1.1/DTD/svg11.dtd"><svg xmlns="http://www.w3.org/2000/svg"><symbol id="academicHat" viewBox="0 0 20 20"><path class="st0" d="M20 7.3c0-.4-.3-.8-.6-.9l-9-3.4c-.2-.1-.5-.1-.7 0l-9 3.4c-.4.1-.7.5-.7.9s.2.8.6.9l4 1.7v6c0 .5.4 1 1 1h8.8c.3 0 .5-.1.7-.3s.3-.4.3-.7v-6l1.3-.5v2.5c0 .6.5 1 1 1s1-.4 1-1V8.5l.7-.3c.4-.1.6-.5.6-.9zm-6.6 3.5v4.1H6.6v-4.1l3 1.2c.2.1.5.1.7 0h.1l.5-.2 2.5-1zm-3.2-.9l-.2.1-6.3-2.7L10 5l6.3 2.4-6.1 2.5z"/></symbol><symbol id="addUser" viewBox="0 0 20 20"><path class="st0" d="M2 20h9.5c.6 0 1-.5 1-1s-.4-1-1-1H3v-1c0-.2 0-.3.1-.5.2-.3.5-.6 1-1 .8-.5 1.8-.9 2.9-1.2 1.1-.3 2.2-.4 3-.4.7 0 1.7.1 2.7.4.5.1 1.1-.2 1.2-.8.1-.5-.2-1.1-.8-1.2-1-.2-2.2-.3-3.1-.3-1.5 0-3.5.3-5.4 1.1-.9.4-1.8.8-2.4 1.4-.3.3-.6.7-.9 1.1S1 16.5 1 17v2c0 .3.1.5.3.7s.5.3.7.3zM10 10c2.8 0 5-2.2 5-5s-2.2-5-5-5-5 2.2-5 5 2.3 5 5 5zm0-8c1.7 0 3 1.3 3 3s-1.3 3-3 3-3-1.3-3-3 1.4-3 3-3zM14.3 16.1c-.6 0-1 .5-1 1s.4 1 1 1h.9v.9c0 .5.4 1 1 1s1-.5 1-1v-.9h.8c.5 0 1-.5 1-1s-.5-1-1-1h-.9v-.9c0-.6-.5-1-1-1-.6 0-1 .4-1 1v.9h-.8z"/></symbol><symbol id="alarmClock" viewBox="0 0 20 20"><path class="st0" d="M9.9 6c-.6 0-1 .4-1 1v2.4l-2 2.3c-.4.4-.3 1 .1 1.3s1 .3 1.4-.1l2.2-2.6c.1-.1.1-.1.1-.2V10c0-.1 0-.1.1-.2V7c.1-.6-.4-1-.9-1z"/><path class="st0" d="M15.4.3C14 .3 12.8.9 12 1.8c-.6-.1-1.3-.2-2-.2s-1.3 0-2 .2C7.2.9 6 .3 4.6.3 2.1.3 0 2.3 0 4.9c0 1.3.6 2.6 1.5 3.4-.1.6-.2 1.3-.2 2 0 2.2.9 4.3 2.2 5.8l-1.7 2c-.4.4-.3 1 .1 1.4s1.1.3 1.4-.1l1.7-2c1.4 1 3.1 1.6 5 1.6s3.6-.6 5-1.6l1.7 2c.4.4 1 .5 1.4.1.4-.4.5-1 .1-1.4L16.5 16c1.4-1.5 2.2-3.6 2.2-5.8 0-.7-.1-1.3-.2-2 .9-.7 1.5-2 1.5-3.3C20 2.3 17.9.3 15.4.3zM2 4.9c0-1.4 1.2-2.6 2.6-2.6.5 0 .9.1 1.2.3-1.5.8-2.7 2-3.5 3.5-.2-.3-.3-.8-.3-1.2zM14.7 15c-1.2 1.2-2.9 2-4.7 2-1.9 0-3.5-.8-4.7-2-1.2-1.2-2-2.9-2-4.7 0-1.9.8-3.5 2-4.7 1.2-1.2 2.9-2 4.7-2s3.5.8 4.7 2c1.2 1.2 2 2.9 2 4.7 0 1.8-.8 3.5-2 4.7zm-.6-12.4c.4-.2.8-.3 1.3-.3 1.4 0 2.6 1.2 2.6 2.6 0 .5-.1.9-.3 1.3-.8-1.6-2.1-2.8-3.6-3.6z"/></symbol><symbol id="alert" viewBox="0 0 20 20"><path class="st0" d="M10 0C4.5 0 0 4.5 0 10s4.5 10 10 10 10-4.5 10-10S15.5 0 10 0zm5.7 15.7C14.2 17.1 12.2 18 10 18s-4.2-.9-5.7-2.3S2 12.2 2 10s.9-4.2 2.3-5.7S7.8 2 10 2s4.2.9 5.7 2.3S18 7.8 18 10s-.9 4.2-2.3 5.7z"/><path class="st0" d="M12.7 8.4h-2.3l.9-2.5v-.3c-.1-.1-.2-.2-.3-.2H9c-.2 0-.3.1-.4.2L7 10.3c0 .1 0 .2.1.3s.2.2.3.2h2.1v3.4c0 .2.1.3.3.4.2 0 .3 0 .4-.2L13 8.9c.1-.1.1-.3 0-.4s-.2-.1-.3-.1z"/></symbol><symbol id="altDragVertical" viewBox="0 0 20 20"><path class="st0" d="M6.6 4.4h6.8c.1 0 .3-.1.3-.2.1-.1 0-.3-.1-.4L10.2.1c0-.1-.1-.1-.2-.1s-.2 0-.3.1L6.3 3.8c-.1.1-.1.2 0 .4 0 .1.2.2.3.2zM9.7 19.9c.1.1.2.1.3.1.1 0 .2 0 .3-.1l3.4-3.6c.1-.1.1-.3.1-.4s-.2-.2-.3-.2H6.6c-.2 0-.3.1-.3.2-.1.1 0 .3.1.4l3.3 3.6z"/><circle class="st0" cx="7.8" cy="7.7" r="1.2"/><circle class="st0" cx="3.3" cy="7.7" r="1.2"/><circle class="st0" cx="12.2" cy="7.7" r="1.2"/><circle class="st0" cx="16.7" cy="7.7" r="1.2"/><circle class="st0" cx="7.8" cy="12.2" r="1.2"/><circle class="st0" cx="3.3" cy="12.3" r="1.3"/><circle class="st0" cx="12.2" cy="12.3" r="1.2"/><circle class="st0" cx="16.7" cy="12.3" r="1.2"/></symbol><symbol id="appearIn" viewBox="0 0 20 20"><path class="st0" d="M19.5 11.9c.2.1.5 0 .5-.2V2.6c0-.2-.2-.3-.4-.2l-1.5 1.1c-.3.2-.5.6-.5.9v5.5c0 .4.1.7.5.9l1.4 1.1zM1.3 14.5h3.5l5.3 3.2v-3.2h3.3c.7 0 1.4-.6 1.4-1.3v-.9h.7c.6 0 1-.6 1-1.1v-8c0-.6-.4-.9-1-.9H3.4c-.6 0-1 .4-1 .9V4H1.3C.6 4.1 0 4.6 0 5.3v7.9c0 .7.6 1.3 1.3 1.3zM.5 5.3c0-.4.4-.7.8-.7h12.1c.4 0 .8.3.8.7v7.9c0 .4-.4.8-.8.8H9.6v2.8L4.9 14H1.3c-.4 0-.8-.4-.8-.8V5.3z"/><path class="st0" d="M7.2 11.9c.7 0 1.3-.4 1.7-.9H9v.8h.9v-5h-1v.9c-.4-.6-1-1-1.7-1-1.4 0-2.3 1.2-2.3 2.5-.1 1.4.8 2.7 2.3 2.7zm.1-4.4c1 0 1.6.8 1.6 1.7 0 1-.6 1.8-1.6 1.8s-1.6-.8-1.6-1.8c.1-.9.6-1.7 1.6-1.7z"/></symbol><symbol id="apple" viewBox="0 0 20 20"><path class="st0" d="M6.7 4.8c-.9 0-1.7.2-2.4.7S2.9 6.6 2.5 7.3c-.6 1-.9 2.1-.9 3.5 0 1.2.2 2.4.6 3.6.4 1.2.9 2.2 1.5 3 .6.8 1.1 1.4 1.4 1.7.7.7 1.3.9 1.9.9.4 0 .9-.1 1.6-.4s1.3-.4 1.8-.4 1.1.1 1.8.4 1.2.4 1.6.4c.6 0 1.2-.3 1.8-.8.4-.3.8-.9 1.4-1.7.4-.6.8-1.2 1.1-1.9.1-.3.2-.6.4-.9-.5-.2-1-.5-1.4-.9-.9-.8-1.4-1.9-1.4-3.2 0-1.6.7-2.9 2.2-3.8-.8-1.2-2.1-1.9-3.8-2-.6-.1-1.4.1-2.3.4-.9.3-1.5.5-1.7.5-.2 0-.7-.2-1.5-.4-.8-.4-1.4-.5-1.9-.5zM13.1 3.2c.7-.9 1.1-1.8 1.1-2.8V0c-.5 0-1.1.2-1.6.5s-1 .6-1.4 1.1c-.8.8-1.2 1.8-1.2 2.7v.4c1.2.1 2.2-.5 3.1-1.5z"/></symbol><symbol id="archive" viewBox="0 0 20 20"><path class="st0" d="M19.8 10l-5.6-8.6c-.2-.2-.5-.4-.8-.4H6.7c-.4 0-.7.2-.9.5L.2 10c-.1.1-.1.3-.2.5V18c0 .3.1.5.3.7s.4.3.7.3h18c.3 0 .5-.1.7-.3s.3-.4.3-.7v-7.1-.2c0-.3-.1-.5-.2-.7zm-7-7l4.5 6.9h-3.8c-.4 0-.8.3-.9.7v.2c-.3 1.1-1.3 1.9-2.5 1.9s-2.2-.8-2.5-1.9c0-.1 0-.1-.1-.2-.1-.4-.5-.7-.9-.7H2.7L7.2 3h5.6zm.7 7.7zM18 17H2v-5.1h3.7c.7 1.6 2.3 2.7 4.2 2.7 1.9 0 3.5-1.1 4.2-2.7H18V17z"/><path class="st0" d="M8.1 5.9h3.7c.6 0 1-.4 1-1s-.4-1-1-1H8.1c-.6 0-1 .4-1 1s.5 1 1 1zM6.6 8.9h6.8c.6 0 1-.4 1-1s-.4-1-1-1H6.6c-.6 0-1 .4-1 1s.4 1 1 1z"/></symbol><symbol id="arrowDown" viewBox="0 0 20 20"><path class="st0" d="M19.7 4.4c-.4-.4-1-.3-1.4.1L10 13.4l-8.3-9c-.4-.4-1-.4-1.4 0-.4.4-.4 1 0 1.4l9 9.7c.2.2.5.3.7.3.3 0 .6-.1.7-.3l9-9.7c.4-.4.4-1 0-1.4z"/></symbol><symbol id="arrowFirst" viewBox="0 0 20 20"><path class="st0" d="M10.1 19.7c.4.4 1 .4 1.4-.1s.4-1-.1-1.4L2.5 10l8.9-8.3c.4-.4.4-1 .1-1.4s-1-.4-1.4-.1l-9.8 9c-.2.2-.3.5-.3.8s.1.6.3.7l9.8 9z"/><path class="st0" d="M8.2 10c0 .3.1.6.3.7l9.8 9c.3.3.7.3 1.1.2s.6-.5.6-.9V1c0-.4-.2-.8-.6-.9s-.8-.1-1.1.2l-9.8 9c-.1.1-.3.4-.3.7zM18 3.3v13.4L10.7 10 18 3.3z"/></symbol><symbol id="arrowLast" viewBox="0 0 20 20"><path class="st0" d="M8.5.3c-.4.4-.4 1 .1 1.4l8.9 8.3-8.9 8.3c-.4.4-.4 1-.1 1.4s1 .4 1.4.1l9.7-9c.2-.2.3-.5.3-.7 0-.3-.1-.6-.3-.7L9.9.4c-.4-.5-1-.5-1.4-.1z"/><path class="st0" d="M.6 19.9c.4.2.8.1 1.1-.2l9.8-9c.2-.2.3-.5.3-.7 0-.3-.1-.6-.3-.7L1.7.3C1.4 0 1-.1.6.1.2.2 0 .6 0 1v18c0 .4.2.8.6.9zM9.3 10L2 16.7V3.3L9.3 10z"/></symbol><symbol id="arrowLeft" viewBox="0 0 20 20"><path class="st0" d="M15.7.3c-.4-.4-1-.4-1.4-.1l-9.7 9c-.3.2-.4.5-.4.8s.1.6.3.7l9.7 9c.4.4 1 .4 1.4 0 .4-.4.4-1-.1-1.4l-9-8.3 8.9-8.3c.6-.3.6-1 .3-1.4z"/></symbol><symbol id="arrowRight" viewBox="0 0 20 20"><path class="st0" d="M4.4 19.7c.4.4 1 .4 1.4.1l9.7-9c.2-.2.3-.5.3-.7s-.1-.6-.3-.7L5.8.4c-.4-.4-1-.4-1.4 0-.4.3-.3 1 .1 1.3l8.9 8.3-8.9 8.3c-.4.3-.5 1-.1 1.4z"/></symbol><symbol id="arrowUp" viewBox="0 0 20 20"><path class="st0" d="M19.7 15.6c.4-.4.4-1 .1-1.4l-9-9.7c-.2-.2-.5-.3-.7-.3-.3 0-.6.1-.7.3l-9 9.7c-.4.4-.3 1 .1 1.4s1 .4 1.4-.1L10 6.6l8.3 8.9c.3.4 1 .5 1.4.1z"/></symbol><symbol id="aside" viewBox="0 0 20 20"><path class="st0" d="M2.3 19h15.4c1.3 0 2.3-1 2.3-2.3V3.3C20 2 19 1 17.7 1H2.3C1 1 0 2 0 3.3v13.4C0 18 1 19 2.3 19zM2 3.3l.1-.2.2-.1h15.4l.2.1.1.2v13.4l-.1.2-.2.1H2.3l-.2-.1-.1-.2V3.3z"/><path class="st0" d="M10.1 5.3H16v9.4h-5.9z"/></symbol><symbol id="audio" viewBox="0 0 20 20"><path class="st0" d="M1.4 1.8v16.5c0 1 .8 1.8 1.8 1.8h13.6c1 0 1.8-.8 1.8-1.8V1.8c0-1-.8-1.8-1.8-1.8H3.2c-1 0-1.8.8-1.8 1.8zm15.7 0v16.5c0 .1-.1.3-.3.3H3.2c-.1 0-.3-.1-.3-.3V1.8c0-.1.1-.3.3-.3h13.6c.2 0 .3.1.3.3z"/><path class="st0" d="M5.7 9.7h1.5l1.5 1.2c.2.1.5.1.8 0 .3-.1.4-.4.4-.7V5.7c0-.3-.2-.6-.4-.7-.3-.1-.6-.1-.8.1L7.2 6.2H5.7c-.2 0-.4.1-.5.2s-.3.4-.3.6v2c0 .2.1.4.2.5s.4.2.6.2zm1.8-2c.2 0 .3-.1.5-.2l.4-.3v1.5l-.5-.4c-.2-.1-.3-.1-.5-.1h-1v-.5h1.1zM10.8 7s.1.1.2.3.2.4.2.7c0 .3-.1.6-.4 1-.2.3-.2.8.2 1 .3.2.8.2 1.1-.2.5-.6.6-1.3.6-1.9 0-.6-.2-1-.3-1.4S12 6.1 12 6c-.3-.3-.8-.3-1.1-.1-.3.3-.3.8-.1 1.1zM13.2 7s.1.1.2.3.2.4.2.7c0 .3-.1.6-.4 1-.2.3-.2.8.2 1 .3.2.8.2 1.1-.2.5-.6.6-1.3.6-1.9 0-.6-.2-1-.3-1.4s-.4-.4-.4-.5c-.3-.3-.8-.3-1.1-.1-.3.3-.3.8-.1 1.1z"/></symbol><symbol id="azure" viewBox="0 0 20 20"><path fill="#3A434C" d="M1.56 16.09L12.48 20l6.02-1.72V1.79L12.41 0 1.5 4.1v11.97l3.7-1.45V4.9l7.25-1.66v14.35z"/></symbol><symbol id="badge" viewBox="0 0 13.8 20"><path class="st0" d="M3.3 12.7V19c0 .4.2.8.6.9.3.2.8.1 1.1-.2l1.9-2 1.9 1.9c.3.3.7.4 1.1.2.4-.2.6-.5.6-.9v-6.2c1.9-1.2 3.3-3.4 3.3-5.8 0-3.8-3.1-6.9-6.9-6.9S0 3.1 0 6.9c0 2.5 1.3 4.6 3.3 5.8zm5.2 3.8l-.9-.9c-.4-.4-1-.4-1.4 0l-.9.9v-3c.5.1 1.1.2 1.6.2s1.1-.1 1.6-.2v3zM3.4 3.4C4.3 2.5 5.5 2 6.9 2s2.6.5 3.5 1.4c.9.9 1.4 2.1 1.4 3.5s-.5 2.6-1.4 3.4c-.9.9-2.1 1.4-3.4 1.4s-2.6-.5-3.5-1.4C2.6 9.4 2 8.2 2 6.9c0-1.4.5-2.6 1.4-3.5z"/><circle class="st0" cx="6.9" cy="6.9" r="1.2"/></symbol><symbol id="bar" viewBox="0 0 2 20"><path fill="#3A434C" d="M0 1v18c0 .55.45 1 1 1s1-.45 1-1V1c0-.55-.45-1-1-1S0 .45 0 1z"/></symbol><symbol id="barDiagram" viewBox="0 0 20 20"><g fill="#3A434C"><path d="M12.01 12.88V19c0 .55.45 1 1 1s1-.45 1-1v-6.12c0-.55-.45-1-1-1s-1 .45-1 1zM19 3.15c-.55 0-1 .45-1 1V19c0 .55.45 1 1 1s1-.45 1-1V4.15c0-.55-.45-1-1-1zM5.99 1v18c0 .55.45 1 1 1s1-.45 1-1V1c0-.55-.45-1-1-1s-1 .45-1 1zM1 20c.55 0 1-.45 1-1V7.51c0-.55-.45-1-1-1s-1 .45-1 1V19c0 .55.45 1 1 1z"/></g></symbol><symbol id="bell" viewBox="0 0 20 20"><path class="st0" d="M.3 14.6l-.1.1c-.2.3-.3.7-.1 1.1.2.4.5.6.9.6h4.6C6 18.5 7.8 20 10 20s4-1.5 4.4-3.6H19c.4 0 .8-.2.9-.6s.1-.8-.2-1.1v-.1c-.2-.3-1.3-1.5-2.3-3.1-.5-.8-1-1.6-1.3-2.4-.3-.8-.5-1.5-.5-2V5.5c-.2-1.9-1.4-3.4-3.1-4.2C11.9.6 11 0 10 0c-.6 0-1.1.2-1.6.6-.3.2-.5.5-.7.8-1.6.7-2.7 2.2-3.1 3.9v.1s0 .3-.1.7v1.1c0 .5-.2 1.3-.6 2.1-.6 1.4-1.5 2.7-2.3 3.7-.4.5-.7.9-1 1.2-.1.2-.2.3-.3.4zM10 18c-1 0-1.9-.6-2.3-1.5h4.6c-.4.9-1.3 1.5-2.3 1.5zm-5.9-4.9c.6-.9 1.2-1.8 1.6-2.8.4-1 .8-2 .8-3v-1-.6c.2-1.1 1-2 2-2.4h2.9c1 .5 1.8 1.5 2 2.7v1.4c0 1 .4 2 .8 3 .7 1.5 1.7 2.9 2.5 4 0 .1.1.1.1.2H3.1c.3-.6.6-1 1-1.5z"/></symbol><symbol id="bill" viewBox="0 0 20 20"><path class="st0" d="M16.5 0h-13C2.2 0 1.2 1 1.2 2.3V19c0 .4.3.8.6.9s.8 0 1.1-.3L6.1 16l3.1 3.7c.2.2.5.3.8.3.3 0 .6-.1.8-.4l3.1-3.7 3.1 3.7c.3.3.7.4 1.1.3.4-.1.6-.5.6-.9V2.3C18.8 1 17.8 0 16.5 0zm.3 16.3l-2.1-2.5c-.2-.2-.5-.4-.8-.4s-.6.1-.8.4L10 17.5l-3.1-3.7c-.2-.2-.5-.4-.8-.4-.3 0-.6.1-.8.4l-2.1 2.5v-14l.1-.2.2-.1h13l.2.1.1.2v14z"/><path class="st0" d="M13.6 4.2H6.5c-.6 0-1 .4-1 1s.4 1 1 1h7.1c.6 0 1-.4 1-1s-.5-1-1-1zM13.6 7.8H6.5c-.6 0-1 .5-1 1s.4 1 1 1h7.1c.6 0 1-.4 1-1s-.5-1-1-1z"/></symbol><symbol id="brush" viewBox="0 0 20 20"><path class="st0" d="M.8 19.8c1 .2 1.9.2 2.7.2 1.7 0 3-.4 4-.9 1.6-.9 2.3-2.2 2.7-3.2.4-1.1.4-1.9.4-1.9 0-.3-.1-.5-.3-.7l-2.9-3c-.2-.3-.5-.4-.9-.3-.1 0-.6.1-1.2.5s-1.4 1.1-1.9 2.1c-.7 1.7-1 3.1-1.3 3.9-.2.4-.3.7-.5.9-.2.2-.4.3-.8.4-.5.1-.8.5-.8 1s.4.9.8 1zm4.5-6.4c.2-.6.6-.9 1.1-1.2.1 0 .1-.1.2-.1l2.1 2.2c-.1.4-.2 1.1-.7 1.8-.3.5-.8 1-1.5 1.3-.7.4-1.6.6-3 .6.3-.5.5-1 .7-1.6.4-.8.6-1.8 1.1-3zM11.4 7.5l-2.5.2c-.3.1-.7.3-.8.7-.1.3 0 .7.2 1l2.7 2.9c.3.3.7.4 1.1.3s.6-.5.7-.9l.2-3 6.7-7c.4-.4.4-1 0-1.4s-1-.4-1.4 0l-6.9 7.2z"/></symbol><symbol id="bug" viewBox="0 0 20 20"><path class="st0" d="M19 12.8c.6 0 1-.4 1-1s-.4-1-1-1h-2c-.1-.5-.2-.9-.3-1.4l3-3c.3-.4.3-1.1-.1-1.4-.4-.3-.9-.3-1.3 0l-2.6 2.6c-.3-.4-.7-.8-1.1-1.2v-.1c0-1.2-.5-2.3-1.3-3.2l1.4-1.4c.4-.4.3-1.1-.1-1.4-.4-.3-.9-.3-1.3 0L11.7 2c-1-.4-2-.4-3-.1L7.1.3c-.4-.4-1-.4-1.4 0s-.4 1 0 1.4l1.2 1.2c-1 .9-1.5 2.1-1.5 3.4v.1c-.4.3-.8.7-1.1 1.1L1.7 4.9c-.4-.3-1.1-.2-1.4.2-.3.4-.3.9 0 1.3l3 3c-.2.4-.3.9-.3 1.4H1c-.6 0-1 .4-1 1s.4 1 1 1h2c.1.8.3 1.5.7 2.2L.3 18.4c-.4.4-.5 1-.1 1.4s1 .5 1.4.1l.1-.1 3.2-3.1c2.7 2.8 7.1 3 10 .3l.3-.3 3.1 3.1c.4.4 1.1.3 1.4-.1.3-.4.3-.9 0-1.3L16.3 15c.3-.7.6-1.4.7-2.2h2zm-9-9.2c1 0 1.9.5 2.3 1.4-1.5-.5-3.1-.5-4.6 0C8.1 4.2 9 3.7 10 3.6zm-5.1 8.2c0-2.4 1.7-4.5 4.1-5v10c-2.4-.5-4.1-2.6-4.1-5zm6.1 5v-10c2.8.5 4.6 3.2 4.1 5.9-.4 2-2 3.7-4.1 4.1z"/></symbol><symbol id="bulb" viewBox="0 0 20 20"><path class="st0" d="M10 0C8.2 0 6.5.8 5.3 2S3.4 4.8 3.4 6.6c0 1 .2 1.9.6 2.6s.7 1.3 1 1.8c.3.4.5.7.6.9.1.3.2.5.2.7v1.5c0 .3.1.6.4.8.2.2.4.2.7.2H13.1c.2 0 .5-.1.7-.2.2-.2.4-.5.4-.8v-1.5c0-.3.1-.5.2-.7.1-.3.4-.6.6-.9.4-.5.8-1 1.1-1.7s.6-1.6.6-2.6c0-1.8-.7-3.5-1.9-4.7-1.3-1.2-3-2-4.8-2zm4.3 8.4c-.2.5-.5.9-.9 1.4-.3.4-.6.7-.8 1.2-.2.5-.4 1-.4 1.7v.5H7.8v-.5c0-.6-.2-1.2-.4-1.7s-.5-.8-.8-1.2c-.3-.5-.6-.9-.9-1.4-.2-.5-.4-1-.4-1.7 0-1.3.5-2.4 1.4-3.3.9-.9 2-1.4 3.3-1.4s2.4.5 3.3 1.4c.8.8 1.4 2 1.4 3.3-.1.7-.2 1.2-.4 1.7zM11.8 16.8H8.2c-.3 0-.6.1-.8.4s-.3.5-.2.8c.1.7.5 1.2 1 1.6.5.2 1.1.4 1.8.4s1.3-.2 1.8-.5.9-.9 1-1.6c0-.3 0-.6-.2-.8-.2-.2-.5-.3-.8-.3z"/></symbol><symbol id="calendar" viewBox="0 0 20 20"><path class="st0" d="M2.3 20h15.5c1.2 0 2.3-1 2.3-2.3V4.1c0-1.2-1-2.3-2.3-2.3H14V1c0-.6-.4-1-1-1s-1 .4-1 1v.8H8V1c0-.6-.4-1-1-1S6 .4 6 1v.8H2.3C1 1.8 0 2.8 0 4.1v13.6C0 19 1 20 2.3 20zM2 4.1l.1-.2.2-.1h3.8v.8c0 .6.4 1 1 1s1-.4 1-1v-.8h4v.8c0 .6.4 1 1 1s1-.4 1-1v-.8h3.7l.2.1V17.7l-.1.2-.2.1H2.3l-.2-.1-.1-.2V4.1z"/><circle class="st0" cx="8.5" cy="8.8" r="1"/><circle class="st0" cx="5.6" cy="8.8" r="1"/><circle class="st0" cx="11.5" cy="8.8" r="1"/><circle class="st0" cx="14.4" cy="8.8" r="1"/><circle class="st0" cx="8.5" cy="11.7" r="1"/><circle class="st0" cx="5.6" cy="11.7" r="1"/><circle class="st0" cx="11.5" cy="11.7" r="1"/><circle class="st0" cx="14.4" cy="11.7" r="1"/><circle class="st0" cx="8.5" cy="14.6" r="1"/><circle class="st0" cx="5.6" cy="14.6" r="1"/><circle class="st0" cx="11.5" cy="14.6" r="1"/><circle class="st0" cx="14.4" cy="14.6" r="1"/></symbol><symbol id="camera" viewBox="0 0 20 20"><path class="st0" d="M19.5 5c-.3-.2-.7-.2-1 0l-5.4 3.5V6.2c0-.8-.6-1.4-1.4-1.4H1.4C.6 4.8 0 5.5 0 6.2v7.5c0 .8.6 1.4 1.4 1.4h10.3c.8 0 1.4-.6 1.4-1.4v-2.4l5.4 3.6c.3.2.7.2 1 .1.3-.2.5-.5.5-.9V5.9c0-.4-.2-.7-.5-.9zm-8.4 1.8v6.3H2V6.8h9.1zm3.4 3.2L18 7.7v4.6L14.5 10z"/></symbol><symbol id="checkbox" viewBox="0 0 20 20"><path class="st0" d="M1.8 20h16.4c1 0 1.8-.8 1.8-1.8V1.8c0-1-.8-1.8-1.8-1.8H1.8C.8 0 0 .8 0 1.8v16.4c0 1 .8 1.8 1.8 1.8zM1 1.8c0-.4.4-.8.8-.8h16.4c.4 0 .8.4.8.8v16.4c0 .4-.4.8-.8.8H1.8c-.4 0-.8-.4-.8-.8V1.8z"/></symbol><symbol id="checkedCheckbox" viewBox="0 0 20 20"><path class="st0" d="M18.2 0H1.8C.8 0 0 .8 0 1.8v16.4c0 1 .8 1.8 1.8 1.8h16.4c1 0 1.8-.8 1.8-1.8V1.8c0-1-.8-1.8-1.8-1.8zm.8 18.2c0 .4-.4.8-.8.8H1.8c-.4 0-.8-.4-.8-.8V1.8c0-.4.4-.8.8-.8h16.4c.4 0 .8.4.8.8v16.4z"/><path class="st0" d="M12.8 7L9 10.9 7.2 9.1c-.4-.4-1-.4-1.4 0s-.4 1 0 1.4L8.4 13c.4.4 1 .4 1.4 0l4.5-4.5c.4-.4.4-1 0-1.4-.5-.4-1.1-.4-1.5-.1z"/></symbol><symbol id="checkedRadio" viewBox="0 0 20 20"><path class="st0" d="M10 20c5.5 0 10-4.5 10-10S15.5 0 10 0 0 4.5 0 10s4.5 10 10 10zM3.6 3.6C5.3 2 7.5 1 10 1s4.7 1 6.4 2.6C18 5.3 19 7.5 19 10s-1 4.7-2.6 6.4C14.7 18 12.5 19 10 19s-4.7-1-6.4-2.6C2 14.7 1 12.5 1 10s1-4.7 2.6-6.4z"/><circle class="st0" cx="10" cy="10" r="3"/></symbol><symbol id="checkmark" viewBox="0 0 20 20"><path class="st0" d="M18.3 3.5L7.5 14.4 1.7 8.9c-.4-.4-1-.4-1.4 0s-.4 1 0 1.4l6.5 6.2c.4.4 1 .4 1.4 0L19.7 4.9c.4-.4.4-1 0-1.4-.4-.4-1-.4-1.4 0z"/></symbol><symbol id="chrome" viewBox="0 0 32 32"><path d="M16 0c5.7 0 11.4 3 14.3 8.7H17.9c-2.2 0-3.7-.1-5.2.8-1.8 1-3.2 2.8-3.7 4.9L3.9 5.6C7.1 1.8 11.5 0 16 0zm5.3 16c0 2.9-2.4 5.3-5.3 5.3s-5.3-2.4-5.3-5.3 2.4-5.3 5.3-5.3 5.3 2.4 5.3 5.3zM0 15.9c0-3 .8-6 2.6-8.7 1.8 3.1 5.6 9.8 7.1 12.3 1.9 3.3 5.4 4.3 8.4 3.4l-5.2 8.7C5 30.1 0 23.2 0 15.9zM15 32c2-3.3 6-10.1 7.3-12.3 1.7-2.9 1.1-6.6-1.3-9h10.1c.6 1.8.9 3.6.9 5.3 0 8.8-7.4 16.6-17 16z"/></symbol><symbol id="clip" viewBox="0 0 10.7 20"><path fill="#3A434C" d="M10.7 8.52v-3.9c0-1.33-.66-2.52-1.64-3.33C8.08.48 6.77 0 5.35 0S2.62.48 1.64 1.29 0 3.29 0 4.62v10.76c0 .55.45 1 1 1s1-.45 1-1V4.62c0-.66.32-1.28.92-1.79.59-.5 1.46-.83 2.43-.83.97 0 1.84.33 2.43.83.6.5.92 1.13.92 1.79v11.79c0 .4-.18.78-.52 1.09-.33.3-.82.5-1.37.5-.55 0-1.04-.2-1.37-.51-.34-.31-.52-.68-.52-1.09V7.28c0-.15.06-.28.15-.37.09-.09.19-.14.3-.14.11 0 .21.04.3.14.09.09.15.22.15.37v7.97c0 .55.45 1 1 1s1-.45 1-1V7.28c0-.68-.27-1.3-.7-1.76-.44-.45-1.06-.75-1.75-.75s-1.31.3-1.75.75c-.44.45-.7 1.08-.7 1.76V16.4c0 1.02.47 1.94 1.18 2.58A4.04 4.04 0 0 0 6.81 20c1.04 0 2-.38 2.71-1.02.71-.63 1.18-1.55 1.18-2.58V8.52z"/></symbol><symbol id="clock" viewBox="0 0 20 20"><path class="st0" d="M10 0C4.5 0 0 4.5 0 10s4.5 10 10 10 10-4.5 10-10S15.5 0 10 0zm5.7 15.7C14.2 17.1 12.2 18 10 18s-4.2-.9-5.7-2.3S2 12.2 2 10s.9-4.2 2.3-5.7S7.8 2 10 2s4.2.9 5.7 2.3S18 7.8 18 10s-.9 4.2-2.3 5.7z"/><path class="st0" d="M11.4 8l-1.9 2-.9-1c-.4-.4-1-.4-1.4 0s-.4 1 0 1.4L8.9 12c.2.2.4.3.7.3.3 0 .5-.1.7-.3l2.6-2.7c.4-.4.4-1 0-1.4-.5-.4-1.1-.3-1.5.1z"/></symbol><symbol id="closedEye" viewBox="0 0 20 20"><path class="st0" d="M3.7 14.7L2 16.5c-.4.4-.4 1 0 1.4s1 .4 1.4 0l2.1-2.1c1.4.6 2.9 1 4.5 1 4.6 0 8.4-2.8 10-6.8-.8-2-2.1-3.6-3.8-4.8l1.6-1.6c.4-.4.4-1 0-1.4s-1-.4-1.4 0l-2 2c-1.3-.6-2.8-1-4.4-1C5.4 3.2 1.6 6 0 10c.8 1.9 2.1 3.5 3.7 4.7zm14.1-4.8c-1.5 2.9-4.5 4.8-7.8 4.8-1 0-2-.2-2.9-.5l1-1c.6.3 1.2.5 1.9.5 2.1 0 3.8-1.7 3.8-3.8 0-.7-.2-1.3-.5-1.9l1.5-1.5c1.2.9 2.3 2 3 3.4zm-9.6 0c0-1 .8-1.8 1.8-1.8h.3l-2.1 2.1v-.3zm3.6 0c0 1-.8 1.8-1.8 1.8-.1 0-.3 0-.4-.1l2.1-2.1c.1.2.1.3.1.4zM10 5.1c1 0 1.9.2 2.9.5l-1 1c-.5-.3-1.2-.5-1.8-.5-2.1 0-3.8 1.7-3.8 3.8 0 .7.2 1.3.5 1.8l-1.5 1.5c-1.2-.8-2.3-2-3-3.4C3.7 7 6.7 5.1 10 5.1z"/></symbol><symbol id="code" viewBox="0 0 20 20"><g fill="#3A434C"><path d="M7.17 5.75c.23-.2.33-.47.33-.75h.01c0-.1-.02-.2-.05-.3-.01-.03-.03-.06-.04-.09-.03-.08-.08-.15-.13-.22-.02-.02-.02-.04-.03-.06a.219.219 0 0 1-.05-.03c-.07-.07-.14-.12-.22-.17-.03-.01-.04-.03-.07-.04 0 0-.01 0-.01-.01-.1-.04-.21-.06-.32-.07H6.5c-.09 0-.17.01-.26.04-.03 0-.06.01-.09.03-.11.04-.21.1-.31.18 0 0-.01 0-.01.01l-5.5 5a.99.99 0 0 0-.32.73 1 1 0 0 0 .33.74l5.5 5s.01 0 .01.01c.09.08.2.14.31.18l.09.03c.08.02.17.03.26.04h.09c.11-.01.22-.03.32-.08 0 0 .01 0 .01-.01.02-.01.04-.03.06-.04.08-.05.16-.1.22-.17.01-.01.03-.02.05-.03.01-.02.02-.04.03-.05.05-.07.1-.14.13-.22.01-.03.03-.06.04-.09.03-.1.05-.2.05-.3H7.5c0-.27-.1-.55-.32-.74h-.01L2.49 10l4.68-4.25zM19.99 10a1 1 0 0 0-.33-.74l-5.5-5a.968.968 0 0 0-.31-.18l-.09-.03c-.08-.02-.17-.03-.26-.04h-.09c-.11.01-.22.03-.32.08 0 0-.01 0-.01.01-.02.01-.04.03-.06.04-.08.05-.16.1-.23.17-.01.01-.03.02-.05.03-.01.02-.02.04-.03.05a.98.98 0 0 0-.13.22c-.01.03-.03.06-.04.09-.03.1-.05.2-.05.3h.01c0 .27.1.55.32.74h.01L17.51 10l-4.67 4.25h-.01c-.22.2-.32.47-.32.74h-.01c0 .1.02.2.05.3.01.03.03.06.04.09a.8.8 0 0 0 .13.22c.01.02.02.04.03.05.01.01.03.02.05.03.07.07.14.12.23.17.02.01.04.03.06.04 0 0 .01 0 .01.01.1.05.21.07.32.08h.09c.09 0 .17-.01.26-.04l.09-.03c.11-.04.22-.1.31-.18l5.5-5c.2-.18.32-.45.32-.73z"/></g></symbol><symbol id="cog" viewBox="0 0 20 20"><path class="st0" d="M10 6.2c-2.1 0-3.8 1.7-3.8 3.8s1.7 3.8 3.8 3.8 3.8-1.7 3.8-3.8-1.7-3.8-3.8-3.8zm0 5.6c-1 0-1.8-.8-1.8-1.8S9 8.2 10 8.2s1.8.8 1.8 1.8-.8 1.8-1.8 1.8z"/><path class="st0" d="M1.1 12.9l1.4.1c0 .1.1.2.1.3l-.9.9c-.3.3-.4.9-.1 1.3.8 1.2 1.8 2.2 3 3 .4.2.9.2 1.2-.1l1.1-.9c.1 0 .2.1.3.1v1.3c0 .5.3.9.8 1 .6 0 1.3.1 2 .1s1.4-.1 2.1-.2c.4-.1.8-.5.8-.9l.1-1.4c.1 0 .2-.1.3-.1l.9.9c.3.3.9.4 1.3.1 1.2-.8 2.2-1.8 3-3 .2-.4.2-.9-.1-1.2l-.9-1.1c0-.1.1-.2.1-.3h1.3c.5 0 .9-.3 1-.8.1-.7.2-1.4.2-2.1 0-.7-.1-1.4-.2-2.1-.1-.4-.5-.8-.9-.8h-1.5c0-.1-.1-.2-.1-.3l.9-.9c.3-.3.4-.9.1-1.3-.8-1.2-1.8-2.2-3-3-.4-.2-.9-.2-1.2.1l-1 .9c-.1 0-.2-.1-.3-.1V1.1c0-.5-.3-.9-.8-1-.7 0-1.4-.1-2.1-.1-.7 0-1.4.1-2.1.2-.5.1-.8.5-.8.9L7 2.5c-.1 0-.2.1-.3.1l-.9-.9c-.3-.3-.8-.4-1.2-.1-1.2.8-2.2 1.8-3 3-.3.4-.2.9.1 1.2l.9 1.1c0 .1-.1.2-.1.3H1.2c-.5 0-.9.3-1 .8-.1.6-.2 1.3-.2 2s.1 1.4.2 2.1c.1.5.5.8.9.8zM5 3.8l.8.8c.3.3.8.3 1.2.1.4-.2.8-.4 1.2-.5.4-.1.7-.5.7-.9L9 2.1c.4-.1.7-.1 1-.1h.9v1.2c0 .5.3.9.7 1s.9.3 1.2.5c.4.2.8.2 1.1-.1l.9-.8c.5.4.9.8 1.3 1.3l-.8.8c-.2.2-.3.7 0 1.1.2.4.4.8.5 1.2.1.4.5.7.9.7l1.2.1c.1.4.1.7.1 1v.9h-1.1c-.5 0-.9.3-1 .7s-.3.9-.5 1.2c-.2.4-.1.8.1 1.1l.8.9c-.4.5-.8.9-1.3 1.3l-.8-.8c-.3-.3-.8-.4-1.2-.2-.4.2-.8.4-1.2.5-.4.1-.7.5-.7.9l-.1 1.4c-.4.1-.7.1-1 .1h-.9v-1.1c0-.5-.3-.9-.7-1-.4-.1-.8-.3-1.2-.5-.4-.2-.8-.1-1.1.1l-.9.8c-.5-.4-.9-.8-1.3-1.3l.8-.8c.3-.3.4-.8.2-1.2-.2-.4-.4-.8-.5-1.2-.1-.4-.5-.7-.9-.7L2.1 11c-.1-.4-.1-.7-.1-1v-.9h1.2c.5 0 .9-.3 1-.7s.3-.8.5-1.2c.2-.4.1-.9-.2-1.2l-.8-.9c.4-.5.8-1 1.3-1.3z"/></symbol><symbol id="comment" viewBox="0 0 20 20"><path class="st0" d="M6.8 9.2h6.4c.6 0 1-.4 1-1s-.4-1-1-1H6.8c-.6 0-1 .4-1 1s.4 1 1 1z"/><path class="st0" d="M.7.9C.2 1.4 0 2.1 0 2.8v10.8c0 .7.2 1.4.7 1.9.4.5 1.1.9 1.8.9h12.6l3.1 3.3c.3.3.7.4 1.1.2s.7-.5.7-.9V2.8c0-.7-.2-1.4-.7-1.9-.4-.5-1.1-.9-1.8-.9h-15C1.8 0 1.1.4.7.9zm17.1 1.3c.1.1.2.3.2.6v13.7l-1.7-1.8c-.2-.2-.4-.3-.7-.3h-13c-.1 0-.2 0-.3-.2-.2-.1-.3-.3-.3-.6V2.8c0-.3.1-.5.2-.6.1-.2.2-.2.3-.2h14.9c.2 0 .3 0 .4.2z"/></symbol><symbol id="company" viewBox="0 0 11 20"><path class="st0" d="M2.8 6.6h2v1.9h-2zM6.2 6.6h1.9v1.9H6.2zM2.8 9.8h2v1.9h-2zM6.2 9.8h1.9v1.9H6.2z"/><path class="st0" d="M10.8 3.8L5.9.2c-.2-.2-.5-.3-.8-.1s-.4.4-.4.7v3H.5c-.2-.1-.4 0-.5.2-.1.1-.2.3-.2.5v14.7c0 .2.1.4.2.5s.3.3.5.3h9.9c.2 0 .4-.1.5-.2s.2-.3.2-.5V4.5c0-.2-.1-.4-.2-.5 0-.1 0-.2-.1-.2zm-2.7-.1H6.2V2.3l1.9 1.4zM1.2 5.2h8.5v13.2H7.6v-3.9c0-.2-.1-.4-.2-.5s-.3-.2-.5-.2H4.1c-.2 0-.4.1-.5.2s-.2.3-.2.5v3.9H1.2V5.2zm3.7 13.3v-3.1h1.2v3.1H4.9z"/></symbol><symbol id="copy" viewBox="0 0 20 20"><path class="st0" d="M16.8 2.7h-.6v-.4c0-1.2-1-2.3-2.3-2.3H3.2C2 0 .9 1 .9 2.3v12.8c0 1.2 1 2.3 2.3 2.3h.6v.4c0 1.2 1 2.3 2.3 2.3h10.7c1.2 0 2.3-1 2.3-2.3V4.9c0-1.2-1.1-2.2-2.3-2.2zM2.9 15.1V2.3c0-.2.2-.3.3-.3h10.7c.1 0 .3.1.3.3v12.8c0 .1-.1.3-.3.3H3.2c-.1-.1-.3-.2-.3-.3zm14.2 2.6c0 .1-.1.3-.3.3H6.1c-.1 0-.3-.1-.3-.3v-.4h8.1c1.2 0 2.3-1 2.3-2.3V4.7h.6c.1 0 .3.1.3.3v12.7z"/><path class="st0" d="M11.1 7.3c-.6 0-1 .4-1 1v1.4L6.8 6.5c-.4-.4-1-.4-1.4 0-.4.4-.4 1 0 1.4l3.3 3.3H7.2c-.6 0-1 .4-1 1s.4 1 1 1h3.9c.6 0 1-.4 1-1V8.3c0-.5-.5-1-1-1z"/></symbol><symbol id="cross" viewBox="0 0 20 20"><path class="st0" d="M19.7.3c-.4-.4-1-.4-1.4 0L10 8.6 1.7.3C1.3-.1.7-.1.3.3s-.4 1 0 1.4L8.6 10 .3 18.3c-.4.4-.4 1 0 1.4s1 .4 1.4 0l8.3-8.3 8.3 8.3c.4.4 1 .4 1.4 0s.4-1 0-1.4L11.4 10l8.3-8.3c.4-.4.4-1 0-1.4z"/></symbol><symbol id="dashboard" viewBox="0 0 20 20"><path class="st0" d="M8.9 0h-6C1.3 0 0 1.2 0 2.8v7.5h8.9V0zM2 8.3V2.8c0-.2.1-.4.2-.6.2-.1.4-.2.6-.2h4v6.3H2zM17.2 0h-6v7.4H20V2.8C20 1.2 18.7 0 17.2 0zm.8 5.4h-4.9V2h4c.2 0 .4.1.6.2.2.2.3.4.3.6v2.6zM11.1 20h6c1.5 0 2.8-1.2 2.8-2.8V9.7H11V20zm6.9-8.3v5.5c0 .2-.1.4-.2.6-.1.1-.4.2-.6.2h-4v-6.3H18zM8.9 12.6H0v4.6C0 18.8 1.3 20 2.8 20h6v-7.4zm-6.7 5.2c-.1-.2-.2-.4-.2-.6v-2.6h4.8V18h-4c-.2 0-.4-.1-.6-.2z"/></symbol><symbol id="deleteUser" viewBox="0 0 20 20"><path class="st0" d="M16.1 6.4c-.4-.4-1-.4-1.4 0l-.8.8-.9-.8c-.4-.4-1-.4-1.4 0-.4.4-.4 1 0 1.4l.8.8-.9.9c-.4.4-.4 1 0 1.4.4.4 1 .4 1.4 0l.8-.8.8.8c.4.4 1 .4 1.4 0s.4-1 0-1.4l-.8-.8.8-.8c.6-.5.6-1.1.2-1.5zM17 13.9c-1-.7-2.3-1.1-3.5-1.4-1.3-.4-2.5-.5-3.5-.5-1.5 0-3.6.4-5.4 1.1-.9.4-1.8.8-2.4 1.4-.3.3-.6.7-.9 1.1S1 16.5 1 17v2c0 .3.1.5.3.7s.4.3.7.3h16c.3 0 .5-.1.7-.3s.3-.4.3-.7v-2c0-.5-.1-1-.4-1.4-.3-.7-.9-1.3-1.6-1.7zm0 4.1H3v-1c0-.2 0-.3.1-.5.2-.3.5-.6 1-1 .8-.5 1.8-.9 2.9-1.2 1.1-.3 2.2-.4 3-.4 1.2 0 3.1.3 4.6.9.8.3 1.4.7 1.8 1.1.2.2.4.4.4.5.2.3.2.4.2.6v1z"/><path class="st0" d="M10 0C7.2 0 5 2.2 5 5c0 2.2 1.4 4.1 3.4 4.7.5.2 1.1-.1 1.3-.6.2-.5-.1-1.1-.7-1.3C7.8 7.4 7 6.3 7 5c0-1.7 1.3-3 3-3 1.4 0 2.5.9 2.9 2.1.2.5.7.8 1.2.7.5-.2.8-.7.7-1.2C14.1 1.5 12.2 0 10 0z"/></symbol><symbol id="document" viewBox="0 0 20 20"><path class="st0" d="M18.7 14V2.8c0-.8-.3-1.5-.9-2-.5-.5-1.2-.8-2-.8H4.1c-.8 0-1.5.3-2 .8-.5.6-.8 1.2-.8 2v14.4c0 .8.3 1.5.9 2 .5.5 1.2.8 2 .8h9.6l4.9-5.6V14zM3.5 17.7c-.2-.1-.2-.3-.2-.5V2.8c0-.2.1-.3.2-.5.2-.1.4-.2.6-.2h11.7c.2 0 .5.1.6.2.1.1.2.3.2.5v10H12v5.1H4.1c-.2 0-.4-.1-.6-.2z"/><path class="st0" d="M6.6 6h7c.6 0 1-.4 1-1s-.4-1-1-1h-7c-.6 0-1 .4-1 1s.4 1 1 1zM14.6 8.6c0-.6-.4-1-1-1h-7c-.6 0-1 .4-1 1s.4 1 1 1h7c.5 0 1-.4 1-1z"/></symbol><symbol id="documentFull" viewBox="0 0 20 20"><path class="st0" d="M9 5.5h5.1c.4 0 .8-.3.8-.8s-.4-.7-.8-.7H9c-.4 0-.8.4-.8.8s.4.7.8.7z"/><circle class="st0" cx="6.3" cy="4.8" r=".8"/><path class="st0" d="M6.2 11.7h7.9c.4 0 .8-.3.8-.8s-.3-.8-.8-.8H6.2c-.4 0-.8.3-.8.8s.4.8.8.8zM6.2 8.6h7.9c.4 0 .8-.3.8-.8s-.3-.8-.8-.8H6.2c-.4 0-.8.3-.8.8s.4.8.8.8z"/><path class="st0" d="M1.2 18.2c0 1 .8 1.8 1.8 1.8h10.6c.2 0 .4-.1.5-.2l4.2-4.2c.2-.1.4-.4.4-.6V1.8c0-1-.8-1.8-1.8-1.8H3C2 0 1.2.8 1.2 1.8v16.4zM2.8 1.8l.1-.2.1-.1h14l.2.1.1.2v12.5h-3.6c-.2 0-.4.1-.5.2-.1.1-.2.3-.2.5v3.5H3l-.2-.1-.1-.2V1.8z"/></symbol><symbol id="donutDot" viewBox="0 0 5.5 20"><path fill="#3A434C" d="M2.75 7.25C1.23 7.25 0 8.48 0 10s1.23 2.75 2.75 2.75S5.5 11.52 5.5 10 4.27 7.25 2.75 7.25zm0 3.5c-.41 0-.75-.34-.75-.75s.34-.75.75-.75.75.34.75.75-.34.75-.75.75z"/></symbol><symbol id="door" viewBox="0 0 20 20"><path fill="#3A434C" d="M7.92.01L7.79 0c-.36 0-.7.12-.96.29-.4.27-.65.63-.83 1.03-.17.4-.26.84-.26 1.31v.24H4.03c-.35 0-.67.13-.9.3-.35.27-.54.59-.68.94-.13.35-.2.73-.2 1.12v9.44c0 .53.12 1.03.36 1.46.13.22.29.43.52.6s.55.31.9.3h1.71V19a1.01 1.01 0 0 0 1.26.97l10.01-2.7c.44-.12.74-.51.74-.97V3.71c0-.62-.16-1.2-.47-1.69-.16-.24-.36-.47-.62-.64-.23-.15-.52-.25-.82-.27V1.1L7.92.01zm7.83 15.53L7.74 17.7V2.63c0-.27.08-.5.15-.6l7.69 1.05h.01c.06.07.18.32.17.64v11.82h-.01zm-11.45-.5l-.01-.02a1.13 1.13 0 0 1-.05-.35V5.23c0-.15.03-.28.06-.37h1.44v10.18H4.3z"/><circle fill="#3A434C" cx="10.45" cy="9.94" r="1.22"/></symbol><symbol id="dot" viewBox="0 0 2.5 20"><circle class="st0" cx="1.2" cy="10" r="1.2"/></symbol><symbol id="download" viewBox="0 0 20 20"><path fill="#3A434C" d="M0 15.16c0 .72.28 1.38.75 1.86.46.48 1.12.79 1.84.79h14.82c.72 0 1.38-.31 1.84-.79.46-.48.75-1.14.75-1.86V9.1c0-.55-.45-1-1-1s-1 .45-1 1v6.07c0 .19-.07.35-.19.47s-.25.18-.4.18H2.59c-.15 0-.29-.06-.4-.18a.672.672 0 0 1-.19-.48V9.1c0-.55-.45-1-1-1s-1 .45-1 1v6.06z"/><path fill="#3A434C" d="M10 2.19c-.55 0-1 .45-1 1v4.66L7.98 6.82a.996.996 0 1 0-1.41 1.41l2.73 2.73c.39.39 1.02.39 1.41 0l2.73-2.73a.996.996 0 1 0-1.41-1.41L11 7.84V3.19c0-.55-.45-1-1-1z"/></symbol><symbol id="dragHorizontal" viewBox="0 0 10 20"><path class="st0" d="M0 1v18c0 .5.4 1 1 1s1-.5 1-1V1c0-.6-.5-1-1-1S0 .4 0 1M4 1v18c0 .5.4 1 1 1s1-.5 1-1V1c0-.6-.4-1-1-1S4 .4 4 1M8 1v18c0 .5.4 1 1 1s1-.5 1-1V1c0-.6-.4-1-1-1S8 .4 8 1"/></symbol><symbol id="dragVertical" viewBox="0 0 7 20"><path class="st0" d="M1 7.6h5c.6 0 1-.4 1-1s-.4-1-1-1H1c-.6 0-1 .4-1 1 0 .5.4 1 1 1zM1 11h5c.6 0 1-.4 1-1s-.5-1-1-1H1c-.6 0-1 .4-1 1s.4 1 1 1zM1 14.4h5c.6 0 1-.4 1-1s-.4-1-1-1H1c-.6 0-1 .4-1 1s.4 1 1 1z"/></symbol><symbol id="dropbox" viewBox="0 0 20 20"><path class="st0" d="M5.9.7L0 4.5l4.1 3.3L10 4.1z"/><path class="st0" d="M0 11.1l5.9 3.8 4.1-3.4-5.9-3.7zM10 11.5l4.1 3.4 5.9-3.8-4.1-3.3zM20 4.5L14.1.7 10 4.1l5.9 3.7z"/><path class="st0" d="M10 12.2l-4.1 3.4-1.8-1.1v1.3l5.9 3.5 5.9-3.5v-1.3l-1.8 1.1z"/></symbol><symbol id="dropboxLink" viewBox="0 0 20 20"><path class="st0" d="M0 15.2c0 .7.3 1.4.8 1.9s1.1.8 1.8.8h14.8c.7 0 1.4-.3 1.8-.8.5-.5.8-1.1.8-1.9v-6c0-.6-.5-1-1-1s-1 .4-1 1v6.1c0 .2-.1.4-.2.5s-.2.2-.4.2H2.6c-.2 0-.3-.1-.4-.2-.1-.2-.2-.4-.2-.6v-6c0-.6-.5-1-1-1s-1 .4-1 1v6zM8.4 3L6.2 4.4l1.6 1.3L10 4.3z"/><path class="st0" d="M6.2 6.9l2.2 1.4L10 7.1 7.8 5.7zM11.6 8.3l2.2-1.4-1.6-1.2L10 7.1zM11.6 3L10 4.3l2.2 1.4 1.6-1.3z"/><path class="st0" d="M8.4 8.6l-.6-.4v.5L10 10l2.2-1.3v-.5l-.6.4L10 7.3z"/></symbol><symbol id="duplicate" viewBox="0 0 20 20"><path fill="#3A434C" d="M.95 2.26v12.79c0 1.25 1.01 2.26 2.26 2.26h.62v.42A2.275 2.275 0 0 0 6.1 20h10.69c1.25 0 2.26-1.01 2.26-2.26V4.95c0-1.25-1.01-2.26-2.26-2.26h-.62v-.43A2.273 2.273 0 0 0 13.9 0H3.21C1.96 0 .95 1.01.95 2.26zm13.22 0v12.79l-.08.19-.19.08H3.21l-.19-.08-.08-.19V2.26l.08-.19.19-.07H13.9l.19.08.08.18zm2.62 2.42l.19.08.08.19v12.79l-.08.19-.19.07H6.1l-.19-.08-.08-.19v-.42h8.07c1.25 0 2.26-1.01 2.26-2.26V4.68h.63z"/><path fill="#3A434C" d="M5.54 4.5c-.55 0-1 .45-1 1s.45 1 1 1h6.03c.55 0 1-.45 1-1s-.45-1-1-1H5.54zM11.56 7.66H5.54c-.55 0-1 .45-1 1s.45 1 1 1h6.03c.55 0 1-.45 1-1-.01-.55-.45-1-1.01-1zM9.37 10.81H5.53c-.55 0-1 .45-1 1s.45 1 1 1h3.85c.55 0 1-.45 1-1s-.45-1-1.01-1z"/></symbol><symbol id="ensign" viewBox="0 0 20 20"><path class="st0" d="M13.5 8.7L12 8.5l-.7-.1-.3-.7-.6-1.5c0-.1-.2-.2-.4-.2s-.4.1-.5.3l-.6 1.5-.2.7H8l-1.5.2c-.2 0-.4.1-.5.3 0 .2 0 .4.2.5l1.2 1.1.6.5-.2.8-.3 1.6c0 .2 0 .4.2.5.2.1.4.1.6 0l1.3-.8.6-.4.6.4 1.3.8c.2.1.4.1.6 0 .2-.1.2-.3.2-.5l-.4-1.6-.2-.8.6-.5L14 9.5V9c-.1-.2-.3-.3-.5-.3z"/><path class="st0" d="M18.7 3.9c-.2-.2-.5-.3-.8-.3h-.6c-.6 0-1.6 0-2.6-.2s-1.9-.5-2.5-1l-.1-.1c-.1-.1-.2-.3-.4-.4l-.3-.3c-.2-.3-.4-.6-.5-.9-.1-.1-.1-.2-.2-.3l-.2-.2h-.1c-.1 0-.1-.1-.2-.1h-.1C10 0 9.9 0 9.8 0c-.1 0-.2.1-.3.1l-.1.1c-.1 0-.1.1-.2.2 0 0-.1.1-.1.2-.2.3-.3.7-.5.9l-.2.2c-.1.2-.3.3-.4.5l-.2.1c-.6.5-1.6.9-2.6 1-1 .2-2 .2-2.6.2h-.5c-.3 0-.5 0-.7.2-.3.4-.4.6-.4.9V7c0 1.6.2 3.1.6 4.4 1.2 4.1 4.1 6.9 7.9 8.5H10.5c3.8-1.6 6.7-4.4 7.9-8.5.4-1.3.6-2.8.6-4.4V4.6c0-.2-.1-.5-.3-.7zm-2.2 6.9c-1 3.3-3.3 5.6-6.5 7.1-3.2-1.4-5.5-3.8-6.5-7.1C3.2 9.7 3 8.4 3 7V5.7c.7 0 1.6-.1 2.6-.3 1.2-.2 2.5-.6 3.5-1.5h.1l.5-.5c0-.2.1-.3.2-.4 0 0 0-.1.1-.1l.1.1c.3.3.7.8.7.8h.1c1 .9 2.3 1.3 3.4 1.5 1 .2 2 .2 2.7.3V7c0 1.4-.2 2.7-.5 3.8z"/></symbol><symbol id="evernote" viewBox="0 0 20 20"><path class="st0" d="M13.1 14.9c-2-.1-3.2 0-3.2 2.5 0 2.2.9 2.6 3.7 2.6 2.2 0 3-.1 3.9-2.9.2-.5.6-2.2.9-5.1.2-1.8-.2-7.2-.4-8.6-.1-.8-.6-1.2-1.1-1.3-.5-.2-1.4-.3-2.6-.5-1-.1-2.1-.1-2.8-.1-.1-.6-.5-1.1-.9-1.2C9.5-.1 7.7 0 7.2.1c-.4.1-.8.3-1 .6-.2.3-.3.5-.3.9v2.1c0 .4-.3.7-.8.7H3.3c-.4 0-.7.1-1 .2-.2.1-.4.2-.5.4-.3.3-.3.8-.3 1.2 0 0 0 .3.1 1 .1.5.6 4.1 1.2 5.2.2.4.3.6.8.8.9.4 3 .8 4 .9s1.6.4 2-.4c0 0 .1-.2.2-.5.3-.9.4-1.8.4-2.4h.1c0 .4-.1 2 1.1 2.4.5.2 1.4.3 2.4.4.9.1 1.5.4 1.5 2.7 0 1.4-.3 1.5-1.8 1.5-1.2 0-1.7 0-1.7-.9 0-.8.8-.7 1.4-.7.3 0 .1-.2.1-.7-.2-.3.1-.6-.2-.6zm1.1-5.4c-.3 0-.5 0-.8.1.1-.6.3-1.2 1.1-1.2.9 0 1 .9 1 1.4-.4-.2-.8-.3-1.3-.3z"/><path class="st0" d="M5.5.7l.1-.1-3.8 3.6.2-.1c.3-.1.7-.2 1.2-.2h1.9c.1 0 .2-.1.2-.2V1.6c0-.4.1-.7.2-.9z"/></symbol><symbol id="externalLink" viewBox="0 0 20 20"><path fill="#3A434C" d="M19 8.79c-.55 0-1 .45-1 1v6.45c0 .27-.09.49-.19.62-.11.13-.18.14-.22.14H2.41c-.03 0-.1-.01-.21-.14a.974.974 0 0 1-.2-.62V3.76c0-.27.09-.49.19-.62.11-.13.18-.14.22-.14h8.97c.55 0 1-.45 1-1s-.45-1-1-1H2.41c-.74 0-1.38.38-1.78.89C.22 2.4 0 3.06 0 3.76v12.48c0 .7.22 1.35.63 1.87.4.51 1.04.89 1.78.89H17.6c.74 0 1.37-.38 1.77-.89.41-.51.63-1.17.63-1.87V9.79c0-.56-.45-1-1-1z"/><path fill="#3A434C" d="M12.09 8.96c.39.39 1.02.39 1.41 0l4.47-4.47v.94c0 .55.45 1 1 1s1-.45 1-1l.01-3.41a.99.99 0 0 0-1-1l-3.41.01c-.55 0-1 .45-1 1s.45 1 1 1h1.04l-4.53 4.53a.993.993 0 0 0 .01 1.4z"/></symbol><symbol id="facebook" viewBox="0 0 20 20"><path fill="#3A434C" d="M13.51 3.32h1.99V.14C15.16.1 13.97 0 12.59 0 9.72 0 7.75 1.66 7.75 4.7v2.62H4.5v3.56h3.25V20h3.89v-9.12h3.24l.49-3.56h-3.73V5.05c0-1.03.3-1.73 1.87-1.73z"/></symbol><symbol id="file" viewBox="0 0 20 20"><path class="st0" d="M17 0H3C2 0 1.2.8 1.2 1.8v16.5c0 1 .8 1.8 1.8 1.8h10.6c.2 0 .4-.1.5-.2l4.2-4.2c.2-.1.4-.4.4-.6V1.8C18.8.8 17.9 0 17 0zM2.8 18.4l-.1-.2V1.8l.1-.2.2-.1h14l.2.1.1.2v12.5h-3.6c-.2 0-.4.1-.5.2-.1.1-.2.3-.2.5v3.5H3l-.2-.1z"/><circle class="st0" cx="6.2" cy="7.8" r=".8"/><circle class="st0" cx="10" cy="7.8" r=".8"/><circle class="st0" cx="13.8" cy="7.8" r=".8"/></symbol><symbol id="filters" viewBox="0 0 20 20"><path fill="#3A434C" d="M18.99 15.86h-6.18a3.02 3.02 0 0 0-2.82-1.93c-1.28 0-2.37.8-2.82 1.93H1.01c-.55 0-1 .45-1 1s.45 1 1 1h6.11C7.5 19.09 8.64 20 10 20s2.5-.9 2.88-2.14h6.11c.55 0 1-.45 1-1 0-.56-.44-1-1-1zM10 17.99c-.57 0-1.03-.46-1.03-1.03 0-.57.46-1.03 1.03-1.03s1.03.46 1.03 1.03c0 .57-.46 1.03-1.03 1.03zM19.01 2.02h-2.14C16.46.84 15.34-.01 14.02-.01s-2.43.85-2.85 2.03H1.02c-.55 0-1 .45-1 1s.45 1 1 1h10.15c.41 1.18 1.53 2.03 2.85 2.03s2.43-.85 2.85-2.03h2.14c.55 0 1-.45 1-1s-.45-1-1-1zm-5 2.04c-.57 0-1.03-.46-1.03-1.03S13.44 2 14.01 2s1.03.46 1.03 1.03c0 .56-.46 1.03-1.03 1.03zM19.01 8.88H8.86C8.44 7.7 7.33 6.85 6.01 6.85s-2.43.85-2.85 2.03H1.02c-.55 0-1 .45-1 1s.45 1 1 1h2.14c.41 1.18 1.53 2.03 2.85 2.03s2.43-.85 2.85-2.03h10.15c.55 0 1-.45 1-1s-.45-1-1-1zm-11.97 1c0 .57-.46 1.03-1.03 1.03s-1.03-.46-1.03-1.03.46-1.03 1.03-1.03 1.03.46 1.03 1.03z"/></symbol><symbol id="flag" viewBox="0 0 20 20"><path class="st0" d="M3.5 0c-.5 0-1 .4-1 1v18c0 .5.5 1 1 1s1-.5 1-1v-5.7L7.9 12l3.7 1.6c.2.1.4.1.6.1 1.1-.2 2.3-.4 3.1-.6s1.4-.3 1.4-.3c.5-.1.8-.5.8-1V3.6c0-.3-.1-.5-.3-.7-.2-.2-.5-.3-.7-.3l-4.3.2-3.8-1.7c-.2 0-.3-.1-.5 0-.4 0-.8.1-1.3.2l-2.1.6V1c0-.6-.4-1-1-1zm2.9 3.4c.4-.1.7-.2 1-.3.2 0 .3-.1.4-.1l3.7 1.7c.1.1.3.1.4.1l3.5-.2V11c-.8.1-2.1.4-3.4.7l-3.8-1.6c-.2-.1-.5-.1-.7 0l-3 1.1V4c.5-.2 1.2-.4 1.9-.6z"/></symbol><symbol id="folder" viewBox="0 0 20 20"><path class="st0" d="M0 18c0 .3.1.5.3.7s.4.3.7.3h18c.3 0 .5-.1.7-.3s.3-.4.3-.7V5.7c0-.3-.1-.5-.3-.7s-.4-.3-.7-.3h-8c0-1-.4-1.9-1.1-2.6C9.3 1.4 8.3 1 7.3 1H3.7c-1 0-2 .4-2.6 1.1C.4 2.8 0 3.7 0 4.8V18zM2 4.8c0-.5.2-.9.5-1.3S3.2 3 3.7 3h3.6c.5 0 .9.2 1.2.5.3.3.5.8.5 1.3s.2 1 .6 1.3c.3.3.8.6 1.3.6H18V17H2V4.8z"/></symbol><symbol id="form" viewBox="0 0 20 20"><path class="st0" d="M18.8 17.7V2.3c0-1.2-1-2.3-2.3-2.3h-13C2.2 0 1.2 1 1.2 2.3v15.5c0 1.3 1 2.3 2.3 2.3h13c1.3-.1 2.3-1.1 2.3-2.4zM3.5 18l-.2-.1-.1-.2V2.3l.1-.2.2-.1h13l.2.1.1.2v15.5l-.1.2H3.5z"/><path class="st0" d="M12.9 11.4l-1.9 2-1-.9c-.4-.4-1-.4-1.4 0s-.4 1 0 1.4l1.7 1.6c.2.2.4.3.7.3.3 0 .5-.1.7-.3l2.6-2.7c.4-.4.4-1 0-1.4-.4-.4-1.1-.4-1.4 0zM6.4 6.2h7.1c.6 0 1-.4 1-1s-.4-1-1-1H6.4c-.6 0-1 .4-1 1s.5 1 1 1zM12 8.9c0-.6-.4-1-1-1H6.4c-.6 0-1 .4-1 1s.4 1 1 1H11c.5 0 1-.5 1-1z"/></symbol><symbol id="fullscreen" viewBox="0 0 20 20"><path class="st0" d="M3.8 9.7h2V6.9h2.6v-2H3.8z"/><path class="st0" d="M17.7 1H2.3C1 1 0 2 0 3.3v13.4C0 18 1 19 2.3 19h15.4c1.3 0 2.3-1 2.3-2.3V3.3C20 2 19 1 17.7 1zm.3 15.7l-.1.2-.2.1H2.3l-.2-.1-.1-.2V3.3l.1-.2.2-.1h15.4l.2.1.1.2v13.4z"/><path class="st0" d="M14.2 13h-2.7v2h4.7v-4.7h-2z"/></symbol><symbol id="github" viewBox="0 0 20 20"><path fill="#3A434C" d="M6.84 19.74c.5.09.68-.22.68-.48 0-.24-.01-.87-.01-1.7-2.78.6-3.37-1.34-3.37-1.34-.45-1.16-1.11-1.46-1.11-1.46-.91-.62.07-.61.07-.61 1 .07 1.53 1.03 1.53 1.03.89 1.52 2.34 1.08 2.91.82.09-.65.35-1.09.63-1.34-2.22-.25-4.55-1.11-4.55-4.94 0-1.09.39-1.98 1.03-2.68-.1-.25-.45-1.27.1-2.65 0 0 .84-.27 2.75 1.03.79-.22 1.65-.33 2.5-.34.85 0 1.7.11 2.5.34 1.91-1.29 2.75-1.03 2.75-1.03.55 1.38.2 2.39.1 2.65.64.7 1.03 1.59 1.03 2.68 0 3.84-2.34 4.69-4.57 4.93.36.31.68.92.68 1.85 0 1.34-.01 2.42-.01 2.74 0 .27.18.58.69.48A9.997 9.997 0 0 0 20 10.23c0-5.52-4.48-10-10-10s-10 4.48-10 10c0 4.44 2.87 8.18 6.84 9.51z"/></symbol><symbol id="glass" viewBox="0 0 20 20"><path class="st0" d="M8.3 16.6c2 0 3.8-.7 5.2-1.9l4.7 5c.4.4 1 .4 1.4 0s.4-1 0-1.4l-4.8-5.1c1-1.4 1.6-3.1 1.7-4.9 0-4.6-3.7-8.3-8.3-8.3C3.7 0 0 3.7 0 8.3s3.7 8.3 8.3 8.3zM3.8 3.8C5 2.7 6.6 2 8.3 2c1.7 0 3.3.7 4.4 1.8s1.8 2.7 1.8 4.4-.7 3.3-1.8 4.4-2.7 1.8-4.4 1.8-3.3-.5-4.5-1.7C2.7 11.6 2 10 2 8.3S2.7 5 3.8 3.8z"/></symbol><symbol id="google" viewBox="0 0 20 20"><path fill="#3A434C" d="M10.45 20C16 20 20 16.22 20 10.84c0-.5-.03-.94-.09-1.33-.03-.24-.07-.42-.1-.52l-.14-.53h-10V12.39h6.06c-.56 2.33-2.65 3.66-5.33 3.66-3.38 0-6.12-2.61-6.12-6.04s2.7-6.08 6.13-6.08c1.15 0 2.18.31 3.08.82.53.3.9.6 1.07.79l.52.54.53-.53 1.81-1.84.46-.47-.45-.49c-.34-.37-.96-.89-1.87-1.4C14.06.51 12.31 0 10.31 0 4.65 0 0 4.63 0 9.98 0 15.37 4.54 20 10.45 20z"/></symbol><symbol id="googleDrive" viewBox="0 0 20 20"><path class="st0" d="M6.9 1.2l6.3 11.1h6.3L13.1 1.2zM4.7 18.8h12.2l3.1-5.6H7.9zM0 13.2l3.1 5.6L9.3 8.1 6 2.6z"/></symbol><symbol id="googleDriveLink" viewBox="0 0 20 20"><path fill="#3A434C" d="M19 8.18c-.55 0-1 .45-1 1v6.07c0 .19-.07.35-.19.47s-.25.18-.4.18H2.59c-.15 0-.29-.06-.4-.18a.672.672 0 0 1-.19-.48V9.18c0-.55-.45-1-1-1s-1 .45-1 1v6.07c0 .72.28 1.38.75 1.86.46.48 1.12.79 1.84.79h14.82c.72 0 1.38-.31 1.84-.79.46-.48.75-1.14.75-1.86V9.18c0-.55-.45-1-1-1zM8.75 3l2.54 4.42h2.5L11.25 3z"/><path fill="#3A434C" d="M7.9 10h4.83l1.25-2.21H9.15zM6.02 7.79L7.27 10l2.44-4.24-1.29-2.21z"/></symbol><symbol id="grid" viewBox="0 0 20 20"><path fill="#3A434C" d="M10 0C8.45 0 7.2 1.25 7.2 2.8S8.45 5.6 10 5.6s2.8-1.25 2.8-2.8S11.55 0 10 0zm0 3.6c-.44 0-.8-.36-.8-.8s.36-.8.8-.8.8.36.8.8-.36.8-.8.8zM17.2 0c-1.55 0-2.8 1.25-2.8 2.8s1.25 2.8 2.8 2.8S20 4.35 20 2.8 18.75 0 17.2 0zm0 3.6c-.44 0-.8-.36-.8-.8s.36-.8.8-.8.8.36.8.8-.36.8-.8.8zM10 7.2c-1.55 0-2.8 1.25-2.8 2.8s1.25 2.8 2.8 2.8 2.8-1.25 2.8-2.8-1.25-2.8-2.8-2.8zm0 3.6c-.44 0-.8-.36-.8-.8 0-.44.36-.8.8-.8.44 0 .8.36.8.8 0 .44-.36.8-.8.8zM10 14.4c-1.55 0-2.8 1.25-2.8 2.8S8.45 20 10 20s2.8-1.25 2.8-2.8-1.25-2.8-2.8-2.8zm0 3.6c-.44 0-.8-.36-.8-.8 0-.44.36-.8.8-.8.44 0 .8.36.8.8s-.36.8-.8.8zM17.2 7.2c-1.55 0-2.8 1.25-2.8 2.8s1.25 2.8 2.8 2.8S20 11.55 20 10s-1.25-2.8-2.8-2.8zm0 3.6c-.44 0-.8-.36-.8-.8 0-.44.36-.8.8-.8.44 0 .8.36.8.8 0 .44-.36.8-.8.8zM17.2 14.4c-1.55 0-2.8 1.25-2.8 2.8s1.25 2.8 2.8 2.8 2.8-1.25 2.8-2.8-1.25-2.8-2.8-2.8zm0 3.6c-.44 0-.8-.36-.8-.8 0-.44.36-.8.8-.8.44 0 .8.36.8.8s-.36.8-.8.8zM0 10c0 1.55 1.25 2.8 2.8 2.8s2.8-1.25 2.8-2.8-1.25-2.8-2.8-2.8S0 8.45 0 10zm2.8-.8c.44 0 .8.36.8.8 0 .44-.36.8-.8.8S2 10.44 2 10s.36-.8.8-.8zM2.8 14.4c-1.55 0-2.8 1.25-2.8 2.8C0 18.75 1.25 20 2.8 20s2.8-1.25 2.8-2.8-1.25-2.8-2.8-2.8zm0 3.6c-.44 0-.8-.36-.8-.8 0-.44.36-.8.8-.8s.8.36.8.8-.36.8-.8.8z"/></symbol><symbol id="group" viewBox="0 0 20 20"><path class="st0" d="M12.3 4.5c.2-.1.5-.2.8-.2 1.1 0 2 .9 2 2s-.9 2-2 2c-.3 0-.5-.1-.8-.2-.3.6-.8 1.1-1.4 1.5.6.4 1.4.6 2.1.6 2.2 0 4-1.8 4-4s-1.8-4-4-4c-.8 0-1.5.2-2.1.6.6.6 1.1 1.1 1.4 1.7zM13.1 11.2h-.3c1.1.5 2.1 1.3 2.6 2.3 1.4.4 2.6 1 2.6 1.6v.5h-2.3v2H19c.6 0 1-.4 1-1v-1.5c0-2.9-5.1-3.9-6.9-3.9z"/><path class="st0" d="M12.8 17.7H1c-.6 0-1-.4-1-1v-1.5c0-3 5.1-4 6.9-4s6.9.9 6.9 4v1.5c0 .5-.4 1-1 1zM2 15.7h9.8v-.5c0-.9-2.9-2-4.9-2s-4.9 1-4.9 2v.5zm4.9-5.4c-2.2 0-4-1.8-4-4s1.8-4 4-4 4 1.8 4 4-1.8 4-4 4zm0-6c-1.1 0-2 .9-2 2s.9 2 2 2 2-.9 2-2-.9-2-2-2z"/></symbol><symbol id="heading1" viewBox="0 0 20 20"><path class="st0" d="M1 2h5.8v17c0 .5.4 1 1 1s1-.5 1-1V2h5.8c.6 0 1-.5 1-1s-.4-1-1-1H1C.4 0 0 .4 0 1c0 .5.4 1 1 1zM20 8.6c0-.1-.1-.1-.1-.2 0 0 0-.1-.1-.1-.1-.1-.1-.1-.2-.1l-.1-.1h-.1c-.2-.1-.3-.1-.4-.1h-.1c-.1 0-.2 0-.2.1s-.1.1-.2.1c0 0-.1 0-.1.1l-3.8 3.6c-.4.4-.4 1 0 1.4s1 .4 1.4 0l2.1-2V19c0 .5.5 1 1 1s1-.5 1-1V9v-.1c-.1-.1-.1-.2-.1-.3z"/></symbol><symbol id="heading2" viewBox="0 0 20 20"><path class="st0" d="M19 15c0-.6-.5-1-1-1h-3.2l3.5-4.3c0-.1.1-.1.2-.2.3-.6.5-1.2.5-1.9 0-2-1.6-3.7-3.6-3.7s-3.6 1.6-3.6 3.7c0 .5.4 1 1 1s1-.4 1-1c0-.9.7-1.6 1.7-1.6.8 0 1.5.7 1.5 1.7 0 .3-.1.5-.2.7l-4.9 6c-.2.3-.3.7-.1 1.1.2.4.5.6.9.6H18c.5-.1 1-.5 1-1.1zM1 5c0 .6.5 1 1 1h2.6v9c0 .6.4 1 1 1s1-.4 1-1V6h2.6c.6 0 1-.4 1-1s-.4-1-1-1H2c-.5 0-1 .4-1 1z"/></symbol><symbol id="help" viewBox="0 0 20 20"><path class="st0" d="M17.1 2.9C13.2-1 6.8-1 2.9 2.9 1 4.8 0 7.3 0 10c0 2.7 1 5.2 2.9 7.1C4.9 19 7.4 20 10 20c2.6 0 5.1-1 7.1-2.9 3.9-3.9 3.9-10.3 0-14.2zm.3 4.1l-.3.1-2 .9c-.3-.7-.7-1.3-1.2-1.9-.6-.6-1.3-1-2-1.3l.9-2.1.1-.2c1 .4 2 1 2.8 1.8.7.8 1.3 1.7 1.7 2.7zm-9.5 5.1C6.7 11 6.7 9 7.9 7.9 8.4 7.3 9.2 7 10 7s1.6.3 2.1.9c.6.5.9 1.3.9 2.1s-.3 1.6-.9 2.1c-1.1 1.2-3.1 1.2-4.2 0zM4.3 4.3C5.1 3.6 6 3 7 2.6l1 2.3c-.7.3-1.3.7-1.9 1.2-.6.6-1 1.3-1.2 2l-2.2-1h-.2c.5-1 1.1-2 1.8-2.8zm-1.8 8.6l2.3-1c.3.7.7 1.4 1.3 2 .5.5 1.2.9 1.8 1.2l-1 2.3c-1-.4-1.8-1-2.6-1.7-.8-.8-1.4-1.8-1.8-2.8zm13.2 2.8c-.8.8-1.8 1.4-2.8 1.8l-.1-.2-.9-2.1c.7-.3 1.4-.7 2-1.3.6-.6 1-1.2 1.2-1.9l2.1.9.2.1c-.4 1-1 1.9-1.7 2.7z"/></symbol><symbol id="home" viewBox="0 0 20 20"><path class="st0" d="M18.4 7.9L10.7 1c-.4-.3-.9-.3-1.3 0L1.6 7.9.3 9.1c-.4.4-.4 1-.1 1.4.4.4 1 .4 1.4.1l.8-.7v6.8c0 1.4 1.2 2.6 2.6 2.6h9.9c1.4 0 2.6-1.1 2.6-2.6V9.8l.8.7c.4.4 1 .4 1.4-.1.4-.4.4-1-.1-1.4l-1.2-1.1zm-3 9.1c-.1.1-.2.2-.4.2h-4v-2.9c0-.6-.4-1-1-1s-1 .4-1 1v2.9H5.1c-.2 0-.3-.1-.4-.2-.1-.1-.2-.2-.2-.4V8.1l5.5-5L15.5 8v8.6c0 .2 0 .3-.1.4z"/></symbol><symbol id="image" viewBox="0 0 20 20"><path class="st0" d="M16.8 0H3.2c-1 0-1.8.8-1.8 1.8v16.5c0 1 .8 1.8 1.8 1.8h13.6c1 0 1.8-.8 1.8-1.8V1.8c0-1-.8-1.8-1.8-1.8zM3.2 1.5h13.6c.1 0 .3.1.3.3v7.8l-2.4-2.7c-.3-.3-.7-.3-1-.1l-4.1 3.4-2.8-2.8c-.3-.3-.7-.3-1-.1L2.9 9.7v-8c0-.1.1-.2.3-.2zm13.6 17H3.2c-.1 0-.3-.1-.3-.3v-6.6L6.3 9 9 11.7c.3.3.7.3 1 .1l4.1-3.3 3 3.5v6.4s-.1.1-.3.1z"/><circle class="st0" cx="11.6" cy="4.9" r=".8"/></symbol><symbol id="importDocument" viewBox="0 0 20 20"><path class="st0" d="M17.9.8c-.5-.5-1.2-.8-2-.8H4.1c-.8 0-1.5.3-2 .8S1.3 2 1.3 2.7v14.4c0 .8.3 1.5.9 2 .5.5 1.2.8 2 .8h9.6l4.9-5.6V2.7c0-.7-.3-1.4-.8-1.9zM3.5 17.6c-.2-.1-.2-.3-.2-.5V2.7c0-.2.1-.3.2-.5s.4-.2.6-.2h11.7c.2 0 .5.1.6.2.1.1.2.3.2.5v10H12v5.1H4.1c-.2 0-.4-.1-.6-.2z"/><path class="st0" d="M12.5 8.5c.6 0 1-.4 1-1s-.4-1-1-1H11V5c0-.6-.4-1-1-1s-1 .4-1 1v1.5H7.5c-.6 0-1 .4-1 1s.4 1 1 1H9V10c0 .6.4 1 1 1s1-.4 1-1V8.5h1.5z"/></symbol><symbol id="info" viewBox="0 0 20 20"><path class="st0" d="M10 0C4.5 0 0 4.5 0 10s4.5 10 10 10 10-4.5 10-10S15.5 0 10 0zm5.7 15.7C14.2 17.1 12.2 18 10 18s-4.2-.9-5.7-2.3S2 12.2 2 10s.9-4.2 2.3-5.7S7.8 2 10 2s4.2.9 5.7 2.3S18 7.8 18 10s-.9 4.2-2.3 5.7z"/><path class="st0" d="M10 8.9c-.6 0-1 .4-1 1v4c0 .6.4 1 1 1s1-.4 1-1v-4c0-.5-.4-1-1-1z"/><circle class="st0" cx="10" cy="6.1" r="1.2"/></symbol><symbol id="insights" viewBox="0 0 20 20"><path class="st0" d="M19 0H1C.4 0 0 .4 0 1s.4 1 1 1h18c.5 0 1-.5 1-1s-.5-1-1-1zM17.2 6H2.8c-.5 0-1 .4-1 1s.5 1 1 1h14.4c.5 0 1-.4 1-1s-.4-1-1-1zM15.4 12H4.6c-.6 0-1 .4-1 1s.4 1 1 1h10.8c.6 0 1-.4 1-1s-.5-1-1-1zM13.6 18H6.4c-.6 0-1 .5-1 1s.4 1 1 1h7.2c.6 0 1-.5 1-1s-.5-1-1-1z"/></symbol><symbol id="integrations" viewBox="0 0 20 20"><path class="st0" d="M18.1 12.2V6c0-1.2-1-2.2-2.2-2.2h-3C12.3 2.7 11.2 2 10 2s-2.3.7-2.7 1.8H4.2C3 3.8 2 4.8 2 6v6.1c-1.1.4-2 1.5-2 2.8 0 1.7 1.3 3 3 3s3-1.3 3-3c0-1.3-.9-2.5-2.1-2.8V6c0-.2.1-.3.3-.3h2.9c.2 1 1 1.8 1.9 2.1v4.3c-1.2.4-2 1.5-2 2.8 0 1.7 1.3 3 3 3s3-1.3 3-3c0-1.3-.9-2.4-2-2.8V7.8c1-.3 1.7-1.1 1.9-2.1h2.9c.2 0 .3.1.3.3v6.1c-1.2.4-2.1 1.5-2.1 2.9 0 1.7 1.3 3 3 3s3-1.3 3-3c0-1.3-.8-2.4-1.9-2.8zM3 15.9c-.6 0-1-.4-1-1s.4-1 1-1 1 .4 1 1-.4 1-1 1zm7 .1c-.6 0-1-.4-1-1s.4-1 1-1 1 .4 1 1-.4 1-1 1zm0-10c-.5 0-1-.4-1-1s.4-1 1-1 1 .4 1 1-.4 1-1 1zm7 9.9c-.6 0-1-.4-1-1s.4-1 1-1 1 .4 1 1-.5 1-1 1z"/></symbol><symbol id="label" viewBox="0 0 20 20"><path class="st0" d="M19.2 10.5L8.8 0H.1v8.7l10.5 10.5c.5.5 1.2.8 1.9.8s1.4-.3 2-.8l2.4-2.4 2.4-2.4c.6-.6.8-1.3.8-2-.1-.7-.4-1.4-.9-1.9zM17.8 13l-2.4 2.4-2.4 2.4c-.1.1-.4.2-.6.2-.2 0-.4-.1-.5-.2L2 7.9V2.1h5.9l9.9 9.9c.2.2.2.3.2.5 0 .1-.1.3-.2.5z"/><circle class="st0" cx="5.6" cy="5.6" r="1.2"/></symbol><symbol id="like" viewBox="0 0 20 20"><path class="st0" d="M1.3 10.4c1.2 1.7 3.1 4 4.8 5.9s3.2 3.4 3.2 3.4.1 0 .1.1c0 0 .1 0 .1.1.1 0 .1.1.1.1H10.5c.1 0 .1 0 .1-.1 0 0 .1 0 .1-.1h.1s1.9-1.9 3.9-4.2c1-1.1 2.1-2.4 2.9-3.5.4-.6.8-1.1 1.2-1.6s.6-.9.8-1.4c.2-.9.4-1.9.4-2.7 0-2.3-1.1-4.6-3.2-5.7-.8-.5-1.6-.7-2.4-.7-1.7 0-3.3.9-4.4 2.4C8.9.9 7.3 0 5.6 0 4.8 0 4 .2 3.2.6 1.1 1.8 0 4 0 6.4 0 7.2.2 8.1.5 9c.2.5.5.9.8 1.4zm2.8-8c.5-.3 1-.4 1.5-.4 1.3 0 2.6.8 3.3 2.4 0 .1.1.3.1.6.1.5.5.8 1 .8s.9-.3 1-.8c.1-.2.1-.4.1-.5.7-1.6 2-2.4 3.2-2.4.5 0 1 .1 1.5.4l.5-.9-.5.9c1.3.7 2.1 2.3 2.1 4 0 .6-.1 1.3-.4 1.9-.1.2-.3.6-.6 1-1 1.5-3 3.8-4.6 5.7-.8.9-1.6 1.8-2.2 2.4l-.2.2c-.9-.9-2.4-2.5-3.9-4.2-.9-1-1.7-2-2.4-2.9C3 9.5 2.5 8.7 2.4 8.3 2.1 7.7 2 7 2 6.4c0-1.7.8-3.3 2.1-4z"/></symbol><symbol id="link" viewBox="0 0 20 20"><path fill="#3A434C" d="M5.54 20c1.34 0 2.68-.57 3.6-1.67l1.03-1.22c.35-.42.3-1.05-.12-1.41a1.01 1.01 0 0 0-1.41.12l-1.03 1.22c-.53.63-1.29.96-2.07.96-.62 0-1.23-.2-1.73-.63-.63-.53-.96-1.29-.96-2.07 0-.62.2-1.23.63-1.73l3.68-4.38c.53-.63 1.29-.96 2.07-.96.62 0 1.23.2 1.73.63l.01-.01c.24.2.55.3.87.22a1 1 0 0 0 .73-1.21.994.994 0 0 0-.33-.52c-.88-.73-1.95-1.1-3.01-1.09-1.34 0-2.68.57-3.6 1.67L1.95 12.3c-.73.88-1.1 1.95-1.09 3.01 0 1.34.57 2.68 1.67 3.6.87.73 1.95 1.09 3.01 1.09z"/><path fill="#3A434C" d="M14.37 12.09l3.68-4.38c.73-.88 1.1-1.95 1.09-3.01 0-1.34-.57-2.68-1.67-3.6C16.6.36 15.52 0 14.46 0c-1.34 0-2.68.57-3.6 1.67L9.83 2.9c-.35.42-.3 1.05.12 1.41a1 1 0 0 0 1.41-.12l1.03-1.22c.53-.64 1.29-.97 2.07-.97.62 0 1.23.2 1.73.63.63.53.96 1.29.96 2.07 0 .62-.2 1.23-.63 1.73l-3.68 4.38c-.53.63-1.29.96-2.07.96-.62 0-1.23-.2-1.73-.63l-.01.01a.93.93 0 0 0-.63-.24 1.003 1.003 0 0 0-.64 1.77c.88.73 1.95 1.1 3.01 1.09 1.34 0 2.68-.57 3.6-1.68z"/></symbol><symbol id="linkedin" viewBox="0 0 20 20"><path fill="#3A444C" d="M2.43 0C.96 0 0 1.01 0 2.33c0 1.3.93 2.33 2.37 2.33h.03c1.49 0 2.43-1.04 2.43-2.33C4.79 1.01 3.89 0 2.43 0zM.25 6.51h4.29V20H.25zM15.06 6.19c-2.28 0-3.29 1.31-3.86 2.23V6.51H6.91c.06 1.27 0 13.49 0 13.49h4.29v-7.54c0-.4.03-.81.14-1.09.31-.81 1.02-1.64 2.2-1.64 1.55 0 2.17 1.24 2.17 3.05V20H20v-7.74c0-4.14-2.12-6.07-4.94-6.07z"/></symbol><symbol id="list" viewBox="0 0 20 20"><path fill="#3A434C" d="M19.02 2.15H5.76c-.55 0-1 .45-1 1s.45 1 1 1h13.26c.55 0 1-.45 1-1s-.45-1-1-1z"/><circle fill="#3A434C" cx="1.27" cy="3.15" r="1.25"/><path fill="#3A434C" d="M19.02 9H5.76c-.55 0-1 .45-1 1s.45 1 1 1h13.26c.55 0 1-.45 1-1s-.45-1-1-1z"/><circle fill="#3A434C" cx="1.27" cy="10" r="1.25"/><path fill="#3A434C" d="M19.02 15.85H5.76c-.55 0-1 .45-1 1s.45 1 1 1h13.26c.55 0 1-.45 1-1s-.45-1-1-1z"/><circle fill="#3A434C" cx="1.27" cy="16.85" r="1.25"/></symbol><symbol id="listCollapse" viewBox="0 0 20 20"><path class="st0" d="M0 3.7c0 1 .8 1.8 1.8 1.8h16.5c1 0 1.8-.8 1.8-1.8v-2c0-1-.8-1.8-1.8-1.8H1.8C.8 0 0 .8 0 1.8v1.9zm2-.2V2h16v1.5H2zM0 11c0 1 .8 1.8 1.8 1.8h16.5c1 0 1.8-.8 1.8-1.8V9.1c0-1-.8-1.8-1.8-1.8H1.8c-1 0-1.8.8-1.8 1.8V11zm2-.2V9.3h16v1.5H2zM0 18.2c0 1 .8 1.8 1.8 1.8h16.5c1 0 1.8-.8 1.8-1.8v-2c0-1-.8-1.8-1.8-1.8H1.8c-1 0-1.8.8-1.8 1.8v2zm2-.2v-1.5h16V18H2z"/></symbol><symbol id="listExpand" viewBox="0 0 20 20"><path class="st0" d="M10.4 9.2H1.1c-.6 0-1 .4-1 1s.4 1 1 1h9.2c.6 0 1-.4 1-1s-.4-1-.9-1zM10.4 13.6H1.1c-.6 0-1 .4-1 1s.4 1 1 1h9.2c.6 0 1-.4 1-1 .1-.6-.4-1-.9-1zM10.4 18H1.1c-.6 0-1 .5-1 1s.4 1 1 1h9.2c.6 0 1-.5 1-1 .1-.5-.4-1-.9-1zM15.9 19.7c.2.2.4.3.7.3s.5-.1.7-.3l2.4-2.4c.4-.4.4-1 0-1.4-.4-.4-1-.4-1.4 0l-.7.7v-6.4c0-.6-.5-1-1-1s-1 .4-1 1v6.3l-.7-.7c-.4-.4-1-.4-1.4 0-.4.4-.4 1 0 1.4l2.4 2.5zM20 3.7v-2c0-1-.8-1.8-1.8-1.8H1.8C.8 0 .1.8 0 1.8v2c0 1 .8 1.8 1.8 1.8h16.4c1-.1 1.8-.9 1.8-1.9zm-2-.2H2V2h16v1.5z"/></symbol><symbol id="listPlain" viewBox="0 0 20 20"><path class="st0" d="M19 2.2H1c-.6 0-1 .5-1 1s.4 1 1 1h18c.5 0 1-.5 1-1s-.5-1-1-1zM19 9H1c-.6 0-1 .4-1 1s.4 1 1 1h18c.5 0 1-.4 1-1s-.5-1-1-1zM19 15.9H1c-.6 0-1 .5-1 1s.4 1 1 1h18c.5 0 1-.5 1-1 0-.6-.5-1-1-1z"/></symbol><symbol id="live" viewBox="0 0 20 20"><path fill="#3A434C" d="M10 0C4.48 0 0 4.48 0 10c0 3.05 1.36 5.78 3.51 7.61a.999.999 0 1 0 1.3-1.52A7.97 7.97 0 0 1 2 10a7.99 7.99 0 0 1 8-8 7.99 7.99 0 0 1 8 8c0 2.44-1.09 4.62-2.81 6.09a.999.999 0 1 0 1.3 1.52A9.947 9.947 0 0 0 20 10c0-5.52-4.48-10-10-10z"/><path fill="#3A434C" d="M15.7 10c0-3.15-2.55-5.7-5.7-5.7a5.697 5.697 0 0 0-4.29 9.45c.36.42 1 .46 1.41.09.42-.36.46-1 .09-1.41A3.68 3.68 0 0 1 6.3 10c0-1.02.41-1.94 1.08-2.61.68-.67 1.6-1.08 2.62-1.08s1.94.41 2.61 1.08a3.681 3.681 0 0 1 .17 5.05.989.989 0 0 0 .09 1.41c.41.37 1.05.33 1.41-.09.88-.99 1.42-2.32 1.42-3.76z"/><circle fill="#3A434C" cx="10" cy="10" r="1.67"/><path fill="#3A434C" d="M14.08 19.17l-2.51-4.33c-.31-.46-1-.83-1.55-.83s-1.25.37-1.55.83l-2.51 4.33c-.31.46-.1.83.43.83h7.25c.55 0 .75-.37.44-.83z"/></symbol><symbol id="lock" viewBox="0 0 20 20"><circle class="st0" cx="10" cy="13.3" r="1.2"/><path class="st0" d="M10 0C7.6 0 5.6 2 5.6 4.4v2.1h-.8c-1.3 0-2.3 1.1-2.3 2.4v8.7c0 1.3 1 2.3 2.3 2.4h10.4c1.3 0 2.3-1 2.4-2.4V8.9c0-1.3-1-2.3-2.4-2.3h-.8V4.4C14.4 2 12.4 0 10 0zM7.6 4.4c0-.7.3-1.3.7-1.7a2.413 2.413 0 0 1 3.4 0c.4.4.7 1 .7 1.7v2.1H7.6V4.4zm7.9 4.3c.1.1.1.1.1.2v8.7c0 .1 0 .2-.1.2-.1.2-.2.2-.3.2H4.8c-.1 0-.2 0-.2-.1-.1-.1-.1-.1-.1-.2V8.9c0-.1 0-.2.1-.2.1-.1.2-.1.2-.1h10.4c.1 0 .2 0 .3.1z"/></symbol><symbol id="magicWand" viewBox="0 0 20 20"><path class="st0" d="M3.7 5.1c.4.4 1 .4 1.4 0s.4-1 0-1.4L3.6 2.2c-.4-.4-1-.4-1.4 0s-.4 1 0 1.4l1.5 1.5zM4 7.6c0-.6-.5-1-1-1H1c-.6 0-1 .4-1 1s.4 1 1 1h2c.6 0 1-.5 1-1zM7.6 4c.5 0 1-.5 1-1V1c0-.6-.4-1-1-1s-1 .4-1 1v2c0 .6.5 1 1 1zM3.6 10l-1.4 1.4c-.4.4-.4 1 0 1.4s1 .4 1.4 0L5 11.4c.4-.4.4-1 0-1.4-.3-.4-1-.4-1.4 0zM11.5 5l1.4-1.4c.4-.4.4-1 0-1.4s-1-.4-1.4 0l-1.4 1.4c-.4.4-.4 1 0 1.4.3.4 1 .4 1.4 0zM19.7 16.2L8.6 5.1c-.2-.2-.4-.3-.7-.3h-.2c-.3 0-.5.1-.7.3L5.1 7c-.2.1-.3.4-.3.7v.2c0 .3.1.5.3.7l11.1 11.1c.2.2.4.3.7.3h.2c.3 0 .5-.1.7-.3l1.8-1.8c.2-.2.3-.4.3-.7V17c.1-.4-.1-.6-.2-.8zm-10.8-8l-.7.7-1.1-1.1.7-.7 1.1 1.1zm.7 2.1l.7-.7 7.4 7.4-.7.6-7.4-7.3z"/></symbol><symbol id="mail" viewBox="0 0 20 20"><path class="st0" d="M17.9 2.2H2.1C1 2.2 0 3.2 0 4.3v11.3c0 1.2 1 2.1 2.1 2.1h15.7c1.2 0 2.1-1 2.1-2.1V4.3c.1-1.1-.9-2.1-2-2.1zm-1 2L10.1 10 3.5 4.2h13.4zM18 15.8H2V5.5L9.5 12c.4.3.9.3 1.3 0L18 5.9v9.9z"/></symbol><symbol id="message" viewBox="0 0 20 20"><path class="st0" d="M18.3 19.7c.3.3.7.4 1.1.2s.6-.5.6-.9V2.8h-1 1c0-.7-.2-1.4-.7-1.9-.4-.5-1.1-.9-1.8-.9h-15C1.8 0 1.1.4.7.9.2 1.4 0 2.1 0 2.8v10.8c0 .7.2 1.4.7 1.9.4.5 1.1.9 1.8.9h12.6l3.2 3.3zM2.2 14.2c-.1-.1-.2-.3-.2-.6V2.8c0-.3.1-.5.2-.6.1-.2.2-.2.3-.2h14.9c.1 0 .2 0 .3.2.2.1.3.3.3.6v13.7l-1.7-1.8c-.2-.2-.4-.3-.7-.3h-13c-.2 0-.3 0-.4-.2z"/><circle class="st0" cx="7" cy="8.2" r="1.2"/><circle class="st0" cx="13" cy="8.2" r="1.2"/></symbol><symbol id="minus" viewBox="0 0 20 20"><path fill="#3A434C" d="M1 11h18c.55 0 1-.45 1-1s-.45-1-1-1H1c-.55 0-1 .45-1 1s.45 1 1 1z"/></symbol><symbol id="more" viewBox="0 0 4 20"><circle class="st0" cx="2" cy="10" r="2"/><circle class="st0" cx="2" cy="2" r="2"/><circle class="st0" cx="2" cy="18" r="2"/></symbol><symbol id="mouse" viewBox="0 0 20 20"><path class="st0" d="M11 4V1c0-.6-.4-1-1-1S9 .4 9 1v3c-2.9.4-5.2 3-5.2 6v3.8c0 3.4 2.7 6.1 6.1 6.1h.1c3.4 0 6.1-2.7 6.1-6.1V10c.1-3-2.2-5.5-5.1-6zm3.3 9.8c0 1.2-.5 2.2-1.2 3-.8.8-1.8 1.2-3 1.2h-.2c-1.2 0-2.2-.5-3-1.2-.8-.8-1.2-1.8-1.2-3V10c0-1.2.5-2.2 1.2-3 .8-.8 1.8-1.3 3-1.3h.1c1.2 0 2.2.5 3 1.2.8.8 1.2 1.8 1.2 3l.1 3.9z"/><circle class="st0" cx="10" cy="9.4" r="1.2"/></symbol><symbol id="multipleChoice" viewBox="0 0 20 20"><path fill="#3A434C" d="M.31 2.84l1.66 1.59c.19.18.45.28.72.28s.52-.12.7-.31l2.57-2.71c.38-.4.36-1.03-.04-1.41A1 1 0 0 0 4.5.31L2.63 2.29l-.94-.89A.996.996 0 1 0 .31 2.84zM19 1.36H9.26c-.55 0-1 .45-1 1s.45 1 1 1H19c.55 0 1-.45 1-1s-.45-1-1-1zM.31 10.46l1.66 1.59c.19.18.45.28.72.28.27-.01.52-.12.7-.31L5.95 9.3A.997.997 0 1 0 4.5 7.93L2.63 9.91l-.94-.9c-.4-.38-1.03-.37-1.41.03s-.37 1.04.03 1.42zM19 8.97H9.26c-.55 0-1 .45-1 1s.45 1 1 1H19c.55 0 1-.45 1-1s-.45-1-1-1zM19 16.64H9.26c-.55 0-1 .45-1 1s.45 1 1 1H19c.55 0 1-.45 1-1s-.45-1-1-1zM.38 17.46c0 1.4 1.14 2.54 2.54 2.54s2.54-1.14 2.54-2.54c0-1.4-1.14-2.54-2.54-2.54-1.4 0-2.54 1.14-2.54 2.54zm3.08 0c0 .3-.24.54-.54.54s-.54-.24-.54-.54c0-.3.24-.54.54-.54.3 0 .54.24.54.54z"/></symbol><symbol id="openedEye" viewBox="0 0 20 20"><circle class="st0" cx="10" cy="10" r="2"/><path class="st0" d="M10 3.2C5.4 3.2 1.6 6 0 10c1.6 4 5.4 6.8 10 6.8S18.4 14 20 10c-1.6-4-5.4-6.8-10-6.8zm0 11.6c-3.3 0-6.3-1.9-7.8-4.8C3.7 7.1 6.7 5.2 10 5.2S16.3 7 17.8 10c-1.5 2.9-4.4 4.8-7.8 4.8z"/></symbol><symbol id="options" viewBox="0 0 20 20"><circle fill="#3A434C" cx="10" cy="10" r="2"/><circle fill="#3A434C" cx="18" cy="10" r="2"/><circle fill="#3A434C" cx="2" cy="10" r="2"/></symbol><symbol id="paragraph" viewBox="0 0 20 20"><path class="st0" d="M14 20c.6 0 1-.5 1-1V2h2.3c.5 0 1-.5 1-1s-.5-1-1-1H7.7c-3.3 0-6 2.7-6 6.1 0 3.4 2.7 6.1 6.1 6.1h1.4V19c0 .5.4 1 1 1s1-.5 1-1V2H13v17c0 .5.4 1 1 1zm-4.9-9.8H7.8c-1.1 0-2.2-.5-2.9-1.2S3.7 7.2 3.7 6.1 4.2 4 4.9 3.2 6.7 2 7.8 2h1.3v8.2z"/></symbol><symbol id="participant" viewBox="0 0 20 20"><path fill="#3A434C" d="M10 4.17c-2.19 0-3.96 1.77-3.96 3.96s1.77 3.96 3.96 3.96 3.96-1.77 3.96-3.96S12.19 4.17 10 4.17zm0 5.91a1.97 1.97 0 0 1-1.96-1.96c0-1.08.88-1.95 1.96-1.96 1.08 0 1.95.88 1.96 1.96A1.963 1.963 0 0 1 10 10.08z"/><path fill="#3A434C" d="M10 0C4.48 0 0 4.48 0 10s4.48 10 10 10 10-4.48 10-10S15.52 0 10 0zM5.35 16.5c.11-.11.25-.23.44-.35.52-.34 1.3-.63 2.09-.83s1.59-.29 2.13-.29c.73 0 1.92.18 2.93.52.51.17.97.38 1.31.61.18.11.32.23.42.34-1.33.94-2.93 1.5-4.67 1.5s-3.34-.56-4.65-1.5zm10.77-1.36a4.94 4.94 0 0 0-.79-.66c-.8-.52-1.76-.87-2.7-1.1-.95-.23-1.87-.35-2.63-.35-1 0-2.3.21-3.54.62-.62.21-1.22.47-1.75.81-.3.19-.58.42-.83.68A7.953 7.953 0 0 1 2 10c0-2.21.89-4.21 2.34-5.66S7.79 2 10 2s4.21.89 5.66 2.34S18 7.79 18 10c0 1.96-.71 3.75-1.88 5.14z"/></symbol><symbol id="pause" viewBox="0 0 20 20"><path fill="#3A434C" d="M16.17-.01H12.5c-.73 0-1.32.59-1.32 1.32v17.36c0 .73.59 1.32 1.32 1.32h3.36c.73 0 1.32-.59 1.32-1.32V.99c0-.26-.11-.52-.29-.71-.19-.19-.45-.29-.72-.29zM7.83-.01H4.08c-.69 0-1.25.56-1.25 1.25v17.5c0 .69.56 1.25 1.25 1.25h3.5c.69 0 1.25-.56 1.25-1.25V.99c0-.26-.11-.52-.29-.71s-.45-.29-.71-.29z"/></symbol><symbol id="pellet" viewBox="0 0 20 20"><path fill="#3A434C" d="M10 0C4.48 0 0 4.48 0 10s4.48 10 10 10 10-4.48 10-10S15.52 0 10 0z"/></symbol><symbol id="pelletAdd" viewBox="0 0 20 20"><path fill="#3A434C" d="M10 20c5.52 0 10-4.48 10-10S15.52 0 10 0 0 4.48 0 10s4.48 10 10 10zM6 9h3V6c0-.55.45-1 1-1s1 .45 1 1v3h3c.55 0 1 .45 1 1s-.45 1-1 1h-3v3c0 .55-.45 1-1 1s-1-.45-1-1v-3H6c-.55 0-1-.45-1-1s.45-1 1-1z"/></symbol><symbol id="pelletCheck" viewBox="0 0 20 20"><path fill="#3A434C" d="M10 20c5.52 0 10-4.48 10-10S15.52 0 10 0 0 4.48 0 10s4.48 10 10 10zM5.78 9.15a.996.996 0 0 1 1.41-.04l1.83 1.74 3.77-3.81c.39-.39 1.02-.39 1.41-.01.39.39.39 1.02.01 1.41l-4.46 4.5c-.38.39-1.01.39-1.4.02l-2.54-2.41c-.4-.36-.42-1-.03-1.4z"/></symbol><symbol id="pelletClose" viewBox="0 0 20 20"><path fill="#3A434C" d="M10.08-.01c-5.52 0-10 4.48-10 10s4.48 10 10 10 10-4.48 10-10c0-5.53-4.47-10-10-10zm3.54 12.12a.996.996 0 1 1-1.41 1.41l-2.12-2.12-2.12 2.12a.996.996 0 1 1-1.41-1.41l2.12-2.12-2.13-2.13a.996.996 0 1 1 1.41-1.41l2.12 2.12 2.12-2.12a.996.996 0 1 1 1.41 1.41L11.5 9.99l2.12 2.12z"/></symbol><symbol id="pelletMinus" viewBox="0 0 20 20"><path fill="#3A434C" d="M10 0C4.48 0 0 4.48 0 10s4.48 10 10 10 10-4.48 10-10S15.52 0 10 0zm4 11H6c-.55 0-1-.45-1-1s.45-1 1-1h8c.55 0 1 .45 1 1s-.45 1-1 1z"/></symbol><symbol id="pencil" viewBox="0 0 20 20"><path class="st0" d="M8.2 1.2l-7 9.9c-.1.2-.2.4-.2.6v6.7c0 .3.2.6.4.8.3.2.6.2.9.1L8.5 17c.2-.1.3-.2.4-.4l7-9.9c.4-.5.5-1.1.5-1.7 0-.3-.1-.7-.2-1-.1-.3-.4-.6-.7-.8l-4-2.8c-.2-.3-.7-.4-1.1-.4-.8 0-1.6.5-2.2 1.2zm-.1 13.1l-4.5-3.2 4.6-6.5 4.5 3.2-4.6 6.5zM3 13.2l3.4 2.4L3 17v-3.8zM10.5 2l4 2.8V5c0 .1-.1.3-.2.5l-.5.7-4.4-3.1.5-.7c.1-.3.4-.4.6-.4zM19 19c0-.5-.5-1-1-1H9.9c-.6 0-1 .5-1 1s.4 1 1 1H18c.5 0 1-.5 1-1z"/></symbol><symbol id="phone" viewBox="0 0 20 20"><path class="st0" d="M.3 2.5C.1 2.8 0 3.3 0 4c0 .8.2 2 .7 3.5C2 11 4.3 13.7 6.6 15.7c2.3 1.9 4.5 3.1 5.8 3.5 1.6.6 2.7.8 3.5.8.6 0 1.1-.1 1.5-.3.2-.1.4-.3.5-.4l1.8-1.6c.2-.2.3-.4.3-.7 0-.3-.1-.5-.3-.7l-3.5-3.6c-.4-.4-.9-.4-1.4-.1-.1.1-.6.5-1.1.8-.3.2-.5.3-.8.4-.1 0-.1.1-.2.1L6 7c0-.1.1-.2.1-.2.2-.3.5-.7.8-1 .1-.2.3-.3.3-.4l.1-.1c.2-.2.3-.4.3-.7s.1-.5-.1-.7L3.9.3c-.4-.4-1-.4-1.4 0L.7 1.9c-.1.1-.3.3-.4.6zm16.1 15.4zM3.2 2.4l2.2 2.2-.3.3c-.2.3-.5.6-.7 1-.2.2-.2.4-.3.6-.1.2-.2.4-.2.7 0 .2 0 .4.1.6.1.1.2.2.2.3l7.4 7.6c.1.1.2.2.3.2.2.1.4.1.6.1.5 0 .9-.2 1.3-.4.6-.3 1.1-.6 1.5-.9l2.2 2.2-1.1 1s-.2.1-.6.1c-.5 0-1.4-.1-2.8-.7-1-.4-3.1-1.4-5.2-3.2-2.1-1.8-4.2-4.2-5.2-7.3C2.1 5.4 2 4.5 2 4c0-.4.1-.5.1-.6l1.1-1z"/></symbol><symbol id="picture" viewBox="0 0 20 20"><path class="st0" d="M3.3 20h13.4c1.3 0 2.3-1 2.3-2.3V2.3C19 1 18 0 16.7 0H3.3C2 0 1 1 1 2.3v15.4C1 19 2 20 3.3 20zm13.6-2.1l-.2.1H3.3l-.2-.1-.1-.2V12l3.3-2.7 2.5 2.4c.4.4.9.4 1.3.1l3.8-3.1 2.9 3.4c0 .1.1.1.1.1v5.7zM3.1 2.1l.2-.1h13.4l.2.1.1.2v7l-2.2-2.5c-.4-.4-1-.5-1.4-.1L9.6 9.8 7.1 7.3c-.3-.3-.9-.4-1.3-.1L3 9.5V2.3l.1-.2z"/><circle class="st0" cx="11.6" cy="5" r="1"/></symbol><symbol id="pictureInPicture" viewBox="0 0 20 20"><path class="st0" d="M17.7 1H2.3C1 1 0 2 0 3.3v13.4C0 18 1 19 2.3 19h15.4c1.3 0 2.3-1 2.3-2.3V3.3C20 2 19 1 17.7 1zm.3 15.7l-.1.2-.2.1H2.3l-.2-.1-.1-.2V3.3l.1-.2.2-.1h15.4l.2.1.1.2v13.4z"/><path class="st0" d="M10.1 8.9h5.7v5.7h-5.7z"/></symbol><symbol id="pieDiagram" viewBox="0 0 20 20"><path class="st0" d="M8.6 3C3.8 3 0 6.8 0 11.5S3.8 20 8.5 20s8.4-3.8 8.5-8.4c0-.3-.1-.5-.3-.7s-.4-.3-.7-.3H9.5V4c0-.5-.4-1-.9-1zm-.1 15c-1.8 0-3.4-.7-4.6-1.9C2.7 14.9 2 13.3 2 11.5s.7-3.4 1.9-4.6c1-1 2.2-1.6 3.6-1.8v6.5c0 .3.1.5.3.7.2.2.4.3.7.3h6.4c-.5 3-3.2 5.4-6.4 5.4z"/><path class="st0" d="M11.6 0c-.3 0-.5.1-.7.3s-.3.4-.3.7v7.6c0 .3.1.5.3.7.2.2.4.3.7.3H19c.5 0 1-.4 1-.9v-.2C20 3.8 16.2 0 11.6 0zm1 2.1c2.8.5 5 2.7 5.4 5.5h-5.4V2.1z"/></symbol><symbol id="play" viewBox="0 0 20 20"><path fill="#3A434C" d="M15.87 10.01a.99.99 0 0 0-.32-.73L5.81.27A.998.998 0 0 0 4.73.08c-.36.16-.6.52-.6.92v18a.995.995 0 0 0 1.68.73l9.74-8.99c.2-.19.32-.45.32-.73z"/></symbol><symbol id="plugged" viewBox="0 0 20 20"><path class="st0" d="M19 8.9c.5 0 1-.4 1-1s-.5-1-1-1h-3.7v-2c0-.3-.1-.5-.3-.7s-.4-.3-.7-.3h-3.1c-1.8 0-3.5.7-4.7 1.8-1 .8-1.7 2-1.9 3.3H1c-.6 0-1 .4-1 1s.4 1 1 1h3.6c.2 1.3.9 2.5 1.9 3.4 1.2 1.1 2.9 1.8 4.7 1.8h3.1c.3 0 .5-.1.7-.3s.3-.4.3-.7v-1.9H19c.5 0 1-.4 1-1s-.5-1-1-1h-3.7V8.9H19zm-11.2 4c-.8-.8-1.3-1.8-1.3-2.9S7 7.9 7.8 7.1s2.1-1.3 3.4-1.3h2.1v8.3h-2.1c-1.3.1-2.5-.4-3.4-1.2z"/></symbol><symbol id="plus" viewBox="0 0 20 20"><path fill="#3A434C" d="M10.08 20c.55 0 1-.45 1-1v-8h8c.55 0 1-.45 1-1s-.45-1-1-1h-8V1c0-.55-.45-1-1-1s-1 .45-1 1v8h-8c-.55 0-1 .45-1 1s.45 1 1 1h8v8c0 .55.45 1 1 1z"/></symbol><symbol id="popup" viewBox="0 0 20 20"><path class="st0" d="M17.7 1H2.3C1 1 0 2 0 3.3v13.4C0 18 1 19 2.3 19h15.4c1.3 0 2.3-1 2.3-2.3V3.3C20 2 19 1 17.7 1zm.2 15.9l-.2.1H2.3l-.2-.1-.1-.2V6h16v10.7l-.1.2z"/><path class="st0" d="M9.4 8.6H6.1c-.6 0-1 .4-1 1s.4 1 1 1H7l-2.6 2.6c-.4.4-.4 1 0 1.4s1 .4 1.4 0L8.4 12v.9c0 .6.4 1 1 1s1-.4 1-1V9.6c0-.3-.1-.5-.3-.7s-.5-.3-.7-.3z"/></symbol><symbol id="presentation" viewBox="0 0 20 20"><path class="st0" d="M17 0H3C2 0 1.2.8 1.2 1.8v16.5c0 1 .8 1.8 1.8 1.8h10.6c.2 0 .4-.1.5-.2l4.2-4.2c.2-.1.4-.4.4-.6V1.8C18.8.8 17.9 0 17 0zM2.8 18.4l-.1-.2V1.8l.1-.2.2-.1h14l.2.1.1.2v12.5h-3.6c-.2 0-.4.1-.5.2-.1.1-.2.3-.2.5v3.5H3l-.2-.1z"/><path class="st0" d="M13.6 11.7c.2 0 .4-.1.5-.2l.1-.1c.1-.1.2-.3.2-.5v-6c0-.2-.1-.4-.2-.5l-.1-.1c-.1-.3-.3-.4-.5-.4h-7c-.1 0-.3.1-.5.2l-.1.2c-.2.1-.2.3-.2.5v6c0 .2.1.4.2.5l.1.1c.1.1.3.2.5.2l7 .1zM7.3 6.1H13v4.1H7.3V6.1z"/><path class="st0" d="M11.5 7.4H8.7c-.4 0-.7.4-.7.8s.3.8.8.8h2.8c.4 0 .8-.3.8-.8-.1-.4-.5-.8-.9-.8z"/></symbol><symbol id="private" viewBox="0 0 20 20"><path class="st0" d="M1 5.7h8.7c.6 0 1-.4 1-1s-.4-1-1-1H1c-.6 0-1 .4-1 1 0 .5.5 1 1 1zM7.1 11.3H1c-.6 0-1 .4-1 1s.4 1 1 1h6.1c.6 0 1-.4 1-1s-.5-1-1-1zM18.1 7.5l-.1-1c0-1.8-1.4-3.2-3.2-3.2s-3.2 1.4-3.2 3.2v1h-.1c-1.1 0-1.9.9-1.9 1.9v5.4c0 1.1.9 1.9 1.9 1.9H18c1 0 1.9-.9 1.9-1.9V9.4c.1-1.1-.8-1.9-1.8-1.9zm-.1 2v5.2h-6.3V9.5H18zm-4.3-3c0-.3.1-.6.4-.8s.5-.3.8-.3.6.1.8.3.3.4.3.8v1h-2.4l.1-1z"/><circle class="st0" cx="14.8" cy="12.1" r="1"/><path class="st0" d="M7.1 7.5H1c-.6 0-1 .4-1 1s.4 1 1 1h6.1c.6 0 1-.4 1-1s-.5-1-1-1z"/></symbol><symbol id="projector" viewBox="0 0 20 20"><g fill="#3A434C"><path d="M17.8 3.9h-.68c-.48-1.67-2-2.9-3.83-2.9S9.94 2.23 9.46 3.9H2.2C.98 3.91 0 4.89 0 6.1v7.84c0 1.22.98 2.2 2.2 2.2h2.13V18c0 .55.45 1 1 1s1-.45 1-1v-1.86h7.26V18c0 .55.45 1 1 1s1-.45 1-1v-1.86h2.21c1.22 0 2.2-.98 2.2-2.2V6.1c0-1.21-.98-2.19-2.2-2.2zm-6.51 1.09c0-1.1.89-1.99 2-1.99a1.99 1.99 0 1 1 0 3.98c-1.11 0-2-.89-2-1.99zM18 13.94l-.06.14-.14.06H2.2l-.14-.06-.06-.14V6.1l.06-.14.14-.06h7.2c.42 1.76 1.99 3.08 3.88 3.08s3.47-1.31 3.88-3.08h.63l.14.06.07.14v7.84z"/><path d="M8.05 7.5H4.04c-.55 0-1 .45-1 1s.45 1 1 1h4.01c.55 0 1-.45 1-1s-.45-1-1-1zM8.05 10.59H4.04c-.55 0-1 .45-1 1s.45 1 1 1h4.01c.55 0 1-.45 1-1s-.45-1-1-1z"/><circle cx="13.29" cy="4.99" r=".91"/></g></symbol><symbol id="quotes" viewBox="0 0 20 20"><path class="st0" d="M20 11.6c0 .7-.1 1.3-.3 1.9-.2.6-.6 1.1-1 1.5-.4.4-.9.8-1.4 1-.5.3-1.1.4-1.7.3-1.3 0-2.3-.5-3.1-1.4-.8-.9-1.2-2.1-1.2-3.6 0-1.8.7-3.5 2-5 1.4-1.5 3.1-2.5 5.1-2.8l.2.2c-.6.3-1 .8-1.4 1.5-.4.6-.6 1.3-.6 2 2.2.8 3.4 2.2 3.4 4.4zm-11.2 0c0 .7-.1 1.3-.3 1.9-.2.6-.6 1.1-1 1.5-.4.4-.9.8-1.4 1-.5.3-1.1.4-1.7.3-1.3 0-2.3-.5-3.1-1.4-.9-.8-1.3-2-1.3-3.5 0-1.8.7-3.5 2-5 1.4-1.5 3.1-2.5 5.1-2.8l.2.2c-.6.3-1 .8-1.4 1.5-.4.6-.6 1.3-.6 2 2.3.7 3.5 2.1 3.5 4.3z"/></symbol><symbol id="radio" viewBox="0 0 20 20"><path class="st0" d="M10 0C4.5 0 0 4.5 0 10s4.5 10 10 10 10-4.5 10-10S15.5 0 10 0zm6.4 16.4C14.7 18 12.5 19 10 19s-4.7-1-6.4-2.6C2 14.7 1 12.5 1 10s1-4.7 2.6-6.4S7.5 1 10 1s4.7 1 6.4 2.6C18 5.3 19 7.5 19 10s-1 4.7-2.6 6.4z"/></symbol><symbol id="refresh" viewBox="0 0 20 20"><path fill="#3A434C" d="M19 8.27h-.75c-.8-3.84-4.19-6.73-8.27-6.73-2.94 0-5.53 1.5-7.04 3.77A.998.998 0 1 0 4.6 6.42a6.442 6.442 0 0 1 5.38-2.88c2.97 0 5.44 2.01 6.2 4.73h-.48c-.4 0-.76.24-.92.6-.16.37-.08.79.19 1.08l1.65 1.75a1.014 1.014 0 0 0 1.46 0l1.65-1.75c.27-.29.35-.72.19-1.08-.16-.36-.52-.6-.92-.6zM15.4 13.58a6.442 6.442 0 0 1-5.38 2.88c-2.97 0-5.44-2.01-6.2-4.73h.48c.4 0 .76-.24.92-.6.16-.37.08-.79-.19-1.08L3.38 8.29a1.014 1.014 0 0 0-1.46 0L.27 10.04A.995.995 0 1 0 1 11.72h.75c.8 3.84 4.19 6.73 8.27 6.73 2.94 0 5.53-1.5 7.04-3.77.31-.46.18-1.08-.28-1.39a1.01 1.01 0 0 0-1.38.29z"/></symbol><symbol id="reply" viewBox="0 0 20 20"><path class="st0" d="M7.5 14.4c.3.3.7.4 1.1.2s.6-.5.6-.9v-2.9c.6.1 1.4.2 2.1.5.7.3 1.3.7 1.7 1.2.4.6.7 1.3.7 2.3 0 .9-.2 2.1-.9 3.6-.2.4-.1.9.3 1.1.3.3.8.3 1.2.1.1 0 1.2-.7 2.3-1.9.6-.6 1.1-1.4 1.6-2.3.4-.9.8-2 .8-3.2 0-1.2-.3-2.5-1-3.9 0-.1-.5-1.2-1.8-2.3-1.2-1-3.3-2.1-6.3-2.1h-.6V1c0-.4-.2-.8-.6-.9-.4-.2-.8-.1-1.1.2L1.2 6.7c-.4.4-.4 1 0 1.4l6.3 6.3zm-.2-11V5c0 .3.1.6.3.8s.6.2.9.2c.5-.1 1-.1 1.5-.1 2.5 0 4 .9 5 1.7.5.4.8.9 1 1.2.1.2.2.3.2.4v.2c.6 1.1.8 2.2.8 3 0 .9-.2 1.7-.5 2.4-.2.4-.5.8-.7 1.2 0-.3.1-.6.1-.9 0-1.5-.4-2.7-1.2-3.6-1.1-1.4-2.6-2-3.8-2.3-1.3-.4-2.4-.4-2.6-.4h-.1c-.5 0-1 .4-1 1v1.5L3.3 7.4l4-4z"/></symbol><symbol id="reset" viewBox="0 0 20 20"><path class="st0" d="M10 0C7.5 0 5.1.9 3.4 2.5L.9.2C.7 0 .5 0 .3.1.2.2 0 .3 0 .5v6.3c0 .2.1.4.2.5s.2.1.4.1l6.3-.5c.2 0 .4-.1.4-.3.1-.2 0-.4-.1-.5L4.9 3.9C6.2 2.7 8 2 10 2c2.2 0 4.2.9 5.7 2.3C17.1 5.8 18 7.8 18 10s-.9 4.2-2.3 5.7C14.2 17.1 12.2 18 10 18c-3.4 0-6.3-2.1-7.4-5.1-.2-.5-.8-.8-1.3-.6-.5.2-.8.8-.6 1.3C2.1 17.4 5.8 20 10 20c5.5 0 10-4.5 10-10S15.5 0 10 0z"/></symbol><symbol id="results" viewBox="0 0 20 20"><g fill="#3A434C"><path d="M5.76 4.13h4.6c.55 0 1-.45 1-1s-.45-1-1-1h-4.6c-.55 0-1 .45-1 1 0 .56.44 1 1 1z"/><circle cx="1.13" cy="3.13" r="1.13"/><path d="M5.76 11H19c.55 0 1-.45 1-1s-.45-1-1-1H5.76c-.55 0-1 .45-1 1 0 .56.44 1 1 1z"/><circle cx="1.13" cy="10" r="1.13"/><path d="M5.76 17.86h6.75c.55 0 1-.45 1-1s-.45-1-1-1H5.76c-.55 0-1 .45-1 1 0 .56.44 1 1 1z"/><circle cx="1.13" cy="16.86" r="1.13"/></g></symbol><symbol id="rss" viewBox="0 0 20 20"><ellipse transform="rotate(-39.786 1.928 18.117)" class="st0" cx="1.9" cy="18.1" rx="1.9" ry="1.9"/><path class="st0" d="M2.6 8c-.6 0-1 0-1.7.2-.5.3-.9.8-.9 1.3 0 .6.4 1.1.9 1.3.1.1.3.2.5.2.6 0 .9-.1 1.2-.1 3.6 0 6.5 2.9 6.4 6.4v1.2c0 .2 0 .3.1.5.2.6.7 1 1.3 1 .6 0 1.2-.4 1.3-1v-.1c0-.1 0-.2.1-.3v-.1-.1c.1-.4.1-.8.1-1.3 0-4.9-4.2-9.1-9.3-9.1z"/><path class="st0" d="M2.8 0c-.4 0-.9 0-1.3.1-.2 0-.4 0-.5.1C.5.4.1.9.1 1.5c0 .6.4 1.1.9 1.3.2.1.4.1.5.1h1.3c7.9 0 14.3 6.4 14.3 14.3 0 .6 0 .8-.1 1.4 0 .1 0 .3.1.4.2.6.7 1 1.4 1s1.2-.4 1.4-1c0-.1.1-.2.1-.4v-.1c0-.4.1-.9.1-1.3C20 7.7 12.3 0 2.8 0z"/></symbol><symbol id="section" viewBox="0 0 20 20"><path class="st0" d="M17 0H3C1.3 0 0 1.3 0 3v3.4c0 1.6 1.3 3 3 3h14.1c1.6 0 3-1.3 3-2.9V3C20 1.3 18.7 0 17 0zm1 6.4c0 .3-.1.5-.3.7-.2.2-.4.3-.7.3H3c-.3 0-.5-.1-.7-.3-.2-.2-.3-.4-.3-.7V3c0-.3.1-.5.3-.7S2.7 2 3 2h14.1c.3 0 .5.1.7.3.1.2.2.4.2.7v3.4zM17 10.7H3c-1.6 0-3 1.3-3 2.9V17c0 1.6 1.3 3 3 3h14.1c1.6 0 3-1.3 3-3v-3.4c-.1-1.6-1.4-2.9-3.1-2.9zm1 6.4c0 .3-.1.5-.3.7s-.4.2-.7.2H3c-.3 0-.5-.1-.7-.3s-.3-.4-.3-.6v-3.4c0-.3.1-.5.3-.7s.4-.3.7-.3h14.1c.3 0 .5.1.7.3.2.2.3.4.3.7v3.4z"/></symbol><symbol id="singleChoice" viewBox="0 0 20 20"><g fill="#3A434C"><path d="M1 2h18c.55 0 1-.45 1-1s-.45-1-1-1H1C.45 0 0 .45 0 1s.45 1 1 1zM5.25 7.68l-2.33 2.46-1.23-1.17a.996.996 0 1 0-1.38 1.44l1.96 1.87c.19.18.45.28.72.28.27-.01.52-.12.7-.31L6.7 9.06c.38-.4.36-1.03-.04-1.41a.987.987 0 0 0-1.41.03zM19 8.97h-8.28c-.55 0-1 .45-1 1s.45 1 1 1H19c.55 0 1-.45 1-1 0-.56-.45-1-1-1zM1 20h18c.55 0 1-.45 1-1s-.45-1-1-1H1c-.55 0-1 .45-1 1s.45 1 1 1z"/></g></symbol><symbol id="slack" viewBox="0 0 20 20"><path class="st0" d="M2.1 10.4l2-.7 1.5 4.2-2 .7c-.8.3-1.3 1.2-1 2 .3.8 1.2 1.3 2 1l2-.7.7 2c.3.8 1.2 1.3 2 1 .8-.3 1.3-1.2 1-2l-.7-2 4.2-1.5.7 2c.3.8 1.2 1.3 2 1 .8-.3 1.3-1.2 1-2l-.7-2 2-.7c.8-.3 1.3-1.2 1-2s-1.2-1.3-2-1l-2 .7-1.5-4.2 2-.7c.8-.3 1.3-1.2 1-2-.3-.8-1.2-1.3-2-1l-2 .7-.7-2c-.3-.8-1.2-1.3-2-1-.8.3-1.3 1.2-1 2l.7 2-4.2 1.4-.7-2c-.3-.8-1.2-1.3-2-1s-1.3 1.2-1 2l.7 2-2 .7c-.8.3-1.3 1.2-1 2 .3.9 1.2 1.3 2 1.1zm9.3-3.3l1.5 4.2-4.2 1.5-1.6-4.2 4.3-1.5z"/></symbol><symbol id="smile" viewBox="0 0 20 20"><path class="st0" d="M10 0C4.5 0 0 4.5 0 10s4.5 10 10 10 10-4.5 10-10S15.5 0 10 0zm5.7 15.7C14.2 17.1 12.2 18 10 18s-4.2-.9-5.7-2.3S2 12.2 2 10s.9-4.2 2.3-5.7S7.8 2 10 2s4.2.9 5.7 2.3S18 7.8 18 10s-.9 4.2-2.3 5.7z"/><circle class="st0" cx="7.4" cy="7.4" r="1.2"/><circle class="st0" cx="12.7" cy="7.4" r="1.2"/><path class="st0" d="M12.2 12c-.6.5-1.3.9-2.2.9-.9 0-1.6-.3-2.2-.9-.4-.4-1-.4-1.4.1-.4.4-.4 1 .1 1.4.9.9 2.2 1.4 3.6 1.4s2.7-.5 3.6-1.4c.4-.4.4-1 0-1.4s-1.1-.5-1.5-.1z"/></symbol><symbol id="solid" viewBox="0 0 20 20"><g fill="#3A434C"><path d="M6.5 0h6.97v2H6.5zM6.5 18.01h7V20h-7zM9.02 7.24a.81.81 0 0 1 .33-.34c.16-.1.38-.17.62-.17l.14.01c.26.03.48.13.63.27l.18.23.05.22h2.06c0-.39-.08-.76-.23-1.1l-.04-.09-.03-.05a2.95 2.95 0 0 0-1.12-1.2c-.41-.25-.87-.4-1.37-.44-.09-.01-.18-.01-.28-.01a3.098 3.098 0 0 0-2.09.78c-.25.23-.46.49-.62.79l-.07.13c-.11.24-.2.51-.24.79a2.772 2.772 0 0 0 .33 1.77c.23.4.54.73.9.98l.03.01 2.08 1.24.37.22c.11.08.19.17.24.26.05.09.07.17.07.26l-.01.11-.04.11a.81.81 0 0 1-.33.34c-.16.1-.38.17-.62.17l-.23-.02c-.22-.04-.41-.14-.54-.25l-.18-.23-.04-.23H6.91c0 .31.05.61.15.89l.03.07.05.14.04.09.03.05c.26.51.65.92 1.12 1.2a3.14 3.14 0 0 0 1.65.45 3.098 3.098 0 0 0 2.09-.78c.25-.22.46-.49.62-.79l.07-.13c.11-.24.19-.5.24-.78a2.772 2.772 0 0 0-.33-1.78c-.22-.4-.54-.73-.9-.98l-.03-.02L9.66 8.2l-.38-.22a.826.826 0 0 1-.24-.26.509.509 0 0 1-.07-.26l.01-.11.04-.11z"/></g></symbol><symbol id="solidFull" viewBox="0 0 39.21 20"><g fill="#3A434C"><path d="M20.12.01h2.06V14.8h-2.06zM25.13 5.23h2.06v9.57h-2.06zM0 .03h6.12v2.06H0zM15.54 6.05c-.76-.51-1.68-.81-2.66-.81-.65 0-1.28.13-1.85.37-.86.36-1.58.96-2.09 1.72-.52.76-.82 1.69-.82 2.67 0 .65.13 1.28.37 1.85.36.86.96 1.58 1.72 2.09.76.51 1.68.81 2.66.81.65 0 1.28-.13 1.85-.37.86-.36 1.58-.96 2.09-1.72.51-.76.81-1.68.81-2.66 0-.65-.13-1.28-.37-1.85-.34-.86-.95-1.58-1.71-2.1zm-.17 5a2.692 2.692 0 0 1-2.49 1.65c-.38 0-.73-.08-1.05-.21A2.692 2.692 0 0 1 10.18 10c0-.38.08-.73.21-1.05a2.692 2.692 0 0 1 2.49-1.65c.38 0 .73.08 1.05.21A2.692 2.692 0 0 1 15.58 10c0 .37-.07.73-.21 1.05zM26.18 0c-.55 0-1.02.47-1.02 1.02 0 .56.47 1.03 1.02 1.03.56 0 1.03-.47 1.03-1.03 0-.55-.47-1.02-1.03-1.02zM39.21 9.98V.01h-2.06v6.06c-.01-.01-.03-.02-.04-.03-.76-.51-1.68-.81-2.66-.81-.65 0-1.28.13-1.85.37-.86.36-1.58.96-2.09 1.72-.52.76-.82 1.68-.82 2.66 0 .65.13 1.28.37 1.85.36.86.96 1.58 1.72 2.09.76.51 1.68.81 2.66.81.65 0 1.28-.13 1.85-.37.3-.13.58-.29.85-.47v.9h2.06v-4.67c.01-.04.01-.09.01-.14zm-2.27 1.05a2.692 2.692 0 0 1-2.49 1.65c-.38 0-.73-.08-1.05-.21a2.692 2.692 0 0 1-1.65-2.49c0-.38.08-.73.21-1.05a2.692 2.692 0 0 1 2.49-1.65c.38 0 .73.08 1.05.21a2.706 2.706 0 0 1 1.65 2.47v.06c0 .36-.08.7-.21 1.01zM0 17.94h6.12V20H0zM0 12.06c0 .29.05.58.15.84.01.02.02.05.03.07.02.04.03.09.05.13.01.03.03.06.04.09.01.02.02.03.03.05.26.49.65.87 1.11 1.14.35.2.75.34 1.17.4.15.02.31.03.47.03.2 0 .39-.02.58-.05.57-.1 1.09-.34 1.51-.7.25-.21.46-.46.62-.75.02-.04.05-.08.07-.12.11-.23.19-.48.24-.74.02-.13.03-.26.03-.39 0-.47-.13-.92-.36-1.29-.22-.38-.53-.69-.89-.92l-.04-.02-2.07-1.17-.38-.21a.802.802 0 0 1-.24-.25.442.442 0 0 1-.07-.24c0-.04 0-.07.01-.11.01-.03.02-.07.04-.1.05-.11.16-.23.32-.32s.38-.16.62-.16c.05 0 .1 0 .14.01.27.02.49.12.63.25.09.07.15.15.18.22.04.07.05.14.05.21h2.05c0-.37-.08-.72-.23-1.04l-.03-.09a.219.219 0 0 1-.03-.05c-.26-.48-.65-.87-1.11-1.13-.41-.24-.88-.38-1.37-.42-.09-.01-.18-.01-.27-.01-.2 0-.39.02-.58.05-.57.1-1.09.34-1.51.7-.25.2-.46.45-.62.74-.03.04-.05.08-.07.12-.11.23-.2.48-.24.74-.02.13-.03.26-.03.39 0 .47.13.92.36 1.29.22.38.53.69.89.92l.03.02 2.08 1.17.37.21c.11.08.19.16.24.24.05.09.07.16.07.25 0 .04 0 .07-.01.11-.01.03-.02.07-.04.1-.05.11-.16.23-.32.32a1.29 1.29 0 0 1-.85.14c-.22-.04-.41-.13-.53-.24a.872.872 0 0 1-.18-.22.406.406 0 0 1-.05-.21H0z"/></g></symbol><symbol id="spreadsheet" viewBox="0 0 20 20"><path class="st0" d="M13.7 11.9c.2 0 .4-.1.5-.2l.1-.1c.1-.1.2-.3.2-.5V4.7c0-.2-.1-.4-.2-.5l-.1-.2c-.1-.1-.3-.2-.5-.2H6.3c-.2 0-.4.1-.5.2l-.2.2c-.1.1-.2.3-.2.5V11c0 .2.1.4.2.5l.2.1c.1.1.3.2.5.2l7.4.1zM6.9 8.6H8v1.8H6.9V8.6zm2.6 0h1.1v1.8H9.5V8.6zm2.5 0h1.1v1.8H12V8.6zm1.1-1.5H12V5.3h1.1v1.8zm-2.6 0h-1V5.3h1.1c-.1 0-.1 1.8-.1 1.8zM8 7.1H7V5.3h1v1.8z"/><path class="st0" d="M18.8 15V1.8C18.8.8 18 0 17 0H3C2 0 1.2.8 1.2 1.8v16.5c0 1 .8 1.8 1.8 1.8h10.6c.2 0 .4-.1.5-.2l4.2-4.2c.3-.2.5-.5.5-.7zm-16 3.4l-.1-.2V1.8l.1-.2.2-.1h14l.2.1.1.2v12.5h-3.6c-.2 0-.4.1-.5.2s-.2.3-.2.5v3.5H3l-.2-.1z"/></symbol><symbol id="star" viewBox="0 0 20 20"><path class="st0" d="M20 7.6c-.1-.2-.2-.3-.4-.3l-4.1-.4-2.5-.2-.9-2.3-1.6-4c-.1-.3-.3-.4-.5-.4s-.4.1-.5.3l-1.6 4L7 6.7l-2.4.2-4.1.3c-.2.1-.4.2-.5.4s0 .4.2.5L3.3 11l1.8 1.7-.6 2.5-.9 4.2c0 .2 0 .4.2.5.2.1.4.1.6 0L8 17.7l2-1.3 2.1 1.3 3.5 2.2c.2.1.4.1.6 0 .2-.1.2-.3.2-.5l-.9-4.2-.6-2.5 1.9-1.7 3.1-2.9c.1-.1.1-.3.1-.5z"/></symbol><symbol id="starHalf" viewBox="0 0 20 20"><path class="st0" d="M9.5.3l-1.6 4L7 6.7l-2.4.2-4.1.3c-.2.1-.4.2-.5.4s0 .4.2.5L3.3 11l1.8 1.7-.6 2.5-.9 4.2c0 .2 0 .4.2.5.2.1.4.1.6 0L8 17.7l2-1.3V0c-.2 0-.4.1-.5.3z"/></symbol><symbol id="starOutlined" viewBox="0 0 20 20"><path class="st0" d="M20 7.5c-.1-.4-.5-.6-.9-.7l-3.9-.3-2-.2-.8-1.9L10.9.6c-.1-.4-.5-.6-.9-.6s-.8.2-.9.6L7.6 4.4l-.8 1.9-2 .2-3.9.4c-.4 0-.7.3-.9.6s0 .8.3 1.1l3 2.7 1.5 1.4-.5 2.1-.9 4c-.1.4.1.8.4 1 .3.2.8.2 1.1 0l3.3-2.1 1.7-1.1 1.7 1.1 3.4 2.1c.3.2.8.2 1.1 0 .3-.2.5-.6.4-1l-.9-4-.5-2.1 1.5-1.4 3-2.7c.4-.3.5-.7.4-1.1zm-6.6 4.1c-.3.2-.4.6-.3 1l.6 2.7.4 1.7-1.3-1-2.2-1.4c-.3-.2-.7-.2-1.1 0L7.3 16l-1.3.8.4-1.7.6-2.7c.1-.4 0-.7-.3-1l-2-1.8-1.4-1L5 8.5l2.6-.2c.4 0 .7-.3.8-.6l1-2.5.6-1.5.6 1.5 1 2.5c.1.3.5.6.8.6l2.6.2 1.6.1-1.3 1.2-1.9 1.8z"/></symbol><symbol id="stats" viewBox="0 0 20 20"><g fill="#3A434C"><path d="M8.83 11c.19.25.49.4.8.4.31 0 .61-.15.8-.4l1.41-1.88 1.25 1.74c.2.28.53.44.88.41s.65-.22.82-.52L18.1 4.6c.26-.49.08-1.09-.41-1.35s-1.09-.08-1.35.41L13.78 8.4l-1.11-1.55c-.19-.26-.48-.41-.8-.42-.32 0-.62.15-.81.4l-1.42 1.9L8.26 6.9a.985.985 0 0 0-.85-.4c-.33.02-.63.2-.8.48L3.6 11.92a.994.994 0 0 0 .33 1.37c.47.29 1.09.14 1.37-.33l2.24-3.67L8.83 11z"/><path d="M19 17H2V2c0-.55-.45-1-1-1s-1 .45-1 1v16c0 .26.11.52.29.71S.74 19 1 19h18c.55 0 1-.45 1-1s-.45-1-1-1z"/></g></symbol><symbol id="stop" viewBox="0 0 20 20"><path class="st0" d="M1.8 20h16.4c1 0 1.8-.8 1.8-1.8V1.8c0-1-.8-1.8-1.8-1.8H1.8C.8 0 0 .8 0 1.8v16.4c0 1 .8 1.8 1.8 1.8z"/></symbol><symbol id="subtitle" viewBox="0 0 20 20"><path class="st0" d="M13 3.5c.6 0 1-.5 1-1s-.4-1-1-1H7c-.6 0-1 .5-1 1s.4 1 1 1h6zM5.7 13.1L3.8 17c-.2.5 0 1.1.5 1.3s1.1 0 1.3-.5l1.7-3.5h5.4l1.7 3.5c.2.5.8.7 1.3.5.5-.2.7-.8.5-1.3L10.9 6c-.1-.2-.3-.4-.5-.5-.1 0-.2-.1-.3-.1h-.2c-.1 0-.2 0-.3.1-.2.1-.4.3-.5.5l-3.3 7-.1.1zm2.5-.7L10 8.7l1.8 3.7H8.2z"/></symbol><symbol id="summary" viewBox="0 0 20 20"><circle class="st0" cx="10" cy="5.9" r="1.2"/><path class="st0" d="M16.3 1.6H13C12.4.6 11.3 0 10 0S7.6.7 7 1.6H3.7c-.7 0-1.4.3-1.9.8S1 3.5 1 4.3v13.1c0 .7.3 1.4.8 1.9.5.4 1.2.7 1.9.7h12.6c.7 0 1.4-.3 1.9-.8s.8-1.1.8-1.9v-13a2.732 2.732 0 0 0-2.7-2.7zm.7 15.8c0 .2-.1.3-.2.4-.1.1-.3.2-.5.2H3.7c-.2 0-.4-.1-.5-.2-.1-.1-.2-.3-.2-.4V4.3c0-.2.1-.3.2-.5.1-.1.3-.2.5-.2h4.6l.2-.6c.3-.6.8-1 1.5-1s1.2.4 1.4 1l.2.6h4.6c.2 0 .4.1.5.2.2.2.3.3.3.5v13.1z"/><path class="st0" d="M13.5 9.8h-7c-.6 0-1 .4-1 1s.4 1 1 1h7.1c.6 0 1-.4 1-1-.1-.6-.5-1-1.1-1zM13.5 13.5h-7c-.6 0-1 .4-1 1s.4 1 1 1h7.1c.6 0 1-.4 1-1s-.5-1-1.1-1z"/></symbol><symbol id="sunrise" viewBox="0 0 20 20"><path class="st0" d="M10 5c-2.8 0-5 2.2-5 5s2.2 5 5 5 5-2.2 5-5-2.2-5-5-5zm0 8c-1.7 0-3-1.3-3-3s1.3-3 3-3 3 1.3 3 3-1.3 3-3 3zM10 0c-.6 0-1 .4-1 1v2c0 .5.4 1 1 1s1-.5 1-1V1c0-.6-.4-1-1-1zM10 20c.6 0 1-.5 1-1v-2c0-.5-.4-1-1-1s-1 .5-1 1v2c0 .5.4 1 1 1zM19 9h-2c-.5 0-1 .4-1 1s.5 1 1 1h2c.5 0 1-.4 1-1s-.5-1-1-1zM1 11h2c.5 0 1-.4 1-1s-.5-1-1-1H1c-.6 0-1 .4-1 1s.4 1 1 1zM15.7 14.2c-.4-.4-1-.4-1.4 0-.4.4-.4 1 0 1.4l1.4 1.4c.4.4 1 .4 1.4 0s.4-1 0-1.4l-1.4-1.4zM5.8 5.8c.4-.4.4-1 0-1.4L4.3 2.9c-.4-.4-1-.4-1.4 0s-.4 1 0 1.4l1.4 1.4c.4.5 1.1.5 1.5.1zM17.1 2.9c-.4-.4-1-.4-1.4 0l-1.4 1.4c-.4.4-.4 1 0 1.4s1 .4 1.4 0l1.4-1.4c.4-.3.4-1 0-1.4zM2.9 17.1c.4.4 1 .4 1.4 0l1.4-1.4c.4-.4.4-1 0-1.4-.4-.4-1-.4-1.4 0l-1.4 1.4c-.4.3-.4 1 0 1.4z"/></symbol><symbol id="sunset" viewBox="0 0 20 20"><path class="st0" d="M9 5v2c0 .6.4 1 1 1s1-.4 1-1V5c0-.6-.4-1-1-1s-1 .4-1 1zM19 14h-4c0-2.8-2.2-5-5-5s-5 2.2-5 5H1c-.6 0-1 .4-1 1s.4 1 1 1h18c.5 0 1-.4 1-1s-.5-1-1-1zm-9-3c1.7 0 3 1.3 3 3H7c0-1.7 1.3-3 3-3zM2.9 6.9c-.4.4-.4 1 0 1.4l1.4 1.4c.4.4 1 .4 1.4 0s.4-1 0-1.4L4.3 6.9c-.3-.4-1-.4-1.4 0zM15.7 6.9l-1.4 1.4c-.4.4-.4 1 0 1.4.4.4 1 .4 1.4 0l1.4-1.4c.4-.4.4-1 0-1.4-.4-.4-1.1-.4-1.4 0z"/></symbol><symbol id="target" viewBox="0 0 20 20"><circle class="st0" cx="10" cy="10" r="2"/><path class="st0" d="M19 9h-.7c-.5-3.8-3.5-6.9-7.3-7.3V1c0-.6-.4-1-1-1S9 .5 9 1v.7C5.2 2.1 2.1 5.2 1.7 9H1c-.6 0-1 .4-1 1s.4 1 1 1h.6c.5 3.8 3.5 6.9 7.3 7.3v.7c0 .5.4 1 1 1s1-.5 1-1v-.7c3.8-.5 6.9-3.5 7.3-7.3h.8c.5 0 1-.4 1-1s-.5-1-1-1zm-4.5 5.5c-.9.9-2.2 1.6-3.5 1.8v-.7c0-.6-.4-1-1-1s-1 .4-1 1v.7c-1.4-.2-2.6-.9-3.5-1.8-.9-.9-1.6-2.2-1.8-3.5h.7c.6 0 1-.4 1-1s-.4-1-1-1h-.7c.2-1.4.8-2.6 1.8-3.5.9-1 2.1-1.6 3.5-1.8v.7c0 .6.4 1 1 1s1-.4 1-1v-.7c1.4.2 2.6.8 3.5 1.8.9.9 1.6 2.2 1.8 3.5h-.7c-.6 0-1 .4-1 1s.4 1 1 1h.7c-.2 1.4-.8 2.6-1.8 3.5z"/></symbol><symbol id="timeline" viewBox="0 0 20 20"><g fill="#3A434C"><path d="M10 0c-.55 0-1 .45-1 1v18c0 .55.45 1 1 1s1-.45 1-1V1c0-.55-.45-1-1-1zM16.54 2.5a3.461 3.461 0 0 0 0 6.92 3.461 3.461 0 0 0 0-6.92zm0 4.92c-.81 0-1.46-.65-1.46-1.46s.65-1.46 1.46-1.46c.81 0 1.46.65 1.46 1.46 0 .8-.65 1.46-1.46 1.46zM3.46 10.51a3.461 3.461 0 0 0 0 6.92 3.461 3.461 0 0 0 0-6.92zm0 4.92C2.65 15.42 2 14.77 2 13.97c0-.81.65-1.46 1.46-1.46s1.46.65 1.46 1.46c0 .8-.66 1.45-1.46 1.46z"/></g></symbol><symbol id="title" viewBox="0 0 20 20"><path class="st0" d="M19.5 18.6L11 .6c-.2-.4-.6-.6-.9-.6H10h-.1c-.3 0-.7.2-.8.6L3.7 11.8c-.1.1-.1.2-.2.3l-3 6.4c-.2.5 0 1.1.5 1.3.5.2 1.1 0 1.3-.5l2.9-6h9.6l2.9 6c.2.5.8.7 1.3.5.5-.1.7-.7.5-1.2zM6.2 11.4L10 3.3l3.8 8.1H6.2z"/></symbol><symbol id="titles" viewBox="0 0 20 20"><g fill="#3A434C"><path d="M15.56 1c0-.55-.45-1-1-1H1C.45 0 0 .45 0 1s.45 1 1 1h5.78v17c0 .55.45 1 1 1s1-.45 1-1V2h5.78c.55 0 1-.45 1-1z"/><path d="M19 7.99h-7.15c-.55 0-1 .45-1 1s.45 1 1 1h2.57v9c0 .55.45 1 1 1s1-.45 1-1v-9H19c.55 0 1-.45 1-1s-.45-1-1-1z"/></g></symbol><symbol id="trash" viewBox="0 0 20 20"><path class="st0" d="M8.1 16.3c.6 0 1-.4 1-1V8.9c0-.6-.4-1-1-1s-1 .4-1 1v6.4c0 .6.4 1 1 1zM11.9 16.3c.6 0 1-.4 1-1V8.9c0-.6-.4-1-1-1s-1 .4-1 1v6.4c0 .6.5 1 1 1z"/><path class="st0" d="M10 0C8.3 0 7 1.3 7 3v1.2H2.3c-.5 0-1 .4-1 1s.5 1 1 1h1v11c0 1.5 1.2 2.7 2.8 2.8h8c1.5 0 2.7-1.2 2.8-2.8v-11h.8c.5 0 1-.4 1-1s-.5-1-1-1H13V3c-.1-1.7-1.4-3-3-3zM9 3c0-.3.1-.5.3-.7.1-.2.4-.3.7-.3s.5.1.7.3c.2.2.3.4.3.7v1.2H9V3zm5.8 14.2c0 .2-.1.4-.2.5-.1.1-.3.2-.5.2h-8c-.2 0-.4-.1-.5-.2s-.2-.3-.2-.5v-11h9.5v11z"/></symbol><symbol id="triangleDown" viewBox="0 0 20 20"><path class="st0" d="M19.9 4.7c-.2-.4-.5-.6-.9-.6H1c-.4 0-.8.2-.9.6s-.1.8.2 1.1l9 9.7c.2.2.5.3.7.3.3 0 .6-.1.7-.3l9-9.7c.3-.3.4-.7.2-1.1z"/></symbol><symbol id="triangleLeft" viewBox="0 0 20 20"><path class="st0" d="M14.2 19.7c.3.3.7.3 1.1.2.4-.2.6-.5.6-.9V1c0-.4-.2-.8-.6-.9-.4-.2-.8-.1-1.1.2l-9.7 9c-.3.1-.4.4-.4.7s.1.6.3.7l9.8 9z"/></symbol><symbol id="triangleRight" viewBox="0 0 20 20"><path class="st0" d="M15.9 10c0-.3-.1-.6-.3-.7L5.9.3C5.5 0 5.1-.1 4.7.1c-.3.1-.6.5-.6.9v18c0 .4.2.8.6.9s.8.1 1.1-.2l9.7-9c.3-.1.4-.4.4-.7z"/></symbol><symbol id="triangleUp" viewBox="0 0 20 20"><path class="st0" d="M19.9 15.3c.2-.4.1-.8-.2-1.1l-9-9.7c-.2-.2-.5-.3-.7-.3-.3 0-.6.1-.7.3l-9 9.7c-.3.3-.4.7-.2 1.1.2.4.5.6.9.6h18c.4 0 .8-.3.9-.6z"/></symbol><symbol id="twitter" viewBox="0 0 20 20"><path fill="#3A434C" d="M19.45 1.81c-.79.49-1.67.85-2.61 1.04-.75-.83-1.81-1.36-2.99-1.36-2.27 0-4.1 1.92-4.1 4.29 0 .34.04.66.11.98-3.42-.17-6.44-1.88-8.47-4.47-.35.63-.55 1.37-.55 2.15 0 1.49.72 2.8 1.83 3.57-.68-.02-1.31-.21-1.87-.53v.05c0 2.08 1.41 3.81 3.29 4.21a3.86 3.86 0 0 1-1.85.07c.52 1.71 2.04 2.95 3.83 2.98a8.002 8.002 0 0 1-6.08 1.78c1.82 1.22 3.97 1.93 6.29 1.93 7.55 0 11.67-6.54 11.67-12.21 0-.19 0-.37-.01-.56.8-.61 1.5-1.36 2.05-2.22-.74.34-1.53.57-2.36.68.86-.53 1.51-1.37 1.82-2.38z"/></symbol><symbol id="unlock" viewBox="0 0 20 20"><path class="st0" d="M4.8 6.6c-1.3 0-2.3 1-2.3 2.3v8.7c0 1.3 1 2.3 2.3 2.4h10.4c1.3 0 2.3-1 2.4-2.4V8.9c0-1.3-1-2.3-2.4-2.3h-.8V4.4C14.4 2 12.4 0 10 0S5.6 2 5.6 4.4h2c0-.7.3-1.3.7-1.7a2.413 2.413 0 0 1 3.4 0c.4.4.7 1 .7 1.7v2.1l-7.6.1zm10.7 2.1c.1.1.1.1.1.2v8.7c0 .1 0 .2-.1.2-.1.2-.2.2-.3.2H4.8c-.1 0-.2 0-.2-.1-.1-.1-.1-.1-.1-.2V8.9c0-.1 0-.2.1-.2.1-.1.2-.1.2-.1h10.4c.1 0 .2 0 .3.1z"/><circle class="st0" cx="10" cy="13.3" r="1.2"/></symbol><symbol id="unplugged" viewBox="0 0 20 20"><path class="st0" d="M19 15.1h-3.7v-2.3H19c.5 0 1-.4 1-1s-.5-1-1-1h-3.7v-2c0-.3-.1-.5-.3-.7s-.4-.3-.7-.3h-.7l-1.1 2h.7V18h-2.1c-1.3 0-2.5-.5-3.4-1.3-.7-.7-1.2-1.8-1.2-2.9s.5-2.1 1.3-2.9c.2-.1.3-.2.5-.4V8.2c-.6.4-1.3.8-1.8 1.3-1 .9-1.7 2.1-1.9 3.4H1c-.6 0-1 .4-1 1s.4 1 1 1h3.6c.2 1.3.9 2.5 1.9 3.4 1.2 1.1 2.9 1.8 4.7 1.8h3.1c.3 0 .5-.1.7-.3s.3-.4.3-.7v-2H19c.5 0 1-.5 1-1s-.5-1-1-1z"/><path class="st0" d="M9.4 11.2v.7c0 .2.1.3.3.3.1 0 .3 0 .4-.2l.8-1.4 2.1-4 1.1-2c.1-.1.1-.2 0-.3-.1-.1-.2-.2-.3-.2h-3.4L11.8.5V.2c0-.1-.2-.1-.3-.1h-3c-.1-.1-.3 0-.3.1L6 6.6v.3c0 .1.2.1.3.1h3.1v4.2z"/></symbol><symbol id="user" viewBox="0 0 20 20"><path class="st0" d="M18.7 19.7c.2-.2.3-.4.3-.7v-2c0-.5-.1-1-.4-1.4-.4-.7-1-1.3-1.7-1.7-1-.7-2.3-1.1-3.5-1.4-1.2-.4-2.4-.5-3.4-.5-1.5 0-3.6.4-5.4 1.1-.9.4-1.8.8-2.4 1.4-.3.3-.6.7-.9 1.1S1 16.5 1 17v2c0 .3.1.5.3.7s.4.3.7.3h16c.3 0 .5-.1.7-.3zM17 18H3v-1c0-.2 0-.3.1-.5.2-.3.5-.6 1-1 .8-.5 1.8-.9 2.9-1.2 1.1-.3 2.2-.4 3-.4 1.2 0 3.1.3 4.6.9.8.3 1.4.7 1.8 1.1.2.2.4.4.4.5.2.3.2.4.2.6v1zM5 5c0 2.8 2.2 5 5 5s5-2.2 5-5-2.2-5-5-5-5 2.2-5 5zm8 0c0 1.7-1.3 3-3 3S7 6.7 7 5s1.3-3 3-3 3 1.3 3 3z"/></symbol><symbol id="video" viewBox="0 0 20 20"><path class="st0" d="M3.2 20h13.6c1 0 1.8-.8 1.8-1.8V1.8c0-1-.8-1.8-1.8-1.8H3.2c-1 0-1.8.8-1.8 1.8v16.5c0 .9.8 1.7 1.8 1.7zM2.9 1.8c0-.1.1-.3.3-.3h13.6c.1 0 .3.1.3.3v16.5c0 .1-.1.3-.3.3H3.2c-.1 0-.3-.1-.3-.3V1.8z"/><path class="st0" d="M6.5 10.5h4c.6 0 1.1-.5 1.2-1.2v-.2l1.9 1.2c.2.1.5.2.8 0s.4-.4.4-.7V6.1c0-.3-.1-.5-.4-.7s-.5-.1-.8 0l-1.9 1.2v-.1c0-.6-.5-1.2-1.2-1.2h-4c-.6 0-1.2.5-1.2 1.2v2.8c0 .7.5 1.2 1.2 1.2zm6.7-3v.8l-.6-.4.6-.4zM10.1 9H6.8V6.9h3.3V9z"/></symbol><symbol id="warning" viewBox="0 0 20 20"><path class="st0" d="M10 0C4.5 0 0 4.5 0 10s4.5 10 10 10 10-4.5 10-10S15.5 0 10 0zm5.7 15.7C14.2 17.1 12.2 18 10 18s-4.2-.9-5.7-2.3S2 12.2 2 10s.9-4.2 2.3-5.7S7.8 2 10 2s4.2.9 5.7 2.3S18 7.8 18 10s-.9 4.2-2.3 5.7z"/><path class="st0" d="M10 11.1c.6 0 1-.4 1-1v-4c0-.6-.4-1-1-1s-1 .4-1 1v4c0 .5.4 1 1 1z"/><circle class="st0" cx="10" cy="13.9" r="1.2"/></symbol><symbol id="warningSign" viewBox="0 0 20 20"><path class="st0" d="M1 19h18c.4 0 .7-.2.9-.5s.2-.7 0-1l-9-16c-.2-.3-.5-.5-.9-.5s-.7.2-.9.5l-9 16c-.2.3-.2.7 0 1 .2.3.5.5.9.5zm9-15l7.3 13H2.7L10 4z"/><path class="st0" d="M10 13c.6 0 1-.4 1-1V8.8c0-.6-.4-1-1-1s-1 .4-1 1V12c0 .6.4 1 1 1z"/><circle class="st0" cx="10" cy="15" r="1"/></symbol><symbol id="wifi" viewBox="0 0 20 20"><g fill="#3A434C"><circle cx="10" cy="15.75" r="1.25"/><path d="M13.57 13.22c.4-.38.41-1.02.03-1.41-.9-.94-2.17-1.53-3.57-1.53-1.41 0-2.69.59-3.59 1.54-.29.3-.36.76-.17 1.14.25.49.85.69 1.34.45.11-.05.19-.13.27-.21l.01.01c.55-.57 1.29-.92 2.14-.92.85 0 1.58.34 2.13.91.38.39 1.01.4 1.41.02z"/><path d="M16.59 10.41c.39-.39.4-1.02.02-1.41a9.221 9.221 0 0 0-6.6-2.78A9.17 9.17 0 0 0 3.4 9c-.28.29-.36.72-.21 1.09a.993.993 0 0 0 1.63.31A7.228 7.228 0 0 1 10 8.22c2.03 0 3.85.83 5.17 2.18.39.39 1.02.4 1.42.01z"/><path d="M10.01 2C6.2 2 2.76 3.56.29 6.08A.996.996 0 0 0 .3 7.49c.39.39 1.03.38 1.41-.01C3.83 5.33 6.75 4 10.01 4c3.25 0 6.17 1.32 8.28 3.47a.996.996 0 1 0 1.42-1.4A13.582 13.582 0 0 0 10.01 2z"/></g></symbol><symbol id="wisembly" viewBox="0 0 20 20"><path class="st0" d="M12.4 0L1.7 3.3 4.3 8l8.1-8zM.1 14.5l5.5-.9L.1 3.8zM9.5 5.2L19.9 10l-6.5-8.7zM11.5 14.2L.1 16.1l10.6 3.4zM13.9 9l-1.6 11 6.6-8.7-5-2.3zm0 0z"/></symbol><symbol id="wisemblyFull" viewBox="0 0 87.7 20"><path class="st0" d="M82 14.9c-.3 0-.7-.1-1-.3l-.1-.1-.7 1.4h.1c.5.3 1.1.5 1.8.5 1.2 0 2-.6 2.6-2.1l3-7.8H85.8L83.9 12l-2.1-5.4h-2l3.2 7.6c-.3.6-.6.7-1 .7zM69.6 13.3c.5.6 1.3 1.1 2.4 1.1 1.8 0 3.5-1.2 3.5-3.8s-1.7-4-3.5-4c-1.1 0-1.9.4-2.4 1.1V3.8h-1.9v10.6h1.9v-1.1zm2-5c1.1 0 2 .9 2.1 2.3 0 1.4-.9 2.1-2.1 2.1-1.1 0-2.1-.8-2.1-2.2 0-1.5 1-2.2 2.1-2.2zM63.7 6.6c-1.1 0-1.9.5-2.5 1.2C60.8 7 60 6.6 59 6.6c-1.1 0-1.7.5-2.2 1.1V6.6h-1.9v7.7h1.9v-4.2c0-1.1.6-1.8 1.5-1.8s1.4.6 1.4 1.7v4.3h1.9v-4.2c0-1.2.6-1.8 1.5-1.8s1.4.6 1.4 1.7v4.2h1.9V9.6c0-.9-.2-1.7-.7-2.2-.5-.5-1.2-.8-2-.8zM76.8 3.8h1.9v10.5h-1.9zM31.1 11.5l-1.6-4.9h-1.6l-1.6 4.9-1.4-4.9h-2l2.5 7.7h1.7l1.6-4.9 1.6 4.9H32l2.5-7.7h-1.9zM35.9 14.3h1.9V6.6h-1.9zM42.8 9.7c-.9-.3-1.7-.4-1.6-.9 0-.4.3-.6 1-.7.6 0 1.3.3 2.1.7l.1.1.8-1.4H45c-.8-.5-1.8-.9-2.8-.9-1.5 0-2.8.9-2.8 2.4s1.3 1.9 2.4 2.2c.9.3 1.6.4 1.6.9 0 .4-.3.7-1.1.7-.7 0-1.6-.3-2.4-.9l-.1-.1-.9 1.3.1.1c1 .8 2.2 1.1 3.2 1.1 1.6 0 2.9-.8 2.9-2.4.1-1.4-1.2-1.9-2.3-2.2zM53.5 10.7c0-2.2-1.3-4.1-3.7-4.1-2.2 0-3.7 1.7-3.8 3.9 0 2.4 1.7 3.8 3.9 3.8 1.4 0 2.4-.6 3.1-1.4l-1.1-1c-.6.6-1.2.9-2 .9-1 0-1.8-.4-2-1.5h5.5c.1-.4.1-.5.1-.6zM48 10c.2-1.1.9-1.8 1.8-1.8 1 0 1.7.8 1.8 1.8H48zM35.9 3.8h1.9v1.9h-1.9zM4.1 8l7.7-8L1.6 3.3zM9.1 5.2l10 4.8-6.3-8.7zM0 16.2l10.2 3.3.7-5.3zM5.3 13.6L0 3.8v10.7l5.3-.9zM11.8 20l6.3-8.7L13.3 9z"/></symbol><symbol id="youtube" viewBox="0 0 20 20"><path class="st0" d="M19.8 6s-.2-1.4-.8-2c-.8-.8-1.6-.8-2-.8-2.8-.2-7-.2-7-.2s-4.2 0-7 .2c-.4 0-1.2 0-2 .8-.6.6-.8 2-.8 2S0 7.6 0 9.2v1.5c0 1.7.2 3.3.2 3.3s.2 1.4.8 2c.8.8 1.8.8 2.2.9 1.6.1 6.8.1 6.8.1s4.2 0 7-.2c.4 0 1.2-.1 2-.8.6-.6.8-2 .8-2s.2-1.6.2-3.2V9.2c0-1.6-.2-3.2-.2-3.2zM7.9 12.6V7l5.4 2.8-5.4 2.8z"/></symbol></svg>