<?xml version="1.0" encoding="UTF-8" standalone="no"?>
<svg width="20px" height="20px" viewBox="0 0 20 20" version="1.1" xmlns="http://www.w3.org/2000/svg" xmlns:xlink="http://www.w3.org/1999/xlink" xmlns:sketch="http://www.bohemiancoding.com/sketch/ns">
    <!-- Generator: Sketch 3.4.2 (15857) - http://www.bohemiancoding.com/sketch -->
    <title>agendaItem</title>
    <desc>Created with Sketch.</desc>
    <defs></defs>
    <g id="Page-1" stroke="none" stroke-width="1" fill="none" fill-rule="evenodd" sketch:type="MSPage">
        <g id="agendaItem" sketch:type="MSArtboardGroup" transform="translate(-6.000000, -6.000000)" fill="#3A434C">
            <path d="M23,7.5 L9,7.5 L9,12.112942 L9.7919426,12.112942 C9.85954746,11.8491701 9.9812362,11.5158768 10.1550773,11.1130623 C10.3269868,10.708203 10.5278698,10.3278807 10.7538631,9.96800577 C10.9798565,9.60813086 11.2270971,9.28710609 11.495585,9.0028867 C11.7640728,8.72071205 12.0209713,8.56326678 12.2701435,8.53055088 C12.5869205,8.489656 12.9191501,8.46511908 13.2668322,8.45285061 C13.6145143,8.44058215 13.9042494,8.43444792 14.1379691,8.43444792 L14.794702,8.43444792 L14.794702,22.1403656 C14.794702,22.4675247 14.736755,22.7292519 14.6189294,22.9255473 C14.5030353,23.1218427 14.3195364,23.271109 14.0703642,23.3753909 C13.9042494,23.4469569 13.6048565,23.5062545 13.1702539,23.5553284 C12.7375828,23.6023575 12.415011,23.6350734 12.2025386,23.6493866 L12.2025386,24.5 L19.785872,24.5 L19.785872,23.6493866 C19.544426,23.6432523 19.2064018,23.590089 18.7737307,23.493986 C18.339128,23.3978831 18.0532561,23.3222276 17.9180464,23.2670195 C17.6534216,23.1463796 17.4699227,22.9766659 17.3636865,22.7578783 C17.2574503,22.5370459 17.205298,22.2957662 17.205298,22.0319942 L17.205298,8.43444792 L17.8639625,8.43444792 C18.165287,8.43444792 18.4936534,8.44262689 18.8509934,8.45898484 C19.2064018,8.4753428 19.5,8.49783498 19.7356512,8.53055088 C19.9848234,8.56940101 20.2436534,8.72889103 20.5121413,9.0028867 C20.7806291,9.27892711 21.0278698,9.59995189 21.2557947,9.96800577 C21.4740618,10.3197017 21.6730132,10.6938898 21.8507174,11.0885254 C22.0284216,11.4831609 22.1520419,11.8246331 22.2196468,12.112942 L23,12.112942 L23,7.5 Z" sketch:type="MSShapeGroup"></path>
        </g>
    </g>
</svg>