<?xml version="1.0" encoding="UTF-8" standalone="no"?>
<svg width="21px" height="20px" viewBox="0 0 21 20" version="1.1" xmlns="http://www.w3.org/2000/svg" xmlns:xlink="http://www.w3.org/1999/xlink" xmlns:sketch="http://www.bohemiancoding.com/sketch/ns">
    <!-- Generator: Sketch 3.4.2 (15857) - http://www.bohemiancoding.com/sketch -->
    <title>alarmClock</title>
    <desc>Created with Sketch.</desc>
    <defs></defs>
    <g id="Page-1" stroke="none" stroke-width="1" fill="none" fill-rule="evenodd" sketch:type="MSPage">
        <g id="alarmClock" sketch:type="MSArtboardGroup" transform="translate(-6.000000, -6.000000)" fill="#3A434C">
            <path d="M27,10.6851152 C27,8.09639507 24.8577567,6 22.2137882,6 C20.7920057,6 19.5315409,6.63012258 18.6565979,7.59470512 C17.9634789,7.42881298 17.243018,7.33248851 16.4965823,7.33248851 C15.7528807,7.33248851 15.0324198,7.42881298 14.3406679,7.59336728 C13.4643578,6.63012258 12.2093614,6 10.7875789,6 C8.14361044,6 6.0013671,8.09639507 6,10.6851152 C6,12.0764687 6.64390339,13.3126327 7.63094851,14.1688502 C7.46552959,14.8431215 7.3670985,15.5428118 7.3670985,16.2652453 C7.36846559,18.598438 8.28852288,20.7149007 9.78549574,22.3055923 L7.93034308,24.4595145 C7.58993555,24.8555151 7.64188529,25.4455025 8.04517935,25.7799624 C8.44984051,26.1130846 9.05409804,26.0622466 9.39450557,25.666246 L11.2195821,23.5471077 C12.7110865,24.5825957 14.5279604,25.1980021 16.4965823,25.1980021 C18.491179,25.1980021 20.3312935,24.5652038 21.8323677,23.502959 L23.69709,25.666246 C24.0374976,26.0622466 24.6417551,26.1130846 25.0450492,25.7799624 C25.4497103,25.4455025 25.5002929,24.8555151 25.1598854,24.4595145 L23.2582514,22.2507409 C24.723781,20.6667385 25.6246989,18.5716812 25.626066,16.2652453 C25.626066,15.5548523 25.5317362,14.8672026 25.3704186,14.2036341 C26.3684005,13.3460787 27,12.0858336 27,10.6851152 L27,10.6851152 Z M7.91393789,10.6851152 C7.91667209,9.13188313 9.20037758,7.87565149 10.7875789,7.87297581 C11.357659,7.87297581 11.8757893,8.04823284 12.3214634,8.32784137 C10.6317297,9.18004536 9.25096022,10.5326015 8.38011848,12.1888472 C8.0943949,11.7513736 7.91393789,11.2429944 7.91393789,10.6851152 L7.91393789,10.6851152 Z M21.5985938,21.2580637 C20.2889135,22.5370386 18.491179,23.3250263 16.4965823,23.3250263 C14.5006184,23.3250263 12.7028839,22.5370386 11.3945707,21.2580637 C10.0876245,19.9777509 9.28240349,18.2184915 9.28240349,16.2652453 C9.28240349,14.3133369 10.0876245,12.5540775 11.3945707,11.2724269 C12.7028839,9.993452 14.5006184,9.20546432 16.4965823,9.20546432 C18.491179,9.20546432 20.2889135,9.993452 21.5985938,11.2724269 C22.90554,12.5540775 23.710761,14.3133369 23.710761,16.2652453 C23.710761,18.2184915 22.90554,19.9777509 21.5985938,21.2580637 L21.5985938,21.2580637 Z M20.6758024,8.32917921 C21.1228436,8.04957068 21.642341,7.87297581 22.2137882,7.87297581 C23.7996224,7.87565149 25.0833279,9.13188313 25.0860621,10.6851152 C25.0860621,11.2456701 24.9056051,11.7567249 24.6157802,12.1955364 C23.7463056,10.5379528 22.3669032,9.18405888 20.6758024,8.32917921 Z M16.3981512,11.9119144 C15.869084,11.9119144 15.4398151,12.3306582 15.4398151,12.8484023 L15.4398151,15.3394601 L13.3044073,17.7770043 C12.9612655,18.1703293 13.0077469,18.7616545 13.4096738,19.0974523 C13.8102337,19.4345879 14.4144912,19.3891014 14.7590001,18.9957765 L17.1213463,16.2986913 C17.1814986,16.2291236 17.2156761,16.1475154 17.2525877,16.067245 C17.2607903,16.0498531 17.2744613,16.0351368 17.2812968,16.0164071 C17.3086388,15.9455016 17.3182084,15.8732582 17.326411,15.7983392 C17.3332465,15.7528526 17.353753,15.7113796 17.353753,15.6645552 L17.353753,12.8484023 C17.353753,12.3306582 16.9258512,11.9119144 16.3981512,11.9119144 Z" sketch:type="MSShapeGroup"></path>
        </g>
    </g>
</svg>