<?xml version="1.0" encoding="UTF-8" standalone="no"?>
<svg width="19px" height="20px" viewBox="0 0 19 20" version="1.1" xmlns="http://www.w3.org/2000/svg" xmlns:xlink="http://www.w3.org/1999/xlink" xmlns:sketch="http://www.bohemiancoding.com/sketch/ns">
    <!-- Generator: Sketch 3.4.2 (15857) - http://www.bohemiancoding.com/sketch -->
    <title>alert</title>
    <desc>Created with Sketch.</desc>
    <defs></defs>
    <g id="Page-1" stroke="none" stroke-width="1" fill="none" fill-rule="evenodd" sketch:type="MSPage">
        <g id="alert" sketch:type="MSArtboardGroup" transform="translate(-6.000000, -6.000000)" fill="#3A434C">
            <g sketch:type="MSLayerGroup" transform="translate(6.000000, 7.555556)">
                <path d="M18.4057222,15.3245556 L9.96127778,0.973222222 C9.82827778,0.747333333 9.5855,0.608 9.32372222,0.608 C9.06194444,0.608 8.81916667,0.747333333 8.68722222,0.973222222 L0.242777778,15.3245556 C0.108722222,15.5525556 0.106611111,15.8375556 0.238555556,16.0666111 C0.369444444,16.2956667 0.615388889,16.4381667 0.879277778,16.4381667 L17.7681667,16.4381667 C18.0320556,16.4381667 18.2790556,16.2956667 18.4099444,16.0666111 C18.5408333,15.8375556 18.5387222,15.5525556 18.4057222,15.3245556 L18.4057222,15.3245556 Z M2.17127778,14.9603889 L9.32372222,2.80461111 L16.4761667,14.9603889 L2.17127778,14.9603889 L2.17127778,14.9603889 Z" id="Fill-1" sketch:type="MSShapeGroup"></path>
                <path d="M8.58483333,7.14716667 L8.58483333,10.7001667 C8.58483333,11.1076111 8.91627778,11.4390556 9.32372222,11.4390556 C9.73222222,11.4390556 10.0626111,11.1076111 10.0626111,10.7001667 L10.0626111,7.14716667 C10.0626111,6.73866667 9.73222222,6.40827778 9.32372222,6.40827778 C8.91627778,6.40827778 8.58483333,6.73866667 8.58483333,7.14716667 Z M9.34588889,12.16 C8.93738889,12.16 8.607,12.4903889 8.607,12.8988889 C8.607,13.3063333 8.93738889,13.6377778 9.34588889,13.6377778 C9.75438889,13.6377778 10.0847778,13.3063333 10.0847778,12.8988889 C10.0847778,12.4903889 9.75438889,12.16 9.34588889,12.16 Z" id="Fill-2" sketch:type="MSShapeGroup"></path>
            </g>
        </g>
    </g>
</svg>