<?xml version="1.0" encoding="UTF-8" standalone="no"?>
<svg width="20px" height="20px" viewBox="0 0 20 20" version="1.1" xmlns="http://www.w3.org/2000/svg" xmlns:xlink="http://www.w3.org/1999/xlink" xmlns:sketch="http://www.bohemiancoding.com/sketch/ns">
    <!-- Generator: Sketch 3.4.2 (15857) - http://www.bohemiancoding.com/sketch -->
    <title>arrowFirst</title>
    <desc>Created with Sketch.</desc>
    <defs></defs>
    <g id="Page-1" stroke="none" stroke-width="1" fill="none" fill-rule="evenodd" sketch:type="MSPage">
        <g id="arrowFirst" sketch:type="MSArtboardGroup" transform="translate(-6.000000, -6.000000)" fill="#3A434C">
            <path d="M25.3626151,6.09892734 C24.972268,5.92160778 24.517773,5.98571562 24.1943036,6.26669893 L14.108063,14.9812736 C13.8692142,15.1886011 13.7299995,15.4914083 13.7299995,15.8078555 L13.7299995,16.1925026 C13.7299995,16.5089498 13.8692142,16.8117571 14.108063,17.0190846 L24.1943036,25.7336592 C24.517773,26.0132785 24.972268,26.0787504 25.3626151,25.9014308 C25.7515973,25.7227472 26,25.3367362 26,24.9084412 L26,7.09191691 C26,6.66362196 25.7515973,6.2776109 25.3626151,6.09892734 L25.3626151,6.09892734 Z M16.2700005,16.0001791 L23.812902,9.47754706 L23.812902,22.5228111 L16.2700005,16.0001791 Z M17.8844029,24.0830869 L8.53693378,16.0000427 L17.8844029,7.91699848 C18.3399777,7.52280345 18.3904456,6.83398514 17.9962506,6.37841026 C17.6020556,5.92283537 16.9132372,5.8723675 16.4576624,6.26656253 L6.37772707,14.9825012 C6.13766366,15.1884647 5.9999,15.4912719 5.9999,15.8077191 L5.9999,16.1937302 C5.9999,16.5088134 6.13766366,16.8116207 6.37772707,17.0189482 L16.4562984,25.7335228 C16.9118732,26.1277178 17.6020556,26.078614 17.9962506,25.6230391 C18.3904456,25.1661002 18.3399777,24.4772819 17.8844029,24.0830869 L17.8844029,24.0830869 Z" sketch:type="MSShapeGroup"></path>
        </g>
    </g>
</svg>
