<?xml version="1.0" encoding="UTF-8" standalone="no"?>
<svg width="20px" height="20px" viewBox="0 0 20 20" version="1.1" xmlns="http://www.w3.org/2000/svg" xmlns:xlink="http://www.w3.org/1999/xlink" xmlns:sketch="http://www.bohemiancoding.com/sketch/ns">
    <!-- Generator: Sketch 3.4.2 (15857) - http://www.bohemiancoding.com/sketch -->
    <title>bulletDay</title>
    <desc>Created with Sketch.</desc>
    <defs></defs>
    <g id="Page-1" stroke="none" stroke-width="1" fill="none" fill-rule="evenodd" sketch:type="MSPage">
        <g id="bulletDay" sketch:type="MSArtboardGroup" transform="translate(-6.000000, -6.000000)" fill="#3A434C">
            <path d="M16,22.5 C19.5898509,22.5 22.5,19.5898509 22.5,16 C22.5,12.4101491 19.5898509,9.5 16,9.5 C12.4101491,9.5 9.5,12.4101491 9.5,16 C9.5,19.5898509 12.4101491,22.5 16,22.5 L16,22.5 Z M16,19.5 C14.0670034,19.5 12.5,17.9329966 12.5,16 C12.5,14.0670034 14.0670034,12.5 16,12.5 C17.9329966,12.5 19.5,14.0670034 19.5,16 C19.5,17.9329966 17.9329966,19.5 16,19.5 L16,19.5 Z" id="Shape" sketch:type="MSShapeGroup"></path>
        </g>
    </g>
</svg>