<?xml version="1.0" encoding="UTF-8" standalone="no"?>
<svg width="20px" height="20px" viewBox="0 0 20 20" version="1.1" xmlns="http://www.w3.org/2000/svg" xmlns:xlink="http://www.w3.org/1999/xlink" xmlns:sketch="http://www.bohemiancoding.com/sketch/ns">
    <!-- Generator: Sketch 3.4.2 (15857) - http://www.bohemiancoding.com/sketch -->
    <title>checkmark</title>
    <desc>Created with Sketch.</desc>
    <defs></defs>
    <g id="Page-1" stroke="none" stroke-width="1" fill="none" fill-rule="evenodd" sketch:type="MSPage">
        <g id="checkmark" sketch:type="MSArtboardGroup" transform="translate(-6.000000, -6.000000)" fill="#3A434C">
            <path d="M16,25 L16,25 C20.9705627,25 25,20.9705627 25,16 C25,11.0294373 20.9705627,7 16,7 C11.0294373,7 7,11.0294373 7,16 C7,20.9705627 11.0294373,25 16,25 L16,25 Z M16,26 L16,26 C10.4771525,26 6,21.5228475 6,16 C6,10.4771525 10.4771525,6 16,6 C21.5228475,6 26,10.4771525 26,16 C26,21.5228475 21.5228475,26 16,26 L16,26 Z M14.3619236,18.7401933 C14.7242122,19.0918542 15.296855,19.0857763 15.6518166,18.7265027 L19.7287759,14.6000174 C20.0897348,14.2346737 20.0905054,13.6415523 19.7304972,13.2752438 C19.3704889,12.9089353 18.7860295,12.9081533 18.4250706,13.273497 L15.0043017,16.7711785 L13.5611185,15.3703308 C13.1927089,15.0127284 12.6083935,15.0259156 12.2560136,15.3997852 C11.9036336,15.7736548 11.9166282,16.3666301 12.2850378,16.7242325" sketch:type="MSShapeGroup"></path>
        </g>
    </g>
</svg>