<?xml version="1.0" encoding="UTF-8" standalone="no"?>
<svg width="9px" height="20px" viewBox="0 0 9 20" version="1.1" xmlns="http://www.w3.org/2000/svg" xmlns:xlink="http://www.w3.org/1999/xlink" xmlns:sketch="http://www.bohemiancoding.com/sketch/ns">
    <!-- Generator: Sketch 3.4.2 (15857) - http://www.bohemiancoding.com/sketch -->
    <title>clip</title>
    <desc>Created with Sketch.</desc>
    <defs></defs>
    <g id="Page-1" stroke="none" stroke-width="1" fill="none" fill-rule="evenodd" sketch:type="MSPage">
        <g id="clip" sketch:type="MSArtboardGroup" transform="translate(-12.000000, -6.000000)" fill="#3A434C">
            <path d="M15.0407169,24.7923776 C15.6411455,25.4053151 16.4832884,25.7806901 17.4051455,25.7793776 C18.3282884,25.7793776 19.1691455,25.4013776 19.7695741,24.7884401 C20.3340026,24.2122526 20.6901455,23.4129401 20.6888598,22.5375026 L20.6875741,22.3366901 L20.6772884,10.2603776 C20.6772884,9.11062759 20.2080026,8.06325259 19.4622884,7.30331509 C18.6690026,6.49612759 17.5555741,5.99869009 16.3341455,6.00000259 C15.1127169,6.00131509 14.0018598,6.50006509 13.2111455,7.30987759 C12.4654312,8.06981509 11.9987169,9.11850259 12.0000026,10.2682526 L12.0102884,21.1620026 L13.4888598,21.1606901 L13.4785741,10.2669401 C13.4785741,9.53587759 13.7678598,8.87700259 14.2564312,8.37562759 C14.7758598,7.84537759 15.5100026,7.50937759 16.3354312,7.50937759 C17.1621455,7.50806509 17.8975741,7.84275259 18.4170026,8.37169009 C18.9068598,8.87175259 19.1974312,9.53062759 19.1987169,10.2603776 L19.2102884,22.3393151 L19.2102884,22.5401276 C19.2102884,22.9955651 19.0302884,23.4063776 18.7230026,23.7226901 C18.3951455,24.0560651 17.9310026,24.2700026 17.4038598,24.2713151 C16.8780026,24.2713151 16.4125741,24.0586901 16.0847169,23.7253151 C15.7761455,23.4090026 15.5961455,22.9995026 15.5948598,22.5427526 L15.5858598,13.2817526 C15.5858598,13.1098151 15.6514312,12.9575651 15.7748598,12.8302526 C15.9047169,12.6976901 16.0911455,12.6110651 16.3084312,12.6097526 C16.5257169,12.6097526 16.7134312,12.6976901 16.8432884,12.8302526 C16.9654312,12.9562526 17.0310026,13.1085026 17.0322884,13.2804401 L17.0387169,21.1567526 L18.5185741,21.1554401 L18.5108598,13.2804401 C18.5108598,12.6871901 18.2678598,12.1464401 17.8872884,11.7618776 C17.4848598,11.3510651 16.9217169,11.1003776 16.3071455,11.1003776 C15.6938598,11.1016901 15.1307169,11.3536901 14.7282884,11.7645026 C14.3490026,12.1503776 14.1072884,12.6911276 14.1072884,13.2843776 L14.1162884,22.5453776 C14.1162884,23.4181901 14.4724312,24.2135651 15.0368598,24.7897526 L15.0407169,24.7923776" sketch:type="MSShapeGroup"></path>
        </g>
    </g>
</svg>