<?xml version="1.0" encoding="UTF-8" standalone="no"?>
<svg width="20px" height="20px" viewBox="0 0 20 20" version="1.1" xmlns="http://www.w3.org/2000/svg" xmlns:xlink="http://www.w3.org/1999/xlink" xmlns:sketch="http://www.bohemiancoding.com/sketch/ns">
    <!-- Generator: Sketch 3.4.2 (15857) - http://www.bohemiancoding.com/sketch -->
    <title>clock</title>
    <desc>Created with Sketch.</desc>
    <defs></defs>
    <g id="Page-1" stroke="none" stroke-width="1" fill="none" fill-rule="evenodd" sketch:type="MSPage">
        <g id="clock" sketch:type="MSArtboardGroup" transform="translate(-6.000000, -6.000000)" fill="#3A434C">
            <path d="M23.9495216,15.9400364 C23.9495216,20.3282594 20.3928253,23.8849557 16.0046023,23.8849557 C11.6160789,23.8849557 8.05834961,20.327959 8.05834961,15.9400364 C8.05834961,11.5521139 11.6160789,7.99511719 16.0046023,7.99511719 C20.3928253,7.99511719 23.9495216,11.5518135 23.9495216,15.9400364 L23.9495216,15.9400364 Z M25.9495216,15.9400364 C25.9495216,10.447244 21.4973948,5.99511719 16.0046023,5.99511719 C10.5116016,5.99511719 6.05834961,10.4474522 6.05834961,15.9400364 C6.05834961,21.4326207 10.5116016,25.8849557 16.0046023,25.8849557 C21.4973948,25.8849557 25.9495216,21.4328289 25.9495216,15.9400364 L25.9495216,15.9400364 Z" id="Shape" sketch:type="MSShapeGroup"></path>
            <path d="M13.2085099,16.4288002 L14.8633467,18.0116296 C15.2639208,18.3947734 15.8997191,18.3789848 16.2807823,17.9764309 L18.834378,15.2788203 C19.2140494,14.8777367 19.1966913,14.2448097 18.7956077,13.8651383 C18.394524,13.4854669 17.761597,13.502825 17.3819257,13.9039087 L14.8283299,16.6015192 L16.2457655,16.5663206 L14.5909288,14.9834912 C14.1918177,14.6017468 13.5588093,14.6158253 13.1770649,15.0149363 C12.7953204,15.4140474 12.8093989,16.0470558 13.2085099,16.4288002 L13.2085099,16.4288002 Z" id="Shape" sketch:type="MSShapeGroup"></path>
        </g>
    </g>
</svg>