<?xml version="1.0" encoding="UTF-8" standalone="no"?>
<svg width="19px" height="20px" viewBox="0 0 19 20" version="1.1" xmlns="http://www.w3.org/2000/svg" xmlns:xlink="http://www.w3.org/1999/xlink" xmlns:sketch="http://www.bohemiancoding.com/sketch/ns">
    <!-- Generator: Sketch 3.4.2 (15857) - http://www.bohemiancoding.com/sketch -->
    <title>closedEye</title>
    <desc>Created with Sketch.</desc>
    <defs></defs>
    <g id="Page-1" stroke="none" stroke-width="1" fill="none" fill-rule="evenodd" sketch:type="MSPage">
        <g id="closedEye" sketch:type="MSArtboardGroup" transform="translate(-6.000000, -6.000000)" fill="#3A434C">
            <path d="M15.4998,20.6755 C14.2878,20.6755 13.1278,20.4195 12.0628,19.9695 L13.6448,18.3885 C14.1768,18.7425 14.8138,18.9505 15.4998,18.9515 C17.3508,18.9495 18.8518,17.4495 18.8528,15.5985 C18.8518,14.9115 18.6438,14.2745 18.2898,13.7435 L20.1728,11.8595 C21.5838,12.7425 22.7408,14.0235 23.4768,15.5985 C22.0278,18.7005 18.9538,20.6755 15.4998,20.6755 M13.5468,15.5985 C13.5488,14.5225 14.4238,13.6475 15.4998,13.6455 C15.7678,13.6465 16.0218,13.7005 16.2538,13.7985 L13.7008,16.3525 C13.6028,16.1205 13.5478,15.8655 13.5468,15.5985 M17.4528,15.5985 C17.4508,16.6735 16.5748,17.5495 15.4998,17.5505 C15.2038,17.5505 14.9258,17.4785 14.6738,17.3595 L17.2608,14.7715 C17.3798,15.0235 17.4518,15.3015 17.4528,15.5985 M7.5228,15.5985 C8.9718,12.4965 12.0448,10.5215 15.4998,10.5215 C16.6818,10.5215 17.8128,10.7685 18.8558,11.1965 L17.2828,12.7695 C16.7658,12.4425 16.1568,12.2455 15.4998,12.2455 C13.6488,12.2465 12.1478,13.7475 12.1468,15.5985 C12.1478,16.2555 12.3438,16.8645 12.6708,17.3815 L10.7558,19.2975 C9.3758,18.4155 8.2468,17.1475 7.5228,15.5985 M21.1788,10.8535 L22.7358,9.2975 L21.7458,8.3075 L19.9218,10.1305 C18.5848,9.4855 17.0858,9.1215 15.4998,9.1215 C11.1818,9.1215 7.4938,11.8075 5.9998,15.5985 C6.7558,17.5175 8.0758,19.1515 9.7538,20.2995 L8.0428,22.0105 L9.0328,22.9995 L11.0018,21.0315 C12.3588,21.6995 13.8848,22.0755 15.4998,22.0755 C19.8218,22.0755 23.5058,19.3895 24.9998,15.5985 C24.2338,13.6535 22.8878,12.0035 21.1788,10.8535" id="Fill-1" sketch:type="MSShapeGroup"></path>
        </g>
    </g>
</svg>