<?xml version="1.0" encoding="UTF-8" standalone="no"?>
<svg width="20px" height="20px" viewBox="0 0 20 20" version="1.1" xmlns="http://www.w3.org/2000/svg" xmlns:xlink="http://www.w3.org/1999/xlink" xmlns:sketch="http://www.bohemiancoding.com/sketch/ns">
    <!-- Generator: Sketch 3.4.2 (15857) - http://www.bohemiancoding.com/sketch -->
    <title>cog</title>
    <desc>Created with Sketch.</desc>
    <defs></defs>
    <g id="Page-1" stroke="none" stroke-width="1" fill="none" fill-rule="evenodd" sketch:type="MSPage">
        <g id="cog" sketch:type="MSArtboardGroup" transform="translate(-6.000000, -6.000000)" fill="#3A434C">
            <g id="icon-settings" sketch:type="MSLayerGroup" transform="translate(6.000000, 6.000000)">
                <path d="M19.9253883,8.7621244 C19.8806213,8.40263176 19.6038798,8.11503764 19.2471003,8.05670488 L16.9368514,7.6822899 C16.9165027,7.62124398 16.8961541,7.56019806 16.8730923,7.49915214 L18.4426507,5.74102964 C18.6814081,5.47242759 18.7153225,5.07902055 18.528115,4.77243438 C18.2188157,4.26914468 17.8606796,3.78484705 17.4523503,3.33039409 C17.0453775,2.87458455 16.6058468,2.46625517 16.1418978,2.10404938 C15.8570169,1.88292749 15.4581835,1.87478803 15.1651631,2.08641389 L13.2659567,3.45519908 C13.2089805,3.42671098 13.1506478,3.39822289 13.092315,3.37109137 L12.958014,1.02014515 C12.9363088,0.662009089 12.682629,0.358136065 12.333989,0.275384928 C11.5675236,0.0922471681 10.7820661,0 9.99796514,0 C9.58420946,0 9.17045377,0.024418368 8.75941125,0.0759682561 C8.40127518,0.120735264 8.11503764,0.396120193 8.05806145,0.752899681 L7.68364648,3.06314861 C7.62124398,3.08349725 7.56019806,3.10520247 7.49915214,3.12690769 L5.73967307,1.55734925 C5.47242759,1.31859187 5.07766398,1.28467747 4.77243438,1.47188496 C4.26914468,1.78254087 3.78484705,2.13932036 3.32903751,2.54764973 C2.87594112,2.95462253 2.46761175,3.39279658 2.10404938,3.85810215 C1.88292749,4.14298311 1.87478803,4.54181646 2.08641389,4.83483687 L3.45655565,6.73404327 C3.42671098,6.79101947 3.39957946,6.84935223 3.37244794,6.90904158 L1.02014515,7.0433426 C0.662009089,7.06369124 0.358136065,7.31737096 0.275384928,7.66601099 C0.0908905921,8.43247643 0,9.21793393 0,10.0033914 C0,10.4157905 0.024418368,10.8281896 0.0759682561,11.2419453 C0.120735264,11.6000814 0.397476769,11.8849624 0.754256257,11.9432951 L3.06314861,12.3177101 C3.08349725,12.378756 3.10520247,12.4398019 3.12690769,12.5008479 L1.55870583,14.2603269 C1.31994845,14.5275724 1.28467747,14.922336 1.47324154,15.2275656 C1.78254087,15.7308553 2.14067693,16.215153 2.54900631,16.6709625 C2.95462253,17.1240589 3.39415316,17.5323883 3.85945873,17.894594 C4.14433969,18.1170725 4.54181646,18.1238554 4.83483687,17.9135861 L6.7326867,16.5434443 C6.79101947,16.573289 6.84935223,16.6017771 6.90904158,16.6289086 L7.0433426,18.9798548 C7.06369124,19.3379909 7.31737096,19.6418639 7.66736756,19.7259716 C8.43247643,19.9077528 9.21657736,20 10.0020349,20 C10.414434,20 10.8281896,19.9742251 11.2392322,19.9240317 C11.5973682,19.8792647 11.8849624,19.6025232 11.9432951,19.2457437 L12.3177101,16.9368514 C12.378756,16.9165027 12.4398019,16.8947975 12.5022044,16.8730923 L14.2603269,18.4412942 C14.5275724,18.6800515 14.922336,18.7153225 15.2275656,18.528115 C15.7308553,18.2188157 16.215153,17.8593231 16.6709625,17.4523503 C17.1254155,17.0453775 17.5337448,16.6058468 17.8959506,16.1418978 C18.1170725,15.8570169 18.125212,15.4581835 17.9135861,15.1651631 L16.5448009,13.2659567 C16.573289,13.2089805 16.6017771,13.1506478 16.6289086,13.092315 L18.9798548,12.9566574 C19.3379909,12.9363088 19.6418639,12.682629 19.7246151,12.3326324 C19.9077528,11.566167 20,10.7793529 20,9.99389541 C20,9.5814963 19.9742251,9.17045377 19.9253883,8.7621244 L19.9253883,8.7621244 Z M14.8504375,16.7862715 L13.2306857,15.3428746 C12.9905718,15.1285356 12.6473581,15.0756291 12.3543377,15.2085736 C12.0436817,15.3483009 11.7221732,15.4595401 11.3938818,15.5409347 C11.0791562,15.6196161 10.8403988,15.8800787 10.7874924,16.2002306 L10.4402089,18.3449773 C10.2936987,18.3517602 10.1485451,18.3721088 10.0020349,18.3721088 C9.5421556,18.3721088 9.08498949,18.3205589 8.6318931,18.2459472 L8.50708811,16.0605033 C8.48809605,15.7389948 8.28189649,15.4581835 7.98073662,15.3455877 C7.66329784,15.2248525 7.35671166,15.0796988 7.06504782,14.9047005 C6.78694974,14.7378417 6.4328834,14.752764 6.17106423,14.9426847 L4.42379434,16.2029438 C4.1999593,16.0021705 3.96662823,15.814963 3.76178525,15.5843451 C3.55422913,15.3523706 3.39008343,15.0986909 3.21372855,14.8504375 L4.65848199,13.2306857 C4.87146442,12.9905718 4.92437089,12.6473581 4.79278302,12.3543377 C4.65169911,12.0436817 4.54181646,11.7221732 4.45906532,11.3925253 C4.38038391,11.0791562 4.11992132,10.8403988 3.79976938,10.7874924 L1.65502272,10.4402089 C1.64688327,10.2936987 1.6278912,10.1499016 1.6278912,10.0033914 C1.6278912,9.54351218 1.67944109,9.08634606 1.75405277,8.6318931 L3.94085329,8.50708811 C4.26100522,8.48809605 4.54181646,8.28189649 4.65576884,7.98073662 C4.77514753,7.66329784 4.92165774,7.35671166 5.09529946,7.06504782 C5.26215831,6.78694974 5.24723598,6.43423998 5.05731534,6.17106423 L3.79705623,4.42243777 C3.99782948,4.19860273 4.18503697,3.96662823 4.41565489,3.76042868 C4.64762938,3.55287255 4.90266567,3.39008343 5.1495625,3.21237197 L6.77067083,4.65712542 C7.0094282,4.87146442 7.35399851,4.92437089 7.64701892,4.79142644 C7.95767483,4.65169911 8.27918334,4.54045988 8.60747473,4.45906532 C8.92220037,4.37902734 9.16095774,4.11856474 9.21250763,3.79976938 L9.56114766,1.65502272 C9.7063013,1.64688327 9.85145493,1.6278912 9.99796514,1.6278912 C10.4564878,1.6278912 10.9150105,1.67944109 11.3694635,1.75405277 L11.4942685,3.93949671 C11.511904,4.26100522 11.7181035,4.54181646 12.0192634,4.65576884 C12.3367022,4.77514753 12.6432883,4.92030116 12.9349522,5.09529946 C13.2130503,5.26215831 13.56576,5.2458794 13.8289358,5.05731534 L15.5775622,3.79569965 C15.8013973,3.99782948 16.0333718,4.18503697 16.2395713,4.41565489 C16.4471275,4.64762938 16.6099166,4.90266567 16.787628,5.1495625 L15.3428746,6.76931425 C15.1285356,7.0094282 15.0756291,7.35399851 15.2085736,7.64701892 C15.3496575,7.95631825 15.4595401,8.27782677 15.5409347,8.60611816 C15.6196161,8.92084379 15.8814353,9.16095774 16.2002306,9.21250763 L18.3463339,9.55979109 C18.3531167,9.70494472 18.3721088,9.84874178 18.3721088,9.99389541 C18.3721088,10.4551312 18.3205589,10.9136539 18.2459472,11.3681069 L16.0605033,11.4929119 C15.7389948,11.511904 15.4581835,11.7181035 15.3455877,12.0192634 C15.2248525,12.3367022 15.0796988,12.6432883 14.9047005,12.9349522 C14.7391983,13.2130503 14.7541206,13.56576 14.9426847,13.8289358 L16.2043003,15.5775622 C16.0021705,15.8013973 15.814963,16.0333718 15.5857017,16.2382147 C15.3523706,16.4471275 15.0986909,16.6099166 14.8504375,16.7862715 L14.8504375,16.7862715 Z" id="Fill-1" sketch:type="MSShapeGroup"></path>
                <path d="M9.99929986,6.5 C9.16893496,6.5 8.33016839,6.79679979 7.6650363,7.39319937 C6.89348307,8.08199889 6.49860465,9.04379821 6.50000493,10.0013975 C6.49860465,10.830197 6.79546361,11.6687964 7.39198207,12.3351959 C8.07951861,13.1051953 9.04150965,13.5013951 10.0007001,13.4999951 C10.8296648,13.5013951 11.6684313,13.2045953 12.3349637,12.6081957 L11.7748525,11.9823961 L12.336364,12.6081957 C13.1051166,11.9179962 13.5013953,10.9575969 13.4999951,9.99859754 C13.5013953,9.16979812 13.2045364,8.33119871 12.6080179,7.66619918 C11.9176808,6.89619972 10.9556898,6.5 9.99929986,6.5 L9.99929986,6.5 Z M11.213341,11.3565966 C10.8646717,11.6687964 10.4347863,11.8199963 10.0007001,11.8199963 C9.49660003,11.8199963 9.00370214,11.6169964 8.64383068,11.2151967 C8.33156866,10.8651969 8.18033863,10.4353972 8.18033863,10.0013975 C8.18033863,9.49739789 8.38337895,9.00459824 8.78525876,8.64479849 C9.13532828,8.33259871 9.56381338,8.18139882 9.99929986,8.17999882 C10.5019997,8.18139882 10.9934973,8.38299867 11.3561693,8.78759839 C11.6684313,9.13619814 11.8196614,9.56459784 11.8196614,9.99859754 C11.8196614,10.5011972 11.616621,10.9939968 11.213341,11.3565966 L11.213341,11.3565966 Z" id="Fill-2" sketch:type="MSShapeGroup"></path>
            </g>
        </g>
    </g>
</svg>