<?xml version="1.0" encoding="UTF-8" standalone="no"?>
<svg width="20px" height="20px" viewBox="0 0 20 20" version="1.1" xmlns="http://www.w3.org/2000/svg" xmlns:xlink="http://www.w3.org/1999/xlink" xmlns:sketch="http://www.bohemiancoding.com/sketch/ns">
    <!-- Generator: Sketch 3.4.2 (15857) - http://www.bohemiancoding.com/sketch -->
    <title>cross</title>
    <desc>Created with Sketch.</desc>
    <defs></defs>
    <g id="Page-1" stroke="none" stroke-width="1" fill="none" fill-rule="evenodd" sketch:type="MSPage">
        <g id="cross" sketch:type="MSArtboardGroup" transform="translate(-6.000000, -6.000000)" fill="#3A434C">
            <path d="M25.6677966,7.92903153 C26.1107345,7.48604362 26.1107345,6.77183863 25.6677966,6.32885072 C25.2248588,5.89038309 24.5107345,5.89038309 24.0723164,6.32885072 L16,14.4020793 L7.92768362,6.32885072 C7.48926554,5.89038309 6.77062147,5.89038309 6.33220339,6.32885072 C5.88926554,6.77183863 5.88926554,7.48604362 6.33220339,7.92903153 L14.4,15.9977399 L6.33220339,24.0709685 C5.88926554,24.5139564 5.88926554,25.2281614 6.33220339,25.6711493 C6.77062147,26.1096169 7.48926554,26.1096169 7.92768362,25.6711493 L16,17.5979207 L24.0723164,25.6711493 C24.5107345,26.1096169 25.2248588,26.1096169 25.6677966,25.6711493 C26.1107345,25.2281614 26.1107345,24.5139564 25.6677966,24.0709685 L17.5954802,15.9977399 L25.6677966,7.92903153 Z" sketch:type="MSShapeGroup"></path>
        </g>
    </g>
</svg>