<?xml version="1.0" encoding="UTF-8" standalone="no"?>
<svg width="32px" height="32px" viewBox="0 0 32 32" version="1.1" xmlns="http://www.w3.org/2000/svg" xmlns:xlink="http://www.w3.org/1999/xlink" xmlns:sketch="http://www.bohemiancoding.com/sketch/ns">
    <!-- Generator: Sketch 3.4.4 (17249) - http://www.bohemiancoding.com/sketch -->
    <title>diagram</title>
    <desc>Created with Sketch.</desc>
    <defs></defs>
    <g id="Page-1" stroke="none" stroke-width="1" fill="none" fill-rule="evenodd" sketch:type="MSPage">
        <g id="diagram" sketch:type="MSArtboardGroup" fill="#3A434C">
            <path d="M14.3756,24 C10.8456,24.007 7.9926,21.153 7.9996,17.625 C8.0056,14.421 10.3696,11.77 13.4436,11.298 L13.4316,17.666 C13.4306,18.219 13.8796,18.669 14.4336,18.668 L20.6836,18.655 C20.1696,21.683 17.5416,23.994 14.3756,24 M14.5106,9.22 C14.5046,9.22 14.5046,9.22 14.4976,9.219 L14.4716,9.217 C9.7706,9.225 6.0086,12.987 5.9996,17.621 C5.9896,22.257 9.7426,26.009 14.3796,26 C18.9866,25.991 22.7346,22.269 22.7816,17.663 C22.7876,17.106 22.3366,16.652 21.7796,16.653 L15.4336,16.666 L15.4466,10.22 C15.4476,9.692 15.0376,9.254 14.5106,9.22 M23.8046,13.2659 L18.8336,13.2219 L18.7886,8.1729 C21.3496,8.6429 23.3736,10.6949 23.8046,13.2659 M25.8956,14.2529 C25.8566,9.7639 22.2366,6.1289 17.7936,6.0659 C17.2316,6.0579 16.7736,6.5129 16.7786,7.0749 L16.8426,14.2219 C16.8476,14.7669 17.2886,15.2079 17.8336,15.2129 L24.8846,15.2759 C25.4436,15.2809 25.8986,14.8259 25.8936,14.2669 C25.8926,14.3169 25.8926,14.3169 25.8926,14.3109 C25.8936,14.2929 25.8936,14.2929 25.8956,14.2529" sketch:type="MSShapeGroup"></path>
        </g>
    </g>
</svg>