<?xml version="1.0" encoding="UTF-8" standalone="no"?>
<svg width="20px" height="20px" viewBox="0 0 20 20" version="1.1" xmlns="http://www.w3.org/2000/svg" xmlns:xlink="http://www.w3.org/1999/xlink" xmlns:sketch="http://www.bohemiancoding.com/sketch/ns">
    <!-- Generator: Sketch 3.4.2 (15857) - http://www.bohemiancoding.com/sketch -->
    <title>diagram</title>
    <desc>Created with Sketch.</desc>
    <defs></defs>
    <g id="Page-1" stroke="none" stroke-width="1" fill="none" fill-rule="evenodd" sketch:type="MSPage">
        <g id="diagram" sketch:type="MSArtboardGroup" transform="translate(-6.000000, -6.000000)" fill="#3A434C">
            <path d="M23.3116394,16.0386035 L16.1697101,16.0386035 L16.1697101,8.78584187 C16.1697101,8.28033817 15.7750388,7.86539262 15.2708867,7.84106356 L15.227635,7.83836034 L15.1803285,7.83700872 C10.1644883,7.83836034 6.09883289,11.9026642 6.09883289,16.9185044 C6.09883289,21.9343446 10.1644883,26 15.1803285,26 C20.1704881,26 24.2172209,21.9735414 24.2577693,16.9928431 C24.2604726,16.7400913 24.1618047,16.4981524 23.9833917,16.3183877 C23.8049786,16.138623 23.5643913,16.0386035 23.3116394,16.0386035 L23.3116394,16.0386035 Z M15.1803285,24.1077402 C13.1921041,24.1077402 11.4012153,23.3048813 10.0969076,22.0019253 C8.79395156,20.6989692 7.99109274,18.9067288 7.99109274,16.9185044 C7.99109274,14.9302799 8.79395156,13.1393911 10.0969076,11.8350835 C11.1971216,10.7362211 12.6555133,10.0252721 14.2774503,9.82117833 L14.2774503,16.9847335 C14.2774503,17.2334305 14.3774697,17.4780726 14.5545312,17.6537825 C14.730241,17.8294923 14.9748832,17.9308634 15.2235802,17.9308634 L22.2627868,17.9308634 C21.7667444,21.4166763 18.8026545,24.1090918 15.1803285,24.1077402 Z M17.7375826,6.00557152 L17.7375826,14.3774697 L25.9972968,14.3774697 L26,14.309889 C26,9.73737825 22.3046868,6.02854896 17.7375826,6.00557152 Z" sketch:type="MSShapeGroup"></path>
        </g>
    </g>
</svg>