<?xml version="1.0" encoding="UTF-8" standalone="no"?>
<svg width="20px" height="20px" viewBox="0 0 20 20" version="1.1" xmlns="http://www.w3.org/2000/svg" xmlns:xlink="http://www.w3.org/1999/xlink" xmlns:sketch="http://www.bohemiancoding.com/sketch/ns">
    <!-- Generator: Sketch 3.4.2 (15857) - http://www.bohemiancoding.com/sketch -->
    <title>dumbell</title>
    <desc>Created with Sketch.</desc>
    <defs></defs>
    <g id="Page-1" stroke="none" stroke-width="1" fill="none" fill-rule="evenodd" sketch:type="MSPage">
        <g id="dumbell" sketch:type="MSArtboardGroup" transform="translate(-6.000000, -6.000000)" fill="#3A434C">
            <path d="M13,17 L19,17 L19,20.5044548 C19,21.3204455 19.6715729,22 20.5,22 C21.3342028,22 22,21.3304216 22,20.5044548 L22,17 L23,17 L23,18.5089948 C23,18.7721195 23.2238576,19 23.5,19 C23.7680664,19 24,18.7801695 24,18.5089948 L24,17 L25.0081969,17 C25.5559546,17 26,16.5561352 26,16 C26,15.4477153 25.5446944,15 25.0081969,15 L24,15 L24,13.4910052 C24,13.2278805 23.7761424,13 23.5,13 C23.2319336,13 23,13.2198305 23,13.4910052 L23,15 L22,15 L22,11.4955452 C22,10.6795545 21.3284271,10 20.5,10 C19.6657972,10 19,10.6695784 19,11.4955452 L19,15 L13,15 L13,11.4955452 C13,10.6795545 12.3284271,10 11.5,10 C10.6657972,10 10,10.6695784 10,11.4955452 L10,15 L9,15 L9,13.4910052 C9,13.2278805 8.77614237,13 8.5,13 C8.23193359,13 8,13.2198305 8,13.4910052 L8,15 L6.99180311,15 C6.44404538,15 6,15.4438648 6,16 C6,16.5522847 6.45530558,17 6.99180311,17 L8,17 L8,18.5089948 C8,18.7721195 8.22385763,19 8.5,19 C8.76806641,19 9,18.7801695 9,18.5089948 L9,17 L10,17 L10,20.5044548 C10,21.3204455 10.6715729,22 11.5,22 C12.3342028,22 13,21.3304216 13,20.5044548 L13,17 L13,17 Z" sketch:type="MSShapeGroup"></path>
        </g>
    </g>
</svg>