<?xml version="1.0" encoding="UTF-8" standalone="no"?>
<svg width="19px" height="20px" viewBox="0 0 19 20" version="1.1" xmlns="http://www.w3.org/2000/svg" xmlns:xlink="http://www.w3.org/1999/xlink" xmlns:sketch="http://www.bohemiancoding.com/sketch/ns">
    <!-- Generator: Sketch 3.4.2 (15857) - http://www.bohemiancoding.com/sketch -->
    <title>duplicate</title>
    <desc>Created with Sketch.</desc>
    <defs></defs>
    <g id="Page-1" stroke="none" stroke-width="1" fill="none" fill-rule="evenodd" sketch:type="MSPage">
        <g id="duplicate" sketch:type="MSArtboardGroup" transform="translate(-7.000000, -6.000000)" fill="#3A434C">
            <g sketch:type="MSLayerGroup" transform="translate(7.000000, 6.000000)">
                <path d="M16.2391358,0.0665 L5.76802469,0.0665 C4.47203704,0.0688333333 3.42469136,1.11066667 3.42234568,2.39983333 L3.42234568,2.8665 L2.95320988,2.8665 C1.65722222,2.86883333 0.609876543,3.91066667 0.607530864,5.19983333 L0.607530864,17.7485 C0.609876543,19.0365 1.65722222,20.0783333 2.95320988,20.0818333 L13.424321,20.0818333 C14.7191358,20.0783333 15.7664815,19.0365 15.77,17.7485 L15.77,17.2818333 L16.2391358,17.2818333 C17.5339506,17.2783333 18.5812963,16.2365 18.5848148,14.9485 L18.5848148,2.39983333 C18.5812963,1.11066667 17.5339506,0.0688333333 16.2391358,0.0665 L16.2391358,0.0665 Z M16.9416667,14.9485 C16.9416667,15.3276667 16.6203086,15.6473333 16.2391358,15.6485 L5.76802469,15.6485 C5.38567901,15.6473333 5.06432099,15.3276667 5.06432099,14.9485 L5.06432099,2.39983333 C5.06432099,2.0195 5.38567901,1.69983333 5.76802469,1.69983333 L16.2391358,1.69983333 C16.6203086,1.69983333 16.9416667,2.0195 16.9416667,2.39983333 L16.9416667,14.9485 L16.9416667,14.9485 Z M14.1268519,17.7485 C14.1268519,18.1276667 13.8054938,18.4473333 13.424321,18.4485 L2.95320988,18.4485 C2.5708642,18.4473333 2.24950617,18.1276667 2.24950617,17.7485 L2.24950617,5.19983333 C2.24950617,4.8195 2.5708642,4.49983333 2.95320988,4.49983333 L3.42234568,4.49983333 L3.42234568,14.9485 C3.42469136,16.2365 4.47203704,17.2783333 5.76802469,17.2818333 L14.1268519,17.2818333 L14.1268519,17.7485 L14.1268519,17.7485 Z" id="Fill-1" sketch:type="MSShapeGroup"></path>
                <path d="M14.0787654,4.77866667 L7.91549383,4.77866667 C7.46160494,4.77866667 7.09450617,5.14383333 7.09450617,5.59533333 C7.09450617,6.04683333 7.46160494,6.412 7.91549383,6.412 L14.0787654,6.412 C14.5314815,6.412 14.8997531,6.04683333 14.8997531,5.59533333 C14.8997531,5.14383333 14.5314815,4.77866667 14.0787654,4.77866667 Z M14.0787654,7.987 L7.91549383,7.987 C7.46160494,7.987 7.09450617,8.35216667 7.09450617,8.80366667 C7.09450617,9.25516667 7.46160494,9.62033333 7.91549383,9.62033333 L14.0787654,9.62033333 C14.5314815,9.62033333 14.8997531,9.25516667 14.8997531,8.80366667 C14.8997531,8.35216667 14.5314815,7.987 14.0787654,7.987 Z M11.838642,11.1953333 L7.90376543,11.1953333 C7.44987654,11.1953333 7.08277778,11.5605 7.08277778,12.012 C7.08277778,12.4635 7.44987654,12.8286667 7.90376543,12.8286667 L11.838642,12.8286667 C12.291358,12.8286667 12.6596296,12.4635 12.6596296,12.012 C12.6596296,11.5605 12.291358,11.1953333 11.838642,11.1953333 Z" id="Fill-2" sketch:type="MSShapeGroup"></path>
            </g>
        </g>
    </g>
</svg>