<?xml version="1.0" encoding="UTF-8" standalone="no"?>
<svg width="20px" height="20px" viewBox="0 0 20 20" version="1.1" xmlns="http://www.w3.org/2000/svg" xmlns:xlink="http://www.w3.org/1999/xlink" xmlns:sketch="http://www.bohemiancoding.com/sketch/ns">
    <!-- Generator: Sketch 3.4.2 (15857) - http://www.bohemiancoding.com/sketch -->
    <title>evernote</title>
    <desc>Created with Sketch.</desc>
    <defs></defs>
    <g id="Page-1" stroke="none" stroke-width="1" fill="none" fill-rule="evenodd" sketch:type="MSPage">
        <g id="evernote-" sketch:type="MSArtboardGroup" transform="translate(-6.000000, -6.000000)" fill="#3A434C">
            <path d="M9.19791164,9.87367365 L9.19917251,9.87367365 L11.1061244,9.87367365 C11.2153993,9.87367365 11.3032745,9.7860761 11.3035196,9.67934567 C11.3035196,9.6786562 11.2803338,8.06994321 11.2803338,7.62257863 L11.2803338,7.61726969 C11.2803338,7.24988397 11.3586825,6.92952032 11.495171,6.66110847 L11.5603857,6.54055411 C11.5531007,6.54176068 11.5457807,6.545277 11.5385307,6.55241304 L7.83327143,10.168975 C7.82602146,10.1748699 7.82150337,10.1824541 7.81940193,10.1902797 C7.89606947,10.1529447 8.00082626,10.1019237 8.01564141,10.0955461 C8.33828252,9.95220463 8.72957068,9.87367365 9.19791164,9.87367365 L9.19791164,9.87367365 Z M24.0364958,9.47988112 C23.885017,8.68171265 23.4029116,8.28840275 22.9670378,8.13375394 C22.4967706,7.96645331 21.5432071,7.79315426 20.345106,7.65415649 C19.3812104,7.54242739 18.248289,7.55132159 17.563955,7.57214368 C17.4818237,7.01842787 17.0872433,6.51259597 16.6457308,6.33743535 C15.4694146,5.87142052 13.651879,5.98397699 13.1852542,6.11273608 C12.8144201,6.21474362 12.4040088,6.42379185 12.1755823,6.74594813 C12.0223873,6.96113266 11.9232694,7.23681846 11.9224988,7.6219581 C11.9224988,7.83993501 11.9286631,8.35338558 11.9343019,8.8096099 C11.9399058,9.2672821 11.946,9.67658778 11.946,9.67934567 C11.9457898,10.0867898 11.6102949,10.4183574 11.194525,10.4189089 L9.28725787,10.4189089 C8.88041906,10.4189089 8.56958104,10.4862015 8.33215332,10.5923803 C8.09434035,10.6986626 7.92590992,10.8419351 7.79793221,11.0114421 C7.54316762,11.3480428 7.49896733,11.7634158 7.50001805,12.1873383 C7.50001805,12.1873383 7.50376562,12.5337296 7.58855873,13.2041387 C7.65906204,13.7229327 8.23058372,17.346872 8.77349078,18.4490291 C8.98398503,18.8778469 9.12418612,19.0564549 9.53771451,19.2454394 C10.4590909,19.6337162 12.5636482,20.065671 13.5500292,20.1893625 C14.534624,20.3133642 15.1525875,20.5740195 15.5208649,19.8139789 C15.5220907,19.8121173 15.5946604,19.6248909 15.6944088,19.3502738 C16.0141429,18.3966292 16.0586584,17.5504734 16.0586584,16.9381524 C16.0586584,16.8759274 16.151472,16.8730661 16.151472,16.9381524 C16.151472,17.370452 16.0675895,18.9002203 17.2416291,19.3106636 C17.7051018,19.4724484 18.6665457,19.6166862 19.6434702,19.7293806 C20.5268105,19.8293197 21.1678548,20.1714362 21.1678548,22.4020883 C21.1678548,23.7592471 20.8782764,23.9453014 19.3642938,23.9453014 C18.1370528,23.9453014 17.6693423,23.976569 17.6693423,23.0168915 C17.6693423,22.2412688 18.4486964,22.3225921 19.0263122,22.3225921 C19.284299,22.3225921 19.0970607,22.1336765 19.0970607,21.6551477 C19.0970607,21.17917 19.399493,20.9039668 19.1134169,20.8970032 C17.1161031,20.842914 15.9408727,20.8947624 15.9408727,23.3534577 C15.9408727,25.5855233 16.8086974,26 19.6434702,26 C21.8660934,26 22.6495803,25.9283293 23.5673142,23.1255524 C23.7489837,22.5722503 24.1881497,20.8836963 24.4539469,18.0485832 C24.621922,16.2559533 24.2954632,10.8454514 24.0364958,9.47988112 L24.0364958,9.47988112 Z M20.1620355,15.4601979 C19.8874474,15.4507522 19.6233314,15.4678166 19.3770426,15.5067718 C19.4463551,14.9557795 19.6774084,14.2796822 20.4959194,14.3079851 C21.4019903,14.3386666 21.5289523,15.1815819 21.5321745,15.7525345 C21.1501327,15.5848891 20.6771686,15.4780208 20.1620355,15.4601979 L20.1620355,15.4601979 Z" id="evernote" sketch:type="MSShapeGroup"></path>
        </g>
    </g>
</svg>