<?xml version="1.0" encoding="UTF-8" standalone="no"?>
<svg width="20px" height="20px" viewBox="0 0 20 20" version="1.1" xmlns="http://www.w3.org/2000/svg" xmlns:xlink="http://www.w3.org/1999/xlink" xmlns:sketch="http://www.bohemiancoding.com/sketch/ns">
    <!-- Generator: Sketch 3.4.2 (15857) - http://www.bohemiancoding.com/sketch -->
    <title>filters</title>
    <desc>Created with Sketch.</desc>
    <defs></defs>
    <g id="Page-1" stroke="none" stroke-width="1" fill="none" fill-rule="evenodd" sketch:type="MSPage">
        <g id="filters" sketch:type="MSArtboardGroup" transform="translate(-6.000000, -6.000000)" fill="#3A434C">
            <path d="M15.0301514,23 L6.99180311,23 C6.45530558,23 6,22.5522847 6,22 C6,21.4438648 6.44404538,21 6.99180311,21 L15.0301514,21 C14.9195999,21.3127789 14.8594457,21.6493646 14.8594457,22 C14.8594457,22.3506354 15.0601542,22.6872211 15.1707057,23 L15.0301514,23 Z M21.0856934,23 L25.0081969,23 C25.5559546,23 26,22.5561352 26,22 C26,21.4477153 25.5446944,21 25.0081969,21 L21.0856934,21 C21.1962448,21.3127789 21.2563991,21.6493646 21.2563991,22 C21.2563991,22.3506354 20.9398458,22.6872211 20.8292943,23 L21.0856934,23 Z M6.99180311,17 C6.45530558,17 6,16.5522847 6,16 C6,15.4438648 6.44404538,15 6.99180311,15 L9.02770996,15 C8.91715847,15.3127789 8.85700425,15.6493646 8.85700425,16 C8.85700425,16.3506354 8.91715847,16.6872211 9.02770996,17 L9.17070571,17 L6.99180311,17 Z M25.0081969,17 C25.5559546,17 26,16.5561352 26,16 C26,15.4477153 25.5446944,15 25.0081969,15 L15.0343018,15 C15.1448532,15.3127789 15.2050075,15.6493646 15.2050075,16 C15.2050075,16.3506354 15.1448532,16.6872211 15.0343018,17 L14.8292943,17 L25.0081969,17 Z M6.99180311,11 C6.45530558,11 6,10.5522847 6,10 C6,9.44386482 6.44404538,9 6.99180311,9 L17.0422363,9 C16.9316848,9.31277893 16.8715306,9.64936458 16.8715306,10 C16.8715306,10.3506354 16.9316848,10.6872211 17.0422363,11 L6.99180311,11 Z M25.0081969,11 C25.5559546,11 26,10.5561352 26,10 C26,9.44771525 25.5446944,9 25.0081969,9 L23.0085449,9 C23.1190964,9.31277893 23.1792506,9.64936458 23.1792506,10 C23.1792506,10.3506354 23.1190964,10.6872211 23.0085449,11 L22.8292943,11 L25.0081969,11 Z M20,12 C21.1045695,12 22,11.1045695 22,10 C22,8.8954305 21.1045695,8 20,8 C18.8954305,8 18,8.8954305 18,10 C18,11.1045695 18.8954305,12 20,12 L20,12 Z M12,18 C13.1045695,18 14,17.1045695 14,16 C14,14.8954305 13.1045695,14 12,14 C10.8954305,14 10,14.8954305 10,16 C10,17.1045695 10.8954305,18 12,18 L12,18 Z M18,24 C19.1045695,24 20,23.1045695 20,22 C20,20.8954305 19.1045695,20 18,20 C16.8954305,20 16,20.8954305 16,22 C16,23.1045695 16.8954305,24 18,24 L18,24 Z" sketch:type="MSShapeGroup"></path>
        </g>
    </g>
</svg>