<?xml version="1.0" encoding="utf-8"?>
<!-- Generator: Adobe Illustrator 19.2.0, SVG Export Plug-In . SVG Version: 6.00 Build 0)  -->
<svg version="1.1" id="Calque_1" xmlns:sketch="http://www.bohemiancoding.com/sketch/ns"
	 xmlns="http://www.w3.org/2000/svg" xmlns:xlink="http://www.w3.org/1999/xlink" x="0px" y="0px" viewBox="0 0 22 20"
	 style="enable-background:new 0 0 22 20;" xml:space="preserve">
<style type="text/css">
	.st0{fill:#3A434C;}
</style>
<title>fullscreen</title>
<desc>Created with Sketch.</desc>
<g id="Page-1" sketch:type="MSPage">
	<g id="fullscreen" transform="translate(-5.000000, -6.000000)" sketch:type="MSArtboardGroup">
		<g transform="translate(5.000000, 6.000000)" sketch:type="MSLayerGroup">
			<path id="Fill-1" sketch:type="MSShapeGroup" class="st0" d="M2.7,0C1.2,0,0,1.2,0,2.7l0,14.6C0,18.8,1.2,20,2.7,20h16.5
				c1.5,0,2.7-1.2,2.7-2.7V2.7C22,1.2,20.8,0,19.3,0L2.7,0L2.7,0z M1.9,17.3V2.7c0-0.4,0.4-0.8,0.8-0.8h16.5c0.4,0,0.8,0.4,0.8,0.8
				v14.6c0,0.4-0.4,0.8-0.8,0.8H2.7C2.3,18.1,1.9,17.7,1.9,17.3L1.9,17.3z"/>
			<path id="Fill-2" sketch:type="MSShapeGroup" class="st0" d="M17.6,4.4h-4.9v1.8h3.1v3h1.9V4.4z M6.3,10.7H4.4v4.8h4.9v-1.8H6.3
				V10.7z"/>
		</g>
	</g>
</g>
</svg>
