<?xml version="1.0" encoding="UTF-8" standalone="no"?>
<svg width="20px" height="20px" viewBox="0 0 20 20" version="1.1" xmlns="http://www.w3.org/2000/svg" xmlns:xlink="http://www.w3.org/1999/xlink" xmlns:sketch="http://www.bohemiancoding.com/sketch/ns">
    <!-- Generator: Sketch 3.4.2 (15857) - http://www.bohemiancoding.com/sketch -->
    <title>glass</title>
    <desc>Created with Sketch.</desc>
    <defs></defs>
    <g id="Page-1" stroke="none" stroke-width="1" fill="none" fill-rule="evenodd" sketch:type="MSPage">
        <g id="glass" sketch:type="MSArtboardGroup" transform="translate(-6.000000, -6.000000)" fill="#3A434C">
            <path d="M8,14.5 C8,10.91 10.91,8 14.499,8 C18.09,8 21,10.91 21,14.5 C21,18.09 18.09,21 14.499,21 C10.91,21 8,18.09 8,14.5 M14.499,6 C9.806,6 6,9.806 6,14.5 C6,19.194 9.806,23 14.499,23 C16.486,23 18.309,22.313 19.757,21.171 L24.293,25.707 C24.683,26.098 25.317,26.098 25.707,25.707 C26.098,25.317 26.098,24.683 25.707,24.293 L21.171,19.757 C22.313,18.31 23,16.487 23,14.5 C23,9.805 19.194,6 14.499,6" sketch:type="MSShapeGroup"></path>
        </g>
    </g>
</svg>