<?xml version="1.0" encoding="UTF-8" standalone="no"?>
<svg width="20px" height="20px" viewBox="0 0 20 20" version="1.1" xmlns="http://www.w3.org/2000/svg" xmlns:xlink="http://www.w3.org/1999/xlink" xmlns:sketch="http://www.bohemiancoding.com/sketch/ns">
    <!-- Generator: Sketch 3.4.2 (15857) - http://www.bohemiancoding.com/sketch -->
    <title>glass</title>
    <desc>Created with Sketch.</desc>
    <defs></defs>
    <g id="Page-1" stroke="none" stroke-width="1" fill="none" fill-rule="evenodd" sketch:type="MSPage">
        <g id="glass" sketch:type="MSArtboardGroup" transform="translate(-6.000000, -6.000000)" fill="#3A434C">
            <path d="M21,14.5 C21,18.0899142 18.0896491,21 14.4993166,21 C10.9101678,21 8,18.0897311 8,14.5 C8,10.9102689 10.9101678,8 14.4993166,8 C18.0896491,8 21,10.9100858 21,14.5 L21,14.5 Z M23,14.5 C23,9.80547547 19.1941778,6 14.4993166,6 C9.8055827,6 6,9.80571498 6,14.5 C6,19.194285 9.8055827,23 14.4993166,23 C19.1941778,23 23,19.1945245 23,14.5 L23,14.5 Z M19.2928932,20.7071068 L24.2928932,25.7071068 C24.6834175,26.0976311 25.3165825,26.0976311 25.7071068,25.7071068 C26.0976311,25.3165825 26.0976311,24.6834175 25.7071068,24.2928932 L20.7071068,19.2928932 C20.3165825,18.9023689 19.6834175,18.9023689 19.2928932,19.2928932 C18.9023689,19.6834175 18.9023689,20.3165825 19.2928932,20.7071068 L19.2928932,20.7071068 Z" sketch:type="MSShapeGroup"></path>
        </g>
    </g>
</svg>