<?xml version="1.0" encoding="UTF-8" standalone="no"?>
<svg width="20px" height="20px" viewBox="0 0 20 20" version="1.1" xmlns="http://www.w3.org/2000/svg" xmlns:xlink="http://www.w3.org/1999/xlink" xmlns:sketch="http://www.bohemiancoding.com/sketch/ns">
    <!-- Generator: Sketch 3.4.2 (15857) - http://www.bohemiancoding.com/sketch -->
    <title>google</title>
    <desc>Created with Sketch.</desc>
    <defs></defs>
    <g id="Page-1" stroke="none" stroke-width="1" fill="none" fill-rule="evenodd" sketch:type="MSPage">
        <g id="google" sketch:type="MSArtboardGroup" transform="translate(-6.000000, -6.000000)" fill="#3A434C">
            <path d="M15.6707357,17.6981466 L15.6707357,18.3992152 L16.3885989,18.3992152 L22.583042,18.3992152 L21.8677143,17.6392765 C21.6257512,20.4433964 19.3621598,22.0602801 16.3981267,22.0602801 C13.0189902,22.0602801 10.2777384,19.450043 10.2777384,16.021933 C10.2777384,12.5962561 12.9746416,9.94104919 16.4062934,9.94104919 C17.5559715,9.94104919 18.5850127,10.2475623 19.4815254,10.7596733 C20.015285,11.0645705 20.379006,11.3639098 20.5507019,11.545156 L21.0665791,12.0897278 L21.5941494,11.5559474 L23.4085182,9.72022092 L23.8727393,9.25053533 L23.4260866,8.76487375 C23.0881681,8.39744274 22.462814,7.87603746 21.5575957,7.36133787 C20.0611523,6.5104725 18.306742,6 16.3137375,6 C10.647689,6 6,10.6317518 6,15.9767377 C6,21.3736235 10.5427416,26 16.4525714,26 C22.0016541,26 26,22.223396 26,16.8447532 C26,16.3467231 25.9678774,15.9006905 25.9138596,15.5117983 C25.8802714,15.2699862 25.8451949,15.0956323 25.8187809,14.9937709 L25.6816148,14.4648124 L25.1228862,14.4648124 L16.3885989,14.4648124 L15.6707357,14.4648124 L15.6707357,15.165881 L15.6707357,17.6981466 Z" id="Shape" sketch:type="MSShapeGroup"></path>
        </g>
    </g>
</svg>