<?xml version="1.0" encoding="UTF-8" standalone="no"?>
<svg width="20px" height="20px" viewBox="0 0 20 20" version="1.1" xmlns="http://www.w3.org/2000/svg" xmlns:xlink="http://www.w3.org/1999/xlink" xmlns:sketch="http://www.bohemiancoding.com/sketch/ns">
    <!-- Generator: Sketch 3.4.2 (15857) - http://www.bohemiancoding.com/sketch -->
    <title>help</title>
    <desc>Created with Sketch.</desc>
    <defs></defs>
    <g id="Page-1" stroke="none" stroke-width="1" fill="none" fill-rule="evenodd" sketch:type="MSPage">
        <g id="help" sketch:type="MSArtboardGroup" transform="translate(-6.000000, -6.000000)" fill="#3A444C">
            <path d="M25.9999988,15.9993724 C26.0012541,13.4436704 25.0220928,10.8804368 23.0713022,8.92976841 C21.1205116,6.97784472 18.5571174,6 16,6 C13.4428826,6 10.8794884,6.97784472 8.92869781,8.92976841 C6.97790719,10.8791816 5.99874587,13.4436704 6.00000121,15.9993724 C5.99874587,18.5563296 6.97790719,21.1195632 8.92869781,23.0702316 C10.8794884,25.0221553 13.4428826,26 16,26 C18.5571174,26 21.1205116,25.0221553 23.0713022,23.0702316 L22.5390401,22.5380029 L23.0713022,23.0702316 C25.0220928,21.1195632 26.0012541,18.5563296 25.9999988,15.9993724 L25.9999988,15.9993724 Z M24.0755702,13.3859286 L21.7619878,14.3047763 L21.5222188,14.401431 C21.2598537,13.4938806 20.7978905,12.6315195 20.0836048,11.9172786 C19.3755959,11.209314 18.5207127,10.7486349 17.6218928,10.4850311 L17.8227465,9.99422582 L18.6399696,7.93435009 C19.8689425,8.33477688 21.0276168,9.0163811 22.0067781,9.99422582 C22.9909607,10.9796021 23.6751183,12.1469905 24.0755702,13.3859286 L24.0755702,13.3859286 Z M19.0178254,19.018264 C18.1830276,19.8530095 17.0946521,20.2672441 16,20.2672441 C14.9040925,20.2672441 13.8157171,19.8530095 12.9821746,19.018264 C12.1473768,18.1822632 11.7331163,17.0952112 11.7318609,15.9993724 C11.7331163,14.9047888 12.1473768,13.8164815 12.9821746,12.9829913 C13.8169724,12.1469905 14.9053479,11.7327559 16,11.7315007 C17.0946521,11.7327559 18.1830276,12.1469905 19.0178254,12.981736 C19.8526232,13.8177368 20.2668837,14.9047888 20.2681391,15.9993724 C20.2668837,17.0939559 19.8526232,18.1822632 19.0178254,19.018264 L19.0178254,19.018264 Z M9.99447725,9.99422582 C11.0012559,8.9875102 12.1963349,8.29209816 13.4667339,7.8966924 L14.3002764,9.99799159 L14.486066,10.4536497 C13.5470754,10.7084667 12.6532768,11.1804431 11.9163952,11.9172786 C11.1995989,12.6327747 10.7363802,13.4989017 10.4752706,14.4102178 L10.2091395,14.3022657 L7.92191913,13.3947154 C8.32111566,12.1520115 9.00652859,10.9821126 9.99447725,9.99422582 L9.99447725,9.99422582 Z M7.96083451,18.7182577 L10.2141609,17.8245152 L10.5091646,17.7040105 C10.7778063,18.572648 11.2309822,19.3973514 11.9163952,20.0827214 C12.6394681,20.8070043 13.515692,21.2727044 14.4371079,21.5325425 L14.299021,21.872717 L13.4202865,24.0869893 C12.1674622,23.689073 10.9887026,22.9999372 9.99447725,22.0057742 C9.03665663,21.0480136 8.36505239,19.9182828 7.96083451,18.7182577 L7.96083451,18.7182577 Z M22.0055228,22.0057742 L22.0055228,22.0057742 C21.0389148,22.9710663 19.8978152,23.6463943 18.6864169,24.0493316 L17.8202358,21.8689512 L17.6708509,21.4999059 C18.5520961,21.2337915 19.3881492,20.7781334 20.0836048,20.0827214 L19.5513428,19.5504927 L20.0836048,20.0827214 C20.7665071,19.3986067 21.2184277,18.577669 21.4870694,17.7127973 L21.7657538,17.8257704 L24.0366548,18.7270445 C23.6311816,19.9233038 22.9608327,21.0505241 22.0055228,22.0057742 L22.0055228,22.0057742 Z" id="Fill-1" sketch:type="MSShapeGroup"></path>
        </g>
    </g>
</svg>