<?xml version="1.0" encoding="UTF-8" standalone="no"?>
<svg width="20px" height="20px" viewBox="0 0 20 20" version="1.1" xmlns="http://www.w3.org/2000/svg" xmlns:xlink="http://www.w3.org/1999/xlink" xmlns:sketch="http://www.bohemiancoding.com/sketch/ns">
    <!-- Generator: Sketch 3.4.2 (15857) - http://www.bohemiancoding.com/sketch -->
    <title>home</title>
    <desc>Created with Sketch.</desc>
    <defs></defs>
    <g id="Page-1" stroke="none" stroke-width="1" fill="none" fill-rule="evenodd" sketch:type="MSPage">
        <g id="home" sketch:type="MSArtboardGroup" transform="translate(-6.000000, -6.000000)" fill="#3A434C">
            <path d="M25.3733887,15.5809375 L25.3733887,15.5809375 L24.1336387,14.4361875 L24.1217637,14.4255 L16.5763887,7.7101875 C16.2617012,7.4299375 15.7855137,7.4299375 15.4708262,7.7101875 L7.92426373,14.4255 L7.91357623,14.4361875 L6.67382623,15.5809375 C6.33657623,15.8920625 6.31520123,16.418125 6.62632623,16.755375 C6.93745123,17.092625 7.46351373,17.114 7.80076373,16.802875 L8.81488873,15.867125 L8.81370123,22.835375 C8.81726373,24.146375 9.88007623,25.200875 11.1887012,25.20325 L20.8585137,25.20325 C22.1671387,25.200875 23.2299512,24.146375 23.2335137,22.835375 L23.2335137,15.867125 L24.2464512,16.8016875 C24.5825137,17.114 25.1085762,17.092625 25.4197012,16.755375 C25.7320137,16.418125 25.7106387,15.8920625 25.3733887,15.5809375 L25.3733887,15.5809375 Z M21.5698262,14.3910625 L21.5698262,22.835375 C21.5698262,23.215375 21.2468262,23.54075 20.8585137,23.54075 L16.8542637,23.54075 L16.8542637,20.5921875 C16.8542637,20.1338125 16.4825762,19.7609375 16.0242012,19.7609375 C15.5646387,19.7609375 15.1917637,20.1338125 15.1917637,20.5921875 L15.1917637,23.54075 L11.1887012,23.54075 C10.8003887,23.54075 10.4773887,23.215375 10.4773887,22.835375 L10.4773887,14.3910625 C10.4773887,14.3886875 10.4750137,14.385125 10.4750137,14.3815625 L16.0230137,9.4439375 L21.5722012,14.38275 C21.5722012,14.385125 21.5710137,14.3886875 21.5710137,14.3910625 L21.5698262,14.3910625 L21.5698262,14.3910625 Z" sketch:type="MSShapeGroup"></path>
        </g>
    </g>
</svg>