<?xml version="1.0" encoding="UTF-8" standalone="no"?>
<svg width="20px" height="20px" viewBox="0 0 20 20" version="1.1" xmlns="http://www.w3.org/2000/svg" xmlns:xlink="http://www.w3.org/1999/xlink" xmlns:sketch="http://www.bohemiancoding.com/sketch/ns">
    <!-- Generator: Sketch 3.4.4 (17249) - http://www.bohemiancoding.com/sketch -->
    <title>info</title>
    <desc>Created with Sketch.</desc>
    <defs>
        <path d="M6,16 C6,21.523 10.477,26 16,26 L16,26 C21.523,26 26,21.523 26,16 L26,16 C26,10.477 21.523,6 16,6 L16,6 C10.477,6 6,10.477 6,16 L6,16 Z M8,16 C8,11.582 11.582,8 16,8 L16,8 C20.418,8 24,11.582 24,16 L24,16 C24,20.418 20.418,24 16,24 L16,24 C11.582,24 8,20.418 8,16 L8,16 Z M15.068,12.045 C15.068,12.6 15.517,13.051 16.073,13.051 L16.073,13.051 C16.629,13.051 17.078,12.6 17.078,12.045 L17.078,12.045 C17.078,11.49 16.629,11.039 16.073,11.039 L16.073,11.039 C15.517,11.039 15.068,11.49 15.068,12.045 L15.068,12.045 Z M15.055,15.871 L15.055,19.871 C15.055,20.422 15.503,20.871 16.055,20.871 L16.055,20.871 C16.608,20.871 17.055,20.422 17.055,19.871 L17.055,19.871 L17.055,15.871 C17.055,15.318 16.608,14.87 16.055,14.87 L16.055,14.87 C15.503,14.87 15.055,15.318 15.055,15.871 L15.055,15.871 Z" id="path-1"></path>
    </defs>
    <g id="Page-1" stroke="none" stroke-width="1" fill="none" fill-rule="evenodd" sketch:type="MSPage">
        <g id="info" sketch:type="MSArtboardGroup" transform="translate(-6.000000, -6.000000)">
            <mask id="mask-2" sketch:name="info" fill="white">
                <use xlink:href="#path-1"></use>
            </mask>
            <use fill="#3A434C" sketch:type="MSShapeGroup" xlink:href="#path-1"></use>
        </g>
    </g>
</svg>