<?xml version="1.0" encoding="UTF-8" standalone="no"?>
<svg width="20px" height="20px" viewBox="0 0 20 20" version="1.1" xmlns="http://www.w3.org/2000/svg" xmlns:xlink="http://www.w3.org/1999/xlink" xmlns:sketch="http://www.bohemiancoding.com/sketch/ns">
    <!-- Generator: Sketch 3.4.2 (15857) - http://www.bohemiancoding.com/sketch -->
    <title>listCollapse</title>
    <desc>Created with Sketch.</desc>
    <defs></defs>
    <g id="Page-1" stroke="none" stroke-width="1" fill="none" fill-rule="evenodd" sketch:type="MSPage">
        <g id="listCollapse" sketch:type="MSArtboardGroup" transform="translate(-6.000000, -6.000000)" fill="#3A434C">
            <g sketch:type="MSLayerGroup" transform="translate(6.000000, 6.500000)">
                <path d="M18.3882966,0 L1.61170345,0 C0.719067692,0.00371839365 0.00371931565,0.71888944 0,1.61130392 L0,3.38869608 C0.00371931565,4.28111056 0.719067692,4.99628161 1.61170345,5 L18.3882966,5 C19.2809323,4.99628161 19.9962807,4.28111056 20,3.38869608 L20,1.61130392 C19.9962807,0.71888944 19.2809323,0.00371839365 18.3882966,0 L18.3882966,0 Z M1.73568063,1.73525037 L18.2643194,1.73525037 L18.2643194,3.26474963 L1.73568063,3.26474963 L1.73568063,1.73525037 Z" id="Fill-1" sketch:type="MSShapeGroup"></path>
                <path d="M18.3882966,7 L1.61170345,7 C0.719067692,7.00371839 0.00371931565,7.71888944 0,8.61130392 L0,10.3886961 C0.00371931565,11.2811106 0.719067692,11.9962816 1.61170345,12 L18.3882966,12 C19.2809323,11.9975211 19.9962807,11.2811106 20,10.3886961 L20,8.61130392 C19.9962807,7.71888944 19.2809323,7.00371839 18.3882966,7 L18.3882966,7 Z M1.73568063,8.73525037 L18.2643194,8.73525037 L18.2643194,10.2647496 L1.73568063,10.2647496 L1.73568063,8.73525037 Z" id="Fill-2" sketch:type="MSShapeGroup"></path>
                <path d="M18.3882966,14 L1.61170345,14 C0.719067692,14.0037184 0.00371931565,14.7188894 0,15.6113039 L0,17.3886961 C0.00371931565,18.2811106 0.719067692,18.9962816 1.61170345,19 L18.3882966,19 C19.2809323,18.9962816 19.9962807,18.2811106 20,17.3886961 L20,15.6113039 C19.9962807,14.7188894 19.2809323,14.0037184 18.3882966,14 L18.3882966,14 Z M1.73568063,15.7352504 L18.2643194,15.7352504 L18.2643194,17.2647496 L1.73568063,17.2647496 L1.73568063,15.7352504 Z" id="Fill-3" sketch:type="MSShapeGroup"></path>
            </g>
        </g>
    </g>
</svg>