<?xml version="1.0" encoding="UTF-8" standalone="no"?>
<svg width="20px" height="20px" viewBox="0 0 20 20" version="1.1" xmlns="http://www.w3.org/2000/svg" xmlns:xlink="http://www.w3.org/1999/xlink" xmlns:sketch="http://www.bohemiancoding.com/sketch/ns">
    <!-- Generator: Sketch 3.4.2 (15857) - http://www.bohemiancoding.com/sketch -->
    <title>live</title>
    <desc>Created with Sketch.</desc>
    <defs></defs>
    <g id="Page-1" stroke="none" stroke-width="1" fill="none" fill-rule="evenodd" sketch:type="MSPage">
        <g id="live" sketch:type="MSArtboardGroup" transform="translate(-6.000000, -6.000000)" fill="#3A434C">
            <g sketch:type="MSLayerGroup" transform="translate(6.000000, 7.000000)">
                <path d="M10.0006749,0 C4.4772896,0 0.0013498009,4.51683332 0,10.0906819 C0,13.1636542 1.36599852,15.9233358 3.51218195,17.7703883 C3.90902342,18.1122837 4.50563542,18.064609 4.84443545,17.6641419 C5.18323547,17.2636748 5.13599244,16.6616119 4.74050078,16.3197165 L4.73915098,16.3197165 C2.99385841,14.8145595 1.89107107,12.5874719 1.89107107,10.0906819 C1.89107107,7.82817886 2.79678747,5.7877035 4.26537086,4.30434056 C5.73665384,2.82097763 7.7586556,1.90698632 10.0006749,1.90698632 C12.2426942,1.90698632 14.264696,2.82097763 15.7346291,4.30434056 C17.2045623,5.7877035 18.1102787,7.82817886 18.1102787,10.0906819 C18.1102787,12.5874719 17.0061416,14.8159216 15.260849,16.3197165 C14.8640076,16.6616119 14.8167645,17.2636748 15.1555646,17.665504 C15.4943646,18.0659712 16.0909766,18.1136458 16.487818,17.7717504 C18.6353513,15.9233358 20,13.1636542 20,10.0906819 C20,4.51683332 15.5227104,0 10.0006749,0" id="Fill-1" sketch:type="MSShapeGroup"></path>
                <path d="M10,4 C6.68571429,4.00145254 4,6.73077945 4,10.1006775 C4,11.3309808 4.36,12.4828468 4.97857143,13.4415247 C5.28142857,13.9121484 5.90142857,14.0428772 6.36285714,13.7349382 C6.82571429,13.4269993 6.95428571,12.7965959 6.65142857,12.3274248 C6.24,11.6868537 6,10.927174 6,10.1006775 C6.00428571,7.85504716 7.79142857,6.03791679 10,6.03355917 C12.2085714,6.03791679 13.9957143,7.85504716 14,10.1006775 C14,10.9605825 13.74,11.749313 13.2957143,12.4058621 C12.9814286,12.8677705 13.0971429,13.5010789 13.5514286,13.8206382 C14.0057143,14.138745 14.6285714,14.0225416 14.9428571,13.5606332 C15.6085714,12.5787146 16,11.3818198 16,10.1006775 C16,6.73077945 13.3142857,4.00145254 10,4" id="Fill-2" sketch:type="MSShapeGroup"></path>
                <path d="M9.99923225,8 C8.89520154,8 8,8.89400922 8,10 C8,11.1044547 8.89520154,12 9.99923225,12 C11.1047985,12 12,11.1044547 12,10 C12,8.89400922 11.1047985,8 9.99923225,8 Z" id="Fill-3" sketch:type="MSShapeGroup"></path>
                <path d="M11.7370937,14.3742656 L8.26290625,14.3742656 C7.33759375,14.3742656 6.58159375,15.1437656 6.58159375,16.0856016 L6.58159375,16.2886641 C6.58159375,17.2291641 7.33759375,18 8.26290625,18 L11.7370937,18 C12.6610937,18 13.4184062,17.2291641 13.4184062,16.2886641 L13.4184062,16.0856016 C13.4184062,15.1437656 12.6610937,14.3742656 11.7370937,14.3742656" id="Fill-4" sketch:type="MSShapeGroup"></path>
            </g>
        </g>
    </g>
</svg>