<?xml version="1.0" encoding="UTF-8" standalone="no"?>
<svg width="20px" height="20px" viewBox="0 0 20 20" version="1.1" xmlns="http://www.w3.org/2000/svg" xmlns:xlink="http://www.w3.org/1999/xlink" xmlns:sketch="http://www.bohemiancoding.com/sketch/ns">
    <!-- Generator: Sketch 3.4.2 (15857) - http://www.bohemiancoding.com/sketch -->
    <title>lock</title>
    <desc>Created with Sketch.</desc>
    <defs></defs>
    <g id="Page-1" stroke="none" stroke-width="1" fill="none" fill-rule="evenodd" sketch:type="MSPage">
        <g id="lock" sketch:type="MSArtboardGroup" transform="translate(-6.000000, -6.000000)" fill="#3A434C">
            <g sketch:type="MSLayerGroup" transform="translate(8.500000, 6.000000)">
                <path d="M12.6578947,6.63552632 L11.825,6.63552632 L11.825,4.49605263 C11.8210526,2.14342105 9.91052632,0.231578947 7.55657895,0.227631579 C5.20263158,0.231578947 3.29210526,2.14210526 3.28815789,4.49605263 L3.28815789,6.63552632 L2.45526316,6.63552632 C1.21842105,6.63947368 0.222368421,7.63684211 0.218421053,8.87236842 L0.218421053,17.4026316 C0.222368421,18.6381579 1.21842105,19.6355263 2.45526316,19.6381579 L12.6578947,19.6381579 C13.8947368,19.6355263 14.8921053,18.6381579 14.8947368,17.4026316 L14.8947368,8.87236842 C14.8921053,7.63684211 13.8947368,6.63947368 12.6578947,6.63552632 L12.6578947,6.63552632 Z M5.13157895,4.49605263 C5.13157895,3.83026316 5.40131579,3.22763158 5.84473684,2.78421053 C6.28815789,2.34078947 6.89078947,2.07105263 7.55657895,2.06973684 C8.22368421,2.07105263 8.825,2.34078947 9.26973684,2.78421053 C9.71184211,3.22763158 9.98289474,3.83026316 9.98289474,4.49605263 L9.98289474,6.63552632 L5.13157895,6.63552632 L5.13157895,4.49605263 L5.13157895,4.49605263 Z M13.0526316,17.4026316 C13.0526316,17.6131579 12.8697368,17.7960526 12.6578947,17.7960526 L2.45526316,17.7960526 C2.24342105,17.7960526 2.06052632,17.6131579 2.06052632,17.4026316 L2.06052632,8.87236842 C2.06052632,8.66184211 2.24342105,8.47894737 2.45526316,8.47763158 L12.6578947,8.47763158 C12.8697368,8.47894737 13.0526316,8.66184211 13.0526316,8.87236842 L13.0526316,17.4026316 L13.0526316,17.4026316 Z" id="Fill-1" sketch:type="MSShapeGroup"></path>
                <path d="M7.55657895,11.5578947 C6.68421053,11.5592105 5.97894737,12.2644737 5.97763158,13.1381579 C5.97894737,14.0105263 6.68421053,14.7157895 7.55657895,14.7157895 C8.42894737,14.7157895 9.13552632,14.0105263 9.13552632,13.1381579 C9.13552632,12.2644737 8.42894737,11.5592105 7.55657895,11.5578947" id="Fill-2" sketch:type="MSShapeGroup"></path>
            </g>
        </g>
    </g>
</svg>