<?xml version="1.0" encoding="UTF-8" standalone="no"?>
<svg width="21px" height="20px" viewBox="0 0 21 20" version="1.1" xmlns="http://www.w3.org/2000/svg" xmlns:xlink="http://www.w3.org/1999/xlink" xmlns:sketch="http://www.bohemiancoding.com/sketch/ns">
    <!-- Generator: Sketch 3.4.2 (15857) - http://www.bohemiancoding.com/sketch -->
    <title>message</title>
    <desc>Created with Sketch.</desc>
    <defs></defs>
    <g id="Page-1" stroke="none" stroke-width="1" fill="none" fill-rule="evenodd" sketch:type="MSPage">
        <g id="message" sketch:type="MSArtboardGroup" transform="translate(-5.000000, -6.000000)" fill="#3A434C">
            <g sketch:type="MSLayerGroup" transform="translate(5.000000, 6.000000)">
                <path d="M7.34505882,6.40163399 C6.52605882,6.40287582 5.86270588,7.06849673 5.86270588,7.89183007 C5.86270588,8.7151634 6.52605882,9.38202614 7.34505882,9.38202614 C8.16405882,9.38202614 8.82617647,8.7151634 8.82741176,7.89183007 C8.82617647,7.06849673 8.16405882,6.40287582 7.34505882,6.40163399 L7.34505882,6.40163399 Z M7.34505882,7.89183007 L7.34505882,7.64346405 L7.34505882,7.89183007 L7.59211765,7.89183007 L7.34505882,7.89183007 Z M13.419,6.40163399 C12.6,6.40287582 11.9366471,7.06849673 11.9366471,7.89183007 C11.9366471,8.7151634 12.6,9.38202614 13.419,9.38202614 C14.2367647,9.38202614 14.9001176,8.7151634 14.9013529,7.89183007 C14.9001176,7.06849673 14.2367647,6.40287582 13.419,6.40163399 Z" id="Fill-2" sketch:type="MSShapeGroup"></path>
                <path d="M21,3.03306711 C20.9973965,1.64330039 19.8557525,0.527608596 18.4550583,0.526315789 L2.55405405,0.526315789 C1.1559633,0.527608596 0.00260352095,1.63554355 0,3.03306711 L0,12.6502528 C0.00260352095,14.0477764 1.1559633,15.1557113 2.55405405,15.1582969 L16.09757,15.1582969 L20.9843789,19.4736842 L21,3.03435992 L20.0887677,3.03306711 L21,3.03306711 L21,3.03306711 Z M16.7914084,13.3483682 L2.55405405,13.3483682 C2.1374907,13.3470754 1.82376643,13.0238738 1.82246467,12.6502528 L1.82246467,3.03306711 C1.82376643,2.6594461 2.1374907,2.33624454 2.55405405,2.33495174 L18.4550583,2.33495174 C18.8690181,2.33753735 19.1775353,2.65298207 19.1775353,3.03306711 L19.1658195,15.4440071 L16.7914084,13.3483682 L16.7914084,13.3483682 Z" id="Fill-1" sketch:type="MSShapeGroup"></path>
            </g>
        </g>
    </g>
</svg>