<?xml version="1.0" encoding="UTF-8" standalone="no"?>
<svg width="6px" height="20px" viewBox="0 0 6 20" version="1.1" xmlns="http://www.w3.org/2000/svg" xmlns:xlink="http://www.w3.org/1999/xlink" xmlns:sketch="http://www.bohemiancoding.com/sketch/ns">
    <!-- Generator: Sketch 3.4.2 (15857) - http://www.bohemiancoding.com/sketch -->
    <title>more</title>
    <desc>Created with Sketch.</desc>
    <defs></defs>
    <g id="Page-1" stroke="none" stroke-width="1" fill="none" fill-rule="evenodd" sketch:type="MSPage">
        <g id="more" sketch:type="MSArtboardGroup" transform="translate(-14.000000, -6.000000)" fill="#3A434C">
            <path d="M19.75,23 C19.75,21.4812169 18.5187831,20.25 17,20.25 C15.4812169,20.25 14.25,21.4812169 14.25,23 C14.25,24.5187831 15.4812169,25.75 17,25.75 C18.5187831,25.75 19.75,24.5187831 19.75,23 L19.75,23 Z M18.25,23 C18.25,23.6903559 17.6903559,24.25 17,24.25 C16.3096441,24.25 15.75,23.6903559 15.75,23 C15.75,22.3096441 16.3096441,21.75 17,21.75 C17.6903559,21.75 18.25,22.3096441 18.25,23 L18.25,23 Z M19.75,16 C19.75,14.4812169 18.5187831,13.25 17,13.25 C15.4812169,13.25 14.25,14.4812169 14.25,16 C14.25,17.5187831 15.4812169,18.75 17,18.75 C18.5187831,18.75 19.75,17.5187831 19.75,16 L19.75,16 Z M18.25,16 C18.25,16.6903559 17.6903559,17.25 17,17.25 C16.3096441,17.25 15.75,16.6903559 15.75,16 C15.75,15.3096441 16.3096441,14.75 17,14.75 C17.6903559,14.75 18.25,15.3096441 18.25,16 L18.25,16 Z M19.75,9 C19.75,7.48121694 18.5187831,6.25 17,6.25 C15.4812169,6.25 14.25,7.48121694 14.25,9 C14.25,10.5187831 15.4812169,11.75 17,11.75 C18.5187831,11.75 19.75,10.5187831 19.75,9 L19.75,9 Z M18.25,9 C18.25,9.69035594 17.6903559,10.25 17,10.25 C16.3096441,10.25 15.75,9.69035594 15.75,9 C15.75,8.30964406 16.3096441,7.75 17,7.75 C17.6903559,7.75 18.25,8.30964406 18.25,9 L18.25,9 Z" sketch:type="MSShapeGroup"></path>
        </g>
    </g>
</svg>