<?xml version="1.0" encoding="UTF-8" standalone="no"?>
<svg width="4px" height="20px" viewBox="0 0 4 20" version="1.1" xmlns="http://www.w3.org/2000/svg" xmlns:xlink="http://www.w3.org/1999/xlink" xmlns:sketch="http://www.bohemiancoding.com/sketch/ns">
    <!-- Generator: Sketch 3.4.2 (15857) - http://www.bohemiancoding.com/sketch -->
    <title>more</title>
    <desc>Created with Sketch.</desc>
    <defs></defs>
    <g id="Page-1" stroke="none" stroke-width="1" fill="none" fill-rule="evenodd" sketch:type="MSPage">
        <g id="more" sketch:type="MSArtboardGroup" transform="translate(-15.000000, -6.000000)" fill="#3A434C">
            <path d="M18.5,16 C18.5,16.8445272 17.8282609,17.5294587 17,17.5294587 C16.1717391,17.5294587 15.5,16.8445272 15.5,16 C15.5,15.1554728 16.1717391,14.4705413 17,14.4705413 C17.8282609,14.4705413 18.5,15.1554728 18.5,16 Z M18.5,24.4705413 C18.5,25.3150685 17.8282609,26 17,26 C16.1717391,26 15.5,25.3150685 15.5,24.4705413 C15.5,23.6260141 16.1717391,22.9410826 17,22.9410826 C17.8282609,22.9410826 18.5,23.6260141 18.5,24.4705413 Z M18.5,7.5294587 C18.5,8.3739859 17.8282609,9.05891741 17,9.05891741 C16.1717391,9.05891741 15.5,8.3739859 15.5,7.5294587 C15.5,6.68493151 16.1717391,6 17,6 C17.8282609,6 18.5,6.68493151 18.5,7.5294587 Z" sketch:type="MSShapeGroup"></path>
        </g>
    </g>
</svg>