<?xml version="1.0" encoding="UTF-8" standalone="no"?>
<svg width="19px" height="20px" viewBox="0 0 19 20" version="1.1" xmlns="http://www.w3.org/2000/svg" xmlns:xlink="http://www.w3.org/1999/xlink" xmlns:sketch="http://www.bohemiancoding.com/sketch/ns">
    <!-- Generator: Sketch 3.4.2 (15857) - http://www.bohemiancoding.com/sketch -->
    <title>multipleChoice</title>
    <desc>Created with Sketch.</desc>
    <defs></defs>
    <g id="Page-1" stroke="none" stroke-width="1" fill="none" fill-rule="evenodd" sketch:type="MSPage">
        <g id="multipleChoice" sketch:type="MSArtboardGroup" transform="translate(-6.000000, -6.000000)" fill="#3A434C">
            <g sketch:type="MSLayerGroup" transform="translate(6.200000, 5.857143)">
                <path d="M10.1211143,3.25374286 L17.1778286,3.25374286 C17.6975143,3.25374286 18.1178286,2.83342857 18.1178286,2.31374286 C18.1178286,1.79405714 17.6975143,1.37374286 17.1778286,1.37374286 L10.1211143,1.37374286 C9.60142857,1.37374286 9.18111429,1.79405714 9.18111429,2.31374286 C9.18111429,2.83342857 9.60142857,3.25374286 10.1211143,3.25374286 Z M17.1778286,9.0052 L10.1211143,9.0052 C9.60142857,9.0052 9.18111429,9.42685714 9.18111429,9.9452 C9.18111429,10.4648857 9.60142857,10.8852 10.1211143,10.8852 L17.1778286,10.8852 C17.6975143,10.8852 18.1178286,10.4648857 18.1178286,9.9452 C18.1178286,9.42685714 17.6975143,9.0052 17.1778286,9.0052 Z M17.1778286,16.6930571 L10.1211143,16.6930571 C9.60142857,16.6930571 9.18111429,17.1147143 9.18111429,17.6330571 C9.18111429,18.1527429 9.60142857,18.5730571 10.1211143,18.5730571 L17.1778286,18.5730571 C17.6975143,18.5730571 18.1178286,18.1527429 18.1178286,17.6330571 C18.1178286,17.1147143 17.6975143,16.6930571 17.1778286,16.6930571 Z" id="Fill-2" sketch:type="MSShapeGroup"></path>
                <path d="M5.39828571,7.94165714 L3.47531429,9.97205714 L2.491,9.03071429 C2.11634286,8.67217143 1.52145714,8.6856 1.16291429,9.06025714 C0.804371429,9.43625714 0.816457143,10.0311429 1.19245714,10.3896857 L2.85894286,11.9836571 C3.04022857,12.1568857 3.2806,12.2495429 3.53171429,12.2441714 C3.78282857,12.2374571 4.01782857,12.1327143 4.19105714,11.9500857 L6.76262857,9.23348571 C7.11982857,8.85614286 7.10371429,8.26125714 6.72637143,7.90405714 C6.34902857,7.5482 5.75414286,7.56431429 5.39828571,7.94165714 Z M5.39828571,0.308857143 L3.47531429,2.33925714 L2.491,1.39925714 C2.11634286,1.04071429 1.52145714,1.05414286 1.16291429,1.4288 C0.804371429,1.80345714 0.816457143,2.39834286 1.19245714,2.75822857 L2.85894286,4.35085714 C3.04022857,4.52542857 3.2806,4.61808571 3.53171429,4.61137143 C3.78282857,4.606 4.01782857,4.50125714 4.19105714,4.31862857 L6.76262857,1.60202857 C7.11982857,1.22468571 7.10371429,0.6298 6.72637143,0.2726 C6.34902857,-0.0846 5.75414286,-0.0684857143 5.39828571,0.308857143 Z" id="Fill-5" sketch:type="MSShapeGroup"></path>
                <path d="M3.76537143,14.9661429 C2.39297143,14.9661429 1.28108571,16.0780286 1.28108571,17.4504286 C1.28108571,18.8228286 2.39297143,19.9333714 3.76537143,19.9347143 C5.13777143,19.9333714 6.24965714,18.8228286 6.24965714,17.4504286 C6.24965714,16.0780286 5.13777143,14.9661429 3.76537143,14.9661429 L3.76537143,14.9661429 Z M3.76537143,18.0547143 C3.43234286,18.0533714 3.16242857,17.7834571 3.16108571,17.4504286 C3.16242857,17.1174 3.43234286,16.8461429 3.76537143,16.8461429 C4.0984,16.8461429 4.36965714,17.1174 4.36965714,17.4504286 C4.36965714,17.7834571 4.0984,18.0533714 3.76537143,18.0547143 L3.76537143,18.0547143 Z" id="Fill-6" sketch:type="MSShapeGroup"></path>
            </g>
        </g>
    </g>
</svg>