<?xml version="1.0" encoding="UTF-8" standalone="no"?>
<svg width="20px" height="20px" viewBox="0 0 20 20" version="1.1" xmlns="http://www.w3.org/2000/svg" xmlns:xlink="http://www.w3.org/1999/xlink" xmlns:sketch="http://www.bohemiancoding.com/sketch/ns">
    <!-- Generator: Sketch 3.4.2 (15857) - http://www.bohemiancoding.com/sketch -->
    <title>openIssue</title>
    <desc>Created with Sketch.</desc>
    <defs></defs>
    <g id="Page-1" stroke="none" stroke-width="1" fill="none" fill-rule="evenodd" sketch:type="MSPage">
        <g id="openIssue" sketch:type="MSArtboardGroup" transform="translate(-6.000000, -6.000000)" fill="#3A434C">
            <path d="M16,24 L16,24 C20.418278,24 24,20.418278 24,16 C24,11.581722 20.418278,8 16,8 C11.581722,8 8,11.581722 8,16 C8,20.418278 11.581722,24 16,24 L16,24 Z M16,26 L16,26 C10.4771525,26 6,21.5228475 6,16 C6,10.4771525 10.4771525,6 16,6 C21.5228475,6 26,10.4771525 26,16 C26,21.5228475 21.5228475,26 16,26 L16,26 Z M15.9446667,11.1293333 C15.3926667,11.1293333 14.9446667,11.5773333 14.9446667,12.1293333 L14.9446667,16.1293333 C14.9446667,16.6813333 15.3926667,17.1293333 15.9446667,17.1293333 C16.4966667,17.1293333 16.9446667,16.6813333 16.9446667,16.1293333 L16.9446667,12.1293333 C16.9446667,11.5773333 16.4966667,11.1293333 15.9446667,11.1293333 M15.9268,18.9492 C15.3708,18.9492 14.9214667,19.3998667 14.9214667,19.9545333 C14.9214667,20.5105333 15.3708,20.9612 15.9268,20.9612 C16.4828,20.9612 16.9321333,20.5105333 16.9321333,19.9545333 C16.9321333,19.3998667 16.4828,18.9492 15.9268,18.9492" sketch:type="MSShapeGroup"></path>
        </g>
    </g>
</svg>