<?xml version="1.0" encoding="UTF-8" standalone="no"?>
<svg width="20px" height="4px" viewBox="0 0 20 4" version="1.1" xmlns="http://www.w3.org/2000/svg" xmlns:xlink="http://www.w3.org/1999/xlink" xmlns:sketch="http://www.bohemiancoding.com/sketch/ns">
    <!-- Generator: Sketch 3.4.4 (17249) - http://www.bohemiancoding.com/sketch -->
    <title>options</title>
    <desc>Created with Sketch.</desc>
    <defs></defs>
    <g id="Page-1" stroke="none" stroke-width="1" fill="none" fill-rule="evenodd" sketch:type="MSPage">
        <g id="options" sketch:type="MSArtboardGroup" transform="translate(-6.000000, -14.000000)" fill="#3A434C">
            <path d="M16,18 C17.1045695,18 18,17.1045695 18,16 C18,14.8954305 17.1045695,14 16,14 C14.8954305,14 14,14.8954305 14,16 C14,17.1045695 14.8954305,18 16,18 Z M24,18 C25.1045695,18 26,17.1045695 26,16 C26,14.8954305 25.1045695,14 24,14 C22.8954305,14 22,14.8954305 22,16 C22,17.1045695 22.8954305,18 24,18 Z M8,18 C9.1045695,18 10,17.1045695 10,16 C10,14.8954305 9.1045695,14 8,14 C6.8954305,14 6,14.8954305 6,16 C6,17.1045695 6.8954305,18 8,18 Z" sketch:type="MSShapeGroup"></path>
        </g>
    </g>
</svg>