<?xml version="1.0" encoding="UTF-8" standalone="no"?>
<svg width="20px" height="20px" viewBox="0 0 20 20" version="1.1" xmlns="http://www.w3.org/2000/svg" xmlns:xlink="http://www.w3.org/1999/xlink" xmlns:sketch="http://www.bohemiancoding.com/sketch/ns">
    <!-- Generator: Sketch 3.4.2 (15857) - http://www.bohemiancoding.com/sketch -->
    <title>participant</title>
    <desc>Created with Sketch.</desc>
    <defs></defs>
    <g id="Page-1" stroke="none" stroke-width="1" fill="none" fill-rule="evenodd" sketch:type="MSPage">
        <g id="participant" sketch:type="MSArtboardGroup" transform="translate(-6.000000, -6.000000)" fill="#3A434C">
            <g sketch:type="MSLayerGroup" transform="translate(6.000000, 6.000000)">
                <path d="M9.90088235,5.19317647 C7.78235294,5.19441176 6.06652941,6.91023529 6.06529412,9.02876471 C6.06652941,11.1472941 7.78235294,12.8631176 9.90088235,12.8631176 C12.0194118,12.8631176 13.7352353,11.1472941 13.7352353,9.02876471 C13.7352353,6.91023529 12.0194118,5.19441176 9.90088235,5.19317647 L9.90088235,5.19317647 Z M9.90088235,11.0101765 C8.80517647,11.0077059 7.92070588,10.1232353 7.91823529,9.02876471 C7.92070588,7.93305882 8.80517647,7.04858824 9.90088235,7.04611765 C10.9953529,7.04858824 11.8798235,7.93305882 11.8822941,9.02876471 C11.8798235,10.1232353 10.9953529,11.0077059 9.90088235,11.0101765 L9.90088235,11.0101765 Z" id="Fill-1" sketch:type="MSShapeGroup"></path>
                <path d="M10.0006316,0 C4.47672583,0 0.00126318449,4.47672583 -2.48689958e-14,9.99936841 C0.00126318449,15.5232742 4.47672583,19.9987368 10.0006316,20 C15.5232742,19.9987368 20,15.5232742 20,9.99936841 C20,4.47672583 15.5232742,0 10.0006316,0 L10.0006316,0 Z M5.70706752,16.8660393 C5.71843618,16.8597234 5.72222573,16.8521443 5.73359439,16.8458283 C6.26286869,16.5035053 7.052359,16.2028674 7.84816522,16.0096002 C8.64144508,15.8125434 9.45114634,15.7152782 10.0006316,15.7165414 C10.7370681,15.714015 11.9244616,15.892124 12.9413251,16.2369734 C13.4503884,16.4087665 13.9202931,16.6209815 14.2714583,16.8483547 C14.2803006,16.8546706 14.2853534,16.8597234 14.2929325,16.8660393 C13.0474326,17.6466873 11.5821386,18.1052233 10.0006316,18.1052233 C8.41912461,18.1052233 6.95256742,17.6466873 5.70706752,16.8660393 L5.70706752,16.8660393 Z M15.8011748,15.6533822 C15.638224,15.5156951 15.4765363,15.371692 15.2971642,15.2554791 C14.4988316,14.7438893 13.5489168,14.4040927 12.6103707,14.1704036 C11.6705615,13.940504 10.7522264,13.8230279 10.0006316,13.8217647 C9.00145266,13.824291 7.69784627,14.0276637 6.45992547,14.4407251 C5.84222826,14.6491505 5.24347881,14.9093665 4.71041496,15.2504263 C4.52851639,15.3691657 4.36430241,15.5131687 4.19882524,15.6533822 C2.77395314,14.1906145 1.89477673,12.2036253 1.89477673,9.99936841 C1.89477673,7.75847913 2.80048001,5.73738394 4.26956357,4.26830039 C5.73864713,2.80048001 7.75847913,1.89477673 10.0006316,1.89351355 C12.2415209,1.89477673 14.2613529,2.80048001 15.7316996,4.26830039 C17.19952,5.73738394 18.1052233,7.75847913 18.1052233,9.99936841 C18.1052233,12.2036253 17.2260469,14.1906145 15.8011748,15.6533822 L15.8011748,15.6533822 Z" id="Fill-2" sketch:type="MSShapeGroup"></path>
            </g>
        </g>
    </g>
</svg>