<?xml version="1.0" encoding="UTF-8" standalone="no"?>
<svg width="20px" height="20px" viewBox="0 0 20 20" version="1.1" xmlns="http://www.w3.org/2000/svg" xmlns:xlink="http://www.w3.org/1999/xlink" xmlns:sketch="http://www.bohemiancoding.com/sketch/ns">
    <!-- Generator: Sketch 3.4.2 (15857) - http://www.bohemiancoding.com/sketch -->
    <title>pelletCheck</title>
    <desc>Created with Sketch.</desc>
    <defs></defs>
    <g id="Page-1" stroke="none" stroke-width="1" fill="none" fill-rule="evenodd" sketch:type="MSPage">
        <g id="pelletCheck" sketch:type="MSArtboardGroup" transform="translate(-6.000000, -6.000000)" fill="#3A434C">
            <path d="M16,6 C10.477,6 6,10.477 6,16 C6,21.523 10.477,26 16,26 C21.523,26 26,21.523 26,16 C26,10.477 21.523,6 16,6 L16,6 Z M21.541,14.776 L16,20.524 C15.388,21.159 14.396,21.159 13.784,20.524 L10.459,17.075 C9.847,16.44 9.847,15.41 10.459,14.776 C11.071,14.141 12.063,14.141 12.675,14.776 L14.892,17.075 L19.325,12.476 C19.937,11.841 20.929,11.841 21.541,12.476 C22.153,13.111 22.153,14.141 21.541,14.776 L21.541,14.776 Z" sketch:type="MSShapeGroup"></path>
        </g>
    </g>
</svg>