<?xml version="1.0" encoding="UTF-8" standalone="no"?>
<svg width="20px" height="20px" viewBox="0 0 20 20" version="1.1" xmlns="http://www.w3.org/2000/svg" xmlns:xlink="http://www.w3.org/1999/xlink" xmlns:sketch="http://www.bohemiancoding.com/sketch/ns">
    <!-- Generator: Sketch 3.4.2 (15857) - http://www.bohemiancoding.com/sketch -->
    <title>pelletClose</title>
    <desc>Created with Sketch.</desc>
    <defs></defs>
    <g id="Page-1" stroke="none" stroke-width="1" fill="none" fill-rule="evenodd" sketch:type="MSPage">
        <g id="pelletClose" sketch:type="MSArtboardGroup" transform="translate(-6.000000, -6.000000)" fill="#3A434C">
            <path d="M16,26 C21.5228475,26 26,21.5228475 26,16 C26,10.4771525 21.5228475,6 16,6 C10.4771525,6 6,10.4771525 6,16 C6,21.5228475 10.4771525,26 16,26 L16,26 Z M13.4505103,20.246546 C12.9869667,20.7100896 12.2259885,20.7112698 11.7573593,20.2426407 C11.285463,19.7707443 11.2869817,19.015962 11.753454,18.5494897 L14.3029437,16 L11.753454,13.4505103 C11.2899104,12.9869667 11.2887302,12.2259885 11.7573593,11.7573593 C12.2292557,11.285463 12.984038,11.2869817 13.4505103,11.753454 L16,14.3029437 L18.5494897,11.753454 C19.0130333,11.2899104 19.7740115,11.2887302 20.2426407,11.7573593 C20.714537,12.2292557 20.7130183,12.984038 20.246546,13.4505103 L17.6970563,16 L20.246546,18.5494897 C20.7100896,19.0130333 20.7112698,19.7740115 20.2426407,20.2426407 C19.7707443,20.714537 19.015962,20.7130183 18.5494897,20.246546 L16,17.6970563 L13.4505103,20.246546 L13.4505103,20.246546 Z" sketch:type="MSShapeGroup"></path>
        </g>
    </g>
</svg>