<?xml version="1.0" encoding="UTF-8" standalone="no"?>
<svg width="20px" height="20px" viewBox="0 0 20 20" version="1.1" xmlns="http://www.w3.org/2000/svg" xmlns:xlink="http://www.w3.org/1999/xlink" xmlns:sketch="http://www.bohemiancoding.com/sketch/ns">
    <!-- Generator: Sketch 3.4.2 (15857) - http://www.bohemiancoding.com/sketch -->
    <title>picture</title>
    <desc>Created with Sketch.</desc>
    <defs></defs>
    <g id="Page-1" stroke="none" stroke-width="1" fill="none" fill-rule="evenodd" sketch:type="MSPage">
        <g id="picture" sketch:type="MSArtboardGroup" transform="translate(-6.000000, -6.000000)" fill="#3A434C">
            <g sketch:type="MSLayerGroup" transform="translate(6.000000, 6.000000)">
                <path d="M2.65642203,0 C1.26389596,0.00368718291 0.14053423,1.12827797 0.136847047,2.51957499 L0.136847047,17.4305427 C0.14053423,18.8218397 1.26389596,19.9464305 2.65642203,19.9501176 L17.5673897,19.9501176 C18.9599158,19.9464305 19.8605705,18.82184 19.8642576,17.4305429 L19.8642576,2.51957527 C19.8605705,1.12827825 18.9599158,0.00368718291 17.5673897,0 L2.65642203,0 Z M2.65642203,1.84359145 L17.5673897,1.84359145 C17.9336499,1.84482051 18.2433732,2.15454388 18.2433732,2.51957499 L18.2433732,10.7383057 L15.5222323,7.6140327 C15.195302,7.23916911 14.6262468,7.19246479 14.2415507,7.50833346 L9.65961143,11.2815506 L6.64103769,8.29984872 C6.30796217,7.97046038 5.78561126,7.94219198 5.41935109,8.23347943 L1.9804385,10.9644529 L1.9804385,2.51957499 C1.98166756,2.15454388 2.29139093,1.84482051 2.65642203,1.84359145 L2.65642203,1.84359145 Z M17.5673897,18.1065262 L2.65642203,18.1065262 C2.29139093,18.1052971 1.98166756,17.7955738 1.9804385,17.4305427 L1.9804385,13.3181047 L5.92695327,10.1852282 L8.95658856,13.1779917 C9.2921222,13.5098382 9.8243056,13.5331903 10.1905658,13.2332995 L14.7208845,9.50187035 L18.2433732,13.5454809 L18.2433732,17.4305427 C18.2433732,17.7955738 17.9336499,18.1052971 17.5673897,18.1065262 L17.5673897,18.1065262 Z" id="Fill-1" sketch:type="MSShapeGroup"></path>
                <path d="M9.08029412,7.94917647 C9.73991176,7.94917647 10.2765294,7.41376471 10.2765294,6.75294118 C10.2765294,6.09211765 9.73991176,5.55670588 9.08029412,5.55670588 C8.41947059,5.55670588 7.88285294,6.09211765 7.88285294,6.75294118 C7.88285294,7.41376471 8.41947059,7.94917647 9.08029412,7.94917647" id="Fill-2" sketch:type="MSShapeGroup"></path>
            </g>
        </g>
    </g>
</svg>