<?xml version="1.0" encoding="utf-8"?>
<!-- Generator: Adobe Illustrator 19.2.0, SVG Export Plug-In . SVG Version: 6.00 Build 0)  -->
<svg version="1.1" id="Calque_1" xmlns:sketch="http://www.bohemiancoding.com/sketch/ns"
	 xmlns="http://www.w3.org/2000/svg" xmlns:xlink="http://www.w3.org/1999/xlink" x="0px" y="0px" viewBox="0 0 20 20"
	 style="enable-background:new 0 0 20 20;" xml:space="preserve">
<title>pluged</title>
<desc>Created with Sketch.</desc>
<g id="Page-1" sketch:type="MSPage">
	<g id="pluged" transform="translate(0.000000, 4.000000)" sketch:type="MSLayerGroup">
		<path id="Shape" sketch:type="MSShapeGroup" d="M1.9,3.5C1.9,3.5,1.9,3.5,1.9,3.5l-3.5,0c-0.6,0-1.1,0.5-1.1,1.1v2.6
			c0,0.6,0.5,1.1,1.1,1.1h3.5c0,0,0,0,0,0c1,2.9,3.7,5,7,5V-1.6C5.6-1.6,2.9,0.5,1.9,3.5L1.9,3.5z"/>
		<path id="Shape_1_" sketch:type="MSShapeGroup" d="M21.6,3.5h-3.5c0,0,0,0,0,0c-1-2.9-3.7-5-7-5v4.4H8.8c-0.3,0-0.6,0.3-0.6,0.6
			c0,0.3,0.3,0.6,0.6,0.6h2.4v3.7H8.8C8.4,7.7,8.2,8,8.2,8.3s0.3,0.6,0.6,0.6h2.4v4.4c3.2,0,6-2.1,7-5c0,0,0,0,0,0h3.5
			c0.6,0,1.1-0.5,1.1-1.1V4.6C22.8,4,22.3,3.5,21.6,3.5L21.6,3.5z"/>
	</g>
</g>
</svg>
