<?xml version="1.0" encoding="UTF-8" standalone="no"?>
<svg width="20px" height="20px" viewBox="0 0 20 20" version="1.1" xmlns="http://www.w3.org/2000/svg" xmlns:xlink="http://www.w3.org/1999/xlink" xmlns:sketch="http://www.bohemiancoding.com/sketch/ns">
    <!-- Generator: Sketch 3.4.2 (15857) - http://www.bohemiancoding.com/sketch -->
    <title>plus</title>
    <desc>Created with Sketch.</desc>
    <defs></defs>
    <g id="Page-1" stroke="none" stroke-width="1" fill="none" fill-rule="evenodd" sketch:type="MSPage">
        <g id="plus" sketch:type="MSArtboardGroup" transform="translate(-6.000000, -6.000000)" fill="#3A434C">
            <path d="M7.99079514,18 C6.89821238,18 6,17.1045695 6,16 C6,14.8877296 6.89130934,14 7.99079514,14 L14,14 L14,7.99079514 C14,6.89821238 14.8954305,6 16,6 C17.1122704,6 18,6.89130934 18,7.99079514 L18,14 L24.0092049,14 C25.1017876,14 26,14.8954305 26,16 C26,17.1122704 25.1086907,18 24.0092049,18 L18,18 L18,24.0092049 C18,25.1017876 17.1045695,26 16,26 C14.8877296,26 14,25.1086907 14,24.0092049 L14,18 L7.99079514,18 Z" sketch:type="MSShapeGroup"></path>
        </g>
    </g>
</svg>