<?xml version="1.0" encoding="UTF-8" standalone="no"?>
<svg width="22px" height="20px" viewBox="0 0 22 20" version="1.1" xmlns="http://www.w3.org/2000/svg" xmlns:xlink="http://www.w3.org/1999/xlink" xmlns:sketch="http://www.bohemiancoding.com/sketch/ns">
    <!-- Generator: Sketch 3.4.2 (15857) - http://www.bohemiancoding.com/sketch -->
    <title>popup</title>
    <desc>Created with Sketch.</desc>
    <defs></defs>
    <g id="Page-1" stroke="none" stroke-width="1" fill="none" fill-rule="evenodd" sketch:type="MSPage">
        <g id="popup" sketch:type="MSArtboardGroup" transform="translate(-5.000000, -6.000000)" fill="#3A434C">
            <g sketch:type="MSLayerGroup" transform="translate(5.000000, 6.000000)">
                <path d="M19.2725019,0 L2.72749814,0 C1.22055542,0.00271094544 0.00272749814,1.21314809 0,2.71094544 L0,17.2890546 C0.00272749814,18.7868519 1.22055542,19.9972891 2.72749814,20 L19.2725019,20 C20.7780808,19.9972891 21.9959088,18.7868519 22,17.2890546 L22,2.71094544 C21.9959088,1.21314809 20.7794446,0.00271094544 19.2725019,0 L19.2725019,0 Z M19.2725019,18.1023382 L2.72749814,18.1023382 C2.28291594,18.1023382 1.9092487,17.7309387 1.9092487,17.2890546 L1.9092487,4.24669604 L20.0907513,4.24669604 L20.0907513,17.2890546 C20.0893876,17.7309387 19.7157203,18.1023382 19.2725019,18.1023382 L19.2725019,18.1023382 Z" id="Fill-1" sketch:type="MSShapeGroup"></path>
                <path d="M12.1,9.91873584 C12.1,9.646562 11.9923134,9.38174421 11.8056566,9.19048692 C11.6189998,8.99775842 11.3591161,8.88888889 11.094925,8.88888889 L6.7874605,8.88888889 C6.23179758,8.88888889 5.78238546,9.3493776 5.78238546,9.91873584 C5.78238546,10.4866229 6.23179758,10.9485828 6.7874605,10.9485828 L8.63249111,10.9471116 L4.70121188,14.9017238 C4.30492515,15.3004217 4.29918186,15.9521677 4.68685366,16.3582217 C5.07596129,16.7642756 5.71346603,16.7701605 6.10831693,16.3714626 L10.0898499,12.3683004 L10.0898499,14.3323656 C10.0898499,14.9002526 10.539262,15.3622126 11.094925,15.3622126 C11.6505879,15.3622126 12.1,14.9002526 12.1,14.3323656 L12.1,9.91873584" id="Fill-2" sketch:type="MSShapeGroup"></path>
            </g>
        </g>
    </g>
</svg>