<?xml version="1.0" encoding="UTF-8" standalone="no"?>
<svg width="20px" height="20px" viewBox="0 0 20 20" version="1.1" xmlns="http://www.w3.org/2000/svg" xmlns:xlink="http://www.w3.org/1999/xlink" xmlns:sketch="http://www.bohemiancoding.com/sketch/ns">
    <!-- Generator: Sketch 3.4.2 (15857) - http://www.bohemiancoding.com/sketch -->
    <title>public</title>
    <desc>Created with Sketch.</desc>
    <defs></defs>
    <g id="Page-1" stroke="none" stroke-width="1" fill="none" fill-rule="evenodd" sketch:type="MSPage">
        <g id="public" sketch:type="MSArtboardGroup" transform="translate(-6.000000, -6.000000)" fill="#3A434C">
            <g sketch:type="MSLayerGroup" transform="translate(8.000000, 6.000000)">
                <path d="M15.540081,1.99202238 C15.3859109,1.75669532 15.1889879,1.54299291 14.9350607,1.37635591 C14.7135223,1.23134356 14.4336842,1.14102885 14.137004,1.11813216 L14.1382996,1.10668382 L5.97117409,0.00764284005 L5.84809717,1.061103e-05 C5.50607287,-0.00126142714 5.18218623,0.11194997 4.92955466,0.277314932 C4.54736842,0.52917849 4.29603239,0.878988986 4.1237247,1.26314451 C3.9540081,1.64857208 3.86461538,2.07979302 3.86331984,2.53645472 L3.86331984,2.90407375 L1.71659919,2.90407375 C1.38623482,2.90280171 1.08307692,3.02491738 0.862834008,3.18773826 C0.529878543,3.43451367 0.336842105,3.7487071 0.200809717,4.0819811 C0.0686639676,4.41779917 0.00129554656,4.78669024 0,5.17593392 L0,14.7365728 C0.00259109312,15.2555644 0.11659919,15.7363948 0.358866397,16.1561674 C0.48194332,16.3647817 0.64,16.5619476 0.862834008,16.7247685 C1.08307692,16.8863173 1.38623482,17.009705 1.71659919,17.008433 L3.86331984,17.008433 L3.86331984,19.10984 C3.86331984,19.3858723 3.99546559,19.6479122 4.21959514,19.8170933 C4.44242915,19.9850023 4.73392713,20.040972 5.0059919,19.9697378 L15.3289069,17.241216 C15.7253441,17.1369088 16,16.7858263 16,16.3813182 L16,3.63676774 C15.9974089,3.02746145 15.8445344,2.46267651 15.540081,1.99202238 L15.540081,1.99202238 Z M3.86331984,15.2275795 L1.91740891,15.2275795 L1.87595142,15.142353 C1.83967611,15.0380459 1.81376518,14.8930335 1.81376518,14.7365728 L1.81376518,5.17593392 C1.81246964,4.95968743 1.86688259,4.78033005 1.91611336,4.68492719 L3.86331984,4.68492719 L3.86331984,15.2275795 L3.86331984,15.2275795 Z M14.1862348,15.6995057 L5.67708502,17.9484692 L5.67708502,2.53645472 C5.67578947,2.24006983 5.76518219,1.98057404 5.85068826,1.85464226 L5.90121457,1.79612851 L13.8921457,2.87100076 L13.9465587,2.87481687 C13.9646964,2.89008133 14.0242915,2.94859509 14.0774089,3.07198279 C14.1395951,3.21190699 14.1875304,3.41416106 14.1862348,3.63676774 L14.1862348,15.6995057 L14.1862348,15.6995057 Z" id="Fill-1" sketch:type="MSShapeGroup"></path>
                <path d="M7.30464859,9.28182788 C6.90753522,9.6650624 6.89735282,10.2991182 7.2817382,10.6950848 C7.66612358,11.0923245 8.29870482,11.1025102 8.69581819,10.7192756 C9.09165876,10.3347679 9.10311395,9.70198533 8.71872857,9.30474556 C8.33434319,8.90750579 7.70176196,8.89732015 7.30464859,9.28182788" id="Fill-2" sketch:type="MSShapeGroup"></path>
            </g>
        </g>
    </g>
</svg>