<?xml version="1.0" encoding="UTF-8" standalone="no"?>
<svg width="20px" height="20px" viewBox="0 0 20 20" version="1.1" xmlns="http://www.w3.org/2000/svg" xmlns:xlink="http://www.w3.org/1999/xlink" xmlns:sketch="http://www.bohemiancoding.com/sketch/ns">
    <!-- Generator: Sketch 3.4.2 (15857) - http://www.bohemiancoding.com/sketch -->
    <title>quickNote</title>
    <desc>Created with Sketch.</desc>
    <defs></defs>
    <g id="Page-1" stroke="none" stroke-width="1" fill="none" fill-rule="evenodd" sketch:type="MSPage">
        <g id="quickNote" sketch:type="MSArtboardGroup" transform="translate(-6.000000, -6.000000)" fill="#3A434C">
            <path d="M22.3437689,20.8421264 L20.4264933,18.9248508 C20.9815647,18.08554 21.3087082,17.0826574 21.3087082,16.0006704 C21.3087082,15.9577663 21.2966414,15.9175437 21.2966414,15.8746397 C21.2899377,14.850305 20.9842462,13.8246296 20.3849299,12.9397332 L22.267346,11.0573172 C23.34397,12.4181806 23.9888718,14.1289804 23.9888718,16.0006704 C23.9888718,17.8254341 23.3721258,19.497352 22.3437689,20.8421264 M11.0573172,22.2686867 L12.9719112,20.3527519 C13.8313334,20.9520681 14.8717571,21.3087082 16.0006704,21.3100489 C17.1228799,21.3087082 18.1606221,20.9560904 19.0187035,20.3607964 L20.9332976,22.2753905 C19.5737749,23.3466515 17.8669974,23.9888718 16.0006704,23.9888718 C14.1289804,23.9888718 12.4181806,23.34397 11.0573172,22.2686867 M8.01112824,16.0006704 C8.01112824,14.1330026 8.65334853,12.4262251 9.72460951,11.0667024 L11.5976403,12.9397332 C10.9902795,13.8353556 10.6805658,14.8744386 10.6819065,15.9121807 C10.6819065,16.2594355 10.7181069,16.6080311 10.7864852,16.9512637 C10.9165382,17.6658846 11.1833479,18.3295569 11.566803,18.9127841 L9.64818663,20.8314004 C8.62519273,19.4893075 8.01112824,17.8214118 8.01112824,16.0006704 M19.2895354,15.91084 C19.2881947,16.7581953 18.9690957,17.5961654 18.3228531,18.2437487 C17.6766106,18.8899913 16.8386405,19.2077495 15.9912851,19.2090903 C15.142589,19.2077495 14.3046189,18.8899913 13.6583763,18.2437487 C13.0134746,17.5975062 12.6943755,16.7595361 12.6930348,15.9121807 C12.6943755,15.0634846 13.0134746,14.2255145 13.6583763,13.579272 C14.3059596,12.9330294 15.1439297,12.6152712 15.9899444,12.6139304 C16.8372997,12.6152712 17.6752698,12.9330294 18.3241939,13.579272 C18.9690957,14.2255145 19.2881947,15.0634846 19.2895354,15.91084 M20.8314004,9.64818663 L18.9623919,11.5185359 C18.0667695,10.9111752 17.0276865,10.6014614 15.9899444,10.6028022 C14.9535429,10.6014614 13.91446,10.9111752 13.0201783,11.5185359 L11.1578736,9.65623115 C12.502648,8.62787424 14.1745659,8.012469 16.0006704,8.01112824 C17.8214118,8.012469 19.4879667,8.62519273 20.8314004,9.64818663 M16.0006704,6 C10.4767715,6.00134075 6,10.4767715 6,16.0006704 C6,21.5232285 10.4767715,26 16.0006704,26 C21.5232285,26 26,21.5232285 26,16.0006704 C26,10.4767715 21.5232285,6.00134075 16.0006704,6" sketch:type="MSShapeGroup"></path>
        </g>
    </g>
</svg>