<?xml version="1.0" encoding="UTF-8" standalone="no"?>
<svg width="20px" height="20px" viewBox="0 0 20 20" version="1.1" xmlns="http://www.w3.org/2000/svg" xmlns:xlink="http://www.w3.org/1999/xlink" xmlns:sketch="http://www.bohemiancoding.com/sketch/ns">
    <!-- Generator: Sketch 3.4.2 (15857) - http://www.bohemiancoding.com/sketch -->
    <title>refresh</title>
    <desc>Created with Sketch.</desc>
    <defs></defs>
    <g id="Page-1" stroke="none" stroke-width="1" fill="none" fill-rule="evenodd" sketch:type="MSPage">
        <g id="refresh" sketch:type="MSArtboardGroup" transform="translate(-6.000000, -6.000000)" fill="#3A434C">
            <path d="M16,8.7135 C11.9757772,8.7135 8.7135,11.9757772 8.7135,16 C8.7135,20.0242228 11.9757772,23.2865 16,23.2865 C19.0253657,23.2865 21.6864443,21.4258673 22.7721762,18.6966525 C22.9236563,18.2613304 23.3368034,17.9474993 23.8232497,17.9474993 C24.4344908,17.9474993 24.9299996,18.4430081 24.9299996,19.0542492 C24.9299996,19.1506595 24.9176722,19.2441906 24.8945076,19.3333521 C24.8655229,19.431626 24.8451321,19.4836378 24.8211039,19.533569 C23.4190428,23.0304351 19.9979203,25.5 16,25.5 C10.7532949,25.5 6.5,21.2467051 6.5,16 C6.5,10.7532949 10.7532949,6.5 16,6.5 C18.3420345,6.5 20.4861252,7.34749814 22.1423227,8.75254508 L24.0528527,6.86755032 C24.2968604,6.6262294 24.6568322,6.55816453 24.9696936,6.69305673 C25.281347,6.82918648 25.4842841,7.14104735 25.4854921,7.48879698 L25.4999876,13.082492 C25.5011955,13.3139126 25.4142225,13.5317202 25.2547719,13.6950759 C25.0953213,13.8596691 24.8827205,13.9500098 24.6568322,13.9512473 L18.9552656,13.9673354 C18.6109972,13.9685729 18.2981358,13.7532404 18.1688842,13.426529 C18.0396326,13.0998176 18.11815,12.722367 18.3669895,12.4773334 L20.3903209,10.4811763 L20.5586745,10.3150679 C19.2795032,9.28690328 17.6870438,8.7135 16,8.7135 Z" id="Shape" sketch:type="MSShapeGroup"></path>
        </g>
    </g>
</svg>