<?xml version="1.0" encoding="UTF-8" standalone="no"?>
<svg width="20px" height="20px" viewBox="0 0 20 20" version="1.1" xmlns="http://www.w3.org/2000/svg" xmlns:xlink="http://www.w3.org/1999/xlink" xmlns:sketch="http://www.bohemiancoding.com/sketch/ns">
    <!-- Generator: Sketch 3.4.2 (15857) - http://www.bohemiancoding.com/sketch -->
    <title>results</title>
    <desc>Created with Sketch.</desc>
    <defs></defs>
    <g id="Page-1" stroke="none" stroke-width="1" fill="none" fill-rule="evenodd" sketch:type="MSPage">
        <g id="results" sketch:type="MSArtboardGroup" transform="translate(-6.000000, -6.000000)" fill="#3A434C">
            <path d="M7.20310543,9 C6.53894315,9 6.00100175,9.5198064 6,10.1615786 C6.00100175,10.8033507 6.53894315,11.3221891 7.20310543,11.3231571 C7.86626597,11.3221891 8.40420736,10.8033507 8.40520912,10.1615786 C8.40420736,9.5198064 7.86626597,9 7.20310543,9 Z M7.20310543,14.3510052 C6.53894315,14.3519732 6.00100175,14.8708116 6,15.5125838 C6.00100175,16.1543559 6.53894315,16.6741623 7.20310543,16.6741623 C7.86626597,16.6741623 8.40420736,16.1543559 8.40520912,15.5125838 C8.40420736,14.8708116 7.86626597,14.3519732 7.20310543,14.3510052 Z M7.20310543,19.6768429 C6.53894315,19.6768429 6.00100175,20.1966493 6,20.8384214 C6.00100175,21.4801936 6.53894315,21.999032 7.20310543,22 C7.86626597,21.999032 8.40420736,21.4801936 8.40520912,20.8384214 C8.40420736,20.1966493 7.86626597,19.6768429 7.20310543,19.6768429 Z M12.1086902,10.8178704 L16.4072126,10.8178704 C16.7938893,10.8178704 17.1084398,10.514892 17.1084398,10.1402829 C17.1084398,9.76664185 16.7938893,9.46269546 16.4072126,9.46269546 L12.1086902,9.46269546 C11.7210118,9.46269546 11.4074631,9.76664185 11.4074631,10.1402829 C11.4074631,10.514892 11.7210118,10.8178704 12.1086902,10.8178704 Z M20.350646,20.158898 L12.111227,20.158898 C11.7235486,20.158898 11.4099998,20.4628444 11.4099998,20.8364855 C11.4099998,21.2110946 11.7235486,21.514073 12.111227,21.514073 L20.350646,21.514073 C20.7373227,21.514073 21.0518731,21.2110946 21.0518731,20.8364855 C21.0518731,20.4628444 20.7373227,20.158898 20.350646,20.158898 Z M25.2987729,14.8349963 L12.1086902,14.8349963 C11.7210118,14.8349963 11.4074631,15.1389427 11.4074631,15.5125838 C11.4074631,15.8871929 11.7210118,16.1901713 12.1086902,16.1901713 L25.2987729,16.1901713 C25.6854495,16.1901713 26,15.8871929 26,15.5125838 C26,15.1389427 25.6854495,14.8349963 25.2987729,14.8349963 Z" sketch:type="MSShapeGroup"></path>
        </g>
    </g>
</svg>