<?xml version="1.0" encoding="UTF-8" standalone="no"?>
<svg width="20px" height="20px" viewBox="0 0 20 20" version="1.1" xmlns="http://www.w3.org/2000/svg" xmlns:xlink="http://www.w3.org/1999/xlink" xmlns:sketch="http://www.bohemiancoding.com/sketch/ns">
    <!-- Generator: Sketch 3.4.2 (15857) - http://www.bohemiancoding.com/sketch -->
    <title>section</title>
    <desc>Created with Sketch.</desc>
    <defs></defs>
    <g id="Page-1" stroke="none" stroke-width="1" fill="none" fill-rule="evenodd" sketch:type="MSPage">
        <g id="section" sketch:type="MSArtboardGroup" transform="translate(-6.000000, -6.000000)" fill="#3A434C">
            <path d="M8,19.9968697 L8,19.9968697 L8,23.0031303 C8,23.5509696 8.44804757,24 8.99420208,24 L23.0057979,24 C23.5529589,24 24,23.5528456 24,23.0031303 L24,19.9968697 C24,19.4490304 23.5519524,19 23.0057979,19 L8.99420208,19 C8.44704107,19 8,19.4471544 8,19.9968697 L8,19.9968697 Z M6,19.9968697 C6,18.3417443 7.34331197,17 8.99420208,17 L23.0057979,17 C24.6594501,17 26,18.3473909 26,19.9968697 L26,23.0031303 C26,24.6582557 24.656688,26 23.0057979,26 L8.99420208,26 C7.34054993,26 6,24.6526091 6,23.0031303 L6,19.9968697 L6,19.9968697 Z M8,8.99686968 L8,8.99686968 L8,12.0031303 C8,12.5509696 8.44804757,13 8.99420208,13 L23.0057979,13 C23.5529589,13 24,12.5528456 24,12.0031303 L24,8.99686968 C24,8.4490304 23.5519524,8 23.0057979,8 L8.99420208,8 C8.44704107,8 8,8.44715443 8,8.99686968 L8,8.99686968 Z M6,8.99686968 C6,7.34174426 7.34331197,6 8.99420208,6 L23.0057979,6 C24.6594501,6 26,7.34739093 26,8.99686968 L26,12.0031303 C26,13.6582557 24.656688,15 23.0057979,15 L8.99420208,15 C7.34054993,15 6,13.6526091 6,12.0031303 L6,8.99686968 L6,8.99686968 Z" sketch:type="MSShapeGroup"></path>
        </g>
    </g>
</svg>