<?xml version="1.0" encoding="UTF-8" standalone="no"?>
<svg width="20px" height="20px" viewBox="0 0 20 20" version="1.1" xmlns="http://www.w3.org/2000/svg" xmlns:xlink="http://www.w3.org/1999/xlink" xmlns:sketch="http://www.bohemiancoding.com/sketch/ns">
    <!-- Generator: Sketch 3.4.2 (15857) - http://www.bohemiancoding.com/sketch -->
    <title>slack</title>
    <desc>Created with Sketch.</desc>
    <defs></defs>
    <g id="Page-1" stroke="none" stroke-width="1" fill="none" fill-rule="evenodd" sketch:type="MSPage">
        <g id="slack-" sketch:type="MSArtboardGroup" transform="translate(-6.000000, -6.000000)" fill="#3A434C">
            <path d="M25.9107628,16.6386656 C25.619935,15.8008303 24.7047547,15.3575895 23.8669186,15.6484171 L21.8953439,16.3329642 L20.4205563,12.0855172 L22.392481,11.40097 C23.2301421,11.1099675 23.6737333,10.1951381 23.3827305,9.3573028 C23.0917277,8.5192925 22.1768974,8.07605172 21.3388863,8.36687927 L19.3671366,9.0516014 L18.6824138,7.07950366 C18.391411,6.24166834 17.4765807,5.79842756 16.6387446,6.08925511 C15.8007334,6.38025764 15.3574922,7.29508701 15.6483201,8.13292233 L16.3330429,10.1050201 L12.0855916,11.5796312 L11.4008688,9.60753348 C11.110041,8.76987315 10.1952107,8.3262824 9.35719961,8.61745992 C8.51936348,8.90828747 8.07612226,9.82311684 8.3669501,10.6609522 L9.0516729,12.6330499 L7.07957323,13.317597 C6.24173709,13.6085996 5.79832089,14.523429 6.08932371,15.3612643 C6.38032653,16.1992746 7.29498181,16.6425153 8.13299293,16.3515128 L10.1050926,15.6669657 L11.5795302,19.9144127 L9.60760553,20.5991349 C8.76994438,20.8899624 8.32635319,21.8047918 8.61753099,22.6426271 C8.90835883,23.4806374 9.82301411,23.9238782 10.6610252,23.6330506 L12.6329499,22.9483285 L13.3174977,24.9206012 C13.6085006,25.7582616 14.5236808,26.2016773 15.3613419,25.9106748 C16.1993531,25.6198473 16.6424193,24.7048429 16.3515915,23.8671826 L15.6668687,21.8949098 L19.9143199,20.4202987 L20.5990427,22.3922214 C20.8898705,23.2300568 21.8050508,23.6734725 22.6427119,23.382645 C23.480723,23.0916424 23.9239642,22.1766381 23.6331364,21.3389778 L22.9485886,19.367055 L24.9205133,18.6823329 C25.7581744,18.3915053 26.2015906,17.476501 25.9107628,16.6386656 L25.9107628,16.6386656 Z M14.613449,18.8609941 L13.1390113,14.613547 L17.3864626,13.1389358 L18.8610752,17.3863829 L14.613449,18.8609941 L14.613449,18.8609941 Z" id="slack" sketch:type="MSShapeGroup"></path>
        </g>
    </g>
</svg>