<?xml version="1.0" encoding="UTF-8" standalone="no"?>
<svg width="36px" height="20px" viewBox="0 0 36 20" version="1.1" xmlns="http://www.w3.org/2000/svg" xmlns:xlink="http://www.w3.org/1999/xlink" xmlns:sketch="http://www.bohemiancoding.com/sketch/ns">
    <!-- Generator: Sketch 3.4.2 (15857) - http://www.bohemiancoding.com/sketch -->
    <title>solidFull</title>
    <desc>Created with Sketch.</desc>
    <defs></defs>
    <g id="Page-1" stroke="none" stroke-width="1" fill="none" fill-rule="evenodd" sketch:type="MSPage">
        <g id="solidFull" sketch:type="MSArtboardGroup" transform="translate(-6.000000, -6.000000)" fill="#3A434C">
            <g sketch:type="MSLayerGroup" transform="translate(6.000000, 6.000000)">
                <path d="M18.437,0.013 L20.317,0.013 L20.317,14.536 L18.437,14.536 L18.437,0.013 Z" id="Fill-1" sketch:type="MSShapeGroup"></path>
                <path d="M23.044,5.103 L24.924,5.103 L24.924,14.501 L23.044,14.501 L23.044,5.103 Z" id="Fill-2" sketch:type="MSShapeGroup"></path>
                <path d="M0.037,0.039 L6.017,0.039 L6.017,1.988 L0.037,1.988 L0.037,0.039 Z" id="Fill-3" sketch:type="MSShapeGroup"></path>
                <path d="M14.255,5.951 C13.562,5.447 12.719,5.152 11.821,5.152 C11.222,5.152 10.648,5.283 10.126,5.52 C9.344,5.876 8.681,6.467 8.212,7.212 C7.742,7.957 7.467,8.862 7.468,9.827 C7.468,10.469 7.59,11.087 7.81,11.646 C8.141,12.487 8.692,13.198 9.386,13.702 C10.08,14.206 10.923,14.501 11.821,14.501 C12.419,14.501 12.994,14.37 13.516,14.133 C14.298,13.778 14.961,13.186 15.43,12.441 C15.899,11.696 16.174,10.791 16.174,9.827 C16.174,9.184 16.052,8.567 15.832,8.007 C15.5,7.167 14.95,6.455 14.255,5.951 L14.255,5.951 Z M14.099,10.86 C13.912,11.334 13.597,11.742 13.202,12.028 C12.807,12.314 12.336,12.48 11.821,12.481 C11.477,12.48 11.154,12.406 10.859,12.272 C10.417,12.072 10.037,11.734 9.771,11.31 C9.504,10.885 9.35,10.38 9.349,9.827 C9.349,9.457 9.418,9.111 9.543,8.794 C9.73,8.319 10.045,7.912 10.44,7.625 C10.835,7.339 11.306,7.173 11.821,7.173 C12.165,7.173 12.487,7.247 12.783,7.381 C13.225,7.582 13.604,7.919 13.871,8.343 C14.138,8.768 14.292,9.273 14.292,9.827 C14.292,10.196 14.223,10.542 14.099,10.86 L14.099,10.86 Z" id="Fill-4" sketch:type="MSShapeGroup"></path>
                <circle id="Oval-6" sketch:type="MSShapeGroup" cx="24" cy="1" r="1"></circle>
                <path d="M35.903,9.81 C35.903,9.801 35.9,9.793 35.9,9.785 L35.9,0.013 L34.02,0.013 L34.02,5.965 C34.008,5.956 33.997,5.944 33.984,5.935 C33.29,5.431 32.448,5.135 31.549,5.136 C30.951,5.136 30.376,5.267 29.855,5.503 C29.072,5.859 28.41,6.45 27.94,7.196 C27.471,7.941 27.196,8.846 27.196,9.81 C27.196,10.453 27.318,11.07 27.539,11.63 C27.87,12.47 28.421,13.182 29.115,13.685 C29.808,14.189 30.651,14.485 31.549,14.484 C32.148,14.485 32.723,14.354 33.244,14.117 C33.521,13.991 33.777,13.826 34.02,13.645 L34.02,14.536 L35.9,14.536 L35.9,9.844 C35.9,9.832 35.903,9.822 35.903,9.81 L35.903,9.81 Z M33.827,10.843 C33.64,11.318 33.326,11.725 32.931,12.011 C32.535,12.298 32.065,12.464 31.549,12.464 C31.206,12.464 30.883,12.39 30.588,12.256 C30.145,12.055 29.766,11.717 29.5,11.293 C29.233,10.868 29.078,10.363 29.078,9.81 C29.078,9.441 29.147,9.094 29.272,8.777 C29.459,8.302 29.773,7.895 30.168,7.609 C30.564,7.323 31.034,7.157 31.549,7.156 C31.893,7.156 32.216,7.23 32.511,7.364 C32.954,7.565 33.333,7.903 33.599,8.327 C33.864,8.748 34.017,9.249 34.02,9.797 L34.02,9.82 C34.019,10.185 33.951,10.529 33.827,10.843 L33.827,10.843 Z" id="Fill-6" sketch:type="MSShapeGroup"></path>
                <path d="M0.037,18.006 L5.999,18.006 L5.999,19.959 L0.037,19.959 L0.037,18.006 Z" id="Fill-7" sketch:type="MSShapeGroup"></path>
                <path d="M3.687,12.062 C3.639,12.167 3.541,12.286 3.391,12.378 C3.241,12.471 3.045,12.533 2.824,12.533 C2.751,12.533 2.68,12.526 2.612,12.513 C2.411,12.475 2.241,12.385 2.125,12.279 C2.047,12.208 1.994,12.132 1.961,12.062 C1.929,11.991 1.915,11.927 1.915,11.856 L0.039,11.856 C0.039,12.143 0.087,12.422 0.172,12.681 C0.18,12.703 0.188,12.725 0.196,12.747 C0.211,12.79 0.228,12.832 0.245,12.874 C0.257,12.903 0.269,12.932 0.282,12.96 C0.29,12.977 0.299,12.993 0.307,13.009 C0.541,13.485 0.9,13.864 1.325,14.126 C1.648,14.325 2.012,14.458 2.398,14.515 C2.538,14.535 2.68,14.547 2.824,14.547 C3.006,14.547 3.184,14.53 3.357,14.498 C3.877,14.401 4.352,14.165 4.738,13.814 C4.962,13.61 5.154,13.362 5.303,13.081 C5.324,13.041 5.347,13.002 5.366,12.96 C5.47,12.737 5.544,12.492 5.581,12.236 C5.6,12.111 5.61,11.984 5.61,11.856 C5.611,11.396 5.488,10.956 5.283,10.586 C5.078,10.215 4.794,9.91 4.464,9.678 L4.439,9.66 L2.54,8.509 L2.539,8.511 L2.197,8.304 C2.096,8.23 2.023,8.145 1.98,8.065 C1.934,7.98 1.915,7.906 1.915,7.823 C1.915,7.787 1.918,7.753 1.926,7.719 C1.934,7.686 1.945,7.652 1.961,7.617 C2.009,7.512 2.107,7.392 2.258,7.3 C2.407,7.208 2.603,7.146 2.824,7.146 C2.869,7.146 2.912,7.149 2.954,7.154 C3.192,7.18 3.393,7.279 3.524,7.4 C3.602,7.471 3.655,7.546 3.687,7.617 C3.72,7.687 3.734,7.751 3.734,7.823 L5.61,7.823 C5.61,7.463 5.535,7.115 5.404,6.805 C5.392,6.776 5.379,6.747 5.366,6.718 C5.359,6.702 5.349,6.686 5.341,6.67 C5.108,6.193 4.749,5.815 4.324,5.553 C3.952,5.324 3.527,5.183 3.076,5.144 C2.993,5.137 2.909,5.132 2.824,5.132 C2.643,5.132 2.465,5.149 2.291,5.181 C1.772,5.278 1.297,5.514 0.911,5.864 C0.686,6.069 0.495,6.317 0.346,6.598 C0.325,6.638 0.302,6.676 0.282,6.718 C0.178,6.943 0.104,7.19 0.067,7.448 C0.049,7.571 0.039,7.696 0.039,7.823 C0.038,8.283 0.161,8.722 0.366,9.092 C0.571,9.463 0.855,9.769 1.185,10.001 L1.21,10.018 L3.108,11.17 L3.11,11.167 L3.451,11.375 C3.552,11.449 3.625,11.534 3.669,11.614 C3.715,11.698 3.733,11.773 3.734,11.856 C3.734,11.892 3.73,11.925 3.723,11.959 C3.715,11.993 3.704,12.026 3.687,12.062" id="Fill-8" sketch:type="MSShapeGroup"></path>
            </g>
        </g>
    </g>
</svg>