<?xml version="1.0" encoding="UTF-8" standalone="no"?>
<svg width="16px" height="20px" viewBox="0 0 16 20" version="1.1" xmlns="http://www.w3.org/2000/svg" xmlns:xlink="http://www.w3.org/1999/xlink" xmlns:sketch="http://www.bohemiancoding.com/sketch/ns">
    <!-- Generator: Sketch 3.4.2 (15857) - http://www.bohemiancoding.com/sketch -->
    <title>subtitle</title>
    <desc>Created with Sketch.</desc>
    <defs></defs>
    <g id="Page-1" stroke="none" stroke-width="1" fill="none" fill-rule="evenodd" sketch:type="MSPage">
        <g id="subtitle" sketch:type="MSArtboardGroup" transform="translate(-8.000000, -6.000000)" fill="#3A434C">
            <path d="M23.3930488,24.4586653 L17.0068622,11.2573343 C16.892774,11.0199585 16.694838,10.8567627 16.4694108,10.7542595 C16.4652872,10.751562 16.4625381,10.7475158 16.4584144,10.7448184 C16.4556653,10.7434697 16.4542907,10.7448184 16.4515416,10.7434697 C16.3525736,10.7003104 16.2481073,10.6800795 16.1395174,10.6665923 C16.0927825,10.6598486 16.0474222,10.6463614 16.0006873,10.6463614 C15.9525778,10.6463614 15.908592,10.6598486 15.8604826,10.6665923 C15.7518927,10.6800795 15.6474264,10.7003104 15.5484584,10.7434697 C15.5457093,10.7448184 15.5443347,10.7434697 15.5415856,10.7448184 C15.5374619,10.7475158 15.5347128,10.751562 15.5292146,10.7542595 C15.305162,10.8567627 15.107226,11.0199585 14.9931378,11.2573343 L10.9986784,19.5142354 C10.950569,19.5884154 10.9120814,19.663944 10.8845903,19.7502625 L8.60695119,24.4586653 C8.34578557,24.996807 8.57946007,25.6401493 9.12790786,25.8950586 C9.67773022,26.1513165 10.3333934,25.9220331 10.5931844,25.3838914 L12.6426473,21.1488915 L19.3587273,21.1488915 L21.4068156,25.3838914 C21.6666066,25.9220331 22.3222698,26.1513165 22.8720921,25.8950586 C23.4205399,25.6401493 23.6542144,24.996807 23.3930488,24.4586653 L23.3930488,24.4586653 Z M13.6859352,18.9909297 L16.0006873,14.208347 L18.3140648,18.9909297 L13.6859352,18.9909297 Z M12.4350893,8.15796175 L19.6583805,8.15796175 C20.2659342,8.15796175 20.7580252,7.67511781 20.7580252,7.07898087 C20.7580252,6.48284394 20.2659342,6 19.6583805,6 L12.4350893,6 C11.8275356,6 11.3354446,6.48284394 11.3354446,7.07898087 C11.3354446,7.67511781 11.8275356,8.15796175 12.4350893,8.15796175 Z" id="Fill-2" sketch:type="MSShapeGroup"></path>
        </g>
    </g>
</svg>