<?xml version="1.0" encoding="UTF-8" standalone="no"?>
<svg width="20px" height="20px" viewBox="0 0 20 20" version="1.1" xmlns="http://www.w3.org/2000/svg" xmlns:xlink="http://www.w3.org/1999/xlink" xmlns:sketch="http://www.bohemiancoding.com/sketch/ns">
    <!-- Generator: Sketch 3.4.2 (15857) - http://www.bohemiancoding.com/sketch -->
    <title>sunrise</title>
    <desc>Created with Sketch.</desc>
    <defs></defs>
    <g id="Page-1" stroke="none" stroke-width="1" fill="none" fill-rule="evenodd" sketch:type="MSPage">
        <g id="sunrise" sketch:type="MSArtboardGroup" transform="translate(-6.000000, -6.000000)" fill="#3A434C">
            <path d="M16,11 C13.239,11 11,13.239 11,16 C11,18.761 13.239,21 16,21 C18.761,21 21,18.761 21,16 C21,13.239 18.761,11 16,11 L16,11 Z M16.056,19.111 C14.368,19.111 13,17.743 13,16.056 C13,14.368 14.368,13 16.056,13 C17.743,13 19.111,14.368 19.111,16.056 C19.111,17.743 17.743,19.111 16.056,19.111 Z M21.373,20.101 C21.059,19.787 20.491,19.852 20.101,20.243 C19.707,20.636 19.647,21.203 19.959,21.515 L21.656,23.213 C21.971,23.527 22.538,23.462 22.929,23.071 C23.322,22.678 23.383,22.111 23.07,21.798 L21.373,20.101 Z M16,22 C15.444,22 15,22.358 15,22.8 L15,25.2 C15,25.645 15.448,26 16,26 C16.556,26 17,25.642 17,25.2 L17,22.8 C17,22.355 16.552,22 16,22 Z M25.2,15 L22.8,15 C22.355,15 22,15.448 22,16 C22,16.556 22.358,17 22.8,17 L25.2,17 C25.645,17 26,16.552 26,16 C26,15.444 25.642,15 25.2,15 Z M16,10 C16.556,10 17,9.642 17,9.2 L17,6.8 C17,6.355 16.552,6 16,6 C15.444,6 15,6.358 15,6.8 L15,9.2 C15,9.645 15.448,10 16,10 Z M21.373,11.899 L23.07,10.202 C23.385,9.887 23.32,9.319 22.929,8.929 C22.536,8.536 21.969,8.475 21.656,8.787 L19.959,10.485 C19.644,10.799 19.71,11.367 20.101,11.757 C20.494,12.151 21.061,12.211 21.373,11.899 Z M10.343,11.899 C10.657,12.213 11.225,12.148 11.615,11.757 C12.008,11.364 12.069,10.797 11.757,10.485 L10.06,8.787 C9.745,8.473 9.177,8.538 8.787,8.929 C8.394,9.322 8.333,9.889 8.645,10.202 L10.343,11.899 Z M10.343,20.101 L8.645,21.798 C8.331,22.113 8.396,22.681 8.787,23.071 C9.18,23.464 9.747,23.525 10.06,23.213 L11.757,21.515 C12.071,21.201 12.006,20.633 11.615,20.243 C11.222,19.849 10.655,19.789 10.343,20.101 Z M10,16 C10,15.444 9.642,15 9.2,15 L6.8,15 C6.355,15 6,15.448 6,16 C6,16.556 6.358,17 6.8,17 L9.2,17 C9.645,17 10,16.552 10,16 Z" sketch:type="MSShapeGroup"></path>
        </g>
    </g>
</svg>