<?xml version="1.0" encoding="UTF-8" standalone="no"?>
<svg width="20px" height="20px" viewBox="0 0 20 20" version="1.1" xmlns="http://www.w3.org/2000/svg" xmlns:xlink="http://www.w3.org/1999/xlink" xmlns:sketch="http://www.bohemiancoding.com/sketch/ns">
    <!-- Generator: Sketch 3.4.2 (15857) - http://www.bohemiancoding.com/sketch -->
    <title>sunset</title>
    <desc>Created with Sketch.</desc>
    <defs></defs>
    <g id="Page-1" stroke="none" stroke-width="1" fill="none" fill-rule="evenodd" sketch:type="MSPage">
        <g id="sunset" sketch:type="MSArtboardGroup" transform="translate(-6.000000, -6.000000)" fill="#3A434C">
            <path d="M25.2,18.818 L20.9,18.818 C20.437,16.328 18.419,14.454 16,14.454 C13.581,14.454 11.563,16.328 11.1,18.818 L6.8,18.818 C6.355,18.818 6,19.307 6,19.909 C6,20.516 6.358,21 6.8,21 L25.2,21 C25.645,21 26,20.512 26,19.909 C26,19.302 25.642,18.818 25.2,18.818 L25.2,18.818 Z M13.171,18.818 C13.583,17.547 14.694,16.636 16,16.636 C17.306,16.636 18.418,17.547 18.829,18.818 L13.171,18.818 Z M10.343,15.435 C10.657,15.778 11.225,15.707 11.615,15.281 C12.008,14.852 12.069,14.233 11.757,13.892 L10.06,12.041 C9.745,11.698 9.177,11.769 8.787,12.195 C8.394,12.624 8.333,13.243 8.645,13.584 L10.343,15.435 Z M16,13.364 C16.556,13.364 17,12.973 17,12.491 L17,9.873 C17,9.387 16.552,9 16,9 C15.444,9 15,9.391 15,9.873 L15,12.491 C15,12.976 15.448,13.364 16,13.364 Z M21.373,15.435 L23.07,13.584 C23.385,13.24 23.32,12.621 22.929,12.195 C22.536,11.766 21.969,11.7 21.656,12.041 L19.959,13.892 C19.644,14.235 19.71,14.855 20.101,15.281 C20.494,15.71 21.061,15.776 21.373,15.435 Z" sketch:type="MSShapeGroup"></path>
        </g>
    </g>
</svg>