<?xml version="1.0" encoding="UTF-8" standalone="no"?>
<svg width="19px" height="20px" viewBox="0 0 19 20" version="1.1" xmlns="http://www.w3.org/2000/svg" xmlns:xlink="http://www.w3.org/1999/xlink" xmlns:sketch="http://www.bohemiancoding.com/sketch/ns">
    <!-- Generator: Sketch 3.4.2 (15857) - http://www.bohemiancoding.com/sketch -->
    <title>title</title>
    <desc>Created with Sketch.</desc>
    <defs></defs>
    <g id="Page-1" stroke="none" stroke-width="1" fill="none" fill-rule="evenodd" sketch:type="MSPage">
        <g id="title" sketch:type="MSArtboardGroup" transform="translate(-6.000000, -6.000000)" fill="#3A434C">
            <path d="M24.8968325,24.4737948 L16.4758683,6.60497571 C16.3101273,6.25374257 15.9746677,6.052084 15.6153414,6.01736133 C15.5768896,6.01335487 15.5384377,6.00133549 15.4999858,6 C15.4615339,6.00133549 15.423082,6.01335487 15.3846301,6.01736133 C15.0253038,6.052084 14.6898442,6.25374257 14.5241033,6.60497571 L9.26414972,17.7656424 C9.19652742,17.863133 9.14481626,17.9686365 9.112994,18.0861594 L6.10313905,24.4737948 C5.85121286,25.0066542 6.0766205,25.6436816 6.60699142,25.8960887 C7.13603641,26.1498312 7.76850373,25.9227984 8.02042991,25.389939 L10.8260921,19.4350015 L20.1738795,19.4350015 L22.9808676,25.389939 C23.2314678,25.9227984 23.8652611,26.1498312 24.3943061,25.8960887 C24.923351,25.6436816 25.1487587,25.0066542 24.8968325,24.4737948 L24.8968325,24.4737948 Z M11.8324709,17.2982219 L15.4999858,9.51767335 L19.1675007,17.2982219 L11.8324709,17.2982219 L11.8324709,17.2982219 Z" sketch:type="MSShapeGroup"></path>
        </g>
    </g>
</svg>