<?xml version="1.0" encoding="UTF-8" standalone="no"?>
<svg width="20px" height="20px" viewBox="0 0 20 20" version="1.1" xmlns="http://www.w3.org/2000/svg" xmlns:xlink="http://www.w3.org/1999/xlink" xmlns:sketch="http://www.bohemiancoding.com/sketch/ns">
    <!-- Generator: Sketch 3.4.2 (15857) - http://www.bohemiancoding.com/sketch -->
    <title>twitter</title>
    <desc>Created with Sketch.</desc>
    <defs></defs>
    <g id="Page-1" stroke="none" stroke-width="1" fill="none" fill-rule="evenodd" sketch:type="MSPage">
        <g id="twitter" sketch:type="MSArtboardGroup" transform="translate(-6.000000, -6.000000)" fill="#3A434C">
            <path d="M23.6434193,10.6879153 C24.4906377,10.1565766 25.141384,9.31585802 25.4474898,8.31335359 C24.6545455,8.80552309 23.7763908,9.16258724 22.841791,9.35502721 C22.0933514,8.52112065 21.0268657,8 19.8469471,8 C17.5804613,8 15.7432836,9.92156143 15.7432836,12.2915818 C15.7432836,12.6276422 15.7796472,12.9551875 15.8496608,13.2696764 C12.4396201,13.0902929 9.41601085,11.3816075 7.39213026,8.78508699 C7.03880597,9.41917387 6.83690638,10.1565766 6.83690638,10.9427989 C6.83690638,12.4317962 7.56092266,13.7453835 8.66214383,14.5151434 C7.98968792,14.4930043 7.3568521,14.2999967 6.80379919,13.978128 C6.80325645,13.9962935 6.80325645,14.0144589 6.80325645,14.0320566 C6.80325645,16.1119979 8.21763908,17.8462283 10.0949796,18.2407587 C9.75033921,18.3383978 9.38778833,18.3911911 9.01383989,18.3911911 C8.7495251,18.3911911 8.49226594,18.363943 8.24151967,18.313988 C8.76363636,20.0192674 10.2789688,21.260193 12.0748982,21.2948209 C10.6702849,22.4460547 8.9009498,23.1317995 6.97856174,23.1317995 C6.64748982,23.1317995 6.32075984,23.1113634 6,23.0721942 C7.81601085,24.2898454 9.97286296,25 12.2898236,25 C19.8371777,25 23.9647218,18.4604468 23.9647218,12.7888603 C23.9647218,12.6032324 23.9603799,12.4181721 23.9527815,12.2336795 C24.7544098,11.6285438 25.4502035,10.8729756 26,10.0123886 C25.2640434,10.353558 24.47327,10.5840318 23.6434193,10.6879153 Z" sketch:type="MSShapeGroup"></path>
        </g>
    </g>
</svg>