<?xml version="1.0" encoding="utf-8"?>
<!-- Generator: Adobe Illustrator 19.2.0, SVG Export Plug-In . SVG Version: 6.00 Build 0)  -->
<svg version="1.1" id="Calque_1" xmlns:sketch="http://www.bohemiancoding.com/sketch/ns"
	 xmlns="http://www.w3.org/2000/svg" xmlns:xlink="http://www.w3.org/1999/xlink" x="0px" y="0px" viewBox="0 0 20 20"
	 style="enable-background:new 0 0 20 20;" xml:space="preserve">
<title>unpluged</title>
<desc>Created with Sketch.</desc>
<g id="Page-1" sketch:type="MSPage">
	<g id="unpluged" transform="translate(0.000000, 4.000000)" sketch:type="MSLayerGroup">
		<path id="Shape" sketch:type="MSShapeGroup" d="M1.6,3.5C1.5,3.5,1.5,3.5,1.6,3.5l-3.3,0c-0.6,0-1,0.5-1,1.1v2.7
			c0,0.6,0.5,1.1,1,1.1h3.2c0,0,0,0,0,0c0.9,3,3.5,5.1,6.5,5.1V-1.6C5-1.6,2.5,0.5,1.6,3.5L1.6,3.5z"/>
		<path id="Shape_1_" sketch:type="MSShapeGroup" d="M21.7,3.5h-3.2c0,0,0,0,0,0c-0.9-3-3.5-5.1-6.5-5.1v4.5H9.8
			c-0.3,0-0.5,0.3-0.5,0.6c0,0.3,0.2,0.6,0.5,0.6H12v3.7H9.8c-0.3,0-0.5,0.3-0.5,0.6s0.2,0.6,0.5,0.6H12v4.5c3,0,5.6-2.1,6.5-5.1
			c0,0,0,0,0,0h3.2c0.6,0,1-0.5,1-1.1V4.7C22.8,4,22.3,3.5,21.7,3.5L21.7,3.5z"/>
	</g>
</g>
</svg>
